<svg width="110" height="92" viewBox="0 0 110 92" fill="none" xmlns="http://www.w3.org/2000/svg">
<g clip-path="url(#clip0_2197_20865)">
<path d="M45.4089 33.5555L45.4067 33.5571L45.4044 33.5589L42.4881 35.8065C42.0554 36.14 41.8433 36.6787 41.8925 37.2128C41.9581 37.9229 41.9789 38.6314 41.9551 39.3344C41.9368 39.8751 42.1835 40.405 42.6416 40.7112L45.7914 42.8159C45.9074 42.8992 45.9491 43.0326 45.9195 43.1535L43.8293 48.7187C43.7753 48.8478 43.6457 48.9124 43.5459 48.8954L43.5403 48.8945L43.5347 48.8937L39.7832 48.3654C39.2466 48.2898 38.725 48.5183 38.3903 48.9301C37.9857 49.4281 37.5515 49.9001 37.0879 50.3427C36.701 50.7121 36.5069 51.2649 36.6189 51.8136L37.3265 55.2815L37.3268 55.2824C37.3524 55.4071 37.2935 55.5338 37.1655 55.5969L31.8128 58.0295L31.8089 58.0313L31.8051 58.0331C31.6908 58.088 31.5631 58.0525 31.4937 57.9558L31.4919 57.9534L31.4901 57.9509L29.4303 55.171C29.0979 54.7225 28.5602 54.5086 28.032 54.5646C27.3548 54.6365 26.6743 54.6589 26.0024 54.6357C25.4724 54.6174 24.9524 54.8693 24.6524 55.3386L22.6405 58.4852C22.6403 58.4856 22.64 58.486 22.6397 58.4864C22.5733 58.5868 22.4357 58.6361 22.3139 58.5877L22.313 58.5874L22.3122 58.587L16.8428 56.4461C16.7162 56.3909 16.6532 56.2585 16.6697 56.1568L16.6704 56.1528L16.671 56.1487L17.1969 52.4773C17.2777 51.9134 17.0423 51.367 16.6259 51.022C16.0703 50.5619 15.5454 50.0513 15.0516 49.5022C14.6908 49.101 14.1464 48.9021 13.6078 49.017L10.0619 49.7729L10.0613 49.7731C9.93894 49.7993 9.81471 49.739 9.75296 49.6084L7.37026 44.1438L7.36858 44.1398L7.36675 44.1359C7.31303 44.0193 7.3477 43.8891 7.44245 43.8182L7.44456 43.8165L7.44661 43.815L10.4168 41.5298C10.8472 41.1986 11.059 40.665 11.0162 40.1354C10.964 39.4897 10.9519 38.8409 10.9768 38.2001C10.9978 37.656 10.7502 37.122 10.2887 36.8147L7.30887 34.83C7.21061 34.7622 7.16244 34.6219 7.20975 34.4977L7.21009 34.4967L7.21043 34.4958L9.30756 28.9121C9.36157 28.783 9.49121 28.7184 9.59099 28.7354L9.59595 28.7362L9.60091 28.7369L13.1274 29.2451C13.6689 29.323 14.1951 29.0912 14.531 28.6749C14.9616 28.1411 15.4337 27.6299 15.9392 27.1536C16.3316 26.7838 16.5286 26.2265 16.4149 25.6737L15.6254 21.8343L15.6254 21.8341C15.5997 21.7096 15.6584 21.583 15.7858 21.5199L21.1373 19.1221L21.1422 19.1199L21.147 19.1177C21.2614 19.0626 21.389 19.0982 21.4584 19.1949L21.4602 19.1973L21.4619 19.1997L23.8346 22.4049C24.1591 22.8432 24.6808 23.0587 25.1986 23.015C25.8349 22.9613 26.4757 22.9492 27.1136 22.9751C27.6461 22.9966 28.168 22.7436 28.4687 22.2733L30.446 19.1799C30.4462 19.1795 30.4465 19.179 30.4468 19.1786C30.5132 19.0783 30.6508 19.029 30.7726 19.0773L30.7735 19.0777L30.7743 19.078L36.2436 21.2191C36.3702 21.2742 36.4333 21.4065 36.4167 21.5083L36.4159 21.5134L36.4151 21.5186L35.898 25.2731C35.8236 25.8131 36.0383 26.3409 36.4338 26.6837C36.8879 27.0772 37.3229 27.4947 37.7355 27.9397C38.0975 28.33 38.6357 28.5233 39.1685 28.4094L42.7897 27.6349L42.79 27.6349C42.9125 27.6085 43.0368 27.669 43.0985 27.7997L45.4814 33.2307L45.483 33.2342L45.4846 33.2377C45.5384 33.3543 45.5036 33.4845 45.4089 33.5555ZM30.8289 48.8344C36.255 46.3764 38.6967 39.876 36.2897 34.3375C33.8823 28.7805 27.5148 26.287 22.0892 28.7622C16.6633 31.2205 14.2218 37.721 16.6289 43.2595C19.0368 48.7994 25.4041 51.292 30.8289 48.8344Z" fill="white"/>
<path d="M95.2331 29.5915L95.2324 29.5922L95.2317 29.593L93.2879 31.4559C92.8499 31.8758 92.7112 32.5107 92.8828 33.0763C93.2375 34.246 93.4477 35.4363 93.5083 36.6289C93.5382 37.2234 93.8835 37.776 94.4426 38.016L97.0426 39.1321C97.1842 39.1979 97.2258 39.3298 97.2017 39.4179L97.2003 39.4244L97.1988 39.4309L96.3426 43.0314L96.3412 43.0376L96.3397 43.0437C96.3156 43.1611 96.1981 43.2565 96.0667 43.2504C96.066 43.2504 96.0652 43.2503 96.0652 43.2503L93.4163 43.0771C92.7901 43.0362 92.2251 43.398 91.9477 43.944C91.4039 45.0147 90.7229 46.0152 89.9149 46.9276C89.5134 47.3811 89.3798 48.0427 89.6309 48.6236L90.5879 50.8377V50.8382L90.5886 50.8387C90.6368 50.9497 90.601 51.1018 90.4791 51.1893L87.4448 53.2092L87.4404 53.2119L87.436 53.2148C87.339 53.2831 87.1901 53.2685 87.101 53.1707V53.1703L87.1003 53.1697L85.4353 51.351C85.0178 50.8956 84.3842 50.7568 83.8251 50.9415C82.5842 51.3508 81.3098 51.5815 80.0448 51.6277C79.4536 51.6492 78.8981 52.0031 78.6594 52.5839L77.62 55.1083L77.6185 55.1134L77.6163 55.1186C77.5747 55.2277 77.447 55.2992 77.32 55.265L77.3163 55.2641L77.3127 55.2631L73.7857 54.3887L73.7798 54.3872L73.774 54.3859C73.6587 54.3612 73.5652 54.2414 73.5711 54.1076C73.5711 54.107 73.5711 54.1063 73.5718 54.1057L73.7412 51.4459C73.7813 50.812 73.4331 50.2383 72.906 49.952C71.9777 49.4479 71.0942 48.8266 70.2828 48.099C69.8508 47.7115 69.2326 47.5772 68.679 47.8073L65.9994 48.9208L65.9935 48.9233L65.9877 48.9259C65.8765 48.9764 65.7408 48.9346 65.6738 48.8183L65.6719 48.8149L65.6698 48.8117L63.7745 45.6608C63.7028 45.5339 63.7282 45.3946 63.8274 45.3068L63.8286 45.3057L63.8299 45.3046L65.8115 43.521C66.2838 43.096 66.4321 42.4282 66.2444 41.84C65.8649 40.6502 65.642 39.4328 65.5698 38.2178C65.534 37.6144 65.1725 37.059 64.5995 36.8306L62.1544 35.8561C62.0082 35.7913 61.9501 35.6562 61.9755 35.5319C61.9755 35.5318 61.9756 35.5317 61.9756 35.5315L62.7311 31.9149L62.7312 31.9143L62.7313 31.9138C62.7612 31.7689 62.8839 31.6845 62.9891 31.6901L62.9927 31.6903L62.9963 31.6904L65.6342 31.7842C66.2474 31.806 66.7939 31.4438 67.061 30.9055C67.5954 29.8282 68.2634 28.811 69.0647 27.89C69.449 27.4484 69.5845 26.8129 69.3577 26.2433L68.202 23.3422L68.1996 23.3361L68.1969 23.3301C68.1476 23.2168 68.1884 23.0783 68.3023 23.0099L68.3056 23.008L68.3088 23.0059L71.395 21.0709C71.5195 20.9977 71.656 21.0236 71.742 21.1248L71.7431 21.1262L71.7443 21.1275L73.6273 23.3073C74.0426 23.788 74.6937 23.9392 75.2682 23.7515C76.3236 23.4066 77.4061 23.197 78.4937 23.1172C79.0813 23.0742 79.6185 22.7032 79.8382 22.1201L80.8309 19.4846C80.8944 19.336 81.0266 19.2768 81.1485 19.3028C81.1485 19.3028 81.1485 19.3029 81.1492 19.3029L84.6915 20.0742L84.6923 20.0743V20.0744C84.8346 20.105 84.9171 20.2303 84.912 20.3375L84.9112 20.3413V20.345L84.8193 23.076C84.7981 23.7116 85.1638 24.2752 85.7017 24.5438C86.8747 25.1293 87.9652 25.8821 88.947 26.7961C89.3922 27.2107 90.0448 27.3493 90.6178 27.0894L92.9492 26.0317C93.0579 25.9823 93.2068 26.0191 93.2922 26.1432L95.2711 29.2414L95.2733 29.2456L95.2762 29.2498C95.3433 29.3491 95.3287 29.5007 95.2331 29.5915ZM84.5134 45.7247V45.7245C89.036 42.9148 90.4565 36.9015 87.7039 32.3018C84.9521 27.6848 79.0623 26.2351 74.5572 29.0445C70.0347 31.8543 68.6146 37.8679 71.3669 42.4675C74.1193 47.0673 80.0083 48.5163 84.5134 45.7247Z" fill="white"/>
<path d="M63.3828 12.238L63.3904 12.2395L63.398 12.2408C63.4972 12.2577 63.6052 12.372 63.6167 12.5021V16.7572C63.6167 16.8917 63.5282 16.9989 63.4105 17.0256L63.4097 17.0258L63.409 17.026L60.8258 17.6229C60.3071 17.7427 59.9055 18.1314 59.7256 18.6191C59.65 18.8241 59.5695 19.0251 59.4829 19.2228C59.2712 19.706 59.2831 20.2857 59.5808 20.7546L60.9943 22.9811L60.9973 22.9858L61.0003 22.9904C61.0674 23.0899 61.0551 23.2317 60.9633 23.3254L57.9404 26.4116C57.8463 26.5077 57.7149 26.5211 57.6141 26.4567L57.6133 26.4563L57.6126 26.4558L55.3106 25.0009C54.8664 24.7201 54.3246 24.7053 53.8663 24.9089C53.7242 24.972 53.5803 25.0326 53.4351 25.0907C52.9616 25.2802 52.5898 25.6941 52.4789 26.2209L51.8868 29.0328L51.8866 29.0337L51.8864 29.0345C51.8578 29.1734 51.7508 29.2577 51.6243 29.2577H47.325C47.1931 29.2577 47.0881 29.1673 47.062 29.0472L47.0615 29.0451L47.061 29.0429L46.4331 26.2977C46.3099 25.7589 45.9155 25.3503 45.4336 25.1683C45.2294 25.0913 45.0273 25.0073 44.8279 24.9177C44.36 24.7074 43.8055 24.7279 43.3577 25.0236L41.0781 26.5287L41.0733 26.5319L41.0686 26.5352C40.9711 26.6036 40.832 26.591 40.7402 26.4974L37.7173 23.4111C37.6232 23.3151 37.6101 23.1811 37.673 23.0783L39.092 20.7605C39.3849 20.2821 39.383 19.6987 39.1674 19.2181C39.0884 19.042 39.0144 18.8619 38.9443 18.6788C38.7582 18.1929 38.3507 17.8113 37.8313 17.6997L35.249 17.1447C35.1128 17.1154 35.0303 17.0062 35.0303 16.8772V12.608C35.0303 12.4735 35.1187 12.3663 35.2366 12.3395L35.2379 12.3392L35.2393 12.3389L37.6823 11.7664C38.2177 11.641 38.6252 11.23 38.7961 10.7228C38.8862 10.4557 38.9847 10.1964 39.0925 9.94366C39.2968 9.46453 39.2819 8.89363 38.989 8.43075L37.5859 6.21314L37.5828 6.20822L37.5795 6.20337C37.5125 6.10386 37.5248 5.96194 37.6165 5.86832L40.6394 2.7821C40.7335 2.68602 40.8649 2.67261 40.9657 2.73701L40.9662 2.73731L40.9667 2.73761L43.1379 4.11442C43.5922 4.40251 44.1474 4.41116 44.6114 4.19574C44.8763 4.07282 45.1467 3.96034 45.4214 3.85711C45.9071 3.67471 46.293 3.25834 46.4088 2.7218L46.9276 0.31792L46.9277 0.317622C46.9539 0.197689 47.0589 0.107422 47.1907 0.107422H51.4899C51.6218 0.107422 51.7268 0.197838 51.753 0.31792L51.7536 0.320828L51.7543 0.323735L52.3342 2.8158C52.4558 3.33839 52.8336 3.74053 53.3026 3.92494C53.5105 4.00663 53.7154 4.09422 53.9179 4.18694C54.3869 4.40169 54.9428 4.37963 55.3903 4.08385L57.4852 2.69922L57.4898 2.69609L57.4944 2.69288C57.592 2.62438 57.7311 2.63698 57.8229 2.73067L60.8457 5.81689C60.9398 5.91289 60.9529 6.04691 60.89 6.1497L59.5401 8.35479C59.2589 8.8141 59.2453 9.37814 59.4576 9.85183C59.5803 10.1254 59.6924 10.4013 59.7918 10.6811C59.9731 11.1911 60.3918 11.6073 60.9419 11.7233L63.3828 12.238ZM47.4695 22.5574C51.8162 23.5856 56.1636 20.8258 57.1711 16.3868C58.1783 11.949 55.4749 7.51056 51.1271 6.482C46.7805 5.45381 42.433 8.21354 41.4255 12.6526C40.4184 17.0904 43.1217 21.5289 47.4695 22.5574Z" fill="white"/>
<path d="M59.0691 43.1926L59.0739 43.1948L59.0786 43.1968L61.7096 44.3088C61.8413 44.3706 61.9046 44.5059 61.8796 44.6339L61.3897 46.814C61.2529 47.4227 61.4964 48.0327 61.9493 48.4066C62.5686 48.9181 63.1237 49.4903 63.6108 50.1113C63.9799 50.5819 64.5871 50.8336 65.1902 50.686L67.3298 50.1622C67.4549 50.1374 67.5866 50.2023 67.6468 50.3361L68.734 53.0172C68.7858 53.1573 68.7321 53.2935 68.6348 53.352L68.6299 53.3549L68.6251 53.358L66.7248 54.5738C66.2086 54.904 65.9578 55.508 66.0173 56.0978C66.1288 57.2046 66.0829 58.3354 65.864 59.4578C65.7389 60.0987 65.9878 60.7885 66.5627 61.1468L68.1368 62.1275C68.2678 62.2163 68.2999 62.3641 68.2531 62.4716L68.2511 62.4764L68.249 62.4813L67.1598 65.1669C67.0994 65.3011 66.9673 65.366 66.8419 65.3406L64.4006 64.7585C63.8554 64.6288 63.3041 64.8248 62.931 65.2132C62.5801 65.5791 62.2049 65.9183 61.8122 66.2306C61.3397 66.607 61.0899 67.2361 61.2391 67.8578L61.6785 69.6885C61.7024 69.8159 61.6389 69.9501 61.5081 70.0112L58.8819 71.1211C58.7445 71.174 58.611 71.1196 58.5537 71.0198L58.5512 71.016L58.5486 71.0116L57.5231 69.3285C57.2017 68.8015 56.6121 68.5436 56.0351 68.601C55.2866 68.6763 54.5243 68.674 53.7635 68.592C53.1775 68.5294 52.5768 68.7925 52.2552 69.3314L51.2346 71.0436C51.1476 71.177 51.0029 71.2098 50.8975 71.1621L50.8927 71.1599L50.888 71.1576L48.2571 70.0455C48.1244 69.9837 48.061 69.8465 48.0876 69.7183V69.7176L48.4926 67.7512C48.6173 67.1452 48.3686 66.5452 47.9165 66.1784C47.2322 65.6239 46.6189 64.991 46.0897 64.2986C45.7216 63.817 45.1064 63.5569 44.4947 63.7075L42.3847 64.227C42.2597 64.2516 42.1281 64.1868 42.0679 64.0526L40.9806 61.3717C40.9289 61.2316 40.9826 61.0954 41.08 61.037L41.0844 61.0343L41.0888 61.0315L43.0693 59.771C43.5762 59.4485 43.8302 58.8604 43.7828 58.2794C43.7521 57.9027 43.7382 57.5218 43.7411 57.1416C43.7453 56.5953 43.4845 56.0619 43.0079 55.7656L40.6541 54.3016C40.5232 54.2128 40.4911 54.0651 40.5379 53.9576L40.54 53.9528L40.542 53.9479L41.6313 51.2619C41.6917 51.1277 41.8241 51.0628 41.9496 51.0883L43.9902 51.5691C44.6391 51.722 45.2829 51.4152 45.6356 50.8789C46.2181 49.9931 46.9119 49.2137 47.6873 48.5461C48.129 48.1658 48.3589 47.5576 48.2161 46.9567L47.6836 44.7176C47.6596 44.5902 47.723 44.456 47.854 44.3946L50.4802 43.2845C50.6175 43.2317 50.751 43.2865 50.8083 43.386L50.8109 43.3905L50.8136 43.3949L51.9421 45.2433C52.2736 45.7864 52.8882 46.0422 53.4805 45.9626C54.3396 45.8472 55.2185 45.8317 56.0956 45.9289C56.684 45.9941 57.29 45.7322 57.6137 45.1887L58.732 43.3112C58.819 43.1776 58.9637 43.1448 59.0691 43.1926ZM51.6215 65.3995L51.6223 65.4003C56.008 67.2526 61.0623 65.1312 62.8942 60.6359C64.7267 56.1566 62.6469 51.0131 58.2443 49.1434C53.8412 47.2733 48.8032 49.3954 46.9714 53.8908C45.1397 58.3863 47.2184 63.5301 51.6215 65.3995Z" fill="white"/>
<path d="M107.632 57.3399L106.831 56.9559C106.466 56.7806 106.231 56.4134 106.179 56.0046C106.153 55.8058 106.121 55.6086 106.081 55.4131C105.998 55.0114 106.095 54.5859 106.376 54.2936L107.011 53.6365C107.229 53.4135 107.263 53.0535 107.111 52.7964L105.868 50.7732C105.7 50.4988 105.365 50.3788 105.063 50.4988L104.264 50.7961C103.878 50.9399 103.449 50.846 103.125 50.587C102.952 50.448 102.771 50.315 102.587 50.1877C102.265 49.9666 102.056 49.604 102.056 49.2078V48.1499C102.056 47.8242 101.838 47.5499 101.536 47.4813L99.2516 46.9497C98.9494 46.8812 98.6304 47.0355 98.4961 47.3269L98.0954 48.194C97.9187 48.5769 97.545 48.8178 97.1333 48.867C96.8874 48.8963 96.6457 48.9381 96.4063 48.9916C96.0136 49.0796 95.5968 48.982 95.31 48.6939L94.7341 48.1156C94.5158 47.8927 94.1633 47.8585 93.9114 48.0127L91.9297 49.2816C91.6611 49.453 91.5436 49.7959 91.6611 50.1045L91.9195 50.8334C92.0596 51.2279 91.9669 51.6655 91.7122 51.9951C91.5698 52.1801 91.4341 52.3719 91.3071 52.5689C91.0866 52.9114 90.7224 53.1392 90.3209 53.1392H89.4779C89.1589 53.1392 88.8895 53.3621 88.8224 53.6708L88.3019 56.0025C88.2348 56.3112 88.3859 56.6369 88.6713 56.7741L89.3494 57.0975C89.726 57.2775 89.964 57.6611 90.0122 58.0832C90.0457 58.3768 90.0961 58.668 90.1603 58.9536C90.2516 59.3574 90.156 59.7878 89.8713 60.0832L89.3268 60.649C89.1085 60.8718 89.0742 61.2319 89.226 61.4891L90.4684 63.5119C90.6363 63.7869 90.972 63.9069 91.2742 63.7869L92.037 63.5111C92.4158 63.3746 92.8341 63.4657 93.1516 63.7169C93.3618 63.8838 93.5815 64.0404 93.8085 64.1857C94.1603 64.4101 94.3983 64.7917 94.3983 65.2151V66.0671C94.3983 66.3928 94.6165 66.6671 94.9187 66.7357L97.2027 67.2672C97.5049 67.3357 97.8239 67.1814 97.9589 66.89L98.3509 66.0387C98.5231 65.6653 98.883 65.426 99.283 65.3694C99.4903 65.3403 99.6954 65.303 99.8976 65.2583C100.29 65.1704 100.706 65.2688 100.992 65.5565L101.619 66.1871C101.838 66.41 102.19 66.4442 102.443 66.2899L104.424 65.0213C104.693 64.8498 104.811 64.507 104.693 64.1984L104.392 63.3344C104.257 62.9475 104.344 62.5196 104.59 62.1942C104.746 61.9875 104.894 61.7722 105.033 61.549C105.25 61.203 105.615 60.9747 106.017 60.9747H106.86C107.179 60.9747 107.447 60.7518 107.514 60.4432L108.035 58.1114C108.068 57.8028 107.917 57.477 107.632 57.3399ZM96.7494 63.0836C95.2881 62.7407 94.0793 61.8834 93.256 60.7347L92.7859 59.9631C92.1647 58.7458 91.9297 57.3227 92.2151 55.8825L92.2822 55.6082C92.6348 54.1851 93.4574 53.0192 94.5326 52.1962L95.3217 51.699C96.5479 51.0475 97.9925 50.8246 99.453 51.1675C102.678 51.9391 104.693 55.2138 103.937 58.5229C103.182 61.832 99.9735 63.8555 96.7494 63.0836Z" fill="white"/>
</g>
<g clip-path="url(#clip1_2197_20865)">
<path d="M109.51 77.8457H100.445C100.176 77.8457 99.9551 78.0705 99.9551 78.3453V81.8504C99.9551 82.1252 100.176 82.35 100.445 82.35H102.96V91.3335C102.96 91.6082 103.181 91.833 103.45 91.833H106.513C106.782 91.833 107.003 91.6082 107.003 91.3335V82.35H109.518C109.787 82.35 110.008 82.1252 110.008 81.8504V78.3453C110 78.0705 109.779 77.8457 109.51 77.8457Z" fill="white"/>
<path d="M88.114 91.833C87.8445 91.833 87.624 91.6082 87.624 91.3335V78.3453C87.624 78.0705 87.8445 77.8457 88.114 77.8457H91.1519C91.4213 77.8457 91.6418 78.0705 91.6418 78.3453V84.165L94.8757 78.1121C94.9655 77.9539 95.1288 77.854 95.3085 77.854H98.2402C98.5097 77.854 98.7302 78.0788 98.7302 78.3536V91.3418C98.7302 91.6166 98.5097 91.8414 98.2402 91.8414H95.2024C94.9329 91.8414 94.7124 91.6166 94.7124 91.3418V85.4888L91.4948 91.5666C91.405 91.7248 91.2417 91.8247 91.062 91.8247H88.114V91.833Z" fill="white"/>
<path d="M74.3296 77.8457H71.5531C71.349 77.8457 71.1693 77.9706 71.0958 78.1621L69.1522 83.3074L67.2413 78.1704C67.1678 77.9789 66.9881 77.8457 66.784 77.8457H63.6726C63.3297 77.8457 63.0928 78.1954 63.2153 78.5201L66.9065 88.3279C66.7187 88.4861 66.441 88.5693 66.0817 88.5693C65.8449 88.5693 65.5917 88.5194 65.3304 88.4195C65.1916 88.3612 64.6526 88.0698 64.1626 87.7867C63.8115 87.5786 63.3052 87.87 63.3052 88.2862V90.6757C63.3052 90.8256 63.3705 90.9755 63.493 91.0587C63.8033 91.2669 64.1789 91.4334 64.6281 91.5666C65.1916 91.7414 65.7387 91.8247 66.2777 91.8247C66.9718 91.8247 67.6006 91.7165 68.1804 91.5083C68.7684 91.3002 69.291 90.9338 69.7565 90.4093C70.2383 89.8848 70.6548 89.1605 71.0141 88.228L74.787 78.5284C74.9095 78.2037 74.6726 77.8457 74.3296 77.8457Z" fill="white"/>
<path d="M41.1332 91.7918C40.8147 91.7918 40.5615 91.5337 40.5615 91.209V90.1766C40.5615 89.8518 40.8147 89.5938 41.1332 89.5938H48.9728C49.2913 89.5938 49.5444 89.8518 49.5444 90.1766V91.209C49.5444 91.5337 49.2913 91.7918 48.9728 91.7918H41.1332Z" fill="white"/>
<path d="M41.2401 77.8457H33.4822C33.2127 77.8457 32.9922 78.0705 32.9922 78.3453V91.4167C32.9922 91.6915 33.2127 91.9163 33.4822 91.9163H35.8096C36.079 91.9163 36.2995 91.6915 36.2995 91.4167V81.5257H41.2401C41.5096 81.5257 41.7301 81.3009 41.7301 81.0262V78.3453C41.7301 78.0705 41.5096 77.8457 41.2401 77.8457Z" fill="white"/>
<path d="M51.8562 91.833C51.5867 91.833 51.3662 91.6082 51.3662 91.3335V78.3453C51.3662 78.0705 51.5867 77.8457 51.8562 77.8457H54.7634C55.0329 77.8457 55.2534 78.0705 55.2534 78.3453C55.2534 78.9197 55.2697 82.3666 55.2697 83.016L55.4494 86.7876V91.3335C55.4494 91.6082 55.2289 91.833 54.9594 91.833H51.8562Z" fill="white"/>
<path fill-rule="evenodd" clip-rule="evenodd" d="M55.6123 81.6572V84.3572H58.227V81.6572H55.6123ZM51.6123 80.343C51.6123 78.851 52.8022 77.6133 54.3064 77.6133H59.5329C61.0371 77.6133 62.227 78.851 62.227 80.343V85.6715C62.227 87.1634 61.0371 88.4011 59.5329 88.4011H54.3064C52.8022 88.4011 51.6123 87.1634 51.6123 85.6715V80.343Z" fill="white"/>
<path d="M21.9834 91.916C21.7057 91.916 21.4852 91.6829 21.4934 91.3915L21.9997 78.3283C22.0079 78.0619 22.2283 77.8454 22.4897 77.8454H23.437C23.8371 77.8954 24.8334 77.6373 24.8416 78.3283L25.3724 91.3915C25.3805 91.6746 25.1601 91.916 24.8824 91.916H21.9834Z" fill="white"/>
<path fill-rule="evenodd" clip-rule="evenodd" d="M19.5166 81.6572V84.4404H27.3577V81.6572H19.5166ZM15.5166 80.343C15.5166 78.851 16.7065 77.6133 18.2107 77.6133H28.6636C30.1678 77.6133 31.3577 78.851 31.3577 80.343V85.7547C31.3577 87.2467 30.1678 88.4844 28.6636 88.4844H18.2107C16.7065 88.4844 15.5166 87.2467 15.5166 85.7547V80.343Z" fill="white"/>
<path fill-rule="evenodd" clip-rule="evenodd" d="M86.1302 91.333L83.4762 78.5113C83.3945 78.1283 83.0597 77.8535 82.6759 77.8535H78.1926C77.8088 77.8535 77.4821 78.1199 77.4005 78.5029L74.5178 91.333C74.4606 91.5911 74.6566 91.8408 74.9179 91.8408H79.0092C79.2216 91.8408 79.4012 91.6743 79.4176 91.4579L80.3567 79.7518L81.3856 91.4495C81.402 91.666 81.5816 91.8325 81.7939 91.8325H85.7383C85.9914 91.8325 86.1874 91.5911 86.1302 91.333Z" fill="white"/>
<path d="M13.801 83.6155C14.0705 83.6155 14.291 83.3907 14.291 83.1159V81.1011C14.291 80.8263 14.0705 80.6015 13.801 80.6015H11.2613V78.3453C11.2613 78.0705 11.0408 77.8457 10.7713 77.8457H8.62361C8.35412 77.8457 8.13363 78.0705 8.13363 78.3453V80.6015H6.19822V78.3453C6.19822 78.0705 5.97773 77.8457 5.70824 77.8457H3.5605C3.29102 77.8457 3.07053 78.0705 3.07053 78.3453V80.6015H0.489978C0.22049 80.6015 0 80.8263 0 81.1011V83.1159C0 83.3907 0.22049 83.6155 0.489978 83.6155H3.07053V86.1299L0.489978 86.1465C0.22049 86.1465 0 86.3713 0 86.6461V88.6609C0 88.9357 0.22049 89.1605 0.489978 89.1605L3.07053 89.1438V91.4167C3.07053 91.6915 3.29102 91.9163 3.5605 91.9163H5.70824C5.97773 91.9163 6.19822 91.6915 6.19822 91.4167V89.1271L8.13363 89.1188V91.4167C8.13363 91.6915 8.35412 91.9163 8.62361 91.9163H10.7713C11.0408 91.9163 11.2613 91.6915 11.2613 91.4167V89.1022L13.801 89.0855C14.0705 89.0855 14.291 88.8607 14.291 88.586V86.5711C14.291 86.2964 14.0705 86.0716 13.801 86.0716L11.2613 86.0882V83.6155H13.801ZM8.13363 86.1049L6.19822 86.1132V83.6155H8.13363V86.1049Z" fill="white"/>
</g>
<defs>
<clipPath id="clip0_2197_20865">
<rect width="110" height="71.7802" fill="white"/>
</clipPath>
<clipPath id="clip1_2197_20865">
<rect width="110" height="14.1538" fill="white" transform="translate(0 77.8457)"/>
</clipPath>
</defs>
</svg>
