<svg width="326" height="16" viewBox="0 0 326 16" fill="none" xmlns="http://www.w3.org/2000/svg">
<path fill-rule="evenodd" clip-rule="evenodd" d="M324.812 13.9144C323.99 14.5127 322.438 14.8617 320.064 14.8617C318.147 14.9115 316.229 15.1109 315.864 15.41C315.499 15.7092 315.133 15.5097 315.133 15.0112C315.133 14.5127 314.494 14.1637 313.581 14.1637C312.303 14.1637 312.212 14.2634 313.216 14.6124C314.86 15.2106 312.394 15.6095 307.555 15.5596H304.085L306.094 14.6124C307.19 14.1138 307.646 13.6652 307.098 13.6652C306.459 13.6652 305.181 14.1138 304.085 14.7121C302.624 15.5097 301.529 15.7092 299.429 15.4599C297.785 15.3103 296.05 15.41 295.411 15.7092C294.681 16.0083 294.133 16.108 294.133 15.8587C294.133 15.6095 289.02 15.4599 282.719 15.5097C275.689 15.6095 271.397 15.4599 271.763 15.1608C272.584 14.413 270.484 12.6681 268.749 12.6681C267.471 12.6681 267.471 12.5684 268.476 12.2194C269.206 11.9701 270.393 11.8704 271.215 12.02C272.31 12.1696 272.219 12.0699 271.032 11.671C269.845 11.2722 269.023 11.2223 268.202 11.6212C267.562 11.9203 266.832 12.0699 266.649 11.9203C266.375 11.8206 266.193 12.1197 266.193 12.6182C266.193 13.1666 266.832 13.5156 267.562 13.4159C269.663 13.2663 271.215 14.2634 270.028 14.9614C269.115 15.5097 256.058 15.5097 253.318 14.9115C252.771 14.8118 252.131 14.9614 251.858 15.3103C251.675 15.6593 250.397 15.3602 248.753 14.4628C246.379 13.2663 246.014 12.8177 246.744 11.8206C247.201 11.2223 247.292 10.674 247.018 10.674C246.379 10.674 244.37 13.8147 244.644 14.3631C244.827 14.6124 244.279 14.6622 243.64 14.5127C242.909 14.3631 241.814 14.5127 241.266 14.8118C240.535 15.2106 240.262 15.2106 240.262 14.7619C240.262 14.413 239.348 14.1637 238.161 14.1637C236.974 14.1637 235.605 14.413 234.966 14.7619C234.327 15.1109 233.87 15.1608 233.87 14.8617C233.87 14.6124 228.939 14.413 222.274 14.413C197.712 14.3631 170.594 13.6153 166.577 12.9174C165.937 12.8177 165.207 12.9174 164.842 13.2165C164.568 13.5156 163.746 13.6153 163.016 13.4658C162.377 13.3162 161.555 13.4159 161.281 13.715C160.916 13.9643 160.276 14.064 159.82 13.8646C158.907 13.5655 153.154 13.4159 136.537 13.1666C132.428 13.0669 128.593 13.2165 127.954 13.4159C127.132 13.715 126.949 13.6153 127.497 13.1168C128.136 12.5684 128.045 12.5185 126.949 12.9672C126.219 13.2663 124.027 13.4159 122.019 13.3162C120.01 13.2663 116.358 13.2165 113.801 13.2165C107.957 13.3162 109.601 13.3162 87.3219 12.9174C41.8509 12.0699 38.4726 11.9701 29.7984 11.1226C26.3287 10.8235 21.7633 10.4745 19.7546 10.4247C17.7458 10.325 16.1935 10.0259 16.2849 9.72673C16.4675 9.42761 15.2805 9.32791 13.2718 9.42761C11.537 9.57717 10.2586 9.47746 10.5326 9.27805C10.7152 9.07864 9.89334 8.92908 8.52374 8.92908C7.15411 8.97893 5.23672 8.62996 4.23233 8.13142C3.22797 7.68274 1.58444 7.1842 0.580048 7.03464C-0.515625 6.88508 -0.0591125 6.78537 1.94965 6.73552C7.70203 6.68567 8.43246 6.53611 7.4281 5.98772C5.96719 5.19006 6.3324 4.04343 7.97592 4.3924C8.70636 4.54197 9.07162 4.49211 8.7977 4.24284C8.52377 3.99358 8.70639 3.6446 9.25424 3.44519C9.80209 3.24577 9.98471 2.84694 9.61948 2.54782C9.34558 2.19885 10.1672 2.59768 11.3542 3.39533C12.6325 4.19299 14.0934 4.69152 14.55 4.49211C15.8283 4.09328 14.9153 2.69738 13.5456 2.84694C12.9978 2.8968 12.4499 2.49797 12.2673 1.94958C11.9934 1.15192 12.0848 1.10207 12.8152 1.70031C13.5457 2.29855 14.0022 2.2487 15.6458 1.45104C16.924 0.819566 17.3502 0.836183 16.9241 1.5009C16.2849 2.34841 16.3762 2.39826 17.8372 1.70031C20.1198 0.753095 25.6895 0.55368 25.6895 1.45104C25.6895 1.84987 26.146 2.29855 26.7852 2.49797C27.4243 2.69738 27.5157 2.64753 27.1505 2.29855C26.5113 1.75016 26.8765 1.6006 29.6157 1.5009C30.1635 1.45104 30.9853 1.25163 31.3506 0.952508C31.8071 0.653387 32.3549 0.653385 33.0854 1.05221C33.6332 1.35134 34.7289 1.5009 35.3681 1.35133C36.0985 1.20177 37.3768 1.40119 38.1986 1.75016C39.4769 2.34841 39.6595 2.34841 38.9291 1.75016C38.3813 1.20178 38.7465 1.10207 41.1205 1.35133C42.9466 1.55075 43.8597 1.5009 43.4944 1.20178C43.2205 0.952508 43.4944 0.8528 44.2249 1.00236C45.4118 1.25163 48.9728 1.5009 52.4425 1.65046C53.4469 1.70031 53.8122 1.94958 53.447 2.2487C53.0817 2.59768 53.5383 2.59768 54.8166 2.19885C56.3688 1.75016 57.1905 1.75016 58.1949 2.19885C59.1993 2.69738 59.5645 2.64753 60.0211 2.04928C60.5689 1.20177 66.7778 1.05222 67.7822 1.89973C68.1474 2.14899 69.1518 2.14899 70.0648 1.94958C71.0692 1.70031 72.0735 1.6006 72.5301 1.6006C72.8953 1.65046 73.1693 1.45104 73.1693 1.10207C73.1693 0.802945 73.7171 0.902655 74.3562 1.45104C75.2693 2.09914 75.8172 2.19885 76.2738 1.75016C76.8216 1.30148 77.2781 1.30148 78.2825 1.75016C79.1956 2.14899 80.2913 2.14899 82.2087 1.80002C83.6697 1.5009 85.1305 1.40119 85.3131 1.55075C85.587 1.65046 86.0436 1.30148 86.4089 0.753094C86.9567 -0.194124 87.1393 -0.194124 88.3263 0.453973C89.1481 0.852801 90.2437 1.05221 90.7915 0.852799C91.3394 0.653385 91.522 0.852799 91.1568 1.35133C90.7916 1.94958 91.1568 2.04929 92.8004 1.89973C94.17 1.75017 95.2656 1.99943 95.8134 2.49797C96.4526 3.14606 96.8179 3.19592 97.3657 2.69738C97.731 2.34841 97.5484 1.89973 96.8179 1.65046C96.1788 1.45105 95.9047 1.10207 96.27 0.902656C96.5439 0.703241 97.457 0.802945 98.0961 1.10207C99.0092 1.55075 99.6484 1.5009 100.47 1.05221C101.383 0.603532 101.475 0.653385 101.018 1.30148C100.653 1.80002 100.835 2.19885 101.383 2.19885C101.931 2.19885 102.114 2.59767 101.748 3.04636C101.474 3.54489 101.475 3.79416 101.84 3.59474C102.479 3.34548 103.027 2.29855 103.209 1.05221C103.301 0.852799 103.94 0.70324 104.67 0.70324C105.401 0.70324 106.04 0.852799 106.04 1.05221C106.04 1.30148 106.953 1.45104 108.14 1.5009C109.236 1.5009 112.249 1.65046 114.897 1.84987C118.732 2.09914 119.919 1.99943 121.197 1.30148C122.232 0.769711 122.566 0.769711 122.201 1.30148C121.745 1.99943 122.201 2.14899 125.214 2.04928C127.132 2.04928 128.593 1.84987 128.41 1.65046C128.136 1.5009 129.232 1.35134 130.693 1.30148C132.154 1.30148 133.615 1.5009 133.889 1.75016C134.254 1.99943 135.076 2.19885 135.806 2.19885C136.537 2.19885 136.993 1.99943 136.719 1.80002C136.537 1.6006 137.176 1.35133 138.271 1.35133C139.458 1.30148 139.824 1.40119 139.184 1.6006C138.454 1.84987 138.363 2.2487 138.911 2.69738C139.641 3.29563 139.824 3.29562 139.824 2.74724C139.824 2.34841 140.371 2.19885 141.193 2.39826C141.924 2.54782 143.658 2.44812 145.028 2.14899C146.306 1.89973 147.676 1.84987 147.95 2.04928C148.224 2.2487 149.959 2.49797 151.694 2.59767C153.428 2.64753 155.163 2.9965 155.528 3.34548C156.076 3.79416 156.259 3.79416 156.259 3.29562C156.259 2.9965 156.989 2.69738 157.902 2.69738C159.181 2.69738 159.272 2.79709 158.085 3.19592C157.263 3.49504 157.172 3.69445 157.811 3.69445C158.45 3.69445 159.363 3.29562 159.82 2.79709C160.368 2.34841 160.824 2.19885 160.824 2.49797C160.824 3.24577 167.398 3.29562 168.311 2.54782C168.859 2.09914 169.042 2.09914 169.042 2.54782C169.042 2.8968 170.046 3.19592 171.325 3.19592C172.603 3.19592 173.607 3.39533 173.607 3.69445C173.607 3.94372 172.877 4.04343 172.055 3.89387C170.777 3.6446 170.685 3.69445 171.69 4.09328C172.42 4.3924 173.516 4.49211 174.155 4.34255C174.703 4.24284 175.616 4.74138 176.164 5.53903C176.712 6.28684 177.168 6.63581 177.168 6.28684C177.26 5.38947 178.903 5.53903 179.451 6.53611C180.181 7.78244 184.564 8.87922 184.564 7.8323C184.564 7.43347 184.199 7.23406 183.651 7.43347C182.738 7.73259 178.629 5.73845 179.451 5.33962C179.725 5.19006 180.729 5.33962 181.551 5.73845C182.586 6.17051 182.708 6.10404 181.916 5.53903C181.186 5.0405 179.907 4.74138 179.086 4.84108C178.264 4.94079 177.077 4.64167 176.438 4.14314C175.616 3.39533 175.707 3.19592 176.529 3.29562C177.168 3.39533 177.899 3.54489 178.173 3.69445C178.447 3.84402 179.999 4.34255 181.642 4.79123C184.473 5.63874 184.655 5.63874 186.39 4.69153C188.399 3.59475 189.586 3.34548 188.582 4.2927C188.125 4.64167 188.399 4.74138 189.403 4.54196C190.225 4.3924 191.047 4.49211 191.321 4.84108C191.777 5.28977 191.96 5.28977 192.417 4.84108C192.782 4.34255 193.695 4.3924 196.251 4.94079C198.504 5.43933 198.96 5.37286 197.621 4.74138C195.886 3.94372 195.795 3.74431 196.982 3.49504C197.712 3.34548 198.078 3.39533 197.804 3.69445C197.53 3.99358 198.078 4.19299 199.082 4.19299C200.086 4.19299 201.091 4.3924 201.456 4.64167C202.186 5.33962 207.482 5.19006 206.843 4.49211C206.569 4.19299 206.843 4.2927 207.574 4.69153C208.943 5.58889 212.413 6.03757 211.5 5.23991C210.769 4.54196 211.408 4.54197 215.061 5.38948C217.8 5.98772 218.439 5.98772 220.083 5.38948C221.27 4.89094 222 4.84109 222 5.19006C222 5.48918 222.365 5.58889 222.913 5.43933C223.37 5.28977 223.644 5.43933 223.37 5.7883C223.096 6.13728 223.278 6.73552 223.735 7.13435C224.374 7.73259 224.922 7.73259 225.926 7.28391C226.565 6.93493 227.57 6.88508 227.935 7.08449C228.392 7.28391 228.392 7.13435 228.026 6.78537C227.661 6.4364 226.931 6.28684 226.474 6.4364C226.018 6.63581 225.652 6.53611 225.652 6.23699C225.652 5.19006 227.661 5.14021 228.939 6.08742C229.761 6.73552 230.948 7.03464 232.044 6.93494C233.048 6.83523 233.87 6.93493 233.87 7.23406C233.87 7.48332 234.327 7.68274 234.874 7.68274C235.331 7.68274 235.514 7.43347 235.24 7.1842C234.966 6.88508 235.331 6.68567 236.153 6.68567C237.066 6.68567 237.34 6.4364 236.975 6.08742C236.609 5.7883 237.248 5.88801 238.344 6.33669C239.531 6.73552 241.083 6.98479 241.722 6.83523C242.544 6.68567 243.001 6.93494 243.001 7.43347C243.001 8.18127 243.183 8.23113 244.553 7.63289C245.557 7.13435 245.831 7.13435 245.375 7.53318C245.01 7.88215 245.192 8.18127 245.649 8.18127C246.927 8.18127 246.927 7.53318 245.649 6.83523C245.01 6.48625 245.009 6.18713 245.557 5.98772C246.105 5.7883 247.11 6.08742 247.749 6.53611C249.027 7.53318 251.218 7.93201 251.218 7.23406C251.218 6.98479 252.04 6.68567 253.045 6.53611C254.414 6.33669 254.871 6.53611 254.871 7.1842C254.871 8.28098 253.227 8.97893 251.036 8.77951C250.123 8.67981 249.392 8.82937 249.392 9.07864C249.392 9.3279 250.397 9.52732 251.675 9.52732C252.953 9.52732 253.958 9.3279 253.958 9.07864C253.958 8.82937 254.414 8.77952 255.053 8.97893C255.601 9.17834 255.784 9.12849 255.51 8.82937C255.145 8.53025 255.51 8.03171 256.24 7.68274C256.971 7.33376 257.336 6.83523 256.971 6.48625C256.697 6.18713 256.971 6.18713 257.701 6.53611C258.34 6.88508 259.893 7.1842 261.08 7.1842C262.814 7.1842 263.088 7.38362 262.632 8.23113C262.175 8.97893 262.267 9.17834 262.997 8.97893C263.545 8.77952 264.001 8.18127 264.001 7.63289C264.001 6.78538 264.275 6.73552 265.828 7.1842C266.832 7.48332 267.654 8.08156 267.654 8.5801C267.654 9.27805 267.836 9.32791 268.476 8.67981C269.023 8.28098 269.115 7.78244 268.841 7.48332C268.567 7.23406 268.749 7.1842 269.297 7.38362C269.936 7.58303 270.393 8.08157 270.393 8.48039C270.393 8.92908 271.032 9.17834 272.036 9.07864C272.949 8.97893 273.497 8.53025 273.315 8.03171C273.132 7.58303 273.497 7.1842 274.045 7.1842C274.502 7.1842 274.958 7.43347 274.958 7.78244C274.958 8.08157 275.506 7.93201 276.237 7.38362C277.089 6.75214 277.484 6.76876 277.424 7.43347C277.241 8.4804 280.254 8.82937 281.624 7.93201C282.08 7.63288 282.08 7.932 281.806 8.53025C281.35 9.37776 281.624 9.67688 282.628 9.67688C283.45 9.67688 284.089 9.32791 284.089 8.92908C284.089 8.53025 284.546 8.18127 285.093 8.18127C285.55 8.18127 285.733 8.38069 285.459 8.67981C285.093 9.02878 285.733 9.02878 287.285 8.67981C289.202 8.28098 290.207 8.38069 292.215 9.12849C294.224 9.92615 295.046 10.0259 295.959 9.52732C296.872 9.07864 296.963 9.07864 296.507 9.52732C296.05 9.976 296.507 10.1754 297.876 10.1754C299.246 10.1754 299.611 9.976 299.063 9.52732C298.607 9.17834 298.972 9.3279 299.885 9.82644C301.255 10.6739 301.894 10.7238 303.811 10.2253C306.733 9.52732 309.929 9.47747 309.107 10.2253C308.742 10.6241 309.016 10.6241 310.203 10.2751C312.942 9.47746 316.868 10.0757 316.503 11.2223C316.32 11.7707 316.503 12.0699 317.051 11.9203C317.507 11.7209 317.781 12.1197 317.599 12.7678C317.507 13.5156 317.873 13.8646 318.603 13.7649C319.334 13.715 319.608 13.8646 319.242 14.1637C318.968 14.413 319.06 14.6622 319.608 14.6622C320.064 14.6622 320.703 14.4628 321.068 14.1637C321.342 13.9144 322.255 13.8646 323.077 14.0141C323.99 14.2136 324.355 14.1138 323.99 13.8147C323.625 13.5156 323.99 13.1666 324.721 12.9672C326.364 12.6182 326.456 12.7179 324.812 13.9144ZM306.003 12.4188C305.546 12.2693 305.09 12.369 305.09 12.6182C305.09 12.9174 305.546 13.1666 306.003 13.1666C306.551 13.1666 306.916 13.0669 306.916 12.9672C306.916 12.8177 306.551 12.5684 306.003 12.4188ZM289.75 8.97893C289.294 8.82937 288.928 9.02878 288.928 9.42761C288.928 9.82644 289.294 10.0259 289.75 9.8763C290.115 9.72673 290.481 9.52732 290.481 9.42761C290.481 9.32791 290.115 9.12849 289.75 8.97893ZM286.463 13.0171C285.915 13.1666 285.915 13.0171 286.646 12.6182C288.106 11.7209 288.107 10.9232 286.554 11.6212C285.824 11.9203 284.911 11.9701 284.546 11.7707C284.089 11.5713 284.089 11.7209 284.454 12.02C284.82 12.369 284.728 12.6681 284.363 12.6681C283.906 12.6681 283.541 13.1168 283.45 13.715C283.359 14.4628 283.632 14.6124 284.363 14.2634C285.002 14.0141 286.372 13.8646 287.467 13.9144C289.111 13.9643 289.294 13.8646 288.563 13.3162C288.015 12.9672 287.102 12.8177 286.463 13.0171ZM283.633 10.5244C282.811 10.674 282.354 10.9232 282.628 11.0229C282.902 11.1725 283.45 11.1226 283.998 10.9232C285.459 10.4745 285.185 10.1754 283.633 10.5244ZM247.931 12.3191C247.657 12.4687 247.566 12.9174 247.84 13.2663C248.114 13.6652 248.388 13.5156 248.388 12.9672C248.479 12.4188 248.205 12.1197 247.931 12.3191ZM240.718 9.17834C239.988 9.17834 239.166 9.37776 238.892 9.67688C238.527 9.976 239.348 10.1754 240.718 10.1754C242.088 10.1754 242.909 9.976 242.544 9.67688C242.27 9.37776 241.449 9.17834 240.718 9.17834ZM235.97 8.62996C234.509 7.98186 234.418 8.03171 235.605 8.77951C236.792 9.62703 237.522 9.87629 237.522 9.47747C237.522 9.37776 236.792 8.97893 235.97 8.62996ZM227.935 9.47747C227.205 9.67688 226.565 10.0259 226.565 10.2751C226.565 10.5742 227.113 10.5244 227.935 10.1754C228.666 9.82644 229.305 9.47747 229.305 9.37776C229.305 9.27805 228.666 9.3279 227.935 9.47747ZM218.165 11.1226C216.248 10.5742 216.156 10.5742 217.343 11.322C217.983 11.8206 218.896 12.1696 219.352 12.1696C220.722 12.1696 220.265 11.7209 218.165 11.1226ZM207.756 7.48332C207.026 7.33376 206.752 6.88508 207.026 6.4364C207.847 5.28977 204.926 5.48918 203.739 6.63581C202.552 7.88215 202.552 8.18127 203.83 8.18127C204.286 8.18127 204.469 7.93201 204.195 7.68274C203.921 7.38362 204.287 7.1842 205.108 7.1842C206.021 7.1842 206.295 7.43347 205.93 7.78244C205.565 8.13142 205.565 8.28098 206.021 8.08156C206.387 7.88215 207.208 8.08157 207.847 8.48039C208.852 9.2282 208.943 9.2282 208.943 8.53025C208.943 8.08157 208.395 7.63288 207.756 7.48332ZM193.695 5.6886C193.238 5.6886 192.782 6.03757 192.782 6.48625C192.782 6.88508 193.238 7.0845 193.695 6.93494C194.243 6.78537 194.608 6.4364 194.608 6.13728C194.608 5.88801 194.243 5.6886 193.695 5.6886ZM179.542 9.52732C178.812 9.3279 177.99 9.42761 177.716 9.67688C177.351 9.976 177.99 10.1754 178.994 10.1754C181.277 10.1754 181.46 9.87629 179.542 9.52732ZM171.598 6.73552C169.955 6.78537 169.864 6.83523 171.142 7.03464C172.512 7.23406 172.603 7.38361 171.598 8.08156C170.503 8.82937 170.594 8.87922 172.055 8.23113C174.246 7.28391 173.972 6.68567 171.598 6.73552ZM88.235 1.20178C87.4132 0.852801 86.8654 0.802945 86.8654 1.10207C86.8654 1.35133 87.5045 1.70031 88.235 1.89973C88.9655 2.04929 89.6046 2.09914 89.6046 1.99943C89.6046 1.89972 88.9655 1.55075 88.235 1.20178ZM64.769 8.33083C64.0385 8.48039 64.3125 8.62996 65.3169 8.62996C66.3213 8.67981 66.8691 8.53025 66.5038 8.38069C66.2299 8.23113 65.4081 8.18127 64.769 8.33083ZM62.395 2.44812C62.1211 2.59768 62.3951 2.9965 63.0342 3.34548C63.9473 3.79416 64.0386 3.74431 63.4908 3.04636C63.2168 2.54782 62.6689 2.29855 62.395 2.44812ZM50.3425 2.19885C49.886 2.19885 49.4294 2.29856 49.4294 2.39826C49.4294 2.54782 49.886 2.79709 50.3425 2.94665C50.8904 3.09621 51.2556 2.9965 51.2556 2.74724C51.2556 2.44811 50.8904 2.19885 50.3425 2.19885ZM28.4288 6.18713C27.9722 6.18713 27.5157 6.28684 27.5157 6.38655C27.5157 6.53611 27.9722 6.78537 28.4288 6.93494C28.9766 7.0845 29.3418 6.98479 29.3418 6.73552C29.3418 6.4364 28.9766 6.18713 28.4288 6.18713ZM17.6544 3.94372C17.3806 4.09328 17.6545 4.49211 18.2937 4.84108C19.2068 5.28977 19.2981 5.23991 18.7502 4.54196C18.4763 4.04343 17.9284 3.79416 17.6544 3.94372ZM11.9935 5.6886C11.5369 5.6886 11.0804 5.7883 11.0804 5.88801C11.0804 6.03757 11.5369 6.28684 11.9935 6.4364C12.5413 6.58596 12.9065 6.48625 12.9065 6.23699C12.9065 5.93786 12.5413 5.6886 11.9935 5.6886Z" fill="#E83D46"/>
</svg>
