<svg width="60" height="50" viewBox="0 0 60 50" fill="none" xmlns="http://www.w3.org/2000/svg">
<g clip-path="url(#clip0_1192_6083)">
<path d="M24.7678 18.5822L24.7666 18.5831L24.7653 18.584L23.1746 19.7922C22.9386 19.9715 22.8229 20.2611 22.8498 20.5483C22.8855 20.93 22.8969 21.3108 22.8839 21.6887C22.8739 21.9794 23.0085 22.2642 23.2584 22.4289L24.9764 23.5603C25.0397 23.6051 25.0624 23.6768 25.0463 23.7418L23.9062 26.7335C23.8767 26.8029 23.806 26.8376 23.7516 26.8285L23.7486 26.828L23.7455 26.8275L21.6992 26.5436C21.4065 26.5029 21.122 26.6257 20.9395 26.8471C20.7187 27.1148 20.4819 27.3686 20.2291 27.6065C20.018 27.805 19.9121 28.1022 19.9732 28.3972L20.3592 30.2614L20.3593 30.2619C20.3734 30.3289 20.3412 30.3971 20.2714 30.431L17.3517 31.7387L17.3496 31.7396L17.3476 31.7406C17.2852 31.7701 17.2155 31.7511 17.1777 31.6991L17.1767 31.6978L17.1757 31.6964L16.0522 30.202C15.8709 29.9609 15.5776 29.846 15.2895 29.8761C14.9201 29.9147 14.5489 29.9268 14.1824 29.9143C13.8933 29.9044 13.6097 30.0399 13.446 30.2922L12.3487 31.9837C12.3485 31.9839 12.3484 31.9841 12.3482 31.9843C12.312 32.0383 12.237 32.0648 12.1705 32.0388L12.17 32.0386L12.1696 32.0384L9.18628 30.8875C9.11724 30.8578 9.08284 30.7867 9.09188 30.732L9.09224 30.7298L9.09256 30.7276L9.37942 28.754C9.42349 28.4509 9.29509 28.1571 9.06795 27.9717C8.76488 27.7243 8.47862 27.4498 8.20928 27.1547C8.01244 26.939 7.7155 26.8321 7.42171 26.8938L5.48762 27.3002L5.48726 27.3003C5.42053 27.3144 5.35277 27.282 5.31908 27.2118L4.01943 24.2741L4.01851 24.272L4.01752 24.2699C3.98822 24.2072 4.00713 24.1372 4.05881 24.0991L4.05996 24.0982L4.06108 24.0974L5.68116 22.8689C5.91594 22.6909 6.03148 22.4041 6.00811 22.1193C5.97964 21.7722 5.97307 21.4235 5.98661 21.079C5.99812 20.7865 5.86303 20.4994 5.61132 20.3342L3.98595 19.2673C3.93235 19.2309 3.90607 19.1554 3.93188 19.0887L3.93207 19.0881L3.93225 19.0877L5.07614 16.086C5.1056 16.0166 5.17631 15.9819 5.23074 15.991L5.23344 15.9914L5.23615 15.9918L7.1597 16.265C7.45508 16.3069 7.7421 16.1823 7.92528 15.9585C8.16019 15.6715 8.41766 15.3968 8.69338 15.1407C8.90742 14.9419 9.01488 14.6423 8.95289 14.3452L8.52226 12.2812L8.52222 12.2811C8.50824 12.2142 8.54021 12.1461 8.60973 12.1122L11.5287 10.8232L11.5314 10.822L11.534 10.8208C11.5964 10.7912 11.666 10.8104 11.7039 10.8623L11.7048 10.8636L11.7058 10.8649L13 12.5879C13.177 12.8236 13.4615 12.9394 13.744 12.9159C14.0911 12.8871 14.4406 12.8805 14.7885 12.8944C15.079 12.906 15.3637 12.77 15.5276 12.5172L16.6062 10.8543C16.6063 10.854 16.6065 10.8538 16.6066 10.8536C16.6428 10.7997 16.7179 10.7731 16.7843 10.7991L16.7848 10.7993L16.7853 10.7995L19.7685 11.9505C19.8376 11.9801 19.872 12.0512 19.8629 12.1059L19.8625 12.1087L19.8621 12.1115L19.58 14.1298C19.5394 14.4201 19.6565 14.7038 19.8723 14.8881C20.12 15.0996 20.3572 15.324 20.5823 15.5633C20.7797 15.7731 21.0733 15.877 21.3639 15.8158L23.3391 15.3995L23.3393 15.3994C23.4061 15.3853 23.4739 15.4178 23.5076 15.488L24.8073 18.4076L24.8082 18.4095L24.8091 18.4114C24.8384 18.474 24.8194 18.544 24.7678 18.5822ZM16.8151 26.7957C19.7747 25.4743 21.1066 21.9799 19.7937 19.0026C18.4805 16.0153 15.0074 14.6748 12.048 16.0054C9.08837 17.3269 7.75663 20.8214 9.06962 23.7988C10.383 26.7769 13.856 28.1168 16.8151 26.7957Z" fill="#C9FF22" stroke="#414143" stroke-width="0.5"/>
<path d="M51.9454 16.4501L51.945 16.4505L51.9446 16.4509L50.8844 17.4523C50.6455 17.6781 50.5698 18.0194 50.6634 18.3235C50.8569 18.9522 50.9716 19.5921 51.0046 20.2332C51.0209 20.5528 51.2093 20.8499 51.5142 20.9789L52.9324 21.5789C53.0097 21.6142 53.0324 21.6851 53.0192 21.7325L53.0184 21.736L53.0176 21.7395L52.5506 23.675L52.5498 23.6783L52.549 23.6816C52.5359 23.7447 52.4718 23.796 52.4001 23.7927C52.3997 23.7927 52.3993 23.7927 52.3993 23.7927L50.9545 23.6996C50.6129 23.6776 50.3047 23.8721 50.1534 24.1656C49.8568 24.7411 49.4853 25.279 49.0446 25.7695C48.8256 26.0133 48.7527 26.3689 48.8897 26.6812L49.4117 27.8715V27.8717L49.4121 27.872C49.4383 27.9316 49.4188 28.0134 49.3523 28.0605L47.6973 29.1463L47.6949 29.1478L47.6925 29.1493C47.6395 29.186 47.5583 29.1782 47.5097 29.1256V29.1254L47.5093 29.1251L46.6012 28.1474C46.3734 27.9025 46.0278 27.828 45.7229 27.9272C45.046 28.1473 44.3509 28.2713 43.6609 28.2961C43.3384 28.3077 43.0354 28.4979 42.9052 28.8102L42.3383 30.1672L42.3375 30.17L42.3363 30.1727C42.3136 30.2314 42.2439 30.2698 42.1746 30.2515L42.1726 30.2509L42.1706 30.2504L40.2468 29.7803L40.2436 29.7796L40.2405 29.7789C40.1775 29.7656 40.1266 29.7012 40.1298 29.6292C40.1298 29.6289 40.1298 29.6286 40.1302 29.6282L40.2225 28.1984C40.2444 27.8576 40.0545 27.5493 39.767 27.3953C39.2606 27.1243 38.7788 26.7903 38.3362 26.3992C38.1005 26.1909 37.7633 26.1187 37.4614 26.2424L35.9998 26.841L35.9965 26.8423L35.9934 26.8437C35.9327 26.8709 35.8587 26.8484 35.8222 26.7859L35.8211 26.7841L35.82 26.7823L34.7862 25.0885C34.7471 25.0203 34.7609 24.9454 34.815 24.8982L34.8157 24.8976L34.8164 24.897L35.8973 23.9382C36.1549 23.7097 36.2358 23.3508 36.1334 23.0346C35.9264 22.395 35.8048 21.7405 35.7655 21.0874C35.7459 20.763 35.5487 20.4644 35.2362 20.3417L33.9025 19.8178C33.8227 19.783 33.791 19.7103 33.8049 19.6435C33.8049 19.6434 33.805 19.6434 33.805 19.6433L34.217 17.6991L34.2171 17.6988L34.2172 17.6985C34.2335 17.6206 34.3004 17.5752 34.3578 17.5783L34.3597 17.5784L34.3617 17.5784L35.8006 17.6288C36.1351 17.6406 36.4331 17.4458 36.5788 17.1565C36.8703 16.5774 37.2347 16.0305 37.6718 15.5354C37.8813 15.298 37.9553 14.9564 37.8315 14.6502L37.2012 13.0907L37.1998 13.0874L37.1984 13.0842C37.1715 13.0232 37.1938 12.9488 37.2559 12.912L37.2577 12.911L37.2594 12.9099L38.9428 11.8697C39.0108 11.8303 39.0852 11.8443 39.1321 11.8987L39.1327 11.8994L39.1333 11.9001L40.1604 13.0719C40.387 13.3303 40.7421 13.4116 41.0555 13.3107C41.6312 13.1253 42.2216 13.0126 42.8148 12.9697C43.1353 12.9466 43.4284 12.7471 43.5482 12.4337L44.0897 11.0169C44.1243 10.9371 44.1964 10.9053 44.2629 10.9192C44.2629 10.9192 44.2629 10.9192 44.2633 10.9192L46.1955 11.3339L46.1959 11.334V11.334C46.2735 11.3504 46.3185 11.4178 46.3157 11.4754L46.3153 11.4775V11.4795L46.2651 12.9475C46.2536 13.2893 46.4531 13.5922 46.7465 13.7366C47.3863 14.0513 47.9811 14.4561 48.5166 14.9474C48.7595 15.1703 49.1154 15.2448 49.428 15.1051L50.6996 14.5364C50.759 14.5099 50.8402 14.5297 50.8868 14.5964L51.9661 16.2619L51.9673 16.2642L51.9689 16.2664C52.0056 16.3198 51.9976 16.4013 51.9454 16.4501ZM46.0983 25.1229V25.1227C48.5652 23.6123 49.34 20.3797 47.8386 17.9071C46.3376 15.4251 43.125 14.6458 40.6677 16.1561C38.2008 17.6665 37.4262 20.8992 38.9275 23.3719C40.4288 25.8446 43.641 26.6235 46.0983 25.1229Z" fill="#E83D46" stroke="#414143" stroke-width="0.5"/>
<path d="M34.5724 7.1226L34.5766 7.12344L34.5807 7.12412C34.6348 7.13321 34.6938 7.19464 34.7 7.26456V9.552C34.7 9.62429 34.6518 9.68195 34.5875 9.69629L34.5871 9.69641L34.5867 9.69649L33.1777 10.0174C32.8948 10.0818 32.6757 10.2907 32.5776 10.5529C32.5364 10.6631 32.4925 10.7711 32.4452 10.8774C32.3298 11.1372 32.3362 11.4488 32.4986 11.7009L33.2696 12.8978L33.2712 12.9003L33.2729 12.9028C33.3095 12.9563 33.3028 13.0325 33.2527 13.0829L31.6039 14.7419C31.5525 14.7936 31.4809 14.8008 31.4259 14.7662L31.4255 14.766L31.4251 14.7657L30.1694 13.9836C29.9271 13.8326 29.6316 13.8247 29.3816 13.9341C29.3041 13.968 29.2256 14.0006 29.1464 14.0318C28.8881 14.1337 28.6854 14.3562 28.6248 14.6394L28.3019 16.151L28.3018 16.1515L28.3017 16.1519C28.2861 16.2266 28.2277 16.2719 28.1587 16.2719H25.8136C25.7417 16.2719 25.6844 16.2233 25.6702 16.1587L25.6699 16.1576L25.6696 16.1565L25.3272 14.6807C25.26 14.3911 25.0448 14.1714 24.782 14.0736C24.6706 14.0321 24.5603 13.987 24.4516 13.9388C24.1964 13.8258 23.8939 13.8368 23.6497 13.9958L22.4062 14.8049L22.4036 14.8066L22.4011 14.8083C22.3479 14.8451 22.272 14.8384 22.2219 14.788L20.5731 13.129C20.5217 13.0774 20.5146 13.0053 20.5489 12.95L21.3229 11.704C21.4827 11.4469 21.4816 11.1333 21.364 10.8749C21.3209 10.7803 21.2806 10.6834 21.2423 10.585C21.1409 10.3238 20.9186 10.1187 20.6353 10.0587L19.2267 9.76032C19.1525 9.74458 19.1074 9.68583 19.1074 9.61651V7.3215C19.1074 7.24922 19.1557 7.19156 19.2199 7.17717L19.2207 7.17701L19.2214 7.17685L20.554 6.86911C20.846 6.80168 21.0683 6.58073 21.1615 6.30809C21.2106 6.16448 21.2644 6.02508 21.3232 5.88924C21.4346 5.63167 21.4265 5.32477 21.2667 5.07594L20.5014 3.88382L20.4997 3.88117L20.4979 3.87857C20.4613 3.82507 20.4681 3.74878 20.5181 3.69845L22.1669 2.03939C22.2183 1.98774 22.2899 1.98053 22.345 2.01515L22.3452 2.01531L22.3455 2.01547L23.5297 2.75561C23.7776 2.91048 24.0804 2.91512 24.3335 2.79932C24.478 2.73325 24.6255 2.67278 24.7753 2.61728C25.0403 2.51923 25.2508 2.2954 25.3139 2.00698L25.5969 0.71472L25.5969 0.71456C25.6112 0.650088 25.6685 0.601562 25.7404 0.601562H28.0854C28.1574 0.601562 28.2146 0.650168 28.2289 0.71472L28.2293 0.716283L28.2296 0.717846L28.5459 2.05751C28.6122 2.33844 28.8183 2.55461 29.0742 2.65375C29.1875 2.69766 29.2993 2.74475 29.4098 2.79459C29.6656 2.91004 29.9688 2.89818 30.2129 2.73918L31.3555 1.99484L31.3581 1.99315L31.3606 1.99143C31.4138 1.95461 31.4897 1.96138 31.5398 2.01175L33.1886 3.6708C33.2399 3.72242 33.247 3.79446 33.2127 3.84972L32.4764 5.03511C32.323 5.28202 32.3156 5.58523 32.4314 5.83987C32.4983 5.98693 32.5595 6.13527 32.6137 6.28565C32.7126 6.55985 32.941 6.78356 33.241 6.84591L34.5724 7.1226ZM25.8925 12.67C28.2634 13.2227 30.6347 11.7392 31.1842 9.35289C31.7336 6.96724 30.2591 4.58128 27.8875 4.02835C25.5166 3.47562 23.1453 4.95918 22.5957 7.34547C22.0464 9.73111 23.5209 12.1171 25.8925 12.67Z" fill="#812D9C" stroke="#414143" stroke-width="0.5"/>
<path d="M32.2196 23.7631L32.2222 23.7643L32.2248 23.7654L33.6599 24.3632C33.7317 24.3964 33.7662 24.4691 33.7526 24.5379L33.4854 25.7099C33.4107 26.0371 33.5436 26.365 33.7906 26.566C34.1284 26.841 34.4312 27.1485 34.6969 27.4824C34.8982 27.7354 35.2294 27.8707 35.5584 27.7913L36.7254 27.5097C36.7937 27.4964 36.8655 27.5313 36.8984 27.6032L37.4914 29.0445C37.5196 29.1198 37.4903 29.193 37.4372 29.2245L37.4346 29.2261L37.432 29.2277L36.3954 29.8813C36.1139 30.0588 35.9771 30.3835 36.0095 30.7005C36.0703 31.2955 36.0453 31.9034 35.9259 32.5068C35.8577 32.8513 35.9934 33.2221 36.307 33.4147L37.1656 33.9419C37.2371 33.9897 37.2546 34.0691 37.229 34.1269L37.2279 34.1295L37.2268 34.1321L36.6327 35.5759C36.5998 35.648 36.5277 35.6829 36.4593 35.6692L35.1277 35.3563C34.8303 35.2866 34.5296 35.3919 34.3261 35.6007C34.1347 35.7975 33.93 35.9798 33.7158 36.1477C33.4581 36.35 33.3218 36.6882 33.4032 37.0224L33.6429 38.0065C33.6559 38.075 33.6213 38.1472 33.5499 38.18L32.1175 38.7767C32.0425 38.8051 31.9698 38.7759 31.9385 38.7222L31.9371 38.7202L31.9357 38.7178L31.3763 37.813C31.201 37.5297 30.8794 37.391 30.5647 37.4219C30.1564 37.4624 29.7406 37.4612 29.3257 37.4171C29.006 37.3834 28.6784 37.5249 28.5029 37.8146L27.9462 38.735C27.8988 38.8067 27.8198 38.8243 27.7623 38.7987L27.7598 38.7975L27.7572 38.7963L26.3221 38.1984C26.2498 38.1652 26.2152 38.0915 26.2297 38.0225V38.0221L26.4506 36.9651C26.5186 36.6393 26.3829 36.3168 26.1364 36.1196C25.7631 35.8215 25.4286 35.4813 25.1399 35.1091C24.9392 34.8502 24.6036 34.7104 24.2699 34.7913L23.119 35.0706C23.0508 35.0838 22.979 35.0489 22.9462 34.9768L22.3531 33.5357C22.325 33.4603 22.3542 33.3871 22.4073 33.3557L22.4098 33.3543L22.4122 33.3527L23.4924 32.6752C23.7689 32.5018 23.9075 32.1857 23.8816 31.8733C23.8649 31.6708 23.8573 31.466 23.8589 31.2616C23.8612 30.968 23.7189 30.6813 23.4589 30.522L22.1751 29.735C22.1036 29.6872 22.0862 29.6078 22.1117 29.5501L22.1128 29.5475L22.1139 29.5448L22.7081 28.1009C22.741 28.0288 22.8132 27.9939 22.8817 28.0076L23.9948 28.2661C24.3487 28.3482 24.6999 28.1833 24.8922 27.895C25.21 27.4189 25.5884 26.9999 26.0114 26.641C26.2523 26.4365 26.3777 26.1096 26.2998 25.7866L26.0093 24.5829C25.9962 24.5144 26.0308 24.4423 26.1023 24.4092L27.5347 23.8125C27.6097 23.7841 27.6825 23.8136 27.7137 23.867L27.7151 23.8695L27.7166 23.8719L28.3321 24.8655C28.513 25.1574 28.8482 25.2949 29.1713 25.2521C29.6399 25.1901 30.1193 25.1818 30.5977 25.234C30.9186 25.2691 31.2492 25.1283 31.4257 24.8361L32.0357 23.8269C32.0832 23.7551 32.1621 23.7374 32.2196 23.7631ZM28.1573 35.7009L28.1577 35.7013C30.5499 36.697 33.3068 35.5566 34.306 33.1401C35.3055 30.7322 34.1711 27.9672 31.7697 26.9621C29.368 25.9567 26.62 27.0975 25.6209 29.5141C24.6217 31.9308 25.7556 34.6959 28.1573 35.7009Z" fill="#39B52C" stroke="#414143" stroke-width="0.5"/>
<path d="M58.7085 31.3676L58.2717 31.1611C58.0726 31.0669 57.9444 30.8695 57.9158 30.6497C57.9018 30.5429 57.8843 30.4369 57.8624 30.3317C57.8174 30.1158 57.87 29.8871 58.0237 29.7299L58.3697 29.3767C58.4887 29.2569 58.507 29.0633 58.4246 28.9251L57.7466 27.8375C57.655 27.69 57.4718 27.6255 57.307 27.69L56.8714 27.8498C56.6608 27.9271 56.4267 27.8766 56.2503 27.7374C56.1556 27.6627 56.0572 27.5912 55.9565 27.5228C55.7809 27.4039 55.6671 27.209 55.6671 26.996V26.4273C55.6671 26.2522 55.548 26.1047 55.3832 26.0679L54.1374 25.7821C53.9726 25.7453 53.7986 25.8282 53.7253 25.9849L53.5067 26.451C53.4104 26.6568 53.2065 26.7863 52.982 26.8128C52.8478 26.8285 52.716 26.851 52.5854 26.8798C52.3712 26.9271 52.1439 26.8746 51.9874 26.7197L51.6733 26.4089C51.5543 26.289 51.362 26.2706 51.2246 26.3536L50.1436 27.0356C49.9971 27.1278 49.933 27.3121 49.9971 27.478L50.1381 27.8698C50.2145 28.0819 50.1639 28.3172 50.025 28.4944C49.9474 28.5938 49.8733 28.6969 49.804 28.8028C49.6838 28.9869 49.4851 29.1094 49.2661 29.1094H48.8063C48.6323 29.1094 48.4854 29.2292 48.4488 29.3952L48.1649 30.6486C48.1282 30.8146 48.2107 30.9897 48.3663 31.0634L48.7362 31.2373C48.9417 31.334 49.0714 31.5402 49.0977 31.7671C49.116 31.925 49.1435 32.0815 49.1785 32.235C49.2283 32.4521 49.1762 32.6835 49.0209 32.8423L48.7239 33.1464C48.6048 33.2662 48.5861 33.4598 48.6689 33.5981L49.3466 34.6854C49.4381 34.8333 49.6213 34.8978 49.7861 34.8333L50.2022 34.685C50.4088 34.6116 50.6369 34.6606 50.8101 34.7956C50.9248 34.8854 51.0446 34.9695 51.1685 35.0477C51.3604 35.1683 51.4902 35.3734 51.4902 35.601V36.059C51.4902 36.2341 51.6092 36.3816 51.774 36.4185L53.0198 36.7042C53.1847 36.741 53.3586 36.6581 53.4323 36.5014L53.6461 36.0438C53.7401 35.8431 53.9363 35.7144 54.1545 35.684C54.2676 35.6684 54.3795 35.6483 54.4898 35.6243C54.704 35.577 54.9309 35.6299 55.087 35.7846L55.429 36.1236C55.548 36.2434 55.7403 36.2618 55.8781 36.1788L56.9586 35.4969C57.1056 35.4047 57.1697 35.2204 57.1056 35.0545L56.9411 34.59C56.8675 34.382 56.9152 34.152 57.0494 33.9771C57.1342 33.866 57.215 33.7502 57.2911 33.6303C57.4093 33.4442 57.6084 33.3215 57.8278 33.3215H58.2872C58.4612 33.3215 58.6077 33.2017 58.6444 33.0358L58.9282 31.7823C58.9466 31.6164 58.8641 31.4413 58.7085 31.3676ZM52.7726 34.4552C51.9755 34.2709 51.3162 33.81 50.8671 33.1925L50.6107 32.7777C50.2718 32.1233 50.1436 31.3583 50.2993 30.5841L50.3359 30.4367C50.5282 29.6716 50.977 29.0449 51.5634 28.6025L51.9938 28.3352C52.6627 27.985 53.4506 27.8651 54.2473 28.0495C56.0063 28.4642 57.1056 30.2246 56.6931 32.0035C56.281 33.7824 54.5312 34.8702 52.7726 34.4552Z" fill="#ECA73E"/>
<path fill-rule="evenodd" clip-rule="evenodd" d="M58.6444 33.0358L58.9282 31.7823C58.9466 31.6164 58.8641 31.4413 58.7085 31.3676L58.2717 31.1611C58.0726 31.0669 57.9444 30.8695 57.9158 30.6497C57.9018 30.5429 57.8843 30.4369 57.8624 30.3317C57.8174 30.1158 57.87 29.8871 58.0237 29.7299L58.3697 29.3767C58.4887 29.2569 58.507 29.0633 58.4246 28.9251L57.7466 27.8375C57.655 27.69 57.4718 27.6255 57.307 27.69L56.8714 27.8498C56.6608 27.9271 56.4267 27.8766 56.2503 27.7374C56.1556 27.6627 56.0572 27.5912 55.9565 27.5228C55.7809 27.4039 55.6671 27.209 55.6671 26.996V26.4273C55.6671 26.2522 55.548 26.1047 55.3832 26.0679L54.1374 25.7821C53.9726 25.7453 53.7986 25.8282 53.7253 25.9849L53.5067 26.451C53.4104 26.6568 53.2065 26.7863 52.982 26.8128C52.8478 26.8285 52.716 26.851 52.5854 26.8798C52.3712 26.9271 52.1439 26.8746 51.9874 26.7197L51.6733 26.4089C51.5543 26.289 51.362 26.2706 51.2246 26.3536L50.1436 27.0356C49.9971 27.1278 49.933 27.3121 49.9971 27.478L50.1381 27.8698C50.2145 28.0819 50.1639 28.3172 50.025 28.4944C49.9474 28.5938 49.8733 28.6969 49.804 28.8028C49.6838 28.9869 49.4851 29.1094 49.2661 29.1094H48.8063C48.6323 29.1094 48.4854 29.2292 48.4488 29.3952L48.1649 30.6486C48.1282 30.8146 48.2107 30.9897 48.3663 31.0634L48.7362 31.2373C48.9417 31.334 49.0714 31.5402 49.0977 31.7671C49.116 31.925 49.1435 32.0815 49.1785 32.235C49.2283 32.4521 49.1762 32.6835 49.0209 32.8423L48.7239 33.1464C48.6048 33.2662 48.5861 33.4598 48.6689 33.5981L49.3466 34.6854C49.4381 34.8333 49.6213 34.8978 49.7861 34.8333L50.2022 34.685C50.4088 34.6116 50.6369 34.6606 50.8101 34.7956C50.9248 34.8854 51.0446 34.9695 51.1685 35.0477C51.3604 35.1683 51.4902 35.3734 51.4902 35.601V36.059C51.4902 36.2341 51.6092 36.3816 51.774 36.4185L53.0198 36.7042C53.1847 36.741 53.3586 36.6581 53.4323 36.5014L53.6461 36.0438C53.7401 35.8431 53.9363 35.7144 54.1545 35.684C54.2676 35.6684 54.3795 35.6483 54.4898 35.6243C54.704 35.577 54.9309 35.6299 55.087 35.7846L55.429 36.1236C55.548 36.2434 55.7403 36.2618 55.8781 36.1788L56.9586 35.4969C57.1056 35.4047 57.1697 35.2204 57.1056 35.0545L56.9411 34.59C56.8675 34.382 56.9152 34.152 57.0494 33.9771C57.1342 33.866 57.215 33.7502 57.2911 33.6303C57.4093 33.4442 57.6084 33.3215 57.8278 33.3215H58.2872C58.4612 33.3215 58.6077 33.2017 58.6444 33.0358ZM55.6985 35.7717L56.676 35.1551L56.5282 34.7379C56.3989 34.3719 56.4888 33.9868 56.7022 33.7082C56.7795 33.6074 56.8527 33.5021 56.922 33.393C57.1111 33.0954 57.442 32.8808 57.8278 32.8808H58.2303L58.4863 31.7496L58.0858 31.5601C57.7342 31.394 57.5268 31.0562 57.4814 30.7068C57.4691 30.6106 57.4531 30.5157 57.4336 30.4219C57.3636 30.0834 57.4404 29.6978 57.7119 29.4206L58.0201 29.1057L57.4073 28.1224L57.0215 28.2639C56.6505 28.4 56.2599 28.305 55.98 28.0843C55.8944 28.0166 55.8044 27.9513 55.7121 27.8885C55.4278 27.6962 55.2291 27.3703 55.2291 26.996V26.4846L54.0968 26.2249L53.9029 26.6389C53.7329 27.0022 53.3845 27.2091 53.0326 27.2505C52.9135 27.2646 52.7961 27.2846 52.6794 27.3103C52.3406 27.385 51.956 27.3071 51.6801 27.0339L51.4042 26.7605L50.4267 27.3773L50.5497 27.7196C50.6843 28.0933 50.5892 28.4864 50.369 28.7672C50.2989 28.8569 50.232 28.9498 50.1699 29.045C49.98 29.3358 49.6519 29.5502 49.2661 29.5502H48.8628L48.6048 30.6891L48.9213 30.838C49.2841 31.0086 49.4915 31.3603 49.5329 31.716C49.5492 31.8572 49.5735 31.9977 49.6054 32.1361C49.6842 32.4803 49.6065 32.8717 49.333 33.1514L49.073 33.4174L49.6862 34.4012L50.0561 34.2696C50.42 34.1401 50.8022 34.2318 51.0785 34.4472C51.182 34.5282 51.2899 34.6041 51.4006 34.6738C51.7008 34.8625 51.9281 35.1995 51.9281 35.601V36.0017L53.0604 36.2614L53.2499 35.8559C53.4152 35.5025 53.7508 35.2949 54.0952 35.2476C54.1967 35.2336 54.2971 35.2156 54.3962 35.1935C54.735 35.119 55.1192 35.1979 55.3943 35.4704L55.6985 35.7717ZM50.3359 30.4367C50.5282 29.6716 50.977 29.0449 51.5634 28.6025L51.9938 28.3352C52.6627 27.985 53.4506 27.8651 54.2473 28.0495C56.0063 28.4642 57.1056 30.2246 56.6931 32.0035C56.281 33.7824 54.5312 34.8702 52.7726 34.4552C51.9755 34.2709 51.3162 33.81 50.8671 33.1925L50.6107 32.7777C50.2718 32.1233 50.1436 31.3583 50.2993 30.5841L50.3359 30.4367ZM52.6734 34.8846C54.6673 35.3542 56.6525 34.1199 57.1199 32.1036C57.5873 30.086 56.3395 28.0901 54.3472 27.6203L54.3464 27.6201L54.3456 27.6199C53.4442 27.4114 52.55 27.547 51.7919 27.9442L51.7776 27.9516L51.3166 28.2379L51.3006 28.2498C50.6409 28.7477 50.1301 29.4579 49.9115 30.3285L49.9111 30.3291L49.8721 30.4869L49.8701 30.4967C49.6933 31.3747 49.8395 32.2421 50.2225 32.9815L50.23 32.9964L50.504 33.4394L50.5139 33.4527C51.0223 34.1524 51.7708 34.6754 52.6734 34.8846Z" fill="#414143"/>
</g>
<g clip-path="url(#clip1_1192_6083)">
<path d="M59.7331 42.3906H54.7887C54.6418 42.3906 54.5215 42.5115 54.5215 42.6592V44.5434C54.5215 44.6911 54.6418 44.812 54.7887 44.812H56.1607V49.6413C56.1607 49.789 56.281 49.9098 56.4279 49.9098H58.0983C58.2453 49.9098 58.3656 49.789 58.3656 49.6413V44.812H59.7375C59.8845 44.812 60.0048 44.6911 60.0048 44.5434V42.6592C60.0003 42.5115 59.8801 42.3906 59.7331 42.3906Z" fill="#414143"/>
<path d="M48.0622 49.9098C47.9152 49.9098 47.7949 49.789 47.7949 49.6413V42.6592C47.7949 42.5115 47.9152 42.3906 48.0622 42.3906H49.7192C49.8662 42.3906 49.9865 42.5115 49.9865 42.6592V45.7877L51.7504 42.5338C51.7994 42.4488 51.8885 42.3951 51.9865 42.3951H53.5856C53.7326 42.3951 53.8528 42.5159 53.8528 42.6636V49.6457C53.8528 49.7934 53.7326 49.9143 53.5856 49.9143H51.9286C51.7816 49.9143 51.6613 49.7934 51.6613 49.6457V46.4993L49.9063 49.7666C49.8573 49.8516 49.7682 49.9053 49.6702 49.9053H48.0622V49.9098Z" fill="#414143"/>
<path d="M40.5431 42.3906H39.0286C38.9173 42.3906 38.8193 42.4578 38.7792 42.5607L37.719 45.3267L36.6767 42.5652C36.6366 42.4622 36.5386 42.3906 36.4273 42.3906H34.7302C34.5431 42.3906 34.4139 42.5786 34.4807 42.7532L36.4941 48.0255C36.3916 48.1106 36.2402 48.1553 36.0442 48.1553C35.915 48.1553 35.7769 48.1285 35.6344 48.0748C35.5587 48.0434 35.2647 47.8868 34.9974 47.7346C34.8059 47.6227 34.5297 47.7794 34.5297 48.0032V49.2877C34.5297 49.3682 34.5654 49.4488 34.6322 49.4936C34.8014 49.6055 35.0063 49.695 35.2513 49.7666C35.5587 49.8606 35.8571 49.9053 36.1511 49.9053C36.5297 49.9053 36.8727 49.8471 37.189 49.7353C37.5097 49.6234 37.7948 49.4264 38.0487 49.1445C38.3115 48.8625 38.5386 48.4731 38.7346 47.9718L40.7925 42.7576C40.8593 42.5831 40.7302 42.3906 40.5431 42.3906Z" fill="#414143"/>
<path d="M22.4368 49.8867C22.2631 49.8867 22.125 49.7479 22.125 49.5734V49.0184C22.125 48.8438 22.2631 48.7051 22.4368 48.7051H26.713C26.8867 48.7051 27.0248 48.8438 27.0248 49.0184V49.5734C27.0248 49.7479 26.8867 49.8867 26.713 49.8867H22.4368Z" fill="#414143"/>
<path d="M22.494 42.3906H18.2624C18.1154 42.3906 17.9951 42.5115 17.9951 42.6592V49.686C17.9951 49.8337 18.1154 49.9546 18.2624 49.9546H19.5319C19.6789 49.9546 19.7991 49.8337 19.7991 49.686V44.3689H22.494C22.641 44.3689 22.7613 44.248 22.7613 44.1003V42.6592C22.7613 42.5115 22.641 42.3906 22.494 42.3906Z" fill="#414143"/>
<path d="M28.2848 49.9098C28.1378 49.9098 28.0176 49.789 28.0176 49.6413V42.6592C28.0176 42.5115 28.1378 42.3906 28.2848 42.3906H29.8706C30.0176 42.3906 30.1378 42.5115 30.1378 42.6592C30.1378 42.968 30.1468 44.8209 30.1468 45.17L30.2447 47.1975V49.6413C30.2447 49.789 30.1245 49.9098 29.9775 49.9098H28.2848Z" fill="#414143"/>
<path fill-rule="evenodd" clip-rule="evenodd" d="M30.3332 44.4395V45.8909H31.7594V44.4395H30.3332ZM28.1514 43.733C28.1514 42.931 28.8004 42.2656 29.6209 42.2656H32.4717C33.2922 42.2656 33.9412 42.931 33.9412 43.733V46.5975C33.9412 47.3995 33.2922 48.0649 32.4717 48.0649H29.6209C28.8004 48.0649 28.1514 47.3995 28.1514 46.5975V43.733Z" fill="#414143"/>
<path d="M11.991 49.9547C11.8396 49.9547 11.7193 49.8294 11.7238 49.6727L11.9999 42.6504C12.0044 42.5071 12.1246 42.3908 12.2672 42.3908H12.7839C13.0021 42.4176 13.5456 42.2789 13.55 42.6504L13.8396 49.6727C13.844 49.8249 13.7238 49.9547 13.5723 49.9547H11.991Z" fill="#414143"/>
<path fill-rule="evenodd" clip-rule="evenodd" d="M10.6457 44.4395V45.9357H14.9227V44.4395H10.6457ZM8.46387 43.733C8.46387 42.931 9.11291 42.2656 9.9334 42.2656H15.635C16.4554 42.2656 17.1045 42.931 17.1045 43.733V46.6422C17.1045 47.4443 16.4554 48.1096 15.635 48.1096H9.9334C9.11291 48.1096 8.46387 47.4443 8.46387 46.6422V43.733Z" fill="#414143"/>
<path fill-rule="evenodd" clip-rule="evenodd" d="M46.9801 49.6407L45.5325 42.7481C45.4879 42.5422 45.3053 42.3945 45.096 42.3945H42.6505C42.4412 42.3945 42.263 42.5378 42.2184 42.7436L40.6461 49.6407C40.6149 49.7794 40.7218 49.9137 40.8643 49.9137H43.096C43.2118 49.9137 43.3098 49.8242 43.3187 49.7078L43.8309 43.415L44.3922 49.7034C44.4011 49.8197 44.4991 49.9092 44.6149 49.9092H46.7663C46.9044 49.9092 47.0113 49.7794 46.9801 49.6407Z" fill="#414143"/>
<path d="M7.52784 45.4923C7.67483 45.4923 7.7951 45.3714 7.7951 45.2237V44.1406C7.7951 43.9929 7.67483 43.8721 7.52784 43.8721H6.14254V42.6592C6.14254 42.5115 6.02227 42.3906 5.87528 42.3906H4.70379C4.55679 42.3906 4.43653 42.5115 4.43653 42.6592V43.8721H3.38085V42.6592C3.38085 42.5115 3.26058 42.3906 3.11359 42.3906H1.94209C1.7951 42.3906 1.67483 42.5115 1.67483 42.6592V43.8721H0.267261C0.120267 43.8721 0 43.9929 0 44.1406V45.2237C0 45.3714 0.120267 45.4923 0.267261 45.4923H1.67483V46.8439L0.267261 46.8529C0.120267 46.8529 0 46.9737 0 47.1214V48.2046C0 48.3523 0.120267 48.4731 0.267261 48.4731L1.67483 48.4642V49.686C1.67483 49.8337 1.7951 49.9546 1.94209 49.9546H3.11359C3.26058 49.9546 3.38085 49.8337 3.38085 49.686V48.4552L4.43653 48.4507V49.686C4.43653 49.8337 4.55679 49.9546 4.70379 49.9546H5.87528C6.02227 49.9546 6.14254 49.8337 6.14254 49.686V48.4418L7.52784 48.4328C7.67483 48.4328 7.7951 48.312 7.7951 48.1643V47.0812C7.7951 46.9335 7.67483 46.8126 7.52784 46.8126L6.14254 46.8216V45.4923H7.52784ZM4.43653 46.8305L3.38085 46.835V45.4923H4.43653V46.8305Z" fill="#414143"/>
</g>
<defs>
<clipPath id="clip0_1192_6083">
<rect width="60" height="39.1304" fill="white"/>
</clipPath>
<clipPath id="clip1_1192_6083">
<rect width="60" height="7.6087" fill="white" transform="translate(0 42.3906)"/>
</clipPath>
</defs>
</svg>
