<svg width="1220" height="21" viewBox="0 0 1220 21" fill="none" xmlns="http://www.w3.org/2000/svg">
<path fill-rule="evenodd" clip-rule="evenodd" d="M1215.55 18.2627C1212.48 19.0479 1206.67 19.5059 1197.79 19.5059C1190.61 19.5714 1183.43 19.8331 1182.07 20.2257C1180.7 20.6183 1179.33 20.3565 1179.33 19.7022C1179.33 19.0479 1176.94 18.5899 1173.52 18.5899C1168.74 18.5899 1168.4 18.7207 1172.16 19.1788C1178.31 19.9639 1169.08 20.4874 1150.97 20.422H1137.99L1145.51 19.1788C1149.61 18.5244 1151.31 17.9355 1149.26 17.9355C1146.87 17.9355 1142.09 18.5244 1137.99 19.3096C1132.52 20.3565 1128.42 20.6183 1120.56 20.2911C1114.41 20.0948 1107.92 20.2257 1105.53 20.6183C1102.79 21.0109 1100.74 21.1417 1100.74 20.8146C1100.74 20.4874 1081.61 20.2911 1058.03 20.3565C1031.72 20.4874 1015.66 20.2911 1017.03 19.8985C1020.1 18.917 1012.24 16.6269 1005.75 16.6269C1000.97 16.6269 1000.97 16.496 1004.72 16.038C1007.46 15.7108 1011.9 15.5799 1014.98 15.7762C1019.08 15.9725 1018.73 15.8417 1014.29 15.3182C1009.85 14.7948 1006.77 14.7293 1003.7 15.2528C1001.31 15.6454 998.574 15.8417 997.89 15.6454C996.865 15.5145 996.182 15.9071 996.182 16.5614C996.182 17.2812 998.574 17.7392 1001.31 17.6084C1009.17 17.4121 1014.98 18.7207 1010.53 19.6368C1007.12 20.3565 958.253 20.3565 948.001 19.5713C945.951 19.4405 943.559 19.6368 942.534 20.0948C941.851 20.5528 937.067 20.1602 930.916 18.9825C922.032 17.4121 920.665 16.8232 923.399 15.5145C925.108 14.7293 925.449 14.0096 924.424 14.0096C922.032 14.0096 914.515 18.1318 915.54 18.8516C916.223 19.1788 914.173 19.2442 911.781 19.0479C909.048 18.8516 904.947 19.0479 902.897 19.4405C900.163 19.9639 899.138 19.9639 899.138 19.375C899.138 18.917 895.721 18.5899 891.279 18.5899C886.837 18.5899 881.711 18.917 879.319 19.375C876.928 19.8331 875.219 19.8985 875.219 19.5059C875.219 19.1788 856.767 18.917 831.823 18.917C739.905 18.8516 638.42 17.8701 623.385 16.954C620.993 16.8232 618.259 16.954 616.893 17.3466C615.868 17.7392 612.792 17.8701 610.059 17.6738C607.667 17.4775 604.591 17.6084 603.566 18.001C602.199 18.3281 599.808 18.459 598.099 18.1973C594.682 17.8047 573.155 17.6084 510.965 17.2812C495.588 17.1503 481.237 17.3466 478.845 17.6084C475.77 18.001 475.086 17.8701 477.136 17.2158C479.528 16.496 479.187 16.4306 475.086 17.0195C472.353 17.4121 464.152 17.6084 456.634 17.4775C449.117 17.4121 435.449 17.3466 425.881 17.3466C404.012 17.4775 410.163 17.4775 326.788 16.954C156.62 15.8417 143.977 15.7108 111.515 14.5985C98.5308 14.2059 81.4457 13.7478 73.9282 13.6824C66.4108 13.5515 60.6017 13.1589 60.9434 12.7663C61.6267 12.3737 57.1848 12.2429 49.6675 12.3737C43.175 12.57 38.3912 12.4392 39.4164 12.1774C40.0997 11.9157 37.0242 11.7194 31.8987 11.7194C26.7732 11.7848 19.5975 11.3268 15.8389 10.6725C12.0801 10.0836 5.92944 9.42927 2.17078 9.23297C-1.92969 9.03667 -0.221191 8.9058 7.29626 8.84037C28.8235 8.77494 31.5571 8.57864 27.7985 7.85888C22.3312 6.81195 23.6979 5.307 29.8485 5.76503C32.5822 5.96133 33.9491 5.8959 32.924 5.56873C31.8988 5.24157 32.5823 4.78354 34.6324 4.52181C36.6826 4.26008 37.3662 3.73661 35.9994 3.34402C34.9742 2.88599 38.0492 3.40945 42.4913 4.45638C47.2751 5.5033 52.7424 6.15763 54.4509 5.8959C59.2347 5.37243 55.8179 3.54031 50.6923 3.73661C48.6421 3.80204 46.5918 3.27858 45.9083 2.55882C44.8833 1.5119 45.2253 1.44647 47.9589 2.23166C50.6925 3.01685 52.401 2.95142 58.5516 1.9045C63.3354 1.07568 64.9301 1.09749 63.3354 1.96993C60.9436 3.08228 61.2853 3.14772 66.7526 2.23166C75.295 0.988436 96.1388 0.726706 96.1388 1.9045C96.1388 2.42796 97.8472 3.01685 100.239 3.27858C102.631 3.54031 102.973 3.47488 101.606 3.01685C99.214 2.29709 100.581 2.10079 110.832 1.96993C112.882 1.9045 115.957 1.64277 117.324 1.25017C119.033 0.857571 121.083 0.857569 123.817 1.38103C125.867 1.77363 129.967 1.96992 132.359 1.77363C135.093 1.57733 139.876 1.83906 142.952 2.29709C147.736 3.08228 148.419 3.08228 145.686 2.29709C143.635 1.57733 145.002 1.44646 153.886 1.77363C160.721 2.03536 164.137 1.96993 162.771 1.57733C161.746 1.25017 162.77 1.1193 165.504 1.3156C169.946 1.64276 183.273 1.96993 196.257 2.16623C200.016 2.23166 201.383 2.55882 200.016 2.95142C198.649 3.40945 200.358 3.40945 205.142 2.88599C210.951 2.29709 214.026 2.29709 217.785 2.88599C221.543 3.54032 222.91 3.47488 224.619 2.68969C226.669 1.57733 249.905 1.38103 253.663 2.49339C255.03 2.82055 258.789 2.82055 262.206 2.55882C265.965 2.23166 269.723 2.10079 271.432 2.10079C272.798 2.16622 273.824 1.90449 273.824 1.44646C273.824 1.05387 275.874 1.18473 278.266 1.9045C281.683 2.75512 283.733 2.88599 285.442 2.29709C287.492 1.7082 289.2 1.7082 292.959 2.29709C296.376 2.82055 300.477 2.82055 307.652 2.36252C313.12 1.96993 318.586 1.83906 319.27 2.03536C320.295 2.16623 322.004 1.7082 323.371 0.988436C325.421 -0.254787 326.104 -0.254787 330.546 0.59584C333.622 1.1193 337.722 1.38103 339.772 1.1193C341.822 0.857569 342.506 1.1193 341.139 1.77363C339.772 2.55882 341.139 2.68969 347.29 2.49339C352.415 2.29709 356.515 2.62426 358.566 3.27858C360.958 4.12921 362.325 4.19464 364.375 3.54032C365.742 3.08228 365.058 2.49339 362.325 2.16623C359.933 1.9045 358.907 1.44647 360.274 1.18474C361.299 0.923004 364.716 1.05387 367.108 1.44646C370.525 2.03536 372.917 1.96993 375.993 1.38103C379.41 0.792135 379.751 0.857569 378.043 1.70819C376.676 2.36252 377.36 2.88599 379.41 2.88599C381.46 2.88599 382.143 3.40945 380.776 3.99834C379.751 4.65267 379.752 4.97983 381.118 4.7181C383.51 4.39094 385.56 3.01685 386.244 1.38103C386.586 1.1193 388.977 0.923004 391.711 0.923004C394.445 0.923004 396.836 1.1193 396.836 1.38103C396.836 1.70819 400.253 1.9045 404.695 1.96993C408.796 1.96993 420.072 2.16622 429.981 2.42796C444.333 2.75512 448.775 2.62425 453.559 1.70819C457.432 1.01025 458.684 1.01025 457.318 1.70819C455.609 2.62425 457.318 2.82055 468.594 2.68969C475.77 2.68969 481.237 2.42796 480.553 2.16623C479.528 1.96993 483.629 1.77363 489.096 1.70819C494.563 1.70819 500.031 1.96993 501.056 2.29709C502.422 2.62426 505.498 2.88599 508.231 2.88599C510.965 2.88599 512.673 2.62425 511.648 2.36252C510.965 2.10079 513.357 1.77363 517.457 1.77363C521.899 1.70819 523.266 1.83906 520.874 2.10079C518.14 2.42796 517.799 2.95142 519.849 3.54032C522.583 4.32551 523.266 4.32551 523.266 3.60575C523.266 3.08228 525.316 2.88599 528.392 3.14772C531.125 3.34402 537.618 3.21315 542.743 2.82055C547.527 2.49339 552.653 2.42796 553.678 2.68969C554.703 2.95142 561.195 3.27858 567.688 3.40945C574.18 3.47488 580.672 3.93291 582.039 4.39094C584.089 4.97983 584.773 4.97984 584.773 4.32551C584.773 3.93291 587.506 3.54032 590.923 3.54032C595.707 3.54032 596.049 3.67118 591.607 4.19464C588.531 4.58724 588.189 4.84897 590.581 4.84897C592.973 4.84897 596.391 4.32551 598.099 3.67118C600.149 3.08228 601.858 2.88599 601.858 3.27858C601.858 4.26007 626.46 4.32551 629.877 3.34402C631.927 2.75512 632.611 2.75512 632.611 3.34402C632.611 3.80204 636.37 4.19464 641.153 4.19464C645.937 4.19464 649.696 4.45638 649.696 4.84897C649.696 5.17614 646.962 5.307 643.887 5.1107C639.103 4.78354 638.762 4.84897 642.52 5.37243C645.254 5.76503 649.354 5.89589 651.746 5.69959C653.796 5.56873 657.213 6.22306 659.263 7.26998C661.314 8.25147 663.022 8.7095 663.022 8.25147C663.364 7.07368 669.515 7.26998 671.565 8.57864C674.299 10.2145 690.7 11.654 690.7 10.2799C690.7 9.75643 689.333 9.4947 687.283 9.75643C683.866 10.149 668.49 7.53171 671.565 7.00825C672.59 6.81195 676.349 7.00825 679.424 7.53171C683.296 8.0988 683.752 8.01155 680.791 7.26998C678.057 6.61565 673.273 6.22306 670.198 6.35392C667.123 6.48479 662.681 6.0922 660.289 5.43787C657.213 4.45638 657.555 4.19464 660.63 4.32551C663.022 4.45637 665.756 4.65267 666.781 4.84897C667.806 5.04527 673.615 5.6996 679.765 6.28849C690.358 7.40085 691.042 7.40085 697.534 6.15763C705.052 4.71811 709.494 4.39094 705.735 5.63416C704.027 6.09219 705.051 6.22306 708.81 5.96133C711.885 5.76503 714.961 5.89589 715.986 6.35392C717.695 6.94282 718.378 6.94282 720.086 6.35392C721.453 5.69959 724.87 5.76503 734.438 6.48479C742.866 7.13912 744.575 7.05187 739.563 6.22306C733.071 5.17613 732.729 4.9144 737.172 4.58724C739.905 4.39094 741.272 4.45638 740.247 4.84897C739.222 5.24157 741.272 5.5033 745.031 5.5033C748.79 5.5033 752.548 5.76503 753.915 6.0922C756.649 7.00825 776.467 6.81195 774.076 5.8959C773.05 5.5033 774.075 5.63416 776.809 6.15763C781.934 7.33542 794.919 7.92431 791.502 6.87739C788.769 5.96133 791.161 5.96133 804.829 7.07369C815.08 7.85888 817.472 7.85888 823.622 7.07369C828.064 6.41936 830.798 6.35393 830.798 6.81196C830.798 7.20455 832.165 7.33542 834.215 7.13912C835.923 6.94282 836.949 7.13912 835.923 7.59715C834.898 8.05518 835.582 8.84037 837.29 9.36384C839.682 10.149 841.732 10.149 845.491 9.56013C847.883 9.1021 851.642 9.03667 853.009 9.2984C854.717 9.56013 854.717 9.36383 853.35 8.9058C851.983 8.44777 849.25 8.25148 847.541 8.44777C845.833 8.70951 844.466 8.57864 844.466 8.18604C844.466 6.81195 851.983 6.74652 856.767 7.98974C859.843 8.84037 864.285 9.23297 868.385 9.1021C872.144 8.97124 875.219 9.1021 875.219 9.4947C875.219 9.82186 876.928 10.0836 878.978 10.0836C880.686 10.0836 881.37 9.75643 880.345 9.42927C879.32 9.03667 880.686 8.77494 883.762 8.77494C887.179 8.77494 888.204 8.44777 886.837 7.98974C885.47 7.59715 887.862 7.72801 891.963 8.31691C896.405 8.84037 902.214 9.16753 904.605 8.97123C907.681 8.77494 909.389 9.1021 909.389 9.75643C909.389 10.7379 910.073 10.8034 915.198 10.0182C918.957 9.36384 919.982 9.36383 918.274 9.88729C916.907 10.3453 917.59 10.7379 919.299 10.7379C924.083 10.7379 924.083 9.88729 919.299 8.97123C916.907 8.5132 916.907 8.12061 918.957 7.85888C921.007 7.59715 924.766 7.98974 927.158 8.57864C931.942 9.88729 940.143 10.4108 940.143 9.4947C940.143 9.16753 943.218 8.77494 946.977 8.57864C952.102 8.31691 953.811 8.57864 953.811 9.42927C953.811 10.8688 947.66 11.7848 939.459 11.5231C936.042 11.3922 933.309 11.5885 933.309 11.9157C933.309 12.2429 937.067 12.5046 941.851 12.5046C946.635 12.5046 950.394 12.2429 950.394 11.9157C950.394 11.5885 952.102 11.5231 954.494 11.7848C956.544 12.0466 957.228 11.9811 956.202 11.5885C954.836 11.1959 956.203 10.5416 958.936 10.0836C961.67 9.62557 963.036 8.97124 961.67 8.51321C960.644 8.12061 961.67 8.12061 964.403 8.57864C966.795 9.03667 972.604 9.42927 977.046 9.42927C983.538 9.42927 984.564 9.691 982.855 10.8034C981.147 11.7848 981.489 12.0466 984.222 11.7848C986.272 11.5231 987.981 10.7379 987.981 10.0182C987.981 8.90581 989.006 8.84037 994.815 9.42927C998.574 9.82186 1001.65 10.6071 1001.65 11.2614C1001.65 12.1774 1002.33 12.2429 1004.72 11.3923C1006.77 10.8688 1007.12 10.2145 1006.09 9.82186C1005.07 9.4947 1005.75 9.42927 1007.8 9.691C1010.19 9.95273 1011.9 10.6071 1011.9 11.1305C1011.9 11.7194 1014.29 12.0466 1018.05 11.9157C1021.47 11.7848 1023.52 11.1959 1022.83 10.5416C1022.15 9.95273 1023.52 9.42927 1025.57 9.42927C1027.28 9.42927 1028.99 9.75643 1028.99 10.2145C1028.99 10.6071 1031.04 10.4108 1033.77 9.691C1036.96 8.86218 1038.44 8.88399 1038.21 9.75643C1037.53 11.1305 1048.8 11.5885 1053.93 10.4108C1055.64 10.0182 1055.64 10.4108 1054.61 11.1959C1052.9 12.3083 1053.93 12.7009 1057.69 12.7009C1060.76 12.7009 1063.16 12.2429 1063.16 11.7194C1063.16 11.196 1064.86 10.7379 1066.91 10.7379C1068.62 10.7379 1069.31 10.9997 1068.28 11.3923C1066.91 11.8503 1069.31 11.8503 1075.11 11.3923C1082.29 10.8688 1086.05 10.9997 1093.57 11.9811C1101.08 13.0281 1104.16 13.1589 1107.58 12.5046C1110.99 11.9157 1111.34 11.9157 1109.63 12.5046C1107.92 13.0935 1109.63 13.3552 1114.75 13.3552C1119.88 13.3552 1121.24 13.0935 1119.19 12.5046C1117.49 12.0466 1118.85 12.2429 1122.27 12.8972C1127.4 14.0096 1129.79 14.075 1136.96 13.4207C1147.9 12.5046 1159.86 12.4392 1156.78 13.4207C1155.41 13.9441 1156.44 13.9441 1160.88 13.4861C1171.13 12.4392 1185.83 13.2244 1184.46 14.7293C1183.78 15.4491 1184.46 15.8417 1186.51 15.6454C1188.22 15.3837 1189.24 15.9071 1188.56 16.7577C1188.22 17.7392 1189.58 18.1973 1192.32 18.0664C1195.05 18.001 1196.08 18.1973 1194.71 18.5899C1193.69 18.917 1194.03 19.2442 1196.08 19.2442C1197.79 19.2442 1200.18 18.9825 1201.54 18.5899C1202.57 18.2627 1205.99 18.1973 1209.06 18.3936C1212.48 18.6553 1213.85 18.5244 1212.48 18.1318C1211.11 17.7392 1212.48 17.2812 1215.21 17.0195C1221.36 16.5614 1221.7 16.6923 1215.55 18.2627ZM1145.16 16.2997C1143.46 16.1034 1141.75 16.2343 1141.75 16.5614C1141.75 16.954 1143.46 17.2812 1145.16 17.2812C1147.21 17.2812 1148.58 17.1503 1148.58 17.0195C1148.58 16.8232 1147.21 16.496 1145.16 16.2997ZM1084.34 11.7848C1082.63 11.5885 1081.27 11.8503 1081.27 12.3737C1081.27 12.8972 1082.63 13.1589 1084.34 12.9626C1085.71 12.7663 1087.07 12.5046 1087.07 12.3737C1087.07 12.2429 1085.71 11.9811 1084.34 11.7848ZM1072.04 17.0849C1069.99 17.2812 1069.99 17.0849 1072.72 16.5614C1078.19 15.3837 1078.19 14.3367 1072.38 15.2528C1069.65 15.6454 1066.23 15.7108 1064.86 15.4491C1063.16 15.1873 1063.16 15.3836 1064.52 15.7762C1065.89 16.2343 1065.55 16.6269 1064.18 16.6269C1062.47 16.6269 1061.1 17.2158 1060.76 18.001C1060.42 18.9825 1061.45 19.1788 1064.18 18.7207C1066.57 18.3936 1071.7 18.1973 1075.8 18.2627C1081.95 18.3281 1082.63 18.1973 1079.9 17.4775C1077.85 17.0195 1074.43 16.8232 1072.04 17.0849ZM1061.45 13.8133C1058.37 14.0096 1056.66 14.3367 1057.69 14.4676C1058.71 14.6639 1060.76 14.5985 1062.81 14.3367C1068.28 13.7478 1067.26 13.3552 1061.45 13.8133ZM927.841 16.1688C926.816 16.3651 926.474 16.954 927.499 17.4121C928.524 17.9355 929.55 17.7392 929.55 17.0195C929.892 16.2997 928.867 15.9071 927.841 16.1688ZM900.847 12.0466C898.113 12.0466 895.038 12.3083 894.013 12.7009C892.646 13.0935 895.721 13.3552 900.847 13.3552C905.972 13.3552 909.048 13.0935 907.681 12.7009C906.656 12.3083 903.58 12.0466 900.847 12.0466ZM883.078 11.3268C877.611 10.4762 877.27 10.5416 881.712 11.5231C886.154 12.6355 888.887 12.9626 888.887 12.4392C888.887 12.3083 886.153 11.7848 883.078 11.3268ZM853.009 12.4392C850.275 12.7009 847.883 13.1589 847.883 13.4861C847.883 13.8787 849.933 13.8133 853.009 13.3552C855.742 12.8972 858.134 12.4392 858.134 12.3083C858.134 12.1774 855.742 12.2429 853.009 12.4392ZM816.446 14.5985C809.271 13.8787 808.929 13.8787 813.371 14.8602C815.763 15.5145 819.18 15.9725 820.889 15.9725C826.014 15.9725 824.305 15.3837 816.446 14.5985ZM777.493 9.82186C774.759 9.62556 773.734 9.03667 774.759 8.44777C777.834 6.94282 766.9 7.20455 762.458 8.70951C758.015 10.3453 758.015 10.7379 762.799 10.7379C764.508 10.7379 765.191 10.4108 764.166 10.0836C763.141 9.691 764.508 9.42927 767.583 9.42927C771 9.42927 772.025 9.75643 770.659 10.2145C769.292 10.6725 769.292 10.8688 771 10.6071C772.367 10.3453 775.442 10.6071 777.834 11.1305C781.593 12.112 781.934 12.112 781.934 11.1959C781.934 10.6071 779.884 10.0182 777.493 9.82186ZM724.87 7.46628C723.162 7.46628 721.453 7.92431 721.453 8.51321C721.453 9.03667 723.162 9.2984 724.87 9.1021C726.921 8.9058 728.287 8.44778 728.287 8.05518C728.287 7.72801 726.921 7.46628 724.87 7.46628ZM671.907 12.5046C669.173 12.2429 666.098 12.3737 665.073 12.7009C663.706 13.0935 666.098 13.3552 669.856 13.3552C678.399 13.3552 679.082 12.9626 671.907 12.5046ZM642.178 8.84037C636.028 8.9058 635.686 8.97124 640.47 9.23297C645.595 9.4947 645.937 9.69099 642.178 10.6071C638.078 11.5885 638.42 11.654 643.887 10.8034C652.088 9.56013 651.062 8.77494 642.178 8.84037ZM330.205 1.57733C327.129 1.1193 325.079 1.05387 325.079 1.44646C325.079 1.77363 327.471 2.23166 330.205 2.49339C332.938 2.68969 335.33 2.75512 335.33 2.62426C335.33 2.49339 332.938 2.03536 330.205 1.57733ZM242.387 10.9342C239.653 11.1305 240.679 11.3268 244.438 11.3268C248.196 11.3923 250.246 11.196 248.879 10.9997C247.854 10.8034 244.779 10.7379 242.387 10.9342ZM233.503 3.21315C232.478 3.40945 233.503 3.93291 235.895 4.39094C239.312 4.97983 239.654 4.9144 237.604 3.99834C236.578 3.34402 234.528 3.01685 233.503 3.21315ZM188.398 2.88599C186.69 2.88599 184.981 3.01685 184.981 3.14772C184.981 3.34402 186.69 3.67118 188.398 3.86748C190.448 4.06378 191.815 3.93291 191.815 3.60575C191.815 3.21315 190.448 2.88599 188.398 2.88599ZM106.39 8.12061C104.681 8.12061 102.973 8.25148 102.973 8.38234C102.973 8.57864 104.681 8.9058 106.39 9.1021C108.44 9.2984 109.807 9.16753 109.807 8.84037C109.807 8.44777 108.44 8.12061 106.39 8.12061ZM66.0688 5.17614C65.0438 5.37243 66.0691 5.89589 68.4611 6.35392C71.8781 6.94282 72.2197 6.87739 70.1696 5.96133C69.1444 5.307 67.094 4.97984 66.0688 5.17614ZM44.8835 7.46628C43.175 7.46628 41.4666 7.59715 41.4666 7.72801C41.4666 7.92431 43.175 8.25148 44.8835 8.44777C46.9337 8.64407 48.3005 8.51321 48.3005 8.18604C48.3005 7.79345 46.9337 7.46628 44.8835 7.46628Z" fill="#ECA73E"/>
</svg>
