<svg width="309" height="10" viewBox="0 0 309 10" fill="none" xmlns="http://www.w3.org/2000/svg">
<path fill-rule="evenodd" clip-rule="evenodd" d="M307.874 8.69652C307.095 9.07042 305.624 9.28853 303.374 9.28853C301.556 9.31969 299.739 9.44432 299.392 9.63127C299.046 9.81823 298.7 9.69359 298.7 9.38201C298.7 9.07042 298.094 8.85231 297.229 8.85231C296.017 8.85231 295.931 8.91463 296.883 9.13274C298.441 9.50664 296.104 9.75591 291.517 9.72475H288.228L290.132 9.13274C291.171 8.82116 291.603 8.54073 291.084 8.54073C290.478 8.54073 289.267 8.82115 288.228 9.19506C286.843 9.69359 285.805 9.81823 283.814 9.66243C282.256 9.56896 280.612 9.63127 280.006 9.81823C279.314 10.0052 278.795 10.0675 278.795 9.9117C278.795 9.75591 273.948 9.66243 267.976 9.69359C261.312 9.75591 257.245 9.66243 257.591 9.47548C258.37 9.00811 256.379 7.91756 254.735 7.91756C253.523 7.91756 253.523 7.85524 254.475 7.63713C255.168 7.48134 256.293 7.41902 257.072 7.5125C258.11 7.60597 258.024 7.54366 256.898 7.29439C255.773 7.04512 254.994 7.01396 254.216 7.26323C253.61 7.45018 252.917 7.54366 252.744 7.45018C252.485 7.38786 252.312 7.57482 252.312 7.8864C252.312 8.22914 252.917 8.44725 253.61 8.38494C255.6 8.29146 257.072 8.91463 255.947 9.35085C255.081 9.69359 242.705 9.69359 240.109 9.31969C239.589 9.25737 238.983 9.35085 238.724 9.56896C238.551 9.78707 237.339 9.60012 235.781 9.03926C233.531 8.29146 233.185 8.01103 233.877 7.38786C234.31 7.01396 234.397 6.67122 234.137 6.67122C233.531 6.67122 231.627 8.6342 231.887 8.97695C232.06 9.13274 231.541 9.1639 230.935 9.07042C230.242 8.97695 229.204 9.07042 228.685 9.25737C227.992 9.50664 227.733 9.50664 227.733 9.22621C227.733 9.0081 226.867 8.85231 225.742 8.85231C224.617 8.85231 223.319 9.0081 222.713 9.22621C222.107 9.44432 221.674 9.47548 221.674 9.28853C221.674 9.13274 217.001 9.00811 210.683 9.00811C187.402 8.97695 161.698 8.50957 157.89 8.07335C157.284 8.01103 156.592 8.07335 156.246 8.2603C155.986 8.44725 155.207 8.50957 154.515 8.41609C153.909 8.32262 153.13 8.38494 152.87 8.57189C152.524 8.72768 151.918 8.79 151.486 8.66536C150.62 8.47841 145.168 8.38494 129.417 8.22914C125.522 8.16683 121.887 8.2603 121.281 8.38494C120.502 8.57189 120.329 8.50957 120.848 8.19799C121.454 7.85524 121.368 7.82408 120.329 8.10451C119.637 8.29146 117.56 8.38493 115.656 8.32262C113.752 8.29146 110.29 8.2603 107.867 8.2603C102.328 8.32262 103.886 8.32262 82.7683 8.07335C39.6685 7.54366 36.4663 7.48134 28.2445 6.95165C24.9557 6.7647 20.6284 6.54659 18.7244 6.51543C16.8204 6.45311 15.3491 6.26616 15.4356 6.07921C15.6087 5.89226 14.4837 5.82994 12.5797 5.89226C10.9353 5.98573 9.72369 5.92342 9.98334 5.79878C10.1564 5.67415 9.37744 5.58067 8.07925 5.58067C6.78107 5.61183 4.96365 5.39372 4.01163 5.08214C3.05963 4.80171 1.5018 4.49013 0.549805 4.39665C-0.488739 4.30317 -0.0559998 4.24086 1.84799 4.2097C7.30038 4.17854 7.99274 4.08507 7.04074 3.74232C5.65601 3.24379 6.00217 2.52714 7.56 2.74525C8.25235 2.83873 8.59857 2.80757 8.33893 2.65178C8.07928 2.49598 8.25238 2.27787 8.77167 2.15324C9.29092 2.02861 9.46405 1.77934 9.11786 1.59239C8.85822 1.37428 9.63705 1.62355 10.7621 2.12208C11.9738 2.62062 13.3585 2.9322 13.7913 2.80757C15.0029 2.5583 14.1375 1.68586 12.8393 1.77934C12.32 1.8105 11.8007 1.56123 11.6276 1.21849C11.368 0.719952 11.4546 0.688793 12.147 1.06269C12.8393 1.4366 13.272 1.40544 14.8299 0.906902C16.0415 0.512228 16.4454 0.522614 16.0415 0.93806C15.4357 1.46775 15.5222 1.49891 16.907 1.06269C19.0706 0.470684 24.3499 0.346049 24.3499 0.906902C24.3499 1.15617 24.7826 1.4366 25.3884 1.56123C25.9942 1.68586 26.0808 1.65471 25.7346 1.43659C25.1288 1.09385 25.4749 1.00038 28.0713 0.93806C28.5906 0.906901 29.3695 0.782269 29.7157 0.595318C30.1484 0.408367 30.6677 0.408366 31.3601 0.657634C31.8794 0.844584 32.9179 0.93806 33.5237 0.844584C34.2161 0.751108 35.4277 0.875743 36.2066 1.09385C37.4183 1.46775 37.5914 1.46775 36.899 1.09385C36.3798 0.751109 36.726 0.688791 38.9762 0.844584C40.7071 0.969218 41.5725 0.938061 41.2263 0.75111C40.9667 0.595318 41.2263 0.533 41.9186 0.626475C43.0437 0.782268 46.419 0.938061 49.7078 1.03154C50.6598 1.0627 51.006 1.21849 50.6599 1.40544C50.3137 1.62355 50.7464 1.62355 51.958 1.37428C53.4293 1.09385 54.2082 1.09385 55.1602 1.37428C56.1122 1.68586 56.4584 1.65471 56.8911 1.2808C57.4104 0.751109 63.2955 0.657635 64.2475 1.18733C64.5937 1.34312 65.5457 1.34312 66.4111 1.21849C67.3632 1.06269 68.3151 1.00038 68.7478 1.00038C69.094 1.03154 69.3537 0.9069 69.3537 0.688791C69.3537 0.501841 69.8729 0.564159 70.4788 0.906902C71.3442 1.31196 71.8636 1.37428 72.2963 1.09385C72.8156 0.813426 73.2483 0.813426 74.2003 1.09385C75.0657 1.34312 76.1043 1.34312 77.9218 1.12501C79.3065 0.93806 80.6912 0.875743 80.8643 0.969218C81.1239 1.03154 81.5567 0.813426 81.9029 0.470683C82.4221 -0.121327 82.5952 -0.121327 83.7203 0.283732C84.4992 0.533001 85.5377 0.657633 86.057 0.532999C86.5763 0.408365 86.7494 0.532999 86.4032 0.844584C86.057 1.21849 86.4033 1.2808 87.9611 1.18733C89.2593 1.09385 90.2978 1.24965 90.817 1.56123C91.4229 1.96629 91.7691 1.99745 92.2884 1.68586C92.6346 1.46775 92.4615 1.18733 91.7691 1.03154C91.1633 0.906902 90.9036 0.688793 91.2498 0.564159C91.5094 0.439526 92.3749 0.501841 92.9807 0.688791C93.8461 0.969218 94.452 0.93806 95.231 0.657634C96.0964 0.377208 96.1829 0.408366 95.7502 0.813426C95.404 1.12501 95.5771 1.37428 96.0964 1.37428C96.6157 1.37428 96.7887 1.62355 96.4425 1.90397C96.1829 2.21556 96.183 2.37135 96.5291 2.24672C97.135 2.09092 97.6542 1.43659 97.8273 0.657634C97.9139 0.533 98.5197 0.439526 99.212 0.439526C99.9044 0.439526 100.51 0.533 100.51 0.657634C100.51 0.813426 101.376 0.906901 102.501 0.93806C103.539 0.93806 106.395 1.03154 108.905 1.15617C112.54 1.31196 113.665 1.24964 114.877 0.813426C115.858 0.481069 116.175 0.481069 115.829 0.813426C115.396 1.24964 115.829 1.34312 118.685 1.2808C120.502 1.2808 121.887 1.15617 121.714 1.03154C121.454 0.938061 122.493 0.844584 123.878 0.813426C125.262 0.813426 126.647 0.93806 126.907 1.09385C127.253 1.24965 128.032 1.37428 128.724 1.37428C129.417 1.37428 129.849 1.24964 129.59 1.12501C129.417 1.00038 130.022 0.844584 131.061 0.844584C132.186 0.813425 132.532 0.875742 131.926 1.00038C131.234 1.15617 131.147 1.40544 131.667 1.68586C132.359 2.05977 132.532 2.05977 132.532 1.71702C132.532 1.46775 133.051 1.37428 133.83 1.49891C134.523 1.59239 136.167 1.53007 137.465 1.34312C138.677 1.18733 139.975 1.15617 140.235 1.2808C140.494 1.40544 142.139 1.56123 143.783 1.62355C145.428 1.6547 147.072 1.87281 147.418 2.09092C147.937 2.37135 148.11 2.37135 148.11 2.05976C148.11 1.87281 148.803 1.68586 149.668 1.68586C150.88 1.68586 150.966 1.74818 149.841 1.99745C149.062 2.1844 148.976 2.30903 149.582 2.30903C150.187 2.30903 151.053 2.05976 151.486 1.74818C152.005 1.46775 152.438 1.37428 152.438 1.56123C152.438 2.02861 158.669 2.05976 159.534 1.59239C160.054 1.31196 160.227 1.31196 160.227 1.59239C160.227 1.8105 161.179 1.99745 162.39 1.99745C163.602 1.99745 164.554 2.12208 164.554 2.30903C164.554 2.46483 163.862 2.52714 163.083 2.43367C161.871 2.27788 161.785 2.30903 162.737 2.5583C163.429 2.74525 164.468 2.80757 165.073 2.71409C165.593 2.65178 166.458 2.96336 166.977 3.4619C167.497 3.92927 167.929 4.14738 167.929 3.92927C168.016 3.36842 169.574 3.4619 170.093 4.08507C170.785 4.86403 174.94 5.54951 174.94 4.89519C174.94 4.64592 174.593 4.52129 174.074 4.64592C173.209 4.83287 169.314 3.58653 170.093 3.33726C170.353 3.24379 171.305 3.33726 172.084 3.58653C173.064 3.85657 173.18 3.81503 172.43 3.4619C171.737 3.15031 170.526 2.96336 169.747 3.02568C168.968 3.08799 167.843 2.90105 167.237 2.58946C166.458 2.12208 166.545 1.99745 167.324 2.05976C167.929 2.12208 168.622 2.21556 168.881 2.30903C169.141 2.40251 170.612 2.71409 172.17 2.99452C174.853 3.52421 175.026 3.52421 176.671 2.9322C178.575 2.24672 179.7 2.09092 178.748 2.68293C178.315 2.90104 178.574 2.96336 179.527 2.83873C180.305 2.74525 181.084 2.80757 181.344 3.02568C181.777 3.3061 181.95 3.3061 182.383 3.02568C182.729 2.71409 183.594 2.74525 186.017 3.088C188.152 3.39958 188.585 3.35804 187.316 2.96336C185.671 2.46483 185.585 2.34019 186.71 2.1844C187.402 2.09092 187.748 2.12208 187.489 2.30903C187.229 2.49598 187.748 2.62062 188.7 2.62062C189.652 2.62062 190.604 2.74525 190.951 2.90105C191.643 3.33726 196.663 3.24379 196.057 2.80757C195.797 2.62062 196.057 2.68294 196.749 2.9322C198.047 3.49306 201.336 3.77348 200.471 3.27495C199.778 2.83873 200.384 2.83873 203.846 3.36842C206.442 3.74232 207.048 3.74232 208.606 3.36842C209.731 3.05684 210.423 3.02568 210.423 3.24379C210.423 3.43074 210.77 3.49306 211.289 3.39958C211.722 3.3061 211.981 3.39958 211.722 3.61769C211.462 3.8358 211.635 4.2097 212.068 4.45897C212.674 4.83287 213.193 4.83287 214.145 4.55244C214.751 4.33433 215.703 4.30317 216.049 4.42781C216.482 4.55244 216.482 4.45897 216.135 4.24086C215.789 4.02275 215.097 3.92927 214.664 4.02275C214.231 4.14738 213.885 4.08507 213.885 3.89812C213.885 3.24379 215.789 3.21263 217.001 3.80464C217.78 4.2097 218.905 4.39665 219.943 4.33433C220.895 4.27202 221.674 4.33433 221.674 4.52128C221.674 4.67708 222.107 4.80171 222.626 4.80171C223.059 4.80171 223.232 4.64592 222.973 4.49013C222.713 4.30318 223.059 4.17854 223.838 4.17854C224.703 4.17854 224.963 4.02275 224.617 3.80464C224.271 3.61769 224.877 3.68001 225.915 3.96043C227.04 4.2097 228.511 4.36549 229.117 4.27202C229.896 4.17854 230.329 4.33433 230.329 4.64592C230.329 5.1133 230.502 5.14446 231.8 4.77055C232.752 4.45897 233.012 4.45897 232.579 4.70824C232.233 4.92634 232.406 5.1133 232.839 5.1133C234.05 5.1133 234.05 4.70823 232.839 4.27202C232.233 4.05391 232.233 3.86696 232.752 3.74232C233.271 3.61769 234.223 3.80464 234.829 4.08507C236.041 4.70824 238.118 4.9575 238.118 4.52128C238.118 4.36549 238.897 4.17854 239.849 4.08507C241.147 3.96043 241.58 4.08507 241.58 4.49013C241.58 5.17561 240.022 5.61183 237.945 5.4872C237.079 5.42488 236.387 5.51835 236.387 5.67415C236.387 5.82994 237.339 5.95457 238.551 5.95457C239.762 5.95457 240.714 5.82994 240.714 5.67415C240.714 5.51835 241.147 5.4872 241.753 5.61183C242.272 5.73646 242.445 5.70531 242.186 5.51835C241.84 5.3314 242.186 5.01982 242.878 4.80171C243.57 4.5836 243.917 4.27202 243.57 4.05391C243.311 3.86696 243.57 3.86696 244.263 4.08507C244.869 4.30317 246.34 4.49013 247.465 4.49013C249.109 4.49013 249.369 4.61476 248.936 5.14445C248.504 5.61183 248.59 5.73646 249.283 5.61183C249.802 5.4872 250.234 5.1133 250.234 4.77055C250.234 4.24086 250.494 4.2097 251.965 4.49013C252.917 4.67708 253.696 5.05098 253.696 5.36256C253.696 5.79878 253.869 5.82994 254.475 5.42488C254.995 5.17561 255.081 4.86403 254.821 4.67708C254.562 4.52128 254.735 4.49013 255.254 4.61476C255.86 4.7394 256.293 5.05098 256.293 5.30025C256.293 5.58067 256.898 5.73646 257.85 5.67415C258.716 5.61183 259.235 5.3314 259.062 5.01982C258.889 4.73939 259.235 4.49013 259.755 4.49013C260.187 4.49013 260.62 4.64592 260.62 4.86403C260.62 5.05098 261.139 4.9575 261.832 4.61476C262.639 4.22009 263.014 4.23047 262.957 4.64592C262.784 5.30025 265.64 5.51836 266.938 4.9575C267.371 4.77055 267.371 4.9575 267.111 5.3314C266.678 5.8611 266.938 6.04805 267.89 6.04805C268.669 6.04805 269.275 5.82994 269.275 5.58067C269.275 5.33141 269.707 5.1133 270.227 5.1133C270.659 5.1133 270.832 5.23793 270.573 5.42488C270.227 5.64299 270.832 5.64299 272.304 5.42488C274.121 5.17561 275.073 5.23793 276.977 5.70531C278.881 6.20384 279.66 6.26616 280.526 5.95457C281.391 5.67415 281.478 5.67415 281.045 5.95457C280.612 6.235 281.045 6.35963 282.343 6.35963C283.641 6.35963 283.987 6.235 283.468 5.95457C283.035 5.73646 283.381 5.82994 284.247 6.14152C285.545 6.67122 286.151 6.70238 287.968 6.39079C290.738 5.95457 293.767 5.92342 292.988 6.39079C292.642 6.64006 292.902 6.64006 294.027 6.42195C296.623 5.92342 300.345 6.29732 299.998 7.01396C299.825 7.35671 299.998 7.54366 300.518 7.45018C300.95 7.32555 301.21 7.57481 301.037 7.97987C300.95 8.44725 301.296 8.66536 301.989 8.60304C302.681 8.57189 302.941 8.66536 302.595 8.85231C302.335 9.00811 302.422 9.1639 302.941 9.1639C303.374 9.1639 303.979 9.03926 304.326 8.85231C304.585 8.69652 305.451 8.66536 306.23 8.75884C307.095 8.88347 307.441 8.82115 307.095 8.6342C306.749 8.44725 307.095 8.22914 307.787 8.10451C309.345 7.8864 309.432 7.94872 307.874 8.69652ZM290.046 7.76177C289.613 7.66829 289.18 7.73061 289.18 7.8864C289.18 8.07335 289.613 8.22914 290.046 8.22914C290.565 8.22914 290.911 8.16683 290.911 8.10451C290.911 8.01103 290.565 7.85524 290.046 7.76177ZM274.64 5.61183C274.208 5.51836 273.861 5.64299 273.861 5.89226C273.861 6.14153 274.208 6.26616 274.64 6.17268C274.987 6.07921 275.333 5.95457 275.333 5.89226C275.333 5.82994 274.987 5.70531 274.64 5.61183ZM271.525 8.13567C271.005 8.22914 271.005 8.13567 271.698 7.8864C273.083 7.32555 273.083 6.82701 271.611 7.26323C270.919 7.45018 270.053 7.48134 269.707 7.35671C269.275 7.23207 269.275 7.32555 269.621 7.5125C269.967 7.73061 269.88 7.91756 269.534 7.91756C269.101 7.91756 268.755 8.19798 268.669 8.57189C268.582 9.03926 268.842 9.13274 269.534 8.91463C270.14 8.75884 271.438 8.66536 272.477 8.69652C274.035 8.72768 274.208 8.66536 273.515 8.32262C272.996 8.10451 272.131 8.01103 271.525 8.13567ZM268.842 6.57774C268.063 6.67122 267.63 6.82701 267.89 6.88933C268.15 6.9828 268.669 6.95165 269.188 6.82701C270.573 6.54659 270.313 6.35963 268.842 6.57774ZM235.002 7.69945C234.743 7.79292 234.656 8.07335 234.916 8.29146C235.175 8.54073 235.435 8.44725 235.435 8.10451C235.522 7.76177 235.262 7.57481 235.002 7.69945ZM228.165 5.73647C227.473 5.73647 226.694 5.8611 226.434 6.04805C226.088 6.235 226.867 6.35963 228.165 6.35963C229.464 6.35963 230.242 6.235 229.896 6.04805C229.637 5.8611 228.858 5.73647 228.165 5.73647ZM223.665 5.39372C222.28 4.98866 222.194 5.01982 223.319 5.4872C224.444 6.01689 225.136 6.17268 225.136 5.92342C225.136 5.8611 224.444 5.61183 223.665 5.39372ZM216.049 5.92342C215.357 6.04805 214.751 6.26616 214.751 6.42195C214.751 6.6089 215.27 6.57774 216.049 6.35963C216.741 6.14153 217.347 5.92342 217.347 5.8611C217.347 5.79878 216.741 5.82994 216.049 5.92342ZM206.788 6.95165C204.971 6.6089 204.885 6.6089 206.01 7.07628C206.615 7.38786 207.481 7.60597 207.914 7.60597C209.212 7.60597 208.779 7.32555 206.788 6.95165ZM196.922 4.67708C196.23 4.5836 195.97 4.30318 196.23 4.02275C197.009 3.3061 194.239 3.43074 193.114 4.14738C191.989 4.92635 191.989 5.1133 193.201 5.1133C193.634 5.1133 193.807 4.9575 193.547 4.80171C193.287 4.61476 193.634 4.49013 194.412 4.49013C195.278 4.49013 195.538 4.64592 195.191 4.86403C194.845 5.08214 194.845 5.17561 195.278 5.05098C195.624 4.92634 196.403 5.05098 197.009 5.30025C197.961 5.76762 198.047 5.76762 198.047 5.3314C198.047 5.05098 197.528 4.77055 196.922 4.67708ZM183.594 3.55537C183.161 3.55537 182.729 3.77348 182.729 4.05391C182.729 4.30318 183.161 4.42781 183.594 4.33433C184.113 4.24086 184.46 4.02275 184.46 3.8358C184.46 3.68001 184.113 3.55537 183.594 3.55537ZM170.18 5.95457C169.487 5.82994 168.708 5.89226 168.449 6.04805C168.103 6.235 168.708 6.35963 169.66 6.35963C171.824 6.35963 171.997 6.17268 170.18 5.95457ZM162.65 4.2097C161.092 4.24086 161.006 4.27202 162.217 4.39665C163.516 4.52128 163.602 4.61476 162.65 5.05098C161.612 5.51835 161.698 5.54951 163.083 5.14445C165.16 4.55244 164.9 4.17854 162.65 4.2097ZM83.6338 0.75111C82.8549 0.533001 82.3356 0.501841 82.3356 0.688791C82.3356 0.844584 82.9414 1.0627 83.6338 1.18733C84.3262 1.2808 84.932 1.31196 84.932 1.24965C84.932 1.18733 84.3262 0.969219 83.6338 0.75111ZM61.3914 5.20677C60.6991 5.30025 60.9588 5.39372 61.9108 5.39372C62.8628 5.42488 63.382 5.33141 63.0358 5.23793C62.7762 5.14445 61.9973 5.11329 61.3914 5.20677ZM59.1413 1.53007C58.8817 1.62355 59.1413 1.87281 59.7472 2.09092C60.6126 2.37135 60.6992 2.34019 60.1799 1.90397C59.9203 1.59239 59.4009 1.4366 59.1413 1.53007ZM47.7173 1.37428C47.2845 1.37428 46.8518 1.4366 46.8518 1.49891C46.8518 1.59239 47.2845 1.74818 47.7173 1.84166C48.2365 1.93513 48.5827 1.87281 48.5827 1.71702C48.5827 1.53007 48.2365 1.37428 47.7173 1.37428ZM26.9463 3.86696C26.5135 3.86696 26.0808 3.92927 26.0808 3.99159C26.0808 4.08507 26.5135 4.24086 26.9463 4.33433C27.4655 4.42781 27.8117 4.36549 27.8117 4.2097C27.8117 4.02275 27.4655 3.86696 26.9463 3.86696ZM16.7338 2.46483C16.4742 2.5583 16.7339 2.80757 17.3397 3.02568C18.2052 3.3061 18.2917 3.27495 17.7725 2.83873C17.5128 2.52714 16.9935 2.37135 16.7338 2.46483ZM11.368 3.55537C10.9353 3.55537 10.5026 3.61769 10.5026 3.68001C10.5026 3.77348 10.9353 3.92927 11.368 4.02275C11.8873 4.11623 12.2335 4.05391 12.2335 3.89812C12.2335 3.71116 11.8873 3.55537 11.368 3.55537Z" fill="#ECA73E"/>
</svg>
