<svg width="666" height="11" viewBox="0 0 666 11" fill="none" xmlns="http://www.w3.org/2000/svg">
<path fill-rule="evenodd" clip-rule="evenodd" d="M663.573 9.56617C661.894 9.97746 658.723 10.2174 653.873 10.2174C649.956 10.2517 646.039 10.3888 645.292 10.5944C644.546 10.8 643.8 10.6629 643.8 10.3202C643.8 9.97746 642.494 9.73754 640.629 9.73754C638.018 9.73754 637.831 9.80609 639.883 10.046C643.241 10.4573 638.204 10.7315 628.318 10.6972L621.23 10.6972L625.333 10.046C627.572 9.70327 628.504 9.3948 627.385 9.3948C626.079 9.3948 623.468 9.70327 621.23 10.1146C618.245 10.663 616.006 10.8 611.716 10.6287C608.358 10.5259 604.814 10.5944 603.509 10.8C602.016 11.0057 600.897 11.0742 600.897 10.9029C600.897 10.7315 590.451 10.6287 577.58 10.6629C563.217 10.7315 554.45 10.6287 555.196 10.423C556.875 9.90892 552.584 8.70931 549.04 8.70931C546.429 8.70931 546.429 8.64077 548.481 8.40085C549.973 8.22947 552.398 8.16092 554.077 8.26375C556.315 8.36657 556.128 8.29802 553.704 8.02383C551.279 7.74963 549.6 7.71536 547.921 7.98955C546.615 8.1952 545.123 8.29802 544.75 8.1952C544.19 8.12665 543.817 8.3323 543.817 8.67504C543.817 9.05206 545.123 9.29198 546.615 9.22343C550.906 9.12061 554.077 9.80609 551.652 10.2859C549.786 10.663 523.112 10.663 517.516 10.2517C516.396 10.1831 515.091 10.2859 514.531 10.5259C514.158 10.7658 511.546 10.5601 508.189 9.94319C503.339 9.12061 502.593 8.81214 504.085 8.12665C505.018 7.71536 505.204 7.33834 504.645 7.33834C503.339 7.33834 499.235 9.49762 499.795 9.87464C500.168 10.046 499.049 10.0803 497.743 9.97746C496.251 9.87464 494.012 9.97746 492.893 10.1831C491.401 10.4573 490.841 10.4573 490.841 10.1488C490.841 9.90891 488.976 9.73754 486.551 9.73754C484.126 9.73754 481.328 9.90891 480.022 10.1488C478.716 10.3888 477.784 10.423 477.784 10.2174C477.784 10.046 467.711 9.90892 454.093 9.90892C403.915 9.87464 348.514 9.36053 340.307 8.88069C339.001 8.81214 337.509 8.88069 336.763 9.08633C336.203 9.29198 334.524 9.36053 333.032 9.2577C331.726 9.15488 330.047 9.22343 329.488 9.42907C328.742 9.60045 327.436 9.669 326.503 9.5319C324.638 9.32625 312.886 9.22343 278.937 9.05206C270.543 8.98351 262.708 9.08633 261.402 9.22343C259.723 9.42908 259.35 9.36053 260.47 9.01778C261.775 8.64077 261.589 8.60649 259.35 8.91496C257.858 9.12061 253.381 9.22343 249.277 9.15488C245.174 9.1206 237.712 9.08633 232.489 9.08633C220.551 9.15488 223.909 9.15488 178.394 8.88069C85.4991 8.29802 78.5974 8.22947 60.8765 7.64681C53.7881 7.44117 44.4613 7.20124 40.3575 7.16697C36.2537 7.09842 33.0825 6.89278 33.2691 6.68713C33.6422 6.48148 31.2173 6.41293 27.1135 6.48148C23.5693 6.58431 20.9579 6.51576 21.5175 6.37866C21.8906 6.24156 20.2116 6.13874 17.4136 6.13874C14.6155 6.17301 10.6984 5.93309 8.64648 5.59035C6.59454 5.28188 3.23694 4.93914 1.18506 4.83632C-1.05341 4.73349 -0.120728 4.66494 3.98309 4.63067C15.7348 4.5964 17.2271 4.49357 15.1752 4.11656C12.1906 3.56817 12.9368 2.77986 16.2944 3.01978C17.7867 3.1226 18.5328 3.08833 17.9733 2.91695C17.4136 2.74558 17.7867 2.50566 18.9059 2.36857C20.0251 2.23147 20.3983 1.95727 19.6521 1.75163C19.0925 1.51171 20.7711 1.7859 23.1961 2.33429C25.8076 2.88268 28.7922 3.22542 29.7249 3.08833C32.3364 2.81413 30.4711 1.85445 27.673 1.95727C26.5538 1.99155 25.4345 1.71735 25.0615 1.34034C24.5018 0.791946 24.6886 0.757672 26.1808 1.16896C27.6732 1.58026 28.6058 1.54598 31.9634 0.997592C34.5749 0.563451 35.4454 0.574875 34.575 1.03187C33.2692 1.61453 33.4557 1.6488 36.4403 1.16896C41.1037 0.517752 52.4824 0.380654 52.4824 0.997592C52.4824 1.27179 53.4149 1.58026 54.7207 1.71735C56.0264 1.85445 56.213 1.82018 55.4669 1.58025C54.1611 1.20324 54.9072 1.10042 60.5032 1.03187C61.6224 0.997592 63.3013 0.860496 64.0475 0.654849C64.9802 0.449203 66.0994 0.449203 67.5917 0.723397C68.7109 0.929043 70.9493 1.03187 72.2551 0.929042C73.7474 0.82622 76.3588 0.963318 78.0377 1.20324C80.6491 1.61453 81.0223 1.61453 79.53 1.20324C78.4108 0.826221 79.157 0.75767 84.0069 0.929042C87.7376 1.06614 89.6029 1.03187 88.8568 0.826221C88.2972 0.654849 88.8566 0.5863 90.3489 0.689123C92.7739 0.860495 100.049 1.03187 107.137 1.13469C109.189 1.16896 109.935 1.34033 109.189 1.54598C108.443 1.7859 109.376 1.7859 111.987 1.51171C115.158 1.20324 116.837 1.20324 118.889 1.51171C120.941 1.85445 121.687 1.82018 122.62 1.40888C123.739 0.82622 136.423 0.723398 138.475 1.30606C139.221 1.47743 141.273 1.47743 143.139 1.34034C145.19 1.16896 147.242 1.10041 148.175 1.10041C148.921 1.13469 149.481 0.997591 149.481 0.75767C149.481 0.552025 150.6 0.620575 151.906 0.997592C153.771 1.44316 154.89 1.51171 155.823 1.20324C156.942 0.894769 157.875 0.894769 159.927 1.20324C161.792 1.47743 164.031 1.47743 167.948 1.23751C170.933 1.03187 173.917 0.963317 174.29 1.06614C174.85 1.13469 175.782 0.894769 176.529 0.517752C177.648 -0.133461 178.021 -0.13346 180.446 0.312106C182.125 0.586301 184.363 0.723396 185.482 0.586299C186.601 0.449202 186.974 0.586299 186.228 0.929042C185.482 1.34033 186.228 1.40889 189.586 1.30606C192.384 1.20324 194.622 1.37461 195.742 1.71735C197.047 2.16292 197.794 2.19719 198.913 1.85445C199.659 1.61453 199.286 1.30606 197.794 1.13469C196.488 0.997593 195.928 0.757672 196.674 0.620575C197.234 0.483479 199.099 0.552025 200.405 0.75767C202.27 1.06614 203.576 1.03187 205.255 0.723397C207.12 0.414927 207.307 0.449203 206.374 0.894769C205.628 1.23751 206.001 1.51171 207.12 1.51171C208.24 1.51171 208.613 1.7859 207.866 2.09437C207.307 2.43711 207.307 2.60848 208.053 2.47139C209.359 2.30002 210.478 1.58025 210.851 0.723397C211.038 0.5863 212.343 0.483478 213.836 0.483478C215.328 0.483478 216.634 0.5863 216.634 0.723397C216.634 0.894769 218.499 0.997592 220.924 1.03187C223.162 1.03187 229.318 1.13469 234.728 1.27179C242.562 1.44316 244.987 1.37461 247.599 0.894769C249.713 0.529176 250.397 0.529176 249.65 0.894769C248.718 1.37461 249.651 1.47743 255.806 1.40888C259.723 1.40888 262.708 1.27179 262.335 1.13469C261.775 1.03187 264.014 0.929043 266.998 0.894769C269.983 0.894769 272.967 1.03187 273.527 1.20324C274.273 1.37461 275.952 1.51171 277.444 1.51171C278.937 1.51171 279.869 1.37461 279.31 1.23751C278.937 1.10041 280.242 0.929042 282.481 0.929042C284.906 0.894768 285.652 0.963317 284.346 1.10041C282.854 1.27179 282.667 1.54598 283.787 1.85445C285.279 2.26574 285.652 2.26574 285.652 1.88872C285.652 1.61453 286.771 1.51171 288.45 1.6488C289.942 1.75163 293.486 1.68308 296.284 1.47743C298.896 1.30606 301.694 1.27179 302.254 1.40888C302.813 1.54598 306.357 1.71735 309.902 1.7859C313.446 1.82017 316.99 2.06009 317.736 2.30002C318.855 2.60848 319.228 2.60848 319.228 2.26574C319.228 2.0601 320.72 1.85445 322.586 1.85445C325.197 1.85445 325.384 1.923 322.959 2.19719C321.28 2.40284 321.094 2.53994 322.399 2.53994C323.705 2.53994 325.571 2.26574 326.503 1.923C327.622 1.61453 328.555 1.51171 328.555 1.71735C328.555 2.23147 341.986 2.26574 343.851 1.75163C344.97 1.44316 345.343 1.44316 345.343 1.75163C345.343 1.99155 347.395 2.19719 350.007 2.19719C352.618 2.19719 354.67 2.33429 354.67 2.53994C354.67 2.71131 353.178 2.77986 351.499 2.67703C348.887 2.50566 348.701 2.53994 350.753 2.81413C352.245 3.01978 354.483 3.08832 355.789 2.9855C356.908 2.91695 358.774 3.2597 359.893 3.80809C361.012 4.3222 361.945 4.56212 361.945 4.3222C362.132 3.70526 365.489 3.80809 366.608 4.49357C368.101 5.35043 377.054 6.10446 377.054 5.3847C377.054 5.11051 376.308 4.97341 375.189 5.11051C373.324 5.31616 364.93 3.94518 366.608 3.67099C367.168 3.56816 369.22 3.67099 370.899 3.94518C373.013 4.24223 373.261 4.19653 371.645 3.80809C370.152 3.46534 367.541 3.2597 365.862 3.32824C364.183 3.39679 361.758 3.19115 360.453 2.84841C358.774 2.33429 358.96 2.19719 360.639 2.26574C361.945 2.33429 363.437 2.43711 363.997 2.53994C364.556 2.64276 367.727 2.9855 371.085 3.29397C376.868 3.87663 377.241 3.87664 380.785 3.22542C384.889 2.47139 387.314 2.30002 385.262 2.95123C384.329 3.19115 384.889 3.2597 386.941 3.1226C388.619 3.01978 390.298 3.08832 390.858 3.32824C391.791 3.63671 392.164 3.63671 393.096 3.32824C393.843 2.9855 395.708 3.01978 400.931 3.39679C405.532 3.73954 406.465 3.69384 403.729 3.2597C400.185 2.71131 399.998 2.57421 402.423 2.40284C403.915 2.30002 404.662 2.33429 404.102 2.53994C403.542 2.74558 404.662 2.88268 406.714 2.88268C408.765 2.88268 410.817 3.01978 411.563 3.19115C413.056 3.67099 423.875 3.56817 422.569 3.08833C422.009 2.88268 422.569 2.95123 424.061 3.22542C426.859 3.84236 433.948 4.15083 432.082 3.60244C430.59 3.1226 431.896 3.1226 439.357 3.70526C444.953 4.11656 446.259 4.11656 449.617 3.70526C452.042 3.36252 453.534 3.32825 453.534 3.56817C453.534 3.77381 454.28 3.84236 455.399 3.73954C456.332 3.63672 456.892 3.73954 456.332 3.97946C455.772 4.21938 456.146 4.63067 457.078 4.90487C458.384 5.31616 459.503 5.31616 461.555 5.00769C462.861 4.76777 464.913 4.73349 465.659 4.87059C466.591 5.00769 466.591 4.90486 465.845 4.66494C465.099 4.42502 463.607 4.3222 462.674 4.42502C461.742 4.56212 460.995 4.49357 460.995 4.28793C460.995 3.56817 465.099 3.53389 467.711 4.1851C469.389 4.63067 471.814 4.83632 474.053 4.76777C476.105 4.69922 477.784 4.76777 477.784 4.97341C477.784 5.14478 478.716 5.28188 479.835 5.28188C480.768 5.28188 481.141 5.11051 480.582 4.93914C480.022 4.73349 480.768 4.5964 482.447 4.5964C484.312 4.5964 484.872 4.42502 484.126 4.1851C483.38 3.97946 484.685 4.04801 486.924 4.35647C489.349 4.63067 492.52 4.80204 493.826 4.69922C495.504 4.59639 496.437 4.76777 496.437 5.11051C496.437 5.62463 496.81 5.6589 499.608 5.24761C501.66 4.90487 502.22 4.90486 501.287 5.17906C500.541 5.41898 500.914 5.62463 501.847 5.62463C504.458 5.62463 504.458 5.17906 501.847 4.69922C500.541 4.4593 500.541 4.25365 501.66 4.11656C502.779 3.97946 504.831 4.1851 506.137 4.49357C508.748 5.17906 513.225 5.45325 513.225 4.97341C513.225 4.80204 514.904 4.5964 516.956 4.49357C519.754 4.35647 520.687 4.49357 520.687 4.93914C520.687 5.69317 517.329 6.17301 512.852 6.03592C510.987 5.96737 509.495 6.07019 509.495 6.24156C509.495 6.41293 511.547 6.55003 514.158 6.55003C516.77 6.55003 518.821 6.41293 518.821 6.24156C518.821 6.07019 519.754 6.03592 521.06 6.17301C522.179 6.31011 522.552 6.27584 521.992 6.07019C521.246 5.86454 521.993 5.5218 523.485 5.28188C524.977 5.04196 525.723 4.69922 524.977 4.4593C524.417 4.25365 524.977 4.25365 526.469 4.49357C527.775 4.73349 530.946 4.93914 533.371 4.93914C536.915 4.93914 537.475 5.07624 536.542 5.6589C535.61 6.17301 535.796 6.31011 537.289 6.17301C538.408 6.03592 539.34 5.62463 539.34 5.24761C539.34 4.66495 539.9 4.63067 543.071 4.93914C545.123 5.14479 546.802 5.55608 546.802 5.89882C546.802 6.37866 547.175 6.41293 548.481 5.96737C549.6 5.69317 549.786 5.35043 549.227 5.14478C548.667 4.97341 549.04 4.93914 550.159 5.07624C551.465 5.21333 552.398 5.55608 552.398 5.83027C552.398 6.13874 553.703 6.31011 555.755 6.24156C557.621 6.17301 558.74 5.86454 558.367 5.5218C557.994 5.21333 558.74 4.93914 559.859 4.93914C560.792 4.93914 561.725 5.11051 561.725 5.35043C561.725 5.55608 562.844 5.45325 564.336 5.07624C566.077 4.6421 566.885 4.65352 566.761 5.11051C566.388 5.83027 572.544 6.07019 575.342 5.45325C576.274 5.24761 576.274 5.45325 575.715 5.86454C574.782 6.44721 575.342 6.65286 577.394 6.65286C579.073 6.65286 580.378 6.41293 580.378 6.13874C580.378 5.86455 581.311 5.62463 582.43 5.62463C583.363 5.62463 583.736 5.76172 583.176 5.96737C582.43 6.20729 583.736 6.20729 586.907 5.96737C590.824 5.69317 592.876 5.76172 596.98 6.27584C601.084 6.82423 602.763 6.89277 604.628 6.55003C606.493 6.24156 606.68 6.24156 605.747 6.55003C604.814 6.8585 605.747 6.9956 608.545 6.9956C611.343 6.9956 612.089 6.8585 610.97 6.55003C610.037 6.31011 610.783 6.41293 612.649 6.75568C615.447 7.33834 616.753 7.37262 620.67 7.02987C626.639 6.55003 633.168 6.51576 631.489 7.02987C630.743 7.30407 631.302 7.30407 633.727 7.06415C639.323 6.51576 647.345 6.92705 646.598 7.71536C646.225 8.09238 646.598 8.29802 647.718 8.1952C648.65 8.0581 649.21 8.3323 648.837 8.77786C648.65 9.29198 649.396 9.5319 650.889 9.46335C652.381 9.42907 652.941 9.5319 652.194 9.73754C651.635 9.90892 651.821 10.0803 652.941 10.0803C653.873 10.0803 655.179 9.94319 655.925 9.73754C656.485 9.56617 658.35 9.5319 660.029 9.63472C661.894 9.77182 662.64 9.70327 661.894 9.49762C661.148 9.29198 661.894 9.05206 663.387 8.91496C666.744 8.67504 666.931 8.74359 663.573 9.56617ZM625.147 8.53794C624.214 8.43512 623.281 8.50367 623.281 8.67504C623.281 8.88069 624.214 9.05206 625.147 9.05206C626.266 9.05206 627.012 8.98351 627.012 8.91496C627.012 8.81214 626.266 8.64077 625.147 8.53794ZM591.943 6.17301C591.011 6.07019 590.264 6.20729 590.264 6.48148C590.264 6.75568 591.011 6.89278 591.943 6.78995C592.689 6.68713 593.436 6.55003 593.436 6.48148C593.436 6.41293 592.689 6.27584 591.943 6.17301ZM585.228 8.94923C584.109 9.05206 584.109 8.94924 585.601 8.67504C588.586 8.0581 588.586 7.50971 585.415 7.98955C583.922 8.1952 582.057 8.22947 581.311 8.09238C580.378 7.95528 580.378 8.0581 581.124 8.26375C581.871 8.50367 581.684 8.70931 580.938 8.70931C580.005 8.70931 579.259 9.01778 579.072 9.42907C578.886 9.94319 579.445 10.046 580.938 9.80609C582.243 9.63472 585.042 9.5319 587.28 9.56617C590.638 9.60045 591.011 9.5319 589.519 9.15488C588.399 8.91496 586.534 8.81214 585.228 8.94923ZM579.446 7.23552C577.767 7.33834 576.834 7.50971 577.394 7.57826C577.953 7.68108 579.073 7.64681 580.192 7.50971C583.176 7.20124 582.617 6.9956 579.446 7.23552ZM506.51 8.46939C505.951 8.57222 505.764 8.88069 506.323 9.12061C506.883 9.3948 507.443 9.29198 507.443 8.91496C507.629 8.53794 507.07 8.3323 506.51 8.46939ZM491.774 6.31011C490.281 6.31011 488.603 6.44721 488.043 6.65286C487.297 6.8585 488.976 6.9956 491.774 6.9956C494.572 6.9956 496.251 6.8585 495.505 6.65286C494.945 6.44721 493.266 6.31011 491.774 6.31011ZM482.074 5.93309C479.089 5.48753 478.903 5.5218 481.328 6.03592C483.753 6.61858 485.245 6.78995 485.245 6.51576C485.245 6.44721 483.753 6.17302 482.074 5.93309ZM465.659 6.51576C464.167 6.65285 462.861 6.89277 462.861 7.06415C462.861 7.26979 463.98 7.23552 465.659 6.9956C467.151 6.75568 468.457 6.51576 468.457 6.44721C468.457 6.37866 467.151 6.41293 465.659 6.51576ZM445.699 7.64681C441.782 7.26979 441.596 7.26979 444.021 7.78391C445.326 8.12665 447.192 8.36657 448.124 8.36657C450.922 8.36657 449.99 8.0581 445.699 7.64681ZM424.434 5.14478C422.942 5.04196 422.382 4.73349 422.942 4.42502C424.621 3.63672 418.652 3.77381 416.227 4.56212C413.802 5.41898 413.802 5.62463 416.413 5.62463C417.346 5.62463 417.719 5.45325 417.16 5.28188C416.6 5.07624 417.346 4.93914 419.025 4.93914C420.89 4.93914 421.45 5.11051 420.704 5.35043C419.958 5.59035 419.958 5.69317 420.89 5.55608C421.636 5.41898 423.315 5.55608 424.621 5.83027C426.673 6.34439 426.859 6.34439 426.859 5.86454C426.859 5.55608 425.74 5.24761 424.434 5.14478ZM395.708 3.91091C394.775 3.91091 393.843 4.15083 393.843 4.4593C393.843 4.73349 394.775 4.87059 395.708 4.76777C396.827 4.66494 397.573 4.42502 397.573 4.21938C397.573 4.04801 396.827 3.91091 395.708 3.91091ZM366.795 6.55003C365.303 6.41293 363.624 6.48148 363.064 6.65286C362.318 6.8585 363.624 6.9956 365.676 6.9956C370.339 6.9956 370.712 6.78995 366.795 6.55003ZM350.566 4.63067C347.209 4.66494 347.022 4.69922 349.633 4.83632C352.432 4.97341 352.618 5.07623 350.566 5.55608C348.328 6.07019 348.514 6.10447 351.499 5.6589C355.976 5.00769 355.416 4.5964 350.566 4.63067ZM180.259 0.826221C178.58 0.586301 177.461 0.552025 177.461 0.75767C177.461 0.929042 178.767 1.16896 180.259 1.30606C181.752 1.40889 183.057 1.44316 183.057 1.37461C183.057 1.30606 181.752 1.06614 180.259 0.826221ZM132.319 5.72745C130.827 5.83027 131.387 5.93309 133.439 5.93309C135.491 5.96737 136.61 5.86455 135.864 5.76172C135.304 5.6589 133.625 5.62462 132.319 5.72745ZM127.47 1.68308C126.91 1.7859 127.47 2.06009 128.775 2.30002C130.641 2.60848 130.827 2.57421 129.708 2.09437C129.149 1.75163 128.029 1.58026 127.47 1.68308ZM102.847 1.51171C101.914 1.51171 100.982 1.58026 100.982 1.6488C100.982 1.75163 101.914 1.923 102.847 2.02582C103.966 2.12864 104.712 2.0601 104.712 1.88872C104.712 1.68308 103.966 1.51171 102.847 1.51171ZM58.0784 4.25365C57.1458 4.25365 56.2131 4.3222 56.2131 4.39075C56.2131 4.49357 57.1458 4.66494 58.0784 4.76777C59.1976 4.87059 59.9438 4.80204 59.9438 4.63067C59.9438 4.42502 59.1976 4.25365 58.0784 4.25365ZM36.0671 2.71131C35.5075 2.81413 36.0673 3.08832 37.373 3.32824C39.2383 3.63671 39.4249 3.60244 38.3057 3.1226C37.7461 2.77986 36.6267 2.60849 36.0671 2.71131ZM24.502 3.91091C23.5693 3.91091 22.6367 3.97946 22.6367 4.04801C22.6367 4.15083 23.5693 4.3222 24.502 4.42502C25.6212 4.52785 26.3674 4.4593 26.3674 4.28793C26.3674 4.08228 25.6212 3.91091 24.502 3.91091Z" fill="#ECA73E"/>
</svg>
