<svg width="411" height="11" viewBox="0 0 411 11" fill="none" xmlns="http://www.w3.org/2000/svg">
<path fill-rule="evenodd" clip-rule="evenodd" d="M409.006 9.56617C407.972 9.97746 406.02 10.2174 403.035 10.2174C400.623 10.2517 398.211 10.3888 397.752 10.5944C397.293 10.8 396.834 10.6629 396.834 10.3202C396.834 9.97746 396.03 9.73754 394.881 9.73754C393.274 9.73754 393.159 9.80609 394.422 10.046C396.489 10.4573 393.388 10.7315 387.302 10.6972H382.939L385.465 10.046C386.843 9.70327 387.417 9.3948 386.728 9.3948C385.924 9.3948 384.317 9.70327 382.939 10.1146C381.101 10.663 379.723 10.8 377.082 10.6287C375.015 10.5259 372.833 10.5944 372.029 10.8C371.111 11.0057 370.422 11.0742 370.422 10.9029C370.422 10.7315 363.991 10.6287 356.067 10.6629C347.225 10.7315 341.828 10.6287 342.287 10.423C343.321 9.90892 340.68 8.70931 338.498 8.70931C336.89 8.70931 336.89 8.64077 338.153 8.40085C339.072 8.22947 340.565 8.16092 341.598 8.26375C342.976 8.36657 342.861 8.29802 341.369 8.02383C339.876 7.74963 338.842 7.71536 337.809 7.98955C337.005 8.1952 336.086 8.29802 335.857 8.1952C335.512 8.12665 335.282 8.3323 335.282 8.67504C335.282 9.05206 336.086 9.29198 337.005 9.22343C339.646 9.12061 341.598 9.80609 340.105 10.2859C338.957 10.663 322.536 10.663 319.091 10.2517C318.402 10.1831 317.598 10.2859 317.253 10.5259C317.024 10.7658 315.416 10.5601 313.349 9.94319C310.363 9.12061 309.904 8.81214 310.823 8.12665C311.397 7.71536 311.512 7.33834 311.167 7.33834C310.363 7.33834 307.837 9.49762 308.181 9.87464C308.411 10.046 307.722 10.0803 306.918 9.97746C306 9.87464 304.622 9.97746 303.933 10.1831C303.014 10.4573 302.669 10.4573 302.669 10.1488C302.669 9.90891 301.521 9.73754 300.028 9.73754C298.535 9.73754 296.813 9.90891 296.009 10.1488C295.205 10.3888 294.631 10.423 294.631 10.2174C294.631 10.046 288.43 9.90892 280.047 9.90892C249.157 9.87464 215.051 9.36053 209.998 8.88069C209.194 8.81214 208.276 8.88069 207.816 9.08633C207.472 9.29198 206.438 9.36053 205.52 9.2577C204.716 9.15488 203.682 9.22343 203.338 9.42907C202.878 9.60045 202.075 9.669 201.5 9.5319C200.352 9.32625 193.118 9.22343 172.218 9.05206C167.05 8.98351 162.227 9.08633 161.423 9.22343C160.39 9.42908 160.16 9.36053 160.849 9.01778C161.653 8.64077 161.538 8.60649 160.16 8.91496C159.241 9.12061 156.485 9.22343 153.959 9.15488C151.433 9.1206 146.839 9.08633 143.624 9.08633C136.275 9.15488 138.342 9.15488 110.322 8.88069C53.1346 8.29802 48.8857 8.22947 37.9765 7.64681C33.6128 7.44117 27.8711 7.20124 25.3447 7.16697C22.8184 7.09842 20.8661 6.89278 20.981 6.68713C21.2106 6.48148 19.7179 6.41293 17.1915 6.48148C15.0096 6.58431 13.402 6.51576 13.7465 6.37866C13.9761 6.24156 12.9425 6.13874 11.22 6.13874C9.49753 6.17301 7.08606 5.93309 5.82288 5.59035C4.55969 5.28188 2.49268 4.93914 1.22952 4.83632C-0.148499 4.73349 0.425659 4.66494 2.95203 4.63067C10.1866 4.5964 11.1053 4.49357 9.84207 4.11656C8.00473 3.56817 8.46405 2.77986 10.5311 3.01978C11.4497 3.1226 11.9091 3.08833 11.5646 2.91695C11.2201 2.74558 11.4498 2.50566 12.1388 2.36857C12.8278 2.23147 13.0575 1.95727 12.5981 1.75163C12.2536 1.51171 13.287 1.7859 14.7799 2.33429C16.3875 2.88268 18.2249 3.22542 18.7991 3.08833C20.4067 2.81413 19.2584 1.85445 17.5359 1.95727C16.8469 1.99155 16.1579 1.71735 15.9282 1.34034C15.5837 0.791946 15.6987 0.757672 16.6173 1.16896C17.536 1.58026 18.1101 1.54598 20.1772 0.997592C21.7849 0.563451 22.3208 0.574875 21.7849 1.03187C20.981 1.61453 21.0959 1.6488 22.9332 1.16896C25.8041 0.517752 32.8089 0.380654 32.8089 0.997592C32.8089 1.27179 33.3831 1.58026 34.1869 1.71735C34.9907 1.85445 35.1056 1.82018 34.6462 1.58025C33.8424 1.20324 34.3017 1.10042 37.7467 1.03187C38.4357 0.997592 39.4693 0.860496 39.9286 0.654849C40.5028 0.449203 41.1918 0.449203 42.1105 0.723397C42.7995 0.929043 44.1775 1.03187 44.9813 0.929042C45.9 0.82622 47.5077 0.963318 48.5412 1.20324C50.1488 1.61453 50.3786 1.61453 49.4599 1.20324C48.7709 0.826221 49.2303 0.75767 52.2159 0.929042C54.5126 1.06614 55.6609 1.03187 55.2016 0.826221C54.8571 0.654849 55.2015 0.5863 56.1202 0.689123C57.613 0.860495 62.0916 1.03187 66.4553 1.13469C67.7185 1.16896 68.1779 1.34033 67.7186 1.54598C67.2592 1.7859 67.8334 1.7859 69.4411 1.51171C71.3933 1.20324 72.4267 1.20324 73.6899 1.51171C74.9531 1.85445 75.4124 1.82018 75.9866 1.40888C76.6756 0.82622 84.4843 0.723398 85.7475 1.30606C86.2068 1.47743 87.47 1.47743 88.6183 1.34034C89.8815 1.16896 91.1447 1.10041 91.7188 1.10041C92.1782 1.13469 92.5227 0.997591 92.5227 0.75767C92.5227 0.552025 93.2117 0.620575 94.0155 0.997592C95.1638 1.44316 95.853 1.51171 96.4272 1.20324C97.1161 0.894769 97.6902 0.894769 98.9534 1.20324C100.102 1.47743 101.48 1.47743 103.891 1.23751C105.729 1.03187 107.566 0.963317 107.796 1.06614C108.14 1.13469 108.714 0.894769 109.174 0.517752C109.863 -0.133461 110.092 -0.13346 111.585 0.312106C112.619 0.586301 113.997 0.723396 114.686 0.586299C115.375 0.449202 115.604 0.586299 115.145 0.929042C114.686 1.34033 115.145 1.40889 117.212 1.30606C118.935 1.20324 120.313 1.37461 121.002 1.71735C121.805 2.16292 122.265 2.19719 122.954 1.85445C123.413 1.61453 123.184 1.30606 122.265 1.13469C121.461 0.997593 121.116 0.757672 121.576 0.620575C121.92 0.483479 123.069 0.552025 123.872 0.75767C125.021 1.06614 125.825 1.03187 126.858 0.723397C128.007 0.414927 128.121 0.449203 127.547 0.894769C127.088 1.23751 127.318 1.51171 128.007 1.51171C128.696 1.51171 128.925 1.7859 128.466 2.09437C128.121 2.43711 128.121 2.60848 128.581 2.47139C129.385 2.30002 130.074 1.58025 130.303 0.723397C130.418 0.5863 131.222 0.483478 132.141 0.483478C133.059 0.483478 133.863 0.5863 133.863 0.723397C133.863 0.894769 135.011 0.997592 136.504 1.03187C137.882 1.03187 141.672 1.13469 145.002 1.27179C149.825 1.44316 151.318 1.37461 152.926 0.894769C154.227 0.529176 154.648 0.529176 154.189 0.894769C153.615 1.37461 154.189 1.47743 157.978 1.40888C160.39 1.40888 162.227 1.27179 161.997 1.13469C161.653 1.03187 163.031 0.929043 164.868 0.894769C166.706 0.894769 168.543 1.03187 168.888 1.20324C169.347 1.37461 170.38 1.51171 171.299 1.51171C172.218 1.51171 172.792 1.37461 172.447 1.23751C172.218 1.10041 173.021 0.929042 174.399 0.929042C175.892 0.894768 176.352 0.963317 175.548 1.10041C174.629 1.27179 174.514 1.54598 175.203 1.85445C176.122 2.26574 176.352 2.26574 176.352 1.88872C176.352 1.61453 177.041 1.51171 178.074 1.6488C178.993 1.75163 181.175 1.68308 182.897 1.47743C184.505 1.30606 186.228 1.27179 186.572 1.40888C186.917 1.54598 189.098 1.71735 191.28 1.7859C193.462 1.82017 195.644 2.06009 196.103 2.30002C196.792 2.60848 197.022 2.60848 197.022 2.26574C197.022 2.0601 197.941 1.85445 199.089 1.85445C200.697 1.85445 200.811 1.923 199.319 2.19719C198.285 2.40284 198.17 2.53994 198.974 2.53994C199.778 2.53994 200.926 2.26574 201.5 1.923C202.189 1.61453 202.764 1.51171 202.764 1.71735C202.764 2.23147 211.032 2.26574 212.18 1.75163C212.869 1.44316 213.099 1.44316 213.099 1.75163C213.099 1.99155 214.362 2.19719 215.97 2.19719C217.577 2.19719 218.84 2.33429 218.84 2.53994C218.84 2.71131 217.922 2.77986 216.888 2.67703C215.28 2.50566 215.166 2.53994 216.429 2.81413C217.348 3.01978 218.726 3.08832 219.529 2.9855C220.218 2.91695 221.367 3.2597 222.056 3.80809C222.745 4.3222 223.319 4.56212 223.319 4.3222C223.434 3.70526 225.501 3.80809 226.19 4.49357C227.109 5.35043 232.621 6.10446 232.621 5.3847C232.621 5.11051 232.161 4.97341 231.472 5.11051C230.324 5.31616 225.156 3.94518 226.19 3.67099C226.534 3.56816 227.797 3.67099 228.831 3.94518C230.132 4.24223 230.286 4.19653 229.29 3.80809C228.372 3.46534 226.764 3.2597 225.73 3.32824C224.697 3.39679 223.204 3.19115 222.4 2.84841C221.367 2.33429 221.482 2.19719 222.515 2.26574C223.319 2.33429 224.238 2.43711 224.582 2.53994C224.927 2.64276 226.879 2.9855 228.946 3.29397C232.506 3.87663 232.735 3.87664 234.917 3.22542C237.444 2.47139 238.936 2.30002 237.673 2.95123C237.099 3.19115 237.443 3.2597 238.707 3.1226C239.74 3.01978 240.774 3.08832 241.118 3.32824C241.692 3.63671 241.922 3.63671 242.496 3.32824C242.956 2.9855 244.104 3.01978 247.319 3.39679C250.152 3.73954 250.726 3.69384 249.042 3.2597C246.86 2.71131 246.745 2.57421 248.238 2.40284C249.157 2.30002 249.616 2.33429 249.272 2.53994C248.927 2.74558 249.616 2.88268 250.879 2.88268C252.142 2.88268 253.406 3.01978 253.865 3.19115C254.784 3.67099 261.444 3.56817 260.64 3.08833C260.296 2.88268 260.64 2.95123 261.559 3.22542C263.281 3.84236 267.645 4.15083 266.497 3.60244C265.578 3.1226 266.382 3.1226 270.975 3.70526C274.42 4.11656 275.224 4.11656 277.291 3.70526C278.784 3.36252 279.703 3.32825 279.703 3.56817C279.703 3.77381 280.162 3.84236 280.851 3.73954C281.425 3.63672 281.77 3.73954 281.425 3.97946C281.081 4.21938 281.31 4.63067 281.884 4.90487C282.688 5.31616 283.377 5.31616 284.64 5.00769C285.444 4.76777 286.707 4.73349 287.167 4.87059C287.741 5.00769 287.741 4.90486 287.282 4.66494C286.822 4.42502 285.904 4.3222 285.329 4.42502C284.755 4.56212 284.296 4.49357 284.296 4.28793C284.296 3.56817 286.822 3.53389 288.43 4.1851C289.463 4.63067 290.956 4.83632 292.334 4.76777C293.598 4.69922 294.631 4.76777 294.631 4.97341C294.631 5.14478 295.205 5.28188 295.894 5.28188C296.468 5.28188 296.698 5.11051 296.354 4.93914C296.009 4.73349 296.468 4.5964 297.502 4.5964C298.65 4.5964 298.995 4.42502 298.535 4.1851C298.076 3.97946 298.88 4.04801 300.258 4.35647C301.751 4.63067 303.703 4.80204 304.507 4.69922C305.54 4.59639 306.114 4.76777 306.114 5.11051C306.114 5.62463 306.344 5.6589 308.067 5.24761C309.33 4.90487 309.674 4.90486 309.1 5.17906C308.641 5.41898 308.871 5.62463 309.445 5.62463C311.052 5.62463 311.052 5.17906 309.445 4.69922C308.641 4.4593 308.641 4.25365 309.33 4.11656C310.019 3.97946 311.282 4.1851 312.086 4.49357C313.693 5.17906 316.45 5.45325 316.45 4.97341C316.45 4.80204 317.483 4.5964 318.746 4.49357C320.469 4.35647 321.043 4.49357 321.043 4.93914C321.043 5.69317 318.976 6.17301 316.22 6.03592C315.071 5.96737 314.153 6.07019 314.153 6.24156C314.153 6.41293 315.416 6.55003 317.024 6.55003C318.631 6.55003 319.895 6.41293 319.895 6.24156C319.895 6.07019 320.469 6.03592 321.273 6.17301C321.962 6.31011 322.191 6.27584 321.847 6.07019C321.387 5.86454 321.847 5.5218 322.765 5.28188C323.684 5.04196 324.143 4.69922 323.684 4.4593C323.34 4.25365 323.684 4.25365 324.603 4.49357C325.407 4.73349 327.359 4.93914 328.852 4.93914C331.033 4.93914 331.378 5.07624 330.804 5.6589C330.23 6.17301 330.345 6.31011 331.263 6.17301C331.952 6.03592 332.526 5.62463 332.526 5.24761C332.526 4.66495 332.871 4.63067 334.823 4.93914C336.086 5.14479 337.12 5.55608 337.12 5.89882C337.12 6.37866 337.349 6.41293 338.153 5.96737C338.842 5.69317 338.957 5.35043 338.612 5.14478C338.268 4.97341 338.498 4.93914 339.187 5.07624C339.991 5.21333 340.565 5.55608 340.565 5.83027C340.565 6.13874 341.369 6.31011 342.632 6.24156C343.78 6.17301 344.469 5.86454 344.239 5.5218C344.01 5.21333 344.469 4.93914 345.158 4.93914C345.732 4.93914 346.306 5.11051 346.306 5.35043C346.306 5.55608 346.996 5.45325 347.914 5.07624C348.986 4.6421 349.483 4.65352 349.407 5.11051C349.177 5.83027 352.967 6.07019 354.689 5.45325C355.263 5.24761 355.264 5.45325 354.919 5.86454C354.345 6.44721 354.689 6.65286 355.953 6.65286C356.986 6.65286 357.79 6.41293 357.79 6.13874C357.79 5.86455 358.364 5.62463 359.053 5.62463C359.627 5.62463 359.857 5.76172 359.512 5.96737C359.053 6.20729 359.857 6.20729 361.809 5.96737C364.221 5.69317 365.484 5.76172 368.01 6.27584C370.537 6.82423 371.57 6.89277 372.718 6.55003C373.867 6.24156 373.981 6.24156 373.407 6.55003C372.833 6.8585 373.407 6.9956 375.13 6.9956C376.852 6.9956 377.312 6.8585 376.623 6.55003C376.049 6.31011 376.508 6.41293 377.656 6.75568C379.379 7.33834 380.183 7.37262 382.594 7.02987C386.269 6.55003 390.288 6.51576 389.255 7.02987C388.795 7.30407 389.14 7.30407 390.632 7.06415C394.077 6.51576 399.015 6.92705 398.556 7.71536C398.326 8.09238 398.556 8.29802 399.245 8.1952C399.819 8.0581 400.164 8.3323 399.934 8.77786C399.819 9.29198 400.278 9.5319 401.197 9.46335C402.116 9.42907 402.46 9.5319 402.001 9.73754C401.657 9.90892 401.771 10.0803 402.46 10.0803C403.035 10.0803 403.838 9.94319 404.298 9.73754C404.642 9.56617 405.791 9.5319 406.824 9.63472C407.972 9.77182 408.432 9.70327 407.972 9.49762C407.513 9.29198 407.972 9.05206 408.891 8.91496C410.958 8.67504 411.073 8.74359 409.006 9.56617ZM385.35 8.53794C384.776 8.43512 384.202 8.50367 384.202 8.67504C384.202 8.88069 384.776 9.05206 385.35 9.05206C386.039 9.05206 386.498 8.98351 386.498 8.91496C386.498 8.81214 386.039 8.64077 385.35 8.53794ZM364.91 6.17301C364.335 6.07019 363.876 6.20729 363.876 6.48148C363.876 6.75568 364.335 6.89278 364.91 6.78995C365.369 6.68713 365.828 6.55003 365.828 6.48148C365.828 6.41293 365.369 6.27584 364.91 6.17301ZM360.776 8.94923C360.087 9.05206 360.086 8.94924 361.005 8.67504C362.843 8.0581 362.843 7.50971 360.89 7.98955C359.972 8.1952 358.823 8.22947 358.364 8.09238C357.79 7.95528 357.79 8.0581 358.249 8.26375C358.709 8.50367 358.594 8.70931 358.134 8.70931C357.56 8.70931 357.101 9.01778 356.986 9.42907C356.871 9.94319 357.216 10.046 358.134 9.80609C358.938 9.63472 360.661 9.5319 362.039 9.56617C364.106 9.60045 364.335 9.5319 363.417 9.15488C362.728 8.91496 361.579 8.81214 360.776 8.94923ZM357.216 7.23552C356.182 7.33834 355.608 7.50971 355.953 7.57826C356.297 7.68108 356.986 7.64681 357.675 7.50971C359.512 7.20124 359.168 6.9956 357.216 7.23552ZM312.316 8.46939C311.971 8.57222 311.856 8.88069 312.201 9.12061C312.545 9.3948 312.89 9.29198 312.89 8.91496C313.005 8.53794 312.66 8.3323 312.316 8.46939ZM303.244 6.31011C302.325 6.31011 301.291 6.44721 300.947 6.65286C300.488 6.8585 301.521 6.9956 303.244 6.9956C304.966 6.9956 306 6.8585 305.54 6.65286C305.196 6.44721 304.162 6.31011 303.244 6.31011ZM297.272 5.93309C295.435 5.48753 295.32 5.5218 296.813 6.03592C298.306 6.61858 299.224 6.78995 299.224 6.51576C299.224 6.44721 298.306 6.17302 297.272 5.93309ZM287.167 6.51576C286.248 6.65285 285.444 6.89277 285.444 7.06415C285.444 7.26979 286.133 7.23552 287.167 6.9956C288.085 6.75568 288.889 6.51576 288.889 6.44721C288.889 6.37866 288.085 6.41293 287.167 6.51576ZM274.879 7.64681C272.468 7.26979 272.353 7.26979 273.846 7.78391C274.65 8.12665 275.798 8.36657 276.372 8.36657C278.095 8.36657 277.521 8.0581 274.879 7.64681ZM261.788 5.14478C260.87 5.04196 260.525 4.73349 260.87 4.42502C261.903 3.63672 258.229 3.77381 256.736 4.56212C255.243 5.41898 255.243 5.62463 256.851 5.62463C257.425 5.62463 257.654 5.45325 257.31 5.28188C256.965 5.07624 257.425 4.93914 258.458 4.93914C259.607 4.93914 259.951 5.11051 259.492 5.35043C259.032 5.59035 259.032 5.69317 259.607 5.55608C260.066 5.41898 261.099 5.55608 261.903 5.83027C263.166 6.34439 263.281 6.34439 263.281 5.86454C263.281 5.55608 262.592 5.24761 261.788 5.14478ZM244.104 3.91091C243.53 3.91091 242.956 4.15083 242.956 4.4593C242.956 4.73349 243.53 4.87059 244.104 4.76777C244.793 4.66494 245.252 4.42502 245.252 4.21938C245.252 4.04801 244.793 3.91091 244.104 3.91091ZM226.305 6.55003C225.386 6.41293 224.352 6.48148 224.008 6.65286C223.549 6.8585 224.353 6.9956 225.616 6.9956C228.487 6.9956 228.716 6.78995 226.305 6.55003ZM216.314 4.63067C214.247 4.66494 214.132 4.69922 215.74 4.83632C217.462 4.97341 217.577 5.07623 216.314 5.55608C214.936 6.07019 215.051 6.10447 216.888 5.6589C219.644 5.00769 219.3 4.5964 216.314 4.63067ZM111.47 0.826221C110.437 0.586301 109.748 0.552025 109.748 0.75767C109.748 0.929042 110.552 1.16896 111.47 1.30606C112.389 1.40889 113.193 1.44316 113.193 1.37461C113.193 1.30606 112.389 1.06614 111.47 0.826221ZM81.9579 5.72745C81.0392 5.83027 81.3839 5.93309 82.647 5.93309C83.9102 5.96737 84.5991 5.86455 84.1398 5.76172C83.7953 5.6589 82.7617 5.62462 81.9579 5.72745ZM78.9723 1.68308C78.6277 1.7859 78.9723 2.06009 79.7762 2.30002C80.9245 2.60848 81.0393 2.57421 80.3503 2.09437C80.0058 1.75163 79.3167 1.58026 78.9723 1.68308ZM63.8142 1.51171C63.24 1.51171 62.6658 1.58026 62.6658 1.6488C62.6658 1.75163 63.24 1.923 63.8142 2.02582C64.5032 2.12864 64.9625 2.0601 64.9625 1.88872C64.9625 1.68308 64.5032 1.51171 63.8142 1.51171ZM36.254 4.25365C35.6798 4.25365 35.1056 4.3222 35.1056 4.39075C35.1056 4.49357 35.6798 4.66494 36.254 4.76777C36.943 4.87059 37.4023 4.80204 37.4023 4.63067C37.4023 4.42502 36.943 4.25365 36.254 4.25365ZM22.7035 2.71131C22.3589 2.81413 22.7036 3.08832 23.5074 3.32824C24.6557 3.63671 24.7706 3.60244 24.0815 3.1226C23.7371 2.77986 23.048 2.60849 22.7035 2.71131ZM15.5838 3.91091C15.0096 3.91091 14.4355 3.97946 14.4355 4.04801C14.4355 4.15083 15.0096 4.3222 15.5838 4.42502C16.2728 4.52785 16.7321 4.4593 16.7321 4.28793C16.7321 4.08228 16.2728 3.91091 15.5838 3.91091Z" fill="#812D9C"/>
</svg>
