<svg width="708" height="21" viewBox="0 0 708 21" fill="none" xmlns="http://www.w3.org/2000/svg">
<path fill-rule="evenodd" clip-rule="evenodd" d="M704.924 18.2627C703.141 19.0479 699.775 19.5059 694.627 19.5059C690.468 19.5714 686.31 19.8331 685.518 20.2257C684.726 20.6183 683.934 20.3565 683.934 19.7022C683.934 19.0479 682.547 18.5899 680.567 18.5899C677.795 18.5899 677.597 18.7207 679.775 19.1788C683.34 19.9639 677.993 20.4874 667.498 20.422H659.973L664.33 19.1788C666.706 18.5244 667.696 17.9355 666.508 17.9355C665.122 17.9355 662.35 18.5244 659.973 19.3096C656.805 20.3565 654.429 20.6183 649.874 20.2911C646.31 20.0948 642.548 20.2257 641.162 20.6183C639.577 21.0109 638.389 21.1417 638.389 20.8146C638.389 20.4874 627.3 20.2911 613.637 20.3565C598.389 20.4874 589.083 20.2911 589.875 19.8985C591.657 18.917 587.102 16.6269 583.34 16.6269C580.568 16.6269 580.568 16.496 582.746 16.038C584.33 15.7108 586.904 15.5799 588.687 15.7762C591.063 15.9725 590.865 15.8417 588.29 15.3182C585.716 14.7948 583.934 14.7293 582.152 15.2528C580.766 15.6454 579.182 15.8417 578.786 15.6454C578.192 15.5145 577.796 15.9071 577.796 16.5614C577.796 17.2812 579.182 17.7392 580.766 17.6084C585.32 17.4121 588.686 18.7207 586.112 19.6368C584.132 20.3565 555.815 20.3565 549.875 19.5713C548.687 19.4405 547.3 19.6368 546.706 20.0948C546.31 20.5528 543.538 20.1602 539.974 18.9825C534.825 17.4121 534.033 16.8232 535.617 15.5145C536.607 14.7293 536.806 14.0096 536.212 14.0096C534.825 14.0096 530.469 18.1318 531.063 18.8516C531.459 19.1788 530.271 19.2442 528.885 19.0479C527.301 18.8516 524.924 19.0479 523.736 19.4405C522.152 19.9639 521.558 19.9639 521.558 19.375C521.558 18.917 519.578 18.5899 517.004 18.5899C514.429 18.5899 511.459 18.917 510.073 19.375C508.687 19.8331 507.697 19.8985 507.697 19.5059C507.697 19.1788 497.004 18.917 482.548 18.917C429.281 18.8516 370.469 17.8701 361.757 16.954C360.37 16.8232 358.786 16.954 357.994 17.3466C357.4 17.7392 355.618 17.8701 354.034 17.6738C352.648 17.4775 350.866 17.6084 350.272 18.001C349.479 18.3281 348.093 18.459 347.103 18.1973C345.123 17.8047 332.648 17.6084 296.608 17.2812C287.698 17.1503 279.381 17.3466 277.995 17.6084C276.212 18.001 275.816 17.8701 277.004 17.2158C278.391 16.496 278.193 16.4306 275.816 17.0195C274.232 17.4121 269.48 17.6084 265.123 17.4775C260.767 17.4121 252.846 17.3466 247.302 17.3466C234.628 17.4775 238.193 17.4775 189.876 16.954C91.2626 15.8417 83.9359 15.7108 65.1241 14.5985C57.5994 14.2059 47.6984 13.7478 43.342 13.6824C38.9855 13.5515 35.6191 13.1589 35.8171 12.7663C36.2132 12.3737 33.6391 12.2429 29.2827 12.3737C25.5203 12.57 22.748 12.4392 23.3421 12.1774C23.7382 11.9157 21.9558 11.7194 18.9855 11.7194C16.0153 11.7848 11.8569 11.3268 9.67871 10.6725C7.50055 10.0836 3.93616 9.42927 1.758 9.23297C-0.618286 9.03667 0.371826 8.9058 4.72827 8.84037C17.2035 8.77494 18.7876 8.57864 16.6094 7.85888C13.4411 6.81195 14.2332 5.307 17.7975 5.76503C19.3816 5.96133 20.1738 5.8959 19.5797 5.56873C18.9857 5.24157 19.3817 4.78354 20.5698 4.52181C21.7579 4.26008 22.154 3.73661 21.3619 3.34402C20.7678 2.88599 22.5498 3.40945 25.1241 4.45638C27.8964 5.5033 31.0646 6.15763 32.0547 5.8959C34.827 5.37243 32.8469 3.54031 29.8766 3.73661C28.6885 3.80204 27.5003 3.27858 27.1042 2.55882C26.5102 1.5119 26.7084 1.44647 28.2926 2.23166C29.8767 3.01685 30.8668 2.95142 34.4311 1.9045C37.2034 1.07568 38.1275 1.09749 37.2034 1.96993C35.8173 3.08228 36.0153 3.14772 39.1837 2.23166C44.1341 0.988436 56.2132 0.726706 56.2132 1.9045C56.2132 2.42796 57.2032 3.01685 58.5894 3.27858C59.9755 3.54031 60.1735 3.47488 59.3815 3.01685C57.9954 2.29709 58.7873 2.10079 64.7279 1.96993C65.916 1.9045 67.6982 1.64277 68.4903 1.25017C69.4804 0.857571 70.6686 0.857569 72.2527 1.38103C73.4409 1.77363 75.8171 1.96992 77.2032 1.77363C78.7874 1.57733 81.5596 1.83906 83.3417 2.29709C86.114 3.08228 86.5101 3.08228 84.926 2.29709C83.7379 1.57733 84.53 1.44646 89.6785 1.77363C93.6389 2.03536 95.619 1.96993 94.827 1.57733C94.2329 1.25017 94.8268 1.1193 96.4109 1.3156C98.9852 1.64276 106.708 1.96993 114.233 2.16623C116.411 2.23166 117.203 2.55882 116.411 2.95142C115.619 3.40945 116.609 3.40945 119.381 2.88599C122.748 2.29709 124.53 2.29709 126.708 2.88599C128.886 3.54032 129.678 3.47488 130.668 2.68969C131.856 1.57733 145.322 1.38103 147.5 2.49339C148.292 2.82055 150.47 2.82055 152.45 2.55882C154.629 2.23166 156.807 2.10079 157.797 2.10079C158.589 2.16622 159.183 1.90449 159.183 1.44646C159.183 1.05387 160.371 1.18473 161.757 1.9045C163.737 2.75512 164.926 2.88599 165.916 2.29709C167.104 1.7082 168.094 1.7082 170.272 2.29709C172.252 2.82055 174.629 2.82055 178.787 2.36252C181.955 1.96993 185.123 1.83906 185.52 2.03536C186.114 2.16623 187.104 1.7082 187.896 0.988436C189.084 -0.254787 189.48 -0.254787 192.054 0.59584C193.836 1.1193 196.213 1.38103 197.401 1.1193C198.589 0.857569 198.985 1.1193 198.193 1.77363C197.401 2.55882 198.193 2.68969 201.757 2.49339C204.728 2.29709 207.104 2.62426 208.292 3.27858C209.678 4.12921 210.47 4.19464 211.658 3.54032C212.45 3.08228 212.054 2.49339 210.47 2.16623C209.084 1.9045 208.49 1.44647 209.282 1.18474C209.876 0.923004 211.856 1.05387 213.242 1.44646C215.222 2.03536 216.609 1.96993 218.391 1.38103C220.371 0.792135 220.569 0.857569 219.579 1.70819C218.787 2.36252 219.183 2.88599 220.371 2.88599C221.559 2.88599 221.955 3.40945 221.163 3.99834C220.569 4.65267 220.569 4.97983 221.361 4.7181C222.747 4.39094 223.935 3.01685 224.331 1.38103C224.529 1.1193 225.916 0.923004 227.5 0.923004C229.084 0.923004 230.47 1.1193 230.47 1.38103C230.47 1.70819 232.45 1.9045 235.024 1.96993C237.401 1.96993 243.935 2.16622 249.678 2.42796C257.995 2.75512 260.569 2.62425 263.341 1.70819C265.585 1.01025 266.311 1.01025 265.519 1.70819C264.529 2.62425 265.519 2.82055 272.054 2.68969C276.212 2.68969 279.381 2.42796 278.985 2.16623C278.391 1.96993 280.767 1.77363 283.935 1.70819C287.103 1.70819 290.272 1.96993 290.866 2.29709C291.658 2.62426 293.44 2.88599 295.024 2.88599C296.608 2.88599 297.598 2.62425 297.004 2.36252C296.608 2.10079 297.994 1.77363 300.371 1.77363C302.945 1.70819 303.737 1.83906 302.351 2.10079C300.767 2.42796 300.569 2.95142 301.757 3.54032C303.341 4.32551 303.737 4.32551 303.737 3.60575C303.737 3.08228 304.925 2.88599 306.707 3.14772C308.292 3.34402 312.054 3.21315 315.024 2.82055C317.796 2.49339 320.767 2.42796 321.361 2.68969C321.955 2.95142 325.717 3.27858 329.48 3.40945C333.242 3.47488 337.004 3.93291 337.796 4.39094C338.984 4.97983 339.38 4.97984 339.38 4.32551C339.38 3.93291 340.965 3.54032 342.945 3.54032C345.717 3.54032 345.915 3.67118 343.341 4.19464C341.559 4.58724 341.361 4.84897 342.747 4.84897C344.133 4.84897 346.113 4.32551 347.103 3.67118C348.291 3.08228 349.281 2.88599 349.281 3.27858C349.281 4.26007 363.539 4.32551 365.519 3.34402C366.707 2.75512 367.103 2.75512 367.103 3.34402C367.103 3.80204 369.281 4.19464 372.054 4.19464C374.826 4.19464 377.004 4.45638 377.004 4.84897C377.004 5.17614 375.42 5.307 373.638 5.1107C370.865 4.78354 370.668 4.84897 372.846 5.37243C374.43 5.76503 376.806 5.89589 378.192 5.69959C379.38 5.56873 381.36 6.22306 382.549 7.26998C383.737 8.25147 384.727 8.7095 384.727 8.25147C384.925 7.07368 388.489 7.26998 389.677 8.57864C391.262 10.2145 400.766 11.654 400.766 10.2799C400.766 9.75643 399.974 9.4947 398.786 9.75643C396.806 10.149 387.895 7.53171 389.677 7.00825C390.271 6.81195 392.45 7.00825 394.232 7.53171C396.476 8.0988 396.74 8.01155 395.024 7.26998C393.44 6.61565 390.667 6.22306 388.885 6.35392C387.103 6.48479 384.529 6.0922 383.143 5.43787C381.361 4.45638 381.558 4.19464 383.341 4.32551C384.727 4.45637 386.311 4.65267 386.905 4.84897C387.499 5.04527 390.865 5.6996 394.43 6.28849C400.568 7.40085 400.964 7.40085 404.727 6.15763C409.083 4.71811 411.658 4.39094 409.479 5.63416C408.489 6.09219 409.083 6.22306 411.261 5.96133C413.043 5.76503 414.826 5.89589 415.42 6.35392C416.41 6.94282 416.806 6.94282 417.796 6.35392C418.588 5.69959 420.568 5.76503 426.113 6.48479C430.997 7.13912 431.987 7.05187 429.083 6.22306C425.321 5.17613 425.123 4.9144 427.697 4.58724C429.281 4.39094 430.073 4.45638 429.479 4.84897C428.885 5.24157 430.073 5.5033 432.251 5.5033C434.43 5.5033 436.608 5.76503 437.4 6.0922C438.984 7.00825 450.469 6.81195 449.083 5.8959C448.489 5.5033 449.083 5.63416 450.667 6.15763C453.637 7.33542 461.162 7.92431 459.182 6.87739C457.598 5.96133 458.984 5.96133 466.905 7.07369C472.845 7.85888 474.232 7.85888 477.796 7.07369C480.37 6.41936 481.954 6.35393 481.954 6.81196C481.954 7.20455 482.746 7.33542 483.934 7.13912C484.925 6.94282 485.519 7.13912 484.925 7.59715C484.33 8.05518 484.727 8.84037 485.717 9.36384C487.103 10.149 488.291 10.149 490.469 9.56013C491.855 9.1021 494.033 9.03667 494.825 9.2984C495.816 9.56013 495.816 9.36383 495.023 8.9058C494.231 8.44777 492.647 8.25148 491.657 8.44777C490.667 8.70951 489.875 8.57864 489.875 8.18604C489.875 6.81195 494.231 6.74652 497.004 7.98974C498.786 8.84037 501.36 9.23297 503.736 9.1021C505.915 8.97124 507.697 9.1021 507.697 9.4947C507.697 9.82186 508.687 10.0836 509.875 10.0836C510.865 10.0836 511.261 9.75643 510.667 9.42927C510.073 9.03667 510.865 8.77494 512.647 8.77494C514.627 8.77494 515.221 8.44777 514.429 7.98974C513.637 7.59715 515.023 7.72801 517.4 8.31691C519.974 8.84037 523.34 9.16753 524.726 8.97123C526.508 8.77494 527.499 9.1021 527.499 9.75643C527.499 10.7379 527.895 10.8034 530.865 10.0182C533.043 9.36384 533.637 9.36383 532.647 9.88729C531.855 10.3453 532.251 10.7379 533.241 10.7379C536.013 10.7379 536.013 9.88729 533.241 8.97123C531.855 8.5132 531.855 8.12061 533.043 7.85888C534.231 7.59715 536.409 7.98974 537.796 8.57864C540.568 9.88729 545.32 10.4108 545.32 9.4947C545.32 9.16753 547.103 8.77494 549.281 8.57864C552.251 8.31691 553.241 8.57864 553.241 9.42927C553.241 10.8688 549.677 11.7848 544.924 11.5231C542.944 11.3922 541.36 11.5885 541.36 11.9157C541.36 12.2429 543.538 12.5046 546.31 12.5046C549.083 12.5046 551.261 12.2429 551.261 11.9157C551.261 11.5885 552.251 11.5231 553.637 11.7848C554.825 12.0466 555.221 11.9811 554.627 11.5885C553.835 11.1959 554.627 10.5416 556.211 10.0836C557.796 9.62557 558.587 8.97124 557.795 8.51321C557.201 8.12061 557.795 8.12061 559.38 8.57864C560.766 9.03667 564.132 9.42927 566.706 9.42927C570.469 9.42927 571.063 9.691 570.073 10.8034C569.083 11.7848 569.281 12.0466 570.865 11.7848C572.053 11.5231 573.043 10.7379 573.043 10.0182C573.043 8.90581 573.637 8.84037 577.003 9.42927C579.182 9.82186 580.964 10.6071 580.964 11.2614C580.964 12.1774 581.36 12.2429 582.746 11.3923C583.934 10.8688 584.132 10.2145 583.538 9.82186C582.944 9.4947 583.34 9.42927 584.528 9.691C585.914 9.95273 586.904 10.6071 586.904 11.1305C586.904 11.7194 588.29 12.0466 590.469 11.9157C592.449 11.7848 593.637 11.1959 593.241 10.5416C592.845 9.95273 593.637 9.42927 594.825 9.42927C595.815 9.42927 596.805 9.75643 596.805 10.2145C596.805 10.6071 597.993 10.4108 599.578 9.691C601.426 8.86218 602.284 8.88399 602.152 9.75643C601.756 11.1305 608.29 11.5885 611.261 10.4108C612.251 10.0182 612.251 10.4108 611.657 11.1959C610.667 12.3083 611.261 12.7009 613.439 12.7009C615.221 12.7009 616.607 12.2429 616.607 11.7194C616.607 11.196 617.597 10.7379 618.785 10.7379C619.775 10.7379 620.172 10.9997 619.577 11.3923C618.785 11.8503 620.172 11.8503 623.538 11.3923C627.696 10.8688 629.875 10.9997 634.231 11.9811C638.587 13.0281 640.369 13.1589 642.35 12.5046C644.33 11.9157 644.528 11.9157 643.538 12.5046C642.548 13.0935 643.538 13.3552 646.508 13.3552C649.478 13.3552 650.271 13.0935 649.082 12.5046C648.092 12.0466 648.884 12.2429 650.864 12.8972C653.835 14.0096 655.221 14.075 659.379 13.4207C665.716 12.5046 672.647 12.4392 670.864 13.4207C670.072 13.9441 670.666 13.9441 673.241 13.4861C679.181 12.4392 687.696 13.2244 686.904 14.7293C686.508 15.4491 686.904 15.8417 688.092 15.6454C689.082 15.3837 689.676 15.9071 689.28 16.7577C689.082 17.7392 689.874 18.1973 691.458 18.0664C693.042 18.001 693.637 18.1973 692.845 18.5899C692.25 18.917 692.449 19.2442 693.637 19.2442C694.627 19.2442 696.013 18.9825 696.805 18.5899C697.399 18.2627 699.379 18.1973 701.161 18.3936C703.141 18.6553 703.934 18.5244 703.141 18.1318C702.349 17.7392 703.142 17.2812 704.726 17.0195C708.29 16.5614 708.488 16.6923 704.924 18.2627ZM664.132 16.2997C663.142 16.1034 662.152 16.2343 662.152 16.5614C662.152 16.954 663.142 17.2812 664.132 17.2812C665.32 17.2812 666.112 17.1503 666.112 17.0195C666.112 16.8232 665.32 16.496 664.132 16.2997ZM628.884 11.7848C627.894 11.5885 627.102 11.8503 627.102 12.3737C627.102 12.8972 627.894 13.1589 628.884 12.9626C629.676 12.7663 630.469 12.5046 630.469 12.3737C630.469 12.2429 629.676 11.9811 628.884 11.7848ZM621.756 17.0849C620.568 17.2812 620.567 17.0849 622.152 16.5614C625.32 15.3837 625.32 14.3367 621.954 15.2528C620.369 15.6454 618.389 15.7108 617.597 15.4491C616.607 15.1873 616.607 15.3836 617.399 15.7762C618.191 16.2343 617.993 16.6269 617.201 16.6269C616.211 16.6269 615.419 17.2158 615.221 18.001C615.023 18.9825 615.617 19.1788 617.201 18.7207C618.587 18.3936 621.558 18.1973 623.934 18.2627C627.498 18.3281 627.894 18.1973 626.31 17.4775C625.122 17.0195 623.142 16.8232 621.756 17.0849ZM615.617 13.8133C613.835 14.0096 612.845 14.3367 613.439 14.4676C614.033 14.6639 615.221 14.5985 616.409 14.3367C619.578 13.7478 618.983 13.3552 615.617 13.8133ZM538.192 16.1688C537.598 16.3651 537.399 16.954 537.993 17.4121C538.588 17.9355 539.182 17.7392 539.182 17.0195C539.38 16.2997 538.786 15.9071 538.192 16.1688ZM522.548 12.0466C520.964 12.0466 519.182 12.3083 518.588 12.7009C517.796 13.0935 519.578 13.3552 522.548 13.3552C525.518 13.3552 527.301 13.0935 526.509 12.7009C525.914 12.3083 524.132 12.0466 522.548 12.0466ZM512.251 11.3268C509.083 10.4762 508.885 10.5416 511.459 11.5231C514.033 12.6355 515.617 12.9626 515.617 12.4392C515.617 12.3083 514.033 11.7848 512.251 11.3268ZM494.825 12.4392C493.241 12.7009 491.855 13.1589 491.855 13.4861C491.855 13.8787 493.043 13.8133 494.825 13.3552C496.41 12.8972 497.796 12.4392 497.796 12.3083C497.796 12.1774 496.41 12.2429 494.825 12.4392ZM473.637 14.5985C469.479 13.8787 469.281 13.8787 471.855 14.8602C473.241 15.5145 475.222 15.9725 476.212 15.9725C479.182 15.9725 478.192 15.3837 473.637 14.5985ZM451.063 9.82186C449.479 9.62556 448.885 9.03667 449.479 8.44777C451.261 6.94282 444.925 7.20455 442.35 8.70951C439.776 10.3453 439.776 10.7379 442.548 10.7379C443.538 10.7379 443.935 10.4108 443.341 10.0836C442.746 9.691 443.539 9.42927 445.321 9.42927C447.301 9.42927 447.895 9.75643 447.103 10.2145C446.311 10.6725 446.311 10.8688 447.301 10.6071C448.093 10.3453 449.875 10.6071 451.261 11.1305C453.439 12.112 453.637 12.112 453.637 11.1959C453.637 10.6071 452.449 10.0182 451.063 9.82186ZM420.568 7.46628C419.578 7.46628 418.588 7.92431 418.588 8.51321C418.588 9.03667 419.578 9.2984 420.568 9.1021C421.756 8.9058 422.549 8.44778 422.549 8.05518C422.549 7.72801 421.756 7.46628 420.568 7.46628ZM389.875 12.5046C388.291 12.2429 386.509 12.3737 385.915 12.7009C385.123 13.0935 386.509 13.3552 388.687 13.3552C393.638 13.3552 394.034 12.9626 389.875 12.5046ZM372.648 8.84037C369.083 8.9058 368.885 8.97124 371.657 9.23297C374.628 9.4947 374.826 9.69099 372.648 10.6071C370.271 11.5885 370.469 11.654 373.638 10.8034C378.39 9.56013 377.796 8.77494 372.648 8.84037ZM191.856 1.57733C190.074 1.1193 188.886 1.05387 188.886 1.44646C188.886 1.77363 190.272 2.23166 191.856 2.49339C193.44 2.68969 194.827 2.75512 194.827 2.62426C194.827 2.49339 193.44 2.03536 191.856 1.57733ZM140.965 10.9342C139.381 11.1305 139.975 11.3268 142.154 11.3268C144.332 11.3923 145.52 11.196 144.728 10.9997C144.134 10.8034 142.351 10.7379 140.965 10.9342ZM135.817 3.21315C135.223 3.40945 135.817 3.93291 137.203 4.39094C139.183 4.97983 139.381 4.9144 138.193 3.99834C137.599 3.34402 136.411 3.01685 135.817 3.21315ZM109.678 2.88599C108.688 2.88599 107.698 3.01685 107.698 3.14772C107.698 3.34402 108.688 3.67118 109.678 3.86748C110.866 4.06378 111.659 3.93291 111.659 3.60575C111.659 3.21315 110.866 2.88599 109.678 2.88599ZM62.1538 8.12061C61.1637 8.12061 60.1736 8.25148 60.1736 8.38234C60.1736 8.57864 61.1637 8.9058 62.1538 9.1021C63.3419 9.2984 64.134 9.16753 64.134 8.84037C64.134 8.44777 63.3419 8.12061 62.1538 8.12061ZM38.7874 5.17614C38.1934 5.37243 38.7876 5.89589 40.1737 6.35392C42.1539 6.94282 42.3519 6.87739 41.1638 5.96133C40.5698 5.307 39.3815 4.97984 38.7874 5.17614ZM26.5104 7.46628C25.5203 7.46628 24.5302 7.59715 24.5302 7.72801C24.5302 7.92431 25.5203 8.25148 26.5104 8.44777C27.6985 8.64407 28.4905 8.51321 28.4905 8.18604C28.4905 7.79345 27.6985 7.46628 26.5104 7.46628Z" fill="#812D9C"/>
</svg>
