<svg width="40" height="40" viewBox="0 0 40 40" fill="none" xmlns="http://www.w3.org/2000/svg">
<path d="M22.8832 5.85039L25.8165 11.7171C26.2165 12.5337 27.2832 13.3171 28.1832 13.4671L33.4998 14.3504C36.8998 14.9171 37.6998 17.3837 35.2498 19.8171L31.1165 23.9504C30.4165 24.6504 30.0332 26.0004 30.2498 26.9671L31.4332 32.0837C32.3665 36.1337 30.2165 37.7004 26.6332 35.5837L21.6498 32.6337C20.7498 32.1004 19.2665 32.1004 18.3498 32.6337L13.3665 35.5837C9.79985 37.7004 7.63318 36.1171 8.56651 32.0837L9.74985 26.9671C9.96651 26.0004 9.58318 24.6504 8.88318 23.9504L4.74985 19.8171C2.31651 17.3837 3.09985 14.9171 6.49985 14.3504L11.8165 13.4671C12.6998 13.3171 13.7665 12.5337 14.1665 11.7171L17.0998 5.85039C18.6998 2.66706 21.2998 2.66706 22.8832 5.85039Z" stroke="white" stroke-opacity="0.8" stroke-width="2" stroke-linecap="round" stroke-linejoin="round"/>
</svg>
