<svg width="402" height="292" viewBox="0 0 402 292" fill="none" xmlns="http://www.w3.org/2000/svg">
<rect width="402" height="292" rx="20" fill="#F2F1EC"/>
<path d="M77.976 37V24.31H88.704V37H86.85V25.876H79.848V37H77.976ZM95.3954 37.162C94.5074 37.162 93.7394 36.976 93.0914 36.604C92.4434 36.232 91.9394 35.71 91.5794 35.038C91.2314 34.354 91.0574 33.544 91.0574 32.608C91.0574 31.672 91.2314 30.868 91.5794 30.196C91.9394 29.512 92.4434 28.984 93.0914 28.612C93.7394 28.24 94.5074 28.054 95.3954 28.054C96.2594 28.054 97.0154 28.24 97.6634 28.612C98.3114 28.984 98.8154 29.512 99.1754 30.196C99.5354 30.868 99.7154 31.672 99.7154 32.608C99.7154 33.544 99.5354 34.354 99.1754 35.038C98.8154 35.71 98.3114 36.232 97.6634 36.604C97.0154 36.976 96.2594 37.162 95.3954 37.162ZM95.3954 35.758C96.1394 35.758 96.7394 35.488 97.1954 34.948C97.6514 34.408 97.8794 33.628 97.8794 32.608C97.8794 31.588 97.6514 30.814 97.1954 30.286C96.7394 29.746 96.1394 29.476 95.3954 29.476C94.6394 29.476 94.0334 29.746 93.5774 30.286C93.1214 30.814 92.8934 31.588 92.8934 32.608C92.8934 33.628 93.1214 34.408 93.5774 34.948C94.0334 35.488 94.6394 35.758 95.3954 35.758ZM101.05 39.34V35.56H102.022C102.406 34.984 102.682 34.318 102.85 33.562C103.018 32.794 103.102 31.864 103.102 30.772V28.216H109.6V35.56H111.004V39.34H109.456V37H102.616V39.34H101.05ZM103.714 35.56H107.872V29.638H104.686V31.15C104.686 31.978 104.602 32.782 104.434 33.562C104.266 34.342 104.026 35.008 103.714 35.56ZM116.701 37.162C115.345 37.162 114.271 36.736 113.479 35.884C112.699 35.032 112.309 33.778 112.309 32.122V30.79C112.309 29.038 112.681 27.706 113.425 26.794C114.169 25.87 115.279 25.216 116.755 24.832L119.851 24.022L120.427 25.48L116.881 26.38C115.945 26.62 115.237 27.058 114.757 27.694C114.277 28.33 114.037 29.116 114.037 30.052V30.124C114.313 29.548 114.715 29.092 115.243 28.756C115.783 28.42 116.425 28.252 117.169 28.252C117.913 28.252 118.567 28.432 119.131 28.792C119.707 29.14 120.157 29.644 120.481 30.304C120.805 30.964 120.967 31.744 120.967 32.644C120.967 33.568 120.787 34.372 120.427 35.056C120.079 35.728 119.581 36.25 118.933 36.622C118.297 36.982 117.553 37.162 116.701 37.162ZM116.629 35.758C117.421 35.758 118.033 35.5 118.465 34.984C118.909 34.456 119.131 33.7 119.131 32.716C119.131 31.744 118.909 30.994 118.465 30.466C118.021 29.926 117.409 29.656 116.629 29.656C115.861 29.656 115.255 29.92 114.811 30.448C114.367 30.964 114.145 31.678 114.145 32.59C114.145 33.634 114.361 34.426 114.793 34.966C115.237 35.494 115.849 35.758 116.629 35.758ZM127.342 37.162C125.902 37.162 124.768 36.76 123.94 35.956C123.112 35.14 122.698 34.03 122.698 32.626C122.698 31.726 122.878 30.934 123.238 30.25C123.61 29.554 124.12 29.014 124.768 28.63C125.416 28.246 126.16 28.054 127 28.054C128.212 28.054 129.166 28.444 129.862 29.224C130.558 29.992 130.906 31.054 130.906 32.41V33.022H124.462C124.594 34.846 125.56 35.758 127.36 35.758C127.864 35.758 128.356 35.68 128.836 35.524C129.328 35.368 129.79 35.11 130.222 34.75L130.762 36.01C130.366 36.37 129.856 36.652 129.232 36.856C128.608 37.06 127.978 37.162 127.342 37.162ZM127.072 29.332C126.316 29.332 125.716 29.566 125.272 30.034C124.828 30.502 124.558 31.126 124.462 31.906H129.376C129.34 31.09 129.124 30.46 128.728 30.016C128.332 29.56 127.78 29.332 127.072 29.332ZM133.081 40.24V28.216H134.863V29.71C135.115 29.206 135.499 28.804 136.015 28.504C136.531 28.204 137.125 28.054 137.797 28.054C138.577 28.054 139.255 28.24 139.831 28.612C140.419 28.984 140.869 29.512 141.181 30.196C141.505 30.868 141.667 31.672 141.667 32.608C141.667 33.544 141.505 34.354 141.181 35.038C140.869 35.722 140.419 36.25 139.831 36.622C139.255 36.982 138.577 37.162 137.797 37.162C137.149 37.162 136.567 37.024 136.051 36.748C135.547 36.46 135.163 36.07 134.899 35.578V40.24H133.081ZM137.347 35.758C138.103 35.758 138.703 35.488 139.147 34.948C139.603 34.408 139.831 33.628 139.831 32.608C139.831 31.588 139.603 30.814 139.147 30.286C138.703 29.746 138.103 29.476 137.347 29.476C136.591 29.476 135.985 29.746 135.529 30.286C135.085 30.814 134.863 31.588 134.863 32.608C134.863 33.628 135.085 34.408 135.529 34.948C135.985 35.488 136.591 35.758 137.347 35.758ZM143.891 37V28.216H145.547V34.588L150.299 28.216H151.829V37H150.173V30.646L145.421 37H143.891ZM158.912 37.234L158.3 35.794C158.828 35.578 159.242 35.284 159.542 34.912C159.842 34.528 160.058 34 160.19 33.328C160.322 32.644 160.388 31.762 160.388 30.682V28.216H167.084V37H165.266V29.674H162.08V30.736C162.08 32.056 161.972 33.154 161.756 34.03C161.54 34.906 161.198 35.602 160.73 36.118C160.274 36.622 159.668 36.994 158.912 37.234ZM170.737 40.24L172.303 36.766L168.631 28.216H170.575L173.275 34.894L176.011 28.216H177.883L172.645 40.24H170.737ZM184.962 37V33.616C184.314 33.988 183.582 34.174 182.766 34.174C181.494 34.174 180.552 33.868 179.94 33.256C179.328 32.644 179.022 31.714 179.022 30.466V28.216H180.84V30.322C180.84 31.15 181.008 31.75 181.344 32.122C181.692 32.494 182.262 32.68 183.054 32.68C183.438 32.68 183.78 32.638 184.08 32.554C184.38 32.47 184.668 32.326 184.944 32.122V28.216H186.762V37H184.962ZM189.489 37V28.216H191.217V35.56H194.583V28.216H196.311V35.56H199.677V28.216H201.405V37H189.489ZM204.149 37V28.216H205.805V34.588L210.557 28.216H212.087V37H210.431V30.646L205.679 37H204.149ZM214.819 37V28.216H216.475V34.588L221.227 28.216H222.757V37H221.101V30.646L216.349 37H214.819ZM218.779 27.1C217.999 27.1 217.327 26.896 216.763 26.488C216.211 26.068 215.827 25.462 215.611 24.67L216.601 24.328C216.817 24.916 217.099 25.348 217.447 25.624C217.807 25.9 218.257 26.038 218.797 26.038C219.349 26.038 219.793 25.906 220.129 25.642C220.477 25.378 220.783 24.946 221.047 24.346L222.001 24.67C221.713 25.522 221.287 26.14 220.723 26.524C220.159 26.908 219.511 27.1 218.779 27.1ZM230.218 37V28.216H234.7C235.78 28.216 236.566 28.42 237.058 28.828C237.562 29.224 237.814 29.788 237.814 30.52C237.814 30.976 237.682 31.378 237.418 31.726C237.166 32.062 236.818 32.308 236.374 32.464C236.926 32.596 237.352 32.848 237.652 33.22C237.952 33.592 238.102 34.036 238.102 34.552C238.102 35.308 237.82 35.908 237.256 36.352C236.692 36.784 235.888 37 234.844 37H230.218ZM231.928 31.942H234.574C235.066 31.942 235.444 31.828 235.708 31.6C235.984 31.372 236.122 31.06 236.122 30.664C236.122 30.256 235.984 29.944 235.708 29.728C235.444 29.512 235.066 29.404 234.574 29.404H231.928V31.942ZM231.928 35.83H234.736C235.864 35.83 236.428 35.374 236.428 34.462C236.428 33.562 235.864 33.112 234.736 33.112H231.928V35.83ZM244.36 37.162C242.92 37.162 241.786 36.76 240.958 35.956C240.13 35.14 239.716 34.03 239.716 32.626C239.716 31.726 239.896 30.934 240.256 30.25C240.628 29.554 241.138 29.014 241.786 28.63C242.434 28.246 243.178 28.054 244.018 28.054C245.23 28.054 246.184 28.444 246.88 29.224C247.576 29.992 247.924 31.054 247.924 32.41V33.022H241.48C241.612 34.846 242.578 35.758 244.378 35.758C244.882 35.758 245.374 35.68 245.854 35.524C246.346 35.368 246.808 35.11 247.24 34.75L247.78 36.01C247.384 36.37 246.874 36.652 246.25 36.856C245.626 37.06 244.996 37.162 244.36 37.162ZM244.09 29.332C243.334 29.332 242.734 29.566 242.29 30.034C241.846 30.502 241.576 31.126 241.48 31.906H246.394C246.358 31.09 246.142 30.46 245.746 30.016C245.35 29.56 244.798 29.332 244.09 29.332ZM249.703 37.234L249.091 35.794C249.619 35.578 250.033 35.284 250.333 34.912C250.633 34.528 250.849 34 250.981 33.328C251.113 32.644 251.179 31.762 251.179 30.682V28.216H257.875V37H256.057V29.674H252.871V30.736C252.871 32.056 252.763 33.154 252.547 34.03C252.331 34.906 251.989 35.602 251.521 36.118C251.065 36.622 250.459 36.994 249.703 37.234ZM264.444 37.162C263.556 37.162 262.788 36.976 262.14 36.604C261.492 36.232 260.988 35.71 260.628 35.038C260.28 34.354 260.106 33.544 260.106 32.608C260.106 31.672 260.28 30.868 260.628 30.196C260.988 29.512 261.492 28.984 262.14 28.612C262.788 28.24 263.556 28.054 264.444 28.054C265.308 28.054 266.064 28.24 266.712 28.612C267.36 28.984 267.864 29.512 268.224 30.196C268.584 30.868 268.764 31.672 268.764 32.608C268.764 33.544 268.584 34.354 268.224 35.038C267.864 35.71 267.36 36.232 266.712 36.604C266.064 36.976 265.308 37.162 264.444 37.162ZM264.444 35.758C265.188 35.758 265.788 35.488 266.244 34.948C266.7 34.408 266.928 33.628 266.928 32.608C266.928 31.588 266.7 30.814 266.244 30.286C265.788 29.746 265.188 29.476 264.444 29.476C263.688 29.476 263.082 29.746 262.626 30.286C262.17 30.814 261.942 31.588 261.942 32.608C261.942 33.628 262.17 34.408 262.626 34.948C263.082 35.488 263.688 35.758 264.444 35.758ZM274.887 37.162C273.987 37.162 273.207 36.976 272.547 36.604C271.899 36.22 271.395 35.686 271.035 35.002C270.675 34.306 270.495 33.49 270.495 32.554C270.495 31.162 270.891 30.064 271.683 29.26C272.475 28.456 273.543 28.054 274.887 28.054C275.439 28.054 275.985 28.15 276.525 28.342C277.065 28.534 277.509 28.798 277.857 29.134L277.281 30.412C276.945 30.1 276.573 29.872 276.165 29.728C275.769 29.572 275.391 29.494 275.031 29.494C274.179 29.494 273.519 29.764 273.051 30.304C272.595 30.832 272.367 31.588 272.367 32.572C272.367 33.556 272.595 34.33 273.051 34.894C273.519 35.446 274.179 35.722 275.031 35.722C275.391 35.722 275.769 35.65 276.165 35.506C276.573 35.35 276.945 35.116 277.281 34.804L277.857 36.1C277.509 36.424 277.059 36.682 276.507 36.874C275.967 37.066 275.427 37.162 274.887 37.162ZM279.612 37V28.216H281.268V34.588L286.02 28.216H287.55V37H285.894V30.646L281.142 37H279.612ZM290.282 37V28.216H298.238V37H296.42V29.674H292.1V37H290.282ZM305.092 37.162C303.652 37.162 302.518 36.76 301.69 35.956C300.862 35.14 300.448 34.03 300.448 32.626C300.448 31.726 300.628 30.934 300.988 30.25C301.36 29.554 301.87 29.014 302.518 28.63C303.166 28.246 303.91 28.054 304.75 28.054C305.962 28.054 306.916 28.444 307.612 29.224C308.308 29.992 308.656 31.054 308.656 32.41V33.022H302.212C302.344 34.846 303.31 35.758 305.11 35.758C305.614 35.758 306.106 35.68 306.586 35.524C307.078 35.368 307.54 35.11 307.972 34.75L308.512 36.01C308.116 36.37 307.606 36.652 306.982 36.856C306.358 37.06 305.728 37.162 305.092 37.162ZM304.822 29.332C304.066 29.332 303.466 29.566 303.022 30.034C302.578 30.502 302.308 31.126 302.212 31.906H307.126C307.09 31.09 306.874 30.46 306.478 30.016C306.082 29.56 305.53 29.332 304.822 29.332ZM309.913 39.34V35.56H310.885C311.269 34.984 311.545 34.318 311.713 33.562C311.881 32.794 311.965 31.864 311.965 30.772V28.216H318.463V35.56H319.867V39.34H318.319V37H311.479V39.34H309.913ZM312.577 35.56H316.735V29.638H313.549V31.15C313.549 31.978 313.465 32.782 313.297 33.562C313.129 34.342 312.889 35.008 312.577 35.56ZM321.893 33.49L321.317 24.31H323.567L323.009 33.49H321.893ZM321.371 37V34.858H323.513V37H321.371Z" fill="#414143"/>
<path d="M118.648 75V65.13H122.736C123.8 65.13 124.621 65.396 125.2 65.928C125.779 66.4507 126.068 67.188 126.068 68.14C126.068 69.1013 125.779 69.848 125.2 70.38C124.621 70.9027 123.8 71.164 122.736 71.164H120.104V75H118.648ZM120.104 70.002H122.526C123.945 70.002 124.654 69.3813 124.654 68.14C124.654 66.908 123.945 66.292 122.526 66.292H120.104V70.002ZM129.58 75.126C129.104 75.126 128.68 75.0327 128.306 74.846C127.933 74.6593 127.634 74.4073 127.41 74.09C127.196 73.7727 127.088 73.4133 127.088 73.012C127.088 72.508 127.214 72.1113 127.466 71.822C127.728 71.5327 128.152 71.3227 128.74 71.192C129.338 71.0613 130.14 70.996 131.148 70.996H131.624V70.632C131.624 70.1 131.512 69.7173 131.288 69.484C131.064 69.2507 130.696 69.134 130.182 69.134C129.79 69.134 129.398 69.1947 129.006 69.316C128.614 69.428 128.213 69.61 127.802 69.862L127.368 68.868C127.723 68.616 128.166 68.4153 128.698 68.266C129.23 68.1167 129.739 68.042 130.224 68.042C131.158 68.042 131.848 68.266 132.296 68.714C132.744 69.1527 132.968 69.8433 132.968 70.786V75H131.638V73.866C131.47 74.258 131.209 74.566 130.854 74.79C130.5 75.014 130.075 75.126 129.58 75.126ZM129.86 74.118C130.364 74.118 130.784 73.9407 131.12 73.586C131.456 73.2313 131.624 72.7833 131.624 72.242V71.864H131.162C130.481 71.864 129.944 71.8967 129.552 71.962C129.17 72.0273 128.894 72.1393 128.726 72.298C128.568 72.4473 128.488 72.6573 128.488 72.928C128.488 73.2827 128.61 73.572 128.852 73.796C129.095 74.0107 129.431 74.118 129.86 74.118ZM138.09 75.126C137.39 75.126 136.783 74.9813 136.27 74.692C135.766 74.3933 135.374 73.978 135.094 73.446C134.814 72.9047 134.674 72.27 134.674 71.542C134.674 70.4593 134.982 69.6053 135.598 68.98C136.214 68.3547 137.045 68.042 138.09 68.042C138.519 68.042 138.944 68.1167 139.364 68.266C139.784 68.4153 140.129 68.6207 140.4 68.882L139.952 69.876C139.691 69.6333 139.401 69.456 139.084 69.344C138.776 69.2227 138.482 69.162 138.202 69.162C137.539 69.162 137.026 69.372 136.662 69.792C136.307 70.2027 136.13 70.7907 136.13 71.556C136.13 72.3213 136.307 72.9233 136.662 73.362C137.026 73.7913 137.539 74.006 138.202 74.006C138.482 74.006 138.776 73.95 139.084 73.838C139.401 73.7167 139.691 73.5347 139.952 73.292L140.4 74.3C140.129 74.552 139.779 74.7527 139.35 74.902C138.93 75.0513 138.51 75.126 138.09 75.126ZM141.765 75V68.168H143.109V73.88H145.727V68.168H147.071V73.88H149.689V68.168H151.033V75H141.765ZM153.168 75V68.168H154.456V73.124L158.152 68.168H159.342V75H158.054V70.058L154.358 75H153.168ZM161.48 77.52V68.168H162.866V69.33C163.062 68.938 163.361 68.6253 163.762 68.392C164.164 68.1587 164.626 68.042 165.148 68.042C165.755 68.042 166.282 68.1867 166.73 68.476C167.188 68.7653 167.538 69.176 167.78 69.708C168.032 70.2307 168.158 70.856 168.158 71.584C168.158 72.312 168.032 72.942 167.78 73.474C167.538 74.006 167.188 74.4167 166.73 74.706C166.282 74.986 165.755 75.126 165.148 75.126C164.644 75.126 164.192 75.0187 163.79 74.804C163.398 74.58 163.1 74.2767 162.894 73.894V77.52H161.48ZM164.798 74.034C165.386 74.034 165.853 73.824 166.198 73.404C166.553 72.984 166.73 72.3773 166.73 71.584C166.73 70.7907 166.553 70.1887 166.198 69.778C165.853 69.358 165.386 69.148 164.798 69.148C164.21 69.148 163.739 69.358 163.384 69.778C163.039 70.1887 162.866 70.7907 162.866 71.584C162.866 72.3773 163.039 72.984 163.384 73.404C163.739 73.824 164.21 74.034 164.798 74.034ZM173.108 75.126C171.988 75.126 171.106 74.8133 170.462 74.188C169.818 73.5533 169.496 72.69 169.496 71.598C169.496 70.898 169.636 70.282 169.916 69.75C170.206 69.2087 170.602 68.7887 171.106 68.49C171.61 68.1913 172.189 68.042 172.842 68.042C173.785 68.042 174.527 68.3453 175.068 68.952C175.61 69.5493 175.88 70.3753 175.88 71.43V71.906H170.868C170.971 73.3247 171.722 74.034 173.122 74.034C173.514 74.034 173.897 73.9733 174.27 73.852C174.653 73.7307 175.012 73.53 175.348 73.25L175.768 74.23C175.46 74.51 175.064 74.7293 174.578 74.888C174.093 75.0467 173.603 75.126 173.108 75.126ZM172.898 69.036C172.31 69.036 171.844 69.218 171.498 69.582C171.153 69.946 170.943 70.4313 170.868 71.038H174.69C174.662 70.4033 174.494 69.9133 174.186 69.568C173.878 69.2133 173.449 69.036 172.898 69.036ZM177.558 75V68.168H178.972V70.926H182.374V68.168H183.788V75H182.374V72.046H178.972V75H177.558ZM185.898 75V68.168H187.312V70.926H190.714V68.168H192.128V75H190.714V72.046H187.312V75H185.898ZM194.238 75V68.168H195.652V70.534H197.598C198.475 70.534 199.142 70.7253 199.6 71.108C200.057 71.4813 200.286 72.0273 200.286 72.746C200.286 73.4367 200.048 73.9873 199.572 74.398C199.096 74.7993 198.438 75 197.598 75H194.238ZM201.21 75V68.168H202.624V75H201.21ZM195.652 74.034H197.416C197.901 74.034 198.279 73.9313 198.55 73.726C198.82 73.5113 198.956 73.1847 198.956 72.746C198.956 72.3167 198.82 72.004 198.55 71.808C198.279 71.6027 197.901 71.5 197.416 71.5H195.652V74.034ZM204.752 75V68.168H206.04V73.124L209.736 68.168H210.926V75H209.638V70.058L205.942 75H204.752ZM207.832 67.3C207.225 67.3 206.702 67.1413 206.264 66.824C205.834 66.4973 205.536 66.026 205.368 65.41L206.138 65.144C206.306 65.6013 206.525 65.9373 206.796 66.152C207.076 66.3667 207.426 66.474 207.846 66.474C208.275 66.474 208.62 66.3713 208.882 66.166C209.152 65.9607 209.39 65.6247 209.596 65.158L210.338 65.41C210.114 66.0727 209.782 66.5533 209.344 66.852C208.905 67.1507 208.401 67.3 207.832 67.3ZM216.728 75V68.168H222.916V75H221.502V69.302H218.142V75H216.728ZM228.009 75.126C227.318 75.126 226.721 74.9813 226.217 74.692C225.713 74.4027 225.321 73.9967 225.041 73.474C224.77 72.942 224.635 72.312 224.635 71.584C224.635 70.856 224.77 70.2307 225.041 69.708C225.321 69.176 225.713 68.7653 226.217 68.476C226.721 68.1867 227.318 68.042 228.009 68.042C228.681 68.042 229.269 68.1867 229.773 68.476C230.277 68.7653 230.669 69.176 230.949 69.708C231.229 70.2307 231.369 70.856 231.369 71.584C231.369 72.312 231.229 72.942 230.949 73.474C230.669 73.9967 230.277 74.4027 229.773 74.692C229.269 74.9813 228.681 75.126 228.009 75.126ZM228.009 74.034C228.588 74.034 229.054 73.824 229.409 73.404C229.764 72.984 229.941 72.3773 229.941 71.584C229.941 70.7907 229.764 70.1887 229.409 69.778C229.054 69.358 228.588 69.148 228.009 69.148C227.421 69.148 226.95 69.358 226.595 69.778C226.24 70.1887 226.063 70.7907 226.063 71.584C226.063 72.3773 226.24 72.984 226.595 73.404C226.95 73.824 227.421 74.034 228.009 74.034ZM233.107 75V68.168H234.395V73.124L238.091 68.168H239.281V75H237.993V70.058L234.297 75H233.107ZM244.43 75.126C243.73 75.126 243.123 74.9813 242.61 74.692C242.106 74.3933 241.714 73.978 241.434 73.446C241.154 72.9047 241.014 72.27 241.014 71.542C241.014 70.4593 241.322 69.6053 241.938 68.98C242.554 68.3547 243.384 68.042 244.43 68.042C244.859 68.042 245.284 68.1167 245.704 68.266C246.124 68.4153 246.469 68.6207 246.74 68.882L246.292 69.876C246.03 69.6333 245.741 69.456 245.424 69.344C245.116 69.2227 244.822 69.162 244.542 69.162C243.879 69.162 243.366 69.372 243.002 69.792C242.647 70.2027 242.47 70.7907 242.47 71.556C242.47 72.3213 242.647 72.9233 243.002 73.362C243.366 73.7913 243.879 74.006 244.542 74.006C244.822 74.006 245.116 73.95 245.424 73.838C245.741 73.7167 246.03 73.5347 246.292 73.292L246.74 74.3C246.469 74.552 246.119 74.7527 245.69 74.902C245.27 75.0513 244.85 75.126 244.43 75.126ZM248.105 75V68.168H249.519V70.94H250.667L252.781 68.168H254.321L252.011 71.234C252.235 71.3367 252.44 71.4953 252.627 71.71C252.823 71.9153 253.024 72.2 253.229 72.564L254.643 75H253.131L251.941 72.956C251.726 72.592 251.516 72.3493 251.311 72.228C251.115 72.1067 250.84 72.046 250.485 72.046H249.519V75H248.105Z" fill="#812D9C"/>
<rect x="269" y="63.5" width="15" height="15" rx="7.5" stroke="#812D9C"/>
<path d="M279.5 70L277.03 72.7559C276.739 73.0814 276.261 73.0814 275.97 72.7559L273.5 70" stroke="#414143" stroke-miterlimit="10" stroke-linecap="round" stroke-linejoin="round"/>
<rect x="20.5" y="99.5" width="95" height="25" rx="12.5" stroke="#4A4A4A"/>
<path d="M31.468 116.108C30.876 116.108 30.364 115.984 29.932 115.736C29.5 115.488 29.164 115.14 28.924 114.692C28.692 114.236 28.576 113.696 28.576 113.072C28.576 112.448 28.692 111.912 28.924 111.464C29.164 111.008 29.5 110.656 29.932 110.408C30.364 110.16 30.876 110.036 31.468 110.036C32.044 110.036 32.548 110.16 32.98 110.408C33.412 110.656 33.748 111.008 33.988 111.464C34.228 111.912 34.348 112.448 34.348 113.072C34.348 113.696 34.228 114.236 33.988 114.692C33.748 115.14 33.412 115.488 32.98 115.736C32.548 115.984 32.044 116.108 31.468 116.108ZM31.468 115.172C31.964 115.172 32.364 114.992 32.668 114.632C32.972 114.272 33.124 113.752 33.124 113.072C33.124 112.392 32.972 111.876 32.668 111.524C32.364 111.164 31.964 110.984 31.468 110.984C30.964 110.984 30.56 111.164 30.256 111.524C29.952 111.876 29.8 112.392 29.8 113.072C29.8 113.752 29.952 114.272 30.256 114.632C30.56 114.992 30.964 115.172 31.468 115.172ZM37.0618 116V111.116H34.9978V110.144H40.3498V111.116H38.2738V116H37.0618Z" fill="#414143"/>
<path d="M47.368 116V114.284H43.564V113.36L47.584 107.54H48.604V113.24H49.84V114.284H48.604V116H47.368ZM47.368 113.24V109.484L44.8 113.24H47.368ZM53.7953 116.108C52.8113 116.108 52.0593 115.736 51.5393 114.992C51.0273 114.24 50.7713 113.164 50.7713 111.764C50.7713 110.34 51.0273 109.264 51.5393 108.536C52.0593 107.8 52.8113 107.432 53.7953 107.432C54.7873 107.432 55.5393 107.8 56.0513 108.536C56.5633 109.264 56.8193 110.336 56.8193 111.752C56.8193 113.16 56.5593 114.24 56.0393 114.992C55.5273 115.736 54.7793 116.108 53.7953 116.108ZM53.7953 115.076C54.4033 115.076 54.8553 114.808 55.1513 114.272C55.4473 113.736 55.5953 112.896 55.5953 111.752C55.5953 110.608 55.4473 109.776 55.1513 109.256C54.8633 108.728 54.4113 108.464 53.7953 108.464C53.1873 108.464 52.7353 108.728 52.4393 109.256C52.1433 109.784 51.9953 110.616 51.9953 111.752C51.9953 112.896 52.1433 113.736 52.4393 114.272C52.7353 114.808 53.1873 115.076 53.7953 115.076ZM61.1226 116.108C60.5786 116.108 60.0506 116.024 59.5386 115.856C59.0346 115.68 58.6146 115.436 58.2786 115.124L58.6986 114.164C59.4346 114.756 60.2346 115.052 61.0986 115.052C61.6506 115.052 62.0826 114.904 62.3946 114.608C62.7066 114.304 62.8626 113.908 62.8626 113.42C62.8626 112.916 62.7146 112.504 62.4186 112.184C62.1226 111.864 61.7106 111.704 61.1826 111.704C60.4386 111.704 59.8426 112.012 59.3946 112.628H58.5306V107.54H63.5706V108.584H59.7426V111.26C60.1906 110.868 60.7586 110.672 61.4466 110.672C61.9826 110.672 62.4466 110.784 62.8386 111.008C63.2306 111.232 63.5346 111.548 63.7506 111.956C63.9666 112.356 64.0746 112.824 64.0746 113.36C64.0746 113.904 63.9546 114.384 63.7146 114.8C63.4746 115.208 63.1346 115.528 62.6946 115.76C62.2546 115.992 61.7306 116.108 61.1226 116.108ZM68.1859 116.108C67.2019 116.108 66.4499 115.736 65.9299 114.992C65.4179 114.24 65.1619 113.164 65.1619 111.764C65.1619 110.34 65.4179 109.264 65.9299 108.536C66.4499 107.8 67.2019 107.432 68.1859 107.432C69.1779 107.432 69.9299 107.8 70.4419 108.536C70.9539 109.264 71.2099 110.336 71.2099 111.752C71.2099 113.16 70.9499 114.24 70.4299 114.992C69.9179 115.736 69.1699 116.108 68.1859 116.108ZM68.1859 115.076C68.7939 115.076 69.2459 114.808 69.5419 114.272C69.8379 113.736 69.9859 112.896 69.9859 111.752C69.9859 110.608 69.8379 109.776 69.5419 109.256C69.2539 108.728 68.8019 108.464 68.1859 108.464C67.5779 108.464 67.1259 108.728 66.8299 109.256C66.5339 109.784 66.3859 110.616 66.3859 111.752C66.3859 112.896 66.5339 113.736 66.8299 114.272C67.1259 114.808 67.5779 115.076 68.1859 115.076Z" fill="#939393"/>
<path d="M101.284 116V114.272H100.216V113.396H101.284V112.424H100.216V111.548H101.284V107.54H104.092C105.004 107.54 105.704 107.764 106.192 108.212C106.68 108.66 106.924 109.264 106.924 110.024C106.924 110.752 106.676 111.336 106.18 111.776C105.692 112.208 105.024 112.424 104.176 112.424H102.544V113.396H104.56V114.272H102.544V116H101.284ZM102.52 111.548H103.972C104.54 111.548 104.972 111.432 105.268 111.2C105.572 110.968 105.724 110.6 105.724 110.096C105.724 109.096 105.136 108.596 103.96 108.596H102.52V111.548Z" fill="#939393"/>
<rect x="124.5" y="99.5" width="95" height="25" rx="12.5" stroke="#4A4A4A"/>
<path d="M132.312 117.56V115.04H132.96C133.216 114.656 133.4 114.212 133.512 113.708C133.624 113.196 133.68 112.576 133.68 111.848V110.144H138.012V115.04H138.948V117.56H137.916V116H133.356V117.56H132.312ZM134.088 115.04H136.86V111.092H134.736V112.1C134.736 112.652 134.68 113.188 134.568 113.708C134.456 114.228 134.296 114.672 134.088 115.04ZM142.71 116.108C142.118 116.108 141.606 115.984 141.174 115.736C140.742 115.488 140.406 115.14 140.166 114.692C139.934 114.236 139.818 113.696 139.818 113.072C139.818 112.448 139.934 111.912 140.166 111.464C140.406 111.008 140.742 110.656 141.174 110.408C141.606 110.16 142.118 110.036 142.71 110.036C143.286 110.036 143.79 110.16 144.222 110.408C144.654 110.656 144.99 111.008 145.23 111.464C145.47 111.912 145.59 112.448 145.59 113.072C145.59 113.696 145.47 114.236 145.23 114.692C144.99 115.14 144.654 115.488 144.222 115.736C143.79 115.984 143.286 116.108 142.71 116.108ZM142.71 115.172C143.206 115.172 143.606 114.992 143.91 114.632C144.214 114.272 144.366 113.752 144.366 113.072C144.366 112.392 144.214 111.876 143.91 111.524C143.606 111.164 143.206 110.984 142.71 110.984C142.206 110.984 141.802 111.164 141.498 111.524C141.194 111.876 141.042 112.392 141.042 113.072C141.042 113.752 141.194 114.272 141.498 114.632C141.802 114.992 142.206 115.172 142.71 115.172Z" fill="#414143"/>
<path d="M151.988 116.108C151.548 116.108 151.108 116.02 150.668 115.844C150.236 115.668 149.868 115.428 149.564 115.124L149.996 114.176C150.292 114.464 150.612 114.684 150.956 114.836C151.3 114.98 151.648 115.052 152 115.052C152.752 115.052 153.324 114.784 153.716 114.248C154.116 113.704 154.316 112.896 154.316 111.824V111.332C154.156 111.82 153.876 112.204 153.476 112.484C153.084 112.764 152.624 112.904 152.096 112.904C151.608 112.904 151.172 112.788 150.788 112.556C150.404 112.324 150.104 112.008 149.888 111.608C149.672 111.2 149.564 110.736 149.564 110.216C149.564 109.672 149.68 109.192 149.912 108.776C150.144 108.352 150.464 108.024 150.872 107.792C151.288 107.552 151.764 107.432 152.3 107.432C153.324 107.432 154.112 107.796 154.664 108.524C155.224 109.252 155.504 110.272 155.504 111.584C155.504 113.032 155.192 114.148 154.568 114.932C153.952 115.716 153.092 116.108 151.988 116.108ZM152.384 111.884C152.872 111.884 153.268 111.728 153.572 111.416C153.876 111.096 154.028 110.68 154.028 110.168C154.028 109.656 153.876 109.24 153.572 108.92C153.268 108.592 152.872 108.428 152.384 108.428C151.896 108.428 151.5 108.592 151.196 108.92C150.892 109.24 150.74 109.656 150.74 110.168C150.74 110.68 150.892 111.096 151.196 111.416C151.5 111.728 151.896 111.884 152.384 111.884ZM159.183 116.108C158.743 116.108 158.303 116.02 157.863 115.844C157.431 115.668 157.063 115.428 156.759 115.124L157.191 114.176C157.487 114.464 157.807 114.684 158.151 114.836C158.495 114.98 158.843 115.052 159.195 115.052C159.947 115.052 160.519 114.784 160.911 114.248C161.311 113.704 161.511 112.896 161.511 111.824V111.332C161.351 111.82 161.071 112.204 160.671 112.484C160.279 112.764 159.819 112.904 159.291 112.904C158.803 112.904 158.367 112.788 157.983 112.556C157.599 112.324 157.299 112.008 157.083 111.608C156.867 111.2 156.759 110.736 156.759 110.216C156.759 109.672 156.875 109.192 157.107 108.776C157.339 108.352 157.659 108.024 158.067 107.792C158.483 107.552 158.959 107.432 159.495 107.432C160.519 107.432 161.307 107.796 161.859 108.524C162.419 109.252 162.699 110.272 162.699 111.584C162.699 113.032 162.387 114.148 161.763 114.932C161.147 115.716 160.287 116.108 159.183 116.108ZM159.579 111.884C160.067 111.884 160.463 111.728 160.767 111.416C161.071 111.096 161.223 110.68 161.223 110.168C161.223 109.656 161.071 109.24 160.767 108.92C160.463 108.592 160.067 108.428 159.579 108.428C159.091 108.428 158.695 108.592 158.391 108.92C158.087 109.24 157.935 109.656 157.935 110.168C157.935 110.68 158.087 111.096 158.391 111.416C158.695 111.728 159.091 111.884 159.579 111.884ZM166.991 116.108C166.007 116.108 165.255 115.736 164.735 114.992C164.223 114.24 163.967 113.164 163.967 111.764C163.967 110.34 164.223 109.264 164.735 108.536C165.255 107.8 166.007 107.432 166.991 107.432C167.983 107.432 168.735 107.8 169.247 108.536C169.759 109.264 170.015 110.336 170.015 111.752C170.015 113.16 169.755 114.24 169.235 114.992C168.723 115.736 167.975 116.108 166.991 116.108ZM166.991 115.076C167.599 115.076 168.051 114.808 168.347 114.272C168.643 113.736 168.791 112.896 168.791 111.752C168.791 110.608 168.643 109.776 168.347 109.256C168.059 108.728 167.607 108.464 166.991 108.464C166.383 108.464 165.931 108.728 165.635 109.256C165.339 109.784 165.191 110.616 165.191 111.752C165.191 112.896 165.339 113.736 165.635 114.272C165.931 114.808 166.383 115.076 166.991 115.076ZM176.726 116.108C176.286 116.108 175.846 116.02 175.406 115.844C174.974 115.668 174.606 115.428 174.302 115.124L174.734 114.176C175.03 114.464 175.35 114.684 175.694 114.836C176.038 114.98 176.386 115.052 176.738 115.052C177.49 115.052 178.062 114.784 178.454 114.248C178.854 113.704 179.054 112.896 179.054 111.824V111.332C178.894 111.82 178.614 112.204 178.214 112.484C177.822 112.764 177.362 112.904 176.834 112.904C176.346 112.904 175.91 112.788 175.526 112.556C175.142 112.324 174.842 112.008 174.626 111.608C174.41 111.2 174.302 110.736 174.302 110.216C174.302 109.672 174.418 109.192 174.65 108.776C174.882 108.352 175.202 108.024 175.61 107.792C176.026 107.552 176.502 107.432 177.038 107.432C178.062 107.432 178.85 107.796 179.402 108.524C179.962 109.252 180.242 110.272 180.242 111.584C180.242 113.032 179.93 114.148 179.306 114.932C178.69 115.716 177.83 116.108 176.726 116.108ZM177.122 111.884C177.61 111.884 178.006 111.728 178.31 111.416C178.614 111.096 178.766 110.68 178.766 110.168C178.766 109.656 178.614 109.24 178.31 108.92C178.006 108.592 177.61 108.428 177.122 108.428C176.634 108.428 176.238 108.592 175.934 108.92C175.63 109.24 175.478 109.656 175.478 110.168C175.478 110.68 175.63 111.096 175.934 111.416C176.238 111.728 176.634 111.884 177.122 111.884ZM183.922 116.108C183.482 116.108 183.042 116.02 182.602 115.844C182.17 115.668 181.802 115.428 181.498 115.124L181.93 114.176C182.226 114.464 182.546 114.684 182.89 114.836C183.234 114.98 183.582 115.052 183.934 115.052C184.686 115.052 185.258 114.784 185.65 114.248C186.05 113.704 186.25 112.896 186.25 111.824V111.332C186.09 111.82 185.81 112.204 185.41 112.484C185.018 112.764 184.558 112.904 184.03 112.904C183.542 112.904 183.106 112.788 182.722 112.556C182.338 112.324 182.038 112.008 181.822 111.608C181.606 111.2 181.498 110.736 181.498 110.216C181.498 109.672 181.614 109.192 181.846 108.776C182.078 108.352 182.398 108.024 182.806 107.792C183.222 107.552 183.698 107.432 184.234 107.432C185.258 107.432 186.046 107.796 186.598 108.524C187.158 109.252 187.438 110.272 187.438 111.584C187.438 113.032 187.126 114.148 186.502 114.932C185.886 115.716 185.026 116.108 183.922 116.108ZM184.318 111.884C184.806 111.884 185.202 111.728 185.506 111.416C185.81 111.096 185.962 110.68 185.962 110.168C185.962 109.656 185.81 109.24 185.506 108.92C185.202 108.592 184.806 108.428 184.318 108.428C183.83 108.428 183.434 108.592 183.13 108.92C182.826 109.24 182.674 109.656 182.674 110.168C182.674 110.68 182.826 111.096 183.13 111.416C183.434 111.728 183.83 111.884 184.318 111.884ZM191.729 116.108C190.745 116.108 189.993 115.736 189.473 114.992C188.961 114.24 188.705 113.164 188.705 111.764C188.705 110.34 188.961 109.264 189.473 108.536C189.993 107.8 190.745 107.432 191.729 107.432C192.721 107.432 193.473 107.8 193.985 108.536C194.497 109.264 194.753 110.336 194.753 111.752C194.753 113.16 194.493 114.24 193.973 114.992C193.461 115.736 192.713 116.108 191.729 116.108ZM191.729 115.076C192.337 115.076 192.789 114.808 193.085 114.272C193.381 113.736 193.529 112.896 193.529 111.752C193.529 110.608 193.381 109.776 193.085 109.256C192.797 108.728 192.345 108.464 191.729 108.464C191.121 108.464 190.669 108.728 190.373 109.256C190.077 109.784 189.929 110.616 189.929 111.752C189.929 112.896 190.077 113.736 190.373 114.272C190.669 114.808 191.121 115.076 191.729 115.076Z" fill="#939393"/>
<path d="M205.284 116V114.272H204.216V113.396H205.284V112.424H204.216V111.548H205.284V107.54H208.092C209.004 107.54 209.704 107.764 210.192 108.212C210.68 108.66 210.924 109.264 210.924 110.024C210.924 110.752 210.676 111.336 210.18 111.776C209.692 112.208 209.024 112.424 208.176 112.424H206.544V113.396H208.56V114.272H206.544V116H205.284ZM206.52 111.548H207.972C208.54 111.548 208.972 111.432 209.268 111.2C209.572 110.968 209.724 110.6 209.724 110.096C209.724 109.096 209.136 108.596 207.96 108.596H206.52V111.548Z" fill="#939393"/>
<rect x="269.5" y="99.5" width="95" height="25" rx="12.5" stroke="#4A4A4A"/>
<path d="M280.048 116V108.584H277.048V107.54H284.284V108.584H281.284V116H280.048ZM284.322 116V110.144H285.426V114.392L288.594 110.144H289.614V116H288.51V111.764L285.342 116H284.322ZM291.435 116V110.144H296.739V116H295.527V111.116H292.647V116H291.435Z" fill="#414143"/>
<path d="M354.279 109.967L349.932 114.313C349.419 114.827 348.579 114.827 348.065 114.313L343.719 109.967" stroke="#414143" stroke-width="1.5" stroke-miterlimit="10" stroke-linecap="round" stroke-linejoin="round"/>
<rect x="20.5" y="139.5" width="194" height="4" rx="2" fill="#D9D9D9" stroke="#414143"/>
<rect x="55.5" y="139.5" width="128" height="4" rx="2" fill="#812D9C" stroke="#414143"/>
<circle cx="5" cy="5" r="4.5" transform="matrix(1 0 0 -1 50 146)" fill="#ECA73E" stroke="#414143"/>
<circle cx="5" cy="5" r="4.5" transform="matrix(1 0 0 -1 174 146)" fill="#ECA73E" stroke="#414143"/>
<rect x="20.5" y="165.5" width="95" height="25" rx="12.5" stroke="#4A4A4A"/>
<path d="M28.984 182V173.54H32.488C33.4 173.54 34.104 173.768 34.6 174.224C35.096 174.672 35.344 175.304 35.344 176.12C35.344 176.944 35.096 177.584 34.6 178.04C34.104 178.488 33.4 178.712 32.488 178.712H30.232V182H28.984ZM30.232 177.716H32.308C33.524 177.716 34.132 177.184 34.132 176.12C34.132 175.064 33.524 174.536 32.308 174.536H30.232V177.716ZM38.968 182.108C38.376 182.108 37.864 181.984 37.432 181.736C37 181.488 36.664 181.14 36.424 180.692C36.192 180.236 36.076 179.696 36.076 179.072C36.076 178.448 36.192 177.912 36.424 177.464C36.664 177.008 37 176.656 37.432 176.408C37.864 176.16 38.376 176.036 38.968 176.036C39.544 176.036 40.048 176.16 40.48 176.408C40.912 176.656 41.248 177.008 41.488 177.464C41.728 177.912 41.848 178.448 41.848 179.072C41.848 179.696 41.728 180.236 41.488 180.692C41.248 181.14 40.912 181.488 40.48 181.736C40.048 181.984 39.544 182.108 38.968 182.108ZM38.968 181.172C39.464 181.172 39.864 180.992 40.168 180.632C40.472 180.272 40.624 179.752 40.624 179.072C40.624 178.392 40.472 177.876 40.168 177.524C39.864 177.164 39.464 176.984 38.968 176.984C38.464 176.984 38.06 177.164 37.756 177.524C37.452 177.876 37.3 178.392 37.3 179.072C37.3 179.752 37.452 180.272 37.756 180.632C38.06 180.992 38.464 181.172 38.968 181.172ZM45.9298 182.108C45.3298 182.108 44.8098 181.984 44.3698 181.736C43.9378 181.48 43.6018 181.124 43.3618 180.668C43.1218 180.204 43.0018 179.66 43.0018 179.036C43.0018 178.108 43.2658 177.376 43.7938 176.84C44.3218 176.304 45.0338 176.036 45.9298 176.036C46.2978 176.036 46.6618 176.1 47.0218 176.228C47.3818 176.356 47.6778 176.532 47.9098 176.756L47.5258 177.608C47.3018 177.4 47.0538 177.248 46.7818 177.152C46.5178 177.048 46.2658 176.996 46.0258 176.996C45.4578 176.996 45.0178 177.176 44.7058 177.536C44.4018 177.888 44.2498 178.392 44.2498 179.048C44.2498 179.704 44.4018 180.22 44.7058 180.596C45.0178 180.964 45.4578 181.148 46.0258 181.148C46.2658 181.148 46.5178 181.1 46.7818 181.004C47.0538 180.9 47.3018 180.744 47.5258 180.536L47.9098 181.4C47.6778 181.616 47.3778 181.788 47.0098 181.916C46.6498 182.044 46.2898 182.108 45.9298 182.108ZM50.304 182V177.116H48.24V176.144H53.592V177.116H51.516V182H50.304ZM54.1286 183.476L53.6006 183.068C53.7846 182.868 53.9206 182.684 54.0086 182.516C54.0966 182.348 54.1526 182.176 54.1766 182H53.5166V180.572H54.9446V181.544C54.9446 181.912 54.8846 182.248 54.7646 182.552C54.6446 182.864 54.4326 183.172 54.1286 183.476ZM62.3126 182.108C61.7126 182.108 61.1926 181.984 60.7526 181.736C60.3206 181.48 59.9846 181.124 59.7446 180.668C59.5046 180.204 59.3846 179.66 59.3846 179.036C59.3846 178.108 59.6486 177.376 60.1766 176.84C60.7046 176.304 61.4166 176.036 62.3126 176.036C62.6806 176.036 63.0446 176.1 63.4046 176.228C63.7646 176.356 64.0606 176.532 64.2926 176.756L63.9086 177.608C63.6846 177.4 63.4366 177.248 63.1646 177.152C62.9006 177.048 62.6486 176.996 62.4086 176.996C61.8406 176.996 61.4006 177.176 61.0886 177.536C60.7846 177.888 60.6326 178.392 60.6326 179.048C60.6326 179.704 60.7846 180.22 61.0886 180.596C61.4006 180.964 61.8406 181.148 62.4086 181.148C62.6486 181.148 62.9006 181.1 63.1646 181.004C63.4366 180.9 63.6846 180.744 63.9086 180.536L64.2926 181.4C64.0606 181.616 63.7606 181.788 63.3926 181.916C63.0326 182.044 62.6726 182.108 62.3126 182.108ZM65.4628 182V176.144H66.4588L68.5828 179.852L70.6948 176.144H71.6908V182H70.6228V178.028L68.8708 181.052H68.2828L66.5308 178.028V182H65.4628Z" fill="#939393"/>
<rect x="124.5" y="165.5" width="135" height="25" rx="12.5" stroke="#4A4A4A"/>
<path d="M132.18 183.932V180.992H133.02C133.42 180.488 133.716 179.808 133.908 178.952C134.1 178.088 134.196 177.016 134.196 175.736V173.54H139.98V180.992H141.18V183.932H140.076V182H133.296V183.932H132.18ZM134.292 180.992H138.744V174.548H135.36V175.832C135.36 177.064 135.272 178.096 135.096 178.928C134.92 179.752 134.652 180.44 134.292 180.992ZM142.369 182V176.144H143.473V180.392L146.641 176.144H147.661V182H146.557V177.764L143.389 182H142.369ZM151.366 182.108C150.958 182.108 150.594 182.028 150.274 181.868C149.954 181.708 149.698 181.492 149.506 181.22C149.322 180.948 149.23 180.64 149.23 180.296C149.23 179.864 149.338 179.524 149.554 179.276C149.778 179.028 150.142 178.848 150.646 178.736C151.158 178.624 151.846 178.568 152.71 178.568H153.118V178.256C153.118 177.8 153.022 177.472 152.83 177.272C152.638 177.072 152.322 176.972 151.882 176.972C151.546 176.972 151.21 177.024 150.874 177.128C150.538 177.224 150.194 177.38 149.842 177.596L149.47 176.744C149.774 176.528 150.154 176.356 150.61 176.228C151.066 176.1 151.502 176.036 151.918 176.036C152.718 176.036 153.31 176.228 153.694 176.612C154.078 176.988 154.27 177.58 154.27 178.388V182H153.13V181.028C152.986 181.364 152.762 181.628 152.458 181.82C152.154 182.012 151.79 182.108 151.366 182.108ZM151.606 181.244C152.038 181.244 152.398 181.092 152.686 180.788C152.974 180.484 153.118 180.1 153.118 179.636V179.312H152.722C152.138 179.312 151.678 179.34 151.342 179.396C151.014 179.452 150.778 179.548 150.634 179.684C150.498 179.812 150.43 179.992 150.43 180.224C150.43 180.528 150.534 180.776 150.742 180.968C150.95 181.152 151.238 181.244 151.606 181.244ZM156.068 182V176.144H157.064L159.188 179.852L161.3 176.144H162.296V182H161.228V178.028L159.476 181.052H158.888L157.136 178.028V182H156.068ZM166.879 182.108C165.919 182.108 165.163 181.84 164.611 181.304C164.059 180.76 163.783 180.02 163.783 179.084C163.783 178.484 163.903 177.956 164.143 177.5C164.391 177.036 164.731 176.676 165.163 176.42C165.595 176.164 166.091 176.036 166.651 176.036C167.459 176.036 168.095 176.296 168.559 176.816C169.023 177.328 169.255 178.036 169.255 178.94V179.348H164.959C165.047 180.564 165.691 181.172 166.891 181.172C167.227 181.172 167.555 181.12 167.875 181.016C168.203 180.912 168.511 180.74 168.799 180.5L169.159 181.34C168.895 181.58 168.555 181.768 168.139 181.904C167.723 182.04 167.303 182.108 166.879 182.108ZM166.699 176.888C166.195 176.888 165.795 177.044 165.499 177.356C165.203 177.668 165.023 178.084 164.959 178.604H168.235C168.211 178.06 168.067 177.64 167.803 177.344C167.539 177.04 167.171 176.888 166.699 176.888ZM171.917 182V177.116H169.853V176.144H175.205V177.116H173.129V182H171.917ZM176.19 184.16V176.144H177.378V177.14C177.546 176.804 177.802 176.536 178.146 176.336C178.49 176.136 178.886 176.036 179.334 176.036C179.854 176.036 180.306 176.16 180.69 176.408C181.082 176.656 181.382 177.008 181.59 177.464C181.806 177.912 181.914 178.448 181.914 179.072C181.914 179.696 181.806 180.236 181.59 180.692C181.382 181.148 181.082 181.5 180.69 181.748C180.306 181.988 179.854 182.108 179.334 182.108C178.902 182.108 178.514 182.016 178.17 181.832C177.834 181.64 177.578 181.38 177.402 181.052V184.16H176.19ZM179.034 181.172C179.538 181.172 179.938 180.992 180.234 180.632C180.538 180.272 180.69 179.752 180.69 179.072C180.69 178.392 180.538 177.876 180.234 177.524C179.938 177.164 179.538 176.984 179.034 176.984C178.53 176.984 178.126 177.164 177.822 177.524C177.526 177.876 177.378 178.392 177.378 179.072C177.378 179.752 177.526 180.272 177.822 180.632C178.126 180.992 178.53 181.172 179.034 181.172ZM186.549 182V176.144H187.761V178.52H188.745L190.557 176.144H191.877L189.897 178.772C190.089 178.86 190.265 178.996 190.425 179.18C190.593 179.356 190.765 179.6 190.941 179.912L192.153 182H190.857L189.837 180.248C189.653 179.936 189.473 179.728 189.297 179.624C189.129 179.52 188.893 179.468 188.589 179.468H187.761V182H186.549ZM195.597 182.108C195.005 182.108 194.493 181.984 194.061 181.736C193.629 181.488 193.293 181.14 193.053 180.692C192.821 180.236 192.705 179.696 192.705 179.072C192.705 178.448 192.821 177.912 193.053 177.464C193.293 177.008 193.629 176.656 194.061 176.408C194.493 176.16 195.005 176.036 195.597 176.036C196.173 176.036 196.677 176.16 197.109 176.408C197.541 176.656 197.877 177.008 198.117 177.464C198.357 177.912 198.477 178.448 198.477 179.072C198.477 179.696 198.357 180.236 198.117 180.692C197.877 181.14 197.541 181.488 197.109 181.736C196.677 181.984 196.173 182.108 195.597 182.108ZM195.597 181.172C196.093 181.172 196.493 180.992 196.797 180.632C197.101 180.272 197.253 179.752 197.253 179.072C197.253 178.392 197.101 177.876 196.797 177.524C196.493 177.164 196.093 176.984 195.597 176.984C195.093 176.984 194.689 177.164 194.385 177.524C194.081 177.876 193.929 178.392 193.929 179.072C193.929 179.752 194.081 180.272 194.385 180.632C194.689 180.992 195.093 181.172 195.597 181.172ZM199.598 182.156L199.19 181.196C199.542 181.052 199.818 180.856 200.018 180.608C200.218 180.352 200.362 180 200.45 179.552C200.538 179.096 200.582 178.508 200.582 177.788V176.144H205.046V182H203.834V177.116H201.71V177.824C201.71 178.704 201.638 179.436 201.494 180.02C201.35 180.604 201.122 181.068 200.81 181.412C200.506 181.748 200.102 181.996 199.598 182.156ZM209.629 182.108C208.669 182.108 207.913 181.84 207.361 181.304C206.809 180.76 206.533 180.02 206.533 179.084C206.533 178.484 206.653 177.956 206.893 177.5C207.141 177.036 207.481 176.676 207.913 176.42C208.345 176.164 208.841 176.036 209.401 176.036C210.209 176.036 210.845 176.296 211.309 176.816C211.773 177.328 212.005 178.036 212.005 178.94V179.348H207.709C207.797 180.564 208.441 181.172 209.641 181.172C209.977 181.172 210.305 181.12 210.625 181.016C210.953 180.912 211.261 180.74 211.549 180.5L211.909 181.34C211.645 181.58 211.305 181.768 210.889 181.904C210.473 182.04 210.053 182.108 209.629 182.108ZM209.449 176.888C208.945 176.888 208.545 177.044 208.249 177.356C207.953 177.668 207.773 178.084 207.709 178.604H210.985C210.961 178.06 210.817 177.64 210.553 177.344C210.289 177.04 209.921 176.888 209.449 176.888ZM209.893 174.752V173.564H211.093V174.752H209.893ZM207.733 174.752V173.564H208.933V174.752H207.733ZM216.035 182.108C215.435 182.108 214.915 181.984 214.475 181.736C214.043 181.48 213.707 181.124 213.467 180.668C213.227 180.204 213.107 179.66 213.107 179.036C213.107 178.108 213.371 177.376 213.899 176.84C214.427 176.304 215.139 176.036 216.035 176.036C216.403 176.036 216.767 176.1 217.127 176.228C217.487 176.356 217.783 176.532 218.015 176.756L217.631 177.608C217.407 177.4 217.159 177.248 216.887 177.152C216.623 177.048 216.371 176.996 216.131 176.996C215.563 176.996 215.123 177.176 214.811 177.536C214.507 177.888 214.355 178.392 214.355 179.048C214.355 179.704 214.507 180.22 214.811 180.596C215.123 180.964 215.563 181.148 216.131 181.148C216.371 181.148 216.623 181.1 216.887 181.004C217.159 180.9 217.407 180.744 217.631 180.536L218.015 181.4C217.783 181.616 217.483 181.788 217.115 181.916C216.755 182.044 216.395 182.108 216.035 182.108Z" fill="#414143"/>
<path d="M249.279 175.967L244.932 180.313C244.419 180.827 243.579 180.827 243.065 180.313L238.719 175.967" stroke="#414143" stroke-width="1.5" stroke-miterlimit="10" stroke-linecap="round" stroke-linejoin="round"/>
<rect x="269.5" y="165.5" width="95" height="25" rx="12.5" stroke="#4A4A4A"/>
<path d="M277.984 182V173.54H283.684V174.548H279.184V177.176H281.656C282.544 177.176 283.236 177.38 283.732 177.788C284.236 178.188 284.488 178.784 284.488 179.576C284.488 180.368 284.236 180.972 283.732 181.388C283.236 181.796 282.544 182 281.656 182H277.984ZM279.184 180.992H281.512C282.688 180.992 283.276 180.524 283.276 179.588C283.276 178.652 282.688 178.184 281.512 178.184H279.184V180.992ZM285.916 184.16V176.144H287.104V177.14C287.272 176.804 287.528 176.536 287.872 176.336C288.216 176.136 288.612 176.036 289.06 176.036C289.58 176.036 290.032 176.16 290.416 176.408C290.808 176.656 291.108 177.008 291.316 177.464C291.532 177.912 291.64 178.448 291.64 179.072C291.64 179.696 291.532 180.236 291.316 180.692C291.108 181.148 290.808 181.5 290.416 181.748C290.032 181.988 289.58 182.108 289.06 182.108C288.628 182.108 288.24 182.016 287.896 181.832C287.56 181.64 287.304 181.38 287.128 181.052V184.16H285.916ZM288.76 181.172C289.264 181.172 289.664 180.992 289.96 180.632C290.264 180.272 290.416 179.752 290.416 179.072C290.416 178.392 290.264 177.876 289.96 177.524C289.664 177.164 289.264 176.984 288.76 176.984C288.256 176.984 287.852 177.164 287.548 177.524C287.252 177.876 287.104 178.392 287.104 179.072C287.104 179.752 287.252 180.272 287.548 180.632C287.852 180.992 288.256 181.172 288.76 181.172ZM295.883 182.108C294.923 182.108 294.167 181.84 293.615 181.304C293.063 180.76 292.787 180.02 292.787 179.084C292.787 178.484 292.907 177.956 293.147 177.5C293.395 177.036 293.735 176.676 294.167 176.42C294.599 176.164 295.095 176.036 295.655 176.036C296.463 176.036 297.099 176.296 297.563 176.816C298.027 177.328 298.259 178.036 298.259 178.94V179.348H293.963C294.051 180.564 294.695 181.172 295.895 181.172C296.231 181.172 296.559 181.12 296.879 181.016C297.207 180.912 297.515 180.74 297.803 180.5L298.163 181.34C297.899 181.58 297.559 181.768 297.143 181.904C296.727 182.04 296.307 182.108 295.883 182.108ZM295.703 176.888C295.199 176.888 294.799 177.044 294.503 177.356C294.207 177.668 294.027 178.084 293.963 178.604H297.239C297.215 178.06 297.071 177.64 296.807 177.344C296.543 177.04 296.175 176.888 295.703 176.888ZM299.697 182V176.144H300.909V178.508H303.825V176.144H305.037V182H303.825V179.468H300.909V182H299.697ZM306.246 183.56V181.04H306.894C307.15 180.656 307.334 180.212 307.446 179.708C307.558 179.196 307.614 178.576 307.614 177.848V176.144H311.946V181.04H312.882V183.56H311.85V182H307.29V183.56H306.246ZM308.022 181.04H310.794V177.092H308.67V178.1C308.67 178.652 308.614 179.188 308.502 179.708C308.39 180.228 308.23 180.672 308.022 181.04Z" fill="#414143"/>
<path d="M354.279 175.967L349.932 180.313C349.419 180.827 348.579 180.827 348.065 180.313L343.719 175.967" stroke="#414143" stroke-width="1.5" stroke-miterlimit="10" stroke-linecap="round" stroke-linejoin="round"/>
<rect x="20.5" y="201.5" width="14" height="14" stroke="#414143"/>
<path d="M44.048 212.5V205.084H41.048V204.04H48.284V205.084H45.284V212.5H44.048ZM50.8782 212.608C50.2862 212.608 49.7742 212.484 49.3422 212.236C48.9102 211.988 48.5742 211.64 48.3342 211.192C48.1022 210.736 47.9862 210.196 47.9862 209.572C47.9862 208.948 48.1022 208.412 48.3342 207.964C48.5742 207.508 48.9102 207.156 49.3422 206.908C49.7742 206.66 50.2862 206.536 50.8782 206.536C51.4542 206.536 51.9582 206.66 52.3902 206.908C52.8222 207.156 53.1582 207.508 53.3982 207.964C53.6382 208.412 53.7582 208.948 53.7582 209.572C53.7582 210.196 53.6382 210.736 53.3982 211.192C53.1582 211.64 52.8222 211.988 52.3902 212.236C51.9582 212.484 51.4542 212.608 50.8782 212.608ZM50.8782 211.672C51.3742 211.672 51.7742 211.492 52.0782 211.132C52.3822 210.772 52.5342 210.252 52.5342 209.572C52.5342 208.892 52.3822 208.376 52.0782 208.024C51.7742 207.664 51.3742 207.484 50.8782 207.484C50.3742 207.484 49.9702 207.664 49.6662 208.024C49.3622 208.376 49.2102 208.892 49.2102 209.572C49.2102 210.252 49.3622 210.772 49.6662 211.132C49.9702 211.492 50.3742 211.672 50.8782 211.672ZM54.8788 212.656L54.4708 211.696C54.8228 211.552 55.0988 211.356 55.2988 211.108C55.4988 210.852 55.6428 210.5 55.7308 210.052C55.8188 209.596 55.8628 209.008 55.8628 208.288V206.644H60.3268V212.5H59.1148V207.616H56.9908V208.324C56.9908 209.204 56.9188 209.936 56.7748 210.52C56.6308 211.104 56.4028 211.568 56.0908 211.912C55.7868 212.248 55.3828 212.496 54.8788 212.656ZM62.1503 212.5V206.644H63.3623V208.672H65.0303C65.7823 208.672 66.3543 208.836 66.7463 209.164C67.1383 209.484 67.3343 209.952 67.3343 210.568C67.3343 211.16 67.1303 211.632 66.7223 211.984C66.3143 212.328 65.7503 212.5 65.0303 212.5H62.1503ZM63.3623 211.672H64.8743C65.2903 211.672 65.6143 211.584 65.8463 211.408C66.0783 211.224 66.1943 210.944 66.1943 210.568C66.1943 210.2 66.0783 209.932 65.8463 209.764C65.6143 209.588 65.2903 209.5 64.8743 209.5H63.3623V211.672ZM68.6776 212.5V206.644H69.8896V209.02H70.8736L72.6856 206.644H74.0056L72.0256 209.272C72.2176 209.36 72.3936 209.496 72.5536 209.68C72.7216 209.856 72.8936 210.1 73.0696 210.412L74.2816 212.5H72.9856L71.9656 210.748C71.7816 210.436 71.6016 210.228 71.4256 210.124C71.2576 210.02 71.0216 209.968 70.7176 209.968H69.8896V212.5H68.6776ZM77.7258 212.608C77.1338 212.608 76.6218 212.484 76.1898 212.236C75.7578 211.988 75.4218 211.64 75.1818 211.192C74.9498 210.736 74.8338 210.196 74.8338 209.572C74.8338 208.948 74.9498 208.412 75.1818 207.964C75.4218 207.508 75.7578 207.156 76.1898 206.908C76.6218 206.66 77.1338 206.536 77.7258 206.536C78.3018 206.536 78.8058 206.66 79.2378 206.908C79.6698 207.156 80.0058 207.508 80.2458 207.964C80.4858 208.412 80.6058 208.948 80.6058 209.572C80.6058 210.196 80.4858 210.736 80.2458 211.192C80.0058 211.64 79.6698 211.988 79.2378 212.236C78.8058 212.484 78.3018 212.608 77.7258 212.608ZM77.7258 211.672C78.2218 211.672 78.6218 211.492 78.9258 211.132C79.2298 210.772 79.3818 210.252 79.3818 209.572C79.3818 208.892 79.2298 208.376 78.9258 208.024C78.6218 207.664 78.2218 207.484 77.7258 207.484C77.2218 207.484 76.8178 207.664 76.5138 208.024C76.2098 208.376 76.0578 208.892 76.0578 209.572C76.0578 210.252 76.2098 210.772 76.5138 211.132C76.8178 211.492 77.2218 211.672 77.7258 211.672ZM85.2479 212.5V206.644H88.2359C88.9559 206.644 89.4799 206.78 89.8079 207.052C90.1439 207.316 90.3119 207.692 90.3119 208.18C90.3119 208.484 90.2239 208.752 90.0479 208.984C89.8799 209.208 89.6479 209.372 89.3519 209.476C89.7199 209.564 90.0039 209.732 90.2039 209.98C90.4039 210.228 90.5039 210.524 90.5039 210.868C90.5039 211.372 90.3159 211.772 89.9399 212.068C89.5639 212.356 89.0279 212.5 88.3319 212.5H85.2479ZM86.3879 209.128H88.1519C88.4799 209.128 88.7319 209.052 88.9079 208.9C89.0919 208.748 89.1839 208.54 89.1839 208.276C89.1839 208.004 89.0919 207.796 88.9079 207.652C88.7319 207.508 88.4799 207.436 88.1519 207.436H86.3879V209.128ZM86.3879 211.72H88.2599C89.0119 211.72 89.3879 211.416 89.3879 210.808C89.3879 210.208 89.0119 209.908 88.2599 209.908H86.3879V211.72ZM95.0683 212.5V206.644H96.2803V209.008H99.1963V206.644H100.408V212.5H99.1963V209.968H96.2803V212.5H95.0683ZM104.101 212.608C103.693 212.608 103.329 212.528 103.009 212.368C102.689 212.208 102.433 211.992 102.241 211.72C102.057 211.448 101.965 211.14 101.965 210.796C101.965 210.364 102.073 210.024 102.289 209.776C102.513 209.528 102.877 209.348 103.381 209.236C103.893 209.124 104.581 209.068 105.445 209.068H105.853V208.756C105.853 208.3 105.757 207.972 105.565 207.772C105.373 207.572 105.057 207.472 104.617 207.472C104.281 207.472 103.945 207.524 103.609 207.628C103.273 207.724 102.929 207.88 102.577 208.096L102.205 207.244C102.509 207.028 102.889 206.856 103.345 206.728C103.801 206.6 104.237 206.536 104.653 206.536C105.453 206.536 106.045 206.728 106.429 207.112C106.813 207.488 107.005 208.08 107.005 208.888V212.5H105.865V211.528C105.721 211.864 105.497 212.128 105.193 212.32C104.889 212.512 104.525 212.608 104.101 212.608ZM104.341 211.744C104.773 211.744 105.133 211.592 105.421 211.288C105.709 210.984 105.853 210.6 105.853 210.136V209.812H105.457C104.873 209.812 104.413 209.84 104.077 209.896C103.749 209.952 103.513 210.048 103.369 210.184C103.233 210.312 103.165 210.492 103.165 210.724C103.165 211.028 103.269 211.276 103.477 211.468C103.685 211.652 103.973 211.744 104.341 211.744ZM108.551 212.656L108.143 211.696C108.495 211.552 108.771 211.356 108.971 211.108C109.171 210.852 109.315 210.5 109.403 210.052C109.491 209.596 109.535 209.008 109.535 208.288V206.644H113.999V212.5H112.787V207.616H110.663V208.324C110.663 209.204 110.591 209.936 110.447 210.52C110.303 211.104 110.075 211.568 109.763 211.912C109.459 212.248 109.055 212.496 108.551 212.656ZM115.822 212.5V206.644H116.926V210.892L120.094 206.644H121.114V212.5H120.01V208.264L116.842 212.5H115.822ZM126.655 212.5V210.244C126.223 210.492 125.735 210.616 125.191 210.616C124.343 210.616 123.715 210.412 123.307 210.004C122.899 209.596 122.695 208.976 122.695 208.144V206.644H123.907V208.048C123.907 208.6 124.019 209 124.243 209.248C124.475 209.496 124.855 209.62 125.383 209.62C125.639 209.62 125.867 209.592 126.067 209.536C126.267 209.48 126.459 209.384 126.643 209.248V206.644H127.855V212.5H126.655ZM129.674 212.5V206.644H130.778V210.892L133.946 206.644H134.966V212.5H133.862V208.264L130.694 212.5H129.674ZM136.787 212.5V206.644H137.891V210.892L141.059 206.644H142.079V212.5H140.975V208.264L137.807 212.5H136.787Z" fill="#414143"/>
<rect x="173.5" y="201.5" width="14" height="14" stroke="#414143"/>
<path d="M198.776 212.608C197.92 212.608 197.188 212.432 196.58 212.08C195.972 211.728 195.504 211.228 195.176 210.58C194.856 209.924 194.696 209.152 194.696 208.264C194.696 207.376 194.856 206.608 195.176 205.96C195.504 205.312 195.972 204.812 196.58 204.46C197.188 204.108 197.92 203.932 198.776 203.932C199.352 203.932 199.888 204.024 200.384 204.208C200.888 204.384 201.308 204.64 201.644 204.976L201.212 205.972C200.844 205.644 200.464 205.408 200.072 205.264C199.688 205.112 199.268 205.036 198.812 205.036C197.9 205.036 197.204 205.316 196.724 205.876C196.244 206.436 196.004 207.232 196.004 208.264C196.004 209.296 196.244 210.096 196.724 210.664C197.204 211.224 197.9 211.504 198.812 211.504C199.268 211.504 199.688 211.432 200.072 211.288C200.464 211.136 200.844 210.896 201.212 210.568L201.644 211.564C201.308 211.892 200.888 212.148 200.384 212.332C199.888 212.516 199.352 212.608 198.776 212.608ZM205.46 212.608C204.868 212.608 204.356 212.484 203.924 212.236C203.492 211.988 203.156 211.64 202.916 211.192C202.684 210.736 202.568 210.196 202.568 209.572C202.568 208.948 202.684 208.412 202.916 207.964C203.156 207.508 203.492 207.156 203.924 206.908C204.356 206.66 204.868 206.536 205.46 206.536C206.036 206.536 206.54 206.66 206.972 206.908C207.404 207.156 207.74 207.508 207.98 207.964C208.22 208.412 208.34 208.948 208.34 209.572C208.34 210.196 208.22 210.736 207.98 211.192C207.74 211.64 207.404 211.988 206.972 212.236C206.54 212.484 206.036 212.608 205.46 212.608ZM205.46 211.672C205.956 211.672 206.356 211.492 206.66 211.132C206.964 210.772 207.116 210.252 207.116 209.572C207.116 208.892 206.964 208.376 206.66 208.024C206.356 207.664 205.956 207.484 205.46 207.484C204.956 207.484 204.552 207.664 204.248 208.024C203.944 208.376 203.792 208.892 203.792 209.572C203.792 210.252 203.944 210.772 204.248 211.132C204.552 211.492 204.956 211.672 205.46 211.672ZM215.574 212.608C214.974 212.608 214.454 212.484 214.014 212.236C213.582 211.98 213.246 211.624 213.006 211.168C212.766 210.704 212.646 210.16 212.646 209.536C212.646 208.608 212.91 207.876 213.438 207.34C213.966 206.804 214.678 206.536 215.574 206.536C215.942 206.536 216.306 206.6 216.666 206.728C217.026 206.856 217.322 207.032 217.554 207.256L217.17 208.108C216.946 207.9 216.698 207.748 216.426 207.652C216.162 207.548 215.91 207.496 215.67 207.496C215.102 207.496 214.662 207.676 214.35 208.036C214.046 208.388 213.894 208.892 213.894 209.548C213.894 210.204 214.046 210.72 214.35 211.096C214.662 211.464 215.102 211.648 215.67 211.648C215.91 211.648 216.162 211.6 216.426 211.504C216.698 211.4 216.946 211.244 217.17 211.036L217.554 211.9C217.322 212.116 217.022 212.288 216.654 212.416C216.294 212.544 215.934 212.608 215.574 212.608ZM218.725 212.5V206.644H219.937V209.02H220.921L222.733 206.644H224.053L222.073 209.272C222.265 209.36 222.441 209.496 222.601 209.68C222.769 209.856 222.941 210.1 223.117 210.412L224.329 212.5H223.033L222.013 210.748C221.829 210.436 221.649 210.228 221.473 210.124C221.305 210.02 221.069 209.968 220.765 209.968H219.937V212.5H218.725ZM225.217 212.5V206.644H226.321V210.892L229.489 206.644H230.509V212.5H229.405V208.264L226.237 212.5H225.217ZM231.73 214.06V211.54H232.378C232.634 211.156 232.818 210.712 232.93 210.208C233.042 209.696 233.098 209.076 233.098 208.348V206.644H237.43V211.54H238.366V214.06H237.334V212.5H232.774V214.06H231.73ZM233.506 211.54H236.278V207.592H234.154V208.6C234.154 209.152 234.098 209.688 233.986 210.208C233.874 210.728 233.714 211.172 233.506 211.54ZM239.572 212.5V206.644H240.784V209.02H241.768L243.58 206.644H244.9L242.92 209.272C243.112 209.36 243.288 209.496 243.448 209.68C243.616 209.856 243.788 210.1 243.964 210.412L245.176 212.5H243.88L242.86 210.748C242.676 210.436 242.496 210.228 242.32 210.124C242.152 210.02 241.916 209.968 241.612 209.968H240.784V212.5H239.572ZM248.62 212.608C248.028 212.608 247.516 212.484 247.084 212.236C246.652 211.988 246.316 211.64 246.076 211.192C245.844 210.736 245.728 210.196 245.728 209.572C245.728 208.948 245.844 208.412 246.076 207.964C246.316 207.508 246.652 207.156 247.084 206.908C247.516 206.66 248.028 206.536 248.62 206.536C249.196 206.536 249.7 206.66 250.132 206.908C250.564 207.156 250.9 207.508 251.14 207.964C251.38 208.412 251.5 208.948 251.5 209.572C251.5 210.196 251.38 210.736 251.14 211.192C250.9 211.64 250.564 211.988 250.132 212.236C249.7 212.484 249.196 212.608 248.62 212.608ZM248.62 211.672C249.116 211.672 249.516 211.492 249.82 211.132C250.124 210.772 250.276 210.252 250.276 209.572C250.276 208.892 250.124 208.376 249.82 208.024C249.516 207.664 249.116 207.484 248.62 207.484C248.116 207.484 247.712 207.664 247.408 208.024C247.104 208.376 246.952 208.892 246.952 209.572C246.952 210.252 247.104 210.772 247.408 211.132C247.712 211.492 248.116 211.672 248.62 211.672ZM252.99 212.5V206.644H254.094V210.892L257.262 206.644H258.282V212.5H257.178V208.264L254.01 212.5H252.99ZM255.63 205.9C255.11 205.9 254.662 205.764 254.286 205.492C253.918 205.212 253.662 204.808 253.518 204.28L254.178 204.052C254.322 204.444 254.51 204.732 254.742 204.916C254.982 205.1 255.282 205.192 255.642 205.192C256.01 205.192 256.306 205.104 256.53 204.928C256.762 204.752 256.966 204.464 257.142 204.064L257.778 204.28C257.586 204.848 257.302 205.26 256.926 205.516C256.55 205.772 256.118 205.9 255.63 205.9Z" fill="#414143"/>
<rect x="290.5" y="201.5" width="14" height="14" stroke="#414143"/>
<path d="M311.984 212.5V204.04H315.512C316.392 204.04 317.072 204.236 317.552 204.628C318.04 205.012 318.284 205.552 318.284 206.248C318.284 206.704 318.164 207.096 317.924 207.424C317.684 207.752 317.356 207.992 316.94 208.144C317.428 208.272 317.808 208.508 318.08 208.852C318.352 209.196 318.488 209.632 318.488 210.16C318.488 210.912 318.236 211.492 317.732 211.9C317.236 212.3 316.544 212.5 315.656 212.5H311.984ZM313.184 207.736H315.32C316.488 207.736 317.072 207.28 317.072 206.368C317.072 205.456 316.488 205 315.32 205H313.184V207.736ZM313.184 211.54H315.512C316.688 211.54 317.276 211.064 317.276 210.112C317.276 209.168 316.688 208.696 315.512 208.696H313.184V211.54ZM320.092 212.5V206.644H321.196V210.892L324.364 206.644H325.384V212.5H324.28V208.264L321.112 212.5H320.092ZM326.605 214.06V211.54H327.253C327.509 211.156 327.693 210.712 327.805 210.208C327.917 209.696 327.973 209.076 327.973 208.348V206.644H332.305V211.54H333.241V214.06H332.209V212.5H327.649V214.06H326.605ZM328.381 211.54H331.153V207.592H329.029V208.6C329.029 209.152 328.973 209.688 328.861 210.208C328.749 210.728 328.589 211.172 328.381 211.54ZM337.207 212.608C336.247 212.608 335.491 212.34 334.939 211.804C334.387 211.26 334.111 210.52 334.111 209.584C334.111 208.984 334.231 208.456 334.471 208C334.719 207.536 335.059 207.176 335.491 206.92C335.923 206.664 336.419 206.536 336.979 206.536C337.787 206.536 338.423 206.796 338.887 207.316C339.351 207.828 339.583 208.536 339.583 209.44V209.848H335.287C335.375 211.064 336.019 211.672 337.219 211.672C337.555 211.672 337.883 211.62 338.203 211.516C338.531 211.412 338.839 211.24 339.127 211L339.487 211.84C339.223 212.08 338.883 212.268 338.467 212.404C338.051 212.54 337.631 212.608 337.207 212.608ZM337.027 207.388C336.523 207.388 336.123 207.544 335.827 207.856C335.531 208.168 335.351 208.584 335.287 209.104H338.563C338.539 208.56 338.395 208.14 338.131 207.844C337.867 207.54 337.499 207.388 337.027 207.388ZM343.577 212.608C342.985 212.608 342.473 212.484 342.041 212.236C341.609 211.988 341.273 211.64 341.033 211.192C340.801 210.736 340.685 210.196 340.685 209.572C340.685 208.948 340.801 208.412 341.033 207.964C341.273 207.508 341.609 207.156 342.041 206.908C342.473 206.66 342.985 206.536 343.577 206.536C344.153 206.536 344.657 206.66 345.089 206.908C345.521 207.156 345.857 207.508 346.097 207.964C346.337 208.412 346.457 208.948 346.457 209.572C346.457 210.196 346.337 210.736 346.097 211.192C345.857 211.64 345.521 211.988 345.089 212.236C344.657 212.484 344.153 212.608 343.577 212.608ZM343.577 211.672C344.073 211.672 344.473 211.492 344.777 211.132C345.081 210.772 345.233 210.252 345.233 209.572C345.233 208.892 345.081 208.376 344.777 208.024C344.473 207.664 344.073 207.484 343.577 207.484C343.073 207.484 342.669 207.664 342.365 208.024C342.061 208.376 341.909 208.892 341.909 209.572C341.909 210.252 342.061 210.772 342.365 211.132C342.669 211.492 343.073 211.672 343.577 211.672ZM350.503 212.608C349.911 212.608 349.399 212.484 348.967 212.236C348.535 211.988 348.199 211.64 347.959 211.192C347.727 210.736 347.611 210.196 347.611 209.572C347.611 208.948 347.727 208.412 347.959 207.964C348.199 207.508 348.535 207.156 348.967 206.908C349.399 206.66 349.911 206.536 350.503 206.536C351.079 206.536 351.583 206.66 352.015 206.908C352.447 207.156 352.783 207.508 353.023 207.964C353.263 208.412 353.383 208.948 353.383 209.572C353.383 210.196 353.263 210.736 353.023 211.192C352.783 211.64 352.447 211.988 352.015 212.236C351.583 212.484 351.079 212.608 350.503 212.608ZM350.503 211.672C350.999 211.672 351.399 211.492 351.703 211.132C352.007 210.772 352.159 210.252 352.159 209.572C352.159 208.892 352.007 208.376 351.703 208.024C351.399 207.664 350.999 207.484 350.503 207.484C349.999 207.484 349.595 207.664 349.291 208.024C348.987 208.376 348.835 208.892 348.835 209.572C348.835 210.252 348.987 210.772 349.291 211.132C349.595 211.492 349.999 211.672 350.503 211.672ZM357.465 212.608C356.561 212.608 355.845 212.324 355.317 211.756C354.797 211.188 354.537 210.352 354.537 209.248V208.36C354.537 207.192 354.785 206.304 355.281 205.696C355.777 205.08 356.517 204.644 357.501 204.388L359.565 203.848L359.949 204.82L357.585 205.42C356.961 205.58 356.489 205.872 356.169 206.296C355.849 206.72 355.689 207.244 355.689 207.868V207.916C355.873 207.532 356.141 207.228 356.493 207.004C356.853 206.78 357.281 206.668 357.777 206.668C358.273 206.668 358.709 206.788 359.085 207.028C359.469 207.26 359.769 207.596 359.985 208.036C360.201 208.476 360.309 208.996 360.309 209.596C360.309 210.212 360.189 210.748 359.949 211.204C359.717 211.652 359.385 212 358.953 212.248C358.529 212.488 358.033 212.608 357.465 212.608ZM357.417 211.672C357.945 211.672 358.353 211.5 358.641 211.156C358.937 210.804 359.085 210.3 359.085 209.644C359.085 208.996 358.937 208.496 358.641 208.144C358.345 207.784 357.937 207.604 357.417 207.604C356.905 207.604 356.501 207.78 356.205 208.132C355.909 208.476 355.761 208.952 355.761 209.56C355.761 210.256 355.905 210.784 356.193 211.144C356.489 211.496 356.897 211.672 357.417 211.672ZM363.839 212.608C363.327 212.608 362.843 212.548 362.387 212.428C361.931 212.3 361.559 212.116 361.271 211.876L361.619 211.06C361.899 211.276 362.231 211.44 362.615 211.552C363.007 211.656 363.407 211.708 363.815 211.708C364.351 211.708 364.739 211.636 364.979 211.492C365.219 211.348 365.339 211.128 365.339 210.832C365.339 210.264 364.971 209.98 364.235 209.98H362.771V209.092H364.103C364.423 209.092 364.675 209.024 364.859 208.888C365.043 208.744 365.135 208.544 365.135 208.288C365.135 208.024 365.027 207.816 364.811 207.664C364.603 207.512 364.255 207.436 363.767 207.436C363.367 207.436 362.999 207.488 362.663 207.592C362.327 207.688 362.007 207.836 361.703 208.036L361.355 207.232C362.027 206.768 362.891 206.536 363.947 206.536C364.707 206.536 365.279 206.684 365.663 206.98C366.055 207.268 366.251 207.668 366.251 208.18C366.251 208.484 366.167 208.752 365.999 208.984C365.831 209.208 365.599 209.372 365.303 209.476C365.663 209.556 365.947 209.72 366.155 209.968C366.363 210.208 366.467 210.508 366.467 210.868C366.467 211.404 366.243 211.828 365.795 212.14C365.347 212.452 364.695 212.608 363.839 212.608ZM370.437 212.608C369.845 212.608 369.333 212.484 368.901 212.236C368.469 211.988 368.133 211.64 367.893 211.192C367.661 210.736 367.545 210.196 367.545 209.572C367.545 208.948 367.661 208.412 367.893 207.964C368.133 207.508 368.469 207.156 368.901 206.908C369.333 206.66 369.845 206.536 370.437 206.536C371.013 206.536 371.517 206.66 371.949 206.908C372.381 207.156 372.717 207.508 372.957 207.964C373.197 208.412 373.317 208.948 373.317 209.572C373.317 210.196 373.197 210.736 372.957 211.192C372.717 211.64 372.381 211.988 371.949 212.236C371.517 212.484 371.013 212.608 370.437 212.608ZM370.437 211.672C370.933 211.672 371.333 211.492 371.637 211.132C371.941 210.772 372.093 210.252 372.093 209.572C372.093 208.892 371.941 208.376 371.637 208.024C371.333 207.664 370.933 207.484 370.437 207.484C369.933 207.484 369.529 207.664 369.225 208.024C368.921 208.376 368.769 208.892 368.769 209.572C368.769 210.252 368.921 210.772 369.225 211.132C369.529 211.492 369.933 211.672 370.437 211.672ZM374.819 214.66V206.644H376.007V207.64C376.175 207.304 376.431 207.036 376.775 206.836C377.119 206.636 377.515 206.536 377.963 206.536C378.483 206.536 378.935 206.66 379.319 206.908C379.711 207.156 380.011 207.508 380.219 207.964C380.435 208.412 380.543 208.948 380.543 209.572C380.543 210.196 380.435 210.736 380.219 211.192C380.011 211.648 379.711 212 379.319 212.248C378.935 212.488 378.483 212.608 377.963 212.608C377.531 212.608 377.143 212.516 376.799 212.332C376.463 212.14 376.207 211.88 376.031 211.552V214.66H374.819ZM377.663 211.672C378.167 211.672 378.567 211.492 378.863 211.132C379.167 210.772 379.319 210.252 379.319 209.572C379.319 208.892 379.167 208.376 378.863 208.024C378.567 207.664 378.167 207.484 377.663 207.484C377.159 207.484 376.755 207.664 376.451 208.024C376.155 208.376 376.007 208.892 376.007 209.572C376.007 210.252 376.155 210.772 376.451 211.132C376.755 211.492 377.159 211.672 377.663 211.672Z" fill="#414143"/>
<rect x="114" y="236" width="174" height="46" rx="23" fill="#812D9C"/>
<path d="M147.848 266.5V249.58H162.56V266.5H159.488V252.148H150.92V266.5H147.848ZM171.478 266.74C170.262 266.74 169.206 266.492 168.31 265.996C167.414 265.5 166.718 264.796 166.222 263.884C165.726 262.956 165.478 261.868 165.478 260.62C165.478 259.372 165.726 258.292 166.222 257.38C166.718 256.468 167.414 255.764 168.31 255.268C169.206 254.772 170.262 254.524 171.478 254.524C172.694 254.524 173.75 254.772 174.646 255.268C175.542 255.764 176.238 256.468 176.734 257.38C177.23 258.292 177.478 259.372 177.478 260.62C177.478 261.868 177.23 262.956 176.734 263.884C176.238 264.796 175.542 265.5 174.646 265.996C173.75 266.492 172.694 266.74 171.478 266.74ZM171.478 264.46C172.374 264.46 173.094 264.14 173.638 263.5C174.182 262.844 174.454 261.884 174.454 260.62C174.454 259.34 174.182 258.388 173.638 257.764C173.094 257.124 172.374 256.804 171.478 256.804C170.582 256.804 169.862 257.124 169.318 257.764C168.774 258.388 168.502 259.34 168.502 260.62C168.502 261.884 168.774 262.844 169.318 263.5C169.862 264.14 170.582 264.46 171.478 264.46ZM180.259 266.5V254.764H183.259V259.324H184.963L188.371 254.764H191.587L187.747 260.02C188.115 260.212 188.443 260.484 188.731 260.836C189.035 261.172 189.339 261.604 189.643 262.132L192.115 266.5H188.899L186.931 263.044C186.627 262.484 186.315 262.116 185.995 261.94C185.691 261.748 185.275 261.652 184.747 261.652H183.259V266.5H180.259ZM197.553 266.74C196.705 266.74 195.945 266.58 195.273 266.26C194.617 265.924 194.097 265.476 193.713 264.916C193.345 264.356 193.161 263.724 193.161 263.02C193.161 262.156 193.385 261.476 193.833 260.98C194.281 260.468 195.009 260.1 196.017 259.876C197.025 259.652 198.377 259.54 200.073 259.54H200.913V259.036C200.913 258.236 200.737 257.66 200.385 257.308C200.033 256.956 199.441 256.78 198.609 256.78C197.953 256.78 197.281 256.884 196.593 257.092C195.905 257.284 195.209 257.588 194.505 258.004L193.641 255.964C194.057 255.676 194.545 255.428 195.105 255.22C195.681 254.996 196.281 254.828 196.905 254.716C197.545 254.588 198.145 254.524 198.705 254.524C200.417 254.524 201.689 254.924 202.521 255.724C203.353 256.508 203.769 257.732 203.769 259.396V266.5H200.961V264.628C200.689 265.284 200.257 265.804 199.665 266.188C199.073 266.556 198.369 266.74 197.553 266.74ZM198.177 264.676C198.961 264.676 199.609 264.404 200.121 263.86C200.649 263.316 200.913 262.628 200.913 261.796V261.268H200.097C198.593 261.268 197.545 261.388 196.953 261.628C196.377 261.852 196.089 262.268 196.089 262.876C196.089 263.404 196.273 263.836 196.641 264.172C197.009 264.508 197.521 264.676 198.177 264.676ZM211.462 266.74C210.406 266.74 209.406 266.62 208.462 266.38C207.534 266.124 206.758 265.772 206.134 265.324L206.926 263.356C207.486 263.756 208.166 264.06 208.966 264.268C209.766 264.476 210.574 264.58 211.39 264.58C212.382 264.58 213.102 264.46 213.55 264.22C213.998 263.98 214.222 263.604 214.222 263.092C214.222 262.132 213.574 261.652 212.278 261.652H209.158V259.492H211.99C212.566 259.492 213.006 259.372 213.31 259.132C213.63 258.892 213.79 258.556 213.79 258.124C213.79 257.66 213.59 257.308 213.19 257.068C212.806 256.812 212.142 256.684 211.198 256.684C210.398 256.684 209.662 256.78 208.99 256.972C208.318 257.164 207.686 257.436 207.094 257.788L206.302 255.868C207.678 254.972 209.478 254.524 211.702 254.524C213.27 254.524 214.462 254.82 215.278 255.412C216.11 255.988 216.526 256.796 216.526 257.836C216.526 258.428 216.358 258.956 216.022 259.42C215.686 259.868 215.23 260.196 214.654 260.404C215.39 260.58 215.958 260.908 216.358 261.388C216.758 261.868 216.958 262.476 216.958 263.212C216.958 264.284 216.486 265.14 215.542 265.78C214.598 266.42 213.238 266.74 211.462 266.74ZM223.451 266.74C222.603 266.74 221.843 266.58 221.171 266.26C220.515 265.924 219.995 265.476 219.611 264.916C219.243 264.356 219.059 263.724 219.059 263.02C219.059 262.156 219.283 261.476 219.731 260.98C220.179 260.468 220.907 260.1 221.915 259.876C222.923 259.652 224.275 259.54 225.971 259.54H226.811V259.036C226.811 258.236 226.635 257.66 226.283 257.308C225.931 256.956 225.339 256.78 224.507 256.78C223.851 256.78 223.179 256.884 222.491 257.092C221.803 257.284 221.107 257.588 220.403 258.004L219.539 255.964C219.955 255.676 220.443 255.428 221.003 255.22C221.579 254.996 222.179 254.828 222.803 254.716C223.443 254.588 224.043 254.524 224.603 254.524C226.315 254.524 227.587 254.924 228.419 255.724C229.251 256.508 229.667 257.732 229.667 259.396V266.5H226.859V264.628C226.587 265.284 226.155 265.804 225.563 266.188C224.971 266.556 224.267 266.74 223.451 266.74ZM224.075 264.676C224.859 264.676 225.507 264.404 226.019 263.86C226.547 263.316 226.811 262.628 226.811 261.796V261.268H225.995C224.491 261.268 223.443 261.388 222.851 261.628C222.275 261.852 221.987 262.268 221.987 262.876C221.987 263.404 222.171 263.836 222.539 264.172C222.907 264.508 223.419 264.676 224.075 264.676ZM235.489 266.5V257.116H231.481V254.764H242.521V257.116H238.489V266.5H235.489ZM244.36 266.5V254.764H247.36V258.652H250.456C252.008 258.652 253.176 258.98 253.96 259.636C254.76 260.292 255.16 261.252 255.16 262.516C255.16 263.716 254.736 264.684 253.888 265.42C253.056 266.14 251.912 266.5 250.456 266.5H244.36ZM247.36 264.532H250C250.752 264.532 251.336 264.372 251.752 264.052C252.168 263.716 252.376 263.212 252.376 262.54C252.376 261.884 252.168 261.404 251.752 261.1C251.336 260.78 250.752 260.62 250 260.62H247.36V264.532Z" fill="white"/>
</svg>
