<svg width="94" height="112" viewBox="0 0 94 112" fill="none" xmlns="http://www.w3.org/2000/svg">
<path d="M30.3854 38.8086H47.1763C45.4967 41.2174 45.4967 43.6261 47.1763 45.232H30.3854C28.7052 43.8938 28.7058 40.6821 30.3854 38.8086Z" fill="#E83D46"/>
<path d="M48.4351 38.8086H65.226C63.5463 41.2174 63.5463 43.6261 65.226 45.232H48.4351C46.7549 43.8938 46.7554 40.6821 48.4351 38.8086Z" fill="#E83D46"/>
<path d="M37.8008 46.3025H21.0099C19.3303 48.176 19.3297 51.3877 21.0099 52.7259H37.8008C36.1212 51.12 36.1212 48.7113 37.8008 46.3025Z" fill="#E83D46"/>
<path d="M39.4799 46.3025H56.2708C54.5912 48.7113 54.5912 51.12 56.2708 52.7259H39.4799C37.7997 51.3877 37.8003 48.176 39.4799 46.3025Z" fill="#E83D46"/>
<path d="M74.7408 46.3025H57.9499C56.2703 48.176 56.2697 51.3877 57.9499 52.7259H74.7408C73.0612 51.12 73.0612 48.7113 74.7408 46.3025Z" fill="#E83D46"/>
<path d="M45.2148 1.07056C46.0592 2.60557 45.7745 4.0146 45.7745 5.08516H48.0133C47.8119 3.28221 47.9009 1.9808 48.573 0C47.6415 1.57302 47.1264 2.31295 46.8939 4.0146C46.5866 2.64493 46.3443 2.20076 45.2148 1.07056Z" fill="#414143"/>
<path d="M65.084 25.962C65.084 41.2175 49.6923 39.0764 47.1737 39.0764C44.655 39.0764 28.4238 41.7528 28.4238 25.962C28.4238 18.7192 38.8276 12.8477 47.1737 12.8477C55.5197 12.8477 65.084 18.7192 65.084 25.962Z" fill="white"/>
<path d="M37.5888 13.918C30.6622 13.918 27.0242 14.4318 21.4273 16.5944C15.8303 18.7569 12.7518 21.9472 12.752 24.0883C12.7521 26.2294 14.431 27.5676 16.6698 27.0323C15.8303 28.9058 17.5094 31.5822 21.1474 31.0469C20.5877 32.6528 23.1063 34.7939 25.9048 33.7233C25.9048 35.8644 28.4235 37.4703 31.5018 36.1321C32.0615 38.2734 34.5801 38.5408 35.6995 38.0056C30.6622 26.497 35.0702 19.2679 41.5067 14.1826C41.5067 14.1826 41.5067 13.918 37.5888 13.918Z" fill="#414143"/>
<path d="M55.8507 13.918C62.7772 13.918 66.4152 14.4318 72.0122 16.5944C77.6092 18.7569 80.6876 21.9472 80.6875 24.0883C80.6874 26.2294 79.0084 27.5676 76.7696 27.0323C77.6092 28.9058 75.9301 31.5822 72.2921 31.0469C72.8517 32.6528 70.3331 34.7939 67.5346 33.7233C67.5346 35.8644 65.016 37.4703 61.9377 36.1321C61.378 38.2734 58.8593 38.5408 57.7399 38.0056C62.7772 26.497 58.3693 19.2679 51.9328 14.1826C51.9328 14.1826 51.9328 13.918 55.8507 13.918Z" fill="#414143"/>
<path d="M41.5782 38.541C38.4672 38.541 37.9458 42.1542 38.9827 42.395C40.0197 42.6359 40.279 41.4312 40.279 41.4312C40.279 41.4312 40.5439 43.3585 41.5781 43.3585C42.6122 43.3585 42.9066 41.4312 42.9066 41.4312C42.9066 41.4312 43.1367 42.6359 44.1707 42.395C45.2047 42.1542 44.6892 38.541 41.5782 38.541Z" fill="black"/>
<path d="M52.213 38.541C49.102 38.541 48.5805 42.1542 49.6175 42.395C50.6544 42.6359 50.9138 41.4312 50.9138 41.4312C50.9138 41.4312 51.1787 43.3585 52.2128 43.3585C53.247 43.3585 53.5413 41.4312 53.5413 41.4312C53.5413 41.4312 53.7714 42.6359 54.8054 42.395C55.8394 42.1542 55.3239 38.541 52.213 38.541Z" fill="black"/>
<path d="M46.8935 13.2744C45.8156 14.4861 44.2097 15.2545 42.4159 15.2545C39.1703 15.2545 36.5391 12.7381 36.5391 9.63411C36.5391 6.53011 39.1703 4.01367 42.4159 4.01367C44.2097 4.01367 46.3338 4.81659 46.8935 5.61951C47.4531 4.81659 49.5772 4.01367 51.371 4.01367C54.6166 4.01367 57.2478 6.53011 57.2478 9.63411C57.2478 12.7381 54.6166 15.2545 51.371 15.2545C49.5772 15.2545 47.9713 14.4861 46.8935 13.2744Z" fill="#414143"/>
<path d="M44.9355 13.3814L46.8945 10.9727L48.8534 13.3814C47.9 14.4455 47.1743 16.5931 46.8945 16.5931C46.6146 16.5931 45.8405 14.4307 44.9355 13.3814Z" fill="black"/>
<path fill-rule="evenodd" clip-rule="evenodd" d="M47.5407 12.3326C47.259 11.9671 46.5313 11.9671 46.2497 12.3326C45.3834 13.4565 43.9895 14.1857 42.4176 14.1857C39.7901 14.1857 37.6602 12.1486 37.6602 9.63582C37.6602 7.12299 39.7901 5.08594 42.4176 5.08594C43.9895 5.08594 45.3834 5.81509 46.2497 6.93903C46.5313 7.3045 47.259 7.3045 47.5407 6.93903C48.4069 5.81509 49.8008 5.08594 51.3727 5.08594C54.0002 5.08594 56.1301 7.12299 56.1301 9.63582C56.1301 12.1486 54.0002 14.1857 51.3727 14.1857C49.8008 14.1857 48.4069 13.4565 47.5407 12.3326Z" fill="white"/>
<ellipse cx="42.4171" cy="9.63532" rx="2.51863" ry="2.40876" fill="black"/>
<path fill-rule="evenodd" clip-rule="evenodd" d="M44.0965 8.8324C44.5602 8.8324 44.9361 8.47292 44.9361 8.02948C44.9361 7.58604 44.5602 7.22656 44.0965 7.22656C43.6328 7.22656 43.257 7.58604 43.257 8.02948C43.257 8.12407 43.2741 8.21483 43.3055 8.2991C43.2895 8.29779 43.2733 8.29712 43.257 8.29712C42.9479 8.29712 42.6973 8.53678 42.6973 8.8324C42.6973 9.12803 42.9479 9.36768 43.257 9.36768C43.5661 9.36768 43.8167 9.12803 43.8167 8.8324C43.8167 8.81677 43.816 8.8013 43.8146 8.78601C43.9027 8.81605 43.9976 8.8324 44.0965 8.8324Z" fill="white"/>
<ellipse cx="51.3722" cy="9.63532" rx="2.51863" ry="2.40876" fill="black"/>
<path fill-rule="evenodd" clip-rule="evenodd" d="M53.0516 8.8324C53.5153 8.8324 53.8911 8.47292 53.8911 8.02948C53.8911 7.58604 53.5153 7.22656 53.0516 7.22656C52.5879 7.22656 52.212 7.58604 52.212 8.02948C52.212 8.10708 52.2236 8.18212 52.245 8.2531C52.2516 8.27473 52.2346 8.29712 52.212 8.29712C51.9029 8.29712 51.6523 8.53678 51.6523 8.8324C51.6523 9.12803 51.9029 9.36768 52.212 9.36768C52.5212 9.36768 52.7717 9.12803 52.7717 8.8324C52.7717 8.81055 52.793 8.79388 52.814 8.7998C52.8893 8.82102 52.9691 8.8324 53.0516 8.8324Z" fill="white"/>
<path d="M37.7377 62.1061C39.4302 62.1061 40.9033 62.3759 42.1571 62.9155C43.4197 63.455 44.3914 64.2044 45.072 65.1636C45.7525 66.1229 46.0928 67.2191 46.0928 68.4524C46.0928 69.8056 45.6988 71.0046 44.9108 72.0495C44.1317 73.0943 43.0033 73.908 41.5257 74.4904C40.0481 75.0727 38.3019 75.3639 36.287 75.3639C34.3526 75.3639 32.6377 75.0899 31.1422 74.5417C29.6557 73.9851 28.4825 73.2314 27.6228 72.2807C26.7721 71.3215 26.293 70.2467 26.1855 69.0562H31.7333C31.8945 69.7328 32.3736 70.2724 33.1706 70.6749C33.9765 71.0689 35.0153 71.2658 36.287 71.2658C37.1646 71.2658 37.9213 71.1545 38.5571 70.9318C39.2019 70.7006 39.6899 70.3751 40.0212 69.9555C40.3615 69.5272 40.5317 69.0219 40.5317 68.4396C40.5317 67.8829 40.375 67.3947 40.0615 66.975C39.7481 66.5468 39.2824 66.2171 38.6645 65.9858C38.0466 65.746 37.3034 65.6261 36.4347 65.6261C35.4049 65.6261 34.5004 65.7803 33.7213 66.0886C32.9422 66.3969 32.2974 66.7823 31.787 67.2448H26.9781L28.7243 55.6699H44.5078V59.6267H32.4586L31.787 63.8276C32.5034 63.288 33.3586 62.8684 34.3526 62.5686C35.3467 62.2603 36.475 62.1061 37.7377 62.1061Z" fill="#414143"/>
<path d="M59.5659 62.1061C61.2584 62.1061 62.7315 62.3759 63.9852 62.9155C65.2479 63.455 66.2195 64.2044 66.9001 65.1636C67.5807 66.1229 67.921 67.2191 67.921 68.4524C67.921 69.8056 67.527 71.0046 66.7389 72.0495C65.9598 73.0943 64.8315 73.908 63.3539 74.4904C61.8763 75.0727 60.13 75.3639 58.1151 75.3639C56.1808 75.3639 54.4659 75.0899 52.9704 74.5417C51.4838 73.9851 50.3107 73.2314 49.451 72.2807C48.6003 71.3215 48.1212 70.2467 48.0137 69.0562H53.5614C53.7226 69.7328 54.2017 70.2724 54.9987 70.6749C55.8047 71.0689 56.8435 71.2658 58.1151 71.2658C58.9927 71.2658 59.7494 71.1545 60.3853 70.9318C61.03 70.7006 61.5181 70.3751 61.8494 69.9555C62.1897 69.5272 62.3599 69.0219 62.3599 68.4396C62.3599 67.8829 62.2031 67.3947 61.8897 66.975C61.5763 66.5468 61.1106 66.2171 60.4927 65.9858C59.8748 65.746 59.1315 65.6261 58.2629 65.6261C57.233 65.6261 56.3286 65.7803 55.5495 66.0886C54.7704 66.3969 54.1256 66.7823 53.6152 67.2448H48.8062L50.5525 55.6699H66.3359V59.6267H54.2868L53.6152 63.8276C54.3316 63.288 55.1868 62.8684 56.1808 62.5686C57.1748 62.2603 58.3032 62.1061 59.5659 62.1061Z" fill="#414143"/>
<path fill-rule="evenodd" clip-rule="evenodd" d="M84.7952 45.7146C85.154 45.2991 85.6868 44.9629 86.4008 44.9629C87.1473 44.9629 87.6825 45.3471 88.0256 45.7887C88.3533 46.2105 88.5461 46.7271 88.6656 47.1717C88.6658 47.1724 88.666 47.1731 88.6662 47.1738C88.7426 47.1397 88.8231 47.1092 88.9078 47.0834C89.3552 46.947 89.8507 46.9633 90.3602 47.1651C90.7255 47.3097 90.9992 47.5742 91.2032 47.8404C91.4119 48.1126 91.5908 48.443 91.7482 48.8037C92.0629 49.5252 92.3344 50.4695 92.5716 51.5617C93.0476 53.753 93.4126 56.6691 93.6746 59.8884C94.0247 64.1898 93.7639 67.4875 93.3936 71.2665C93.3348 71.8666 93.3157 72.4628 93.295 73.1066C93.2844 73.4364 93.2734 73.7788 93.2565 74.1405C93.2078 75.1806 93.1103 76.3087 92.8161 77.5279C92.3442 79.4835 90.6889 81.723 88.6353 83.9136C86.5527 86.1352 83.9492 88.4201 81.4168 90.4721C78.8812 92.5265 76.4008 94.3603 74.5555 95.6797C73.6324 96.3397 72.8672 96.8718 72.3321 97.2393C72.1405 97.3709 71.9783 97.4814 71.849 97.5692V108.126C71.849 108.569 71.4731 108.929 71.0094 108.929C70.5458 108.929 70.1699 108.569 70.1699 108.126V98.4422L68.5341 99.2114C68.118 99.4071 67.6149 99.2431 67.4103 98.8452C67.2057 98.4472 67.3771 97.966 67.7932 97.7703L70.5812 96.4593L70.5831 96.4581C70.6189 96.4341 70.6723 96.3981 70.7424 96.3508C70.8825 96.2562 71.089 96.116 71.3527 95.9349C71.8802 95.5726 72.6367 95.0467 73.5501 94.3936C75.3777 93.0868 77.8296 91.2739 80.3314 89.2469C82.8362 87.2173 85.375 84.9858 87.3851 82.8416C89.4243 80.6663 90.8124 78.6904 91.18 77.1668C91.4413 76.0838 91.5324 75.0653 91.5791 74.0687C91.5936 73.7583 91.6039 73.4418 91.6142 73.1236C91.6361 72.4486 91.6583 71.7658 91.7219 71.1167C92.0899 67.3609 92.3393 64.1737 92.0006 60.013C91.7407 56.8203 91.3824 53.982 90.9276 51.8883C90.6995 50.838 90.4537 50.0071 90.1985 49.422C90.0709 49.1295 89.9518 48.9239 89.849 48.7898C89.7658 48.6812 89.7164 48.6498 89.7112 48.6461C89.5492 48.5833 89.4635 48.5994 89.4175 48.6134C89.3525 48.6332 89.2682 48.6832 89.1715 48.7841C89.0757 48.884 88.9966 49.0041 88.9395 49.1081C88.9345 49.1171 88.9298 49.1259 88.9254 49.1344C88.9268 49.1801 88.9285 49.234 88.9303 49.2954C88.9369 49.5167 88.9457 49.8364 88.9545 50.2317C88.9721 51.022 88.9897 52.1152 88.9897 53.3266C88.9897 55.7329 88.9207 58.6627 88.6314 60.5996C88.3401 62.5499 87.6075 64.8828 86.9625 66.6992C86.6378 67.6137 86.3309 68.4092 86.1051 68.9765C86.0806 69.038 86.0571 69.0969 86.0346 69.153C86.1992 69.2384 86.3571 69.3356 86.5071 69.4482C86.8989 69.7426 87.194 70.11 87.4317 70.5651C87.9804 71.6156 88.062 73.3232 86.5533 75.6317C85.7275 76.8954 82.732 81.3305 79.7556 84.5685C78.684 85.7342 77.5244 86.7035 76.638 87.379C76.1934 87.7177 75.8143 87.9849 75.5448 88.1685C75.41 88.2604 75.3023 88.3314 75.2274 88.3801C75.19 88.4045 75.1606 88.4232 75.1402 88.4363L75.1162 88.4515L75.1093 88.4558L75.1065 88.4576C75.1063 88.4576 75.1059 88.4579 74.6474 87.7853L75.1059 88.4579C74.7175 88.7001 74.1974 88.5952 73.9442 88.2238C73.691 87.8524 73.8005 87.355 74.1888 87.1128C74.1887 87.1128 74.1889 87.1127 74.1888 87.1128L74.1927 87.1103L74.2101 87.0993C74.2261 87.0891 74.2508 87.0733 74.2835 87.052C74.349 87.0094 74.4466 86.9451 74.5708 86.8605C74.8194 86.6912 75.174 86.4413 75.5917 86.123C76.4298 85.4844 77.509 84.5803 78.4945 83.5082C81.3756 80.3739 84.3114 76.0324 85.1294 74.7807C86.4192 72.807 86.1485 71.7018 85.9296 71.2828C85.7836 71.0032 85.6354 70.8354 85.47 70.7112C85.3071 70.5888 85.0896 70.4802 84.7569 70.3695C84.7186 70.3647 84.6621 70.3582 84.5894 70.3516C84.4289 70.337 84.1905 70.3218 83.8938 70.3218C83.2982 70.3218 82.4813 70.3831 81.5944 70.6254C81.2725 70.7134 80.7724 70.9949 80.1167 71.4853C79.4842 71.9585 78.7863 72.5642 78.0785 73.2108C77.602 73.6461 77.1127 74.1085 76.6395 74.5557C75.7521 75.3944 74.9212 76.1797 74.3365 76.6329C73.7754 77.0678 72.8511 77.4392 71.836 77.7621C70.7878 78.0956 69.5271 78.4116 68.2044 78.699C65.5575 79.2741 62.6053 79.7465 60.4861 80.0167C58.6419 80.2518 56.802 81.3418 55.2109 82.9153C53.6272 84.4815 52.3609 86.459 51.6491 88.3277C50.3601 91.7118 51.6565 94.0065 52.0852 94.7652C52.1202 94.8272 52.1494 94.879 52.171 94.9202C52.2398 95.0519 52.2638 95.1866 52.2718 95.2316L52.2723 95.2343C52.2849 95.3053 52.2944 95.3832 52.302 95.4604C52.3174 95.6165 52.3294 95.8155 52.3392 96.044C52.3589 96.5035 52.371 97.1221 52.3776 97.8398C52.3908 99.2774 52.382 101.14 52.3645 102.981C52.347 104.823 52.3207 106.649 52.2988 108.013C52.2879 108.695 52.278 109.262 52.2709 109.659C52.2674 109.857 52.2645 110.013 52.2625 110.119L52.2595 110.281C52.2595 110.281 52.2594 110.282 51.42 110.267C50.5806 110.252 50.5806 110.252 50.5806 110.252L50.5837 110.09C50.5857 109.984 50.5885 109.829 50.5921 109.631C50.5992 109.235 50.609 108.669 50.6199 107.988C50.6418 106.626 50.668 104.804 50.6854 102.967C50.7029 101.128 50.7116 99.2768 50.6986 97.8539C50.692 97.1414 50.6801 96.5431 50.6615 96.1098C50.6522 95.8918 50.6416 95.7254 50.6303 95.611C50.6282 95.5897 50.6262 95.5717 50.6244 95.5567C50.6137 95.5376 50.6019 95.5168 50.5893 95.4945C50.1372 94.6962 48.5224 91.8449 50.0714 87.7781C50.8634 85.6988 52.2556 83.5279 54.0039 81.7989C55.7449 80.0772 57.9105 78.725 60.2642 78.4249C62.3431 78.1599 65.2441 77.6955 67.8324 77.1331C69.1274 76.8517 70.3298 76.5489 71.3061 76.2383C72.3156 75.9172 72.9772 75.6195 73.2793 75.3854C73.8031 74.9793 74.5235 74.2978 75.3574 73.5089C75.8446 73.0479 76.3706 72.5503 76.9188 72.0495C77.6393 71.3914 78.3842 70.7426 79.0823 70.2204C79.7573 69.7155 80.4756 69.261 81.1332 69.0814C82.2053 68.7884 83.1837 68.7159 83.8938 68.7159C84.0839 68.7159 84.2556 68.7211 84.4059 68.7288C84.4452 68.632 84.4887 68.5237 84.5359 68.4052C84.7562 67.8517 85.0559 67.0749 85.3726 66.1828C86.0106 64.386 86.7009 62.169 86.9692 60.3725C87.2396 58.5623 87.3106 55.7379 87.3106 53.3266C87.3106 52.1294 87.2932 51.048 87.2758 50.2659C87.2671 49.8749 87.2584 49.5591 87.2519 49.3412C87.2487 49.2323 87.2459 49.148 87.2441 49.091L87.2419 49.0264L87.2412 49.0063L87.2411 49.0054C87.241 49.0001 87.2408 48.9946 87.2407 48.9894C87.2407 48.9893 87.2407 48.9894 87.2407 48.9894C87.2407 48.9892 87.2407 48.9889 87.2407 48.9888L87.2407 48.9859L87.2401 48.9657C87.2395 48.9468 87.2384 48.9173 87.2364 48.8786C87.2325 48.8012 87.2251 48.6882 87.2115 48.5517C87.184 48.2752 87.1327 47.9185 87.0394 47.5716C86.9431 47.2133 86.8181 46.9269 86.6779 46.7465C86.5532 46.586 86.4704 46.5687 86.4008 46.5687C86.2988 46.5687 86.2078 46.6005 86.0899 46.7371C85.9542 46.8943 85.8297 47.1456 85.7308 47.4655C85.635 47.7755 85.5796 48.0955 85.5486 48.3446C85.5333 48.4674 85.5245 48.5689 85.5195 48.6381C85.5175 48.6672 85.5161 48.6904 85.5152 48.7069L85.5163 48.7281C85.5184 48.7672 85.5213 48.8247 85.5249 48.8993C85.5322 49.0484 85.5423 49.2656 85.5537 49.5394C85.5765 50.087 85.6043 50.8614 85.6249 51.7703C85.6659 53.5853 85.6781 55.9494 85.5601 58.1189C85.4412 60.306 85.0734 62.7503 84.739 64.6349C84.5713 65.5801 84.4109 66.3902 84.2924 66.9645C84.2331 67.2517 84.1842 67.4802 84.1501 67.6373C84.133 67.7159 84.1196 67.7767 84.1104 67.818L84.0998 67.8653L84.097 67.8777L84.0961 67.882C84.0961 67.8821 84.096 67.8824 83.2755 67.7123L84.0961 67.882C83.9978 68.3153 83.5508 68.5909 83.0976 68.497C82.6445 68.403 82.3568 67.9755 82.455 67.5422L82.4551 67.5416L82.4581 67.5283L82.468 67.4842C82.4767 67.4451 82.4896 67.3866 82.5061 67.3105C82.5392 67.1582 82.587 66.935 82.6451 66.6535C82.7613 66.0903 82.9188 65.2946 83.0836 64.3663C83.4141 62.5039 83.7694 60.1307 83.8833 58.0355C83.9982 55.9229 83.9869 53.6033 83.9462 51.8051C83.9259 50.9075 83.8984 50.143 83.8759 49.6032C83.8647 49.3334 83.8548 49.1199 83.8477 48.9742C83.8442 48.9041 83.8415 48.8497 83.8395 48.8123C83.8345 48.7919 83.827 48.7642 83.8167 48.7313C83.7894 48.6442 83.7472 48.5365 83.6879 48.4365C83.5665 48.2316 83.4572 48.1746 83.3225 48.1746C83.3034 48.1746 83.3 48.1738 83.2993 48.1748C83.2987 48.1756 83.2996 48.1775 83.2958 48.1818C83.2551 48.2273 83.1756 48.3577 83.1042 48.6551C82.9607 49.2537 82.9285 50.1644 82.9285 51.3862C82.9285 51.6315 82.9419 51.9071 82.9585 52.2505C83.0083 53.2744 83.0872 54.9003 82.9275 58.1153C82.8195 60.2903 82.5529 62.458 82.3144 64.0773C82.195 64.8882 82.0822 65.5642 81.9992 66.0384C81.9577 66.2755 81.9236 66.4622 81.8997 66.5902C81.8878 66.6542 81.8784 66.7035 81.872 66.7371L81.8646 66.7756L81.8619 66.7893C81.8619 66.7894 81.8619 66.7897 81.0367 66.6417L81.8619 66.7893C81.7765 67.2251 81.3377 67.5126 80.882 67.4309C80.4263 67.3492 80.1261 66.9296 80.2115 66.4938C80.2115 66.4938 80.2115 66.4938 80.2115 66.4938L80.2136 66.483L80.2203 66.4481C80.2244 66.427 80.2297 66.3988 80.2363 66.3638C80.2395 66.3469 80.2429 66.3285 80.2467 66.3085C80.2696 66.1856 80.3027 66.0043 80.3432 65.7731C80.4242 65.3104 80.5347 64.6483 80.6517 63.8533C80.8862 62.261 81.1457 60.1465 81.2503 58.0391C81.4055 54.9148 81.3332 53.4247 81.2831 52.394C81.2671 52.0636 81.2533 51.7804 81.2501 51.5056C81.2386 51.4737 81.2237 51.4358 81.2054 51.3963C81.1639 51.3067 81.1299 51.2625 81.1179 51.2471C81.11 51.2443 81.0996 51.241 81.0867 51.238C81.0548 51.2305 81.0372 51.2318 81.0324 51.2324C81.0257 51.2367 81.0119 51.2478 80.9916 51.2733C80.9424 51.3351 80.8537 51.4864 80.7884 51.8073C80.647 52.5019 80.6644 53.384 80.7129 54.5629C80.7171 54.6649 80.7215 54.7686 80.7259 54.8742C80.7718 55.9575 80.8255 57.226 80.7559 58.65C80.6695 60.4182 80.4559 62.1186 80.2648 63.3737C80.1691 64.0023 80.0787 64.5215 80.012 64.8845C79.9787 65.066 79.9512 65.2087 79.932 65.3065C79.9224 65.3554 79.9148 65.3932 79.9096 65.419L79.9035 65.4487L79.9014 65.459L79.9013 65.4597C79.9013 65.4598 79.9012 65.4601 79.0778 65.3035L79.9013 65.4597C79.8109 65.8946 79.3689 66.1775 78.9141 66.091C78.4593 66.0046 78.1639 65.5819 78.2543 65.147L78.2558 65.1396L78.2611 65.1139C78.2657 65.0908 78.2727 65.0559 78.2818 65.0099C78.2999 64.9179 78.3261 64.7815 78.3582 64.6066C78.4225 64.2567 78.5102 63.7532 78.6032 63.1423C78.7896 61.9185 78.9957 60.2735 79.0787 58.575C79.1447 57.2244 79.094 56.0227 79.048 54.9349C79.0436 54.8309 79.0393 54.728 79.0351 54.626C78.9882 53.4877 78.9548 52.4117 79.1402 51.5005C79.3379 50.5294 79.832 49.8779 80.5955 49.6817C80.8418 49.6185 81.0777 49.6141 81.2894 49.642C81.3204 49.141 81.3744 48.6849 81.4676 48.2962C81.5648 47.8911 81.7236 47.4695 82.0192 47.1386C82.3467 46.772 82.7969 46.5687 83.3225 46.5687C83.6657 46.5687 83.9582 46.6431 84.2052 46.7597C84.3346 46.4081 84.5209 46.0322 84.7952 45.7146ZM81.0371 51.2302C81.0371 51.2303 81.0358 51.2312 81.033 51.2321C81.0356 51.2304 81.037 51.23 81.0371 51.2302ZM88.8688 49.2531C88.8682 49.2544 88.8679 49.2552 88.8677 49.2556L88.8683 49.2542L88.8688 49.2531ZM50.6171 95.5043C50.6171 95.5045 50.6171 95.5047 50.6172 95.5049C50.6131 95.4885 50.6138 95.4861 50.6171 95.5043ZM51.42 110.267L50.5806 110.252C50.5721 110.695 50.9409 111.062 51.4045 111.07C51.8681 111.078 52.2509 110.725 52.2594 110.282L51.42 110.267ZM88.8677 49.2556C88.8676 49.2559 88.8677 49.2558 88.8677 49.2556V49.2556Z" fill="#414143"/>
<path fill-rule="evenodd" clip-rule="evenodd" d="M9.48405 45.7146C9.12531 45.2991 8.59246 44.9629 7.87847 44.9629C7.13203 44.9629 6.59684 45.3471 6.25367 45.7887C5.92595 46.2105 5.73318 46.7271 5.61366 47.1717C5.61347 47.1724 5.61329 47.1731 5.6131 47.1738C5.53672 47.1397 5.45622 47.1092 5.3715 47.0834C4.92406 46.947 4.42862 46.9633 3.91905 47.1651C3.5538 47.3097 3.28014 47.5742 3.07609 47.8404C2.86744 48.1126 2.68847 48.443 2.53113 48.8037C2.21642 49.5252 1.94492 50.4695 1.70768 51.5617C1.23169 53.753 0.866734 56.6691 0.604687 59.8884C0.254562 64.1898 0.515358 67.4875 0.885666 71.2665C0.944466 71.8666 0.963615 72.4628 0.984299 73.1066C0.994892 73.4364 1.00589 73.7788 1.02282 74.1405C1.07151 75.1806 1.16902 76.3087 1.4632 77.5279C1.93509 79.4835 3.59041 81.723 5.64398 83.9136C7.72665 86.1352 10.3301 88.4201 12.8625 90.4721C15.3981 92.5265 17.8785 94.3603 19.7238 95.6797C20.6469 96.3397 21.4121 96.8718 21.9472 97.2393C22.1388 97.3709 22.301 97.4814 22.4303 97.5692V108.126C22.4303 108.569 22.8062 108.929 23.2699 108.929C23.7335 108.929 24.1094 108.569 24.1094 108.126V98.4422L25.7452 99.2114C26.1613 99.4071 26.6644 99.2431 26.869 98.8452C27.0736 98.4472 26.9022 97.966 26.4861 97.7703L23.6981 96.4593L23.6962 96.4581C23.6604 96.4341 23.607 96.3981 23.5369 96.3508C23.3968 96.2562 23.1903 96.116 22.9266 95.9349C22.3991 95.5726 21.6426 95.0467 20.7292 94.3936C18.9016 93.0868 16.4497 91.2739 13.9479 89.2469C11.4431 87.2173 8.9043 84.9858 6.89418 82.8416C4.85497 80.6663 3.46694 78.6904 3.09929 77.1668C2.83796 76.0838 2.74688 75.0653 2.70023 74.0687C2.6857 73.7583 2.67543 73.4418 2.6651 73.1236C2.64319 72.4486 2.62104 71.7658 2.55743 71.1167C2.18939 67.3609 1.94004 64.1737 2.27871 60.013C2.5386 56.8203 2.8969 53.982 3.35167 51.8883C3.57981 50.838 3.82557 50.0071 4.08077 49.422C4.20839 49.1295 4.32754 48.9239 4.43027 48.7898C4.51352 48.6812 4.56285 48.6498 4.56807 48.6461C4.73011 48.5833 4.81579 48.5994 4.86176 48.6134C4.92676 48.6332 5.01114 48.6832 5.10784 48.7841C5.20361 48.884 5.28271 49.0041 5.33978 49.1081C5.34475 49.1171 5.34947 49.1259 5.35394 49.1344C5.35249 49.1801 5.35082 49.234 5.34898 49.2954C5.34237 49.5167 5.33358 49.8364 5.32478 50.2317C5.3072 51.022 5.28961 52.1152 5.28961 53.3266C5.28961 55.7329 5.35855 58.6627 5.64786 60.5996C5.9392 62.5499 6.67183 64.8828 7.31677 66.6992C7.64149 67.6137 7.94835 68.4092 8.17416 68.9765C8.19866 69.038 8.2222 69.0969 8.24472 69.153C8.08006 69.2384 7.92218 69.3356 7.77223 69.4482C7.38035 69.7426 7.08531 70.11 6.84757 70.5651C6.29888 71.6156 6.21729 73.3232 7.72598 75.6317C8.55181 76.8954 11.5473 81.3305 14.5237 84.5685C15.5953 85.7342 16.7549 86.7035 17.6413 87.379C18.0859 87.7177 18.465 87.9849 18.7345 88.1685C18.8693 88.2604 18.9769 88.3314 19.0519 88.3801C19.0893 88.4045 19.1187 88.4232 19.1391 88.4363L19.1631 88.4515L19.17 88.4558L19.1728 88.4576C19.173 88.4576 19.1734 88.4579 19.6318 87.7853L19.1734 88.4579C19.5618 88.7001 20.0819 88.5952 20.3351 88.2238C20.5883 87.8524 20.4788 87.355 20.0905 87.1128C20.0906 87.1128 20.0904 87.1127 20.0905 87.1128L20.0866 87.1103L20.0692 87.0993C20.0532 87.0891 20.0285 87.0733 19.9958 87.052C19.9303 87.0094 19.8327 86.9451 19.7085 86.8605C19.4599 86.6912 19.1053 86.4413 18.6876 86.123C17.8495 85.4844 16.7703 84.5803 15.7848 83.5082C12.9037 80.3739 9.9679 76.0324 9.14985 74.7807C7.86005 72.807 8.13081 71.7018 8.34967 71.2828C8.49571 71.0032 8.64394 70.8354 8.80928 70.7112C8.97216 70.5888 9.1897 70.4802 9.52243 70.3695C9.56074 70.3647 9.61719 70.3582 9.68992 70.3516C9.85038 70.337 10.0888 70.3218 10.3855 70.3218C10.9811 70.3218 11.798 70.3831 12.6848 70.6254C13.0068 70.7134 13.5069 70.9949 14.1625 71.4853C14.7951 71.9585 15.493 72.5642 16.2008 73.2108C16.6773 73.6461 17.1666 74.1085 17.6398 74.5557C18.5272 75.3944 19.3581 76.1797 19.9428 76.6329C20.5039 77.0678 21.4282 77.4392 22.4432 77.7621C23.4915 78.0956 24.7522 78.4116 26.0749 78.699C28.7218 79.2741 31.674 79.7465 33.7932 80.0167C35.6374 80.2518 37.4773 81.3418 39.0684 82.9153C40.6521 84.4815 41.9184 86.459 42.6302 88.3277C43.9192 91.7118 42.6228 94.0065 42.1941 94.7652C42.1591 94.8272 42.1299 94.879 42.1083 94.9202C42.0395 95.0519 42.0155 95.1866 42.0075 95.2316L42.007 95.2343C41.9944 95.3053 41.9849 95.3832 41.9773 95.4604C41.9619 95.6165 41.9499 95.8155 41.9401 96.044C41.9204 96.5035 41.9083 97.1221 41.9017 97.8398C41.8885 99.2774 41.8973 101.14 41.9148 102.981C41.9323 104.823 41.9586 106.649 41.9805 108.013C41.9914 108.695 42.0012 109.262 42.0084 109.659C42.0119 109.857 42.0148 110.013 42.0168 110.119L42.0198 110.281C42.0198 110.281 42.0199 110.282 42.8593 110.267C43.6987 110.252 43.6987 110.252 43.6987 110.252L43.6956 110.09C43.6936 109.984 43.6908 109.829 43.6872 109.631C43.6801 109.235 43.6703 108.669 43.6594 107.988C43.6375 106.626 43.6113 104.804 43.5939 102.967C43.5764 101.128 43.5677 99.2768 43.5807 97.8539C43.5873 97.1414 43.5992 96.5431 43.6178 96.1098C43.6271 95.8918 43.6377 95.7254 43.649 95.611C43.6511 95.5897 43.6531 95.5717 43.6549 95.5567C43.6656 95.5376 43.6774 95.5168 43.69 95.4945C44.1421 94.6962 45.7569 91.8449 44.2079 87.7781C43.4159 85.6988 42.0237 83.5279 40.2754 81.7989C38.5344 80.0772 36.3688 78.725 34.0151 78.4249C31.9362 78.1599 29.0352 77.6955 26.4469 77.1331C25.1519 76.8517 23.9495 76.5489 22.9732 76.2383C21.9637 75.9172 21.3021 75.6195 21 75.3854C20.4762 74.9793 19.7558 74.2978 18.9219 73.5089C18.4347 73.0479 17.9087 72.5503 17.3605 72.0495C16.64 71.3914 15.8951 70.7426 15.197 70.2204C14.522 69.7155 13.8037 69.261 13.1461 69.0814C12.074 68.7884 11.0956 68.7159 10.3855 68.7159C10.1954 68.7159 10.0237 68.7211 9.87336 68.7288C9.83411 68.632 9.79058 68.5237 9.74339 68.4052C9.52308 67.8517 9.22345 67.0749 8.90669 66.1828C8.26868 64.386 7.57844 62.169 7.31007 60.3725C7.03969 58.5623 6.9687 55.7379 6.9687 53.3266C6.9687 52.1294 6.9861 51.048 7.00349 50.2659C7.01219 49.8749 7.02089 49.5591 7.02739 49.3412C7.03064 49.2323 7.03335 49.148 7.03524 49.091L7.03742 49.0264L7.03813 49.0063L7.03815 49.0054C7.03835 49.0001 7.03849 48.9946 7.03857 48.9894C7.03857 48.9893 7.03857 48.9894 7.03857 48.9894C7.03857 48.9892 7.03858 48.9889 7.03858 48.9888L7.03865 48.9859L7.03921 48.9657C7.03981 48.9468 7.04092 48.9173 7.04289 48.8786C7.04684 48.8012 7.05421 48.6882 7.06778 48.5517C7.09526 48.2752 7.14661 47.9185 7.23987 47.5716C7.33617 47.2133 7.46124 46.9269 7.60141 46.7465C7.72611 46.586 7.80886 46.5687 7.87847 46.5687C7.98053 46.5687 8.07146 46.6005 8.18937 46.7371C8.3251 46.8943 8.44957 47.1456 8.54845 47.4655C8.64429 47.7755 8.69973 48.0955 8.73071 48.3446C8.74597 48.4674 8.7548 48.5689 8.75975 48.6381C8.76183 48.6672 8.76321 48.6904 8.7641 48.7069L8.76297 48.7281C8.76094 48.7672 8.75801 48.8247 8.75437 48.8993C8.74709 49.0484 8.73698 49.2656 8.72559 49.5394C8.70284 50.087 8.67495 50.8614 8.6544 51.7703C8.61335 53.5853 8.60118 55.9494 8.71915 58.1189C8.83807 60.306 9.20586 62.7503 9.54029 64.6349C9.70801 65.5801 9.86839 66.3902 9.98693 66.9645C10.0462 67.2517 10.0951 67.4802 10.1292 67.6373C10.1463 67.7159 10.1597 67.7767 10.1689 67.818L10.1795 67.8653L10.1823 67.8777L10.1832 67.882C10.1832 67.8821 10.1833 67.8824 11.0038 67.7123L10.1832 67.882C10.2815 68.3153 10.7285 68.5909 11.1817 68.497C11.6348 68.403 11.9225 67.9755 11.8243 67.5422L11.8242 67.5416L11.8212 67.5283L11.8113 67.4842C11.8026 67.4451 11.7897 67.3866 11.7732 67.3105C11.7401 67.1582 11.6923 66.935 11.6342 66.6535C11.518 66.0903 11.3604 65.2946 11.1957 64.3663C10.8652 62.5039 10.5099 60.1307 10.396 58.0355C10.2811 55.9229 10.2924 53.6033 10.3331 51.8051C10.3534 50.9075 10.3809 50.143 10.4034 49.6032C10.4146 49.3334 10.4245 49.1199 10.4316 48.9742C10.4351 48.9041 10.4378 48.8497 10.4398 48.8123C10.4448 48.7919 10.4523 48.7642 10.4626 48.7313C10.4899 48.6442 10.5321 48.5365 10.5914 48.4365C10.7128 48.2316 10.8221 48.1746 10.9568 48.1746C10.9759 48.1746 10.9793 48.1738 10.98 48.1748C10.9806 48.1756 10.9797 48.1775 10.9835 48.1818C11.0242 48.2273 11.1037 48.3577 11.1751 48.6551C11.3186 49.2537 11.3508 50.1644 11.3508 51.3862C11.3508 51.6315 11.3374 51.9071 11.3208 52.2505C11.271 53.2744 11.1921 54.9003 11.3518 58.1153C11.4598 60.2903 11.7264 62.458 11.9649 64.0773C12.0843 64.8882 12.197 65.5642 12.2801 66.0384C12.3216 66.2755 12.3557 66.4622 12.3796 66.5902C12.3915 66.6542 12.4009 66.7035 12.4073 66.7371L12.4147 66.7756L12.4174 66.7893C12.4174 66.7894 12.4174 66.7897 13.2426 66.6417L12.4174 66.7893C12.5028 67.2251 12.9416 67.5126 13.3973 67.4309C13.853 67.3492 14.1532 66.9296 14.0678 66.4938C14.0678 66.4938 14.0678 66.4938 14.0678 66.4938L14.0657 66.483L14.0589 66.4481C14.0549 66.427 14.0496 66.3988 14.043 66.3638C14.0398 66.3469 14.0364 66.3285 14.0326 66.3085C14.0097 66.1856 13.9766 66.0043 13.9361 65.7731C13.8551 65.3104 13.7446 64.6483 13.6276 63.8533C13.3931 62.261 13.1336 60.1465 13.029 58.0391C12.8738 54.9148 12.9461 53.4247 12.9962 52.394C13.0122 52.0636 13.026 51.7804 13.0292 51.5056C13.0407 51.4737 13.0556 51.4358 13.0739 51.3963C13.1154 51.3067 13.1494 51.2625 13.1614 51.2471C13.1693 51.2443 13.1797 51.241 13.1926 51.238C13.2245 51.2305 13.2421 51.2318 13.2469 51.2324C13.2536 51.2367 13.2674 51.2478 13.2877 51.2733C13.3369 51.3351 13.4256 51.4864 13.4909 51.8073C13.6323 52.5019 13.6149 53.384 13.5664 54.5629C13.5622 54.6649 13.5578 54.7686 13.5534 54.8742C13.5075 55.9575 13.4538 57.226 13.5234 58.65C13.6098 60.4182 13.8234 62.1186 14.0145 63.3737C14.1102 64.0023 14.2006 64.5215 14.2673 64.8845C14.3006 65.066 14.3281 65.2087 14.3473 65.3065C14.3569 65.3554 14.3645 65.3932 14.3697 65.419L14.3758 65.4487L14.3779 65.459L14.378 65.4597C14.378 65.4598 14.3781 65.4601 15.2015 65.3035L14.378 65.4597C14.4684 65.8946 14.9104 66.1775 15.3652 66.091C15.82 66.0046 16.1154 65.5819 16.025 65.147L16.0234 65.1396L16.0182 65.1139C16.0135 65.0908 16.0065 65.0559 15.9975 65.0099C15.9794 64.9179 15.9532 64.7815 15.9211 64.6066C15.8568 64.2567 15.7691 63.7532 15.6761 63.1423C15.4897 61.9185 15.2836 60.2735 15.2006 58.575C15.1346 57.2244 15.1853 56.0227 15.2313 54.9349C15.2357 54.8309 15.24 54.728 15.2442 54.626C15.2911 53.4877 15.3245 52.4117 15.1391 51.5005C14.9414 50.5294 14.4473 49.8779 13.6838 49.6817C13.4375 49.6185 13.2016 49.6141 12.9899 49.642C12.9589 49.141 12.9049 48.6849 12.8117 48.2962C12.7145 47.8911 12.5557 47.4695 12.2601 47.1386C11.9326 46.772 11.4824 46.5687 10.9568 46.5687C10.6136 46.5687 10.3211 46.6431 10.0741 46.7597C9.94473 46.4081 9.75837 46.0322 9.48405 45.7146ZM13.2422 51.2302C13.2422 51.2303 13.2435 51.2312 13.2463 51.2321C13.2437 51.2304 13.2423 51.23 13.2422 51.2302ZM5.41052 49.2531C5.41106 49.2544 5.41141 49.2552 5.41157 49.2556L5.411 49.2542L5.41052 49.2531ZM43.6622 95.5043C43.6622 95.5045 43.6622 95.5047 43.6621 95.5049C43.6662 95.4885 43.6655 95.4861 43.6622 95.5043ZM42.8593 110.267L43.6987 110.252C43.7072 110.695 43.3384 111.062 42.8748 111.07C42.4112 111.078 42.0284 110.725 42.0199 110.282L42.8593 110.267ZM5.41157 49.2556C5.41167 49.2559 5.41163 49.2558 5.41157 49.2556V49.2556Z" fill="#414143"/>
<path d="M46.894 5.61982C46.6142 5.61982 46.2775 5.45266 46.2775 5.45266C43.6648 4.44952 41.8988 4.46786 40.5618 4.50503C40.3272 4.51155 40.1066 4.51769 39.8978 4.51769C38.4986 4.51769 37.659 4.25005 36.2598 2.91185C38.4986 3.71477 39.6179 3.17949 39.6179 3.17949C39.6179 3.17949 44.3754 1.30601 46.894 4.78533C49.4126 1.30601 54.1701 3.21085 54.1701 3.21085C54.1701 3.21085 55.2895 3.74613 57.5282 2.94321C56.129 4.28141 55.2895 4.54905 53.8902 4.54905C53.6814 4.54905 53.4608 4.54292 53.2262 4.5364C51.8892 4.49922 50.1232 4.44952 47.5105 5.45266C47.5105 5.45266 47.1739 5.61982 46.894 5.61982Z" fill="#414143"/>
</svg>
