<svg width="166" height="24" viewBox="0 0 166 24" fill="none" xmlns="http://www.w3.org/2000/svg">
<path fill-rule="evenodd" clip-rule="evenodd" d="M30.6634 5.30664H21.2992L19.9822 6.66161V17.37L21.2992 18.6918H30.6634L31.9846 17.37V6.66403L30.6634 5.30664ZM29.3259 16.0144H22.6578V7.98584H29.3259V16.0144ZM15.9897 18.6924H6.62543L5.30664 17.373V6.66463L6.62543 5.30724H15.9897L17.3078 6.66463V9.32272H14.6516V7.98403H7.98222V16.015H14.6516V14.6956H17.3078V17.373L15.9897 18.6924ZM41.3308 5.30664H49.3364L50.6745 6.66403V17.3724L49.3364 18.6942H41.3308L39.9933 17.3724V13.3569H37.3346V18.6936H34.659V5.30664H37.3346V10.6771H39.9933V6.66161L41.3308 5.30664ZM42.6689 16.0144H48.0194V7.98584H42.6689V16.0144ZM64.0307 18.6924H54.6664L53.3482 17.373V14.6956H56.0232V16.015H62.6932V13.3575H58.6801V10.6801H62.6932V7.98403H56.0232V9.32272H53.3482V6.66463L54.6664 5.30724H64.0307L65.3495 6.66463V10.6801L64.0307 12.0188L65.3495 13.3575V17.373L64.0307 18.6924ZM90.2172 5.30664H69.342L68.025 6.66161V17.37L69.342 18.6936H90.2184L91.539 17.3718V6.66403L90.2172 5.30664ZM72.31 14.4212H70.6976V16.0349H72.31V14.4212ZM70.6976 7.96775H77.1366L77.9325 8.78725V12.8214L77.1366 13.6283H70.6976V7.96775ZM72.3106 12.0116H76.3297V9.58142H72.3106V12.0116ZM88.0734 7.96775H80.0202L79.226 8.78423V14.0413L80.0202 14.8355H83.2451V16.0355H84.8582V14.8343H88.0734L88.8797 14.0401V8.78423L88.0734 7.96775ZM83.2451 13.2218H80.8391V9.58142H83.2451V13.2218ZM87.2775 13.2218H84.8582V9.58142H87.2775V13.2218Z" fill="#414143"/>
<path d="M104.844 4L104.844 20" stroke="#414143" stroke-linecap="round"/>
<path d="M116.099 5.86364V17.5H113.991V5.86364H116.099ZM117.871 7.63068V5.86364H127.155V7.63068H123.558V17.5H121.467V7.63068H117.871ZM128.854 17.5V8.77273H130.911V17.5H128.854ZM129.888 7.53409C129.562 7.53409 129.282 7.42614 129.047 7.21023C128.812 6.99053 128.695 6.72727 128.695 6.42045C128.695 6.10985 128.812 5.84659 129.047 5.63068C129.282 5.41098 129.562 5.30114 129.888 5.30114C130.217 5.30114 130.498 5.41098 130.729 5.63068C130.964 5.84659 131.081 6.10985 131.081 6.42045C131.081 6.72727 130.964 6.99053 130.729 7.21023C130.498 7.42614 130.217 7.53409 129.888 7.53409ZM137.384 8.77273V10.3636H132.366V8.77273H137.384ZM133.605 6.68182H135.662V14.875C135.662 15.1515 135.704 15.3636 135.787 15.5114C135.874 15.6553 135.988 15.7538 136.128 15.8068C136.268 15.8598 136.423 15.8864 136.594 15.8864C136.723 15.8864 136.84 15.8769 136.946 15.858C137.056 15.839 137.139 15.822 137.196 15.8068L137.543 17.4148C137.433 17.4527 137.276 17.4943 137.071 17.5398C136.87 17.5852 136.624 17.6117 136.332 17.6193C135.817 17.6345 135.353 17.5568 134.94 17.3864C134.527 17.2121 134.2 16.9432 133.957 16.5795C133.719 16.2159 133.601 15.7614 133.605 15.2159V6.68182ZM141.615 17.6761C141.062 17.6761 140.564 17.5777 140.121 17.3807C139.681 17.1799 139.333 16.8845 139.075 16.4943C138.821 16.1042 138.695 15.6231 138.695 15.0511C138.695 14.5587 138.786 14.1515 138.967 13.8295C139.149 13.5076 139.397 13.25 139.712 13.0568C140.026 12.8636 140.38 12.7178 140.774 12.6193C141.172 12.517 141.583 12.4432 142.007 12.3977C142.518 12.3447 142.933 12.2973 143.251 12.2557C143.57 12.2102 143.801 12.142 143.945 12.0511C144.092 11.9564 144.166 11.8106 144.166 11.6136V11.5795C144.166 11.1515 144.039 10.8201 143.786 10.5852C143.532 10.3504 143.166 10.233 142.689 10.233C142.185 10.233 141.786 10.3428 141.49 10.5625C141.198 10.7822 141.001 11.0417 140.899 11.3409L138.979 11.0682C139.13 10.5379 139.38 10.0947 139.729 9.73864C140.077 9.37879 140.503 9.10985 141.007 8.93182C141.511 8.75 142.068 8.65909 142.678 8.65909C143.098 8.65909 143.517 8.70833 143.933 8.80682C144.35 8.9053 144.731 9.06818 145.075 9.29545C145.42 9.51894 145.696 9.82386 145.905 10.2102C146.117 10.5966 146.223 11.0795 146.223 11.6591V17.5H144.246V16.3011H144.178C144.053 16.5436 143.876 16.7708 143.649 16.983C143.426 17.1913 143.143 17.3598 142.803 17.4886C142.465 17.6136 142.07 17.6761 141.615 17.6761ZM142.149 16.1648C142.562 16.1648 142.92 16.0833 143.223 15.9205C143.526 15.7538 143.759 15.5341 143.922 15.2614C144.089 14.9886 144.172 14.6913 144.172 14.3693V13.3409C144.107 13.3939 143.998 13.4432 143.842 13.4886C143.691 13.5341 143.52 13.5739 143.331 13.608C143.142 13.642 142.954 13.6723 142.768 13.6989C142.583 13.7254 142.422 13.7481 142.286 13.767C141.979 13.8087 141.704 13.8769 141.462 13.9716C141.219 14.0663 141.028 14.1989 140.888 14.3693C140.748 14.536 140.678 14.7519 140.678 15.017C140.678 15.3958 140.816 15.6818 141.092 15.875C141.369 16.0682 141.721 16.1648 142.149 16.1648ZM150.348 12.3864V17.5H148.291V8.77273H150.257V10.2557H150.359C150.56 9.76705 150.88 9.37879 151.32 9.09091C151.763 8.80303 152.31 8.65909 152.962 8.65909C153.564 8.65909 154.089 8.78788 154.536 9.04545C154.986 9.30303 155.335 9.67614 155.581 10.1648C155.831 10.6534 155.954 11.2462 155.95 11.9432V17.5H153.893V12.2614C153.893 11.678 153.742 11.2216 153.439 10.892C153.14 10.5625 152.725 10.3977 152.195 10.3977C151.835 10.3977 151.515 10.4773 151.234 10.6364C150.958 10.7917 150.74 11.017 150.581 11.3125C150.426 11.608 150.348 11.9659 150.348 12.3864ZM164.939 11.0795L163.064 11.2841C163.011 11.0947 162.918 10.9167 162.786 10.75C162.657 10.5833 162.482 10.4489 162.263 10.3466C162.043 10.2443 161.774 10.1932 161.456 10.1932C161.028 10.1932 160.668 10.286 160.376 10.4716C160.089 10.6572 159.946 10.8977 159.95 11.1932C159.946 11.447 160.039 11.6534 160.229 11.8125C160.422 11.9716 160.74 12.1023 161.183 12.2045L162.672 12.5227C163.498 12.7008 164.111 12.983 164.513 13.3693C164.918 13.7557 165.123 14.2614 165.126 14.8864C165.123 15.4356 164.962 15.9205 164.643 16.3409C164.329 16.7576 163.892 17.0833 163.331 17.3182C162.77 17.553 162.126 17.6705 161.399 17.6705C160.331 17.6705 159.471 17.447 158.82 17C158.168 16.5492 157.78 15.9223 157.655 15.1193L159.661 14.9261C159.751 15.3201 159.945 15.6174 160.24 15.8182C160.536 16.0189 160.92 16.1193 161.393 16.1193C161.882 16.1193 162.274 16.0189 162.57 15.8182C162.869 15.6174 163.018 15.3693 163.018 15.0739C163.018 14.8239 162.922 14.6174 162.729 14.4545C162.539 14.2917 162.244 14.1667 161.842 14.0795L160.354 13.767C159.517 13.5928 158.897 13.2992 158.496 12.8864C158.094 12.4697 157.895 11.9432 157.899 11.3068C157.895 10.7689 158.041 10.303 158.337 9.90909C158.636 9.51136 159.051 9.20455 159.581 8.98864C160.115 8.76894 160.731 8.65909 161.428 8.65909C162.45 8.65909 163.255 8.87689 163.842 9.3125C164.433 9.74811 164.799 10.3371 164.939 11.0795Z" fill="#414143"/>
</svg>
