<svg width="110" height="92" viewBox="0 0 110 92" fill="none" xmlns="http://www.w3.org/2000/svg">
<path d="M45.4089 34.1909L45.4067 34.1925L45.4044 34.1942L42.4881 36.4174C42.0554 36.7473 41.8433 37.2801 41.8925 37.8085C41.9581 38.5108 41.9789 39.2116 41.9551 39.9069C41.9368 40.4418 42.1835 40.9659 42.6416 41.2688L45.7914 43.3507C45.9074 43.433 45.9491 43.565 45.9195 43.6846L43.8293 49.1892C43.7753 49.317 43.6457 49.3809 43.5459 49.3641L43.5403 49.3632L43.5347 49.3624L39.7832 48.8398C39.2466 48.7651 38.725 48.9911 38.3903 49.3983C37.9857 49.8909 37.5515 50.3578 37.0879 50.7956C36.701 51.161 36.5069 51.7078 36.6189 52.2505L37.3265 55.6807L37.3268 55.6816C37.3524 55.8049 37.2935 55.9303 37.1655 55.9927L31.8128 58.3989L31.8089 58.4006L31.8051 58.4024C31.6908 58.4567 31.5631 58.4216 31.4937 58.326L31.4919 58.3236L31.4901 58.3212L29.4303 55.5714C29.0979 55.1278 28.5602 54.9163 28.032 54.9716C27.3548 55.0427 26.6743 55.0649 26.0024 55.0419C25.4724 55.0238 24.9524 55.2731 24.6524 55.7373L22.6405 58.8496C22.6403 58.85 22.64 58.8504 22.6397 58.8508C22.5733 58.9501 22.4357 58.9989 22.3139 58.951L22.313 58.9507L22.3122 58.9504L16.8428 56.8326C16.7162 56.7781 16.6532 56.6471 16.6697 56.5466L16.6704 56.5426L16.671 56.5385L17.1969 52.907C17.2777 52.3493 17.0423 51.8088 16.6259 51.4675C16.0703 51.0124 15.5454 50.5074 15.0516 49.9643C14.6908 49.5674 14.1464 49.3707 13.6078 49.4843L10.0619 50.2321L10.0613 50.2322C9.93894 50.2582 9.81471 50.1985 9.75296 50.0693L7.37026 44.6641L7.36858 44.6602L7.36675 44.6563C7.31303 44.5409 7.3477 44.4121 7.44245 44.342L7.44456 44.3404L7.44661 44.3389L10.4168 42.0785C10.8472 41.7509 11.059 41.2231 11.0162 40.6992C10.964 40.0606 10.9519 39.4189 10.9768 38.785C10.9978 38.2468 10.7502 37.7187 10.2887 37.4147L7.30887 35.4515C7.21061 35.3845 7.16244 35.2457 7.20975 35.1228L7.21009 35.1219L7.21043 35.121L9.30756 29.598C9.36157 29.4703 9.49121 29.4063 9.59099 29.4231L9.59595 29.424L9.60091 29.4247L13.1274 29.9273C13.6689 30.0044 14.1951 29.7751 14.531 29.3633C14.9616 28.8353 15.4337 28.3297 15.9392 27.8585C16.3316 27.4928 16.5286 26.9416 16.4149 26.3948L15.6254 22.5971L15.6254 22.5969C15.5997 22.4738 15.6584 22.3486 15.7858 22.2861L21.1373 19.9143L21.1422 19.9122L21.147 19.91C21.2614 19.8556 21.389 19.8907 21.4584 19.9864L21.4602 19.9887L21.4619 19.9911L23.8346 23.1615C24.1591 23.595 24.6808 23.8082 25.1986 23.765C25.8349 23.7119 26.4757 23.6999 27.1136 23.7255C27.6461 23.7468 28.168 23.4965 28.4687 23.0314L30.446 19.9716C30.4462 19.9711 30.4465 19.9707 30.4468 19.9703C30.5132 19.8711 30.6508 19.8223 30.7726 19.8701L30.7735 19.8705L30.7743 19.8708L36.2436 21.9886C36.3702 22.0431 36.4333 22.174 36.4167 22.2746L36.4159 22.2797L36.4151 22.2848L35.898 25.9985C35.8236 26.5326 36.0383 27.0548 36.4338 27.3938C36.8879 27.783 37.3229 28.1959 37.7355 28.6362C38.0975 29.0222 38.6357 29.2134 39.1685 29.1007L42.7897 28.3347L42.79 28.3346C42.9125 28.3086 43.0368 28.3684 43.0985 28.4977L45.4814 33.8697L45.483 33.8731L45.4846 33.8766C45.5384 33.9919 45.5036 34.1207 45.4089 34.1909ZM30.8289 49.3037C36.255 46.8724 38.6967 40.4427 36.2897 34.9644C33.8823 29.4678 27.5148 27.0014 22.0892 29.4497C16.6633 31.8813 14.2218 38.3111 16.6289 43.7894C19.0368 49.2691 25.4041 51.7346 30.8289 49.3037Z" fill="#C9FF22" stroke="#414143"/>
<path d="M95.2341 30.2687L95.2334 30.2694L95.2326 30.2701L93.2888 32.1128C92.8509 32.5281 92.7122 33.1561 92.8837 33.7156C93.2385 34.8726 93.4487 36.0499 93.5093 37.2296C93.5392 37.8176 93.8845 38.3642 94.4436 38.6016L97.0436 39.7056C97.1852 39.7706 97.2268 39.9011 97.2027 39.9882L97.2013 39.9947L97.1998 40.0011L96.3436 43.5625L96.3421 43.5686L96.3407 43.5746C96.3166 43.6908 96.1991 43.7851 96.0677 43.7791C96.0669 43.7791 96.0662 43.779 96.0662 43.779L93.4173 43.6077C92.791 43.5672 92.2261 43.9251 91.9487 44.4652C91.4049 45.5242 90.7239 46.5138 89.9159 47.4164C89.5144 47.8649 89.3808 48.5193 89.6319 49.0939L90.5889 51.2839V51.2845L90.5896 51.2849C90.6377 51.3947 90.602 51.5452 90.4801 51.6317L87.4458 53.6296L87.4414 53.6324L87.437 53.6352C87.3399 53.7028 87.191 53.6883 87.102 53.5916V53.5911L87.1013 53.5906L85.4363 51.7916C85.0188 51.3412 84.3852 51.2039 83.8261 51.3866C82.5852 51.7915 81.3107 52.0196 80.0458 52.0653C79.4545 52.0866 78.8991 52.4367 78.6604 53.0112L77.621 55.5081L77.6195 55.5132L77.6173 55.5183C77.5757 55.6262 77.448 55.6969 77.321 55.6631L77.3173 55.6622L77.3137 55.6612L73.7867 54.7963L73.7808 54.7948L73.775 54.7936C73.6597 54.7691 73.5662 54.6506 73.5721 54.5183C73.5721 54.5177 73.5721 54.517 73.5728 54.5164L73.7421 51.8855C73.7823 51.2585 73.4341 50.6911 72.9069 50.4078C71.9786 49.9092 71.0952 49.2947 70.2838 48.575C69.8518 48.1918 69.2336 48.0589 68.68 48.2864L66.0004 49.3879L65.9945 49.3903L65.9886 49.3929C65.8775 49.4429 65.7418 49.4015 65.6748 49.2865L65.6729 49.2832L65.6708 49.2799L63.7755 46.1633C63.7038 46.0378 63.7291 45.9 63.8283 45.8132L63.8296 45.8121L63.8309 45.811L65.8125 44.0468C66.2848 43.6264 66.4331 42.9659 66.2454 42.3841C65.8659 41.2072 65.643 40.003 65.5708 38.8012C65.535 38.2044 65.1735 37.655 64.6005 37.4291L62.1553 36.4652C62.0091 36.4011 61.951 36.2674 61.9765 36.1445C61.9765 36.1444 61.9766 36.1442 61.9766 36.1441L62.7321 32.5668L62.7322 32.5663L62.7323 32.5657C62.7622 32.4224 62.8849 32.3389 62.9901 32.3445L62.9937 32.3446L62.9972 32.3448L65.6352 32.4375C66.2484 32.4591 66.7949 32.1008 67.062 31.5683C67.5964 30.5028 68.2644 29.4966 69.0657 28.5856C69.4499 28.1489 69.5855 27.5203 69.3586 26.9568L68.2029 24.0873L68.2005 24.0813L68.1979 24.0754C68.1486 23.9632 68.1894 23.8263 68.3033 23.7586L68.3066 23.7567L68.3098 23.7546L71.396 21.8407C71.5205 21.7682 71.657 21.7939 71.743 21.894L71.7441 21.8953L71.7453 21.8967L73.6283 24.0528C74.0436 24.5282 74.6947 24.6778 75.2691 24.4921C76.3246 24.151 77.4071 23.9437 78.4947 23.8648C79.0823 23.8222 79.6195 23.4552 79.8392 22.8785L80.8319 20.2716C80.8954 20.1247 81.0275 20.0661 81.1494 20.0918C81.1494 20.0918 81.1494 20.0919 81.1502 20.0919L84.6925 20.8548L84.6932 20.855V20.855C84.8356 20.8853 84.918 21.0092 84.9129 21.1153L84.9122 21.119V21.1227L84.8202 23.8239C84.7991 24.4527 85.1648 25.0102 85.7027 25.2758C86.8757 25.8549 87.9662 26.5996 88.948 27.5037C89.3932 27.9138 90.0458 28.0508 90.6188 27.7938L92.9502 26.7475C93.0589 26.6987 93.2078 26.7351 93.2932 26.8578L95.2721 29.9224L95.2742 29.9265L95.2772 29.9307C95.3443 30.0289 95.3297 30.1788 95.2341 30.2687ZM84.5144 46.2265V46.2263C89.037 43.4472 90.4575 37.4992 87.7049 32.9495C84.9531 28.3827 79.0633 26.9488 74.5582 29.7276C70.0356 32.5069 68.6156 38.4551 71.3679 43.0047C74.1202 47.5545 80.0093 48.9877 84.5144 46.2265Z" fill="#E83D46" stroke="#414143"/>
<path d="M63.3837 13.1061L63.3913 13.1077L63.399 13.1089C63.4982 13.1257 63.6062 13.2387 63.6177 13.3673V17.5762C63.6177 17.7092 63.5292 17.8153 63.4115 17.8417L63.4107 17.8419L63.4099 17.8421L60.8267 18.4325C60.3081 18.551 59.9065 18.9355 59.7266 19.4179C59.651 19.6207 59.5705 19.8194 59.4839 20.015C59.2722 20.493 59.2841 21.0664 59.5818 21.5302L60.9953 23.7325L60.9983 23.7371L61.0013 23.7417C61.0683 23.8401 61.0561 23.9804 60.9643 24.0731L57.9414 27.1257C57.8473 27.2207 57.7159 27.234 57.615 27.1703L57.6143 27.1699L57.6136 27.1694L55.3116 25.7303C54.8674 25.4526 54.3256 25.4379 53.8673 25.6393C53.7252 25.7017 53.5813 25.7617 53.4361 25.8191C52.9626 26.0066 52.5908 26.416 52.4799 26.9371L51.8877 29.7184L51.8875 29.7193L51.8874 29.7201C51.8588 29.8575 51.7518 29.9408 51.6253 29.9408H47.326C47.1941 29.9408 47.0891 29.8514 47.0629 29.7326L47.0625 29.7306L47.062 29.7284L46.4341 27.013C46.3109 26.4801 45.9165 26.0759 45.4346 25.8959C45.2304 25.8197 45.0283 25.7366 44.8289 25.648C44.361 25.44 43.8065 25.4603 43.3587 25.7528L41.0791 27.2416L41.0742 27.2447L41.0696 27.2479C40.9721 27.3156 40.8329 27.3031 40.7412 27.2105L37.7183 24.1579C37.6242 24.0629 37.6111 23.9303 37.674 23.8286L39.093 21.536C39.3858 21.0628 39.3839 20.4858 39.1683 20.0104C39.0894 19.8362 39.0153 19.658 38.9453 19.477C38.7592 18.9963 38.3517 18.6189 37.8323 18.5085L35.2499 17.9595C35.1138 17.9306 35.0312 17.8225 35.0312 17.6949V13.4721C35.0312 13.3391 35.1197 13.233 35.2375 13.2065L35.2388 13.2062L35.2402 13.206L37.6833 12.6397C38.2187 12.5156 38.6261 12.1091 38.7971 11.6074C38.8872 11.3432 38.9856 11.0867 39.0934 10.8368C39.2978 10.3628 39.2829 9.79813 38.99 9.34028L37.5869 7.14677L37.5837 7.1419L37.5804 7.13711C37.5134 7.03868 37.5258 6.8983 37.6175 6.8057L40.6404 3.75303C40.7345 3.658 40.8658 3.64473 40.9667 3.70843L40.9672 3.70872L40.9677 3.70902L43.1388 5.07086C43.5932 5.35582 44.1483 5.36438 44.6124 5.1513C44.8773 5.02972 45.1477 4.91846 45.4223 4.81635C45.9081 4.63594 46.294 4.22409 46.4098 3.69339L46.9286 1.31563L46.9287 1.31534C46.9549 1.19671 47.0599 1.10742 47.1917 1.10742H51.4909C51.6228 1.10742 51.7278 1.19686 51.754 1.31563L51.7546 1.31851L51.7553 1.32138L52.3352 3.78636C52.4567 4.30327 52.8345 4.70104 53.3036 4.88344C53.5115 4.96425 53.7164 5.05088 53.9189 5.1426C54.3879 5.35501 54.9438 5.33319 55.3913 5.04063L57.4861 3.67105L57.4908 3.66795L57.4954 3.66478C57.5929 3.59702 57.7321 3.60948 57.8239 3.70216L60.8467 6.75483C60.9408 6.84979 60.9539 6.98235 60.891 7.08403L59.541 9.26515C59.2599 9.71946 59.2463 10.2774 59.4586 10.7459C59.5813 11.0165 59.6934 11.2894 59.7928 11.5661C59.9741 12.0707 60.3928 12.4823 60.9429 12.597L63.3837 13.1061ZM47.4705 23.3134C51.8172 24.3304 56.1646 21.6006 57.1721 17.2099C58.1793 12.8203 55.4759 8.43009 51.128 7.41271C46.7815 6.3957 42.434 9.12543 41.4265 13.5162C40.4194 17.9058 43.1227 22.2961 47.4705 23.3134Z" fill="#812D9C" stroke="#414143"/>
<path d="M59.0691 43.7236L59.0739 43.7258L59.0786 43.7278L61.7096 44.8277C61.8413 44.8889 61.9046 45.0226 61.8796 45.1493L61.3897 47.3057C61.2529 47.9078 61.4964 48.5111 61.9493 48.881C62.5686 49.3869 63.1237 49.9529 63.6108 50.5671C63.9799 51.0326 64.5871 51.2816 65.1902 51.1355L67.3298 50.6174C67.4549 50.593 67.5866 50.6571 67.6468 50.7895L68.734 53.4414C68.7858 53.58 68.7321 53.7147 68.6348 53.7726L68.6299 53.7755L68.6251 53.7785L66.7248 54.9811C66.2086 55.3077 65.9578 55.9051 66.0173 56.4885C66.1288 57.5833 66.0829 58.7018 65.864 59.812C65.7389 60.4459 65.9878 61.1282 66.5627 61.4826L68.1368 62.4527C68.2678 62.5406 68.2999 62.6867 68.2531 62.7931L68.2511 62.7978L68.249 62.8027L67.1598 65.4591C67.0994 65.5918 66.9673 65.656 66.8419 65.6309L64.4006 65.0551C63.8554 64.9268 63.3041 65.1207 62.931 65.5048C62.5801 65.8668 62.2049 66.2023 61.8122 66.5112C61.3397 66.8836 61.0899 67.5058 61.2391 68.1207L61.6785 69.9315C61.7024 70.0576 61.6389 70.1903 61.5081 70.2508L58.8819 71.3486C58.7445 71.4009 58.611 71.3471 58.5537 71.2483L58.5512 71.2446L58.5486 71.2402L57.5231 69.5754C57.2017 69.0541 56.6121 68.799 56.0351 68.8558C55.2866 68.9303 54.5243 68.9281 53.7635 68.847C53.1775 68.785 52.5768 69.0453 52.2552 69.5784L51.2346 71.2719C51.1476 71.4039 51.0029 71.4363 50.8975 71.3891L50.8927 71.3869L50.888 71.3847L48.2571 70.2847C48.1244 70.2235 48.061 70.0878 48.0876 69.961V69.9603L48.4926 68.0153C48.6173 67.4159 48.3686 66.8224 47.9165 66.4596C47.2322 65.9111 46.6189 65.2851 46.0897 64.6002C45.7216 64.1239 45.1064 63.8666 44.4947 64.0155L42.3847 64.5294C42.2597 64.5537 42.1281 64.4896 42.0679 64.3569L40.9806 61.7051C40.9289 61.5665 40.9826 61.4318 41.08 61.374L41.0844 61.3714L41.0888 61.3686L43.0693 60.1218C43.5762 59.8028 43.8302 59.2211 43.7828 58.6464C43.7521 58.2738 43.7382 57.8971 43.7411 57.521C43.7453 56.9807 43.4845 56.4531 43.0079 56.1599L40.6541 54.7119C40.5232 54.624 40.4911 54.478 40.5379 54.3716L40.54 54.3668L40.542 54.3621L41.6313 51.7052C41.6917 51.5724 41.8241 51.5083 41.9496 51.5335L43.9902 52.0091C44.6391 52.1603 45.2829 51.8569 45.6356 51.3264C46.2181 50.4502 46.9119 49.6793 47.6873 49.0189C48.129 48.6428 48.3589 48.0411 48.2161 47.4468L47.6836 45.2321C47.6596 45.1061 47.723 44.9733 47.854 44.9125L50.4802 43.8146C50.6175 43.7623 50.751 43.8165 50.8083 43.9149L50.8109 43.9194L50.8136 43.9237L51.9421 45.752C52.2736 46.2892 52.8882 46.5422 53.4805 46.4635C54.3396 46.3494 55.2185 46.334 56.0956 46.4302C56.684 46.4947 57.29 46.2356 57.6137 45.698L58.732 43.841C58.819 43.7088 58.9637 43.6764 59.0691 43.7236ZM51.6215 65.6892L51.6223 65.6899C56.008 67.5221 61.0623 65.4237 62.8942 60.9773C64.7267 56.5467 62.6469 51.4591 58.2443 49.6097C53.8412 47.7599 48.8032 49.859 46.9714 54.3055C45.1397 58.7522 47.2184 63.84 51.6215 65.6892Z" fill="#39B52C" stroke="#414143"/>
<path d="M107.633 57.717L106.832 57.3372C106.467 57.1638 106.232 56.8006 106.18 56.3962C106.154 56.1996 106.122 56.0045 106.082 55.8111C105.999 55.4138 106.096 54.993 106.377 54.7038L107.012 54.0539C107.23 53.8333 107.264 53.4772 107.112 53.2229L105.869 51.2217C105.701 50.9503 105.366 50.8316 105.064 50.9503L104.265 51.2444C103.879 51.3866 103.45 51.2937 103.126 51.0375C102.953 50.9 102.772 50.7684 102.588 50.6426C102.266 50.4238 102.057 50.0652 102.057 49.6733V48.6269C102.057 48.3047 101.839 48.0334 101.537 47.9656L99.2526 47.4398C98.9504 47.372 98.6314 47.5246 98.4971 47.8129L98.0964 48.6706C97.9197 49.0492 97.546 49.2875 97.1343 49.3362C96.8883 49.3652 96.6467 49.4065 96.4073 49.4595C96.0146 49.5465 95.5978 49.4499 95.311 49.165L94.735 48.593C94.5168 48.3725 94.1642 48.3386 93.9124 48.4913L91.9307 49.7463C91.662 49.9158 91.5445 50.255 91.6621 50.5603L91.9204 51.2812C92.0606 51.6715 91.9679 52.1043 91.7131 52.4304C91.5708 52.6134 91.435 52.803 91.308 52.9979C91.0876 53.3366 90.7234 53.562 90.3219 53.562H89.4788C89.1599 53.562 88.8905 53.7825 88.8234 54.0878L88.3029 56.3942C88.2358 56.6995 88.3869 57.0217 88.6723 57.1573L89.3504 57.4772C89.727 57.6553 89.965 58.0347 90.0131 58.4522C90.0467 58.7427 90.0971 59.0306 90.1613 59.3132C90.2526 59.7126 90.1569 60.1383 89.8723 60.4305L89.3277 60.9901C89.1095 61.2106 89.0752 61.5667 89.227 61.8211L90.4694 63.8219C90.6372 64.094 90.973 64.2127 91.2752 64.094L92.038 63.8212C92.4168 63.6861 92.835 63.7762 93.1526 64.0247C93.3628 64.1898 93.5825 64.3446 93.8095 64.4884C94.1613 64.7103 94.3993 65.0878 94.3993 65.5066V66.3493C94.3993 66.6715 94.6175 66.9428 94.9197 67.0107L97.2037 67.5364C97.5058 67.6042 97.8248 67.4516 97.9599 67.1633L98.3518 66.3213C98.5241 65.9519 98.884 65.7153 99.284 65.6592C99.4913 65.6305 99.6964 65.5936 99.8985 65.5494C100.291 65.4624 100.707 65.5597 100.993 65.8443L101.62 66.468C101.839 66.6885 102.191 66.7224 102.444 66.5698L104.425 65.3149C104.694 65.1453 104.812 64.8062 104.694 64.5009L104.393 63.6464C104.258 63.2636 104.345 62.8404 104.591 62.5186C104.747 62.3142 104.895 62.1011 105.034 61.8804C105.251 61.5381 105.616 61.3123 106.018 61.3123H106.861C107.18 61.3123 107.448 61.0919 107.515 60.7866L108.036 58.4802C108.069 58.1749 107.918 57.8527 107.633 57.717ZM96.7504 63.3983C95.2891 63.0591 94.0803 62.2112 93.2569 61.0749L92.7869 60.3118C92.1657 59.1076 91.9307 57.7001 92.2161 56.2755L92.2832 56.0041C92.6358 54.5965 93.4584 53.4433 94.5336 52.6293L95.3226 52.1374C96.5489 51.493 97.9934 51.2725 99.454 51.6118C102.679 52.3749 104.694 55.614 103.938 58.8872C103.182 62.1603 99.9745 64.1618 96.7504 63.3983Z" fill="#ECA73E"/>
<path fill-rule="evenodd" clip-rule="evenodd" d="M107.515 60.7866L108.036 58.4802C108.069 58.1749 107.918 57.8527 107.633 57.717L106.832 57.3372C106.467 57.1638 106.232 56.8006 106.18 56.3962C106.154 56.1996 106.122 56.0045 106.082 55.8111C105.999 55.4138 106.096 54.993 106.377 54.7038L107.012 54.0539C107.23 53.8333 107.264 53.4772 107.112 53.2229L105.869 51.2217C105.701 50.9503 105.366 50.8316 105.064 50.9503L104.265 51.2444C103.879 51.3866 103.45 51.2937 103.126 51.0375C102.953 50.9 102.772 50.7684 102.588 50.6426C102.266 50.4238 102.057 50.0652 102.057 49.6733V48.6269C102.057 48.3047 101.839 48.0334 101.537 47.9656L99.2526 47.4398C98.9504 47.372 98.6314 47.5246 98.4971 47.8129L98.0964 48.6706C97.9197 49.0492 97.546 49.2875 97.1343 49.3362C96.8883 49.3652 96.6467 49.4065 96.4073 49.4595C96.0146 49.5465 95.5978 49.4499 95.311 49.165L94.735 48.593C94.5168 48.3725 94.1642 48.3386 93.9124 48.4913L91.9307 49.7463C91.662 49.9158 91.5445 50.255 91.6621 50.5603L91.9204 51.2812C92.0606 51.6715 91.9679 52.1043 91.7131 52.4304C91.5708 52.6134 91.435 52.803 91.308 52.9979C91.0876 53.3366 90.7234 53.562 90.3219 53.562H89.4788C89.1599 53.562 88.8905 53.7825 88.8234 54.0878L88.3029 56.3942C88.2358 56.6995 88.3869 57.0217 88.6723 57.1573L89.3504 57.4772C89.727 57.6553 89.965 58.0347 90.0131 58.4522C90.0467 58.7427 90.0971 59.0306 90.1613 59.3132C90.2526 59.7126 90.1569 60.1383 89.8723 60.4305L89.3277 60.9901C89.1095 61.2106 89.0752 61.5667 89.227 61.8211L90.4694 63.8219C90.6372 64.094 90.973 64.2127 91.2752 64.094L92.038 63.8212C92.4168 63.6861 92.835 63.7762 93.1526 64.0247C93.3628 64.1898 93.5825 64.3446 93.8095 64.4884C94.1613 64.7103 94.3993 65.0878 94.3993 65.5066V66.3493C94.3993 66.6715 94.6175 66.9428 94.9197 67.0107L97.2037 67.5364C97.5058 67.6042 97.8248 67.4516 97.9599 67.1633L98.3518 66.3213C98.5241 65.9519 98.884 65.7153 99.284 65.6592C99.4913 65.6305 99.6964 65.5936 99.8985 65.5494C100.291 65.4624 100.707 65.5597 100.993 65.8443L101.62 66.468C101.839 66.6885 102.191 66.7224 102.444 66.5698L104.425 65.3149C104.694 65.1453 104.812 64.8062 104.694 64.5009L104.393 63.6464C104.258 63.2636 104.345 62.8404 104.591 62.5186C104.747 62.3142 104.895 62.1011 105.034 61.8804C105.251 61.5381 105.616 61.3123 106.018 61.3123H106.861C107.18 61.3123 107.448 61.0919 107.515 60.7866ZM102.115 65.8207L103.907 64.686L103.636 63.9185C103.399 63.2451 103.564 62.5364 103.955 62.0237C104.096 61.8382 104.231 61.6446 104.358 61.4438C104.704 60.8963 105.311 60.5013 106.018 60.5013H106.756L107.226 58.4199L106.491 58.0712C105.847 57.7657 105.466 57.1441 105.383 56.5013C105.361 56.3243 105.331 56.1495 105.296 55.9771C105.167 55.3541 105.308 54.6447 105.806 54.1347L106.371 53.5552L105.247 51.7459L104.54 52.0063C103.86 52.2567 103.144 52.0818 102.631 51.6759C102.474 51.5512 102.309 51.431 102.139 51.3155C101.618 50.9617 101.254 50.362 101.254 49.6733V48.7323L99.1781 48.2546L98.8226 49.0163C98.511 49.6847 97.8723 50.0654 97.227 50.1417C97.0088 50.1675 96.7934 50.2043 96.5796 50.2517C95.9584 50.3892 95.2533 50.2457 94.7475 49.7432L94.2416 49.24L92.4496 50.3749L92.6752 51.0047C92.9219 51.6923 92.7475 52.4156 92.3438 52.9324C92.2153 53.0974 92.0927 53.2683 91.9788 53.4435C91.6307 53.9785 91.0292 54.373 90.3219 54.373H89.5825L89.1095 56.4686L89.6898 56.7425C90.3548 57.0565 90.735 57.7036 90.811 58.3582C90.8409 58.6179 90.8854 58.8765 90.9438 59.1311C91.0883 59.7645 90.946 60.4846 90.4445 60.9993L89.9679 61.4888L91.092 63.2989L91.7701 63.0568C92.4372 62.8185 93.138 62.9873 93.6445 63.3836C93.8343 63.5327 94.0321 63.6723 94.235 63.8005C94.7854 64.1478 95.2022 64.7678 95.2022 65.5066V66.2439L97.2781 66.7217L97.6256 65.9755C97.9285 65.3252 98.5438 64.9433 99.1752 64.8563C99.3613 64.8305 99.5453 64.7973 99.727 64.7568C100.348 64.6197 101.053 64.7649 101.557 65.2663L102.115 65.8207ZM92.2832 56.0041C92.6358 54.5965 93.4584 53.4433 94.5336 52.6293L95.3226 52.1374C96.5489 51.493 97.9934 51.2725 99.454 51.6118C102.679 52.3749 104.694 55.614 103.938 58.8872C103.182 62.1603 99.9745 64.1618 96.7504 63.3983C95.2891 63.0591 94.0803 62.2112 93.2569 61.0749L92.7869 60.3118C92.1657 59.1076 91.9307 57.7001 92.2161 56.2755L92.2832 56.0041ZM96.5686 64.1883C100.224 65.0524 103.864 62.7814 104.72 59.0714C105.577 55.3589 103.29 51.6865 99.6372 50.8221L99.6358 50.8217L99.6343 50.8213C97.9818 50.4378 96.3423 50.6871 94.9526 51.4181L94.9263 51.4317L94.081 51.9583L94.0518 51.9804C92.8423 52.8964 91.9058 54.2032 91.5051 55.8051L91.5044 55.8063L91.4329 56.0965L91.4292 56.1146C91.1051 57.7301 91.373 59.3261 92.0752 60.6866L92.0891 60.714L92.5912 61.5292L92.6095 61.5537C93.5416 62.8411 94.9139 63.8035 96.5686 64.1883Z" fill="#414143"/>
<g clip-path="url(#clip0_1676_7354)">
<path d="M109.51 78H100.445C100.176 78 99.9551 78.2224 99.9551 78.4941V81.9612C99.9551 82.2329 100.176 82.4553 100.445 82.4553H102.96V91.3412C102.96 91.6129 103.181 91.8353 103.45 91.8353H106.513C106.782 91.8353 107.003 91.6129 107.003 91.3412V82.4553H109.518C109.787 82.4553 110.008 82.2329 110.008 81.9612V78.4941C110 78.2224 109.779 78 109.51 78Z" fill="#414143"/>
<path d="M88.115 91.8353C87.8455 91.8353 87.625 91.6129 87.625 91.3412V78.4941C87.625 78.2224 87.8455 78 88.115 78H91.1528C91.4223 78 91.6428 78.2224 91.6428 78.4941V84.2506L94.8767 78.2635C94.9665 78.1071 95.1298 78.0082 95.3095 78.0082H98.2412C98.5107 78.0082 98.7312 78.2306 98.7312 78.5024V91.3494C98.7312 91.6212 98.5107 91.8435 98.2412 91.8435H95.2033C94.9338 91.8435 94.7133 91.6212 94.7133 91.3494V85.56L91.4958 91.5718C91.406 91.7282 91.2427 91.8271 91.063 91.8271H88.115V91.8353Z" fill="#414143"/>
<path d="M74.3287 78H71.5521C71.348 78 71.1683 78.1235 71.0948 78.3129L69.1512 83.4024L67.2403 78.3212C67.1668 78.1318 66.9872 78 66.783 78H63.6717C63.3287 78 63.0918 78.3459 63.2143 78.6671L66.9055 88.3682C66.7177 88.5247 66.44 88.6071 66.0807 88.6071C65.8439 88.6071 65.5907 88.5576 65.3294 88.4588C65.1906 88.4012 64.6516 88.1129 64.1616 87.8329C63.8105 87.6271 63.3042 87.9153 63.3042 88.3271V90.6906C63.3042 90.8388 63.3695 90.9871 63.492 91.0694C63.8023 91.2753 64.178 91.44 64.6271 91.5718C65.1906 91.7447 65.7377 91.8271 66.2767 91.8271C66.9708 91.8271 67.5996 91.72 68.1795 91.5141C68.7674 91.3082 69.2901 90.9459 69.7555 90.4271C70.2374 89.9082 70.6538 89.1918 71.0132 88.2694L74.786 78.6753C74.9085 78.3541 74.6717 78 74.3287 78Z" fill="#414143"/>
<path d="M41.1341 91.7933C40.8157 91.7933 40.5625 91.538 40.5625 91.2168V90.1956C40.5625 89.8744 40.8157 89.6191 41.1341 89.6191H48.9738C49.2923 89.6191 49.5454 89.8744 49.5454 90.1956V91.2168C49.5454 91.538 49.2923 91.7933 48.9738 91.7933H41.1341Z" fill="#414143"/>
<path d="M41.2401 78H33.4822C33.2127 78 32.9922 78.2224 32.9922 78.4941V91.4235C32.9922 91.6953 33.2127 91.9176 33.4822 91.9176H35.8096C36.079 91.9176 36.2995 91.6953 36.2995 91.4235V81.64H41.2401C41.5096 81.64 41.7301 81.4176 41.7301 81.1459V78.4941C41.7301 78.2224 41.5096 78 41.2401 78Z" fill="#414143"/>
<path d="M51.8552 91.8353C51.5857 91.8353 51.3652 91.6129 51.3652 91.3412V78.4941C51.3652 78.2224 51.5857 78 51.8552 78H54.7624C55.0319 78 55.2524 78.2224 55.2524 78.4941C55.2524 79.0624 55.2687 82.4718 55.2687 83.1141L55.4484 86.8447V91.3412C55.4484 91.6129 55.2279 91.8353 54.9584 91.8353H51.8552Z" fill="#414143"/>
<path d="M54.3055 79.7715H59.5319C59.9157 79.7715 60.226 80.0844 60.226 80.4715V85.7421C60.226 86.1291 59.9157 86.4421 59.5319 86.4421H54.3055C53.9216 86.4421 53.6113 86.1291 53.6113 85.7421V80.4715C53.6113 80.0844 53.9216 79.7715 54.3055 79.7715Z" stroke="#414143" stroke-width="4"/>
<path d="M21.9843 91.9173C21.7067 91.9173 21.4862 91.6867 21.4944 91.3985L22.0007 78.4773C22.0088 78.2138 22.2293 77.9997 22.4906 77.9997H23.4379C23.8381 78.0491 24.8344 77.7938 24.8425 78.4773L25.3734 91.3985C25.3815 91.6785 25.161 91.9173 24.8834 91.9173H21.9843Z" fill="#414143"/>
<path d="M18.2117 79.7715H28.6646C29.0484 79.7715 29.3587 80.0844 29.3587 80.4715V85.8244C29.3587 86.2115 29.0484 86.5244 28.6646 86.5244H18.2117C17.8279 86.5244 17.5176 86.2115 17.5176 85.8244V80.4715C17.5176 80.0844 17.8279 79.7715 18.2117 79.7715Z" stroke="#414143" stroke-width="4"/>
<path fill-rule="evenodd" clip-rule="evenodd" d="M86.1302 91.3408L83.4762 78.6584C83.3945 78.2796 83.0597 78.0078 82.6759 78.0078H78.1926C77.8088 78.0078 77.4821 78.2713 77.4005 78.6502L74.5178 91.3408C74.4606 91.596 74.6566 91.8431 74.9179 91.8431H79.0092C79.2216 91.8431 79.4012 91.6784 79.4176 91.4643L80.3567 79.8855L81.3856 91.456C81.402 91.6702 81.5816 91.8349 81.7939 91.8349H85.7383C85.9914 91.8349 86.1874 91.596 86.1302 91.3408Z" fill="#414143"/>
<path d="M13.801 83.7071C14.0705 83.7071 14.291 83.4847 14.291 83.2129V81.22C14.291 80.9482 14.0705 80.7259 13.801 80.7259H11.2613V78.4941C11.2613 78.2224 11.0408 78 10.7713 78H8.62361C8.35412 78 8.13363 78.2224 8.13363 78.4941V80.7259H6.19822V78.4941C6.19822 78.2224 5.97773 78 5.70824 78H3.5605C3.29102 78 3.07053 78.2224 3.07053 78.4941V80.7259H0.489978C0.22049 80.7259 0 80.9482 0 81.22V83.2129C0 83.4847 0.22049 83.7071 0.489978 83.7071H3.07053V86.1941L0.489978 86.2106C0.22049 86.2106 0 86.4329 0 86.7047V88.6976C0 88.9694 0.22049 89.1918 0.489978 89.1918L3.07053 89.1753V91.4235C3.07053 91.6953 3.29102 91.9176 3.5605 91.9176H5.70824C5.97773 91.9176 6.19822 91.6953 6.19822 91.4235V89.1588L8.13363 89.1506V91.4235C8.13363 91.6953 8.35412 91.9176 8.62361 91.9176H10.7713C11.0408 91.9176 11.2613 91.6953 11.2613 91.4235V89.1341L13.801 89.1176C14.0705 89.1176 14.291 88.8953 14.291 88.6235V86.6306C14.291 86.3588 14.0705 86.1365 13.801 86.1365L11.2613 86.1529V83.7071H13.801ZM8.13363 86.1694L6.19822 86.1776V83.7071H8.13363V86.1694Z" fill="#414143"/>
</g>
<defs>
<clipPath id="clip0_1676_7354">
<rect width="110" height="14" fill="white" transform="translate(0 78)"/>
</clipPath>
</defs>
</svg>
