<svg width="810" height="27" viewBox="0 0 810 27" fill="none" xmlns="http://www.w3.org/2000/svg">
<path fill-rule="evenodd" clip-rule="evenodd" d="M190.408 0.330506C190.408 0.510786 189.645 0.600955 188.628 0.510815C187.611 0.420675 186.466 0.420668 186.085 0.540855C185.576 0.630995 183.669 0.781228 181.889 0.841321C179.981 0.901414 177.692 1.17183 176.675 1.44225C175.785 1.71267 175.276 1.77277 175.785 1.56245C176.166 1.38217 176.039 1.20187 175.276 1.20187C174.64 1.20187 173.877 1.29203 173.623 1.41221C173.369 1.56245 171.589 1.98308 169.554 2.40373C167.519 2.82439 166.248 2.97464 166.756 2.76431C168.155 2.19343 166.121 2.34366 162.687 3.06478C160.907 3.45539 160.017 3.54551 160.525 3.30513C161.543 2.91453 161.416 2.91453 159.127 3.30513C157.855 3.54551 156.329 3.87602 155.821 4.0563C155.312 4.20653 154.295 4.38681 153.532 4.38681C150.607 4.47694 150.48 4.53705 152.26 4.80747C153.532 5.01779 153.659 5.10792 152.641 5.13797C151.751 5.16802 150.48 5.19808 149.717 5.22813C149.081 5.22813 148.572 5.3483 148.827 5.43844C149.335 5.76895 144.376 6.91074 143.232 6.73046C142.596 6.64032 141.706 6.79054 141.197 7.091C140.816 7.36142 138.781 7.96236 136.746 8.41306C134.839 8.86376 133.186 9.46471 133.186 9.73513C133.186 10.0055 132.677 10.2459 131.914 10.2459C131.278 10.276 130.134 10.306 129.498 10.3361C128.862 10.3361 127.845 10.4863 127.209 10.6365C126.573 10.8168 126.955 10.8168 127.972 10.6666C129.371 10.4863 129.625 10.5464 128.99 10.937C128.481 11.2375 128.099 11.5079 128.099 11.598C128.099 11.6581 127.209 11.6281 126.192 11.5379C125.048 11.4177 123.903 11.568 123.394 11.8985C122.886 12.229 121.487 12.7398 120.215 13.0403C119.071 13.3407 118.308 13.7013 118.562 13.8215C118.944 13.9417 117.545 14.1219 115.638 14.2121C112.967 14.3623 111.568 14.2121 109.407 13.5811C107.754 13.1304 106.482 12.6496 106.482 12.4694C106.482 12.1088 100.251 10.8168 98.471 10.8168C97.708 10.8168 97.5808 10.7267 97.9623 10.6065C98.4709 10.5163 97.4537 10.1257 95.6734 9.73513C93.8931 9.34452 93.003 8.9539 93.766 8.86376C94.5289 8.77362 95.0376 8.50323 94.9105 8.32295C94.9105 8.05253 94.6561 8.05253 94.1474 8.32295C93.766 8.59337 92.8759 8.62339 91.35 8.41306C90.0784 8.26283 88.6796 8.20273 88.4252 8.29287C88.0438 8.38301 87.4079 8.11259 86.8993 7.69194C86.2635 7.091 84.8647 6.85064 80.6684 6.61027C77.7437 6.46003 73.8017 6.09946 71.8943 5.88914C68.7153 5.49853 68.2067 5.49855 67.0622 5.94925C66.2992 6.27977 65.7906 6.30982 65.7906 6.06945C65.7906 5.76898 64.3918 5.70886 59.814 5.88914C51.93 6.15956 48.6239 6.46003 45.1905 7.2112C43.6646 7.54171 41.63 7.81213 40.7399 7.81213C39.8498 7.81213 39.0868 7.93232 39.0868 8.1126C39.0868 8.26283 38.1967 8.41306 37.0522 8.41306C35.272 8.41306 35.272 8.5032 36.5436 8.86376C37.4337 9.10414 37.688 9.3445 37.0522 9.3445C31.2028 9.52478 27.5152 10.0056 28.2781 10.4262C28.6596 10.7567 28.4053 10.8168 27.0065 10.6966C25.6077 10.5764 24.5905 10.7867 23.8275 11.2975C23.0645 11.7182 21.6657 12.3792 20.5213 12.7098L18.4867 13.3708L19.3769 12.6797C20.267 11.9886 20.267 11.9586 17.8509 12.5295C16.4521 12.8299 15.9435 13.1604 16.4521 13.2506C16.9608 13.3407 16.7064 13.6712 15.6892 13.9717C14.4175 14.3623 14.2904 14.7229 15.0534 15.0834C15.8163 15.3839 15.6892 15.6543 14.9262 15.7745C14.2904 15.8646 13.6546 15.7144 13.6546 15.414C13.6546 14.9933 13.4003 14.9632 12.5101 15.2938C11.8743 15.5041 10.8571 15.6243 10.0941 15.5041C9.45828 15.4139 8.56815 15.6243 8.0595 16.0149C6.91505 17.0665 7.16938 17.1566 9.96692 16.8261C12.383 16.5257 12.5101 16.5257 11.2385 17.0665C10.3484 17.4571 8.94964 17.6074 7.55087 17.5172C6.02493 17.4271 5.26198 17.5773 5.13482 18.028C4.88049 18.5388 5.38913 18.6289 7.55087 18.4487C9.33112 18.3285 9.83976 18.3886 9.33111 18.5989C8.82247 18.7792 7.42373 18.9294 6.02496 18.9294C4.75335 18.9294 3.35455 19.1397 2.97306 19.4101C2.46442 19.7106 2.71876 19.8008 3.86321 19.6505C4.62617 19.5303 4.24467 19.7106 2.97306 20.0712C1.57429 20.4317 0.938504 20.8224 1.31999 20.9425C1.82863 21.0327 1.57432 21.3031 0.811351 21.5435C-0.333097 21.8139 -0.205937 21.9341 0.811351 21.9341C1.57432 21.9341 2.21013 21.7838 2.21013 21.6336C2.21013 20.9726 4.49901 21.3932 5.13482 22.1744C5.64346 22.8355 6.53358 23.0458 8.82248 23.0157C11.8743 22.9857 16.0707 22.2346 15.3077 21.8439C15.0534 21.7238 15.8163 21.6336 17.0879 21.6336C18.3595 21.6336 20.1398 21.3632 20.9028 21.0327C22.3015 20.5219 22.1744 20.4918 20.267 20.6421C18.8682 20.7623 19.3768 20.5519 21.6657 19.981C23.5732 19.5303 25.0991 19.0195 25.0991 18.8994C25.0991 18.7491 25.9892 18.6289 27.0065 18.6289C28.0238 18.6289 28.9139 18.4787 28.9139 18.2684C28.9139 18.0581 30.3127 17.5773 31.9658 17.1566C33.746 16.7059 35.272 16.1951 35.5263 15.9548C36.1621 15.2637 40.2313 14.4224 42.9016 14.4224C44.3004 14.4224 45.4449 14.3022 45.4449 14.182C45.4449 14.0318 46.8436 13.7614 48.6239 13.5811C52.693 13.1304 53.456 13.1304 52.4387 13.521C51.6757 13.7914 54.2189 13.9416 57.9066 13.8515C58.6696 13.8215 59.4326 13.9116 59.4326 14.0318C59.4326 14.182 57.7795 14.3022 55.6177 14.2722C53.5832 14.2722 51.8029 14.182 51.8029 14.0619C51.8029 13.7013 48.2424 13.7914 47.2251 14.182C46.5893 14.3924 46.8436 14.4224 47.9881 14.2722C49.2597 14.0919 49.514 14.182 49.0053 14.6327C48.4967 15.0834 48.8782 15.2337 50.4041 15.1736C51.5486 15.1435 53.2017 15.3539 54.0918 15.6844C54.9819 15.9848 56.3807 16.1351 57.1436 16.0449C58.0338 15.9247 58.1609 15.9848 57.6523 16.1651C57.1436 16.3454 57.9066 16.6759 59.4326 16.8862C60.8313 17.0966 61.9758 17.4872 61.9758 17.7876C61.9758 18.0581 62.9931 18.4787 64.3918 18.689C65.6634 18.8994 66.8079 19.1998 66.935 19.3801C66.935 19.5303 67.9523 19.9209 69.0968 20.2214C70.114 20.5519 70.7499 20.8524 70.4955 20.9425C70.1141 21.0026 71.2585 21.3932 73.0388 21.8139C74.819 22.2345 75.8363 22.7453 75.582 22.9857C75.2005 23.196 75.7091 23.4664 76.7264 23.5566C77.7437 23.6467 78.5067 23.9472 78.5067 24.1876C78.5067 24.458 79.1425 24.5782 79.7783 24.488C80.5413 24.3979 81.0499 24.4881 81.0499 24.6984C81.0499 24.9688 81.4314 24.9688 82.3215 24.6383C83.3388 24.2777 83.5931 24.3378 83.5931 24.8786C83.5931 25.3293 84.4833 25.6599 86.1364 25.75C87.5351 25.8401 88.2981 26.0204 87.9166 26.1706C87.2808 26.4411 90.5869 26.6814 97.3265 26.8617C100.251 26.9218 101.396 26.8317 101.396 26.5012C101.396 26.1707 100.378 26.1106 96.945 26.2307C90.9684 26.4711 91.35 26.2307 97.4537 25.8401C100.251 25.6598 103.685 25.2993 105.21 24.9988C107.754 24.5181 107.881 24.4279 105.973 24.0674C104.193 23.7068 103.939 23.7369 103.939 24.2777C103.939 24.6082 103.049 24.9387 102.159 25.0289C100.76 25.1491 100.506 25.0589 100.887 24.6984C101.523 24.2477 101.396 24.2476 99.8697 24.6683C98.2166 25.149 94.4018 25.119 95.6734 24.6383C96.0549 24.488 94.9105 24.4279 93.003 24.488C90.9685 24.5181 90.0783 24.4279 90.3327 24.2176C90.7141 24.0073 89.824 23.8571 88.5524 23.8571C85.6277 23.8571 85.5005 23.9772 88.4252 24.7585C90.0783 25.2392 90.0783 25.2993 88.5524 24.9988C87.408 24.8186 86.1363 24.7284 85.7549 24.8486C85.2462 24.9387 84.8648 24.7585 84.8648 24.3979C84.8648 23.6768 87.0265 23.2561 90.4598 23.4064C92.2401 23.4664 92.6216 23.3763 91.9858 22.9857C91.35 22.565 91.7315 22.505 93.8932 22.6251C95.4191 22.7153 97.9623 22.6852 99.6154 22.535C101.523 22.3547 102.667 22.3547 102.667 22.535C102.667 22.7153 101.904 22.8355 100.887 22.8355C97.3265 22.8355 97.8352 23.2862 101.523 23.3162C103.43 23.3462 104.829 23.2261 104.448 23.1059C104.066 22.9557 104.448 22.8355 105.21 22.8355C106.101 22.8355 106.991 23.1059 107.372 23.4364C108.135 24.1575 108.898 24.1876 112.332 23.5866C113.857 23.3463 115.383 23.2561 115.892 23.3463C116.273 23.4364 116.655 23.3763 116.655 23.196C116.655 22.9857 117.291 22.8355 117.927 22.8355C118.69 22.8355 118.562 23.166 117.418 23.6768C116.146 24.2477 114.493 24.5181 112.077 24.5782C108.517 24.6383 104.447 25.2392 107.499 25.2392C108.771 25.2392 108.771 25.3895 107.627 25.9002C106.609 26.361 106.991 26.401 108.771 26.0204C110.297 25.7199 111.187 25.3293 110.806 25.2092C110.424 25.0589 111.06 24.9387 112.204 24.9387C113.476 24.9387 113.857 25.0589 113.222 25.2993C112.713 25.5096 114.493 25.1791 117.164 24.5481C119.961 23.9472 122.632 23.4364 123.267 23.4364C123.903 23.4364 124.92 23.1059 125.556 22.6852C126.192 22.2646 127.464 21.9641 128.354 21.9942C129.244 22.0543 130.007 21.9341 130.007 21.7838C130.516 21.0627 132.296 20.4317 134.203 20.4317C135.22 20.4317 135.856 20.3716 135.475 20.2815C134.839 20.1313 145.012 17.5773 146.919 17.367C148.954 17.1867 155.693 15.444 155.185 15.2337C154.93 15.1135 156.202 14.8731 158.237 14.6928C160.144 14.5426 164.086 13.8815 166.884 13.2506C173.877 11.6581 177.056 11.5379 181.634 12.6196C183.669 13.1003 185.322 13.6412 185.322 13.8215C185.322 14.0017 185.831 14.0919 186.466 13.9717C187.102 13.8816 187.865 14.122 188.119 14.4825C188.374 14.8731 189.264 15.1736 190.154 15.1736C191.044 15.1736 192.824 15.5642 194.223 16.075C197.021 17.0665 197.529 17.5773 195.495 17.2768C193.079 16.9163 194.223 17.998 196.766 18.4186C198.165 18.659 198.928 18.9294 198.419 19.0196C197.529 19.2599 204.269 21.6336 205.795 21.6336C206.431 21.6336 206.939 21.8439 206.939 22.1143C206.939 22.7754 211.644 24.1275 212.661 23.7369C213.043 23.5866 214.187 23.4364 214.95 23.4364C216.095 23.4364 216.095 23.4965 214.95 23.6768C213.933 23.827 213.933 24.0373 215.332 24.458C216.349 24.7885 217.112 24.8786 217.112 24.6683C217.112 24.458 217.748 24.3979 218.384 24.488C219.147 24.6082 219.528 24.8787 219.401 25.1491C218.765 25.8702 222.962 26.3509 226.013 25.9303C228.048 25.5998 228.302 25.6298 227.666 26.0505C227.158 26.3509 227.412 26.4711 228.175 26.3509C228.938 26.2308 230.21 26.3509 231.1 26.5913C232.244 26.9218 233.134 26.9519 234.279 26.7415C235.169 26.5612 236.441 26.4411 236.949 26.4711C237.585 26.5011 239.111 26.5011 240.383 26.4711C242.544 26.4411 242.544 26.381 240.764 25.9904C237.967 25.3293 240.637 24.3378 245.088 24.3678C248.012 24.3678 248.012 24.3979 245.723 24.6383C243.562 24.8486 243.562 24.9087 245.469 24.9087C246.613 24.9387 248.012 24.9688 248.521 24.9988C248.902 25.0589 249.411 24.8486 249.665 24.5782C249.793 24.2777 248.775 24.0073 246.741 23.8871C243.816 23.7369 243.689 23.6768 245.469 23.0157C247.376 22.3547 247.249 22.3247 244.325 22.4749C241.909 22.5651 241.4 22.505 242.036 22.1444C243.053 21.4533 248.267 21.9942 248.394 22.8054C248.648 23.8871 249.792 23.827 250.683 22.7153C251.191 22.1744 252.463 21.5134 253.734 21.3031C255.642 20.9425 255.769 20.9425 254.37 21.3632C252.463 21.9341 251.191 24.1275 252.844 23.8871C253.48 23.7669 253.989 23.4965 253.989 23.2561C253.989 23.0157 254.879 22.7453 255.896 22.6552C256.913 22.535 257.804 22.2946 257.804 22.0843C257.804 21.874 258.948 21.6336 260.347 21.5435C262 21.4533 263.144 21.0327 263.653 20.4618C264.162 19.9209 264.797 19.5604 265.052 19.6205C265.306 19.7106 268.231 19.1698 271.537 18.4487C275.097 17.6674 277.768 17.2768 278.277 17.4571C279.294 17.8778 280.438 17.4271 280.057 16.736C279.675 16.2853 280.947 16.075 283.617 16.1952C284.253 16.2252 284.38 16.105 283.999 15.9548C282.982 15.5642 286.669 14.9332 288.449 15.2036C289.594 15.3538 289.721 15.2637 289.212 14.9332C288.195 14.3022 290.738 13.9116 292.264 14.4524C293.154 14.7829 293.409 14.783 293.409 14.4825C293.409 14.2722 294.68 14.0017 296.333 13.8515C300.402 13.4909 309.94 14.7229 309.94 15.6243C309.94 15.8045 310.448 15.8947 310.957 15.8045C311.466 15.7444 312.101 15.9247 312.101 16.2552C312.229 16.5557 313.246 17.0364 314.263 17.3069C315.408 17.5472 316.298 17.9078 316.298 18.058C316.298 18.5087 320.621 19.5303 322.656 19.5303C323.927 19.5303 324.055 19.6205 323.164 19.7707C322.147 19.9209 322.91 20.2514 325.326 20.7622C327.361 21.2129 329.014 21.4834 329.014 21.3632C329.014 21.273 329.65 21.3932 330.285 21.6336C331.303 22.0242 331.557 21.9942 331.557 21.5435C331.557 21.2731 332.32 21.0327 333.21 21.0327C334.227 21.0327 334.1 20.9125 332.829 20.7322C331.43 20.5219 331.303 20.4317 332.574 20.4317C333.592 20.4317 334.609 20.7021 334.99 21.0327C335.372 21.3632 336.262 21.6336 336.898 21.6336C337.534 21.6336 337.661 21.4834 337.279 21.3331C336.771 21.1528 337.915 21.0327 339.695 21.0327C341.476 21.0327 343.129 21.1528 343.129 21.3331C343.256 21.4834 343.383 21.8139 343.51 21.9942C343.764 22.3848 346.816 22.3547 348.088 21.9942C348.469 21.874 349.741 21.7538 351.14 21.6937C352.411 21.6336 354.7 21.3031 356.226 20.9726C357.625 20.612 358.134 20.4317 357.371 20.5519C356.48 20.6721 355.718 20.612 355.718 20.4317C355.718 20.1914 356.862 20.1313 358.642 20.2515C360.677 20.3716 362.076 20.2214 363.347 19.8308C364.237 19.5303 365.636 19.3501 366.272 19.4402C366.908 19.5304 369.069 19.1698 370.977 18.659C373.011 18.1482 375.427 17.7275 376.445 17.7275C377.462 17.7275 379.242 17.4571 380.514 17.1266C381.786 16.7961 384.074 16.5257 385.6 16.5257C387.253 16.5257 388.779 16.3153 389.288 16.075C389.67 15.8346 390.56 15.6243 391.323 15.6243C392.086 15.6243 392.467 15.7445 392.086 15.8647C391.831 15.9848 393.23 16.1351 395.265 16.1651C397.554 16.1952 398.952 16.075 398.952 15.8647C399.079 15.6243 399.715 15.6844 400.733 15.9848C401.623 16.2853 402.894 16.5257 403.403 16.5257C404.929 16.5257 416.882 18.659 421.968 19.8308C429.725 21.6336 437.101 22.8955 439.008 22.7153C440.025 22.6251 441.17 22.6852 441.551 22.8655C442.06 23.0157 442.95 23.0758 443.586 22.9857C444.222 22.8655 444.73 23.0157 444.73 23.2561C444.73 23.4965 445.239 23.7669 445.875 23.8571C447.782 24.1575 451.088 23.7068 451.088 23.196C451.088 22.8054 451.47 22.8355 452.996 23.3162C454.013 23.6167 454.903 23.7369 454.903 23.5866C454.903 23.4063 455.285 23.4364 455.92 23.6167C457.192 24.0674 468.382 23.4064 468.001 22.9256C467.746 22.7153 468.509 22.6251 469.908 22.7153C471.434 22.8355 471.18 22.7153 469.018 22.2646C465.712 21.5434 466.093 21.4834 470.671 21.9641C473.214 22.2646 474.486 22.2045 477.792 21.6336C480.844 21.1228 481.48 20.8824 480.081 20.7022C479.191 20.5519 477.411 20.5219 476.266 20.612C474.995 20.7021 473.977 20.6421 473.977 20.4918C473.977 20.0411 476.902 19.8909 479.191 20.2214C481.225 20.5219 489.237 19.9209 489.237 19.5003C489.237 19.3801 490.254 19.2299 491.525 19.1698C494.196 18.9895 494.832 18.028 492.161 18.028C491.271 18.028 490.508 17.8778 490.508 17.6975C490.508 17.5473 491.017 17.4571 491.653 17.5473C492.288 17.6374 493.051 17.4271 493.433 17.0966C493.857 16.6959 493.306 16.6559 491.78 16.9764C489.237 17.5172 487.329 18.7491 489.491 18.4186C490.381 18.3285 490.508 18.3886 490 18.5688C489.491 18.7792 487.583 18.8994 485.676 18.8994C483.514 18.8693 483.006 18.8092 484.532 18.7191C485.93 18.6289 486.693 18.2984 486.693 17.6975C486.693 17.2167 487.075 16.8562 487.711 16.8562C490.127 16.9463 491.907 16.7961 491.271 16.5557C490.763 16.4055 491.525 16.3153 492.67 16.3754C493.942 16.4355 495.722 16.4956 496.612 16.4956C498.519 16.5257 498.646 17.4872 496.612 17.9679C495.722 18.1782 495.595 18.3285 496.103 18.3285C498.011 18.3285 502.08 17.0365 501.444 16.6459C501.063 16.3754 501.953 16.3153 504.623 16.3754C506.785 16.4656 508.056 16.3754 507.675 16.2252C507.166 16.0449 507.929 15.9247 509.328 15.9247C510.6 15.9247 512.761 15.6844 514.16 15.3839C515.559 15.0834 517.339 14.8731 518.229 14.9633C518.992 15.0233 522.68 14.9332 526.368 14.7529C531.963 14.4524 533.107 14.4825 533.997 14.8731C534.633 15.1135 535.777 15.3238 536.668 15.3238C537.558 15.3238 538.829 15.5642 539.465 15.8647C541.754 16.8562 548.239 18.9294 552.944 20.1313C555.487 20.7622 557.395 21.3632 557.141 21.4233C556.505 21.5735 564.897 23.1359 566.169 23.1359C566.55 23.1359 568.076 23.4063 569.602 23.7369C571.637 24.1876 572.781 24.2477 574.053 24.0073C575.325 23.7369 575.706 23.7669 575.706 24.1275C575.706 24.6683 579.139 25.0289 580.284 24.6082C580.792 24.3979 581.555 24.4279 582.7 24.6383C583.971 24.8786 585.116 24.8786 587.023 24.6683C588.422 24.488 590.711 24.3378 592.11 24.3378C593.509 24.3378 595.416 24.1275 596.56 23.8871C597.578 23.6467 599.231 23.4364 600.121 23.4364C601.393 23.4364 601.265 23.3463 599.867 23.1359C598.341 22.8956 598.468 22.8355 600.884 22.8355C602.537 22.8355 603.681 22.6852 603.427 22.4449C603.173 22.2646 603.427 22.0843 603.936 22.0843C605.716 22.0843 609.912 20.9425 609.149 20.6421C608.641 20.4618 609.404 20.4017 610.93 20.4918C614.109 20.7022 622.247 18.8693 620.721 18.2984C620.212 18.0881 620.339 18.028 621.23 18.1482C621.993 18.2383 623.391 18.1482 624.281 17.9078C625.299 17.6975 627.842 17.2768 630.131 17.0064C632.42 16.736 634.2 16.4055 634.2 16.2853C634.2 16.1651 636.107 16.075 638.524 16.075C640.94 16.075 642.593 16.1651 642.338 16.2552C641.575 16.5557 645.136 17.1567 646.026 16.9163C646.535 16.8261 646.916 16.8862 646.916 17.0966C646.916 17.3069 648.188 17.7275 649.841 18.058C651.621 18.3885 652.003 18.5989 650.858 18.6289C648.696 18.6289 652.13 19.951 656.708 20.8824C658.361 21.2129 659.632 21.6637 659.632 21.8439C659.632 22.3247 664.464 22.9557 668.534 23.0458C670.314 23.0759 671.84 23.2561 672.094 23.4364C672.348 23.5866 673.238 23.6467 674.001 23.5265C674.764 23.4064 675.019 23.5265 674.51 23.827C674.001 24.1575 674.764 24.3378 677.308 24.488C682.267 24.7284 687.735 24.3679 691.295 23.5265C692.948 23.166 694.856 22.8355 695.492 22.8355C696.127 22.8355 696.255 22.6852 695.873 22.535C695.492 22.3547 694.474 22.2345 693.839 22.2345C693.076 22.2345 692.821 22.3547 693.33 22.505C694.093 22.8355 689.134 23.5866 687.989 23.3162C687.48 23.2261 686.336 23.3162 685.319 23.4965C683.157 23.9172 679.978 24.0674 679.978 23.7669C679.978 23.6167 681.504 23.2561 683.284 22.9557C685.064 22.6552 687.353 22.2345 688.243 22.0242C689.134 21.8139 690.278 21.7538 690.914 21.874C691.55 21.9942 691.168 21.8139 690.151 21.5134C689.134 21.1829 688.879 21.0026 689.769 21.1228C690.532 21.243 692.058 21.1528 693.076 20.9125C694.093 20.6721 695.237 20.5219 695.619 20.612C696 20.7322 697.526 20.612 698.925 20.3717C700.451 20.1313 701.214 19.8308 700.705 19.7407C700.324 19.6205 700.578 19.5303 701.341 19.5303C702.104 19.5303 702.613 19.8007 702.485 20.1313C702.358 20.4918 701.595 20.7022 700.324 20.6421C699.179 20.612 698.543 20.7623 698.798 21.0928C699.179 21.6937 697.018 21.8139 696.127 21.243C695.619 20.9726 695.11 21.0026 694.093 21.3331C693.076 21.6636 693.457 21.874 695.619 22.1444C698.035 22.4449 699.052 22.3848 702.485 21.7538C704.647 21.3632 707.063 21.0327 707.699 21.0327C708.335 21.0327 709.607 20.8223 710.497 20.582C711.387 20.3115 711.514 20.1313 710.751 20.1313C710.115 20.1313 709.098 19.8909 708.589 19.5904C707.953 19.1998 708.208 19.1698 709.352 19.4402C710.115 19.6205 711.641 19.7106 712.531 19.6205C713.549 19.5303 714.566 19.6806 715.074 19.9209C715.583 20.2815 716.6 20.3115 719.525 20.1313C721.56 19.981 723.213 19.951 723.213 20.0712C723.213 20.1914 725.12 20.2515 727.282 20.2515C729.698 20.2214 731.351 20.0411 731.224 19.8608C730.97 19.6806 731.478 19.5303 732.241 19.5303C733.004 19.5303 733.258 19.8007 732.75 20.1313C731.987 20.7322 733.004 20.8824 736.946 20.7622C737.836 20.7322 738.345 20.8825 738.218 21.0928C737.963 21.2731 738.472 21.4834 739.108 21.4834C743.05 21.6035 747.246 22.0242 746.738 22.2646C746.356 22.3848 747.246 22.4449 748.645 22.3848C750.298 22.3247 751.188 22.4148 751.188 22.7153C751.188 22.9556 751.697 23.1059 752.333 23.0157C752.968 22.8955 753.731 22.9857 753.986 23.166C754.24 23.3462 756.02 23.4965 757.928 23.4965C759.835 23.4965 761.997 23.7068 762.76 23.9171C763.523 24.1575 765.303 24.3378 766.575 24.3378C767.973 24.3378 768.991 24.428 768.991 24.5481C768.991 24.6984 770.39 24.9387 772.17 25.1491C773.95 25.3294 775.094 25.3594 774.713 25.2392C774.331 25.089 774.713 24.9387 775.603 24.8786C776.366 24.8186 776.62 24.5782 776.112 24.3678C775.349 24.1275 774.713 24.0974 773.441 24.3378C772.297 24.5481 771.407 24.5181 770.262 24.1876C768.864 23.797 769.372 23.7369 773.441 23.7369C777.51 23.7369 778.019 23.6768 776.493 23.2561C775.349 22.9256 774.586 22.8956 774.331 23.1359C773.95 23.3463 772.933 23.2862 771.152 22.9256C768.864 22.4449 768.609 22.4449 769.372 22.8956C769.881 23.2561 769.626 23.3463 768.228 23.2261C764.54 22.8956 766.575 22.3848 771.152 22.505C771.915 22.535 772.933 22.4148 773.441 22.2345C773.823 22.0843 774.84 21.9341 775.476 21.9341C776.239 21.9341 776.493 22.0543 775.985 22.2045C775.603 22.3848 776.366 22.4749 777.765 22.4449C779.46 22.4248 779.503 22.2345 777.892 21.874C774.713 21.1529 771.025 21.1529 772.042 21.8439C772.678 22.2946 772.424 22.2646 770.898 21.7838C769.627 21.4233 769.372 21.1529 770.262 21.0928C770.898 21.0327 771.534 20.7322 771.534 20.4317C771.534 20.1313 772.17 19.7707 772.806 19.6806C773.696 19.5604 773.95 19.7407 773.314 20.2515C772.551 20.9726 772.806 21.0327 776.62 21.0327C778.909 21.0327 780.308 21.1528 779.799 21.3331C779.291 21.5134 780.69 21.6336 783.106 21.6336C786.92 21.6336 787.048 21.6637 784.886 22.0242C783.106 22.3547 782.978 22.5049 784.25 22.6852C785.395 22.8355 785.649 22.8054 785.013 22.565C784.377 22.3547 785.522 22.1744 788.065 22.0242C790.354 21.9341 792.388 21.6636 792.77 21.4533C793.151 21.2129 794.423 21.0327 795.567 21.0327C797.093 21.0327 797.22 21.0928 795.949 21.3031C794.55 21.4834 794.677 21.6036 796.457 21.7538C799.255 21.9942 801.417 21.5134 800.272 20.8824C799.764 20.5519 798.746 20.4317 797.22 20.582C795.567 20.7322 795.44 20.6721 796.585 20.4017C797.729 20.1313 799.001 20.1613 802.18 20.5519C807.266 21.1529 807.139 21.1529 807.139 20.4017C807.139 20.0111 807.648 19.8608 808.792 20.0111C809.555 20.1313 809.428 20.0411 808.411 19.8008C807.393 19.5604 805.867 19.1698 804.977 18.9294C803.578 18.5388 803.451 18.5388 804.087 18.9895C804.596 19.3801 804.214 19.4402 802.18 19.32C800.654 19.2299 799.509 19.0196 799.509 18.8693C799.509 18.7191 800.018 18.659 800.654 18.7792C801.289 18.8693 802.18 18.8092 802.688 18.659C803.07 18.4787 804.341 18.4487 805.486 18.5388C806.63 18.659 807.266 18.5989 806.758 18.4487C806.376 18.2684 807.012 17.9679 808.283 17.7576C810.572 17.367 810.572 15.9247 808.283 15.9247C807.648 15.9247 807.52 15.7445 807.902 15.5341C808.283 15.2938 807.012 14.8731 805.232 14.5426C803.451 14.2421 802.053 13.7313 802.053 13.4309C802.053 12.9201 801.925 12.9201 800.018 13.3407C798.238 13.7614 797.729 13.7313 794.677 13.0703C792.77 12.6496 790.862 12.3191 790.481 12.3191C788.828 12.3191 782.724 10.7567 782.47 10.276C782.215 9.94547 779.926 9.61492 775.857 9.3445C772.424 9.13418 768.228 8.68349 766.575 8.38303C763.268 7.75205 760.725 7.63184 762.124 8.14264C762.633 8.38301 761.997 8.41306 759.962 8.26283C758.309 8.14264 756.402 8.02245 755.639 7.9924C755.003 7.9924 753.604 7.78211 752.714 7.57178C750.425 7.09103 748.391 7.12107 748.899 7.63186C749.154 7.87223 748.772 8.08257 748.009 8.05252C747.373 8.05252 746.865 7.93232 746.992 7.81213C747.119 7.69195 746.483 7.48161 745.466 7.39147C744.449 7.30133 743.559 7.3915 743.559 7.57178C743.559 7.78211 743.05 7.7821 742.033 7.60182C740.634 7.36145 732.241 7.30134 731.224 7.51166C730.588 7.63185 728.299 7.722 725.629 7.78209C723.721 7.81214 723.213 7.96236 723.721 8.26283C724.23 8.62339 723.594 8.68349 720.542 8.5633C717.363 8.41306 716.473 8.5032 715.965 9.014C715.583 9.34451 714.693 9.61493 714.057 9.61493C713.421 9.61493 713.167 9.49474 713.549 9.3445C713.93 9.22432 712.786 9.16425 711.132 9.25439C709.479 9.31448 708.208 9.5248 708.335 9.73513C708.462 9.91541 707.699 10.0656 706.682 10.0656C705.664 10.0656 704.011 10.1858 703.248 10.306C702.231 10.4563 701.595 10.3961 701.595 10.2159C701.595 10.0356 701.087 9.94544 700.451 10.0656C699.688 10.1558 698.798 10.0356 698.162 9.7952C697.653 9.55483 696.636 9.3445 695.873 9.3445C695.237 9.31446 694.602 9.19428 694.602 9.014C694.602 8.86376 692.948 8.32292 691.041 7.81213C689.006 7.30134 687.226 6.73047 687.099 6.52015C686.59 5.64879 682.521 4.92765 682.521 5.70887C682.521 5.8591 683.411 6.00933 684.556 6.00933C685.573 6.00933 686.082 6.15956 685.7 6.33984C684.683 6.7004 679.978 5.82907 680.359 5.34832C680.487 5.19809 679.469 4.89763 678.071 4.71735C676.672 4.50702 675.273 4.29667 674.892 4.20653C674.51 4.11639 672.603 3.99623 670.568 3.96618C668.406 3.93613 666.499 3.78587 665.99 3.63564C665.609 3.45536 663.447 3.36525 661.285 3.36525C658.233 3.39529 657.471 3.51547 657.979 3.87603C658.615 4.29668 658.488 4.29668 656.453 3.87603C654.673 3.45537 653.401 3.42534 650.222 3.66571C648.061 3.81595 642.847 4.17649 638.651 4.47696C634.327 4.77743 631.148 5.13799 631.275 5.34832C631.53 5.55865 630.767 5.70887 629.749 5.70887C628.732 5.70887 627.842 5.91918 627.842 6.1896C627.842 6.42998 627.333 6.58021 626.825 6.49007C625.553 6.30979 620.212 7.39149 620.212 7.78209C620.212 7.93233 618.686 8.14265 616.779 8.23279C614.999 8.35298 612.328 8.77362 611.057 9.19427C609.658 9.58488 607.878 9.9154 606.86 9.9154C605.97 9.9154 604.572 10.1257 603.554 10.3961C602.156 10.8168 601.901 10.8168 600.757 10.3361C599.739 9.94545 599.358 9.91539 598.468 10.2459C597.578 10.5764 597.323 10.5764 597.323 10.1858C597.323 9.91541 596.179 9.4647 594.78 9.16423C593.381 8.86376 592.237 8.44313 592.237 8.20275C592.237 7.96238 591.728 7.84219 591.093 7.93233C590.457 8.02247 588.931 7.75205 587.786 7.33139C586.26 6.79055 586.133 6.61027 587.278 6.7605C588.295 6.88068 587.786 6.70042 586.133 6.39995C584.099 6.00935 583.463 5.64877 583.971 5.25817C584.607 4.86756 584.48 4.77744 583.717 5.01781C582.191 5.52861 577.613 4.77743 577.613 4.02626C577.613 3.6657 576.215 3.36522 573.799 3.18494C571.764 3.03471 568.076 2.70422 565.66 2.46385C563.371 2.22347 560.701 2.01312 559.938 1.98307C559.175 1.95303 557.904 1.86291 557.268 1.74272C556.505 1.62253 551.418 1.59247 545.823 1.65257C535.523 1.74271 522.934 2.55398 521.154 3.24505C519.882 3.75585 511.363 4.80748 510.345 4.59715C509.964 4.47697 509.582 4.5671 509.582 4.77743C509.582 5.0178 508.565 5.07788 506.785 4.98774C505.132 4.8976 504.623 4.8976 505.513 4.98774C506.658 5.10792 506.022 5.3483 503.224 5.7389C501.063 6.06942 498.774 6.2497 498.265 6.1896C497.248 6.03937 490.89 7.45156 491.525 7.69194C492.543 8.14264 491.398 8.41307 488.728 8.23279C486.693 8.11261 485.549 8.20275 485.04 8.53326C483.006 9.79522 470.035 10.2159 466.348 9.13419C465.457 8.92387 464.313 8.80366 463.677 8.8938C463.041 8.98394 462.533 8.89381 462.533 8.71353C462.533 8.53325 461.134 8.08257 459.481 7.72201C456.683 7.09103 456.175 6.91075 456.175 6.36991C456.175 6.24973 455.666 6.33985 455.03 6.58023C454.14 6.91074 453.377 6.91072 450.961 6.49007C449.308 6.21965 448.545 6.00933 449.308 6.00933C449.944 6.00933 451.343 6.18963 452.233 6.36991C453.504 6.67038 453.504 6.61029 452.233 6.06945C451.215 5.70889 449.562 5.43847 448.418 5.46851C447.273 5.52861 446.383 5.43847 446.256 5.31828C446.129 4.86758 441.678 4.23658 438.754 4.20653C437.228 4.20653 435.575 4.05631 435.066 3.87603C434.557 3.69575 432.523 3.63565 429.98 3.75583C426.419 3.90607 425.783 3.84597 426.419 3.45537C427.055 3.06476 426.292 2.97461 421.714 3.03471C413.576 3.0948 401.496 3.66571 402.259 3.96618C402.64 4.08637 400.733 4.20653 398.062 4.20653C394.883 4.20653 393.866 4.29668 394.883 4.47696C396.282 4.68729 396.282 4.74739 394.756 4.89762C393.739 4.98776 392.213 4.89763 391.323 4.71735C390.051 4.44693 389.924 4.44693 390.56 4.71735C391.068 4.92767 390.814 5.10793 390.178 5.10793C389.415 5.10793 388.779 4.98775 388.779 4.80747C388.779 4.65723 387.889 4.59716 386.745 4.71735C385.219 4.83753 385.219 4.9577 386.363 5.10793C387.381 5.28821 387.126 5.43845 385.219 5.67883C383.311 5.9192 382.421 5.91921 382.04 5.61875C381.531 5.40842 381.277 5.43844 381.277 5.7389C381.15 6.03937 378.988 6.46004 376.191 6.73046C373.393 6.97083 370.087 7.45158 368.815 7.78209C365.763 8.53326 359.532 8.53326 359.532 7.78209C359.532 7.48163 358.388 7.06098 356.989 6.85065C355.59 6.64033 354.446 6.30981 354.446 6.12953C354.446 5.9192 351.903 5.31827 348.724 4.77743C345.672 4.20654 343.001 3.51547 343.001 3.24505C343.001 2.64412 337.025 1.83286 332.066 1.74272C330.285 1.68263 328.378 1.50235 328.124 1.29202C327.742 1.08169 326.979 0.961493 326.471 1.05163C325.835 1.14177 325.072 1.08167 324.69 0.931439C324.309 0.811252 321.638 0.781213 318.587 0.9014C315.662 1.05163 312.483 1.08169 311.593 0.991554C310.703 0.901414 309.94 0.991547 309.94 1.17183C309.94 1.35211 309.558 1.4723 309.049 1.44225C306.379 1.26197 299.767 1.83285 299.767 2.2535C299.767 2.49387 299.131 2.7042 298.368 2.7042C297.732 2.7042 297.478 2.85443 297.859 3.00467C298.368 3.21499 297.605 3.27509 295.443 3.12486C293.409 3.00467 292.137 3.06477 292.137 3.24505C292.137 3.42533 290.865 3.66569 289.34 3.78587C286.415 4.02625 285.525 4.05631 282.346 4.14645C281.456 4.1765 280.693 4.35676 280.693 4.53704C280.693 4.77741 281.456 4.74738 282.981 4.47696C284.253 4.23659 284.126 4.35677 282.473 4.77743C281.074 5.13799 278.785 5.4685 277.641 5.52859C276.369 5.55864 274.97 5.76897 274.462 5.97929C273.953 6.18962 272.936 6.30981 272.3 6.27976C269.63 6.15957 268.994 6.33987 270.647 6.82061C271.537 7.12108 271.791 7.27131 271.283 7.15112C270.647 7.03093 269.375 7.15112 268.358 7.45159C267.171 7.77208 266.79 7.76208 267.214 7.42155C267.595 7.09103 267.468 6.94078 266.705 7.06097C265.942 7.1511 265.433 7.51169 265.433 7.87225C265.433 8.26285 264.798 8.41309 263.653 8.32295C262.381 8.20276 262 8.29287 262.509 8.59334C262.89 8.86376 262.381 9.014 260.855 9.014C258.948 9.014 258.821 9.0741 260.22 9.28442C262 9.55484 261.11 10.2159 258.948 10.2159C258.185 10.2159 258.058 10.0356 258.567 9.82528C259.33 9.58491 258.948 9.58489 257.422 9.88536C255.896 10.1858 255.642 10.4262 256.532 10.8468C257.549 11.2975 257.422 11.3576 256.023 11.2375C255.006 11.1473 253.607 11.3276 252.717 11.7182C251.954 12.0487 250.81 12.259 250.174 12.1689C249.538 12.0788 248.775 12.1389 248.267 12.3191C246.868 12.86 245.088 12.3191 245.088 11.3877C245.088 10.8168 244.452 10.5163 243.18 10.5163C242.036 10.5163 241.273 10.2459 241.273 9.88536C241.273 9.19429 237.458 7.51166 235.932 7.51166C235.423 7.51166 234.915 7.36145 234.915 7.15112C234.915 6.97084 233.389 6.33986 231.608 5.79902C229.192 5.04785 227.921 4.83752 226.904 5.07789C226.141 5.25817 224.996 5.4084 224.36 5.4084C223.724 5.4084 224.233 5.19808 225.25 4.92766C227.666 4.35677 226.776 3.87601 223.724 4.08634C221.944 4.23657 221.817 4.20652 223.47 3.93611C225.123 3.63564 225.123 3.57555 223.47 3.30513C222.453 3.1549 222.071 3.00467 222.58 3.00467C223.216 3.00467 222.453 2.58402 220.927 2.07323C219.02 1.47229 217.239 1.20189 215.332 1.26198C213.933 1.29203 211.899 1.23191 211.008 1.08167C210.118 0.961486 208.974 0.901414 208.72 0.991554C208.338 1.08169 206.049 0.9615 203.633 0.721127C201.09 0.480754 197.911 0.360553 195.876 0.480739C193.587 0.630973 192.824 0.600926 193.46 0.330506C193.969 0.150226 193.587 0 192.443 0C191.298 0 190.408 0.150226 190.408 0.330506ZM339.187 2.76431C339.187 2.94459 338.424 2.91453 337.279 2.7042C336.262 2.49387 335.372 2.28355 335.372 2.22346C335.372 2.16337 336.262 2.1934 337.279 2.28354C338.297 2.40373 339.187 2.61408 339.187 2.76431ZM155.948 5.88914C155.185 6.12951 154.04 6.24971 153.659 6.12953C153.277 6.00934 153.659 5.85911 154.549 5.79902C155.312 5.70888 155.693 5.49855 155.312 5.34832C154.803 5.13799 155.058 5.10794 155.948 5.22813C157.092 5.40841 157.092 5.55862 155.948 5.88914ZM265.815 9.16423C265.433 9.43465 264.797 9.58488 264.543 9.49474C264.162 9.4046 264.289 9.22432 264.797 9.04404C265.942 8.56329 266.705 8.65344 265.815 9.16423ZM397.172 11.8985C397.172 12.1689 397.808 12.4694 398.825 12.5595C400.097 12.6497 400.351 12.5595 399.842 12.1989C399.334 11.8985 399.461 11.7482 400.224 11.8684C400.987 11.9586 401.496 12.259 401.496 12.4694C401.496 12.7097 402.258 12.8299 403.149 12.7398C405.056 12.5896 410.397 13.6712 410.27 14.2121C410.27 14.4825 410.015 14.4825 409.507 14.182C409.252 14.0018 408.108 13.8215 407.091 13.8215C406.073 13.8215 404.929 13.6412 404.547 13.4309C403.784 12.9501 399.97 12.9501 397.426 13.4309C396.536 13.5811 394.883 13.8515 393.866 13.9717C392.213 14.182 392.213 14.152 393.612 13.7614C395.01 13.3407 394.629 13.3407 390.051 13.6112C387.253 13.7914 385.6 14.0318 386.236 14.1219C386.872 14.2121 386.236 14.4525 384.965 14.6628C382.803 14.9633 382.421 14.9632 382.421 14.5426C382.421 13.9717 378.479 14.0919 377.589 14.6928C377.208 14.9332 377.589 15.0234 378.352 14.9332C380.26 14.6327 381.023 15.7444 379.37 16.4055C377.081 17.3069 374.537 17.2768 374.792 16.3154C375.173 15.0534 374.919 14.813 373.52 15.3238C372.757 15.5942 372.248 15.6243 372.248 15.414C372.248 14.9633 377.716 14.0919 384.965 13.3708C388.144 13.0703 392.086 12.4994 393.866 12.1088C397.553 11.2976 397.426 11.2975 397.172 11.8985ZM527.639 11.8985C525.986 12.1689 524.333 12.2891 523.951 12.1989C523.443 12.1088 523.824 12.0187 524.714 12.0187C525.605 12.0187 525.859 11.8684 525.477 11.7182C525.096 11.5379 525.986 11.4177 527.639 11.4177H530.437L527.639 11.8985ZM536.922 11.7182C536.54 11.8684 537.812 12.1088 539.719 12.1989C542.898 12.4093 542.898 12.4393 540.737 12.6496C537.176 12.9801 536.032 12.9801 536.922 12.6496C537.303 12.4994 537.049 12.2891 536.286 12.1689C535.015 11.9886 535.65 11.4177 537.049 11.4177C537.431 11.4177 537.303 11.5379 536.922 11.7182ZM227.921 12.3191C228.302 12.4694 228.048 12.6196 227.412 12.6196C226.649 12.6196 226.013 12.4694 226.013 12.3191C226.013 12.1389 226.268 12.0187 226.522 12.0187C226.904 12.0187 227.539 12.1389 227.921 12.3191ZM395.9 14.783C396.282 14.9032 397.553 14.9032 398.698 14.813C400.224 14.6928 400.097 14.783 398.316 15.1135C395.773 15.5642 392.467 15.4139 390.687 14.7229C389.797 14.3924 394.502 14.4825 395.9 14.783ZM507.675 15.2337C509.455 15.5642 509.582 15.6543 508.184 15.5341C507.039 15.444 505.386 15.5341 504.496 15.7144C503.224 15.9848 502.716 15.9848 502.334 15.6844C501.953 15.5041 501.19 15.3839 500.554 15.5041C499.918 15.5942 499.409 15.5041 499.409 15.3238C499.409 15.1435 500.808 15.0834 502.97 15.2036C505.64 15.3238 506.022 15.2937 504.496 15.0534C503.479 14.8731 503.224 14.7229 503.86 14.7229C504.623 14.7529 506.276 14.9633 507.675 15.2337ZM388.398 15.3538C387.253 15.5341 386.491 15.7745 386.872 15.9548C387.381 16.105 386.491 16.2252 385.092 16.2252C381.913 16.2252 381.531 15.414 384.71 15.2337C389.034 14.9633 390.814 15.0233 388.398 15.3538ZM730.842 15.7445C730.842 15.8046 729.952 15.9548 728.808 16.0449C727.791 16.1351 727.282 16.105 727.663 15.9247C728.426 15.6243 730.842 15.5041 730.842 15.7445ZM371.486 17.2768C368.179 17.8477 367.544 17.5473 370.468 16.7961C371.867 16.4355 373.011 16.3153 373.266 16.5257C373.52 16.7059 372.757 17.0365 371.486 17.2768ZM740.379 16.5257C740.888 16.7059 740.761 16.8261 740.125 16.7961C737.582 16.7059 736.946 16.8562 738.472 17.2768C739.616 17.6073 739.617 17.7275 738.599 17.7275C737.836 17.7275 736.819 17.5172 736.438 17.2768C735.929 17.0365 735.166 16.9163 734.53 17.0064C733.894 17.0965 733.386 17.0965 733.386 16.9764C733.386 16.8562 736.31 16.4656 739.362 16.2552C739.489 16.2252 739.998 16.3754 740.379 16.5257ZM724.866 17.0365C724.611 17.2468 725.629 17.4872 727.028 17.5773C728.426 17.6975 729.571 17.9078 729.571 18.0881C729.571 18.2684 728.808 18.2684 727.663 18.028C726.137 17.7275 725.756 17.7275 725.756 18.1482C725.756 18.4186 724.866 18.6289 723.849 18.6289C722.831 18.6289 721.941 18.4787 721.941 18.3285C721.941 18.1482 722.577 18.028 723.34 18.028C723.976 18.028 724.23 17.8778 723.721 17.6975C723.213 17.4571 722.577 17.4871 721.814 17.7576C720.924 18.0881 720.288 18.0881 718.508 17.6374C716.473 17.1867 716.473 17.0665 718.126 16.8261C720.669 16.4355 725.247 16.5858 724.866 17.0365ZM330.285 17.4571C330.285 17.6374 329.777 17.6674 329.014 17.5773C328.378 17.4872 327.742 17.2468 327.742 17.0966C327.742 16.9163 328.378 16.8862 329.014 16.9764C329.777 17.0665 330.285 17.3069 330.285 17.4571ZM713.676 17.4271C712.404 17.7576 710.878 18.028 710.37 18.028C708.462 18.028 710.624 17.1567 712.786 17.0365C714.057 16.9463 715.202 16.8862 715.456 16.8562C715.71 16.8562 714.947 17.0965 713.676 17.4271ZM751.188 17.8778C751.824 18.058 751.061 18.1782 749.408 18.1782C746.992 18.1782 746.865 18.0881 748.009 17.5172C748.772 17.1266 749.535 17.0064 749.789 17.2168C750.044 17.4271 750.68 17.6975 751.188 17.8778ZM707.318 18.028C706.936 18.1782 705.792 18.3285 705.029 18.3285C704.139 18.3285 704.266 18.2083 705.41 18.028C707.826 17.6674 708.335 17.6674 707.318 18.028ZM737.073 18.1482C738.345 18.5087 738.218 18.5688 736.438 18.5087C735.166 18.4486 733.894 18.2684 733.64 18.0881C733.004 17.5773 735.293 17.6374 737.073 18.1482ZM339.187 18.3285C339.187 18.4787 338.932 18.6289 338.678 18.6289C338.297 18.6289 337.661 18.4787 337.279 18.3285C336.898 18.1482 337.152 18.028 337.788 18.028C338.551 18.028 339.187 18.1482 339.187 18.3285ZM353.174 18.3285C353.174 18.4787 352.92 18.6289 352.666 18.6289C352.284 18.6289 351.648 18.4787 351.267 18.3285C350.885 18.1482 351.14 18.028 351.776 18.028C352.539 18.028 353.174 18.1482 353.174 18.3285ZM719.779 18.5388C719.652 18.7491 721.432 18.8392 724.357 18.8092C727.155 18.8092 729.062 18.8693 728.681 18.9895C728.426 19.1397 725.629 19.2299 722.45 19.2299C718.508 19.2299 716.982 19.1097 717.618 18.8994C717.999 18.7191 717.618 18.4487 716.728 18.2684C715.329 18.0581 715.583 18.028 717.49 18.1182C718.889 18.1782 719.906 18.3585 719.779 18.5388ZM347.452 18.9294C347.834 19.0796 347.579 19.2299 346.944 19.2299C346.181 19.2299 345.545 19.0796 345.545 18.9294C345.545 18.7491 345.799 18.6289 346.053 18.6289C346.435 18.6289 347.071 18.7491 347.452 18.9294ZM358.261 19.2299C358.261 19.5904 357.371 19.8308 356.226 19.8308C354.573 19.8308 354.446 19.7407 355.59 19.4402C356.353 19.1998 356.608 18.9294 356.099 18.8393C355.718 18.7191 355.972 18.6289 356.735 18.6289C357.625 18.6289 358.261 18.8993 358.261 19.2299ZM797.983 19.3801C797.602 19.4702 796.839 19.32 796.457 19.0196C795.695 18.5989 795.822 18.5689 797.093 18.8393C797.983 19.0496 798.365 19.29 797.983 19.3801ZM336.008 19.2299C335.626 19.3801 334.482 19.5303 333.719 19.5303C332.829 19.5303 332.956 19.4101 334.1 19.2299C336.516 18.8693 337.025 18.8693 336.008 19.2299ZM755.766 20.1914C755.003 20.3116 753.986 20.2515 753.604 20.0712C753.096 19.8909 751.57 19.8308 750.044 19.9209C748.518 20.0111 747.119 19.981 746.865 19.8608C746.483 19.7406 747.5 19.6205 749.026 19.6205C750.552 19.5904 751.951 19.4101 752.205 19.2299C752.587 19.0195 753.604 19.1097 755.003 19.4402C756.402 19.8008 756.656 20.0411 755.766 20.1914ZM695.237 19.7106C695.237 19.951 694.729 20.0712 693.966 19.981C693.33 19.8909 692.694 20.0411 692.567 20.3416C692.567 20.8224 692.44 20.8223 691.55 20.2815C690.66 19.7407 691.55 19.4702 694.983 19.2599C695.11 19.2299 695.237 19.4402 695.237 19.7106ZM741.015 19.5303C741.015 19.6806 740.761 19.8308 740.507 19.8308C740.125 19.8308 739.489 19.6806 739.108 19.5303C738.726 19.35 738.981 19.2299 739.617 19.2299C740.379 19.2299 741.015 19.35 741.015 19.5303ZM482.879 19.8308C482.879 19.981 482.37 20.1313 481.607 20.1313C480.971 20.1313 480.335 19.981 480.335 19.8308C480.335 19.6505 480.971 19.5303 481.607 19.5303C482.37 19.5303 482.879 19.6505 482.879 19.8308ZM727.918 19.7106C727.536 19.8007 726.392 19.8308 725.502 19.7407C724.484 19.6505 724.866 19.5604 726.265 19.5604C727.663 19.5303 728.426 19.6205 727.918 19.7106ZM780.435 19.8308C780.435 19.981 779.545 20.0411 778.528 19.951C777.51 19.8308 776.62 19.7106 776.62 19.6505C776.62 19.5904 777.51 19.5303 778.528 19.5303C779.545 19.5303 780.435 19.6505 780.435 19.8308ZM785.522 19.981C784.632 20.2214 783.36 20.4317 782.597 20.4317C781.834 20.4317 782.343 20.2214 783.741 19.981C786.92 19.4101 787.556 19.4101 785.522 19.981ZM805.867 20.1313C805.867 20.6421 805.613 20.7022 804.087 20.3717C802.815 20.1012 802.688 19.9209 803.833 19.7707C805.867 19.4402 805.867 19.4702 805.867 20.1313ZM465.457 20.0411C464.567 20.1012 463.041 20.1012 462.278 20.0411C461.388 19.951 462.024 19.8909 463.804 19.8909C465.585 19.8909 466.22 19.951 465.457 20.0411ZM127.209 21.0627C126.319 21.5134 124.539 21.9641 123.267 22.0543C121.996 22.1544 122.038 22.0743 123.394 21.8139C124.793 21.5434 125.175 21.3031 124.412 21.1829C122.759 20.9726 125.175 20.2214 127.464 20.2214C128.481 20.2214 128.481 20.4918 127.209 21.0627ZM352.92 20.6421C352.539 21.2731 350.631 21.6636 349.105 21.4533C347.452 21.2129 347.961 20.7322 349.741 20.7923C350.504 20.8524 351.14 20.7022 351.013 20.4918C350.758 20.3116 351.267 20.1313 351.903 20.1313C352.666 20.1313 353.174 20.3717 352.92 20.6421ZM596.688 20.4317C596.306 20.582 595.162 20.6421 594.144 20.5219C591.474 20.3116 591.728 20.1313 594.907 20.1313C596.306 20.1313 597.196 20.2514 596.688 20.4317ZM606.098 21.0627C605.08 21.2129 603.173 21.3031 601.774 21.3031L599.231 21.2731L601.774 21.1228C603.173 21.0327 604.826 20.7623 605.462 20.4918C606.352 20.1012 606.86 20.1012 607.242 20.4017C607.496 20.612 606.988 20.9125 606.098 21.0627ZM766.448 20.582C767.846 20.9726 767.719 21.0026 765.939 20.8524C764.794 20.7622 763.904 20.5519 763.904 20.4017C763.904 20.0111 764.667 20.0712 766.448 20.582ZM470.162 20.8824C470.162 21.1528 469.018 21.3331 467.365 21.3031C465.203 21.273 464.949 21.243 466.729 21.1228C467.874 21.0627 468.891 20.8524 468.891 20.7022C468.891 20.5519 469.145 20.4317 469.527 20.4317C469.908 20.4317 470.162 20.6421 470.162 20.8824ZM85.882 21.6937C84.9919 21.8139 83.7203 21.7838 82.8302 21.6336C82.0672 21.4533 81.1771 21.3932 80.7956 21.4834C80.5413 21.5735 80.1598 21.4533 80.1598 21.2129C80.1598 20.9125 80.9227 20.8824 83.7203 21.1529C86.1363 21.3331 86.7722 21.5435 85.882 21.6937ZM251.446 21.0026C251.446 21.1829 250.937 21.3932 250.174 21.4834C249.538 21.5735 248.902 21.4533 248.902 21.2129C248.902 20.9425 249.538 20.7322 250.174 20.7322C250.937 20.7322 251.446 20.8524 251.446 21.0026ZM451.978 21.1829C451.978 21.4233 451.47 21.5435 450.834 21.4533C450.198 21.3632 450.071 21.1529 450.452 21.0026C451.597 20.612 451.978 20.6721 451.978 21.1829ZM591.983 21.1529C591.092 21.3932 590.075 21.5134 589.821 21.4834C589.185 21.3031 591.093 20.7322 592.364 20.7322C593 20.7322 592.873 20.9125 591.983 21.1529ZM582.064 21.3331C582.064 21.4834 581.81 21.6336 581.555 21.6336C581.174 21.6336 580.538 21.4834 580.157 21.3331C579.775 21.1528 580.03 21.0327 580.665 21.0327C581.428 21.0327 582.064 21.1528 582.064 21.3331ZM595.67 22.7453C594.272 23.0759 593.509 23.136 593.509 22.8956C593.509 22.6852 594.144 22.535 594.907 22.535C595.67 22.535 595.925 22.3247 595.416 21.9942C594.78 21.5735 594.907 21.5435 596.179 21.874C597.578 22.1744 597.451 22.3247 595.67 22.7453ZM759.708 21.8139C759.326 21.904 758.182 21.9341 757.292 21.8439C756.275 21.7538 756.656 21.6636 758.055 21.6636C759.454 21.6336 760.217 21.7237 759.708 21.8139ZM578.885 22.2345C579.267 22.3848 579.012 22.535 578.376 22.535C577.613 22.535 576.978 22.3848 576.978 22.2345C576.978 22.0542 577.232 21.9341 577.486 21.9341C577.868 21.9341 578.504 22.0542 578.885 22.2345ZM601.138 22.2345C601.138 22.3848 600.884 22.535 600.63 22.535C600.248 22.535 599.612 22.3848 599.231 22.2345C598.849 22.0542 599.104 21.9341 599.739 21.9341C600.502 21.9341 601.138 22.0542 601.138 22.2345ZM449.817 22.535C449.817 22.6852 449.181 22.8355 448.418 22.8355C447.782 22.8355 447.528 22.6852 447.909 22.535C448.291 22.3547 448.927 22.2345 449.308 22.2345C449.562 22.2345 449.817 22.3547 449.817 22.535ZM459.227 22.505C460.371 22.9256 455.157 23.1059 453.759 22.7153C452.869 22.4749 453.377 22.3547 455.539 22.2946C457.192 22.2646 458.845 22.3547 459.227 22.505ZM82.8302 23.6167C83.7203 24.1876 83.0845 24.1575 80.4141 23.4364C78.3795 22.9256 78.3795 22.8355 80.0326 22.9857C81.1771 23.1059 82.4487 23.3763 82.8302 23.6167ZM227.539 24.9087C225.25 25.9002 223.47 26.1105 223.47 25.4195C223.47 25.1791 224.36 24.9387 225.378 24.8185C228.302 24.5481 227.666 23.7369 224.487 23.7369C222.707 23.7369 222.58 23.5966 224.106 23.3162C226.268 22.9556 226.776 22.9556 228.175 23.4364C229.574 23.8871 229.447 24.1575 227.539 24.9087ZM234.279 23.7068C234.66 23.8571 234.406 24.0674 233.643 24.1876C233.007 24.2777 232.371 24.1575 232.371 23.9171C232.371 23.3763 233.134 23.2862 234.279 23.7068ZM224.742 24.3378C224.742 24.488 224.106 24.6383 223.343 24.6383C222.707 24.6383 222.453 24.488 222.834 24.3378C223.216 24.1575 223.852 24.0373 224.233 24.0373C224.487 24.0373 224.742 24.1575 224.742 24.3378ZM234.024 25.8401C232.499 26.2007 231.481 26.2608 230.845 26.0204C229.192 25.4495 229.701 25.2993 233.007 25.2993C236.313 25.2993 236.186 25.3293 234.024 25.8401Z" fill="white"/>
</svg>
