<svg width="93" height="103" viewBox="0 0 93 103" fill="none" xmlns="http://www.w3.org/2000/svg">
<path fill-rule="evenodd" clip-rule="evenodd" d="M70.4173 28.9733C70.3154 29.8461 70.1083 30.827 69.9208 31.0943C69.7702 31.3758 69.7362 31.5748 69.8385 31.5293C69.9408 31.4837 69.8672 32.0069 69.6486 32.6864C69.4414 33.3915 69.3109 34.0625 69.3678 34.1904C69.4247 34.3183 69.2742 34.5998 69.0013 34.8131C68.7399 35.052 68.6775 35.325 68.8567 35.5211C69.0615 35.7057 68.9649 35.9019 68.6323 36.0499C68.3509 36.1751 68.243 36.3457 68.388 36.465C68.5217 36.5588 68.4763 36.7322 68.2461 36.8347C67.9647 36.9599 67.9193 37.1333 68.1354 37.3436C68.3032 37.5141 68.3573 37.7045 68.2294 37.7614C68.1271 37.807 67.7948 38.5065 67.4966 39.2827C67.1985 40.0589 66.8178 40.7186 66.6927 40.713C66.5932 40.696 66.4625 40.8154 66.4285 41.0144C66.4087 41.1765 66.1586 41.441 65.8772 41.5662C65.6214 41.68 65.4367 41.8848 65.505 42.0382C65.5619 42.1661 65.4398 42.3737 65.2352 42.4648C65.0305 42.5559 64.9112 42.7009 64.9567 42.8032C65.355 43.4228 65.2926 43.6957 64.7127 43.7699C64.3232 43.79 64.1925 43.9094 64.3631 44.0174C64.6788 44.2447 64.301 45.1176 63.957 44.9642C63.8205 44.933 63.7893 45.0695 63.8918 45.2997C64.0853 45.7346 63.9403 45.891 63.045 46.2894C62.7892 46.4032 62.6301 46.5966 62.687 46.7245C62.7439 46.8524 62.653 46.9235 62.4654 46.915C62.2778 46.9066 62.2977 47.0203 62.4655 47.1908C62.8011 47.5318 62.5766 47.7849 61.7637 48.024C61.5619 48.0526 61.5307 48.189 61.6643 48.2828C61.798 48.3765 61.5736 48.9054 61.1474 49.4628C60.6815 50.0685 60.3035 50.3899 60.1215 50.2564C59.9765 50.1371 59.7236 50.4641 59.5504 50.9702C59.3773 51.4763 58.9909 51.9853 58.7095 52.1105C58.4281 52.2357 58.1525 52.5116 58.1326 52.6737C58.0986 52.8727 57.8883 53.0888 57.6467 53.1657C57.3795 53.2539 56.7401 53.8142 56.1605 54.4399C55.6178 55.0798 54.9756 55.7027 54.7937 55.8449C54.6118 55.9871 54.4555 56.1179 54.4669 56.1435C54.4897 56.1947 53.9299 56.6583 52.7761 57.5088C52.1935 57.9213 50.6617 59.0932 49.3374 60.1115C45.4554 63.0954 45.3389 63.1778 44.7164 63.3629C44.3867 63.4483 44.1536 63.6133 44.2105 63.7412C44.3016 63.9459 43.2217 64.8248 41.9598 65.5702C41.6131 65.7551 41.3545 65.9315 41.3659 65.957C41.3772 65.9826 41.1698 66.1362 40.8998 66.287C39.223 67.3396 38.1999 68.0707 37.4412 68.776C36.9325 69.2169 36.3613 69.6549 36.1567 69.746C35.9634 69.8626 34.7129 70.6336 33.397 71.4643C29.4211 74.0302 25.5981 75.4249 25.5578 74.3703C25.5435 74.1315 25.6685 73.8613 25.8731 73.7703C26.0778 73.6792 26.1288 73.3807 26.0036 73.0993C25.8784 72.8179 25.9208 72.4313 26.0913 72.2635C26.2505 72.0701 26.2845 71.8711 26.1508 71.7773C26.0172 71.6836 25.9972 71.5699 26.1137 71.4874C26.2161 71.4418 26.577 71.22 26.8982 71.0464C27.2335 70.8359 27.4978 70.5344 27.4806 70.3582C27.4521 70.1564 27.651 69.9146 27.9068 69.8008C28.137 69.6984 28.4155 69.3599 28.4921 69.05C28.6057 68.7543 28.9723 68.4074 29.3532 68.2992C29.8364 68.1454 29.9699 67.9634 29.8163 67.756C29.6627 67.5485 29.7678 67.4404 30.0691 67.4289C30.3335 67.4032 30.8366 67.0875 31.2059 66.6779C31.9419 65.9214 32.0982 65.7906 32.5075 65.6085C32.6354 65.5515 32.6296 65.4009 32.496 65.3071C32.3254 65.1992 32.5101 64.9944 32.9193 64.8123C33.3031 64.6415 33.6724 64.232 33.7633 63.8852C33.8806 63.5061 33.9573 63.4719 33.9935 63.7827C34.0648 64.4252 34.1927 64.3682 34.7581 63.5038C35.0137 63.1142 35.0932 62.7417 34.9595 62.648C34.8259 62.5542 34.8315 62.4292 34.985 62.3609C35.1129 62.3039 35.3631 62.3152 35.5081 62.4345C35.6418 62.5283 35.9033 62.5651 36.0312 62.5082C36.1847 62.4399 36.2017 62.3404 36.0936 62.2353C35.9714 62.1671 36.4204 61.9366 37.0457 61.689C37.8473 61.4243 38.2622 61.1171 38.4184 60.7105C38.5462 60.3778 38.9269 59.9939 39.2851 59.8345C39.6176 59.6866 40.3593 59.0807 40.9617 58.5062C41.5272 57.9175 42.0586 57.5278 42.0928 57.6045C42.1383 57.7068 42.2207 57.5476 42.2831 57.2747C42.3512 56.8766 42.4535 56.8311 42.6696 57.0414C42.8858 57.2517 42.9881 57.2061 43.1926 56.8393C43.3602 56.4583 43.4881 56.4014 43.781 56.5775C44.0483 56.765 44.125 56.7309 44.0993 56.4665C44.0565 56.0259 45.8271 55.1154 46.14 55.4052C46.2736 55.499 46.3134 55.4506 46.2337 55.2716C46.191 55.1067 46.3018 54.8736 46.5064 54.7825C46.7111 54.6914 46.9042 54.299 46.9211 53.9238C46.9588 53.4575 47.118 53.3561 47.3986 53.6194C47.6261 53.8552 47.7626 53.8865 47.6829 53.7074C47.6402 53.5425 47.7765 53.298 48.0209 53.1586C48.3535 53.0106 48.2682 52.9566 47.7536 52.9711C47.3642 52.9911 47.094 52.8662 47.1025 52.6785C47.1592 52.2549 47.8498 51.9476 47.9978 52.2802C48.0547 52.4081 48.3163 52.4449 48.5721 52.3311C48.879 52.1945 48.8705 52.1064 48.6089 52.0695C48.3843 52.0469 48.7225 51.7738 49.4018 51.4409C51.1441 50.6043 51.468 50.3682 51.2291 50.1068C51.1097 49.9761 50.7941 50.0246 50.5497 50.164C50.2513 50.3887 50.1404 50.3461 50.2398 50.0873C50.3392 49.8286 50.7115 49.6323 51.354 49.5609C52.3887 49.407 53.4714 48.4655 52.7237 48.3692C52.0755 48.2899 52.638 47.488 53.3658 47.4706C53.9315 47.4334 53.9428 47.4589 53.4057 47.698C52.9822 47.9171 52.9254 48.0649 53.2013 48.3406C53.4288 48.5764 53.5425 48.5565 53.5396 48.3432C53.511 48.1414 53.7099 47.8997 53.9913 47.7745C54.2727 47.6493 54.4744 47.345 54.4601 47.1062C54.4713 46.856 54.5707 46.5973 54.7498 46.5176C54.9033 46.4493 55.0822 46.0939 55.1361 45.7328C55.2324 44.9851 56.0196 44.4816 56.0654 45.1354C56.0769 45.4367 56.2248 45.4936 56.5715 45.3086C56.8159 45.1692 56.9779 44.9133 56.8982 44.7342C56.8185 44.5552 56.9037 44.3334 57.1083 44.2423C57.2874 44.1626 57.651 43.6025 57.9038 42.9997C58.1309 42.4083 58.5571 41.8509 58.8243 41.7626C59.0659 41.6857 59.6257 41.2221 60.0491 40.7273C60.4724 40.2325 60.9186 39.7888 61.0721 39.7205C61.2 39.6636 61.2908 39.3167 61.2423 39.0012C61.2023 38.498 61.2563 38.4127 61.5605 38.6144C61.8648 38.8161 61.9046 38.7678 61.7452 38.4096C61.6314 38.1538 61.7564 37.8837 62.0889 37.7357C62.3703 37.6105 62.5038 37.4285 62.3702 37.3348C62.0176 37.0933 62.9153 35.8051 63.4554 35.7793C63.6942 35.765 63.9073 35.4863 63.9498 35.0996C63.9667 34.7244 64.1712 34.3575 64.3758 34.2665C64.5805 34.1754 65.0179 33.3679 65.2961 32.4779C65.5999 31.5766 65.9976 30.8174 66.2108 30.8145C66.424 30.8116 66.6427 30.4078 66.7647 29.9245C66.9406 29.0801 67.0768 28.5597 67.8575 25.9753L68.2265 24.7385L69.0113 25.1248C70.1287 25.6388 70.6297 27.0401 70.4173 28.9733ZM55.9098 46.9208C55.8331 46.9549 55.7507 47.1142 55.7423 47.3018C55.7225 47.4638 55.8305 47.569 55.9584 47.5121C56.1119 47.4438 56.1829 47.259 56.126 47.1311C56.0577 46.9776 55.961 46.898 55.9098 46.9208ZM48.5669 53.5592C48.439 53.6161 48.368 53.8009 48.4363 53.9544C48.4932 54.0823 48.6439 54.0765 48.7377 53.9429C48.857 53.7978 48.9024 53.6244 48.8683 53.5477C48.8455 53.4965 48.7204 53.4909 48.5669 53.5592ZM27.0889 71.5438C26.978 71.5012 26.9184 71.7116 26.9782 72.0527C27.0494 72.4194 27.2059 72.5643 27.4105 72.4733C27.7431 72.3253 27.5324 71.7142 27.0889 71.5438Z" fill="white"/>
<path fill-rule="evenodd" clip-rule="evenodd" d="M83.775 78.345C83.2889 78.5612 83.1501 79.6956 83.5455 80.1019C83.81 80.352 83.5513 80.5283 82.0591 81.1004C78.9468 82.3014 76.0984 82.6495 65.5517 83.0522C64.7472 83.1037 63.9541 83.1808 63.7751 83.2605C63.6216 83.3288 62.7716 83.278 61.9385 83.1277C61.08 82.9888 60.2783 82.9778 60.1334 83.1342C59.8066 83.4328 57.5522 83.394 57.4156 83.0871C57.3701 82.9847 56.9408 83.0531 56.4804 83.258C56.0199 83.4629 55.0364 83.5941 54.3115 83.549C53.5609 83.5152 52.7564 83.5667 52.5262 83.6692C52.2704 83.783 51.7559 83.7974 51.3834 83.718C51.0366 83.6272 50.522 83.6416 50.2918 83.7441C50.036 83.8579 49.7744 83.821 49.7061 83.6676C49.6492 83.5396 49.5128 83.5084 49.4446 83.6307C49.311 83.8127 46.6361 84.2062 45.1948 84.204C44.5552 84.2128 40.7631 84.6437 38.0512 85.023C37.1813 85.1343 36.1978 85.2655 35.8595 85.2628C35.5326 85.2857 34.6257 85.3828 33.8412 85.548C29.3812 86.3374 27.2007 86.327 26.501 85.4432C26.0743 84.8976 26.3187 84.7582 27.6435 84.8429C28.5561 84.8965 28.6073 84.8737 28.1296 84.6266C27.6632 84.4051 27.6319 84.2658 27.8449 83.7113C27.9869 83.3417 28.163 83.0488 28.2511 83.0403C28.3506 83.0573 28.3704 82.8952 28.2908 82.7162C28.2225 82.5627 28.3616 82.2556 28.6089 82.0536C28.8703 81.8147 28.9781 81.3684 28.85 80.8738C28.6706 80.1262 28.7529 79.9669 29.6681 79.4065C30.2478 79.0566 30.7593 78.5532 30.7962 78.2916C30.8642 77.8936 30.9154 77.8708 31.2936 78.1009C31.5125 78.2487 32.0782 78.2115 32.5501 78.0321C34.3635 77.2865 34.6165 77.2353 35.0971 77.6956L35.6147 78.1701L35.2762 77.6159C34.9746 77.0759 35.0797 76.9678 36.0688 76.4358C36.7623 76.0659 37.0153 76.0146 36.7652 76.2791C36.3986 76.6261 36.4981 76.6431 37.2855 76.4153C37.8057 76.2758 38.2689 76.0084 38.2888 75.8463C38.3228 75.6473 38.5474 75.67 38.8403 75.8461C39.1474 76.0772 39.226 76.0013 39.0761 75.6186C38.9395 75.3116 38.9536 74.9989 39.1071 74.9306C39.235 74.8737 39.3573 74.9418 39.326 75.0783C39.2948 75.2148 39.6787 75.3198 40.1562 75.2912C40.8101 75.2454 40.9891 75.1657 40.8469 74.9838C40.5767 74.5831 41.3157 74.3155 41.6627 74.6821C41.8305 74.8526 41.7879 74.9635 41.5633 74.9409C41.3643 74.9068 41.2591 75.0149 41.316 75.1428C41.4413 75.4242 41.8477 75.3046 44.0448 74.3883C44.7469 74.1065 45.2642 74.0295 45.3439 74.2086C45.5943 74.7714 46.0236 74.7029 46.5151 74.0858C46.9129 73.6024 47.1061 73.4857 47.4388 73.6135C47.6975 73.7129 48.087 73.6928 48.3428 73.579C48.573 73.4766 48.9597 73.519 49.1786 73.6668C49.409 73.8401 50.1254 73.7971 50.9013 73.5437C51.6375 73.3387 52.5074 73.2275 52.8656 73.3439C53.1869 73.4461 53.5138 73.4232 53.5564 73.3123C53.6246 73.19 53.9657 73.1302 54.3637 73.1982C54.7362 73.2777 55.2507 73.2632 55.5065 73.1494C55.7623 73.0356 56.0125 73.0468 56.0808 73.2003C56.1377 73.3282 56.4248 73.3537 56.7062 73.2285C56.9876 73.1033 57.2634 73.1031 57.3317 73.2566C57.3886 73.3845 57.977 73.3985 58.6706 73.3044C59.3273 73.196 59.9555 73.1616 60.0778 73.2298C60.3593 73.3804 63.6883 73.4926 63.9697 73.3674C64.1232 73.2991 64.507 73.4041 64.8369 73.5944C65.1667 73.7848 65.5761 73.8784 65.7552 73.7987C66.1645 73.6166 67.2419 73.6275 68.4502 73.7947C69.0102 73.8826 69.5987 73.8965 69.8033 73.8055C69.9938 73.7514 70.5539 73.8392 71.0458 74.0494C71.5377 74.2595 72.0977 74.3474 72.328 74.245C72.5326 74.1539 72.7913 74.2533 72.8824 74.4579C73.0418 74.8161 73.2038 74.8359 74.1475 74.4773C74.4147 74.389 75.0629 74.4684 75.6315 74.6444C76.2001 74.8204 76.7744 74.8713 76.9051 74.7518C77.0358 74.6324 77.8319 74.7685 78.6962 75.058C79.5606 75.3476 80.7093 75.7252 81.2295 75.8615C81.7612 76.0233 82.2389 76.2704 82.3186 76.4494C82.4125 76.5915 82.5945 76.7251 82.7707 76.7079C82.91 76.6766 83.2826 77.0318 83.5784 77.4211C83.9909 78.0037 84.0308 78.2311 83.775 78.345Z" fill="white"/>
<path fill-rule="evenodd" clip-rule="evenodd" d="M39.2552 12.0405C39.1529 12.086 39.2269 12.3902 39.4517 12.6886C39.7105 13.0637 39.7192 13.4276 39.5317 13.6949C39.3442 13.9622 39.3613 14.1384 39.5603 14.1725C40.0465 14.232 40.1934 18.4876 39.7105 19.4686C39.56 19.7501 39.5175 20.1367 39.5858 20.2902C39.6541 20.4437 39.5718 20.8787 39.4043 21.2597C39.2253 21.6151 39.1659 22.1013 39.2569 22.3059C39.348 22.5105 39.3253 22.7351 39.1718 22.8034C39.0439 22.8603 38.9957 23.0963 39.0868 23.301C39.1892 23.5312 39.1126 23.8411 38.9421 24.0089C38.783 24.2023 38.7292 24.5634 38.843 24.8192C38.9568 25.075 38.9058 25.3735 38.7267 25.4531C38.2151 25.6808 37.9426 26.7214 38.1108 27.7191C38.1906 28.1739 38.1313 28.9359 37.9609 29.3794C37.7905 29.823 37.626 30.6929 37.5978 31.3184C37.5327 31.9296 37.4079 32.4755 37.3056 32.521C37.1777 32.5779 37.1692 32.7656 37.2489 32.9446C37.4196 33.3283 36.6614 35.1367 36.3345 35.1596C36.1952 35.1909 36.2095 35.4297 36.3461 35.7367C36.4713 36.0181 36.4487 36.2427 36.3122 36.2115C36.1502 36.1916 35.8349 36.7916 35.5993 37.5706C35.3637 38.3496 35.0314 39.0491 34.8779 39.1174C34.6988 39.1971 34.6136 39.4189 34.6819 39.5724C34.8413 39.9305 33.6743 43.024 33.3161 43.1833C33.2138 43.2289 33.035 43.8601 32.9273 44.5822C32.8452 45.2929 32.6663 45.9241 32.564 45.9696C32.3849 46.0493 31.9077 46.9052 31.4874 47.889C31.3625 48.1592 31.175 48.4265 31.0215 48.4947C30.868 48.563 30.7402 48.8957 30.7233 49.271C30.6809 49.6576 30.4678 49.9363 30.229 49.9506C29.9902 49.965 29.8595 50.0844 29.9164 50.2123C29.9733 50.3402 29.7262 50.8179 29.4051 51.2672C28.7545 52.0777 28.6238 52.1972 28.1719 52.4902C28.044 52.5471 28.0072 52.8086 28.0982 53.0133C28.3031 53.4737 27.8143 53.7526 27.5838 53.3035C27.4899 53.1614 27.4701 53.3234 27.5271 53.7271C27.5927 54.2189 27.4536 54.526 27.0045 54.7564C25.9017 55.3084 25.7966 55.4165 25.9787 55.8258C26.0926 56.0816 25.9846 56.2522 25.7458 56.2665C25.507 56.2808 25.2768 56.3833 25.2342 56.4942C25.203 56.6306 24.8648 56.9037 24.4925 57.1C24.1571 57.3105 23.8303 57.6092 23.8105 57.7712C23.7283 58.2062 21.0935 59.3786 20.2804 59.342C19.5043 59.3196 19.0549 58.7228 19.5921 58.4838C20.1435 58.2078 20.7482 56.4677 20.4864 55.8794C20.2929 55.4445 20.3099 55.345 20.6142 55.5467C21.0521 55.8422 21.2027 55.5607 22.6709 52.1799C23.0912 51.1961 23.8608 49.4133 24.4061 48.1594C25.6358 45.3445 30.0482 33.36 31.4052 29.1094C31.6436 28.2678 31.9987 27.6195 32.1608 27.6393C32.3228 27.6592 32.3113 27.3578 32.1519 26.9997C31.9812 26.616 31.9811 26.3402 32.1801 26.3743C32.3677 26.3827 32.4017 26.1837 32.2652 25.8767C32.1286 25.5698 32.1882 25.3594 32.3502 25.3792C32.5379 25.3876 32.6288 25.3166 32.5719 25.1887C32.515 25.0607 32.6655 24.7792 32.9128 24.5773C33.16 24.3753 33.2878 24.0427 33.1853 23.8125C33.0829 23.5822 33.1823 23.3235 33.3869 23.2324C33.5915 23.1414 33.7137 22.9338 33.634 22.7547C33.5657 22.6012 33.611 22.1521 33.7416 21.7569C33.8778 21.2366 33.8607 21.0603 33.5963 21.086C33.1557 21.1288 33.4253 20.1508 33.9114 19.9345C34.0904 19.8548 34.0875 19.6416 33.8941 19.4825C33.6666 19.2467 33.7489 19.0874 34.1582 18.9053C34.5258 18.7213 34.486 18.5858 34.0387 18.4988C33.5913 18.4118 33.4718 18.0973 33.68 17.5552L33.9782 16.779L34.132 17.5379C34.283 18.0837 34.4024 18.2144 34.5502 17.9954C34.6581 17.8248 34.6722 17.5121 34.5811 17.3075C34.4901 17.1028 34.652 16.8469 34.9334 16.7217C35.2147 16.5965 35.3994 16.3917 35.3425 16.2638C35.2856 16.1359 35.4245 15.2773 35.68 14.3362C35.9098 13.4065 36.1424 12.1385 36.1677 11.5756C36.2607 9.78745 36.5022 9.43486 37.3552 9.69886C37.7504 9.82946 38.0774 10.0823 38.0804 10.2955C38.0833 10.5087 38.2397 10.6537 38.3904 10.6479C38.7429 10.6136 39.5622 11.9039 39.2552 12.0405Z" fill="white"/>
</svg>
