<svg width="180" height="180" viewBox="0 0 180 180" fill="none" xmlns="http://www.w3.org/2000/svg">
<path d="M162.681 90.8152L165.743 91.6318L165.836 90.2129L167.045 90.2919L166.937 91.9391L170.76 92.9471L170.893 90.9145L172.102 90.9935L171.955 93.2369L174.877 94.0271L174.792 95.324L171.87 94.5338L171.704 97.0564L174.626 97.8475L174.541 99.1435L171.619 98.3533L171.526 99.7731L170.317 99.6932L170.425 98.046L166.602 97.0388L166.468 99.0715L165.259 98.9916L165.406 96.7491L162.345 95.9316L162.43 94.6347L165.492 95.4522L165.658 92.9287L162.596 92.1112L162.681 90.8152ZM166.852 93.236L166.687 95.742L170.51 96.75L170.675 94.244L166.852 93.236Z" fill="white"/>
<path d="M160.529 105.185L161.897 105.506C162.165 104.366 162.602 103.428 163.207 102.693C163.81 101.968 164.551 101.475 165.43 101.212C166.307 100.96 167.281 100.961 168.352 101.212C169.982 101.594 171.135 102.37 171.811 103.538C172.495 104.721 172.633 106.185 172.224 107.928L173.489 108.225L173.072 110.003L171.807 109.706C171.398 111.45 170.625 112.694 169.488 113.437C168.361 114.195 166.982 114.383 165.352 114C164.269 113.746 163.393 113.306 162.722 112.679C162.062 112.056 161.623 111.286 161.406 110.369C161.188 109.452 161.213 108.424 161.48 107.284L160.112 106.963L160.529 105.185ZM170.382 109.553L170.426 109.365L162.869 107.592L162.825 107.78C162.581 108.817 162.709 109.736 163.206 110.539C163.715 111.343 164.573 111.887 165.781 112.171C167.023 112.463 168.038 112.364 168.827 111.875C169.615 111.387 170.133 110.613 170.382 109.553ZM163.327 105.643L163.282 105.831L170.839 107.603L170.883 107.416C171.132 106.356 171.012 105.431 170.523 104.644C170.035 103.855 169.169 103.316 167.927 103.024C166.719 102.741 165.708 102.846 164.894 103.341C164.09 103.85 163.567 104.617 163.327 105.643Z" fill="white"/>
<path d="M158.349 114.521L169.788 119.259L166.743 126.609L165.332 126.024L167.677 120.362L157.65 116.209L158.349 114.521Z" fill="white"/>
<path d="M154.317 121.293L155.282 121.835L151.328 128.879L150.363 128.338L154.317 121.293Z" fill="white"/>
<path d="M150.817 129.674L160.776 137.029L157.729 141.154C156.936 142.227 156.055 142.858 155.088 143.046C154.129 143.24 153.169 142.982 152.208 142.273C151.238 141.556 150.701 140.707 150.595 139.727C150.499 138.754 150.847 137.731 151.64 136.657L153.602 134.002L149.731 131.143L150.817 129.674ZM154.775 134.867L152.97 137.311C151.913 138.742 152.01 139.921 153.262 140.846C154.505 141.764 155.656 141.507 156.713 140.076L158.518 137.632L154.775 134.867Z" fill="white"/>
<path d="M143.1 139.406L144.379 143.392L154.301 145.714L152.922 147.093L144.95 145.18L147.359 152.655L146.03 153.984L141.759 140.747L143.1 139.406Z" fill="white"/>
<path d="M136.387 145.578L137.897 146.199C137.67 146.666 137.513 147.148 137.424 147.645C137.342 148.152 137.366 148.705 137.495 149.305C137.616 149.91 137.87 150.594 138.259 151.352C138.655 152.12 139.216 153.008 139.942 154.014L142.131 157.047L135.283 161.991L128.036 151.952L129.503 150.894L135.855 159.694L139.87 156.795L138.308 154.631C137.335 153.282 136.642 152.072 136.228 150.999C135.821 149.935 135.644 148.959 135.695 148.07C135.744 147.197 135.975 146.367 136.387 145.578Z" fill="white"/>
<path d="M126.319 152.965L131.77 164.081L130.257 164.823L126.112 156.372L123.871 167.955L122.641 168.558L117.189 157.442L118.703 156.7L122.863 165.183L125.089 153.568L126.319 152.965Z" fill="white"/>
<path d="M112.363 159.031L115.557 169.403L119.752 168.111L120.203 169.571L110.082 172.688L109.633 171.227L113.828 169.936L110.635 159.563L112.363 159.031Z" fill="white"/>
<path d="M88.6306 162.679L87.8255 165.744L89.2453 165.832L89.1706 167.041L87.523 166.939L86.5299 170.766L88.563 170.892L88.4884 172.102L86.2448 171.963L85.4658 174.888L84.1687 174.808L84.9478 171.882L82.4238 171.727L81.6448 174.652L80.3477 174.572L81.1267 171.646L79.707 171.558L79.7818 170.349L81.4294 170.451L82.4225 166.624L80.3893 166.498L80.4641 165.289L82.7076 165.428L83.5128 162.363L84.8098 162.443L84.0046 165.508L86.5286 165.664L87.3338 162.599L88.6306 162.679ZM86.226 166.859L83.7195 166.704L82.7265 170.531L85.2329 170.686L86.226 166.859Z" fill="white"/>
<path d="M74.1719 160.523L73.851 161.89C74.9908 162.157 75.9286 162.594 76.6644 163.2C77.3888 163.802 77.8823 164.543 78.145 165.423C78.3963 166.299 78.3963 167.273 78.1449 168.345C77.7625 169.975 76.987 171.128 75.8183 171.803C74.6356 172.488 73.1723 172.626 71.4284 172.216L71.1316 173.482L69.3535 173.065L69.6504 171.799C67.9065 171.39 66.6628 170.617 65.9193 169.481C65.1617 168.353 64.9741 166.974 65.3565 165.345C65.6105 164.261 66.0507 163.385 66.677 162.714C67.3007 162.055 68.071 161.617 68.9879 161.399C69.9048 161.18 70.9332 161.206 72.073 161.473L72.3938 160.105L74.1719 160.523ZM69.8043 170.374L69.9923 170.418L71.7652 162.862L71.5771 162.818C70.5399 162.575 69.6203 162.701 68.8182 163.199C68.0133 163.707 67.4693 164.565 67.1859 165.773C66.8944 167.016 66.9929 168.032 67.4814 168.819C67.97 169.608 68.7442 170.126 69.8043 170.374ZM73.7142 163.319L73.5262 163.275L71.7533 170.832L71.9414 170.876C73.0014 171.124 73.9253 171.005 74.7134 170.516C75.5014 170.027 76.0412 169.162 76.3326 167.919C76.616 166.711 76.5105 165.7 76.0159 164.887C75.5072 164.082 74.74 163.56 73.7142 163.319Z" fill="white"/>
<path d="M64.8645 158.338L60.127 169.776L52.7773 166.732L53.3619 165.321L59.0243 167.666L63.1771 157.639L64.8645 158.338Z" fill="white"/>
<path d="M58.16 154.337L57.6185 155.302L50.5742 151.347L51.1157 150.383L58.16 154.337Z" fill="white"/>
<path d="M49.742 150.811L42.3863 160.77L38.2616 157.723C37.1881 156.93 36.5577 156.049 36.3703 155.082C36.1759 154.123 36.4335 153.163 37.143 152.203C37.8595 151.233 38.7079 150.695 39.6882 150.59C40.6616 150.494 41.685 150.842 42.7586 151.635L45.4141 153.596L48.273 149.727L49.742 150.811ZM44.5481 154.769L42.1044 152.964C40.673 151.907 39.4949 152.004 38.5697 153.256C37.6516 154.5 37.9081 155.65 39.3395 156.707L41.7832 158.512L44.5481 154.769Z" fill="white"/>
<path d="M40.0517 143.129L36.0657 144.407L33.7436 154.329L32.3653 152.951L34.2776 144.979L26.8023 147.388L25.4736 146.059L38.7107 141.787L40.0517 143.129Z" fill="white"/>
<path d="M33.9106 136.465L33.2894 137.976C32.8228 137.749 32.3409 137.592 31.8438 137.503C31.3371 137.421 30.784 137.445 30.1844 137.574C29.5781 137.695 28.8954 137.949 28.1366 138.338C27.3683 138.733 26.481 139.295 25.4748 140.022L22.4419 142.211L17.498 135.362L27.5364 128.115L28.5951 129.582L19.7955 135.934L22.694 139.95L24.8583 138.387C26.2062 137.414 27.4167 136.721 28.4898 136.307C29.5534 135.9 30.5297 135.723 31.4187 135.774C32.2913 135.823 33.122 136.054 33.9106 136.465Z" fill="white"/>
<path d="M26.4982 126.375L15.3826 131.826L14.6402 130.313L23.0913 126.168L11.5084 123.927L10.9053 122.698L22.0208 117.246L22.7632 118.76L14.2807 122.92L25.895 125.145L26.4982 126.375Z" fill="white"/>
<path d="M20.4786 112.575L10.1186 115.808L11.4264 119.999L9.96798 120.454L6.81348 110.345L8.27192 109.891L9.5798 114.082L19.9397 110.849L20.4786 112.575Z" fill="white"/>
<path d="M16.7437 88.9396L13.6792 88.1344L13.5915 89.5542L12.382 89.4787L12.4839 87.8315L8.65688 86.8384L8.5312 88.872L7.3218 88.7965L7.46047 86.5534L4.53516 85.7743L4.61533 84.4773L7.54065 85.2563L7.69665 82.7324L4.77133 81.9533L4.85151 80.6563L7.77682 81.4353L7.86458 80.0156L9.07398 80.0903L8.97213 81.7379L12.7991 82.7311L12.9248 80.6979L14.1342 80.7726L13.9955 83.0161L17.06 83.8213L16.9798 85.1184L13.9154 84.3131L13.7593 86.8371L16.8238 87.6424L16.7437 88.9396ZM12.5641 86.5345L12.7189 84.028L8.89196 83.035L8.73704 85.5414L12.5641 86.5345Z" fill="white"/>
<path d="M18.8852 74.3262L17.5174 74.0053C17.25 75.1451 16.8135 76.0829 16.208 76.8186C15.6051 77.543 14.8641 78.0366 13.9847 78.2993C13.1081 78.5506 12.134 78.5505 11.0626 78.2992C9.43273 77.9168 8.27989 77.1413 7.60408 75.9726C6.91954 74.7899 6.78183 73.3265 7.19094 71.5827L5.92578 71.2859L6.34292 69.5078L7.60809 69.8046C8.01721 68.0608 8.78999 66.817 9.92645 66.0736C11.0541 65.316 12.4329 65.1284 14.0629 65.5108C15.1457 65.7648 16.0224 66.2049 16.6932 66.8313C17.3526 67.455 17.7911 68.2253 18.009 69.1422C18.2267 70.0591 18.202 71.0874 17.9345 72.2272L19.3023 72.5481L18.8852 74.3262ZM9.03304 69.9585L8.98887 70.1466L16.5457 71.9195L16.5898 71.7314C16.8332 70.6941 16.7062 69.7746 16.2089 68.9725C15.7002 68.1676 14.8419 67.6236 13.6337 67.3401C12.3913 67.0487 11.3761 67.1472 10.5881 67.6357C9.8001 68.1243 9.2817 68.8985 9.03304 69.9585ZM16.0884 73.8685L16.1326 73.6804L8.57579 71.9076L8.53166 72.0957C8.28298 73.1557 8.40291 74.0796 8.89141 74.8677C9.37995 75.6557 10.2454 76.1955 11.4878 76.4869C12.696 76.7703 13.7068 76.6648 14.5203 76.1702C15.325 75.6615 15.8478 74.8943 16.0884 73.8685Z" fill="white"/>
<path d="M21.0407 65.0285L9.60254 60.291L12.6466 52.9414L14.0581 53.526L11.7129 59.1884L21.7395 63.3412L21.0407 65.0285Z" fill="white"/>
<path d="M24.9247 58.5264L23.958 57.9884L27.886 50.9297L28.8527 51.4676L24.9247 58.5264Z" fill="white"/>
<path d="M28.4447 50.0047L18.4863 42.6489L21.533 38.5243C22.3259 37.4508 23.2065 36.8204 24.1745 36.633C25.1331 36.4387 26.0926 36.6962 27.0532 37.4058C28.0231 38.1222 28.5608 38.9705 28.6663 39.9509C28.7624 40.9243 28.414 41.9477 27.621 43.0212L25.6595 45.6768L29.5298 48.5356L28.4447 50.0047ZM24.4871 44.8108L26.2921 42.3671C27.3494 40.9358 27.2518 39.7575 25.9994 38.8324C24.7563 37.9142 23.6061 38.1708 22.5489 39.6022L20.7439 42.0459L24.4871 44.8108Z" fill="white"/>
<path d="M36.0931 40.2832L34.8142 36.2972L24.8926 33.9752L26.2709 32.5968L34.2429 34.5091L31.834 27.0337L33.1627 25.7051L37.4343 38.9422L36.0931 40.2832Z" fill="white"/>
<path d="M42.7203 34.108L41.2106 33.4867C41.437 33.0202 41.5945 32.5382 41.6832 32.041C41.765 31.5343 41.7411 30.9812 41.6116 30.3817C41.4915 29.7753 41.237 29.0926 40.848 28.3338C40.4523 27.5655 39.8912 26.6783 39.1649 25.672L36.9756 22.6392L43.8245 17.6953L51.0706 27.7337L49.604 28.7924L43.2521 19.9927L39.2367 22.8913L40.799 25.0556C41.772 26.4034 42.4654 27.614 42.8791 28.6871C43.2859 29.7507 43.4635 30.727 43.4122 31.616C43.3635 32.4886 43.1328 33.3192 42.7203 34.108Z" fill="white"/>
<path d="M53.0376 26.5246L47.5859 15.409L49.0995 14.6666L53.2443 23.1176L55.485 11.5348L56.7148 10.9316L62.1666 22.0472L60.6529 22.7896L56.4926 14.307L54.2674 25.9213L53.0376 26.5246Z" fill="white"/>
<path d="M66.5529 20.5889L63.3199 10.229L59.1289 11.5368L58.6738 10.0784L68.7823 6.92383L69.2375 8.38227L65.0465 9.69009L68.2795 20.0501L66.5529 20.5889Z" fill="white"/>
<path d="M90.2992 16.7437L91.1044 13.6792L89.6846 13.5915L89.7592 12.382L91.4073 12.4839L92.4004 8.65688L90.3668 8.5312L90.4414 7.3218L92.6849 7.46047L93.4646 4.53516L94.7614 4.61533L93.9826 7.54065L96.5061 7.69665L97.285 4.77133L98.5827 4.85151L97.803 7.77682L99.2228 7.86458L99.1482 9.07398L97.501 8.97213L96.5079 12.7991L98.5406 12.9248L98.4659 14.1342L96.2225 13.9955L95.4174 17.06L94.1205 16.9798L94.9256 13.9154L92.4013 13.7593L91.5961 16.8238L90.2992 16.7437ZM92.7042 12.5641L95.2101 12.7189L96.2032 8.89196L93.6973 8.73704L92.7042 12.5641Z" fill="white"/>
<path d="M105.078 18.8891L105.399 17.5213C104.259 17.2539 103.321 16.8174 102.585 16.2119C101.861 15.609 101.368 14.868 101.105 13.9886C100.853 13.112 100.853 12.1379 101.105 11.0665C101.487 9.43662 102.262 8.2838 103.431 7.60798C104.614 6.92344 106.077 6.78573 107.821 7.19485L108.118 5.92969L109.896 6.34682L109.599 7.61198C111.343 8.0211 112.587 8.79389 113.33 9.93035C114.088 11.058 114.276 12.4368 113.893 14.0667C113.639 15.1496 113.199 16.0263 112.572 16.6971C111.949 17.3564 111.179 17.795 110.261 18.0129C109.345 18.2306 108.316 18.2059 107.177 17.9384L106.856 19.3062L105.078 18.8891ZM109.446 9.03693L109.258 8.99286L107.485 16.5496L107.673 16.5937C108.71 16.8371 109.629 16.7101 110.432 16.2128C111.236 15.7041 111.78 14.8458 112.064 13.6376C112.355 12.3952 112.257 11.38 111.768 10.592C111.28 9.804 110.505 9.2856 109.446 9.03693ZM105.536 16.0923L105.724 16.1365L107.496 8.57968L107.308 8.53557C106.249 8.28689 105.324 8.40681 104.536 8.89539C103.748 9.38385 103.209 10.2493 102.917 11.4917C102.634 12.6999 102.739 13.7107 103.233 14.5242C103.743 15.3289 104.51 15.8516 105.536 16.0923Z" fill="white"/>
<path d="M114.391 21.0436L119.128 9.60547L126.478 12.6496L125.893 14.0611L120.231 11.7159L116.078 21.7426L114.391 21.0436Z" fill="white"/>
<path d="M120.852 24.9023L121.39 23.9355L128.448 27.8634L127.91 28.8301L120.852 24.9023Z" fill="white"/>
<path d="M129.425 28.4486L136.78 18.4902L140.904 21.5369C141.978 22.3299 142.609 23.2104 142.797 24.1784C142.991 25.137 142.733 26.0965 142.023 27.0571C141.307 28.027 140.458 28.5647 139.478 28.6702C138.505 28.7663 137.482 28.4179 136.408 27.6249L133.753 25.6635L130.894 29.5338L129.425 28.4486ZM134.618 24.491L137.062 26.296C138.493 27.3533 139.672 27.2557 140.597 26.0033C141.515 24.7602 141.258 23.61 139.827 22.5528L137.383 20.7478L134.618 24.491Z" fill="white"/>
<path d="M139.175 36.1224L143.161 34.8435L145.483 24.9219L146.861 26.3002L144.949 34.2722L152.425 31.8633L153.753 33.192L140.516 37.4636L139.175 36.1224Z" fill="white"/>
<path d="M145.373 42.7877L145.994 41.278C146.46 41.5042 146.942 41.6618 147.44 41.7505C147.947 41.8324 148.5 41.8085 149.099 41.6789C149.705 41.5589 150.388 41.3044 151.147 40.9154C151.915 40.5196 152.802 39.9585 153.808 39.2322L156.841 37.043L161.786 43.8918L151.747 51.138L150.688 49.6714L159.488 43.3194L156.589 39.3041L154.425 40.8664C153.077 41.8394 151.866 42.5327 150.793 42.9464C149.73 43.3532 148.754 43.5309 147.865 43.4795C146.992 43.4308 146.162 43.2002 145.373 42.7877Z" fill="white"/>
<path d="M152.733 52.7195L163.828 47.2266L164.577 48.7374L156.141 52.9136L167.732 55.1113L168.34 56.3389L157.245 61.8318L156.497 60.3209L164.964 56.1292L153.341 53.9471L152.733 52.7195Z" fill="white"/>
<path d="M158.905 66.7346L169.264 63.5015L167.957 59.3107L169.416 58.8555L172.57 68.964L171.112 69.4191L169.804 65.2282L159.444 68.4612L158.905 66.7346Z" fill="white"/>
<g clip-path="url(#clip0_957_2293)">
<path d="M90.3902 45.1953L91.4536 86.6893L118.94 55.5866L93.0827 88.0564L134.131 81.8982L93.452 90.1508L128.855 111.819L92.3887 91.9926L105.581 131.348L90.3902 92.72L75.1992 131.348L88.3917 91.9926L51.9252 111.819L87.3283 90.1508L46.6494 81.8982L87.6976 88.0564L61.8404 55.5866L89.3268 86.6893L90.3902 45.1953Z" fill="white"/>
</g>
<defs>
<clipPath id="clip0_957_2293">
<rect width="77.9221" height="77.9221" fill="white" transform="matrix(1 0 0 -1 51.4287 128.572)"/>
</clipPath>
</defs>
</svg>
