<svg width="147" height="147" viewBox="0 0 147 147" fill="none" xmlns="http://www.w3.org/2000/svg">
<path d="M132.857 74.1657L135.357 74.8326L135.433 73.6738L136.421 73.7384L136.332 75.0836L139.454 75.9068L139.563 74.2468L140.551 74.3113L140.43 76.1434L142.817 76.7888L142.747 77.8479L140.361 77.2025L140.225 79.2627L142.612 79.9088L142.542 80.9672L140.156 80.3218L140.08 81.4813L139.092 81.4161L139.181 80.0708L136.058 79.2484L135.949 80.9084L134.962 80.8431L135.082 79.0117L132.582 78.3441L132.652 77.285L135.152 77.9526L135.288 75.8917L132.787 75.2241L132.857 74.1657ZM136.263 76.1427L136.128 78.1892L139.25 79.0124L139.385 76.9659L136.263 76.1427Z" fill="white"/>
<path d="M131.098 85.9027L132.216 86.1645C132.434 85.2337 132.791 84.4679 133.285 83.867C133.777 83.2754 134.383 82.8724 135.1 82.658C135.817 82.4522 136.612 82.4529 137.487 82.658C138.818 82.9699 139.76 83.6038 140.311 84.5575C140.871 85.5234 140.983 86.7188 140.649 88.1429L141.682 88.3853L141.342 89.8373L140.309 89.595C139.974 91.0191 139.343 92.0352 138.415 92.6418C137.494 93.2606 136.368 93.4141 135.037 93.1014C134.152 92.8942 133.437 92.535 132.889 92.023C132.35 91.5138 131.992 90.885 131.814 90.1363C131.636 89.387 131.657 88.5473 131.875 87.6165L130.758 87.3548L131.098 85.9027ZM139.145 89.4695L139.181 89.316L133.009 87.8682L132.974 88.0217C132.774 88.8686 132.878 89.6193 133.284 90.2747C133.7 90.9316 134.401 91.3762 135.387 91.6078C136.402 91.8458 137.231 91.7655 137.875 91.3661C138.518 90.9674 138.942 90.335 139.145 89.4695ZM133.383 86.2763L133.346 86.4298L139.518 87.8776L139.554 87.7241C139.757 86.8586 139.66 86.1035 139.26 85.4603C138.861 84.8164 138.154 84.3761 137.14 84.138C136.153 83.9064 135.328 83.9925 134.663 84.3962C134.006 84.8121 133.579 85.4388 133.383 86.2763Z" fill="white"/>
<path d="M129.319 93.5254L138.66 97.3947L136.174 103.397L135.021 102.919L136.936 98.2954L128.748 94.9036L129.319 93.5254Z" fill="white"/>
<path d="M126.026 99.0566L126.814 99.4991L123.585 105.252L122.797 104.81L126.026 99.0566Z" fill="white"/>
<path d="M123.168 105.9L131.301 111.907L128.812 115.276C128.165 116.152 127.446 116.667 126.655 116.821C125.872 116.979 125.089 116.769 124.304 116.19C123.512 115.605 123.073 114.911 122.987 114.111C122.908 113.316 123.193 112.48 123.84 111.603L125.442 109.435L122.281 107.1L123.168 105.9ZM126.4 110.142L124.926 112.137C124.062 113.306 124.142 114.269 125.165 115.024C126.18 115.774 127.119 115.564 127.983 114.396L129.457 112.4L126.4 110.142Z" fill="white"/>
<path d="M116.865 113.85L117.909 117.104L126.012 119.001L124.886 120.127L118.376 118.565L120.343 124.67L119.258 125.754L115.77 114.945L116.865 113.85Z" fill="white"/>
<path d="M111.383 118.889L112.615 119.396C112.43 119.777 112.302 120.171 112.229 120.577C112.162 120.99 112.182 121.442 112.288 121.932C112.386 122.427 112.594 122.985 112.911 123.604C113.235 124.232 113.693 124.957 114.286 125.778L116.074 128.255L110.481 132.292L104.562 124.094L105.761 123.23L110.948 130.416L114.227 128.049L112.952 126.282C112.156 125.18 111.591 124.192 111.253 123.316C110.92 122.447 110.775 121.649 110.818 120.924C110.857 120.211 111.046 119.533 111.383 118.889Z" fill="white"/>
<path d="M103.16 124.922L107.613 134L106.377 134.606L102.992 127.704L101.162 137.164L100.157 137.656L95.7051 128.578L96.9413 127.972L100.339 134.9L102.157 125.415L103.16 124.922Z" fill="white"/>
<path d="M91.7636 129.875L94.3723 138.345L97.7984 137.29L98.1663 138.483L89.9013 141.028L89.5342 139.835L92.9604 138.78L90.3524 130.31L91.7636 129.875Z" fill="white"/>
<path d="M72.3814 132.856L71.7238 135.358L72.8833 135.43L72.8224 136.418L71.4768 136.334L70.6658 139.46L72.3261 139.563L72.2652 140.551L70.4329 140.437L69.7967 142.826L68.7375 142.761L69.3737 140.371L67.3124 140.245L66.6763 142.633L65.617 142.568L66.2532 140.179L65.0938 140.107L65.1548 139.119L66.5004 139.203L67.3114 136.077L65.6509 135.974L65.712 134.987L67.5442 135.1L68.2018 132.598L69.261 132.663L68.6035 135.165L70.6647 135.293L71.3223 132.791L72.3814 132.856ZM70.4176 136.269L68.3706 136.143L67.5596 139.268L69.6065 139.395L70.4176 136.269Z" fill="white"/>
<path d="M60.5732 131.095L60.3112 132.211C61.242 132.43 62.0078 132.786 62.6087 133.281C63.2003 133.773 63.6033 134.378 63.8179 135.097C64.0231 135.812 64.0231 136.607 63.8178 137.483C63.5055 138.814 62.8722 139.755 61.9178 140.307C60.9519 140.866 59.7569 140.979 58.3327 140.644L58.0903 141.678L56.6382 141.337L56.8806 140.304C55.4564 139.97 54.4408 139.339 53.8336 138.411C53.2149 137.489 53.0616 136.364 53.3739 135.033C53.5814 134.148 53.9409 133.432 54.4524 132.884C54.9617 132.346 55.5908 131.988 56.3396 131.81C57.0884 131.632 57.9283 131.652 58.8591 131.87L59.1211 130.754L60.5732 131.095ZM57.0063 139.14L57.1598 139.176L58.6077 133.005L58.4541 132.969C57.6071 132.77 56.856 132.874 56.201 133.28C55.5437 133.695 55.0994 134.396 54.8679 135.383C54.6299 136.397 54.7103 137.227 55.1093 137.87C55.5083 138.514 56.1406 138.937 57.0063 139.14ZM60.1994 133.378L60.0459 133.343L58.598 139.514L58.7516 139.55C59.6173 139.752 60.3718 139.655 61.0154 139.256C61.659 138.857 62.0998 138.15 62.3378 137.135C62.5692 136.148 62.483 135.323 62.0791 134.659C61.6637 134.002 61.0371 133.575 60.1994 133.378Z" fill="white"/>
<path d="M52.9727 129.309L49.1037 138.65L43.1016 136.164L43.579 135.012L48.2032 136.927L51.5947 128.738L52.9727 129.309Z" fill="white"/>
<path d="M47.4968 126.041L47.0546 126.83L41.3018 123.6L41.744 122.812L47.4968 126.041Z" fill="white"/>
<path d="M40.6227 123.163L34.6156 131.296L31.2472 128.808C30.3705 128.16 29.8556 127.441 29.7026 126.651C29.5438 125.868 29.7542 125.084 30.3336 124.299C30.9187 123.508 31.6116 123.068 32.4122 122.982C33.2071 122.904 34.0429 123.188 34.9196 123.836L37.0884 125.437L39.4231 122.277L40.6227 123.163ZM36.3811 126.396L34.3854 124.921C33.2165 124.058 32.2543 124.137 31.4987 125.16C30.7489 126.175 30.9585 127.115 32.1274 127.978L34.1231 129.452L36.3811 126.396Z" fill="white"/>
<path d="M32.7091 116.889L29.4539 117.933L27.5575 126.036L26.4319 124.91L27.9936 118.4L21.8888 120.367L20.8037 119.282L31.6139 115.793L32.7091 116.889Z" fill="white"/>
<path d="M27.6936 111.446L27.1863 112.68C26.8053 112.495 26.4117 112.366 26.0057 112.294C25.5919 112.226 25.1402 112.247 24.6506 112.352C24.1554 112.45 23.5979 112.658 22.9782 112.976C22.3507 113.299 21.6261 113.757 20.8044 114.35L18.3275 116.138L14.29 110.545L22.4881 104.627L23.3526 105.824L16.1663 111.012L18.5334 114.292L20.3009 113.015C21.4017 112.221 22.3903 111.655 23.2666 111.317C24.1352 110.985 24.9326 110.84 25.6586 110.881C26.3712 110.921 27.0496 111.11 27.6936 111.446Z" fill="white"/>
<path d="M21.6405 103.207L12.5627 107.659L11.9565 106.423L18.8581 103.038L9.39881 101.208L8.90625 100.204L17.984 95.752L18.5903 96.9882L11.6628 100.386L21.1478 102.203L21.6405 103.207Z" fill="white"/>
<path d="M16.7233 91.9362L8.26263 94.5765L9.33071 97.9991L8.13966 98.3713L5.56348 90.1156L6.75453 89.7441L7.82264 93.1667L16.2832 90.5265L16.7233 91.9362Z" fill="white"/>
<path d="M13.6734 72.6336L11.1707 71.976L11.0991 73.1356L10.1114 73.0739L10.1946 71.7287L7.0692 70.9176L6.96656 72.5784L5.97889 72.5167L6.09213 70.6849L3.70312 70.0486L3.7686 68.9894L6.15761 69.6256L6.28501 67.5644L3.896 66.9281L3.96148 65.869L6.35049 66.5051L6.42215 65.3457L7.40983 65.4067L7.32665 66.7522L10.452 67.5633L10.5547 65.9029L11.5423 65.9639L11.4291 67.7961L13.9318 68.4537L13.8663 69.513L11.3636 68.8553L11.2362 70.9166L13.7389 71.5742L13.6734 72.6336ZM10.2601 70.6695L10.3865 68.6225L7.26119 67.8115L7.13466 69.8585L10.2601 70.6695Z" fill="white"/>
<path d="M15.4234 60.7001L14.3063 60.4381C14.088 61.3689 13.7315 62.1348 13.237 62.7356C12.7447 63.3272 12.1394 63.7303 11.4213 63.9448C10.7054 64.15 9.90992 64.15 9.03495 63.9448C7.70385 63.6325 6.76237 62.9991 6.21045 62.0447C5.65141 61.0788 5.53895 59.8838 5.87306 58.4596L4.83984 58.2172L5.18051 56.7651L6.21373 57.0075C6.54784 55.5834 7.17895 54.5677 8.10706 53.9605C9.028 53.3418 10.154 53.1886 11.4851 53.5009C12.3694 53.7083 13.0854 54.0678 13.6333 54.5793C14.1717 55.0887 14.5299 55.7178 14.7078 56.4665C14.8856 57.2154 14.8654 58.0551 14.647 58.986L15.764 59.2481L15.4234 60.7001ZM7.37744 57.1332L7.34137 57.2868L13.5128 58.7346L13.5488 58.581C13.7476 57.734 13.6439 56.983 13.2377 56.3279C12.8223 55.6707 12.1213 55.2264 11.1346 54.9948C10.12 54.7568 9.29095 54.8373 8.64737 55.2363C8.00387 55.6352 7.58051 56.2676 7.37744 57.1332ZM13.1393 60.3263L13.1754 60.1727L7.00401 58.725L6.96798 58.8786C6.76489 59.7442 6.86284 60.4988 7.26177 61.1424C7.66075 61.7859 8.36757 62.2267 9.38216 62.4647C10.3689 62.6962 11.1943 62.61 11.8587 62.2061C12.5159 61.7907 12.9428 61.1641 13.1393 60.3263Z" fill="white"/>
<path d="M17.183 53.1055L7.8418 49.2366L10.3278 43.2344L11.4805 43.7118L9.56528 48.3361L17.7537 51.7275L17.183 53.1055Z" fill="white"/>
<path d="M20.3549 47.7958L19.5654 47.3564L22.7733 41.5918L23.5628 42.0311L20.3549 47.7958Z" fill="white"/>
<path d="M23.2303 40.8367L15.0977 34.8294L17.5858 31.461C18.2333 30.5843 18.9524 30.0694 19.743 29.9164C20.5258 29.7577 21.3094 29.968 22.0939 30.5475C22.886 31.1326 23.3251 31.8254 23.4113 32.626C23.4898 33.421 23.2052 34.2568 22.5577 35.1335L20.9557 37.3022L24.1165 39.6369L23.2303 40.8367ZM19.9983 36.5949L21.4724 34.5993C22.3359 33.4304 22.2561 32.4681 21.2333 31.7126C20.2181 30.9628 19.2788 31.1723 18.4154 32.3413L16.9413 34.337L19.9983 36.5949Z" fill="white"/>
<path d="M29.4762 32.8977L28.4317 29.6425L20.3291 27.7461L21.4548 26.6204L27.9652 28.1821L25.9979 22.0773L27.083 20.9922L30.5715 31.8025L29.4762 32.8977Z" fill="white"/>
<path d="M34.8888 27.8548L33.6559 27.3474C33.8407 26.9665 33.9694 26.5729 34.0418 26.1669C34.1086 25.753 34.0891 25.3013 33.9833 24.8117C33.8852 24.3165 33.6774 23.759 33.3598 23.1393C33.0366 22.5119 32.5784 21.7873 31.9852 20.9655L30.1973 18.4887L35.7905 14.4512L41.7082 22.6492L40.5105 23.5138L35.323 16.3274L32.0439 18.6945L33.3198 20.462C34.1143 21.5628 34.6806 22.5514 35.0184 23.4278C35.3507 24.2964 35.4957 25.0937 35.4538 25.8197C35.414 26.5323 35.2257 27.2107 34.8888 27.8548Z" fill="white"/>
<path d="M43.3145 21.662L38.8623 12.5842L40.0984 11.9779L43.4833 18.8796L45.3132 9.42029L46.3176 8.92773L50.7698 18.0055L49.5336 18.6117L46.1361 11.6843L44.3188 21.1693L43.3145 21.662Z" fill="white"/>
<path d="M54.3516 16.8141L51.7112 8.35348L48.2887 9.42156L47.917 8.2305L56.1722 5.6543L56.544 6.84536L53.1214 7.91341L55.7616 16.3741L54.3516 16.8141Z" fill="white"/>
<path d="M73.7441 13.6734L74.4017 11.1707L73.2422 11.0991L73.3031 10.1114L74.6491 10.1946L75.4601 7.0692L73.7994 6.96656L73.8603 5.97889L75.6924 6.09213L76.3292 3.70312L77.3883 3.7686L76.7523 6.15761L78.8131 6.28501L79.4492 3.896L80.509 3.96148L79.8722 6.35049L81.0318 6.42215L80.9708 7.40983L79.6256 7.32665L78.8146 10.452L80.4746 10.5547L80.4136 11.5423L78.5815 11.4291L77.924 13.9318L76.8648 13.8663L77.5224 11.3636L75.4608 11.2362L74.8033 13.7389L73.7441 13.6734ZM75.7082 10.2601L77.7547 10.3865L78.5657 7.26119L76.5192 7.13466L75.7082 10.2601Z" fill="white"/>
<path d="M85.8132 15.4253L86.0749 14.3083C85.1441 14.0899 84.3783 13.7334 83.7774 13.2389C83.1858 12.7466 82.7828 12.1414 82.5684 11.4232C82.3626 10.7073 82.3626 9.91187 82.5684 9.0369C82.8803 7.70579 83.5135 6.76432 84.4679 6.2124C85.4338 5.65336 86.6292 5.5409 88.0533 5.87501L88.2957 4.8418L89.7477 5.18246L89.5054 6.21567C90.9295 6.54979 91.9456 7.1809 92.5522 8.109C93.1711 9.02994 93.3245 10.156 93.0119 11.4871C92.8046 12.3714 92.4454 13.0874 91.9334 13.6352C91.4243 14.1736 90.7954 14.5318 90.046 14.7097C89.2974 14.8876 88.4577 14.8673 87.527 14.6489L87.2652 15.7659L85.8132 15.4253ZM89.3799 7.37938L89.2264 7.34339L87.7787 13.5147L87.9321 13.5507C88.779 13.7495 89.5298 13.6458 90.1852 13.2397C90.842 12.8243 91.2866 12.1233 91.5182 11.1366C91.7563 10.122 91.676 9.29289 91.2765 8.64932C90.8779 8.00582 90.2454 7.58246 89.3799 7.37938ZM86.1868 13.1413L86.3402 13.1773L87.788 7.00596L87.6345 6.96993C86.769 6.76684 86.0139 6.86478 85.3707 7.26379C84.7268 7.6627 84.2865 8.36952 84.0484 9.3841C83.8168 10.3708 83.9029 11.1963 84.3066 11.8607C84.7225 12.5179 85.3492 12.9447 86.1868 13.1413Z" fill="white"/>
<path d="M93.4189 17.1849L97.2876 7.84375L103.29 10.3298L102.813 11.4825L98.1882 9.56724L94.7972 17.7557L93.4189 17.1849Z" fill="white"/>
<path d="M98.6953 20.3364L99.1349 19.5469L104.899 22.7546L104.46 23.5441L98.6953 20.3364Z" fill="white"/>
<path d="M105.696 23.2323L111.703 15.0996L115.071 17.5877C115.948 18.2353 116.463 18.9544 116.617 19.745C116.775 20.5278 116.564 21.3114 115.985 22.0959C115.4 22.888 114.707 23.3271 113.907 23.4133C113.112 23.4917 112.276 23.2072 111.399 22.5596L109.231 20.9577L106.896 24.1185L105.696 23.2323ZM109.938 20.0002L111.933 21.4743C113.102 22.3378 114.065 22.2581 114.82 21.2352C115.57 20.2201 115.36 19.2808 114.191 18.4174L112.196 16.9433L109.938 20.0002Z" fill="white"/>
<path d="M113.66 29.5006L116.916 28.4562L118.812 20.3535L119.937 21.4792L118.376 27.9896L124.481 26.0223L125.566 27.1074L114.755 30.5959L113.66 29.5006Z" fill="white"/>
<path d="M118.722 34.9435L119.229 33.7105C119.609 33.8953 120.003 34.024 120.41 34.0965C120.823 34.1633 121.275 34.1438 121.764 34.038C122.26 33.9399 122.817 33.7321 123.437 33.4145C124.065 33.0912 124.789 32.633 125.611 32.0398L128.087 30.252L132.125 35.8452L123.927 41.7629L123.062 40.5652L130.249 35.3777L127.882 32.0986L126.114 33.3744C125.013 34.169 124.024 34.7352 123.148 35.0731C122.28 35.4053 121.482 35.5504 120.757 35.5085C120.044 35.4687 119.366 35.2804 118.722 34.9435Z" fill="white"/>
<path d="M124.732 43.0542L133.793 38.5684L134.404 39.8022L127.515 43.2128L136.981 45.0075L137.478 46.0101L128.417 50.4959L127.806 49.2621L134.721 45.8388L125.229 44.0568L124.732 43.0542Z" fill="white"/>
<path d="M129.773 54.501L138.233 51.8607L137.166 48.4381L138.357 48.0664L140.933 56.3217L139.742 56.6934L138.674 53.2708L130.213 55.9111L129.773 54.501Z" fill="white"/>
<path d="M74 38L74.8379 70.6978L96.4976 46.1884L76.1218 71.775L108.468 66.9223L76.4128 73.4254L104.311 90.5L75.5748 74.8768L85.9707 105.889L74 75.45L62.0293 105.889L72.4252 74.8768L43.6891 90.5L71.5872 73.4254L39.5317 66.9223L71.8782 71.775L51.5024 46.1884L73.1621 70.6978L74 38Z" fill="white"/>
</svg>
