<svg width="320" height="81" viewBox="0 0 320 81" fill="none" xmlns="http://www.w3.org/2000/svg">
<path fill-rule="evenodd" clip-rule="evenodd" d="M351.926 100.202C340.404 101.74 324.176 102.847 311.862 98.6087C294.059 92.4822 283.78 82.2983 275.803 74.3957C274.71 73.3127 273.66 72.2725 272.64 71.2915C268.271 67.0899 264.6 64.0375 260.362 61.9806C256.348 60.0319 251.341 58.7541 243.992 58.991C236.227 59.2413 234.105 60.8354 233.536 61.3208C232.412 62.28 231.888 63.4135 229.988 67.519L229.774 67.9809C227.983 71.8513 225.018 77.8507 217.721 82.2661C210.646 86.5468 201.256 88.3262 188.953 88.2028C173.918 88.052 164.017 81.3157 157.33 72.7795C151.322 65.1097 147.413 55.3423 144.082 47.0186C143.921 46.6183 143.763 46.2212 143.605 45.8279C139.893 36.5721 136.777 29.2462 132.468 24.3144C130.455 22.011 128.447 20.5682 126.369 19.7334C124.359 18.926 121.72 18.4569 117.929 18.8629C111.604 19.5401 106.347 23.3562 101.324 32.4415C96.233 41.649 92.8507 53.7176 89.269 66.6541C89.1899 66.9399 89.1105 67.2266 89.031 67.514C85.7403 79.4067 82.0875 92.6078 76.148 101.927C73.0034 106.861 68.531 111.858 61.9304 114.743C54.9796 117.781 47.5138 117.69 40.2059 115.442C26.7466 111.302 22.5631 100.691 21.7441 90.9479C20.9476 81.4729 23.0094 70.1777 24.8251 60.233L24.8732 59.9696C26.7845 49.5018 28.478 40.2267 28.1803 32.6623C27.8795 25.018 25.6642 21.9608 22.885 20.5859C19.3095 18.8171 17.9411 19.2688 17.5061 19.4124C17.4931 19.4166 17.481 19.4207 17.4697 19.4243C16.0644 19.8785 14.4876 20.9706 10.8759 23.8722C10.7317 23.988 10.5821 24.1087 10.4272 24.2337C7.53375 26.5676 2.77732 30.4043 -3.29277 32.2697C-10.7523 34.562 -18.3755 33.5351 -26 29.4764L-14.3216 13.3074C-10.8187 15.172 -9.54846 14.7307 -9.29001 14.6409C-9.27796 14.6367 -9.26811 14.6333 -9.26034 14.6309C-8.02134 14.2502 -6.53378 13.2589 -2.91786 10.3539C-2.76489 10.231 -2.60593 10.1027 -2.44108 9.96972C0.455137 7.63276 5.16779 3.83012 11.1666 1.89131C18.5202 -0.485371 26.1897 0.264385 34.021 4.13849C45.9115 10.0206 48.9879 21.1368 49.3752 30.9788C49.7465 40.413 47.7561 51.2882 45.9947 60.9118C45.9155 61.3446 45.8368 61.7748 45.7587 62.2023C43.83 72.7662 42.3185 81.6891 42.8943 88.5383C43.4475 95.1196 45.5818 96.9381 48.1605 97.7312C51.5428 98.7715 52.8968 98.273 53.381 98.0614C54.2155 97.6967 55.7934 96.6022 57.8 93.454C62.0192 86.8341 65.0406 76.3265 68.6815 63.1759L68.8905 62.421C72.2541 50.2675 76.1246 36.2819 82.3609 25.0033C88.7943 13.3681 99.168 2.14535 116.533 0.285934C123.749 -0.486808 130.268 0.311218 136.027 2.62527C141.719 4.91199 146.09 8.4452 149.529 12.3809C156.087 19.8866 160.152 30.0222 163.588 38.5898L163.643 38.7289L163.654 38.7545C167.372 48.026 170.509 55.8486 174.991 61.5707C179.089 66.8007 183.626 69.4218 190.369 69.4894C200.699 69.593 204.804 67.9846 206.401 67.0186C207.775 66.1872 208.657 65.081 210.203 61.7425C210.341 61.4445 210.491 61.1057 210.657 60.7325C212.006 57.6944 214.367 52.3773 219.235 48.2226C225.296 43.0488 233.608 40.6365 244.394 40.2889C255.271 39.9383 263.969 41.8778 271.359 45.4649C278.527 48.9437 283.962 53.7454 288.625 58.2298C289.824 59.3824 290.986 60.5235 292.131 61.6479C300.158 69.5303 307.354 76.5963 320.502 81.1212C327.356 83.4797 338.672 83.1992 349.901 81.7005C355.208 80.9922 359.983 80.0872 363.433 79.3575C365.152 78.994 366.527 78.6773 367.456 78.4556C367.92 78.3448 368.271 78.258 368.498 78.2013C368.611 78.173 368.693 78.1521 368.742 78.1396L368.791 78.1271L368.792 78.1269C368.79 78.1273 368.789 78.1277 371.269 87.0901C373.749 96.0525 373.747 96.0529 373.745 96.0535L373.74 96.0547L373.728 96.0578L373.695 96.0666L373.588 96.0939C373.5 96.1164 373.378 96.1474 373.224 96.1861C372.915 96.2634 372.476 96.3715 371.92 96.5041C370.81 96.7691 369.229 97.133 367.281 97.545C363.397 98.3662 357.995 99.3918 351.926 100.202Z" fill="#812D9C"/>
</svg>
