<svg width="574" height="114" viewBox="0 0 574 114" fill="none" xmlns="http://www.w3.org/2000/svg">
<path fill-rule="evenodd" clip-rule="evenodd" d="M730.794 201.515C706.37 204.775 673.385 206.871 648.898 198.444C612.492 185.915 591.592 165.236 574.598 148.422C572.252 146.101 569.98 143.854 567.753 141.711C558.365 132.683 550.001 125.64 540.065 120.817C530.463 116.157 518.653 113.23 501.909 113.77C484.439 114.333 477.982 117.982 475.048 120.486C471.532 123.487 469.838 127.163 466.361 134.709C466.052 135.377 465.73 136.077 465.391 136.809C461.657 144.877 456.002 156.106 442.335 164.375C429.002 172.443 410.682 176.175 385.124 175.919C355.738 175.624 336.355 162.583 322.94 145.459C310.641 129.76 302.575 109.615 295.409 91.7157C295.099 90.9411 294.79 90.1707 294.483 89.405C286.669 69.9186 279.738 53.4283 269.853 42.1145C265.123 36.7014 260.108 32.9757 254.554 30.7439C249.101 28.5531 242.269 27.4519 233.128 28.4307C216.206 30.2427 203.415 40.6864 192.285 60.8169C181.053 81.1307 173.694 107.519 166.126 134.852L165.767 136.149C158.647 161.873 151.065 189.264 138.912 208.333C132.579 218.27 123.971 227.678 111.737 233.025C98.9776 238.602 85.0109 238.593 70.6943 234.189C45.4723 226.432 37.2143 206.613 35.5552 186.876C33.9298 167.541 38.1439 144.253 42.0425 122.9L42.2268 121.89C46.2281 99.9792 49.9193 79.7662 49.2631 63.0926C48.596 46.1385 43.6125 37.1048 34.84 32.7651C25.7036 28.2454 20.8637 28.9773 17.8451 29.9529C13.3065 31.4198 8.90763 34.697 1.46514 40.6763C1.20464 40.8856 0.938751 41.0997 0.667473 41.3181C-5.60064 46.3651 -14.7336 53.7188 -26.2247 57.2501C-39.8099 61.4249 -54.0199 59.7425 -69 51.7683L-51.4823 27.5148C-42.4399 32.3283 -37.8337 31.6087 -35.1761 30.792C-30.9218 29.4846 -26.6743 26.3833 -19.2255 20.3989C-18.9405 20.1699 -18.6492 19.9353 -18.3515 19.6955C-12.0829 14.6464 -3.0092 7.33779 8.39056 3.65341C21.8518 -0.697238 36.1837 0.495349 51.5439 8.09392C73.9834 19.1946 80.2586 40.3168 81.0555 60.5674C81.8221 80.0464 77.6848 102.664 73.9044 123.329C73.7499 124.174 73.5959 125.016 73.443 125.854C69.3748 148.136 65.9861 167.865 67.2804 183.262C68.5409 198.257 73.725 204.885 82.6261 207.623C91.0546 210.215 95.8533 209.34 98.913 208.002C102.498 206.436 106.764 202.882 111.39 195.623C120.952 180.621 127.589 157.289 135.245 129.635L135.6 128.351C142.823 102.256 150.908 73.0473 163.84 49.6595C177.086 25.7042 197.552 4.15051 231.033 0.565315C245.312 -0.963702 257.964 0.630981 269.042 5.08167C280.017 9.49137 288.576 16.3528 295.445 24.2142C308.757 39.4497 317.123 60.2586 324.541 78.7564L324.787 79.3708C332.518 98.6491 339.423 115.87 349.432 128.646C358.962 140.811 370.3 147.679 387.249 147.849C409.846 148.076 420.239 144.6 425.355 141.504C430.138 138.611 432.668 134.721 436.033 127.451C436.36 126.746 436.703 125.978 437.071 125.157C440.011 118.584 444.459 108.638 453.597 100.838C464.77 91.3018 480.511 86.4259 502.512 85.7168C524.549 85.0066 541.895 88.9256 556.56 96.0434C570.89 102.999 581.902 112.666 591.731 122.119C594.227 124.519 596.667 126.918 599.091 129.302C616.159 146.084 632.434 162.086 661.859 172.212C678.155 177.82 703.773 176.964 727.756 173.763C739.286 172.224 749.643 170.261 757.12 168.68C760.849 167.891 763.839 167.202 765.872 166.717C766.888 166.475 767.663 166.283 768.172 166.156C768.425 166.093 768.612 166.045 768.729 166.015L768.85 165.984L768.868 165.979C768.866 165.98 768.864 165.981 772.584 179.424C776.304 192.868 776.301 192.868 776.298 192.869L776.29 192.871L776.269 192.877L776.206 192.893C776.155 192.906 776.085 192.924 775.998 192.947C775.823 192.991 775.576 193.054 775.26 193.133C774.628 193.291 773.722 193.515 772.569 193.79C770.264 194.34 766.964 195.1 762.891 195.961C754.765 197.68 743.467 199.824 730.794 201.515Z" fill="#812D9C"/>
</svg>
