<svg width="40" height="40" viewBox="0 0 40 40" fill="none" xmlns="http://www.w3.org/2000/svg">
<path d="M16.7825 4.69909L5.23247 13.9491C3.93247 14.9824 3.09914 17.1658 3.38247 18.7991L5.59914 32.0657C5.99914 34.4324 8.2658 36.3491 10.6658 36.3491H29.3325C31.7158 36.3491 33.9991 34.4157 34.3991 32.0657L36.6158 18.7991C36.8825 17.1658 36.0491 14.9824 34.7658 13.9491L23.2158 4.71577C21.4325 3.28244 18.5492 3.28242 16.7825 4.69909Z" stroke="white" stroke-width="2" stroke-linecap="round" stroke-linejoin="round"/>
<path d="M19.9997 25.8333C22.3009 25.8333 24.1663 23.9679 24.1663 21.6667C24.1663 19.3655 22.3009 17.5 19.9997 17.5C17.6985 17.5 15.833 19.3655 15.833 21.6667C15.833 23.9679 17.6985 25.8333 19.9997 25.8333Z" stroke="white" stroke-width="2" stroke-linecap="round" stroke-linejoin="round"/>
</svg>
