<svg width="322" height="66" viewBox="0 0 322 66" fill="none" xmlns="http://www.w3.org/2000/svg">
<path fill-rule="evenodd" clip-rule="evenodd" d="M409.417 112.354C396.445 114.086 378.235 115.321 364.438 110.574C344.451 103.695 332.916 92.2683 323.932 83.3688C322.7 82.1485 321.516 80.9757 320.365 79.8687C315.441 75.1333 311.284 71.673 306.474 69.3381C301.908 67.1223 296.222 65.6747 287.899 65.9429C279.116 66.226 276.645 68.0319 275.933 68.6398C274.621 69.7593 274.007 71.0882 271.907 75.6275L271.628 76.2296C269.614 80.5812 266.302 87.2734 258.162 92.1989C250.266 96.9763 239.761 98.9779 225.932 98.8392C209.109 98.6705 198.029 91.1382 190.533 81.5685C183.786 72.9571 179.395 61.9843 175.641 52.6032C175.461 52.1554 175.284 51.7113 175.107 51.2711C170.931 40.8564 167.409 32.5689 162.526 26.9808C160.241 24.3655 157.948 22.7135 155.561 21.7544C153.249 20.8254 150.227 20.2929 145.913 20.7548C138.646 21.533 132.659 25.9272 126.984 36.1917C121.234 46.5908 117.418 60.2112 113.387 74.7715C113.3 75.0865 113.212 75.4024 113.125 75.7191C109.414 89.1284 105.309 103.965 98.64 114.428C95.1136 119.961 90.115 125.538 82.7572 128.754C75.0142 132.138 66.6864 132.043 58.5081 129.527C43.4933 124.909 38.8089 113.074 37.8901 102.144C36.996 91.5078 39.3107 78.8189 41.3568 67.6116L41.4146 67.2952C43.5641 55.523 45.4748 45.0582 45.1386 36.5156C44.7988 27.8783 42.2928 24.3302 39.044 22.7231C34.9211 20.6835 33.31 21.208 32.7484 21.3908L32.7177 21.4008C31.0707 21.9331 29.2515 23.2026 25.1943 26.4621C25.0335 26.5914 24.8667 26.7259 24.6943 26.8649C21.432 29.496 16.117 33.7826 9.3408 35.865C1.03551 38.4172 -7.46546 37.2817 -16 32.7386L-3.15372 14.9527C0.861773 17.0902 2.36555 16.5969 2.73646 16.4752C2.75167 16.4702 2.76498 16.4659 2.77648 16.4623C4.23913 16.0128 5.95939 14.8553 10.0212 11.592C10.1922 11.4546 10.3697 11.3115 10.5535 11.1632C13.8187 8.52883 19.0859 4.27939 25.7844 2.11445C33.9746 -0.532614 42.5287 0.294944 51.2936 4.63088C64.5649 11.1961 68.018 23.6091 68.4531 34.6637C68.8702 45.2631 66.6328 57.4882 64.648 68.3332C64.5594 68.8176 64.4712 69.2993 64.3838 69.7779C62.2133 81.6662 60.504 91.7456 61.1552 99.493C61.7817 106.946 64.212 109.109 67.2581 110.045C71.1184 111.233 72.723 110.679 73.3528 110.404C74.3679 109.96 76.1827 108.677 78.4572 105.108C83.233 97.6149 86.6441 85.7412 90.7406 70.9455C90.8176 70.6673 90.8948 70.3882 90.9723 70.1083C94.7628 56.4123 99.1153 40.6856 106.124 28.0097C113.351 14.9402 124.966 2.39872 144.377 0.320206C152.459 -0.545211 159.749 0.349177 166.186 2.93543C172.548 5.49161 177.44 9.44316 181.294 13.8539C188.654 22.2776 193.22 33.6631 197.094 43.3233L197.149 43.4622L197.171 43.5164C201.35 53.9371 204.892 62.7701 209.96 69.2389C214.608 75.1717 219.788 78.1772 227.49 78.2544C239.148 78.3714 243.841 76.5579 245.71 75.4267C247.335 74.4436 248.356 73.1339 250.099 69.3673C250.256 69.0287 250.426 68.6451 250.614 68.2235C252.136 64.7974 254.771 58.867 260.202 54.2318C266.956 48.4667 276.235 45.7607 288.342 45.3705C300.546 44.9772 310.292 47.1527 318.57 51.1708C326.603 55.0699 332.702 60.4544 337.949 65.5007C339.297 66.7966 340.604 68.0804 341.893 69.3463C350.932 78.2234 359.075 86.221 373.943 91.3373C381.732 94.0179 394.54 93.6912 407.189 92.003C413.175 91.204 418.561 90.1833 422.452 89.3604C424.391 88.9503 425.941 88.5931 426.99 88.3429C427.514 88.2178 427.911 88.1198 428.167 88.0557C428.295 88.0236 428.388 88 428.444 87.9858L428.499 87.9715L428.501 87.9711C428.499 87.9715 428.497 87.972 431.226 97.8306C433.954 107.689 433.952 107.69 433.95 107.69L433.944 107.692L433.931 107.695L433.893 107.705L433.774 107.736C433.675 107.761 433.539 107.796 433.365 107.839C433.018 107.926 432.525 108.047 431.901 108.196C430.653 108.494 428.875 108.903 426.684 109.367C422.317 110.29 416.241 111.444 409.417 112.354Z" fill="#812D9C"/>
</svg>
