<svg width="61" height="79" viewBox="0 0 61 79" fill="none" xmlns="http://www.w3.org/2000/svg">
<mask id="path-1-inside-1_2387_7536" fill="white">
<path d="M0 0H61V79H0V0Z"/>
</mask>
<path d="M60 0V79H62V0H60Z" fill="#414143" fill-opacity="0.3" mask="url(#path-1-inside-1_2387_7536)"/>
<path d="M21.6667 32C21.3 32 21 32.3 21 32.6667V46C21 46.3667 21.3 46.6667 21.6667 46.6667H40.3333C40.7 46.6667 41 46.3667 41 46V32.6667C41 32.3 40.7 32 40.3333 32H21.6667ZM19 32.6667C19 31.1958 20.1958 30 21.6667 30H40.3333C41.8042 30 43 31.1958 43 32.6667V46C43 47.4708 41.8042 48.6667 40.3333 48.6667H21.6667C20.1958 48.6667 19 47.4708 19 46V32.6667ZM23 35.3333C23 34.9797 23.1405 34.6406 23.3905 34.3905C23.6406 34.1405 23.9797 34 24.3333 34C24.687 34 25.0261 34.1405 25.2761 34.3905C25.5262 34.6406 25.6667 34.9797 25.6667 35.3333C25.6667 35.687 25.5262 36.0261 25.2761 36.2761C25.0261 36.5262 24.687 36.6667 24.3333 36.6667C23.9797 36.6667 23.6406 36.5262 23.3905 36.2761C23.1405 36.0261 23 35.687 23 35.3333ZM27.3333 35.3333C27.3333 34.7792 27.7792 34.3333 28.3333 34.3333H37.6667C38.2208 34.3333 38.6667 34.7792 38.6667 35.3333C38.6667 35.8875 38.2208 36.3333 37.6667 36.3333H28.3333C27.7792 36.3333 27.3333 35.8875 27.3333 35.3333ZM27.3333 39.3333C27.3333 38.7792 27.7792 38.3333 28.3333 38.3333H37.6667C38.2208 38.3333 38.6667 38.7792 38.6667 39.3333C38.6667 39.8875 38.2208 40.3333 37.6667 40.3333H28.3333C27.7792 40.3333 27.3333 39.8875 27.3333 39.3333ZM27.3333 43.3333C27.3333 42.7792 27.7792 42.3333 28.3333 42.3333H37.6667C38.2208 42.3333 38.6667 42.7792 38.6667 43.3333C38.6667 43.8875 38.2208 44.3333 37.6667 44.3333H28.3333C27.7792 44.3333 27.3333 43.8875 27.3333 43.3333ZM24.3333 40.6667C23.9797 40.6667 23.6406 40.5262 23.3905 40.2761C23.1405 40.0261 23 39.687 23 39.3333C23 38.9797 23.1405 38.6406 23.3905 38.3905C23.6406 38.1405 23.9797 38 24.3333 38C24.687 38 25.0261 38.1405 25.2761 38.3905C25.5262 38.6406 25.6667 38.9797 25.6667 39.3333C25.6667 39.687 25.5262 40.0261 25.2761 40.2761C25.0261 40.5262 24.687 40.6667 24.3333 40.6667ZM23 43.3333C23 42.9797 23.1405 42.6406 23.3905 42.3905C23.6406 42.1405 23.9797 42 24.3333 42C24.687 42 25.0261 42.1405 25.2761 42.3905C25.5262 42.6406 25.6667 42.9797 25.6667 43.3333C25.6667 43.687 25.5262 44.0261 25.2761 44.2761C25.0261 44.5262 24.687 44.6667 24.3333 44.6667C23.9797 44.6667 23.6406 44.5262 23.3905 44.2761C23.1405 44.0261 23 43.687 23 43.3333Z" fill="#414143"/>
</svg>
