<svg width="62" height="52" viewBox="0 0 62 52" fill="none" xmlns="http://www.w3.org/2000/svg">
<mask id="path-1-inside-1_1488_13413" fill="white">
<path d="M0 0H62V52H0V0Z"/>
</mask>
<path d="M61 0V52H63V0H61Z" fill="#414143" fill-opacity="0.3" mask="url(#path-1-inside-1_1488_13413)"/>
<path d="M21.6667 18C21.3 18 21 18.3 21 18.6667V32C21 32.3667 21.3 32.6667 21.6667 32.6667H40.3333C40.7 32.6667 41 32.3667 41 32V18.6667C41 18.3 40.7 18 40.3333 18H21.6667ZM19 18.6667C19 17.1958 20.1958 16 21.6667 16H40.3333C41.8042 16 43 17.1958 43 18.6667V32C43 33.4708 41.8042 34.6667 40.3333 34.6667H21.6667C20.1958 34.6667 19 33.4708 19 32V18.6667ZM23 21.3333C23 20.9797 23.1405 20.6406 23.3905 20.3905C23.6406 20.1405 23.9797 20 24.3333 20C24.687 20 25.0261 20.1405 25.2761 20.3905C25.5262 20.6406 25.6667 20.9797 25.6667 21.3333C25.6667 21.687 25.5262 22.0261 25.2761 22.2761C25.0261 22.5262 24.687 22.6667 24.3333 22.6667C23.9797 22.6667 23.6406 22.5262 23.3905 22.2761C23.1405 22.0261 23 21.687 23 21.3333ZM27.3333 21.3333C27.3333 20.7792 27.7792 20.3333 28.3333 20.3333H37.6667C38.2208 20.3333 38.6667 20.7792 38.6667 21.3333C38.6667 21.8875 38.2208 22.3333 37.6667 22.3333H28.3333C27.7792 22.3333 27.3333 21.8875 27.3333 21.3333ZM27.3333 25.3333C27.3333 24.7792 27.7792 24.3333 28.3333 24.3333H37.6667C38.2208 24.3333 38.6667 24.7792 38.6667 25.3333C38.6667 25.8875 38.2208 26.3333 37.6667 26.3333H28.3333C27.7792 26.3333 27.3333 25.8875 27.3333 25.3333ZM27.3333 29.3333C27.3333 28.7792 27.7792 28.3333 28.3333 28.3333H37.6667C38.2208 28.3333 38.6667 28.7792 38.6667 29.3333C38.6667 29.8875 38.2208 30.3333 37.6667 30.3333H28.3333C27.7792 30.3333 27.3333 29.8875 27.3333 29.3333ZM24.3333 26.6667C23.9797 26.6667 23.6406 26.5262 23.3905 26.2761C23.1405 26.0261 23 25.687 23 25.3333C23 24.9797 23.1405 24.6406 23.3905 24.3905C23.6406 24.1405 23.9797 24 24.3333 24C24.687 24 25.0261 24.1405 25.2761 24.3905C25.5262 24.6406 25.6667 24.9797 25.6667 25.3333C25.6667 25.687 25.5262 26.0261 25.2761 26.2761C25.0261 26.5262 24.687 26.6667 24.3333 26.6667ZM23 29.3333C23 28.9797 23.1405 28.6406 23.3905 28.3905C23.6406 28.1405 23.9797 28 24.3333 28C24.687 28 25.0261 28.1405 25.2761 28.3905C25.5262 28.6406 25.6667 28.9797 25.6667 29.3333C25.6667 29.687 25.5262 30.0261 25.2761 30.2761C25.0261 30.5262 24.687 30.6667 24.3333 30.6667C23.9797 30.6667 23.6406 30.5262 23.3905 30.2761C23.1405 30.0261 23 29.687 23 29.3333Z" fill="#414143"/>
</svg>
