<svg width="40" height="40" viewBox="0 0 40 40" fill="none" xmlns="http://www.w3.org/2000/svg">
<path d="M9.33329 16.6348H6.66667C5.75 16.6348 5 17.3848 5 18.3014V32.6681C5 33.5848 5.75 34.3348 6.66667 34.3348H9.33329C10.25 34.3348 11 33.5848 11 32.6681V18.3014C11 17.3848 10.25 16.6348 9.33329 16.6348Z" stroke="white" stroke-opacity="0.8" stroke-width="2" stroke-linecap="round" stroke-linejoin="round"/>
<path d="M21.3323 11.3164H18.6657C17.749 11.3164 16.999 12.0664 16.999 12.9831V32.6664C16.999 33.5831 17.749 34.3331 18.6657 34.3331H21.3323C22.249 34.3331 22.999 33.5831 22.999 32.6664V12.9831C22.999 12.0664 22.249 11.3164 21.3323 11.3164Z" stroke="white" stroke-opacity="0.8" stroke-width="2" stroke-linecap="round" stroke-linejoin="round"/>
<path d="M33.3343 6H30.6676C29.751 6 29.001 6.75 29.001 7.66667V32.6667C29.001 33.5833 29.751 34.3333 30.6676 34.3333H33.3343C34.2509 34.3333 35.0009 33.5833 35.0009 32.6667V7.66667C35.0009 6.75 34.2509 6 33.3343 6Z" stroke="white" stroke-opacity="0.8" stroke-width="2" stroke-linecap="round" stroke-linejoin="round"/>
</svg>
