<svg width="286" height="21" viewBox="0 0 286 21" fill="none" xmlns="http://www.w3.org/2000/svg">
<path fill-rule="evenodd" clip-rule="evenodd" d="M284.958 18.2627C284.237 19.0479 282.875 19.5059 280.792 19.5059C279.11 19.5714 277.428 19.8331 277.108 20.2257C276.787 20.6183 276.467 20.3565 276.467 19.7022C276.467 19.0479 275.906 18.5899 275.105 18.5899C273.984 18.5899 273.904 18.7207 274.785 19.1788C276.227 19.9639 274.064 20.4874 269.818 20.422H266.774L268.537 19.1788C269.498 18.5244 269.898 17.9355 269.418 17.9355C268.857 17.9355 267.736 18.5244 266.774 19.3096C265.493 20.3565 264.531 20.6183 262.689 20.2911C261.247 20.0948 259.725 20.2257 259.164 20.6183C258.524 21.0109 258.043 21.1417 258.043 20.8146C258.043 20.4874 253.557 20.2911 248.03 20.3565C241.862 20.4874 238.097 20.2911 238.417 19.8985C239.138 18.917 237.296 16.6269 235.774 16.6269C234.653 16.6269 234.653 16.496 235.534 16.038C236.175 15.7108 237.216 15.5799 237.937 15.7762C238.898 15.9725 238.818 15.8417 237.777 15.3182C236.735 14.7948 236.014 14.7293 235.293 15.2528C234.733 15.6454 234.092 15.8417 233.932 15.6454C233.691 15.5145 233.531 15.9071 233.531 16.5614C233.531 17.2812 234.092 17.7392 234.733 17.6084C236.575 17.4121 237.937 18.7207 236.895 19.6368C236.094 20.3565 224.64 20.3565 222.236 19.5713C221.756 19.4405 221.195 19.6368 220.955 20.0948C220.795 20.5528 219.673 20.1602 218.231 18.9825C216.149 17.4121 215.828 16.8232 216.469 15.5145C216.869 14.7293 216.95 14.0096 216.709 14.0096C216.149 14.0096 214.386 18.1318 214.627 18.8516C214.787 19.1788 214.306 19.2442 213.745 19.0479C213.105 18.8516 212.143 19.0479 211.663 19.4405C211.022 19.9639 210.782 19.9639 210.782 19.375C210.782 18.917 209.981 18.5899 208.939 18.5899C207.898 18.5899 206.696 18.917 206.136 19.375C205.575 19.8331 205.174 19.8985 205.174 19.5059C205.174 19.1788 200.849 18.917 195.001 18.917C173.453 18.8516 149.662 17.8701 146.138 16.954C145.577 16.8232 144.936 16.954 144.616 17.3466C144.376 17.7392 143.655 17.8701 143.014 17.6738C142.453 17.4775 141.732 17.6084 141.492 18.001C141.171 18.3281 140.611 18.459 140.21 18.1973C139.409 17.8047 134.363 17.6084 119.784 17.2812C116.179 17.1503 112.815 17.3466 112.254 17.6084C111.533 18.001 111.373 17.8701 111.853 17.2158C112.414 16.496 112.334 16.4306 111.373 17.0195C110.732 17.4121 108.809 17.6084 107.047 17.4775C105.285 17.4121 102.081 17.3466 99.8377 17.3466C94.7111 17.4775 96.1529 17.4775 76.6076 16.954C36.7159 15.8417 33.752 15.7108 26.1421 14.5985C23.0982 14.2059 19.093 13.7478 17.3307 13.6824C15.5684 13.5515 14.2066 13.1589 14.2867 12.7663C14.4469 12.3737 13.4056 12.2429 11.6433 12.3737C10.1214 12.57 8.99991 12.4392 9.24023 12.1774C9.40042 11.9157 8.67944 11.7194 7.47787 11.7194C6.27634 11.7848 4.59418 11.3268 3.71304 10.6725C2.83191 10.0836 1.39001 9.42927 0.508881 9.23297C-0.452362 9.03667 -0.0518494 8.9058 1.71045 8.84037C6.75699 8.77494 7.39783 8.57864 6.51666 7.85888C5.23502 6.81195 5.55542 5.307 6.99728 5.76503C7.63812 5.96133 7.95856 5.8959 7.71823 5.56873C7.47791 5.24157 7.63812 4.78354 8.11874 4.52181C8.59937 4.26008 8.75961 3.73661 8.43918 3.34402C8.19888 2.88599 8.91974 3.40945 9.96109 4.45638C11.0826 5.5033 12.3642 6.15763 12.7647 5.8959C13.8862 5.37243 13.0851 3.54031 11.8836 3.73661C11.403 3.80204 10.9223 3.27858 10.7621 2.55882C10.5218 1.5119 10.602 1.44647 11.2428 2.23166C11.8837 3.01685 12.2841 2.95142 13.726 1.9045C14.8475 1.07568 15.2213 1.09749 14.8475 1.96993C14.2868 3.08228 14.3669 3.14772 15.6485 2.23166C17.6511 0.988436 22.5374 0.726706 22.5374 1.9045C22.5374 2.42796 22.9379 3.01685 23.4987 3.27858C24.0594 3.54031 24.1395 3.47488 23.8191 3.01685C23.2584 2.29709 23.5787 2.10079 25.9819 1.96993C26.4625 1.9045 27.1834 1.64277 27.5038 1.25017C27.9044 0.857571 28.385 0.857569 29.0258 1.38103C29.5065 1.77363 30.4677 1.96992 31.0284 1.77363C31.6693 1.57733 32.7907 1.83906 33.5116 2.29709C34.6331 3.08228 34.7934 3.08228 34.1525 2.29709C33.6719 1.57733 33.9923 1.44646 36.075 1.77363C37.6771 2.03536 38.4781 1.96993 38.1577 1.57733C37.9174 1.25017 38.1577 1.1193 38.7985 1.3156C39.8398 1.64276 42.9639 1.96993 46.0078 2.16623C46.889 2.23166 47.2095 2.55882 46.8891 2.95142C46.5686 3.40945 46.9692 3.40945 48.0906 2.88599C49.4524 2.29709 50.1733 2.29709 51.0544 2.88599C51.9356 3.54032 52.256 3.47488 52.6565 2.68969C53.1371 1.57733 58.5842 1.38103 59.4653 2.49339C59.7858 2.82055 60.6669 2.82055 61.4679 2.55882C62.3491 2.23166 63.2302 2.10079 63.6307 2.10079C63.9511 2.16622 64.1915 1.90449 64.1915 1.44646C64.1915 1.05387 64.672 1.18473 65.2328 1.9045C66.0338 2.75512 66.5145 2.88599 66.915 2.29709C67.3957 1.7082 67.7961 1.7082 68.6773 2.29709C69.4783 2.82055 70.4396 2.82055 72.1218 2.36252C73.4034 1.96993 74.685 1.83906 74.8452 2.03536C75.0856 2.16623 75.4861 1.7082 75.8065 0.988436C76.2872 -0.254787 76.4474 -0.254787 77.4887 0.59584C78.2096 1.1193 79.1709 1.38103 79.6515 1.1193C80.1321 0.857569 80.2923 1.1193 79.9719 1.77363C79.6515 2.55882 79.972 2.68969 81.4138 2.49339C82.6154 2.29709 83.5766 2.62426 84.0572 3.27858C84.6179 4.12921 84.9384 4.19464 85.419 3.54032C85.7394 3.08228 85.5792 2.49339 84.9384 2.16623C84.3777 1.9045 84.1373 1.44647 84.4577 1.18474C84.698 0.923004 85.4991 1.05387 86.0598 1.44646C86.8608 2.03536 87.4216 1.96993 88.1426 1.38103C88.9436 0.792135 89.0237 0.857569 88.6232 1.70819C88.3027 2.36252 88.463 2.88599 88.9436 2.88599C89.4242 2.88599 89.5844 3.40945 89.2639 3.99834C89.0236 4.65267 89.0237 4.97983 89.3441 4.7181C89.9048 4.39094 90.3855 3.01685 90.5457 1.38103C90.6258 1.1193 91.1865 0.923004 91.8273 0.923004C92.4682 0.923004 93.0289 1.1193 93.0289 1.38103C93.0289 1.70819 93.8299 1.9045 94.8712 1.96993C95.8325 1.96993 98.4759 2.16622 100.799 2.42796C104.163 2.75512 105.205 2.62425 106.326 1.70819C107.234 1.01025 107.528 1.01025 107.207 1.70819C106.807 2.62425 107.207 2.82055 109.851 2.68969C111.533 2.68969 112.815 2.42796 112.654 2.16623C112.414 1.96993 113.375 1.77363 114.657 1.70819C115.939 1.70819 117.22 1.96993 117.461 2.29709C117.781 2.62426 118.502 2.88599 119.143 2.88599C119.784 2.88599 120.184 2.62425 119.944 2.36252C119.784 2.10079 120.344 1.77363 121.305 1.77363C122.347 1.70819 122.667 1.83906 122.107 2.10079C121.466 2.42796 121.386 2.95142 121.866 3.54032C122.507 4.32551 122.667 4.32551 122.667 3.60575C122.667 3.08228 123.148 2.88599 123.869 3.14772C124.51 3.34402 126.032 3.21315 127.233 2.82055C128.355 2.49339 129.556 2.42796 129.797 2.68969C130.037 2.95142 131.559 3.27858 133.081 3.40945C134.603 3.47488 136.125 3.93291 136.445 4.39094C136.926 4.97983 137.086 4.97984 137.086 4.32551C137.086 3.93291 137.727 3.54032 138.528 3.54032C139.649 3.54032 139.729 3.67118 138.688 4.19464C137.967 4.58724 137.887 4.84897 138.448 4.84897C139.008 4.84897 139.81 4.32551 140.21 3.67118C140.691 3.08228 141.091 2.88599 141.091 3.27858C141.091 4.26007 146.859 4.32551 147.66 3.34402C148.14 2.75512 148.301 2.75512 148.301 3.34402C148.301 3.80204 149.182 4.19464 150.303 4.19464C151.425 4.19464 152.306 4.45638 152.306 4.84897C152.306 5.17614 151.665 5.307 150.944 5.1107C149.822 4.78354 149.742 4.84897 150.624 5.37243C151.264 5.76503 152.226 5.89589 152.786 5.69959C153.267 5.56873 154.068 6.22306 154.549 7.26998C155.029 8.25147 155.43 8.7095 155.43 8.25147C155.51 7.07368 156.952 7.26998 157.432 8.57864C158.073 10.2145 161.918 11.654 161.918 10.2799C161.918 9.75643 161.598 9.4947 161.117 9.75643C160.316 10.149 156.712 7.53171 157.432 7.00825C157.673 6.81195 158.554 7.00825 159.275 7.53171C160.183 8.0988 160.289 8.01155 159.595 7.26998C158.954 6.61565 157.833 6.22306 157.112 6.35392C156.391 6.48479 155.35 6.0922 154.789 5.43787C154.068 4.45638 154.148 4.19464 154.869 4.32551C155.43 4.45637 156.071 4.65267 156.311 4.84897C156.551 5.04527 157.913 5.6996 159.355 6.28849C161.838 7.40085 161.998 7.40085 163.52 6.15763C165.283 4.71811 166.324 4.39094 165.443 5.63416C165.042 6.09219 165.283 6.22306 166.164 5.96133C166.885 5.76503 167.606 5.89589 167.846 6.35392C168.246 6.94282 168.407 6.94282 168.807 6.35392C169.128 5.69959 169.929 5.76503 172.171 6.48479C174.147 7.13912 174.548 7.05187 173.373 6.22306C171.851 5.17613 171.771 4.9144 172.812 4.58724C173.453 4.39094 173.774 4.45638 173.533 4.84897C173.293 5.24157 173.774 5.5033 174.655 5.5033C175.536 5.5033 176.417 5.76503 176.737 6.0922C177.378 7.00825 182.024 6.81195 181.464 5.8959C181.223 5.5033 181.464 5.63416 182.104 6.15763C183.306 7.33542 186.35 7.92431 185.549 6.87739C184.908 5.96133 185.469 5.96133 188.673 7.07369C191.076 7.85888 191.637 7.85888 193.079 7.07369C194.12 6.41936 194.761 6.35393 194.761 6.81196C194.761 7.20455 195.081 7.33542 195.562 7.13912C195.962 6.94282 196.203 7.13912 195.962 7.59715C195.722 8.05518 195.882 8.84037 196.283 9.36384C196.844 10.149 197.324 10.149 198.205 9.56013C198.766 9.1021 199.647 9.03667 199.968 9.2984C200.368 9.56013 200.368 9.36383 200.048 8.9058C199.727 8.44777 199.086 8.25148 198.686 8.44777C198.285 8.70951 197.965 8.57864 197.965 8.18604C197.965 6.81195 199.727 6.74652 200.849 7.98974C201.57 8.84037 202.611 9.23297 203.572 9.1021C204.453 8.97124 205.174 9.1021 205.174 9.4947C205.174 9.82186 205.575 10.0836 206.055 10.0836C206.456 10.0836 206.616 9.75643 206.376 9.42927C206.136 9.03667 206.456 8.77494 207.177 8.77494C207.978 8.77494 208.218 8.44777 207.898 7.98974C207.577 7.59715 208.138 7.72801 209.099 8.31691C210.141 8.84037 211.503 9.16753 212.063 8.97123C212.784 8.77494 213.185 9.1021 213.185 9.75643C213.185 10.7379 213.345 10.8034 214.546 10.0182C215.428 9.36384 215.668 9.36383 215.267 9.88729C214.947 10.3453 215.107 10.7379 215.508 10.7379C216.629 10.7379 216.629 9.88729 215.508 8.97123C214.947 8.5132 214.947 8.12061 215.428 7.85888C215.908 7.59715 216.789 7.98974 217.35 8.57864C218.472 9.88729 220.394 10.4108 220.394 9.4947C220.394 9.16753 221.115 8.77494 221.996 8.57864C223.198 8.31691 223.598 8.57864 223.598 9.42927C223.598 10.8688 222.156 11.7848 220.234 11.5231C219.433 11.3922 218.792 11.5885 218.792 11.9157C218.792 12.2429 219.673 12.5046 220.795 12.5046C221.916 12.5046 222.797 12.2429 222.797 11.9157C222.797 11.5885 223.198 11.5231 223.758 11.7848C224.239 12.0466 224.399 11.9811 224.159 11.5885C223.839 11.1959 224.159 10.5416 224.8 10.0836C225.441 9.62557 225.761 8.97124 225.441 8.51321C225.2 8.12061 225.441 8.12061 226.081 8.57864C226.642 9.03667 228.004 9.42927 229.045 9.42927C230.567 9.42927 230.808 9.691 230.407 10.8034C230.007 11.7848 230.087 12.0466 230.728 11.7848C231.208 11.5231 231.609 10.7379 231.609 10.0182C231.609 8.90581 231.849 8.84037 233.211 9.42927C234.092 9.82186 234.813 10.6071 234.813 11.2614C234.813 12.1774 234.973 12.2429 235.534 11.3923C236.014 10.8688 236.094 10.2145 235.854 9.82186C235.614 9.4947 235.774 9.42927 236.255 9.691C236.815 9.95273 237.216 10.6071 237.216 11.1305C237.216 11.7194 237.777 12.0466 238.658 11.9157C239.459 11.7848 239.939 11.1959 239.779 10.5416C239.619 9.95273 239.939 9.42927 240.42 9.42927C240.821 9.42927 241.221 9.75643 241.221 10.2145C241.221 10.6071 241.702 10.4108 242.343 9.691C243.09 8.86218 243.437 8.88399 243.384 9.75643C243.224 11.1305 245.867 11.5885 247.069 10.4108C247.469 10.0182 247.469 10.4108 247.229 11.1959C246.828 12.3083 247.069 12.7009 247.95 12.7009C248.671 12.7009 249.231 12.2429 249.231 11.7194C249.231 11.196 249.632 10.7379 250.113 10.7379C250.513 10.7379 250.673 10.9997 250.433 11.3923C250.113 11.8503 250.673 11.8503 252.035 11.3923C253.717 10.8688 254.598 10.9997 256.361 11.9811C258.123 13.0281 258.844 13.1589 259.645 12.5046C260.446 11.9157 260.526 11.9157 260.126 12.5046C259.725 13.0935 260.126 13.3552 261.327 13.3552C262.529 13.3552 262.849 13.0935 262.369 12.5046C261.968 12.0466 262.288 12.2429 263.089 12.8972C264.291 14.0096 264.852 14.075 266.534 13.4207C269.097 12.5046 271.901 12.4392 271.18 13.4207C270.86 13.9441 271.1 13.9441 272.141 13.4861C274.544 12.4392 277.989 13.2244 277.668 14.7293C277.508 15.4491 277.668 15.8417 278.149 15.6454C278.549 15.3837 278.79 15.9071 278.63 16.7577C278.549 17.7392 278.87 18.1973 279.511 18.0664C280.152 18.001 280.392 18.1973 280.071 18.5899C279.831 18.917 279.911 19.2442 280.392 19.2442C280.792 19.2442 281.353 18.9825 281.674 18.5899C281.914 18.2627 282.715 18.1973 283.436 18.3936C284.237 18.6553 284.557 18.5244 284.237 18.1318C283.916 17.7392 284.237 17.2812 284.878 17.0195C286.32 16.5614 286.4 16.6923 284.958 18.2627ZM268.456 16.2997C268.056 16.1034 267.655 16.2343 267.655 16.5614C267.655 16.954 268.056 17.2812 268.456 17.2812C268.937 17.2812 269.257 17.1503 269.257 17.0195C269.257 16.8232 268.937 16.496 268.456 16.2997ZM254.198 11.7848C253.797 11.5885 253.477 11.8503 253.477 12.3737C253.477 12.8972 253.797 13.1589 254.198 12.9626C254.518 12.7663 254.839 12.5046 254.839 12.3737C254.839 12.2429 254.518 11.9811 254.198 11.7848ZM251.314 17.0849C250.834 17.2812 250.834 17.0849 251.474 16.5614C252.756 15.3837 252.756 14.3367 251.394 15.2528C250.753 15.6454 249.952 15.7108 249.632 15.4491C249.231 15.1873 249.232 15.3836 249.552 15.7762C249.872 16.2343 249.792 16.6269 249.472 16.6269C249.071 16.6269 248.751 17.2158 248.671 18.001C248.591 18.9825 248.831 19.1788 249.472 18.7207C250.032 18.3936 251.234 18.1973 252.195 18.2627C253.637 18.3281 253.797 18.1973 253.157 17.4775C252.676 17.0195 251.875 16.8232 251.314 17.0849ZM248.831 13.8133C248.11 14.0096 247.71 14.3367 247.95 14.4676C248.19 14.6639 248.671 14.5985 249.151 14.3367C250.433 13.7478 250.193 13.3552 248.831 13.8133ZM217.51 16.1688C217.27 16.3651 217.19 16.954 217.43 17.4121C217.67 17.9355 217.911 17.7392 217.911 17.0195C217.991 16.2997 217.751 15.9071 217.51 16.1688ZM211.182 12.0466C210.541 12.0466 209.82 12.3083 209.58 12.7009C209.26 13.0935 209.981 13.3552 211.182 13.3552C212.384 13.3552 213.105 13.0935 212.784 12.7009C212.544 12.3083 211.823 12.0466 211.182 12.0466ZM207.017 11.3268C205.735 10.4762 205.655 10.5416 206.696 11.5231C207.738 12.6355 208.378 12.9626 208.378 12.4392C208.378 12.3083 207.738 11.7848 207.017 11.3268ZM199.968 12.4392C199.327 12.7009 198.766 13.1589 198.766 13.4861C198.766 13.8787 199.247 13.8133 199.968 13.3552C200.608 12.8972 201.169 12.4392 201.169 12.3083C201.169 12.1774 200.608 12.2429 199.968 12.4392ZM191.396 14.5985C189.714 13.8787 189.634 13.8787 190.676 14.8602C191.236 15.5145 192.037 15.9725 192.438 15.9725C193.639 15.9725 193.239 15.3837 191.396 14.5985ZM182.265 9.82186C181.624 9.62556 181.383 9.03667 181.624 8.44777C182.345 6.94282 179.781 7.20455 178.74 8.70951C177.699 10.3453 177.699 10.7379 178.82 10.7379C179.221 10.7379 179.381 10.4108 179.141 10.0836C178.9 9.691 179.221 9.42927 179.942 9.42927C180.743 9.42927 180.983 9.75643 180.663 10.2145C180.342 10.6725 180.342 10.8688 180.743 10.6071C181.063 10.3453 181.784 10.6071 182.345 11.1305C183.226 12.112 183.306 12.112 183.306 11.1959C183.306 10.6071 182.825 10.0182 182.265 9.82186ZM169.929 7.46628C169.528 7.46628 169.128 7.92431 169.128 8.51321C169.128 9.03667 169.528 9.2984 169.929 9.1021C170.409 8.9058 170.73 8.44778 170.73 8.05518C170.73 7.72801 170.409 7.46628 169.929 7.46628ZM157.513 12.5046C156.872 12.2429 156.151 12.3737 155.91 12.7009C155.59 13.0935 156.151 13.3552 157.032 13.3552C159.035 13.3552 159.195 12.9626 157.513 12.5046ZM150.543 8.84037C149.102 8.9058 149.021 8.97124 150.143 9.23297C151.344 9.4947 151.425 9.69099 150.543 10.6071C149.582 11.5885 149.662 11.654 150.944 10.8034C152.866 9.56013 152.626 8.77494 150.543 8.84037ZM77.4086 1.57733C76.6877 1.1193 76.2071 1.05387 76.2071 1.44646C76.2071 1.77363 76.7678 2.23166 77.4086 2.49339C78.0495 2.68969 78.6102 2.75512 78.6102 2.62426C78.6102 2.49339 78.0495 2.03536 77.4086 1.57733ZM56.8219 10.9342C56.181 11.1305 56.4214 11.3268 57.3026 11.3268C58.1837 11.3923 58.6643 11.196 58.3439 10.9997C58.1035 10.8034 57.3826 10.7379 56.8219 10.9342ZM54.7392 3.21315C54.4989 3.40945 54.7392 3.93291 55.3 4.39094C56.101 4.97983 56.1811 4.9144 55.7005 3.99834C55.4602 3.34402 54.9795 3.01685 54.7392 3.21315ZM44.1655 2.88599C43.765 2.88599 43.3645 3.01685 43.3645 3.14772C43.3645 3.34402 43.765 3.67118 44.1655 3.86748C44.6461 4.06378 44.9665 3.93291 44.9665 3.60575C44.9665 3.21315 44.6461 2.88599 44.1655 2.88599ZM24.9406 8.12061C24.54 8.12061 24.1395 8.25148 24.1395 8.38234C24.1395 8.57864 24.54 8.9058 24.9406 9.1021C25.4212 9.2984 25.7416 9.16753 25.7416 8.84037C25.7416 8.44777 25.4212 8.12061 24.9406 8.12061ZM15.4883 5.17614C15.248 5.37243 15.4883 5.89589 16.049 6.35392C16.8501 6.94282 16.9302 6.87739 16.4496 5.96133C16.2093 5.307 15.7286 4.97984 15.4883 5.17614ZM10.5219 7.46628C10.1213 7.46628 9.72083 7.59715 9.72083 7.72801C9.72083 7.92431 10.1213 8.25148 10.5219 8.44777C11.0025 8.64407 11.3229 8.51321 11.3229 8.18604C11.3229 7.79345 11.0025 7.46628 10.5219 7.46628Z" fill="#C9FF22"/>
</svg>
