<svg width="61" height="57" viewBox="0 0 61 57" fill="none" xmlns="http://www.w3.org/2000/svg">
<mask id="path-1-inside-1_2614_11110" fill="white">
<path d="M0 0H61V57H0V0Z"/>
</mask>
<path d="M60 0V57H62V0H60Z" fill="#414143" fill-opacity="0.3" mask="url(#path-1-inside-1_2614_11110)"/>
<path d="M21.6667 21C21.3 21 21 21.3 21 21.6667V35C21 35.3667 21.3 35.6667 21.6667 35.6667H40.3333C40.7 35.6667 41 35.3667 41 35V21.6667C41 21.3 40.7 21 40.3333 21H21.6667ZM19 21.6667C19 20.1958 20.1958 19 21.6667 19H40.3333C41.8042 19 43 20.1958 43 21.6667V35C43 36.4708 41.8042 37.6667 40.3333 37.6667H21.6667C20.1958 37.6667 19 36.4708 19 35V21.6667ZM23 24.3333C23 23.9797 23.1405 23.6406 23.3905 23.3905C23.6406 23.1405 23.9797 23 24.3333 23C24.687 23 25.0261 23.1405 25.2761 23.3905C25.5262 23.6406 25.6667 23.9797 25.6667 24.3333C25.6667 24.687 25.5262 25.0261 25.2761 25.2761C25.0261 25.5262 24.687 25.6667 24.3333 25.6667C23.9797 25.6667 23.6406 25.5262 23.3905 25.2761C23.1405 25.0261 23 24.687 23 24.3333ZM27.3333 24.3333C27.3333 23.7792 27.7792 23.3333 28.3333 23.3333H37.6667C38.2208 23.3333 38.6667 23.7792 38.6667 24.3333C38.6667 24.8875 38.2208 25.3333 37.6667 25.3333H28.3333C27.7792 25.3333 27.3333 24.8875 27.3333 24.3333ZM27.3333 28.3333C27.3333 27.7792 27.7792 27.3333 28.3333 27.3333H37.6667C38.2208 27.3333 38.6667 27.7792 38.6667 28.3333C38.6667 28.8875 38.2208 29.3333 37.6667 29.3333H28.3333C27.7792 29.3333 27.3333 28.8875 27.3333 28.3333ZM27.3333 32.3333C27.3333 31.7792 27.7792 31.3333 28.3333 31.3333H37.6667C38.2208 31.3333 38.6667 31.7792 38.6667 32.3333C38.6667 32.8875 38.2208 33.3333 37.6667 33.3333H28.3333C27.7792 33.3333 27.3333 32.8875 27.3333 32.3333ZM24.3333 29.6667C23.9797 29.6667 23.6406 29.5262 23.3905 29.2761C23.1405 29.0261 23 28.687 23 28.3333C23 27.9797 23.1405 27.6406 23.3905 27.3905C23.6406 27.1405 23.9797 27 24.3333 27C24.687 27 25.0261 27.1405 25.2761 27.3905C25.5262 27.6406 25.6667 27.9797 25.6667 28.3333C25.6667 28.687 25.5262 29.0261 25.2761 29.2761C25.0261 29.5262 24.687 29.6667 24.3333 29.6667ZM23 32.3333C23 31.9797 23.1405 31.6406 23.3905 31.3905C23.6406 31.1405 23.9797 31 24.3333 31C24.687 31 25.0261 31.1405 25.2761 31.3905C25.5262 31.6406 25.6667 31.9797 25.6667 32.3333C25.6667 32.687 25.5262 33.0261 25.2761 33.2761C25.0261 33.5262 24.687 33.6667 24.3333 33.6667C23.9797 33.6667 23.6406 33.5262 23.3905 33.2761C23.1405 33.0261 23 32.687 23 32.3333Z" fill="#414143"/>
</svg>
