<svg width="60" height="50" viewBox="0 0 60 50" fill="none" xmlns="http://www.w3.org/2000/svg">
<path d="M24.7678 18.2362L24.7666 18.2371L24.7653 18.238L23.1746 19.4595C22.9386 19.6408 22.8229 19.9336 22.8498 20.2239C22.8855 20.6098 22.8969 20.9948 22.8839 21.3769C22.8739 21.6708 23.0085 21.9587 23.2584 22.1251L24.9764 23.269C25.0397 23.3143 25.0624 23.3868 25.0463 23.4525L23.9062 26.477C23.8767 26.5472 23.806 26.5823 23.7516 26.5731L23.7486 26.5726L23.7455 26.5721L21.6992 26.285C21.4065 26.244 21.122 26.3681 20.9395 26.5919C20.7187 26.8626 20.4819 27.1191 20.2291 27.3596C20.018 27.5604 19.9121 27.8609 19.9732 28.1591L20.3592 30.0438L20.3593 30.0442C20.3734 30.112 20.3412 30.1809 20.2714 30.2152L17.3517 31.5373L17.3496 31.5382L17.3476 31.5392C17.2852 31.5691 17.2155 31.5498 17.1777 31.4972L17.1767 31.4959L17.1757 31.4946L16.0522 29.9837C15.8709 29.74 15.5776 29.6237 15.2895 29.6542C14.9201 29.6932 14.5489 29.7054 14.1824 29.6928C13.8933 29.6829 13.6097 29.8198 13.446 30.0748L12.3487 31.7849C12.3485 31.7851 12.3484 31.7854 12.3482 31.7856C12.312 31.8401 12.237 31.8669 12.1705 31.8406L12.17 31.8405L12.1696 31.8403L9.18628 30.6767C9.11724 30.6467 9.08284 30.5748 9.09188 30.5195L9.09224 30.5173L9.09256 30.5151L9.37942 28.5198C9.42349 28.2133 9.29509 27.9163 9.06795 27.7288C8.76488 27.4788 8.47862 27.2013 8.20928 26.9029C8.01244 26.6848 7.7155 26.5767 7.42171 26.6392L5.48762 27.05L5.48726 27.0501C5.42053 27.0643 5.35277 27.0316 5.31908 26.9606L4.01943 23.9907L4.01851 23.9885L4.01752 23.9864C3.98822 23.923 4.00713 23.8522 4.05881 23.8137L4.05996 23.8128L4.06108 23.812L5.68116 22.57C5.91594 22.39 6.03148 22.1 6.00811 21.8122C5.97964 21.4613 5.97307 21.1087 5.98661 20.7604C5.99812 20.4647 5.86303 20.1745 5.61132 20.0075L3.98595 18.9288C3.93235 18.892 3.90607 18.8157 3.93188 18.7482L3.93207 18.7477L3.93225 18.7472L5.07614 15.7126C5.1056 15.6424 5.17631 15.6073 5.23074 15.6165L5.23344 15.617L5.23615 15.6174L7.1597 15.8935C7.45508 15.9359 7.7421 15.8099 7.92528 15.5837C8.16019 15.2935 8.41766 15.0158 8.69338 14.7569C8.90742 14.5559 9.01488 14.253 8.95289 13.9526L8.52226 11.866L8.52222 11.8658C8.50824 11.7982 8.54021 11.7294 8.60973 11.6951L11.5287 10.3919L11.5314 10.3907L11.534 10.3895C11.5964 10.3596 11.666 10.379 11.7039 10.4315L11.7048 10.4328L11.7058 10.4341L13 12.1761C13.177 12.4143 13.4615 12.5314 13.744 12.5076C14.0911 12.4785 14.4406 12.4719 14.7885 12.4859C15.079 12.4976 15.3637 12.3601 15.5276 12.1046L16.6062 10.4233C16.6063 10.4231 16.6065 10.4229 16.6066 10.4227C16.6428 10.3681 16.7179 10.3413 16.7843 10.3676L16.7848 10.3678L16.7853 10.368L19.7685 11.5316C19.8376 11.5616 19.872 11.6335 19.8629 11.6888L19.8625 11.6916L19.8621 11.6944L19.58 13.7349C19.5394 14.0283 19.6565 14.3152 19.8723 14.5015C20.12 14.7153 20.3572 14.9422 20.5823 15.1841C20.7797 15.3962 21.0733 15.5013 21.3639 15.4394L23.3391 15.0185L23.3393 15.0184C23.4061 15.0041 23.4739 15.037 23.5076 15.108L24.8073 18.0597L24.8082 18.0616L24.8091 18.0635C24.8384 18.1268 24.8194 18.1976 24.7678 18.2362ZM16.8151 26.5399C19.7747 25.204 21.1066 21.6712 19.7937 18.6612C18.4805 15.6411 15.0074 14.2859 12.048 15.6311C9.08837 16.9671 7.75663 20.5001 9.06962 23.5101C10.383 26.5209 13.856 27.8756 16.8151 26.5399Z" fill="white"/>
<path d="M51.9454 16.0812L51.945 16.0816L51.9446 16.082L50.8844 17.0945C50.6455 17.3227 50.5698 17.6677 50.6634 17.9752C50.8569 18.6109 50.9716 19.2578 51.0046 19.9059C51.0209 20.229 51.2093 20.5293 51.5142 20.6597L52.9324 21.2663C53.0097 21.3021 53.0324 21.3738 53.0192 21.4217L53.0184 21.4252L53.0176 21.4287L52.5506 23.3855L52.5498 23.3889L52.549 23.3922C52.5359 23.456 52.4718 23.5079 52.4001 23.5045C52.3997 23.5045 52.3993 23.5045 52.3993 23.5045L50.9545 23.4104C50.6129 23.3881 50.3047 23.5848 50.1534 23.8815C49.8568 24.4634 49.4853 25.0072 49.0446 25.503C48.8256 25.7495 48.7527 26.109 48.8897 26.4248L49.4117 27.6281V27.6284L49.4121 27.6286C49.4383 27.6889 49.4188 27.7716 49.3523 27.8192L47.6973 28.9169L47.6949 28.9184L47.6925 28.92C47.6395 28.9571 47.5583 28.9492 47.5097 28.896V28.8958L47.5093 28.8955L46.6012 27.907C46.3734 27.6595 46.0278 27.5841 45.7229 27.6845C45.046 27.907 44.3509 28.0323 43.6609 28.0574C43.3384 28.0691 43.0354 28.2615 42.9052 28.5771L42.3383 29.949L42.3375 29.9518L42.3363 29.9546C42.3136 30.0139 42.2439 30.0528 42.1746 30.0342L42.1726 30.0337L42.1706 30.0332L40.2468 29.558L40.2436 29.5571L40.2405 29.5565C40.1775 29.543 40.1266 29.4779 40.1298 29.4052C40.1298 29.4049 40.1298 29.4045 40.1302 29.4041L40.2225 27.9586C40.2444 27.6141 40.0545 27.3023 39.767 27.1467C39.2606 26.8727 38.7788 26.5351 38.3362 26.1397C38.1005 25.9291 37.7633 25.8561 37.4614 25.9811L35.9998 26.5863L35.9965 26.5876L35.9934 26.5891C35.9327 26.6165 35.8587 26.5938 35.8222 26.5306L35.8211 26.5288L35.82 26.527L34.7862 24.8146C34.7471 24.7456 34.7609 24.6699 34.815 24.6222L34.8157 24.6216L34.8164 24.621L35.8973 23.6516C36.1549 23.4206 36.2358 23.0577 36.1334 22.738C35.9264 22.0914 35.8048 21.4298 35.7655 20.7694C35.7459 20.4415 35.5487 20.1397 35.2362 20.0155L33.9025 19.4859C33.8227 19.4507 33.791 19.3773 33.8049 19.3097C33.8049 19.3097 33.805 19.3096 33.805 19.3095L34.217 17.3439L34.2171 17.3436L34.2172 17.3434C34.2335 17.2646 34.3004 17.2187 34.3578 17.2218L34.3597 17.2219L34.3617 17.222L35.8006 17.2729C36.1351 17.2848 36.4331 17.0879 36.5788 16.7953C36.8703 16.2099 37.2347 15.657 37.6718 15.1565C37.8813 14.9165 37.9553 14.5711 37.8315 14.2615L37.2012 12.6849L37.1998 12.6816L37.1984 12.6783C37.1715 12.6167 37.1938 12.5415 37.2559 12.5043L37.2577 12.5032L37.2594 12.5021L38.9428 11.4505C39.0108 11.4107 39.0852 11.4248 39.1321 11.4798L39.1327 11.4805L39.1333 11.4812L40.1604 12.6659C40.387 12.9271 40.7421 13.0093 41.0555 12.9073C41.6312 12.7199 42.2216 12.606 42.8148 12.5626C43.1353 12.5392 43.4284 12.3376 43.5482 12.0207L44.0897 10.5883C44.1243 10.5076 44.1964 10.4754 44.2629 10.4895C44.2629 10.4895 44.2629 10.4896 44.2633 10.4896L46.1955 10.9088L46.1959 10.9089V10.9089C46.2735 10.9255 46.3185 10.9936 46.3157 11.0519L46.3153 11.0539V11.056L46.2651 12.5402C46.2536 12.8856 46.4531 13.1919 46.7465 13.3379C47.3863 13.6561 47.9811 14.0653 48.5166 14.562C48.7595 14.7873 49.1154 14.8626 49.428 14.7214L50.6996 14.1465C50.759 14.1197 50.8402 14.1397 50.8868 14.2071L51.9661 15.891L51.9673 15.8933L51.9689 15.8955C52.0056 15.9495 51.9976 16.0319 51.9454 16.0812ZM46.0983 24.8493V24.8492C48.5652 23.3222 49.34 20.054 47.8386 17.5542C46.3376 15.045 43.125 14.2571 40.6677 15.784C38.2008 17.311 37.4262 20.5793 38.9275 23.0791C40.4288 25.579 43.641 26.3664 46.0983 24.8493Z" fill="white"/>
<path d="M34.5724 6.65129L34.5766 6.65214L34.5807 6.65282C34.6348 6.66202 34.6938 6.72412 34.7 6.79481V9.10739C34.7 9.18047 34.6518 9.23876 34.5875 9.25326L34.5871 9.25339L34.5867 9.25347L33.1777 9.57787C32.8948 9.64297 32.6757 9.85423 32.5776 10.1193C32.5364 10.2307 32.4925 10.3399 32.4452 10.4474C32.3298 10.71 32.3362 11.0251 32.4986 11.2799L33.2696 12.49L33.2712 12.4925L33.2729 12.495C33.3095 12.5491 33.3028 12.6262 33.2527 12.6771L31.6039 14.3544C31.5525 14.4065 31.4809 14.4138 31.4259 14.3789L31.4255 14.3786L31.4251 14.3783L30.1694 13.5877C29.9271 13.4351 29.6316 13.427 29.3816 13.5376C29.3041 13.5719 29.2256 13.6049 29.1464 13.6364C28.8881 13.7395 28.6854 13.9644 28.6248 14.2507L28.3019 15.7789L28.3018 15.7794L28.3017 15.7798C28.2861 15.8553 28.2277 15.9011 28.1587 15.9011H25.8136C25.7417 15.9011 25.6844 15.852 25.6702 15.7867L25.6699 15.7856L25.6696 15.7844L25.3272 14.2924C25.26 13.9996 25.0448 13.7775 24.782 13.6787C24.6706 13.6368 24.5603 13.5911 24.4516 13.5424C24.1964 13.4281 23.8939 13.4393 23.6497 13.6L22.4062 14.418L22.4036 14.4197L22.4011 14.4215C22.3479 14.4587 22.272 14.4518 22.2219 14.401L20.5731 12.7237C20.5217 12.6715 20.5146 12.5986 20.5489 12.5427L21.3229 11.2831C21.4827 11.0231 21.4816 10.706 21.364 10.4448C21.3209 10.3491 21.2806 10.2512 21.2423 10.1517C21.1409 9.88766 20.9186 9.68028 20.6353 9.61964L19.2267 9.318C19.1525 9.30208 19.1074 9.24269 19.1074 9.17261V6.85238C19.1074 6.7793 19.1557 6.721 19.2199 6.70646L19.2207 6.7063L19.2214 6.70614L20.554 6.39502C20.846 6.32684 21.0683 6.10346 21.1615 5.82783C21.2106 5.68264 21.2644 5.54171 21.3232 5.40438C21.4346 5.14398 21.4265 4.83371 21.2667 4.58214L20.5014 3.37692L20.4997 3.37424L20.4979 3.37161C20.4613 3.31753 20.4681 3.2404 20.5181 3.18952L22.1669 1.51223C22.2183 1.46001 22.2899 1.45272 22.345 1.48772L22.3452 1.48788L22.3455 1.48804L23.5297 2.23631C23.7776 2.39288 24.0804 2.39758 24.3335 2.2805C24.478 2.2137 24.6255 2.15257 24.7753 2.09647C25.0403 1.99734 25.2508 1.77105 25.3139 1.47945L25.5969 0.172995L25.5969 0.172833C25.6112 0.107652 25.6685 0.0585938 25.7404 0.0585938H28.0854C28.1574 0.0585938 28.2146 0.107733 28.2289 0.172995L28.2293 0.174575L28.2296 0.176155L28.5459 1.53054C28.6122 1.81455 28.8183 2.03311 29.0742 2.13333C29.1875 2.17773 29.2993 2.22533 29.4098 2.27572C29.6656 2.39243 29.9688 2.38044 30.2129 2.2197L31.3555 1.46718L31.3581 1.46548L31.3606 1.46374C31.4138 1.42651 31.4897 1.43335 31.5398 1.48427L33.1886 3.16156C33.2399 3.21374 33.247 3.28658 33.2127 3.34244L32.4764 4.54086C32.323 4.79048 32.3156 5.09703 32.4314 5.35447C32.4983 5.50314 32.5595 5.65311 32.6137 5.80515C32.7126 6.08236 32.941 6.30853 33.241 6.37156L34.5724 6.65129ZM25.8925 12.2597C28.2634 12.8185 30.6347 11.3186 31.1842 8.90609C31.7336 6.49423 30.2591 4.08204 27.8875 3.52304C25.5166 2.96424 23.1453 4.46409 22.5957 6.8766C22.0464 9.28847 23.5209 11.7007 25.8925 12.2597Z" fill="white"/>
<path d="M32.2196 23.4742L32.2222 23.4753L32.2248 23.4764L33.6599 24.0808C33.7317 24.1144 33.7662 24.1879 33.7526 24.2575L33.4854 25.4423C33.4107 25.7731 33.5436 26.1046 33.7906 26.3079C34.1284 26.5858 34.4312 26.8968 34.6969 27.2343C34.8982 27.4901 35.2294 27.6269 35.5584 27.5466L36.7254 27.262C36.7937 27.2485 36.8655 27.2838 36.8984 27.3565L37.4914 28.8136C37.5196 28.8898 37.4903 28.9638 37.4372 28.9956L37.4346 28.9971L37.432 28.9988L36.3954 29.6596C36.1139 29.839 35.9771 30.1673 36.0095 30.4878C36.0703 31.0894 36.0453 31.7039 35.9259 32.3139C35.8577 32.6622 35.9934 33.0371 36.307 33.2318L37.1656 33.7648C37.2371 33.8131 37.2546 33.8934 37.229 33.9519L37.2279 33.9545L37.2268 33.9571L36.6327 35.4167C36.5998 35.4897 36.5277 35.5249 36.4593 35.5111L35.1277 35.1947C34.8303 35.1242 34.5296 35.2308 34.3261 35.4418C34.1347 35.6408 33.93 35.8251 33.7158 35.9948C33.4581 36.1994 33.3218 36.5413 33.4032 36.8792L33.6429 37.8741C33.6559 37.9434 33.6213 38.0163 33.5499 38.0495L32.1175 38.6527C32.0425 38.6815 31.9698 38.6519 31.9385 38.5976L31.9371 38.5956L31.9357 38.5931L31.3763 37.6784C31.201 37.392 30.8794 37.2519 30.5647 37.283C30.1564 37.324 29.7406 37.3227 29.3257 37.2782C29.006 37.2442 28.6784 37.3872 28.5029 37.68L27.9462 38.6106C27.8988 38.6831 27.8198 38.7009 27.7623 38.675L27.7598 38.6738L27.7572 38.6725L26.3221 38.0681C26.2498 38.0345 26.2152 37.96 26.2297 37.8903V37.8899L26.4506 36.8212C26.5186 36.4919 26.3829 36.1658 26.1364 35.9665C25.7631 35.6651 25.4286 35.3211 25.1399 34.9448C24.9392 34.6831 24.6036 34.5417 24.2699 34.6235L23.119 34.9059C23.0508 34.9193 22.979 34.884 22.9462 34.8111L22.3531 33.3541C22.325 33.278 22.3542 33.2039 22.4073 33.1722L22.4098 33.1707L22.4122 33.1692L23.4924 32.4841C23.7689 32.3089 23.9075 31.9893 23.8816 31.6735C23.8649 31.4688 23.8573 31.2618 23.8589 31.0551C23.8612 30.7582 23.7189 30.4684 23.4589 30.3073L22.1751 29.5117C22.1036 29.4634 22.0862 29.3831 22.1117 29.3247L22.1128 29.3221L22.1139 29.3194L22.7081 27.8597C22.741 27.7867 22.8132 27.7515 22.8817 27.7653L23.9948 28.0266C24.3487 28.1097 24.6999 27.943 24.8922 27.6515C25.21 27.1701 25.5884 26.7465 26.0114 26.3837C26.2523 26.177 26.3777 25.8464 26.2998 25.5199L26.0093 24.303C25.9962 24.2337 26.0308 24.1608 26.1023 24.1274L27.5347 23.5241C27.6097 23.4954 27.6825 23.5252 27.7137 23.5793L27.7151 23.5817L27.7166 23.5841L28.3321 24.5886C28.513 24.8838 28.8482 25.0228 29.1713 24.9796C29.6399 24.9169 30.1193 24.9084 30.5977 24.9613C30.9186 24.9967 31.2492 24.8544 31.4257 24.559L32.0357 23.5386C32.0832 23.466 32.1621 23.4482 32.2196 23.4742ZM28.1573 35.5431L28.1577 35.5435C30.5499 36.5502 33.3068 35.3973 34.306 32.9542C35.3055 30.5198 34.1711 27.7244 31.7697 26.7083C29.368 25.6919 26.62 26.8452 25.6209 29.2884C24.6217 31.7316 25.7556 34.5271 28.1573 35.5431Z" fill="white"/>
<path d="M58.7085 31.1634L58.2717 30.9547C58.0726 30.8595 57.9444 30.6599 57.9158 30.4377C57.9018 30.3297 57.8843 30.2225 57.8624 30.1162C57.8174 29.8979 57.87 29.6667 58.0237 29.5078L58.3697 29.1507C58.4887 29.0295 58.507 28.8339 58.4246 28.6941L57.7466 27.5945C57.655 27.4455 57.4718 27.3802 57.307 27.4455L56.8714 27.607C56.6608 27.6851 56.4267 27.6341 56.2503 27.4934C56.1556 27.4178 56.0572 27.3455 55.9565 27.2764C55.7809 27.1562 55.6671 26.9591 55.6671 26.7438V26.1688C55.6671 25.9918 55.548 25.8427 55.3832 25.8055L54.1374 25.5166C53.9726 25.4793 53.7986 25.5632 53.7253 25.7216L53.5067 26.1928C53.4104 26.4009 53.2065 26.5318 52.982 26.5586C52.8478 26.5745 52.716 26.5972 52.5854 26.6263C52.3712 26.6741 52.1439 26.6211 51.9874 26.4645L51.6733 26.1502C51.5543 26.0291 51.362 26.0105 51.2246 26.0943L50.1436 26.7839C49.9971 26.8771 49.933 27.0634 49.9971 27.2312L50.1381 27.6273C50.2145 27.8417 50.1639 28.0795 50.025 28.2587C49.9474 28.3592 49.8733 28.4634 49.804 28.5705C49.6838 28.7566 49.4851 28.8804 49.2661 28.8804H48.8063C48.6323 28.8804 48.4854 29.0016 48.4488 29.1693L48.1649 30.4366C48.1282 30.6043 48.2107 30.7814 48.3663 30.8559L48.7362 31.0317C48.9417 31.1295 49.0714 31.338 49.0977 31.5674C49.116 31.7269 49.1435 31.8852 49.1785 32.0404C49.2283 32.2599 49.1762 32.4938 49.0209 32.6543L48.7239 32.9618C48.6048 33.083 48.5861 33.2786 48.6689 33.4184L49.3466 34.5177C49.4381 34.6672 49.6213 34.7325 49.7861 34.6672L50.2022 34.5173C50.4088 34.4431 50.6369 34.4926 50.8101 34.6291C50.9248 34.7199 51.0446 34.805 51.1685 34.884C51.3604 35.0059 51.4902 35.2133 51.4902 35.4434V35.9064C51.4902 36.0835 51.6092 36.2325 51.774 36.2698L53.0198 36.5587C53.1847 36.5959 53.3586 36.5121 53.4323 36.3537L53.6461 35.891C53.7401 35.6881 53.9363 35.558 54.1545 35.5273C54.2676 35.5115 54.3795 35.4912 54.4898 35.4669C54.704 35.4191 54.9309 35.4726 55.087 35.6289L55.429 35.9717C55.548 36.0928 55.7403 36.1114 55.8781 36.0276L56.9586 35.3381C57.1056 35.2449 57.1697 35.0586 57.1056 34.8908L56.9411 34.4213C56.8675 34.211 56.9152 33.9785 57.0494 33.8016C57.1342 33.6893 57.215 33.5723 57.2911 33.451C57.4093 33.2629 57.6084 33.1389 57.8278 33.1389H58.2872C58.4612 33.1389 58.6077 33.0177 58.6444 32.85L58.9282 31.5827C58.9466 31.415 58.8641 31.2379 58.7085 31.1634ZM52.7726 34.285C51.9755 34.0986 51.3162 33.6327 50.8671 33.0084L50.6107 32.5891C50.2718 31.9275 50.1436 31.1541 50.2993 30.3714L50.3359 30.2223C50.5282 29.4488 50.977 28.8152 51.5634 28.368L51.9938 28.0977C52.6627 27.7436 53.4506 27.6225 54.2473 27.8089C56.0063 28.2282 57.1056 30.0079 56.6931 31.8063C56.281 33.6048 54.5312 34.7045 52.7726 34.285Z" fill="white"/>
<g clip-path="url(#clip0_2013_17029)">
<path d="M59.7331 42.3086H54.7887C54.6418 42.3086 54.5215 42.4308 54.5215 42.5801V44.4851C54.5215 44.6344 54.6418 44.7566 54.7887 44.7566H56.1607V49.6389C56.1607 49.7882 56.281 49.9104 56.4279 49.9104H58.0983C58.2453 49.9104 58.3656 49.7882 58.3656 49.6389V44.7566H59.7375C59.8845 44.7566 60.0048 44.6344 60.0048 44.4851V42.5801C60.0003 42.4308 59.8801 42.3086 59.7331 42.3086Z" fill="white"/>
<path d="M48.0622 49.9104C47.9152 49.9104 47.7949 49.7882 47.7949 49.6389V42.5801C47.7949 42.4308 47.9152 42.3086 48.0622 42.3086H49.7192C49.8662 42.3086 49.9865 42.4308 49.9865 42.5801V45.743L51.7504 42.4534C51.7994 42.3674 51.8885 42.3131 51.9865 42.3131H53.5856C53.7326 42.3131 53.8528 42.4353 53.8528 42.5846V49.6434C53.8528 49.7928 53.7326 49.9149 53.5856 49.9149H51.9286C51.7816 49.9149 51.6613 49.7928 51.6613 49.6434V46.4624L49.9063 49.7656C49.8573 49.8516 49.7682 49.9059 49.6702 49.9059H48.0622V49.9104Z" fill="white"/>
<path d="M40.5431 42.3086H39.0286C38.9173 42.3086 38.8193 42.3765 38.7792 42.4805L37.719 45.2769L36.6767 42.4851C36.6366 42.381 36.5386 42.3086 36.4273 42.3086H34.7302C34.5431 42.3086 34.4139 42.4986 34.4807 42.6751L36.4941 48.0054C36.3916 48.0914 36.2402 48.1366 36.0442 48.1366C35.915 48.1366 35.7769 48.1095 35.6344 48.0552C35.5587 48.0235 35.2647 47.8652 34.9974 47.7113C34.8059 47.5982 34.5297 47.7566 34.5297 47.9828V49.2814C34.5297 49.3629 34.5654 49.4443 34.6322 49.4896C34.8014 49.6027 35.0063 49.6932 35.2513 49.7656C35.5587 49.8606 35.8571 49.9059 36.1511 49.9059C36.5297 49.9059 36.8727 49.8471 37.189 49.7339C37.5097 49.6208 37.7948 49.4217 38.0487 49.1366C38.3115 48.8516 38.5386 48.4579 38.7346 47.9511L40.7925 42.6796C40.8593 42.5032 40.7302 42.3086 40.5431 42.3086Z" fill="white"/>
<path d="M22.4368 49.8879C22.2631 49.8879 22.125 49.7477 22.125 49.5712V49.0101C22.125 48.8336 22.2631 48.6934 22.4368 48.6934H26.713C26.8867 48.6934 27.0248 48.8336 27.0248 49.0101V49.5712C27.0248 49.7477 26.8867 49.8879 26.713 49.8879H22.4368Z" fill="white"/>
<path d="M22.494 42.3086H18.2624C18.1154 42.3086 17.9951 42.4308 17.9951 42.5801V49.6842C17.9951 49.8335 18.1154 49.9557 18.2624 49.9557H19.5319C19.6789 49.9557 19.7991 49.8335 19.7991 49.6842V44.3086H22.494C22.641 44.3086 22.7613 44.1864 22.7613 44.0371V42.5801C22.7613 42.4308 22.641 42.3086 22.494 42.3086Z" fill="white"/>
<path d="M28.2848 49.9104C28.1378 49.9104 28.0176 49.7882 28.0176 49.6389V42.5801C28.0176 42.4308 28.1378 42.3086 28.2848 42.3086H29.8706C30.0176 42.3086 30.1378 42.4308 30.1378 42.5801C30.1378 42.8923 30.1468 44.7656 30.1468 45.1185L30.2447 47.1683V49.6389C30.2447 49.7882 30.1245 49.9104 29.9775 49.9104H28.2848Z" fill="white"/>
<path fill-rule="evenodd" clip-rule="evenodd" d="M30.3332 44.3814V45.8488H31.7594V44.3814H30.3332ZM28.1514 43.6671C28.1514 42.8563 28.8004 42.1836 29.6209 42.1836H32.4717C33.2922 42.1836 33.9412 42.8563 33.9412 43.6671V46.563C33.9412 47.3739 33.2922 48.0466 32.4717 48.0466H29.6209C28.8004 48.0466 28.1514 47.3739 28.1514 46.563V43.6671Z" fill="white"/>
<path d="M11.991 49.9558C11.8396 49.9558 11.7193 49.8292 11.7238 49.6708L11.9999 42.5712C12.0044 42.4264 12.1246 42.3088 12.2672 42.3088H12.7839C13.0021 42.3359 13.5456 42.1957 13.55 42.5712L13.8396 49.6708C13.844 49.8246 13.7238 49.9558 13.5723 49.9558H11.991Z" fill="white"/>
<path fill-rule="evenodd" clip-rule="evenodd" d="M10.6457 44.3814V45.894H14.9227V44.3814H10.6457ZM8.46387 43.6671C8.46387 42.8563 9.11291 42.1836 9.9334 42.1836H15.635C16.4554 42.1836 17.1045 42.8563 17.1045 43.6671V46.6083C17.1045 47.4191 16.4554 48.0918 15.635 48.0918H9.9334C9.11291 48.0918 8.46387 47.4191 8.46387 46.6083V43.6671Z" fill="white"/>
<path fill-rule="evenodd" clip-rule="evenodd" d="M46.9801 49.6383L45.5325 42.67C45.4879 42.4618 45.3053 42.3125 45.096 42.3125H42.6505C42.4412 42.3125 42.263 42.4573 42.2184 42.6654L40.6461 49.6383C40.6149 49.7786 40.7218 49.9143 40.8643 49.9143H43.096C43.2118 49.9143 43.3098 49.8238 43.3187 49.7062L43.8309 43.3442L44.3922 49.7016C44.4011 49.8193 44.4991 49.9098 44.6149 49.9098H46.7663C46.9044 49.9098 47.0113 49.7786 46.9801 49.6383Z" fill="white"/>
<path d="M7.52784 45.4443C7.67483 45.4443 7.7951 45.3222 7.7951 45.1728V44.0778C7.7951 43.9285 7.67483 43.8063 7.52784 43.8063H6.14254V42.5801C6.14254 42.4308 6.02227 42.3086 5.87528 42.3086H4.70379C4.55679 42.3086 4.43653 42.4308 4.43653 42.5801V43.8063H3.38085V42.5801C3.38085 42.4308 3.26058 42.3086 3.11359 42.3086H1.94209C1.7951 42.3086 1.67483 42.4308 1.67483 42.5801V43.8063H0.267261C0.120267 43.8063 0 43.9285 0 44.0778V45.1728C0 45.3222 0.120267 45.4443 0.267261 45.4443H1.67483V46.8109L0.267261 46.8199C0.120267 46.8199 0 46.9421 0 47.0914V48.1864C0 48.3357 0.120267 48.4579 0.267261 48.4579L1.67483 48.4489V49.6842C1.67483 49.8335 1.7951 49.9557 1.94209 49.9557H3.11359C3.26058 49.9557 3.38085 49.8335 3.38085 49.6842V48.4398L4.43653 48.4353V49.6842C4.43653 49.8335 4.55679 49.9557 4.70379 49.9557H5.87528C6.02227 49.9557 6.14254 49.8335 6.14254 49.6842V48.4262L7.52784 48.4172C7.67483 48.4172 7.7951 48.295 7.7951 48.1457V47.0507C7.7951 46.9014 7.67483 46.7792 7.52784 46.7792L6.14254 46.7882V45.4443H7.52784ZM4.43653 46.7973L3.38085 46.8018V45.4443H4.43653V46.7973Z" fill="white"/>
</g>
<defs>
<clipPath id="clip0_2013_17029">
<rect width="60" height="7.69231" fill="white" transform="translate(0 42.3086)"/>
</clipPath>
</defs>
</svg>
