<svg width="110" height="92" viewBox="0 0 110 92" fill="none" xmlns="http://www.w3.org/2000/svg">
<g clip-path="url(#clip0_1676_3905)">
<path d="M45.4089 33.5555L45.4067 33.5571L45.4044 33.5589L42.4881 35.8065C42.0554 36.14 41.8433 36.6787 41.8925 37.2128C41.9581 37.9229 41.9789 38.6314 41.9551 39.3344C41.9368 39.8751 42.1835 40.405 42.6416 40.7112L45.7914 42.8159C45.9074 42.8992 45.9491 43.0326 45.9195 43.1535L43.8293 48.7187C43.7753 48.8478 43.6457 48.9124 43.5459 48.8954L43.5403 48.8945L43.5347 48.8937L39.7832 48.3654C39.2466 48.2898 38.725 48.5183 38.3903 48.9301C37.9857 49.4281 37.5515 49.9001 37.0879 50.3427C36.701 50.7121 36.5069 51.2649 36.6189 51.8136L37.3265 55.2815L37.3268 55.2824C37.3524 55.4071 37.2935 55.5338 37.1655 55.5969L31.8128 58.0295L31.8089 58.0313L31.8051 58.0331C31.6908 58.088 31.5631 58.0525 31.4937 57.9558L31.4919 57.9534L31.4901 57.9509L29.4303 55.171C29.0979 54.7225 28.5602 54.5086 28.032 54.5646C27.3548 54.6365 26.6743 54.6589 26.0024 54.6357C25.4724 54.6174 24.9524 54.8693 24.6524 55.3386L22.6405 58.4852C22.6403 58.4856 22.64 58.486 22.6397 58.4864C22.5733 58.5868 22.4357 58.6361 22.3139 58.5877L22.313 58.5874L22.3122 58.587L16.8428 56.4461C16.7162 56.3909 16.6532 56.2585 16.6697 56.1568L16.6704 56.1528L16.671 56.1487L17.1969 52.4773C17.2777 51.9134 17.0423 51.367 16.6259 51.022C16.0703 50.5619 15.5454 50.0513 15.0516 49.5022C14.6908 49.101 14.1464 48.9021 13.6078 49.017L10.0619 49.7729L10.0613 49.7731C9.93894 49.7993 9.81471 49.739 9.75296 49.6084L7.37026 44.1438L7.36858 44.1398L7.36675 44.1359C7.31303 44.0193 7.3477 43.8891 7.44245 43.8182L7.44456 43.8165L7.44661 43.815L10.4168 41.5298C10.8472 41.1986 11.059 40.665 11.0162 40.1354C10.964 39.4897 10.9519 38.8409 10.9768 38.2001C10.9978 37.656 10.7502 37.122 10.2887 36.8147L7.30887 34.83C7.21061 34.7622 7.16244 34.6219 7.20975 34.4977L7.21009 34.4967L7.21043 34.4958L9.30756 28.9121C9.36157 28.783 9.49121 28.7184 9.59099 28.7354L9.59595 28.7362L9.60091 28.7369L13.1274 29.2451C13.6689 29.323 14.1951 29.0912 14.531 28.6749C14.9616 28.1411 15.4337 27.6299 15.9392 27.1536C16.3316 26.7838 16.5286 26.2265 16.4149 25.6737L15.6254 21.8343L15.6254 21.8341C15.5997 21.7096 15.6584 21.583 15.7858 21.5199L21.1373 19.1221L21.1422 19.1199L21.147 19.1177C21.2614 19.0626 21.389 19.0982 21.4584 19.1949L21.4602 19.1973L21.4619 19.1997L23.8346 22.4049C24.1591 22.8432 24.6808 23.0587 25.1986 23.015C25.8349 22.9613 26.4757 22.9492 27.1136 22.9751C27.6461 22.9966 28.168 22.7436 28.4687 22.2733L30.446 19.1799C30.4462 19.1795 30.4465 19.179 30.4468 19.1786C30.5132 19.0783 30.6508 19.029 30.7726 19.0773L30.7735 19.0777L30.7743 19.078L36.2436 21.2191C36.3702 21.2742 36.4333 21.4065 36.4167 21.5083L36.4159 21.5134L36.4151 21.5186L35.898 25.2731C35.8236 25.8131 36.0383 26.3409 36.4338 26.6837C36.8879 27.0772 37.3229 27.4947 37.7355 27.9397C38.0975 28.33 38.6357 28.5233 39.1685 28.4094L42.7897 27.6349L42.79 27.6349C42.9125 27.6085 43.0368 27.669 43.0985 27.7997L45.4814 33.2307L45.483 33.2342L45.4846 33.2377C45.5384 33.3543 45.5036 33.4845 45.4089 33.5555ZM30.8289 48.8344C36.255 46.3764 38.6967 39.876 36.2897 34.3375C33.8823 28.7805 27.5148 26.287 22.0892 28.7622C16.6633 31.2205 14.2218 37.721 16.6289 43.2595C19.0368 48.7994 25.4041 51.292 30.8289 48.8344Z" fill="white"/>
<path d="M95.2341 29.5915L95.2334 29.5922L95.2326 29.593L93.2888 31.4559C92.8509 31.8758 92.7122 32.5107 92.8837 33.0763C93.2385 34.246 93.4487 35.4363 93.5093 36.6289C93.5392 37.2234 93.8845 37.776 94.4436 38.016L97.0436 39.1321C97.1852 39.1979 97.2268 39.3298 97.2027 39.4179L97.2013 39.4244L97.1998 39.4309L96.3436 43.0314L96.3421 43.0376L96.3407 43.0437C96.3166 43.1611 96.1991 43.2565 96.0677 43.2504C96.0669 43.2504 96.0662 43.2503 96.0662 43.2503L93.4173 43.0771C92.791 43.0362 92.2261 43.398 91.9487 43.944C91.4049 45.0147 90.7239 46.0152 89.9159 46.9276C89.5144 47.3811 89.3808 48.0427 89.6319 48.6236L90.5889 50.8377V50.8382L90.5896 50.8387C90.6377 50.9497 90.602 51.1018 90.4801 51.1893L87.4458 53.2092L87.4414 53.2119L87.437 53.2148C87.3399 53.2831 87.191 53.2685 87.102 53.1707V53.1703L87.1013 53.1697L85.4363 51.351C85.0188 50.8956 84.3852 50.7568 83.8261 50.9415C82.5852 51.3508 81.3107 51.5815 80.0458 51.6277C79.4545 51.6492 78.8991 52.0031 78.6604 52.5839L77.621 55.1083L77.6195 55.1134L77.6173 55.1186C77.5757 55.2277 77.448 55.2992 77.321 55.265L77.3173 55.2641L77.3137 55.2631L73.7867 54.3887L73.7808 54.3872L73.775 54.3859C73.6597 54.3612 73.5662 54.2414 73.5721 54.1076C73.5721 54.107 73.5721 54.1063 73.5728 54.1057L73.7421 51.4459C73.7823 50.812 73.4341 50.2383 72.9069 49.952C71.9786 49.4479 71.0952 48.8266 70.2838 48.099C69.8518 47.7115 69.2336 47.5772 68.68 47.8073L66.0004 48.9208L65.9945 48.9233L65.9886 48.9259C65.8775 48.9764 65.7418 48.9346 65.6748 48.8183L65.6729 48.8149L65.6708 48.8117L63.7755 45.6608C63.7038 45.5339 63.7291 45.3946 63.8283 45.3068L63.8296 45.3057L63.8309 45.3046L65.8125 43.521C66.2848 43.096 66.4331 42.4282 66.2454 41.84C65.8659 40.6502 65.643 39.4328 65.5708 38.2178C65.535 37.6144 65.1735 37.059 64.6005 36.8306L62.1553 35.8561C62.0091 35.7913 61.951 35.6562 61.9765 35.5319C61.9765 35.5318 61.9766 35.5317 61.9766 35.5315L62.7321 31.9149L62.7322 31.9143L62.7323 31.9138C62.7622 31.7689 62.8849 31.6845 62.9901 31.6901L62.9937 31.6903L62.9972 31.6904L65.6352 31.7842C66.2484 31.806 66.7949 31.4438 67.062 30.9055C67.5964 29.8282 68.2644 28.811 69.0657 27.89C69.4499 27.4484 69.5855 26.8129 69.3586 26.2433L68.2029 23.3422L68.2005 23.3361L68.1979 23.3301C68.1486 23.2168 68.1894 23.0783 68.3033 23.0099L68.3066 23.008L68.3098 23.0059L71.396 21.0709C71.5205 20.9977 71.657 21.0236 71.743 21.1248L71.7441 21.1262L71.7453 21.1275L73.6283 23.3073C74.0436 23.788 74.6947 23.9392 75.2691 23.7515C76.3246 23.4066 77.4071 23.197 78.4947 23.1172C79.0823 23.0742 79.6195 22.7032 79.8392 22.1201L80.8319 19.4846C80.8954 19.336 81.0275 19.2768 81.1494 19.3028C81.1494 19.3028 81.1494 19.3029 81.1502 19.3029L84.6925 20.0742L84.6932 20.0743V20.0744C84.8356 20.105 84.918 20.2303 84.9129 20.3375L84.9122 20.3413V20.345L84.8202 23.076C84.7991 23.7116 85.1648 24.2752 85.7027 24.5438C86.8757 25.1293 87.9662 25.8821 88.948 26.7961C89.3932 27.2107 90.0458 27.3493 90.6188 27.0894L92.9502 26.0317C93.0589 25.9823 93.2078 26.0191 93.2932 26.1432L95.2721 29.2414L95.2742 29.2456L95.2772 29.2498C95.3443 29.3491 95.3297 29.5007 95.2341 29.5915ZM84.5144 45.7247V45.7245C89.037 42.9148 90.4575 36.9015 87.7049 32.3018C84.9531 27.6848 79.0633 26.2351 74.5582 29.0445C70.0356 31.8543 68.6156 37.8679 71.3679 42.4675C74.1202 47.0673 80.0093 48.5163 84.5144 45.7247Z" fill="white"/>
<path d="M63.3837 12.238L63.3913 12.2395L63.399 12.2408C63.4982 12.2577 63.6062 12.372 63.6177 12.5021V16.7572C63.6177 16.8917 63.5292 16.9989 63.4115 17.0256L63.4107 17.0258L63.4099 17.026L60.8267 17.6229C60.3081 17.7427 59.9065 18.1314 59.7266 18.6191C59.651 18.8241 59.5705 19.0251 59.4839 19.2228C59.2722 19.706 59.2841 20.2857 59.5818 20.7546L60.9953 22.9811L60.9983 22.9858L61.0013 22.9904C61.0683 23.0899 61.0561 23.2317 60.9643 23.3254L57.9414 26.4116C57.8473 26.5077 57.7159 26.5211 57.615 26.4567L57.6143 26.4563L57.6136 26.4558L55.3116 25.0009C54.8674 24.7201 54.3256 24.7053 53.8673 24.9089C53.7252 24.972 53.5813 25.0326 53.4361 25.0907C52.9626 25.2802 52.5908 25.6941 52.4799 26.2209L51.8877 29.0328L51.8875 29.0337L51.8874 29.0345C51.8588 29.1734 51.7518 29.2577 51.6253 29.2577H47.326C47.1941 29.2577 47.0891 29.1673 47.0629 29.0472L47.0625 29.0451L47.062 29.0429L46.4341 26.2977C46.3109 25.7589 45.9165 25.3503 45.4346 25.1683C45.2304 25.0913 45.0283 25.0073 44.8289 24.9177C44.361 24.7074 43.8065 24.7279 43.3587 25.0236L41.0791 26.5287L41.0742 26.5319L41.0696 26.5352C40.9721 26.6036 40.8329 26.591 40.7412 26.4974L37.7183 23.4111C37.6242 23.3151 37.6111 23.1811 37.674 23.0783L39.093 20.7605C39.3858 20.2821 39.3839 19.6987 39.1683 19.2181C39.0894 19.042 39.0153 18.8619 38.9453 18.6788C38.7592 18.1929 38.3517 17.8113 37.8323 17.6997L35.2499 17.1447C35.1138 17.1154 35.0312 17.0062 35.0312 16.8772V12.608C35.0312 12.4735 35.1197 12.3663 35.2375 12.3395L35.2388 12.3392L35.2402 12.3389L37.6833 11.7664C38.2187 11.641 38.6261 11.23 38.7971 10.7228C38.8872 10.4557 38.9856 10.1964 39.0934 9.94366C39.2978 9.46453 39.2829 8.89363 38.99 8.43075L37.5869 6.21314L37.5837 6.20822L37.5804 6.20337C37.5134 6.10386 37.5258 5.96194 37.6175 5.86832L40.6404 2.7821C40.7345 2.68602 40.8658 2.67261 40.9667 2.73701L40.9672 2.73731L40.9677 2.73761L43.1388 4.11442C43.5932 4.40251 44.1483 4.41116 44.6124 4.19574C44.8773 4.07282 45.1477 3.96034 45.4223 3.85711C45.9081 3.67471 46.294 3.25834 46.4098 2.7218L46.9286 0.31792L46.9287 0.317622C46.9549 0.197689 47.0599 0.107422 47.1917 0.107422H51.4909C51.6228 0.107422 51.7278 0.197838 51.754 0.31792L51.7546 0.320828L51.7553 0.323735L52.3352 2.8158C52.4567 3.33839 52.8345 3.74053 53.3036 3.92494C53.5115 4.00663 53.7164 4.09422 53.9189 4.18694C54.3879 4.40169 54.9438 4.37963 55.3913 4.08385L57.4861 2.69922L57.4908 2.69609L57.4954 2.69288C57.5929 2.62438 57.7321 2.63698 57.8239 2.73067L60.8467 5.81689C60.9408 5.91289 60.9539 6.04691 60.891 6.1497L59.541 8.35479C59.2599 8.8141 59.2463 9.37814 59.4586 9.85183C59.5813 10.1254 59.6934 10.4013 59.7928 10.6811C59.9741 11.1911 60.3928 11.6073 60.9429 11.7233L63.3837 12.238ZM47.4705 22.5574C51.8172 23.5856 56.1646 20.8258 57.1721 16.3868C58.1793 11.949 55.4759 7.51056 51.128 6.482C46.7815 5.45381 42.434 8.21354 41.4265 12.6526C40.4194 17.0904 43.1227 21.5289 47.4705 22.5574Z" fill="white"/>
<path d="M59.0691 43.1926L59.0739 43.1948L59.0786 43.1968L61.7096 44.3088C61.8413 44.3706 61.9046 44.5059 61.8796 44.6339L61.3897 46.814C61.2529 47.4227 61.4964 48.0327 61.9493 48.4066C62.5686 48.9181 63.1237 49.4903 63.6108 50.1113C63.9799 50.5819 64.5871 50.8336 65.1902 50.686L67.3298 50.1622C67.4549 50.1374 67.5866 50.2023 67.6468 50.3361L68.734 53.0172C68.7858 53.1573 68.7321 53.2935 68.6348 53.352L68.6299 53.3549L68.6251 53.358L66.7248 54.5738C66.2086 54.904 65.9578 55.508 66.0173 56.0978C66.1288 57.2046 66.0829 58.3354 65.864 59.4578C65.7389 60.0987 65.9878 60.7885 66.5627 61.1468L68.1368 62.1275C68.2678 62.2163 68.2999 62.3641 68.2531 62.4716L68.2511 62.4764L68.249 62.4813L67.1598 65.1669C67.0994 65.3011 66.9673 65.366 66.8419 65.3406L64.4006 64.7585C63.8554 64.6288 63.3041 64.8248 62.931 65.2132C62.5801 65.5791 62.2049 65.9183 61.8122 66.2306C61.3397 66.607 61.0899 67.2361 61.2391 67.8578L61.6785 69.6885C61.7024 69.8159 61.6389 69.9501 61.5081 70.0112L58.8819 71.1211C58.7445 71.174 58.611 71.1196 58.5537 71.0198L58.5512 71.016L58.5486 71.0116L57.5231 69.3285C57.2017 68.8015 56.6121 68.5436 56.0351 68.601C55.2866 68.6763 54.5243 68.674 53.7635 68.592C53.1775 68.5294 52.5768 68.7925 52.2552 69.3314L51.2346 71.0436C51.1476 71.177 51.0029 71.2098 50.8975 71.1621L50.8927 71.1599L50.888 71.1576L48.2571 70.0455C48.1244 69.9837 48.061 69.8465 48.0876 69.7183V69.7176L48.4926 67.7512C48.6173 67.1452 48.3686 66.5452 47.9165 66.1784C47.2322 65.6239 46.6189 64.991 46.0897 64.2986C45.7216 63.817 45.1064 63.5569 44.4947 63.7075L42.3847 64.227C42.2597 64.2516 42.1281 64.1868 42.0679 64.0526L40.9806 61.3717C40.9289 61.2316 40.9826 61.0954 41.08 61.037L41.0844 61.0343L41.0888 61.0315L43.0693 59.771C43.5762 59.4485 43.8302 58.8604 43.7828 58.2794C43.7521 57.9027 43.7382 57.5218 43.7411 57.1416C43.7453 56.5953 43.4845 56.0619 43.0079 55.7656L40.6541 54.3016C40.5232 54.2128 40.4911 54.0651 40.5379 53.9576L40.54 53.9528L40.542 53.9479L41.6313 51.2619C41.6917 51.1277 41.8241 51.0628 41.9496 51.0883L43.9902 51.5691C44.6391 51.722 45.2829 51.4152 45.6356 50.8789C46.2181 49.9931 46.9119 49.2137 47.6873 48.5461C48.129 48.1658 48.3589 47.5576 48.2161 46.9567L47.6836 44.7176C47.6596 44.5902 47.723 44.456 47.854 44.3946L50.4802 43.2845C50.6175 43.2317 50.751 43.2865 50.8083 43.386L50.8109 43.3905L50.8136 43.3949L51.9421 45.2433C52.2736 45.7864 52.8882 46.0422 53.4805 45.9626C54.3396 45.8472 55.2185 45.8317 56.0956 45.9289C56.684 45.9941 57.29 45.7322 57.6137 45.1887L58.732 43.3112C58.819 43.1776 58.9637 43.1448 59.0691 43.1926ZM51.6215 65.3995L51.6223 65.4003C56.008 67.2526 61.0623 65.1312 62.8942 60.6359C64.7267 56.1566 62.6469 51.0131 58.2443 49.1434C53.8412 47.2733 48.8032 49.3954 46.9714 53.8908C45.1397 58.3863 47.2184 63.5301 51.6215 65.3995Z" fill="white"/>
<path d="M107.633 57.3399L106.832 56.9559C106.467 56.7806 106.232 56.4134 106.18 56.0046C106.154 55.8058 106.122 55.6086 106.082 55.4131C105.999 55.0114 106.096 54.5859 106.377 54.2936L107.012 53.6365C107.23 53.4135 107.264 53.0535 107.112 52.7964L105.869 50.7732C105.701 50.4988 105.366 50.3788 105.064 50.4988L104.265 50.7961C103.879 50.9399 103.45 50.846 103.126 50.587C102.953 50.448 102.772 50.315 102.588 50.1877C102.266 49.9666 102.057 49.604 102.057 49.2078V48.1499C102.057 47.8242 101.839 47.5499 101.537 47.4813L99.2526 46.9497C98.9504 46.8812 98.6314 47.0355 98.4971 47.3269L98.0964 48.194C97.9197 48.5769 97.546 48.8178 97.1343 48.867C96.8883 48.8963 96.6467 48.9381 96.4073 48.9916C96.0146 49.0796 95.5978 48.982 95.311 48.6939L94.735 48.1156C94.5168 47.8927 94.1642 47.8585 93.9124 48.0127L91.9307 49.2816C91.662 49.453 91.5445 49.7959 91.6621 50.1045L91.9204 50.8334C92.0606 51.2279 91.9679 51.6655 91.7131 51.9951C91.5708 52.1801 91.435 52.3719 91.308 52.5689C91.0876 52.9114 90.7234 53.1392 90.3219 53.1392H89.4788C89.1599 53.1392 88.8905 53.3621 88.8234 53.6708L88.3029 56.0025C88.2358 56.3112 88.3869 56.6369 88.6723 56.7741L89.3504 57.0975C89.727 57.2775 89.965 57.6611 90.0131 58.0832C90.0467 58.3768 90.0971 58.668 90.1613 58.9536C90.2526 59.3574 90.1569 59.7878 89.8723 60.0832L89.3277 60.649C89.1095 60.8718 89.0752 61.2319 89.227 61.4891L90.4694 63.5119C90.6372 63.7869 90.973 63.9069 91.2752 63.7869L92.038 63.5111C92.4168 63.3746 92.835 63.4657 93.1526 63.7169C93.3628 63.8838 93.5825 64.0404 93.8095 64.1857C94.1613 64.4101 94.3993 64.7917 94.3993 65.2151V66.0671C94.3993 66.3928 94.6175 66.6671 94.9197 66.7357L97.2037 67.2672C97.5058 67.3357 97.8248 67.1814 97.9599 66.89L98.3518 66.0387C98.5241 65.6653 98.884 65.426 99.284 65.3694C99.4913 65.3403 99.6964 65.303 99.8985 65.2583C100.291 65.1704 100.707 65.2688 100.993 65.5565L101.62 66.1871C101.839 66.41 102.191 66.4442 102.444 66.2899L104.425 65.0213C104.694 64.8498 104.812 64.507 104.694 64.1984L104.393 63.3344C104.258 62.9475 104.345 62.5196 104.591 62.1942C104.747 61.9875 104.895 61.7722 105.034 61.549C105.251 61.203 105.616 60.9747 106.018 60.9747H106.861C107.18 60.9747 107.448 60.7518 107.515 60.4432L108.036 58.1114C108.069 57.8028 107.918 57.477 107.633 57.3399ZM96.7504 63.0836C95.2891 62.7407 94.0803 61.8834 93.2569 60.7347L92.7869 59.9631C92.1657 58.7458 91.9307 57.3227 92.2161 55.8825L92.2832 55.6082C92.6358 54.1851 93.4584 53.0192 94.5336 52.1962L95.3226 51.699C96.5489 51.0475 97.9934 50.8246 99.454 51.1675C102.679 51.9391 104.694 55.2138 103.938 58.5229C103.182 61.832 99.9745 63.8555 96.7504 63.0836Z" fill="white"/>
</g>
<g clip-path="url(#clip1_1676_3905)">
<path d="M109.51 77.8457H100.445C100.176 77.8457 99.9551 78.0705 99.9551 78.3453V81.8504C99.9551 82.1252 100.176 82.35 100.445 82.35H102.96V91.3335C102.96 91.6082 103.181 91.833 103.45 91.833H106.513C106.782 91.833 107.003 91.6082 107.003 91.3335V82.35H109.518C109.787 82.35 110.008 82.1252 110.008 81.8504V78.3453C110 78.0705 109.779 77.8457 109.51 77.8457Z" fill="white"/>
<path d="M88.115 91.833C87.8455 91.833 87.625 91.6082 87.625 91.3335V78.3453C87.625 78.0705 87.8455 77.8457 88.115 77.8457H91.1528C91.4223 77.8457 91.6428 78.0705 91.6428 78.3453V84.165L94.8767 78.1121C94.9665 77.9539 95.1298 77.854 95.3095 77.854H98.2412C98.5107 77.854 98.7312 78.0788 98.7312 78.3536V91.3418C98.7312 91.6166 98.5107 91.8414 98.2412 91.8414H95.2033C94.9338 91.8414 94.7133 91.6166 94.7133 91.3418V85.4888L91.4958 91.5666C91.406 91.7248 91.2427 91.8247 91.063 91.8247H88.115V91.833Z" fill="white"/>
<path d="M74.3287 77.8457H71.5521C71.348 77.8457 71.1683 77.9706 71.0948 78.1621L69.1512 83.3074L67.2403 78.1704C67.1668 77.9789 66.9872 77.8457 66.783 77.8457H63.6717C63.3287 77.8457 63.0918 78.1954 63.2143 78.5201L66.9055 88.3279C66.7177 88.4861 66.44 88.5693 66.0807 88.5693C65.8439 88.5693 65.5907 88.5194 65.3294 88.4195C65.1906 88.3612 64.6516 88.0698 64.1616 87.7867C63.8105 87.5786 63.3042 87.87 63.3042 88.2862V90.6757C63.3042 90.8256 63.3695 90.9755 63.492 91.0587C63.8023 91.2669 64.178 91.4334 64.6271 91.5666C65.1906 91.7414 65.7377 91.8247 66.2767 91.8247C66.9708 91.8247 67.5996 91.7165 68.1795 91.5083C68.7674 91.3002 69.2901 90.9338 69.7555 90.4093C70.2374 89.8848 70.6538 89.1605 71.0132 88.228L74.786 78.5284C74.9085 78.2037 74.6717 77.8457 74.3287 77.8457Z" fill="white"/>
<path d="M41.1341 91.7918C40.8157 91.7918 40.5625 91.5337 40.5625 91.209V90.1766C40.5625 89.8518 40.8157 89.5938 41.1341 89.5938H48.9738C49.2923 89.5938 49.5454 89.8518 49.5454 90.1766V91.209C49.5454 91.5337 49.2923 91.7918 48.9738 91.7918H41.1341Z" fill="white"/>
<path d="M41.2401 77.8457H33.4822C33.2127 77.8457 32.9922 78.0705 32.9922 78.3453V91.4167C32.9922 91.6915 33.2127 91.9163 33.4822 91.9163H35.8096C36.079 91.9163 36.2995 91.6915 36.2995 91.4167V81.5257H41.2401C41.5096 81.5257 41.7301 81.3009 41.7301 81.0262V78.3453C41.7301 78.0705 41.5096 77.8457 41.2401 77.8457Z" fill="white"/>
<path d="M51.8552 91.833C51.5857 91.833 51.3652 91.6082 51.3652 91.3335V78.3453C51.3652 78.0705 51.5857 77.8457 51.8552 77.8457H54.7624C55.0319 77.8457 55.2524 78.0705 55.2524 78.3453C55.2524 78.9197 55.2687 82.3666 55.2687 83.016L55.4484 86.7876V91.3335C55.4484 91.6082 55.2279 91.833 54.9584 91.833H51.8552Z" fill="white"/>
<path fill-rule="evenodd" clip-rule="evenodd" d="M55.6113 81.6572V84.3572H58.226V81.6572H55.6113ZM51.6113 80.343C51.6113 78.851 52.8012 77.6133 54.3055 77.6133H59.5319C61.0361 77.6133 62.226 78.851 62.226 80.343V85.6715C62.226 87.1634 61.0361 88.4011 59.5319 88.4011H54.3055C52.8012 88.4011 51.6113 87.1634 51.6113 85.6715V80.343Z" fill="white"/>
<path d="M21.9843 91.916C21.7067 91.916 21.4862 91.6829 21.4944 91.3915L22.0007 78.3283C22.0088 78.0619 22.2293 77.8454 22.4906 77.8454H23.4379C23.8381 77.8954 24.8344 77.6373 24.8425 78.3283L25.3734 91.3915C25.3815 91.6746 25.161 91.916 24.8834 91.916H21.9843Z" fill="white"/>
<path fill-rule="evenodd" clip-rule="evenodd" d="M19.5176 81.6572V84.4404H27.3587V81.6572H19.5176ZM15.5176 80.343C15.5176 78.851 16.7075 77.6133 18.2117 77.6133H28.6646C30.1688 77.6133 31.3587 78.851 31.3587 80.343V85.7547C31.3587 87.2467 30.1688 88.4844 28.6646 88.4844H18.2117C16.7075 88.4844 15.5176 87.2467 15.5176 85.7547V80.343Z" fill="white"/>
<path fill-rule="evenodd" clip-rule="evenodd" d="M86.1302 91.333L83.4762 78.5113C83.3945 78.1283 83.0597 77.8535 82.6759 77.8535H78.1926C77.8088 77.8535 77.4821 78.1199 77.4005 78.5029L74.5178 91.333C74.4606 91.5911 74.6566 91.8408 74.9179 91.8408H79.0092C79.2216 91.8408 79.4012 91.6743 79.4176 91.4579L80.3567 79.7518L81.3856 91.4495C81.402 91.666 81.5816 91.8325 81.7939 91.8325H85.7383C85.9914 91.8325 86.1874 91.5911 86.1302 91.333Z" fill="white"/>
<path d="M13.801 83.6155C14.0705 83.6155 14.291 83.3907 14.291 83.1159V81.1011C14.291 80.8263 14.0705 80.6015 13.801 80.6015H11.2613V78.3453C11.2613 78.0705 11.0408 77.8457 10.7713 77.8457H8.62361C8.35412 77.8457 8.13363 78.0705 8.13363 78.3453V80.6015H6.19822V78.3453C6.19822 78.0705 5.97773 77.8457 5.70824 77.8457H3.5605C3.29102 77.8457 3.07053 78.0705 3.07053 78.3453V80.6015H0.489978C0.22049 80.6015 0 80.8263 0 81.1011V83.1159C0 83.3907 0.22049 83.6155 0.489978 83.6155H3.07053V86.1299L0.489978 86.1465C0.22049 86.1465 0 86.3713 0 86.6461V88.6609C0 88.9357 0.22049 89.1605 0.489978 89.1605L3.07053 89.1438V91.4167C3.07053 91.6915 3.29102 91.9163 3.5605 91.9163H5.70824C5.97773 91.9163 6.19822 91.6915 6.19822 91.4167V89.1271L8.13363 89.1188V91.4167C8.13363 91.6915 8.35412 91.9163 8.62361 91.9163H10.7713C11.0408 91.9163 11.2613 91.6915 11.2613 91.4167V89.1022L13.801 89.0855C14.0705 89.0855 14.291 88.8607 14.291 88.586V86.5711C14.291 86.2964 14.0705 86.0716 13.801 86.0716L11.2613 86.0882V83.6155H13.801ZM8.13363 86.1049L6.19822 86.1132V83.6155H8.13363V86.1049Z" fill="white"/>
</g>
<defs>
<clipPath id="clip0_1676_3905">
<rect width="110" height="71.7802" fill="white"/>
</clipPath>
<clipPath id="clip1_1676_3905">
<rect width="110" height="14.1538" fill="white" transform="translate(0 77.8457)"/>
</clipPath>
</defs>
</svg>
