<svg width="86" height="72" viewBox="0 0 86 72" fill="none" xmlns="http://www.w3.org/2000/svg">
<path d="M35.5012 26.2614L35.4995 26.2627L35.4977 26.264L33.2177 28.0231C32.8794 28.2841 32.7135 28.7056 32.752 29.1237C32.8033 29.6794 32.8196 30.2338 32.8009 30.784C32.7866 31.2072 32.9795 31.6219 33.3377 31.8615L35.8002 33.5087C35.8909 33.5739 35.9235 33.6783 35.9004 33.7729L34.2662 38.1282C34.224 38.2293 34.1227 38.2799 34.0447 38.2666L34.0403 38.2659L34.0359 38.2652L31.103 37.8518C30.6834 37.7926 30.2756 37.9714 30.014 38.2937C29.6976 38.6834 29.3581 39.0529 28.9957 39.3992C28.6932 39.6883 28.5415 40.121 28.629 40.5504L29.1823 43.2643L29.1824 43.265C29.2025 43.3626 29.1564 43.4619 29.0564 43.5112L24.8715 45.415L24.8685 45.4164L24.8655 45.4178C24.7761 45.4608 24.6763 45.433 24.622 45.3573L24.6206 45.3554L24.6192 45.3535L23.0088 43.1779C22.749 42.8269 22.3286 42.6595 21.9156 42.7033C21.3862 42.7596 20.8542 42.7771 20.3288 42.7589C19.9145 42.7446 19.508 42.9418 19.2734 43.3091L17.7005 45.7716C17.7003 45.7719 17.7 45.7723 17.6999 45.7726C17.6479 45.8511 17.5404 45.8897 17.4451 45.8518L17.4444 45.8516L17.4437 45.8513L13.1677 44.1758C13.0688 44.1326 13.0195 44.029 13.0324 43.9494L13.0329 43.9463L13.0334 43.9431L13.4445 41.0698C13.5077 40.6285 13.3237 40.2008 12.9981 39.9309C12.5637 39.5708 12.1534 39.1712 11.7673 38.7415C11.4852 38.4275 11.0596 38.2718 10.6385 38.3617L7.8663 38.9533L7.86579 38.9535C7.77014 38.974 7.67302 38.9268 7.62474 38.8246L5.7619 34.5479L5.76059 34.5448L5.75916 34.5418C5.71716 34.4505 5.74427 34.3486 5.81834 34.2931L5.81999 34.2918L5.82159 34.2906L8.14371 32.5021C8.48023 32.243 8.64584 31.8254 8.61234 31.4109C8.57154 30.9056 8.56212 30.3978 8.58152 29.8963C8.59802 29.4705 8.40439 29.0526 8.04361 28.8121L5.71391 27.2588C5.63708 27.2058 5.59942 27.096 5.63641 26.9988L5.63668 26.998L5.63694 26.9973L7.27651 22.6274C7.31874 22.5264 7.4201 22.4758 7.49811 22.4891L7.50199 22.4898L7.50587 22.4904L10.2629 22.888C10.6863 22.949 11.0977 22.7676 11.3603 22.4418C11.697 22.024 12.066 21.624 12.4612 21.2512C12.768 20.9618 12.922 20.5257 12.8332 20.0931L12.216 17.0883L12.2159 17.0881C12.1959 16.9907 12.2417 16.8917 12.3413 16.8423L16.5253 14.9657L16.529 14.964L16.5328 14.9622C16.6222 14.9192 16.722 14.947 16.7763 15.0227L16.7777 15.0245L16.779 15.0264L18.6341 17.5349C18.8877 17.8779 19.2956 18.0465 19.7004 18.0123C20.1979 17.9703 20.6989 17.9608 21.1976 17.9811C21.6139 17.9979 22.0219 17.7999 22.257 17.4319L23.8029 15.011C23.8031 15.0106 23.8033 15.0103 23.8035 15.01C23.8555 14.9314 23.963 14.8928 24.0583 14.9307L24.059 14.931L24.0596 14.9312L28.3356 16.6068C28.4346 16.65 28.4839 16.7535 28.4709 16.8332L28.4703 16.8372L28.4697 16.8412L28.0654 19.7795C28.0073 20.2021 28.1751 20.6152 28.4843 20.8835C28.8393 21.1914 29.1794 21.5181 29.502 21.8665C29.785 22.1719 30.2058 22.3232 30.6223 22.234L33.4534 21.6279L33.4537 21.6279C33.5495 21.6073 33.6467 21.6546 33.6949 21.7569L35.5579 26.0073L35.5591 26.01L35.5604 26.0127C35.6024 26.104 35.5753 26.2059 35.5012 26.2614ZM24.1023 38.2188C28.3445 36.2951 30.2535 31.2079 28.3717 26.8734C26.4895 22.5245 21.5113 20.573 17.2695 22.5101C13.0274 24.434 11.1186 29.5214 13.0005 33.8559C14.883 38.1914 19.861 40.1421 24.1023 38.2188Z" fill="white"/>
<path d="M74.4551 23.1582L74.4546 23.1588L74.454 23.1594L72.9343 24.6173C72.5919 24.9459 72.4835 25.4428 72.6176 25.8855C72.8949 26.8009 73.0593 27.7324 73.1067 28.6658C73.13 29.131 73.4 29.5635 73.8371 29.7513L75.8698 30.6248C75.9805 30.6762 76.0131 30.7795 75.9942 30.8484L75.9931 30.8535L75.992 30.8586L75.3226 33.6764L75.3214 33.6812L75.3203 33.686C75.3015 33.7779 75.2096 33.8526 75.1069 33.8478C75.1063 33.8478 75.1057 33.8477 75.1057 33.8477L73.0348 33.7122C72.5451 33.6801 72.1034 33.9633 71.8866 34.3907C71.4614 35.2285 70.929 36.0115 70.2972 36.7256C69.9834 37.0805 69.8789 37.5983 70.0753 38.0529L70.8234 39.7857V39.7861L70.824 39.7865C70.8616 39.8733 70.8337 39.9924 70.7384 40.0609L68.3661 41.6416L68.3627 41.6438L68.3592 41.646C68.2833 41.6995 68.1669 41.6881 68.0973 41.6115V41.6112L68.0967 41.6108L66.795 40.1874C66.4686 39.831 65.9733 39.7224 65.5361 39.8669C64.566 40.1873 63.5696 40.3678 62.5806 40.4039C62.1184 40.4208 61.6841 40.6978 61.4975 41.1523L60.6849 43.1279L60.6837 43.1319L60.682 43.1359C60.6495 43.2213 60.5496 43.2773 60.4503 43.2506L60.4475 43.2498L60.4446 43.249L57.6871 42.5647L57.6826 42.5635L57.678 42.5626C57.5879 42.5432 57.5148 42.4494 57.5194 42.3447C57.5194 42.3443 57.5194 42.3437 57.5199 42.3432L57.6523 40.2617C57.6837 39.7656 57.4115 39.3166 56.9994 39.0925C56.2736 38.698 55.5829 38.2118 54.9486 37.6424C54.6108 37.3391 54.1275 37.234 53.6947 37.414L51.5997 38.2855L51.5951 38.2874L51.5905 38.2895C51.5036 38.329 51.3975 38.2963 51.3451 38.2053L51.3436 38.2027L51.342 38.2001L49.8602 35.7342C49.8042 35.6349 49.824 35.5259 49.9015 35.4572L49.9025 35.4563L49.9035 35.4554L51.4528 34.0596C51.822 33.727 51.938 33.2044 51.7913 32.744C51.4945 31.8129 51.3203 30.8601 51.2639 29.9093C51.2358 29.437 50.9532 29.0024 50.5052 28.8236L48.5936 28.061C48.4793 28.0103 48.4338 27.9045 48.4538 27.8073C48.4538 27.8072 48.4538 27.807 48.4538 27.8069L49.0445 24.9765L49.0446 24.9761L49.0446 24.9757C49.068 24.8623 49.164 24.7962 49.2462 24.8006L49.249 24.8007L49.2518 24.8009L51.3142 24.8743C51.7936 24.8913 52.2209 24.6078 52.4297 24.1865C52.8475 23.3435 53.3697 22.5474 53.9962 21.8266C54.2966 21.481 54.4026 20.9837 54.2252 20.5379L53.3217 18.2675L53.3198 18.2627L53.3178 18.258C53.2792 18.1693 53.3111 18.061 53.4002 18.0074L53.4027 18.0059L53.4052 18.0043L55.8181 16.49C55.9154 16.4326 56.0222 16.4529 56.0894 16.5321L56.0902 16.5332L56.0912 16.5342L57.5633 18.2402C57.888 18.6163 58.3971 18.7347 58.8462 18.5878C59.6714 18.3179 60.5177 18.1538 61.368 18.0914C61.8274 18.0578 62.2474 17.7674 62.4191 17.3111L63.1953 15.2485C63.2449 15.1322 63.3482 15.0859 63.4435 15.1062C63.4435 15.1062 63.4435 15.1062 63.4441 15.1062L66.2135 15.7099L66.2141 15.71V15.7101C66.3254 15.734 66.3899 15.8321 66.3859 15.916L66.3853 15.9189V15.9218L66.3134 18.0591C66.2968 18.5566 66.5828 18.9977 67.0033 19.2078C67.9204 19.6661 68.773 20.2552 69.5405 20.9705C69.8886 21.295 70.3988 21.4034 70.8468 21.2001L72.6695 20.3723C72.7546 20.3336 72.871 20.3625 72.9377 20.4595L74.4848 22.8843L74.4865 22.8875L74.4888 22.8908C74.5413 22.9685 74.5299 23.0872 74.4551 23.1582ZM66.0743 35.7842V35.784C69.6102 33.5852 70.7207 28.8791 68.5687 25.2793C66.4173 21.666 61.8125 20.5315 58.2903 22.7302C54.7545 24.9291 53.6443 29.6354 55.7961 33.2351C57.9479 36.8349 62.5521 37.9689 66.0743 35.7842Z" fill="white"/>
<path d="M49.5542 9.57746L49.5601 9.57869L49.5661 9.57968C49.6437 9.59292 49.7281 9.68235 49.7371 9.78414V13.1142C49.7371 13.2195 49.6679 13.3034 49.5759 13.3243L49.5752 13.3245L49.5747 13.3246L47.5551 13.7917C47.1496 13.8855 46.8356 14.1897 46.695 14.5714C46.6358 14.7318 46.5729 14.8891 46.5052 15.0438C46.3397 15.422 46.349 15.8757 46.5817 16.2426L47.6868 17.9851L47.6892 17.9888L47.6916 17.9924C47.744 18.0703 47.7344 18.1813 47.6626 18.2546L45.2993 20.6699C45.2257 20.745 45.123 20.7555 45.0441 20.7052L45.0435 20.7048L45.043 20.7044L43.2433 19.5659C42.8959 19.3461 42.4723 19.3345 42.1141 19.4938C42.003 19.5432 41.8904 19.5906 41.7769 19.6361C41.4067 19.7844 41.1161 20.1084 41.0293 20.5206L40.5664 22.7212L40.5662 22.7219L40.5661 22.7226C40.5438 22.8313 40.4601 22.8972 40.3612 22.8972H36.9999C36.8968 22.8972 36.8147 22.8265 36.7943 22.7325L36.7939 22.7309L36.7935 22.7292L36.3026 20.5807C36.2063 20.1591 35.898 19.8393 35.5212 19.6969C35.3616 19.6366 35.2035 19.5708 35.0477 19.5007C34.6818 19.3361 34.2483 19.3522 33.8982 19.5836L32.116 20.7615L32.1122 20.764L32.1086 20.7666C32.0323 20.8201 31.9236 20.8102 31.8518 20.737L29.4884 18.3217C29.4149 18.2465 29.4047 18.1417 29.4539 18.0612L30.5632 16.2472C30.7922 15.8728 30.7907 15.4163 30.6221 15.0402C30.5604 14.9024 30.5025 14.7614 30.4477 14.6181C30.3023 14.2378 29.9837 13.9392 29.5776 13.8519L27.5587 13.4175C27.4522 13.3946 27.3877 13.3091 27.3877 13.2082V9.86703C27.3877 9.7618 27.4569 9.67786 27.549 9.65691L27.55 9.65668L27.5511 9.65645L29.4611 9.20844C29.8797 9.11026 30.1982 8.7886 30.3319 8.39169C30.4023 8.18262 30.4793 7.97967 30.5636 7.78191C30.7234 7.40694 30.7117 6.96015 30.4827 6.59789L29.3857 4.86237L29.3833 4.85852L29.3807 4.85473C29.3283 4.77685 29.338 4.66578 29.4096 4.59251L31.773 2.17721C31.8466 2.10202 31.9493 2.09152 32.0282 2.14192L32.0285 2.14216L32.0289 2.14239L33.7264 3.21989C34.0816 3.44536 34.5156 3.45212 34.8784 3.28354C35.0855 3.18734 35.2969 3.09931 35.5116 3.01852C35.8914 2.87578 36.1931 2.54992 36.2836 2.13002L36.6893 0.248722L36.6893 0.248489C36.7098 0.154628 36.7919 0.0839844 36.8949 0.0839844H40.2561C40.3593 0.0839844 40.4414 0.154745 40.4618 0.248722L40.4623 0.250998L40.4628 0.253273L40.9162 2.20358C41.0112 2.61257 41.3066 2.92728 41.6733 3.0716C41.8359 3.13554 41.9961 3.20408 42.1544 3.27665C42.5211 3.44471 42.9557 3.42745 43.3056 3.19598L44.9433 2.11235L44.947 2.1099L44.9506 2.10739C45.0268 2.05378 45.1356 2.06364 45.2074 2.13696L47.5707 4.55226C47.6443 4.6274 47.6545 4.73228 47.6053 4.81273L46.5499 6.53845C46.3301 6.89791 46.3195 7.33933 46.4855 7.71004C46.5813 7.92413 46.669 8.14009 46.7467 8.35902C46.8885 8.75821 47.2158 9.08389 47.6459 9.17466L49.5542 9.57746ZM37.1129 17.6535C40.5112 18.4582 43.9101 16.2984 44.6978 12.8244C45.4852 9.3513 43.3717 5.87775 39.9725 5.07278C36.5742 4.26811 33.1753 6.4279 32.3876 9.90192C31.6002 13.375 33.7137 16.8486 37.1129 17.6535Z" fill="white"/>
<path d="M46.1817 33.8033L46.1854 33.805L46.1891 33.8066L48.246 34.6769C48.349 34.7253 48.3985 34.8311 48.3789 34.9313L47.9959 36.6375C47.889 37.1139 48.0794 37.5912 48.4334 37.8839C48.9177 38.2842 49.3517 38.7319 49.7324 39.2179C50.021 39.5863 50.4957 39.7833 50.9672 39.6677L52.64 39.2578C52.7378 39.2384 52.8408 39.2892 52.8879 39.3939L53.7379 41.4921C53.7783 41.6018 53.7364 41.7084 53.6603 41.7542L53.6564 41.7564L53.6527 41.7588L52.167 42.7103C51.7635 42.9687 51.5674 43.4414 51.6139 43.903C51.701 44.7693 51.6652 45.6542 51.494 46.5326C51.3962 47.0342 51.5908 47.574 52.0403 47.8544L53.271 48.6219C53.3734 48.6915 53.3984 48.8071 53.3619 48.8913L53.3603 48.895L53.3587 48.8988L52.5071 51.0006C52.4599 51.1056 52.3566 51.1564 52.2585 51.1366L50.3499 50.681C49.9237 50.5795 49.4927 50.7329 49.201 51.0368C48.9266 51.3232 48.6333 51.5887 48.3263 51.8331C47.9568 52.1277 47.7615 52.62 47.8782 53.1065L48.2217 54.5392C48.2404 54.639 48.1908 54.744 48.0885 54.7918L46.0353 55.6604C45.9279 55.7019 45.8235 55.6593 45.7787 55.5811L45.7767 55.5782L45.7747 55.5747L44.973 54.2575C44.7217 53.8451 44.2608 53.6432 43.8096 53.6881C43.2244 53.7471 42.6285 53.7453 42.0337 53.6811C41.5755 53.6321 41.1059 53.8381 40.8544 54.2598L40.0565 55.5998C39.9885 55.7042 39.8753 55.7299 39.7929 55.6925L39.7892 55.6908L39.7855 55.689L37.7286 54.8187C37.6249 54.7702 37.5754 54.6629 37.5961 54.5626V54.562L37.9127 53.0231C38.0102 52.5489 37.8158 52.0793 37.4624 51.7923C36.9274 51.3582 36.4479 50.863 36.0341 50.321C35.7464 49.9442 35.2654 49.7406 34.7871 49.8584L33.1375 50.265C33.0397 50.2843 32.9368 50.2335 32.8898 50.1285L32.0397 48.0305C31.9993 47.9208 32.0413 47.8142 32.1174 47.7685L32.1209 47.7664L32.1243 47.7642L33.6727 46.7777C34.069 46.5253 34.2676 46.0651 34.2305 45.6104C34.2065 45.3156 34.1957 45.0175 34.198 44.7199C34.2012 44.2924 33.9973 43.875 33.6247 43.643L31.7845 42.4973C31.6821 42.4278 31.657 42.3122 31.6936 42.2281L31.6953 42.2243L31.6968 42.2205L32.5484 40.1184C32.5957 40.0134 32.6992 39.9626 32.7973 39.9826L34.3927 40.3588C34.9001 40.4785 35.4034 40.2384 35.6791 39.8187C36.1345 39.1255 36.6769 38.5155 37.2832 37.993C37.6285 37.6954 37.8082 37.2194 37.6966 36.7491L37.2803 34.9968C37.2615 34.8971 37.3111 34.7921 37.4135 34.744L39.4667 33.8753C39.5741 33.8339 39.6784 33.8768 39.7232 33.9547L39.7252 33.9582L39.7274 33.9617L40.6096 35.4082C40.8688 35.8332 41.3493 36.0334 41.8124 35.9711C42.484 35.8808 43.1712 35.8687 43.8569 35.9448C44.3169 35.9958 44.7907 35.7908 45.0438 35.3655L45.9181 33.8962C45.9861 33.7916 46.0993 33.766 46.1817 33.8033ZM40.359 51.1826L40.3596 51.1832C43.7884 52.6329 47.74 50.9726 49.1722 47.4546C50.6048 43.9491 48.9788 39.9237 45.5368 38.4605C42.0944 36.9969 38.1556 38.6577 36.7235 42.1758C35.2914 45.694 36.9166 49.7196 40.359 51.1826Z" fill="white"/>
<path d="M84.1483 44.8745L83.5223 44.574C83.2369 44.4368 83.0532 44.1494 83.0121 43.8295C82.9921 43.6739 82.967 43.5196 82.9356 43.3666C82.8711 43.0522 82.9465 42.7192 83.1667 42.4904L83.6627 41.9762C83.8333 41.8017 83.8595 41.52 83.7414 41.3187L82.7696 39.7353C82.6383 39.5207 82.3758 39.4267 82.1395 39.5207L81.5152 39.7533C81.2133 39.8658 80.8778 39.7923 80.625 39.5897C80.4892 39.4809 80.3482 39.3768 80.2038 39.2772C79.9522 39.1041 79.7889 38.8204 79.7889 38.5103V37.6824C79.7889 37.4274 79.6183 37.2128 79.3821 37.1591L77.5964 36.7431C77.3602 36.6894 77.1108 36.8102 77.0058 37.0383L76.6925 37.7169C76.5544 38.0165 76.2622 38.205 75.9403 38.2435C75.748 38.2665 75.5591 38.2992 75.372 38.3411C75.0649 38.41 74.7391 38.3336 74.5148 38.1081L74.0645 37.6555C73.8939 37.4811 73.6183 37.4543 73.4214 37.575L71.872 38.568C71.662 38.7022 71.5702 38.9705 71.662 39.2121L71.864 39.7825C71.9736 40.0912 71.9011 40.4337 71.702 40.6917C71.5907 40.8365 71.4846 40.9865 71.3853 41.1407C71.2129 41.4087 70.9281 41.5871 70.6143 41.5871H69.9552C69.7058 41.5871 69.4952 41.7615 69.4427 42.0031L69.0358 43.8279C68.9833 44.0694 69.1014 44.3244 69.3246 44.4317L69.8547 44.6848C70.1492 44.8257 70.3352 45.1259 70.3729 45.4562C70.3991 45.686 70.4385 45.9139 70.4887 46.1374C70.5601 46.4534 70.4853 46.7903 70.2627 47.0215L69.837 47.4642C69.6664 47.6387 69.6396 47.9204 69.7583 48.1217L70.7296 49.7048C70.8608 49.92 71.1233 50.0139 71.3596 49.92L71.9559 49.7042C72.2521 49.5973 72.5791 49.6686 72.8273 49.8652C72.9917 49.9959 73.1635 50.1184 73.3409 50.2321C73.616 50.4077 73.802 50.7064 73.802 51.0377V51.7045C73.802 51.9594 73.9727 52.1741 74.2089 52.2278L75.9946 52.6437C76.2308 52.6974 76.4802 52.5766 76.5858 52.3485L76.8922 51.6823C77.0269 51.3901 77.3082 51.2028 77.621 51.1585C77.783 51.1357 77.9434 51.1066 78.1015 51.0716C78.4085 51.0027 78.7338 51.0797 78.9575 51.3049L79.4477 51.7984C79.6183 51.9728 79.8939 51.9997 80.0914 51.8789L81.6402 50.8861C81.8508 50.7519 81.9427 50.4835 81.8508 50.242L81.6151 49.5659C81.5095 49.2631 81.578 48.9282 81.7703 48.6736C81.8919 48.5118 82.0077 48.3433 82.1167 48.1686C82.2862 47.8978 82.5715 47.7192 82.886 47.7192H83.5445C83.7939 47.7192 84.0039 47.5447 84.0564 47.3032L84.4633 45.4783C84.4895 45.2368 84.3714 44.9819 84.1483 44.8745ZM75.6402 49.3696C74.4977 49.1012 73.5527 48.4303 72.9089 47.5313L72.5414 46.9275C72.0558 45.9748 71.872 44.8611 72.0952 43.734L72.1477 43.5193C72.4233 42.4056 73.0664 41.4931 73.907 40.8491L74.5239 40.4599C75.4827 39.9501 76.612 39.7756 77.7539 40.044C80.2752 40.6478 81.8508 43.2106 81.2596 45.8004C80.6689 48.3901 78.1608 49.9737 75.6402 49.3696Z" fill="white"/>
<g clip-path="url(#clip0_2013_11388)">
<path d="M85.6174 60.9238H78.5305C78.3198 60.9238 78.1475 61.0998 78.1475 61.3148V64.0579C78.1475 64.273 78.3198 64.4489 78.5305 64.4489H80.497V71.4795C80.497 71.6945 80.6694 71.8704 80.8801 71.8704H83.2743C83.485 71.8704 83.6573 71.6945 83.6573 71.4795V64.4489H85.6238C85.8345 64.4489 86.0069 64.273 86.0069 64.0579V61.3148C86.0005 61.0998 85.8281 60.9238 85.6174 60.9238Z" fill="white"/>
<path d="M68.8889 71.8704C68.6782 71.8704 68.5059 71.6945 68.5059 71.4795V61.3148C68.5059 61.0998 68.6782 60.9238 68.8889 60.9238H71.264C71.4747 60.9238 71.6471 61.0998 71.6471 61.3148V65.8693L74.1754 61.1323C74.2456 61.0085 74.3733 60.9303 74.5137 60.9303H76.8058C77.0165 60.9303 77.1889 61.1063 77.1889 61.3213V71.486C77.1889 71.701 77.0165 71.877 76.8058 71.877H74.4307C74.22 71.877 74.0477 71.701 74.0477 71.486V66.9054L71.5321 71.6619C71.4619 71.7857 71.3342 71.8639 71.1938 71.8639H68.8889V71.8704Z" fill="white"/>
<path d="M58.1124 60.9238H55.9417C55.782 60.9238 55.6416 61.0216 55.5841 61.1714L54.0646 65.1982L52.5706 61.1779C52.5132 61.0281 52.3727 60.9238 52.2131 60.9238H49.7806C49.5124 60.9238 49.3273 61.1975 49.423 61.4516L52.3088 69.1273C52.162 69.2511 51.9449 69.3162 51.664 69.3162C51.4789 69.3162 51.2809 69.2771 51.0766 69.1989C50.9681 69.1533 50.5467 68.9253 50.1636 68.7037C49.8891 68.5408 49.4933 68.7689 49.4933 69.0947V70.9647C49.4933 71.082 49.5443 71.1993 49.6401 71.2645C49.8827 71.4274 50.1764 71.5577 50.5276 71.6619C50.9681 71.7988 51.3959 71.8639 51.8172 71.8639C52.3599 71.8639 52.8515 71.7792 53.3048 71.6163C53.7645 71.4534 54.1731 71.1667 54.5371 70.7562C54.9137 70.3457 55.2394 69.7788 55.5203 69.0491L58.4699 61.4581C58.5657 61.204 58.3806 60.9238 58.1124 60.9238Z" fill="white"/>
<path d="M32.1588 71.8374C31.9098 71.8374 31.7119 71.6354 31.7119 71.3813V70.5733C31.7119 70.3192 31.9098 70.1172 32.1588 70.1172H38.288C38.537 70.1172 38.7349 70.3192 38.7349 70.5733V71.3813C38.7349 71.6354 38.537 71.8374 38.288 71.8374H32.1588Z" fill="white"/>
<path d="M32.2423 60.9238H26.177C25.9663 60.9238 25.7939 61.0998 25.7939 61.3148V71.5446C25.7939 71.7597 25.9663 71.9356 26.177 71.9356H27.9966C28.2073 71.9356 28.3797 71.7597 28.3797 71.5446V63.8038H32.2423C32.453 63.8038 32.6254 63.6279 32.6254 63.4129V61.3148C32.6254 61.0998 32.453 60.9238 32.2423 60.9238Z" fill="white"/>
<path d="M40.5423 71.8704C40.3316 71.8704 40.1592 71.6945 40.1592 71.4795V61.3148C40.1592 61.0998 40.3316 60.9238 40.5423 60.9238H42.8152C43.0258 60.9238 43.1982 61.0998 43.1982 61.3148C43.1982 61.7644 43.211 64.4619 43.211 64.9702L43.3515 67.9218V71.4795C43.3515 71.6945 43.1791 71.8704 42.9684 71.8704H40.5423Z" fill="white"/>
<path fill-rule="evenodd" clip-rule="evenodd" d="M43.4788 63.907V66.02H45.5231V63.907H43.4788ZM40.3516 62.8785C40.3516 61.7108 41.2819 60.7422 42.4579 60.7422H46.544C47.72 60.7422 48.6503 61.7108 48.6503 62.8785V67.0486C48.6503 68.2162 47.72 69.1849 46.544 69.1849H42.4579C41.2819 69.1849 40.3516 68.2162 40.3516 67.0486V62.8785Z" fill="white"/>
<path d="M17.187 71.9356C16.9699 71.9356 16.7975 71.7532 16.8039 71.5251L17.1997 61.3018C17.2061 61.0933 17.3785 60.9239 17.5828 60.9239H18.3234C18.6363 60.963 19.4152 60.761 19.4216 61.3018L19.8365 71.5251C19.8429 71.7467 19.6705 71.9356 19.4535 71.9356H17.187Z" fill="white"/>
<path fill-rule="evenodd" clip-rule="evenodd" d="M15.2581 63.907V66.0852H21.3885V63.907H15.2581ZM12.1309 62.8785C12.1309 61.7108 13.0612 60.7422 14.2372 60.7422H22.4094C23.5854 60.7422 24.5157 61.7108 24.5157 62.8785V67.1137C24.5157 68.2814 23.5854 69.25 22.4094 69.25H14.2372C13.0612 69.25 12.1309 68.2814 12.1309 67.1137V62.8785Z" fill="white"/>
<path fill-rule="evenodd" clip-rule="evenodd" d="M67.3376 71.4788L65.2626 61.4444C65.1988 61.1447 64.937 60.9297 64.6369 60.9297H61.1318C60.8317 60.9297 60.5764 61.1382 60.5125 61.4379L58.2588 71.4788C58.2141 71.6808 58.3673 71.8763 58.5716 71.8763H61.7703C61.9363 71.8763 62.0767 71.746 62.0895 71.5766L62.8237 62.4153L63.6282 71.57C63.641 71.7395 63.7814 71.8698 63.9474 71.8698H67.0312C67.2291 71.8698 67.3823 71.6808 67.3376 71.4788Z" fill="white"/>
<path d="M10.7899 65.4393C11.0006 65.4393 11.173 65.2634 11.173 65.0484V63.4715C11.173 63.2565 11.0006 63.0806 10.7899 63.0806H8.80431V61.3148C8.80431 61.0998 8.63192 60.9238 8.42123 60.9238H6.74209C6.5314 60.9238 6.35902 61.0998 6.35902 61.3148V63.0806H4.84588V61.3148C4.84588 61.0998 4.6735 60.9238 4.46281 60.9238H2.78367C2.57298 60.9238 2.40059 61.0998 2.40059 61.3148V63.0806H0.383074C0.172383 63.0806 0 63.2565 0 63.4715V65.0484C0 65.2634 0.172383 65.4393 0.383074 65.4393H2.40059V67.4071L0.383074 67.4201C0.172383 67.4201 0 67.596 0 67.8111V69.3879C0 69.6029 0.172383 69.7788 0.383074 69.7788L2.40059 69.7658V71.5446C2.40059 71.7597 2.57298 71.9356 2.78367 71.9356H4.46281C4.6735 71.9356 4.84588 71.7597 4.84588 71.5446V69.7528L6.35902 69.7463V71.5446C6.35902 71.7597 6.5314 71.9356 6.74209 71.9356H8.42123C8.63192 71.9356 8.80431 71.7597 8.80431 71.5446V69.7332L10.7899 69.7202C11.0006 69.7202 11.173 69.5443 11.173 69.3293V67.7524C11.173 67.5374 11.0006 67.3615 10.7899 67.3615L8.80431 67.3745V65.4393H10.7899ZM6.35902 67.3875L4.84588 67.3941V65.4393H6.35902V67.3875Z" fill="white"/>
</g>
<defs>
<clipPath id="clip0_2013_11388">
<rect width="86" height="11.0769" fill="white" transform="translate(0 60.9238)"/>
</clipPath>
</defs>
</svg>
