<svg width="86" height="72" viewBox="0 0 86 72" fill="none" xmlns="http://www.w3.org/2000/svg">
<g clip-path="url(#clip0_1968_24486)">
<path d="M35.8498 26.1686L35.8481 26.1698L35.8464 26.1711L33.6725 27.8076C33.3499 28.0504 33.1917 28.4426 33.2285 28.8316C33.2773 29.3486 33.2929 29.8644 33.2751 30.3763C33.2614 30.77 33.4453 31.1558 33.7869 31.3787L36.1349 32.9112C36.2214 32.9719 36.2524 33.069 36.2304 33.157L34.6722 37.2091C34.632 37.3031 34.5353 37.3501 34.461 37.3378L34.4568 37.3371L34.4526 37.3365L31.6561 36.9519C31.256 36.8968 30.8672 37.0632 30.6177 37.363C30.3161 37.7256 29.9924 38.0693 29.6468 38.3915C29.3584 38.6605 29.2137 39.063 29.2972 39.4625L29.8247 41.9875L29.8249 41.9882C29.844 42.079 29.8001 42.1713 29.7047 42.2172L25.7145 43.9884L25.7116 43.9897L25.7088 43.991C25.6235 44.031 25.5283 44.0051 25.4766 43.9348L25.4752 43.933L25.4739 43.9312L23.9384 41.9071C23.6907 41.5805 23.2898 41.4248 22.8961 41.4656C22.3912 41.5179 21.884 41.5342 21.3831 41.5173C20.988 41.504 20.6004 41.6874 20.3767 42.0291L18.877 44.3202C18.8768 44.3205 18.8765 44.3208 18.8764 44.3211C18.8269 44.3942 18.7243 44.43 18.6335 44.3948L18.6328 44.3946L18.6322 44.3943L14.555 42.8355C14.4607 42.7953 14.4137 42.6989 14.426 42.6249L14.4265 42.622L14.4269 42.619L14.819 39.9458C14.8792 39.5352 14.7037 39.1373 14.3933 38.8862C13.9791 38.5511 13.5879 38.1794 13.2198 37.7796C12.9508 37.4874 12.545 37.3426 12.1435 37.4263L9.5002 37.9767L9.49971 37.9768C9.40851 37.9959 9.3159 37.952 9.26987 37.8569L7.49368 33.878L7.49242 33.8752L7.49106 33.8723C7.45102 33.7874 7.47686 33.6926 7.54749 33.641L7.54907 33.6398L7.55059 33.6386L9.7647 31.9748C10.0856 31.7336 10.2435 31.3451 10.2115 30.9595C10.1726 30.4894 10.1637 30.017 10.1822 29.5504C10.1979 29.1542 10.0133 28.7655 9.66926 28.5417L7.44792 27.0966C7.37466 27.0472 7.33876 26.945 7.37402 26.8546L7.37428 26.8539L7.37453 26.8533L8.93785 22.7877C8.97811 22.6937 9.07475 22.6467 9.14913 22.659L9.15283 22.6596L9.15653 22.6602L11.7854 23.0301C12.1891 23.0869 12.5813 22.9181 12.8317 22.615C13.1527 22.2263 13.5046 21.8542 13.8814 21.5073C14.1739 21.2381 14.3208 20.8323 14.2361 20.4298L13.6475 17.6343L13.6475 17.6341C13.6284 17.5435 13.6721 17.4514 13.7671 17.4054L17.7564 15.6595L17.76 15.6579L17.7636 15.6563C17.8489 15.6162 17.944 15.6421 17.9958 15.7125L17.9971 15.7143L17.9984 15.716L19.7671 18.0498C20.009 18.3689 20.3979 18.5258 20.7839 18.494C21.2582 18.4549 21.7359 18.4461 22.2115 18.4649C22.6084 18.4806 22.9974 18.2964 23.2216 17.954L24.6956 15.7016C24.6958 15.7013 24.6959 15.701 24.6962 15.7007C24.7457 15.6276 24.8482 15.5917 24.9391 15.6269L24.9397 15.6272L24.9404 15.6274L29.0175 17.1863C29.1118 17.2265 29.1589 17.3228 29.1465 17.3969L29.1459 17.4007L29.1453 17.4044L28.7598 20.1381C28.7044 20.5313 28.8644 20.9156 29.1593 21.1652C29.4978 21.4517 29.822 21.7557 30.1296 22.0797C30.3994 22.3639 30.8007 22.5046 31.1978 22.4217L33.8972 21.8578L33.8975 21.8577C33.9888 21.8386 34.0815 21.8826 34.1275 21.9778L35.9038 25.9322L35.905 25.9347L35.9062 25.9373C35.9463 26.0221 35.9204 26.117 35.8498 26.1686ZM24.9811 37.2934C29.0259 35.5036 30.8461 30.7706 29.0518 26.738C27.2572 22.6919 22.5105 20.8763 18.466 22.6786C14.4212 24.4685 12.6012 29.2016 14.3956 33.2342C16.1905 37.2679 20.9371 39.0827 24.9811 37.2934Z" fill="#C9FF22" stroke="#414143"/>
<path d="M72.9926 23.2808L72.9921 23.2813L72.9916 23.2818L71.5425 24.6382C71.2161 24.944 71.1127 25.4062 71.2405 25.8181C71.505 26.6698 71.6617 27.5364 71.7069 28.4048C71.7292 28.8376 71.9865 29.24 72.4034 29.4147L74.3415 30.2274C74.4471 30.2753 74.4781 30.3713 74.4602 30.4355L74.4591 30.4402L74.458 30.4449L73.8197 33.0665L73.8186 33.071L73.8175 33.0754C73.7996 33.1609 73.712 33.2304 73.614 33.2259C73.6135 33.2259 73.6129 33.2259 73.6129 33.2259L71.6383 33.0998C71.1714 33.07 70.7503 33.3334 70.5435 33.731C70.1381 34.5105 69.6305 35.239 69.0281 35.9034C68.7289 36.2336 68.6293 36.7152 68.8165 37.1382L69.5298 38.7504V38.7507L69.5304 38.7511C69.5663 38.8319 69.5396 38.9426 69.4487 39.0064L67.1868 40.477L67.1835 40.479L67.1803 40.4811C67.1079 40.5309 66.9969 40.5202 66.9305 40.449V40.4487L66.93 40.4483L65.6888 39.1241C65.3776 38.7925 64.9053 38.6915 64.4885 38.8259C63.5635 39.124 62.6134 39.2919 61.6704 39.3255C61.2297 39.3412 60.8156 39.5989 60.6377 40.0218L59.8628 41.8598L59.8618 41.8635L59.8601 41.8673C59.8291 41.9467 59.7339 41.9988 59.6392 41.9739L59.6365 41.9732L59.6338 41.9725L57.0045 41.3358L57.0002 41.3348L56.9958 41.3338C56.9099 41.3158 56.8402 41.2286 56.8446 41.1312C56.8446 41.1308 56.8446 41.1303 56.8451 41.1298L56.9714 39.1932C57.0013 38.7316 56.7417 38.3139 56.3488 38.1054C55.6567 37.7384 54.9982 37.286 54.3933 36.7563C54.0713 36.4742 53.6104 36.3764 53.1978 36.5438L51.2002 37.3546L51.1958 37.3564L51.1915 37.3584C51.1086 37.3951 51.0074 37.3647 50.9575 37.28L50.9561 37.2776L50.9546 37.2752L49.5417 34.981C49.4882 34.8886 49.5071 34.7872 49.5811 34.7233L49.582 34.7225L49.583 34.7216L51.0602 33.423C51.4122 33.1135 51.5228 32.6273 51.3829 32.1991C51.0999 31.3328 50.9338 30.4463 50.88 29.5617C50.8533 29.1223 50.5838 28.718 50.1566 28.5517L48.3339 27.8421C48.2249 27.7949 48.1816 27.6965 48.2006 27.6061C48.2006 27.606 48.2007 27.6059 48.2007 27.6057L48.7638 24.9724L48.764 24.9721L48.764 24.9717C48.7863 24.8662 48.8778 24.8047 48.9562 24.8088L48.9589 24.8089L48.9615 24.809L50.928 24.8773C51.3851 24.8932 51.7925 24.6294 51.9916 24.2375C52.39 23.4531 52.8879 22.7125 53.4853 22.0419C53.7717 21.7204 53.8728 21.2576 53.7037 20.8429L52.8421 18.7306L52.8403 18.7262L52.8384 18.7218C52.8016 18.6393 52.832 18.5385 52.917 18.4887L52.9194 18.4872L52.9218 18.4857L55.2224 17.0769C55.3152 17.0235 55.417 17.0424 55.4811 17.1161L55.4819 17.1171L55.4828 17.1181L56.8865 18.7052C57.1961 19.0552 57.6814 19.1653 58.1097 19.0286C58.8965 18.7775 59.7034 18.6249 60.5142 18.5668C60.9522 18.5355 61.3527 18.2653 61.5165 17.8408L62.2565 15.9218C62.3038 15.8137 62.4023 15.7706 62.4932 15.7895C62.4932 15.7895 62.4932 15.7895 62.4937 15.7895L65.1344 16.3511L65.1349 16.3512V16.3513C65.241 16.3735 65.3025 16.4648 65.2987 16.5429L65.2981 16.5456V16.5483L65.2296 18.5367C65.2138 18.9996 65.4864 19.4099 65.8874 19.6055C66.7618 20.0318 67.5748 20.5799 68.3066 21.2454C68.6385 21.5473 69.125 21.6482 69.5521 21.459L71.2901 20.6888C71.3711 20.6529 71.4821 20.6797 71.5458 20.77L73.0209 23.0259L73.0226 23.0289L73.0247 23.032C73.0748 23.1043 73.0639 23.2147 72.9926 23.2808ZM65.0016 35.0275V35.0274C68.373 32.9816 69.4319 28.6032 67.38 25.2542C65.3286 21.8925 60.938 20.837 57.5797 22.8825C54.2083 24.9284 53.1497 29.3069 55.2015 32.6559C57.2532 36.0051 61.6432 37.0601 65.0016 35.0275Z" fill="#E83D46" stroke="#414143"/>
<path d="M49.2488 10.6468L49.2544 10.648L49.2601 10.6489C49.3341 10.6612 49.4146 10.7444 49.4232 10.8391V13.9373C49.4232 14.0352 49.3572 14.1133 49.2694 14.1328L49.2689 14.1329L49.2683 14.133L47.3426 14.5676C46.956 14.6549 46.6567 14.9379 46.5225 15.293C46.4662 15.4422 46.4062 15.5886 46.3416 15.7326C46.1838 16.0844 46.1927 16.5065 46.4146 16.8479L47.4683 18.469L47.4705 18.4724L47.4728 18.4758C47.5227 18.5482 47.5136 18.6515 47.4452 18.7197L45.1918 20.9668C45.1216 21.0367 45.0237 21.0465 44.9485 20.9997L44.9479 20.9993L44.9474 20.9989L43.2314 19.9397C42.9002 19.7352 42.4963 19.7244 42.1547 19.8726C42.0488 19.9186 41.9415 19.9627 41.8332 20.005C41.4803 20.143 41.2031 20.4444 41.1204 20.8279L40.679 22.8753L40.6789 22.876L40.6788 22.8766C40.6574 22.9777 40.5777 23.0391 40.4834 23.0391H37.2785C37.1801 23.0391 37.1018 22.9732 37.0824 22.8858L37.082 22.8843L37.0816 22.8827L36.6136 20.8838C36.5217 20.4916 36.2277 20.194 35.8685 20.0616C35.7163 20.0054 35.5656 19.9443 35.417 19.879C35.0682 19.7259 34.6548 19.7409 34.321 19.9562L32.6216 21.0521L32.6181 21.0544L32.6146 21.0567C32.5419 21.1066 32.4382 21.0974 32.3698 21.0292L30.1163 18.7821C30.0462 18.7122 30.0364 18.6146 30.0833 18.5397L31.1411 16.8521C31.3594 16.5038 31.358 16.0791 31.1973 15.7291C31.1384 15.6009 31.0832 15.4698 31.031 15.3365C30.8923 14.9827 30.5885 14.7048 30.2013 14.6236L28.2763 14.2195C28.1748 14.1982 28.1133 14.1186 28.1133 14.0247V10.9162C28.1133 10.8183 28.1792 10.7402 28.2671 10.7207L28.268 10.7205L28.2691 10.7203L30.0903 10.3035C30.4894 10.2122 30.7931 9.9129 30.9205 9.54363C30.9877 9.34912 31.0611 9.1603 31.1415 8.97632C31.2938 8.62745 31.2827 8.21178 31.0644 7.87475L30.0184 6.26008L30.016 6.2565L30.0136 6.25297C29.9636 6.18052 29.9728 6.07719 30.0412 6.00902L32.2946 3.76192C32.3648 3.69196 32.4627 3.68219 32.5379 3.72908L32.5382 3.7293L32.5386 3.72952L34.1571 4.73199C34.4958 4.94175 34.9097 4.94804 35.2556 4.7912C35.4531 4.7017 35.6546 4.6198 35.8594 4.54464C36.2215 4.41183 36.5092 4.10866 36.5955 3.71801L36.9822 1.96772L36.9823 1.9675C37.0018 1.88018 37.0801 1.81445 37.1783 1.81445H40.3832C40.4815 1.81445 40.5598 1.88029 40.5793 1.96772L40.5798 1.96984L40.5803 1.97195L41.0126 3.78645C41.1032 4.16695 41.3848 4.45975 41.7345 4.59402C41.8894 4.65351 42.0422 4.71728 42.1932 4.78479C42.5428 4.94115 42.9572 4.92509 43.2908 4.70973L44.8524 3.70157L44.8559 3.69929L44.8593 3.69695C44.932 3.64708 45.0357 3.65625 45.1042 3.72447L47.3575 5.97157C47.4277 6.04147 47.4374 6.13906 47.3905 6.2139L46.3842 7.81944C46.1746 8.15387 46.1645 8.56455 46.3228 8.90946C46.4142 9.10864 46.4978 9.30955 46.5719 9.51324C46.707 9.88463 47.0192 10.1876 47.4292 10.2721L49.2488 10.6468ZM37.3862 18.1605C40.6264 18.9091 43.8672 16.8997 44.6182 13.6676C45.3691 10.4364 43.3539 7.20475 40.1127 6.45585C36.8725 5.70721 33.6317 7.7166 32.8807 10.9487C32.1299 14.1799 34.1451 17.4116 37.3862 18.1605Z" fill="#812D9C" stroke="#414143"/>
<path d="M46.0335 33.185L46.037 33.1866L46.0405 33.1881L48.0018 33.9978C48.0999 34.0428 48.1472 34.1412 48.1285 34.2344L47.7633 35.8218C47.6613 36.265 47.8429 36.7091 48.1805 36.9814C48.6422 37.3538 49.056 37.7704 49.419 38.2226C49.6942 38.5652 50.1468 38.7485 50.5964 38.641L52.1914 38.2596C52.2847 38.2416 52.3828 38.2888 52.4277 38.3862L53.2382 40.3384C53.2768 40.4404 53.2368 40.5396 53.1642 40.5822L53.1605 40.5843L53.157 40.5865L51.7404 41.4718C51.3556 41.7122 51.1687 42.1519 51.213 42.5814C51.2961 43.3873 51.2619 44.2106 51.0987 45.0279C51.0055 45.4945 51.191 45.9967 51.6196 46.2576L52.793 46.9717C52.8907 47.0364 52.9145 47.1439 52.8797 47.2223L52.8781 47.2257L52.8766 47.2293L52.0647 49.1848C52.0197 49.2824 51.9211 49.3297 51.8277 49.3112L50.0078 48.8873C49.6014 48.7929 49.1904 48.9356 48.9123 49.2184C48.6507 49.4849 48.371 49.7318 48.0783 49.9592C47.726 50.2333 47.5398 50.6914 47.651 51.144L47.9786 52.4769C47.9964 52.5697 47.9491 52.6674 47.8515 52.7119L45.8939 53.52C45.7914 53.5586 45.692 53.519 45.6492 53.4462L45.6473 53.4435L45.6454 53.4403L44.8809 52.2148C44.6414 51.8311 44.2019 51.6433 43.7717 51.6851C43.2137 51.7399 42.6455 51.7383 42.0784 51.6786C41.6415 51.633 41.1937 51.8246 40.954 52.217L40.1932 53.4636C40.1283 53.5608 40.0204 53.5846 39.9418 53.5499L39.9383 53.5483L39.9348 53.5466L37.9736 52.7369C37.8746 52.6919 37.8274 52.592 37.8472 52.4986V52.4981L38.1491 51.0664C38.242 50.6252 38.0567 50.1883 37.7197 49.9212C37.2096 49.5174 36.7524 49.0567 36.3579 48.5525C36.0835 48.2019 35.6249 48.0125 35.1689 48.1221L33.596 48.5004C33.5027 48.5183 33.4046 48.4711 33.3598 48.3734L32.5493 46.4214C32.5107 46.3194 32.5507 46.2202 32.6233 46.1777L32.6266 46.1757L32.6299 46.1737L34.1063 45.2559C34.4841 45.0211 34.6735 44.5929 34.6382 44.1699C34.6153 43.8956 34.6049 43.6182 34.6071 43.3414C34.6102 42.9437 34.4158 42.5553 34.0605 42.3395L32.3059 41.2736C32.2083 41.2089 32.1844 41.1014 32.2193 41.0231L32.2208 41.0196L32.2223 41.0161L33.0343 39.0604C33.0794 38.9626 33.1781 38.9154 33.2716 38.934L34.7928 39.284C35.2765 39.3953 35.7565 39.172 36.0193 38.7815C36.4536 38.1365 36.9707 37.5691 37.5488 37.0829C37.8781 36.806 38.0495 36.3632 37.943 35.9257L37.546 34.2954C37.5281 34.2026 37.5754 34.1049 37.673 34.0602L39.6308 33.2519C39.7332 33.2135 39.8327 33.2534 39.8753 33.3258L39.8773 33.3291L39.8793 33.3323L40.7205 34.6781C40.9677 35.0736 41.4258 35.2598 41.8674 35.2019C42.5078 35.1178 43.163 35.1066 43.8168 35.1773C44.2554 35.2248 44.7071 35.0341 44.9485 34.6384L45.7821 33.2714C45.847 33.1741 45.9549 33.1502 46.0335 33.185ZM40.4816 49.3541L40.4822 49.3546C43.7515 50.7033 47.5192 49.1587 48.8848 45.8856C50.2509 42.6242 48.7005 38.8792 45.4186 37.5178C42.1363 36.1562 38.3806 37.7013 37.0151 40.9744C35.6497 44.2477 37.1993 47.9929 40.4816 49.3541Z" fill="#39B52C" stroke="#414143"/>
<path d="M82.2348 43.4871L81.6379 43.2075C81.3659 43.0799 81.1907 42.8125 81.1515 42.5148C81.1324 42.3701 81.1085 42.2265 81.0786 42.0841C81.0171 41.7917 81.0889 41.4819 81.2989 41.269L81.7718 40.7906C81.9345 40.6283 81.9595 40.3661 81.8469 40.1789L80.9202 38.7058C80.7951 38.5061 80.5448 38.4187 80.3195 38.5061L79.7242 38.7225C79.4364 38.8272 79.1165 38.7588 78.8754 38.5703C78.7459 38.469 78.6115 38.3722 78.4738 38.2795C78.2339 38.1185 78.0783 37.8545 78.0783 37.566V36.7958C78.0783 36.5586 77.9156 36.3589 77.6903 36.3089L75.9877 35.9219C75.7625 35.872 75.5247 35.9843 75.4246 36.1965L75.1258 36.8279C74.9941 37.1066 74.7156 37.282 74.4087 37.3179C74.2253 37.3392 74.0452 37.3696 73.8667 37.4086C73.574 37.4727 73.2633 37.4016 73.0494 37.1918L72.6201 36.7708C72.4574 36.6085 72.1946 36.5836 72.0069 36.6959L70.5296 37.6197C70.3293 37.7446 70.2417 37.9942 70.3293 38.219L70.522 38.7496C70.6264 39.0369 70.5573 39.3555 70.3674 39.5955C70.2613 39.7302 70.1601 39.8698 70.0654 40.0133C69.9011 40.2626 69.6296 40.4285 69.3303 40.4285H68.7019C68.4641 40.4285 68.2633 40.5908 68.2132 40.8156L67.8253 42.5133C67.7752 42.7381 67.8878 42.9752 68.1006 43.0751L68.6061 43.3106C68.8869 43.4417 69.0642 43.7209 69.1002 44.0283C69.1252 44.2421 69.1627 44.4541 69.2106 44.662C69.2786 44.956 69.2074 45.2694 68.9951 45.4845L68.5892 45.8965C68.4265 46.0587 68.401 46.3209 68.5141 46.5082L69.4402 47.981C69.5654 48.1812 69.8157 48.2686 70.041 48.1812L70.6096 47.9804C70.892 47.881 71.2038 47.9473 71.4405 48.1302C71.5972 48.2518 71.7609 48.3658 71.9302 48.4716C72.1924 48.6349 72.3698 48.9128 72.3698 49.2211V49.8414C72.3698 50.0786 72.5325 50.2783 72.7578 50.3283L74.4604 50.7152C74.6856 50.7652 74.9234 50.6528 75.0241 50.4406L75.3163 49.8208C75.4447 49.5489 75.7129 49.3747 76.0111 49.3334C76.1657 49.3123 76.3186 49.2851 76.4693 49.2526C76.762 49.1885 77.0722 49.2602 77.2855 49.4697L77.7529 49.9288C77.9156 50.0911 78.1784 50.116 78.3666 50.0037L79.8434 49.08C80.0442 48.9552 80.1318 48.7055 80.0442 48.4808L79.8195 47.8517C79.7188 47.57 79.7841 47.2585 79.9675 47.0216C80.0834 46.8711 80.1938 46.7143 80.2978 46.5518C80.4594 46.2998 80.7314 46.1336 81.0312 46.1336H81.6592C81.8969 46.1336 82.0972 45.9714 82.1472 45.7466L82.5352 44.0489C82.5602 43.8241 82.4476 43.5869 82.2348 43.4871ZM74.1225 47.6691C73.0331 47.4195 72.132 46.7953 71.5183 45.9589L71.1678 45.3971C70.7048 44.5107 70.5296 43.4746 70.7423 42.4259L70.7924 42.2262C71.0552 41.1901 71.6684 40.3412 72.4699 39.7419L73.0581 39.3799C73.9723 38.9056 75.0491 38.7432 76.1379 38.9929C78.5419 39.5547 80.0442 41.9391 79.4805 44.3484C78.9173 46.7578 76.5259 48.2312 74.1225 47.6691Z" fill="#ECA73E"/>
<path fill-rule="evenodd" clip-rule="evenodd" d="M82.1472 45.7466L82.5352 44.0489C82.5602 43.8241 82.4476 43.5869 82.2348 43.4871L81.6379 43.2075C81.3659 43.0799 81.1907 42.8125 81.1515 42.5148C81.1324 42.3701 81.1085 42.2265 81.0786 42.0841C81.0171 41.7917 81.0889 41.4819 81.2989 41.269L81.7718 40.7906C81.9345 40.6283 81.9595 40.3661 81.8469 40.1789L80.9202 38.7058C80.7951 38.5061 80.5448 38.4187 80.3195 38.5061L79.7242 38.7225C79.4364 38.8272 79.1165 38.7588 78.8754 38.5703C78.7459 38.469 78.6115 38.3722 78.4738 38.2795C78.2339 38.1185 78.0783 37.8545 78.0783 37.566V36.7958C78.0783 36.5586 77.9156 36.3589 77.6903 36.3089L75.9877 35.9219C75.7625 35.872 75.5247 35.9843 75.4246 36.1965L75.1258 36.8279C74.9941 37.1066 74.7156 37.282 74.4087 37.3179C74.2253 37.3392 74.0452 37.3696 73.8667 37.4086C73.574 37.4727 73.2633 37.4016 73.0494 37.1918L72.6201 36.7708C72.4574 36.6085 72.1946 36.5836 72.0069 36.6959L70.5296 37.6197C70.3293 37.7446 70.2417 37.9942 70.3293 38.219L70.522 38.7496C70.6264 39.0369 70.5573 39.3555 70.3674 39.5955C70.2613 39.7302 70.1601 39.8698 70.0654 40.0133C69.9011 40.2626 69.6296 40.4285 69.3303 40.4285H68.7019C68.4641 40.4285 68.2633 40.5908 68.2132 40.8156L67.8253 42.5133C67.7752 42.7381 67.8878 42.9752 68.1006 43.0751L68.6061 43.3106C68.8869 43.4417 69.0642 43.7209 69.1002 44.0283C69.1252 44.2421 69.1627 44.4541 69.2106 44.662C69.2786 44.956 69.2074 45.2694 68.9951 45.4845L68.5892 45.8965C68.4265 46.0587 68.401 46.3209 68.5141 46.5082L69.4402 47.981C69.5654 48.1812 69.8157 48.2686 70.041 48.1812L70.6096 47.9804C70.892 47.881 71.2038 47.9473 71.4405 48.1302C71.5972 48.2518 71.7609 48.3658 71.9302 48.4716C72.1924 48.6349 72.3698 48.9128 72.3698 49.2211V49.8414C72.3698 50.0786 72.5325 50.2783 72.7578 50.3283L74.4604 50.7152C74.6856 50.7652 74.9234 50.6528 75.0241 50.4406L75.3163 49.8208C75.4447 49.5489 75.7129 49.3747 76.0111 49.3334C76.1657 49.3123 76.3186 49.2851 76.4693 49.2526C76.762 49.1885 77.0722 49.2602 77.2855 49.4697L77.7529 49.9288C77.9156 50.0911 78.1784 50.116 78.3666 50.0037L79.8434 49.08C80.0442 48.9552 80.1318 48.7055 80.0442 48.4808L79.8195 47.8517C79.7188 47.57 79.7841 47.2585 79.9675 47.0216C80.0834 46.8711 80.1938 46.7143 80.2978 46.5518C80.4594 46.2998 80.7314 46.1336 81.0312 46.1336H81.6592C81.8969 46.1336 82.0972 45.9714 82.1472 45.7466ZM78.1212 49.4523L79.4571 48.617L79.2552 48.0521C79.0784 47.5563 79.2013 47.0347 79.493 46.6573C79.5986 46.5208 79.6987 46.3782 79.7933 46.2304C80.0518 45.8274 80.504 45.5366 81.0312 45.5366H81.5814L81.9312 44.0045L81.3838 43.7478C80.9034 43.5229 80.6199 43.0654 80.5578 42.5922C80.541 42.4619 80.5192 42.3332 80.4926 42.2063C80.3968 41.7477 80.5018 41.2255 80.8729 40.8501L81.2941 40.4235L80.4566 39.0917L79.9294 39.2833C79.4223 39.4677 78.8885 39.339 78.5059 39.0401C78.389 38.9484 78.266 38.8599 78.1397 38.7749C77.7512 38.5144 77.4797 38.073 77.4797 37.566V36.8734L75.9322 36.5217L75.6672 37.0824C75.4349 37.5744 74.9588 37.8547 74.4778 37.9108C74.3151 37.9298 74.1546 37.9569 73.9951 37.9918C73.5321 38.093 73.0064 37.9874 72.6294 37.6174L72.2523 37.2471L70.9165 38.0825L71.0846 38.5461C71.2685 39.0523 71.1385 39.5847 70.8376 39.9651C70.7418 40.0865 70.6504 40.2123 70.5655 40.3413C70.3059 40.7351 69.8576 41.0255 69.3303 41.0255H68.7791L68.4265 42.5681L68.8591 42.7698C69.3548 43.0009 69.6383 43.4772 69.6949 43.9591C69.7172 44.1502 69.7504 44.3406 69.7939 44.528C69.9017 44.9942 69.7956 45.5243 69.4217 45.9032L69.0664 46.2635L69.9044 47.596L70.4099 47.4177C70.9072 47.2423 71.4296 47.3666 71.8072 47.6583C71.9487 47.7681 72.0961 47.8708 72.2474 47.9652C72.6577 48.2208 72.9684 48.6773 72.9684 49.2211V49.7638L74.5159 50.1155L74.7749 49.5663C75.0007 49.0876 75.4594 48.8064 75.93 48.7424C76.0688 48.7234 76.2059 48.699 76.3414 48.6691C76.8045 48.5682 77.3295 48.6751 77.7055 49.0442L78.1212 49.4523ZM70.7924 42.2262C71.0552 41.1901 71.6684 40.3412 72.4699 39.7419L73.0581 39.3799C73.9723 38.9056 75.0491 38.7432 76.1379 38.9929C78.5419 39.5547 80.0442 41.9391 79.4805 44.3484C78.9173 46.7578 76.5259 48.2312 74.1225 47.6691C73.0331 47.4195 72.132 46.7953 71.5183 45.9589L71.1678 45.3971C70.7048 44.5107 70.5296 43.4746 70.7423 42.4259L70.7924 42.2262ZM73.987 48.2507C76.712 48.8868 79.425 47.215 80.0638 44.4841C80.7026 41.7512 78.9973 39.048 76.2745 38.4117L76.2734 38.4114L76.2723 38.4111C75.0404 38.1287 73.8183 38.3123 72.7823 38.8504L72.7627 38.8604L72.1326 39.2481L72.1108 39.2643C71.2092 39.9386 70.5111 40.9005 70.2124 42.0797L70.2118 42.0806L70.1585 42.2942L70.1558 42.3075C69.9142 43.4967 70.1139 44.6716 70.6373 45.673L70.6477 45.6932L71.022 46.2933L71.0356 46.3113C71.7305 47.259 72.7534 47.9674 73.987 48.2507Z" fill="#414143"/>
</g>
<g clip-path="url(#clip1_1968_24486)">
<path d="M83.6352 58H76.878C76.6771 58 76.5127 58.1747 76.5127 58.3882V61.1124C76.5127 61.3259 76.6771 61.5006 76.878 61.5006H78.7529V68.4824C78.7529 68.6959 78.9173 68.8706 79.1182 68.8706H81.401C81.6019 68.8706 81.7663 68.6959 81.7663 68.4824V61.5006H83.6413C83.8422 61.5006 84.0065 61.3259 84.0065 61.1124V58.3882C84.0004 58.1747 83.8361 58 83.6352 58Z" fill="#414143"/>
<path d="M67.6856 68.8706C67.4847 68.8706 67.3203 68.6959 67.3203 68.4824V58.3882C67.3203 58.1747 67.4847 58 67.6856 58H69.9502C70.151 58 70.3154 58.1747 70.3154 58.3882V62.9112L72.7261 58.2071C72.7931 58.0841 72.9148 58.0065 73.0487 58.0065H75.2342C75.4351 58.0065 75.5995 58.1812 75.5995 58.3947V68.4888C75.5995 68.7024 75.4351 68.8771 75.2342 68.8771H72.9696C72.7687 68.8771 72.6044 68.7024 72.6044 68.4888V63.94L70.2058 68.6635C70.1389 68.7865 70.0171 68.8641 69.8832 68.8641H67.6856V68.8706Z" fill="#414143"/>
<path d="M57.4092 58H55.3394C55.1872 58 55.0533 58.0971 54.9985 58.2459L53.5497 62.2447L52.1252 58.2524C52.0704 58.1035 51.9365 58 51.7843 58H49.4649C49.2092 58 49.0327 58.2718 49.124 58.5241L51.8756 66.1465C51.7356 66.2694 51.5286 66.3341 51.2607 66.3341C51.0842 66.3341 50.8955 66.2953 50.7007 66.2176C50.5972 66.1724 50.1954 65.9459 49.8302 65.7259C49.5684 65.5641 49.191 65.7906 49.191 66.1141V67.9712C49.191 68.0876 49.2397 68.2041 49.331 68.2688C49.5623 68.4306 49.8423 68.56 50.1771 68.6635C50.5972 68.7994 51.0051 68.8641 51.4068 68.8641C51.9243 68.8641 52.393 68.78 52.8253 68.6182C53.2636 68.4565 53.6532 68.1718 54.0002 67.7641C54.3593 67.3565 54.6698 66.7935 54.9376 66.0688L57.7501 58.5306C57.8414 58.2782 57.6649 58 57.4092 58Z" fill="#414143"/>
<path d="M32.6634 68.8391C32.426 68.8391 32.2373 68.6385 32.2373 68.3862V67.5838C32.2373 67.3314 32.426 67.1309 32.6634 67.1309H38.5075C38.745 67.1309 38.9337 67.3314 38.9337 67.5838V68.3862C38.9337 68.6385 38.745 68.8391 38.5075 68.8391H32.6634Z" fill="#414143"/>
<path d="M32.7422 58H26.959C26.7581 58 26.5938 58.1747 26.5938 58.3882V68.5471C26.5938 68.7606 26.7581 68.9353 26.959 68.9353H28.694C28.8949 68.9353 29.0592 68.7606 29.0592 68.5471V60.86H32.7422C32.9431 60.86 33.1075 60.6853 33.1075 60.4718V58.3882C33.1075 58.1747 32.9431 58 32.7422 58Z" fill="#414143"/>
<path d="M40.6563 68.8706C40.4554 68.8706 40.291 68.6959 40.291 68.4824V58.3882C40.291 58.1747 40.4554 58 40.6563 58H42.8235C43.0243 58 43.1887 58.1747 43.1887 58.3882C43.1887 58.8347 43.2009 61.5135 43.2009 62.0182L43.3348 64.9494V68.4824C43.3348 68.6959 43.1705 68.8706 42.9696 68.8706H40.6563Z" fill="#414143"/>
<path d="M42.4823 59.3906H46.3784C46.6645 59.3906 46.8958 59.6365 46.8958 59.9406V64.0818C46.8958 64.3859 46.6645 64.6318 46.3784 64.6318H42.4823C42.1962 64.6318 41.9648 64.3859 41.9648 64.0818V59.9406C41.9648 59.6365 42.1962 59.3906 42.4823 59.3906Z" stroke="#414143" stroke-width="4"/>
<path d="M18.3879 68.9353C18.1809 68.9353 18.0165 68.7541 18.0226 68.5277L18.4001 58.3753C18.4061 58.1682 18.5705 58 18.7653 58H19.4715C19.7698 58.0388 20.5125 57.8382 20.5185 58.3753L20.9142 68.5277C20.9203 68.7477 20.756 68.9353 20.549 68.9353H18.3879Z" fill="#414143"/>
<path d="M15.5751 59.3906H23.3672C23.6533 59.3906 23.8846 59.6365 23.8846 59.9406V64.1465C23.8846 64.4506 23.6533 64.6965 23.3672 64.6965H15.5751C15.2889 64.6965 15.0576 64.4506 15.0576 64.1465V59.9406C15.0576 59.6365 15.2889 59.3906 15.5751 59.3906Z" stroke="#414143" stroke-width="4"/>
<path fill-rule="evenodd" clip-rule="evenodd" d="M66.206 68.4817L64.2275 58.517C64.1666 58.2194 63.9171 58.0059 63.6309 58.0059H60.2888C60.0027 58.0059 59.7592 58.2129 59.6983 58.5106L57.5494 68.4817C57.5068 68.6823 57.6529 68.8764 57.8477 68.8764H60.8976C61.0559 68.8764 61.1898 68.747 61.202 68.5788L61.9021 59.4812L62.6691 68.5723C62.6813 68.7406 62.8152 68.87 62.9735 68.87H65.9138C66.1025 68.87 66.2486 68.6823 66.206 68.4817Z" fill="#414143"/>
<path d="M12.288 62.4841C12.4889 62.4841 12.6533 62.3094 12.6533 62.0959V60.53C12.6533 60.3165 12.4889 60.1418 12.288 60.1418H10.3948V58.3882C10.3948 58.1747 10.2304 58 10.0295 58H8.42851C8.22762 58 8.06325 58.1747 8.06325 58.3882V60.1418H6.62049V58.3882C6.62049 58.1747 6.45612 58 6.25523 58H4.65419C4.4533 58 4.28894 58.1747 4.28894 58.3882V60.1418H2.36526C2.16437 60.1418 2 60.3165 2 60.53V62.0959C2 62.3094 2.16437 62.4841 2.36526 62.4841H4.28894V64.4382L2.36526 64.4512C2.16437 64.4512 2 64.6259 2 64.8394V66.4053C2 66.6188 2.16437 66.7935 2.36526 66.7935L4.28894 66.7806V68.5471C4.28894 68.7606 4.4533 68.9353 4.65419 68.9353H6.25523C6.45612 68.9353 6.62049 68.7606 6.62049 68.5471V66.7676L8.06325 66.7612V68.5471C8.06325 68.7606 8.22762 68.9353 8.42851 68.9353H10.0295C10.2304 68.9353 10.3948 68.7606 10.3948 68.5471V66.7482L12.288 66.7353C12.4889 66.7353 12.6533 66.5606 12.6533 66.3471V64.7812C12.6533 64.5676 12.4889 64.3929 12.288 64.3929L10.3948 64.4059V62.4841H12.288ZM8.06325 64.4188L6.62049 64.4253V62.4841H8.06325V64.4188Z" fill="#414143"/>
</g>
<defs>
<clipPath id="clip0_1968_24486">
<rect width="82" height="53" fill="white" transform="translate(2 1)"/>
</clipPath>
<clipPath id="clip1_1968_24486">
<rect width="82" height="11" fill="white" transform="translate(2 58)"/>
</clipPath>
</defs>
</svg>
