<svg width="1018" height="515" viewBox="0 0 1018 515" fill="none" xmlns="http://www.w3.org/2000/svg">
<path d="M350.296 260.833H389.389V310.676H350.296V356.135H283.513V310.676H127.468V263.268L264.944 112.602H350.296V260.833ZM283.513 164.718L196.206 260.833H283.513V164.718Z" fill="#414143"/>
<path d="M542.613 247.462C531.7 246.153 535.192 253.135 520.35 247.462C517.034 246.194 506.813 234.805 501.579 238.733C496.345 242.661 499.186 234.853 499.396 231.313C499.833 223.967 489.64 218.28 483.681 217.784C473.204 216.912 475.387 249.731 475.387 251.826C475.387 254.445 499.396 291.542 500.706 291.979C502.016 292.415 545.233 321.22 546.542 322.53C547.59 323.577 587.722 328.494 607.657 330.822L649.128 285.432C644.326 288.196 633.675 293.637 629.484 293.288C624.246 292.852 649.127 284.559 639.087 275.394C634.632 271.327 619.007 270.593 605.911 267.102C592.815 263.61 573.171 263.174 567.496 260.555C561.821 257.936 553.526 248.771 542.613 247.462Z" fill="white"/>
<path d="M706.045 196.748L706.029 196.759L706.013 196.772L684.914 212.795C681.783 215.173 680.248 219.013 680.605 222.821C681.079 227.883 681.23 232.934 681.057 237.946C680.925 241.801 682.71 245.578 686.024 247.761L708.812 262.766C709.652 263.36 709.953 264.311 709.739 265.173L694.617 304.848C694.226 305.768 693.288 306.229 692.566 306.108L692.526 306.101L692.486 306.095L665.345 302.329C661.462 301.79 657.688 303.419 655.267 306.355C652.339 309.905 649.198 313.27 645.845 316.425C643.045 319.059 641.641 323 642.451 326.912L647.571 351.634L647.572 351.641C647.758 352.53 647.332 353.434 646.406 353.883L607.68 371.225L607.652 371.238L607.625 371.251C606.797 371.642 605.874 371.39 605.371 370.7L605.358 370.683L605.346 370.665L590.443 350.847C588.039 347.649 584.148 346.125 580.327 346.524C575.427 347.036 570.505 347.196 565.643 347.03C561.809 346.9 558.047 348.696 555.876 352.042L541.321 374.474C541.319 374.477 541.317 374.48 541.315 374.483C540.835 375.199 539.839 375.55 538.958 375.205L538.951 375.203L538.945 375.2L499.376 359.937C498.46 359.544 498.004 358.6 498.124 357.875L498.128 357.846L498.132 357.817L501.937 331.643C502.522 327.623 500.819 323.728 497.806 321.268C493.786 317.988 489.989 314.348 486.417 310.434C483.806 307.573 479.868 306.155 475.971 306.974L450.317 312.364L450.313 312.365C449.428 312.552 448.529 312.122 448.082 311.191L430.844 272.233L430.832 272.204L430.818 272.177C430.43 271.345 430.681 270.417 431.366 269.911L431.381 269.9L431.396 269.889L452.884 253.597C455.999 251.236 457.531 247.432 457.221 243.656C456.844 239.053 456.756 234.428 456.936 229.86C457.089 225.98 455.297 222.174 451.958 219.983L430.4 205.834C429.689 205.351 429.34 204.35 429.682 203.465L429.685 203.458L429.687 203.451L444.86 163.644C445.25 162.724 446.188 162.263 446.91 162.385L446.946 162.39L446.982 162.396L472.495 166.018C476.413 166.574 480.22 164.921 482.65 161.954C485.766 158.148 489.181 154.504 492.838 151.108C495.677 148.472 497.102 144.499 496.28 140.558L490.568 113.186L490.568 113.185C490.382 112.297 490.806 111.395 491.728 110.945L530.446 93.8504L530.48 93.835L530.515 93.819C531.343 93.4269 532.266 93.6803 532.769 94.3696L532.781 94.3866L532.794 94.4036L549.96 117.254C552.307 120.379 556.081 121.915 559.828 121.604C564.432 121.221 569.068 121.134 573.683 121.319C577.535 121.472 581.311 119.669 583.486 116.316L597.791 94.2628C597.793 94.2596 597.795 94.2564 597.797 94.2537C598.278 93.5385 599.273 93.1867 600.154 93.5316L600.161 93.5342L600.167 93.5363L639.736 108.8C640.652 109.193 641.109 110.137 640.988 110.862L640.982 110.899L640.977 110.935L637.236 137.702C636.698 141.551 638.251 145.315 641.112 147.758C644.398 150.563 647.544 153.539 650.53 156.712C653.148 159.495 657.043 160.873 660.897 160.061L687.095 154.54L687.098 154.539C687.984 154.351 688.884 154.782 689.33 155.714L706.57 194.433L706.581 194.458L706.592 194.482C706.982 195.314 706.73 196.242 706.045 196.748ZM600.562 305.673C639.819 288.149 657.484 241.807 640.07 202.323C622.653 162.707 576.585 144.93 537.332 162.576C498.077 180.101 480.413 226.444 497.828 265.929C515.248 305.423 561.314 323.193 600.562 305.673Z" fill="#C9FF22" stroke="#414143" stroke-width="2"/>
<path d="M890.531 112.602V173.485V234.369V356.135H823.828V135.981L855.065 164.88L749.967 183.389V131.435L841.073 112.602H890.531Z" fill="#414143"/>
<path fill-rule="evenodd" clip-rule="evenodd" d="M332.633 14.2846C329.536 15.1588 319.87 14.6929 311.026 13.0052C302.182 11.3176 294.634 10.8385 293.813 12.0602C293.198 13.3135 289.939 12.479 286.416 10.5938C283.152 8.41104 279.272 7.48189 277.88 8.27972C276.438 9.40669 272.614 9.49626 269.148 8.63004C265.939 7.46628 259.739 7.86636 255.507 9.24088C250.241 10.4574 247.345 10.0152 245.835 7.42693C244.326 4.83867 242.257 4.52266 238.546 6.65021C234.526 9.40444 233.956 8.98061 235.7 5.87886C237.394 3.10624 236.046 2.2269 229.796 2.95635C225.302 3.28028 220.555 5.24963 219.583 7.45876C218.454 9.30718 217.162 9.44698 216.793 7.70655C216.268 5.60539 187.924 -0.0711847 187.572 2.23273C187.421 3.22013 178.745 4.58944 176.313 3.88118C167.983 1.59846 162.761 1.13784 148.394 0.964272C132.942 0.96187 124.16 1.64125 124.009 2.62864C123.908 3.28691 106.908 3.72177 98.5332 3.1163C95.1734 2.93994 90.7849 3.95372 89.3427 5.08068C87.6433 6.50518 85.5748 6.1891 84.4846 5.01214C83.6013 3.86678 78.5363 3.76672 73.4268 5.34399C68.1607 6.56053 61.9106 7.2903 59.2216 6.87958C56.7394 6.50046 53.8493 7.40596 52.9773 8.95683C52.1053 10.5077 48.1808 11.2556 44.2507 10.6554C40.3206 10.0551 37.0168 10.8978 36.7653 12.5434C36.4635 14.5182 34.7081 14.9237 32.5334 13.9179C30.3587 12.9121 26.3896 15.3371 23.2034 19.5658C17.1383 27.3966 15.4056 33.1946 18.922 33.7317C19.9562 33.8897 20.778 32.6679 20.4089 30.9274C19.2011 26.3644 24.2603 25.1165 32.853 28.4498C37.0962 29.7715 40.0035 32.9099 39.6514 35.2138C39.2491 37.8469 42.1506 39.6372 48.1995 40.2243C57.1442 41.2537 60.5876 36.7275 51.9 35.4006C44.4535 34.2632 50.2282 31.1036 59.3238 31.1456C67.3349 31.3587 67.6983 31.7511 66.3907 40.3085L65.0328 49.1949L70.8294 38.9657C74.01 33.3889 77.5094 29.8813 78.3928 31.0267C79.483 32.2037 80.5115 31.0135 80.9642 28.0513C81.4168 25.0891 82.6522 23.9306 83.5356 25.076C84.5755 26.582 84.6371 28.9491 83.7651 30.4999C82.6863 32.0192 84.9672 33.7149 88.2768 34.2204C92.0001 34.7891 94.9405 33.5544 95.3429 30.9214C95.7452 28.2883 96.5223 28.7436 97.2605 32.2245C97.8924 35.0155 98.826 35.8318 99.1278 33.857C99.4295 31.8822 101.129 30.4578 102.784 30.7105C104.438 30.9633 105.685 32.501 105.434 34.1467C105.182 35.7924 106.837 36.0451 109.157 34.7154C111.27 33.3541 116.956 33.5488 121.819 34.9653C126.683 36.3818 132.212 36.2156 133.962 34.462C136.433 32.1449 137.26 32.2715 137.377 35.6576C137.702 39.0753 139.357 39.3279 145.808 37.282C152.93 35.0016 153.914 35.4888 153.21 40.0966C152.662 45.0651 152.869 45.0968 156.156 40.2098C158.314 37.1713 160.377 36.139 160.746 37.8794C161.747 42.4109 158.013 51.608 155.531 51.2289C154.496 51.0709 153.468 52.2612 153.267 53.5778C153.066 54.8943 156.068 56.0265 160.098 55.9685C166.505 55.5998 167.483 54.7385 168.483 46.8077C169.226 39.1745 170.205 38.3138 177.388 38.4006C182.246 38.469 184.991 39.8985 184.639 42.2024C184.287 44.5063 182.895 45.3044 181.391 44.0642C179.524 42.4318 178.859 44.0142 178.725 49.0459C178.698 54.7675 178.39 55.394 177.132 51.1601C175.661 45.5465 171.949 47.6741 173.37 53.6169C174.321 58.4775 179.905 59.3304 180.559 55.0517C180.861 53.0769 182.096 51.9184 183.131 52.0763C184.372 52.2659 184.69 54.3357 184.182 56.2789C183.416 58.5196 184.456 60.0254 186.211 59.6199C187.967 59.2144 193.703 59.0801 198.974 59.2117C204.296 59.0142 210.86 59.0063 213.806 59.1195C217.836 59.0615 219.122 57.5736 219.463 52.5734C219.653 48.5607 220.267 47.3072 220.95 49.7691C223.522 59.2559 237.974 67.1893 239.08 59.9484C239.533 56.9863 236.944 55.9171 229.761 55.8303C226.608 55.6856 225.204 53.7874 225.657 50.8252C226.109 47.8631 225.891 45.1352 225.215 44.0214C224.281 43.2052 225.108 43.3316 226.663 44.2426C237.855 51.3411 240.958 51.815 240.521 46.3594C240.247 42.6125 240.812 41.6883 242.886 43.3524C244.183 44.5609 245.329 46.7565 245.078 48.4022C244.826 50.0479 247.314 51.7752 250.624 52.2807C253.933 52.7862 257.304 55.6588 258.35 58.513C259.345 61.6963 261.576 63.721 263.382 62.9864C264.981 62.2201 266.121 63.0681 265.92 64.3846C265.316 68.3342 272.394 67.7312 273.875 63.5789C274.54 61.9964 271.795 60.5665 267.401 60.2321C261.045 60.2717 260.318 59.4872 262.99 55.8535C264.583 53.7392 268.144 52.5989 270.682 53.997C273.271 55.066 276.267 54.8501 277.189 52.9701C278.319 51.1217 280.024 51.0456 281.064 52.5517C282.26 54.4185 284.798 55.8163 287.074 56.1639C292.452 56.9853 294.979 68.1495 290.446 71.4988C288.282 73.1892 289.115 74.6638 293.308 76.3147L299.312 78.5787L295.907 67.6175C291.87 53.8652 291.965 51.8588 297.55 52.7118C301.066 53.2489 301.435 54.9893 299.602 61.4456C297.925 68.2625 298.35 71.022 302.555 75.3691C306.345 79.653 307.743 80.2035 309.073 77.0385C310.146 74.1711 311.594 74.3921 315.335 79.0051C319.332 83.3206 320.73 83.8708 322.524 80.4399C323.91 78.294 325.61 76.8696 326.644 77.0276C329.646 78.1598 329.819 70.1028 326.761 67.9517C325.257 66.7115 324.329 67.2432 324.955 68.6861C326.364 71.9326 321.333 79.9213 318.23 79.4474C316.989 79.2578 316.928 76.8908 318.157 74.3841C319.538 70.89 318.705 69.4155 314.982 68.8468C308.156 67.8042 309.067 63.2279 316.647 59.3335C321.907 56.7689 322.478 57.1929 320.583 61.282C319.152 65.1052 319.879 65.8899 324.06 64.8445C327.364 64.0019 330.73 65.5262 332.396 68.4752C334.375 72.1457 334.996 72.2408 334.207 69.089C332.311 60.716 336.415 65.7213 340.234 76.7458C343.164 85.2768 344.824 86.8775 346.569 83.7757C348.005 81.3006 347.949 80.2818 346.507 81.4088C345.065 82.5357 343.918 80.3396 343.851 76.6244C343.778 71.5611 345.164 69.4152 349.089 68.6674C355.439 67.2796 358.246 71.0764 353.248 74.6916C351.342 76.0845 350.163 78.2621 350.633 79.3442C352.248 82.6224 359.001 78.6017 359.756 73.6647C360.611 68.0695 365.212 68.4356 367.716 74.2071C368.969 77.0929 369.796 77.2192 370.148 74.9153C370.4 73.2697 373.083 72.332 376.292 73.4958C383.124 75.8865 389.782 73.8723 388.937 69.7015C388.361 67.9295 389.597 66.7709 391.252 67.0236C393.32 67.3396 394.109 70.4912 393.505 74.4408C392.7 79.7069 391.465 80.8658 388.77 79.1069C386.439 77.7404 384.169 78.741 383.096 81.6084C380.385 88.2674 380.178 88.2358 386.479 87.1773C390.56 86.7901 391.7 87.6378 390.264 90.1129C389.135 91.9613 389.297 93.6701 390.331 93.828C391.572 94.0176 392.858 92.53 393.159 90.5552C393.512 88.2513 395.681 87.9091 398.683 89.0413C401.428 90.471 404.424 90.2548 405.246 89.0331C406.118 87.4822 403.837 85.7865 400.527 85.281C397.011 84.7439 394.367 82.6559 394.618 81.0103C394.92 79.0355 396.569 77.9401 398.224 78.1929C399.878 78.4456 401.628 76.6922 401.98 74.3883C402.589 71.7869 403.16 72.2105 404.518 75.7862C406.403 81.463 423.375 86.7499 424.08 82.1421C424.532 79.1799 436.535 82.3604 437.894 85.9361C438.363 87.0182 435.367 87.2342 431.23 86.6023C424.404 85.5597 423.426 86.4208 422.733 93.7248C422.091 100.7 422.454 101.092 425.903 97.9139C427.96 95.5336 432.136 93.1402 435.233 92.2659C440.343 90.6887 440.549 90.7203 436.799 95.8732C433.048 101.026 433.204 101.387 437.8 100.405C440.483 99.4674 442.501 100.112 442.25 101.758C441.546 106.366 447.813 109.681 451.262 106.503C453.012 104.749 457.657 103.438 461.38 104.006C469.911 104.973 472.952 103.079 469.989 98.9218C468.066 96.2704 468.373 95.6436 471.269 96.0859C473.338 96.4019 474.78 95.2748 474.411 93.5344C474.042 91.794 476.826 90.1983 480.543 89.4189C484.881 88.7342 487.677 89.8348 488.359 92.2967C488.834 94.727 490.802 95.7015 492.815 94.9984C494.877 93.9662 496.225 94.8453 495.923 96.8201C495.621 98.7949 496.969 99.6743 498.774 98.9397C500.58 98.205 503.777 96.6728 506.047 95.6722C508.317 94.6716 509.044 95.4563 507.914 97.3047C506.785 99.1532 507.21 101.912 508.921 103.184C510.425 104.424 511.303 104.221 510.934 102.481C510.565 100.74 513.455 99.8349 517.335 100.764C521.214 101.694 523.702 103.421 522.88 104.643C522.215 106.225 523.512 107.434 525.995 107.813C528.684 108.223 530.126 107.097 529.444 104.635C528.968 102.204 530.366 102.754 532.86 105.83C537.74 111.291 544.002 113.258 548.485 110.238C549.977 108.782 552.98 109.913 554.953 112.236C557.29 114.95 558.738 115.172 559.09 112.868C559.342 111.222 562.075 109.955 565.385 110.461C568.488 110.935 569.734 112.473 568.292 113.6C566.179 114.961 566.084 116.967 567.7 120.245C569.679 123.916 570.093 123.979 570.747 119.7C571.602 114.105 575.112 113.294 575.549 118.75C575.773 122.826 592.261 111.858 592.814 108.237C593.418 104.288 599.514 101.163 600.672 106.055C600.672 106.055 611.057 115.987 614.204 114.784C616.888 113.846 614.822 130.474 618.182 130.65C623.868 130.845 624.024 131.206 620.111 134.65C614.963 139.253 615.376 139.316 625.131 136.427C631.325 134.679 633.086 135.621 634.658 140.577C636.022 145.501 636.436 145.564 636.262 141.159C635.938 137.741 637.067 135.893 638.928 136.177C640.583 136.43 641.416 137.904 640.544 139.455C639.723 140.677 640.556 142.151 642.21 142.404C644.072 142.688 645.369 143.897 645.168 145.214C644.564 149.163 655.32 150.806 660.631 147.912C663.208 146.285 664.5 146.145 663.471 147.335C662.443 148.525 663.287 152.696 665.266 156.366L668.912 162.986L664.663 160.316C662.125 158.918 658.351 158.679 656.338 159.382C652.934 160.883 652.833 161.541 654.913 164.553C656.317 166.451 659.319 167.584 661.745 166.944C664.428 166.006 665.155 166.791 663.976 168.968C661.717 172.665 664.719 173.797 672.412 171.941C678.399 170.161 679.617 164.958 673.781 165.751C671.405 166.061 670.058 165.182 670.93 163.631C671.802 162.08 674.899 161.206 677.537 161.946C680.176 162.686 681.58 164.584 680.965 165.838C680.143 167.059 681.183 168.565 683.045 168.85C685.113 169.166 685.996 170.311 685.018 171.172C683.168 173.584 687.977 186.444 690.14 184.753C691.275 184.253 691.984 180.993 691.867 177.607C691.537 172.841 691.743 172.873 692.795 177.075C693.633 179.898 693.801 182.955 692.98 184.176C691.185 187.607 708.672 192.299 712.122 189.121C714.128 187.07 714.855 187.854 714.252 191.804C713.648 195.754 715.516 197.386 722.291 198.758C730.308 200.319 730.515 200.351 724.734 202.162C721.173 203.302 717.193 203.031 715.846 202.152C714.549 200.943 711.088 201.425 708.511 203.052C705.727 204.648 702.524 204.833 701.484 203.326C697.794 198.384 681.14 195.167 674.538 198.2C669.948 200.53 667.88 200.215 666.057 196.905C664.754 194.348 662.943 193.735 662.071 195.286C660.327 198.388 654.172 197.11 651.002 192.921C649.755 191.384 648.62 191.884 648.319 193.859C647.966 196.163 707.363 210.282 698.927 207.309C694.292 205.714 727.703 216.911 727.703 216.911C727.703 230.004 703.257 284.559 703.257 284.559C700.904 290.947 697.146 301.144 695.4 305.508C694.795 306.765 693.217 307.08 693.217 307.08C684.05 305.945 679.248 305.072 672.263 304.199C665.279 302.89 662.66 302.89 661.35 303.326C660.716 303.537 658.335 304.742 656.548 306.381C653.056 310.746 644.978 318.053 643.627 321.657C642.461 324.766 644.175 330.839 645.373 336.496C646.944 343.915 648.254 350.025 648.516 352.208C648.516 353.032 647.817 354.175 647.381 354.39C646.54 354.684 630.356 361.809 627.737 363.119C625.253 364.36 614.641 369.229 607.22 372.284C606.901 372.401 606.617 372.368 606.04 372.284C604.585 372.071 600.143 364.677 595.433 358.754C592.789 355.428 589.821 351.175 588.012 349.589C586.467 348.234 583.883 347.51 582.774 347.407C581.028 347.407 579.199 347.843 573.607 347.843C559.637 347.843 560.51 349.589 559.201 350.025C557.891 350.462 554.961 354.931 550.47 361.809C545.908 368.796 542.229 377.155 539.557 376.212C532.136 373.593 518.167 367.919 509.872 364.864C506.38 363.991 498.056 360.085 497.754 359.627C497.579 359.362 497.209 358.834 497.213 357.881C497.649 354.826 498.26 349.419 499.396 343.042C500.18 338.639 501.464 332.854 501.142 327.767C500.269 323.839 495.286 320.587 490.665 315.983C487.171 312.502 484.743 309.028 481.498 308.127C475.386 306.818 467.93 309.959 460.544 311.095C454.869 311.968 449.194 314.237 447.884 312.491C443.956 303.763 439.59 294.161 437.844 290.233C436.638 286.738 431.694 276.583 429.986 272.339C429.536 271.22 429.986 270.157 430.423 269.72C430.86 269.284 441.336 261.428 444.392 258.809C453.559 252.263 454.629 251.672 455.742 248.335C456.855 244.997 456.179 231.75 455.742 227.385C455.305 223.021 452.25 220.839 447.884 218.22C443.519 215.602 437.861 211.781 433.915 209.055C431.446 207.349 428.677 206.436 428.677 203.818C433.915 189.415 437.844 179.813 440.9 171.521C442.993 165.842 435.857 164.389 434.506 164.906C430.995 165.717 427.942 164.915 426.846 162.39C425.751 159.864 424.303 159.643 422.089 161.663C421.066 162.52 380.658 175.885 373.237 171.085C365.816 166.284 355.139 183.033 350.1 181.123L350.1 260.991L389.389 260.991C389.389 260.991 389.389 299.398 389.389 310.658C389.389 310.658 360.577 310.746 350.275 310.658C350.275 313.277 350.275 345.225 350.275 345.225L310.403 331.535L293.538 329.979C297.099 315.298 283.747 310.746 283.747 310.746L283.747 260.991C283.311 230.004 283.529 169.775 283.529 169.775L230.926 149.699C225.135 148.814 207.751 143.071 206.622 144.92C205.286 146.737 204.665 146.642 205.068 144.009C205.47 141.376 202.054 140.18 194.664 140.062C167.064 139.214 144.422 137.777 130.72 136.021C122.603 135.118 115.162 135.329 114.133 136.519C113.105 137.709 111.4 137.786 110.103 136.577C108.806 135.369 105.558 137.23 102.886 140.864C100.264 144.168 97.1225 146.72 95.6746 146.499C92.365 145.993 82.588 155.952 81.8839 160.559C81.5822 162.534 82.734 166.078 84.551 168.04C86.2674 170.66 86.5359 173.058 85.0937 174.185C82.1086 177.098 79.5209 188.491 82.4054 186.237C83.5906 185.407 84.3174 186.192 84.0157 188.167C83.7642 189.812 82.4282 191.629 81.0865 192.098C79.074 192.801 78.722 195.105 79.7789 200.655C80.7353 206.864 82.8094 208.528 89.8925 209.273C94.65 210 101.689 212.422 105.317 214.997C113.921 221.027 123.386 222.809 119.746 217.538C117.459 214.494 117.767 213.867 120.869 214.341C122.731 214.626 124.134 216.524 123.833 218.499C123.531 220.473 125.292 221.416 127.768 220.447C130.452 219.51 132.006 220.421 131.604 223.054C131.201 225.687 132.286 225.516 135.221 222.933C138.463 219.723 139.29 219.849 139.615 223.267C139.732 226.653 140.56 226.779 143.494 224.196C145.501 222.145 146.586 221.974 146.128 223.588C144.244 230.373 145.234 232.209 148.733 228.701C151.718 225.789 152.339 225.884 151.785 229.504C151.383 232.137 152.775 231.34 155.24 227.675C157.808 223.8 158.878 226.792 158.343 228.148C157.808 229.504 155.406 232.623 155.406 232.623L157.808 230.004L161.517 226.076C161.517 226.076 191.202 193.78 194.257 190.288C197.313 186.797 230.926 149.699 230.926 149.699L280.127 168.477L196.004 260.991L216.521 260.991C216.856 260.799 275.89 260.991 283.747 260.991L283.747 310.746C283.747 310.746 226.561 310.746 212.155 310.676C212.155 310.676 190.356 310.672 186.836 310.672C182.035 310.672 171.181 310.672 164.529 310.672C165.314 313.114 166.877 314.272 169.194 313.672C182.566 310.662 184.998 311.371 188.336 318.617C193.133 328.78 196.129 328.564 196.604 318.532C196.883 311.165 197.654 310.272 202.826 311.062C206.135 311.568 210.093 311.708 212.155 310.676C213.902 310.746 214.338 311.619 212.615 316.262C209.691 321.542 209.339 323.846 211.05 325.117C212.191 325.965 212.56 327.706 211.945 328.959C211.123 330.181 211.542 331.592 212.99 331.813C214.438 332.035 218.167 333.951 221.74 335.507C225.312 337.063 228.879 337.271 229.801 335.391C230.673 333.84 233.2 332.542 235.061 332.826C238.164 333.3 238.063 333.959 234.922 336.51C231.987 339.093 231.937 339.422 235.291 338.25C237.51 337.579 240.35 337.002 241.384 337.16C242.626 337.35 243.084 335.736 242.715 333.995C242.396 331.926 242.804 330.641 243.631 330.767C244.666 330.925 245.918 333.811 246.863 337.324C247.707 341.494 250.872 344.335 254.545 345.233C258.061 345.77 260.694 345.162 260.325 343.421C259.956 341.681 260.671 339.769 262.114 338.642C263.299 337.813 264.132 339.288 263.73 341.921C263.277 344.883 264.373 347.408 266.028 347.661C267.889 347.945 268.811 346.065 268.537 342.318C268.157 337.882 268.878 337.318 271.316 339.374C273.183 341.007 274.894 342.278 275.514 342.373C275.928 342.436 275.369 344.709 274.346 347.247C273.116 349.754 273.385 352.152 274.626 352.342C275.867 352.532 277.153 351.044 277.404 349.398C277.706 347.423 280.596 346.518 283.906 347.023C287.422 347.56 290.983 346.42 291.855 344.869C294.471 340.217 297.127 345.001 294.824 350.375C293.65 353.9 294.483 355.375 297.793 355.88C301.723 356.481 302.237 355.886 300.157 352.873C298.754 350.975 298.486 348.576 299.307 347.355C300.336 346.165 299.234 342.291 297.099 338.26C291.373 328.629 293.538 329.979 293.538 329.979L310.403 331.535C306.809 331.725 305.775 336.891 306.809 337.049C307.843 337.207 311.589 332.564 310.403 331.535L350.275 345.225L350.275 356.136C341.891 356.136 317.303 356.136 314.305 356.136C313.432 356.136 312.122 356.136 312.122 356.136C312.122 356.136 312.205 354.377 309.974 352.352C308.107 350.72 307.525 347.6 308.498 345.39C309.521 342.852 308.995 340.751 307.547 340.53C305.892 340.277 304.663 342.784 304.529 347.816C304.451 353.866 305.854 355.765 311.752 357.339C315.789 358.629 322.257 360.627 325.88 361.854C330.693 363.6 333.119 362.96 334.55 359.137C336.131 355.263 337.004 356.135 338.587 360.427C340.057 366.041 344.043 367.66 370.212 372.331C393.536 376.23 400.669 376.646 403.084 373.31C405.499 369.974 405.443 368.955 402.754 368.544C400.892 368.259 399.696 366.393 399.947 364.747C400.651 360.139 403.24 361.208 407.142 367.53C411.721 374.966 416.993 375.097 419.547 368.077C421.029 363.925 422.935 362.533 424.595 364.133C426.306 365.405 427.491 364.576 427.48 361.879C427.468 359.183 429.632 357.493 432.835 357.308L438.107 357.44L432.584 358.954C428.816 360.063 427.737 361.582 429.297 363.841C430.337 365.347 432.612 365.695 434.261 364.599C435.91 363.504 436.067 363.865 434.887 366.042C433.708 368.22 429.94 369.328 426.217 368.759C420.632 367.906 420.118 368.502 421.996 372.83C423.249 375.716 427.559 380.753 431.45 384.379C437.623 389.7 438.864 389.889 440.502 386.098C441.524 383.56 443.531 381.508 445.186 381.761C446.634 381.982 447.16 384.084 446.187 386.293C445.114 389.16 446.931 391.122 452.052 392.241C458.934 394.302 459.448 393.707 457.513 388.359C455.629 382.683 455.886 382.385 459.978 384.694C462.259 386.39 464.428 386.048 464.78 383.744C465.082 381.769 465.753 381.535 466.43 382.648C467.788 386.224 474.116 379.444 473.272 375.273C472.746 373.172 474.088 372.703 476.525 374.759C478.806 376.455 480.769 376.081 481.07 374.106C481.372 372.131 483.072 370.707 484.726 370.96C486.381 371.212 487.628 372.75 487.427 374.067C487.225 375.383 489.557 376.75 492.917 376.926C496.226 377.432 499.597 380.304 501.269 384.601C504.093 392.443 503.959 397.474 500.856 397C499.822 396.842 499.296 394.741 500.062 392.501C500.571 390.557 499.631 388.393 497.977 388.14C496.322 387.887 494.041 386.192 492.951 385.015C491.911 383.509 490.726 384.338 490.323 386.971C489.921 389.604 491.224 392.161 493.292 392.477C495.361 392.793 497.435 394.457 497.754 396.526C498.123 398.267 500.661 399.665 503.244 399.386C505.877 398.777 509.08 398.593 510.528 398.814C512.026 398.706 512.999 396.497 512.781 393.769C512.356 391.01 511.366 389.175 510.388 390.036C509.409 390.897 508.369 389.391 508.101 386.992C507.933 383.935 509.532 383.169 513.619 384.13C517.912 385.122 519.768 384.059 520.528 380.47C521.031 377.179 521.752 376.615 521.814 378.982C522.082 381.381 523.586 382.621 525.185 381.855C526.991 381.12 528.394 383.018 528.769 386.107C528.937 389.164 530.133 391.031 531.575 389.904C532.76 389.074 535.349 390.143 537.373 392.137C539.71 394.851 541.107 395.401 542.08 393.192C544.327 386.799 555.888 395.638 555.559 403.335C555.325 409.025 555.789 408.759 557.102 401.55C558.214 395.657 559.444 393.15 561.104 394.751C562.815 396.022 562.782 400.396 561.256 406.226C559.171 414.327 559.54 416.068 563.263 416.637C568.642 417.458 568.843 416.142 565.398 408.206C562.737 402.073 562.787 401.744 566.159 404.617C568.803 406.705 569.474 406.47 569.043 402.363C568.769 398.616 570.004 397.457 573.728 398.026C576.623 398.468 578.647 400.461 578.346 402.436C578.044 404.411 576.495 404.848 574.785 403.576C573.124 401.976 571.939 402.805 572.051 404.843C572.28 410.267 582.578 413.524 584.937 409.169C586.116 406.992 585.753 406.599 584.311 407.726C582.405 409.119 581.879 407.018 582.533 402.739C583.287 397.802 584.573 396.315 586.284 397.586C587.787 398.826 589.75 398.453 590.515 396.212C591.589 393.345 592.573 393.831 594.759 397.533C597.208 402.286 598.035 402.412 600.344 398.387C602.602 394.69 603.016 394.753 604.223 399.316C604.855 402.107 605.789 402.923 606.04 401.277C606.342 399.303 607.589 400.84 608.534 404.353C609.686 407.897 609.658 413.618 608.535 416.815C607.361 420.341 607.529 423.398 608.77 423.587C610.011 423.777 611.246 422.618 611.498 420.972C611.8 418.998 613.812 418.295 615.83 418.94C618.106 419.287 619.045 421.452 618.022 423.99C617.049 426.199 617.368 428.269 618.609 428.458C619.851 428.648 621.136 427.16 621.388 425.514C621.689 423.54 623.752 422.507 626.234 422.887C628.51 423.234 629.55 424.74 628.627 426.62C627.755 428.171 627.711 429.848 628.952 430.038C629.986 430.196 631.529 428.411 632.501 426.202C633.832 423.037 634.452 423.131 636.225 426.77C638.73 432.542 642.196 433.408 640.932 427.826C640.3 425.035 640.971 424.801 643.565 427.218C650.827 433.716 656.312 435.227 658.877 430.904C660.828 427.834 661.706 427.631 662.545 430.453C662.97 433.213 669.024 435.148 678.589 436.272C686.707 437.175 693.382 439.205 693.13 440.851C692.929 442.167 693.913 442.654 695.098 441.825C696.541 440.698 697.306 438.457 696.937 436.717C695.936 432.185 699.352 433.381 701.387 438.07C703.736 443.481 708.225 441.809 706.804 435.866C706.329 433.436 703.215 430.266 700.006 429.102C696.797 427.938 693.795 426.806 693.174 426.711C692.604 426.287 693.633 425.097 695.539 423.704C697.702 422.014 700.755 422.817 703.606 424.936C706.25 427.024 710.08 428.283 712.299 427.612C715.447 426.408 716.85 428.307 717.443 434.123C718.084 439.161 718.634 438.796 719.092 433.028C719.433 428.028 720.349 424.799 721.026 425.913C721.909 427.058 723.038 425.21 723.491 422.248C724.295 416.982 724.502 417.013 727.421 422.848C729.557 426.879 733.962 429.91 739.961 430.826C748.235 432.09 749.325 433.267 748.47 438.862C747.766 443.47 748.599 444.944 751.075 443.975C753.088 443.272 754.894 442.538 755.514 442.632C755.928 442.696 756.023 440.689 755.804 437.961C755.368 432.506 762.071 428.814 763.178 434.035C763.497 436.105 766.499 437.237 769.803 436.395C773.52 435.615 774.711 436.134 772.911 438.217C771.625 439.704 767.6 441.11 763.933 441.561C760.316 441.682 762.441 443.017 769.216 444.388C776.249 445.463 781.828 444.968 783.008 442.79C784.394 440.644 783.46 439.828 780.414 440.373C777.523 441.279 776.383 440.431 777.406 437.892C778.121 435.981 781.939 434.543 785.713 434.783C800.343 436.007 806.437 434.917 809.209 430.625C811.518 426.599 812.138 426.694 813.866 432.01C815.807 438.706 823.208 441.52 826.081 436.57C826.954 435.019 828.916 434.646 830.369 436.215C832.287 437.518 833.573 436.03 834.277 431.422C835.081 426.156 834.248 424.682 830.581 425.132C827.791 425.38 824.996 424.279 823.956 422.773C822.447 420.185 814.525 416.617 797.289 410.28C794.494 409.179 788.283 406.883 783.313 404.777C749.356 391.507 713.649 379.99 695.133 376.489C692.288 375.717 690.728 373.458 691.18 370.496C691.583 367.863 691.108 365.433 690.073 365.275C689.039 365.117 687.943 362.592 687.775 359.535C687.557 356.807 687.965 355.522 689.055 356.699C689.939 357.844 691.839 355.103 693.371 350.622C694.645 346.438 696.546 343.697 697.479 344.513C698.156 345.627 700.526 343.968 702.577 340.239C704.579 336.84 706.893 334.162 707.927 334.32C711.237 334.826 735.453 321.235 735.856 318.602C736.057 317.285 733.094 315.781 735.856 315.009C738.617 314.237 733.057 309.436 730.323 310.182C727.588 310.927 726.235 308.563 726.235 306.381C726.235 304.199 717.868 303.326 717.868 300.708C717.868 298.089 721.592 293.288 716.337 294.597C711.083 295.907 703.257 284.559 703.257 284.559C703.257 284.559 727.703 230.004 727.703 216.911C727.703 216.911 726.691 223.458 737.754 218.657C748.817 213.856 747.67 220.053 755.793 222.304C765.571 224.808 770.453 210.351 772.667 208.331C775.395 205.716 795.602 218.594 796.239 222.734C797.084 226.904 779.727 226.643 797.986 230.442C810.76 232.73 809.54 237.267 813.577 238.557C819.061 240.068 837.988 271.464 839.262 267.28C840.794 262.799 841.001 262.831 840.453 267.799C839.956 272.439 841.924 273.413 851.282 274.506C857.538 275.124 862.609 276.572 862.407 277.889C861.904 281.18 880.728 284.055 884.54 281.269C886.446 279.876 887.056 277.275 886.267 274.123C884.321 266.079 885.294 263.87 889.844 264.565C892.12 264.912 893.73 266.842 893.428 268.817C893.177 270.463 892.249 270.995 891.158 269.818C889.079 266.806 888.218 271.053 889.745 277.686C891.115 283.957 901.725 287.936 900.719 282.056C900.45 279.658 900.97 280.41 902.223 283.296C904.42 289.695 917.049 294.318 917.854 289.052C918.105 287.406 920.839 286.14 924.098 286.974C928.856 287.701 928.962 288.391 925.351 289.86C921.275 291.595 921.225 291.925 924.233 294.405C926.1 296.037 929.51 295.884 931.83 294.555C934.15 293.225 937.56 293.072 939.064 294.312C940.932 295.945 942.324 295.147 942.726 292.514C943.279 288.894 943.743 288.628 944.638 292.469C945.113 294.9 946.517 296.798 947.601 296.627C948.686 296.456 949.876 296.974 950.447 297.398C951.017 297.822 955.26 299.144 960.124 300.56C966.849 302.261 968.811 301.887 969.672 297.64C970.376 293.032 970.633 292.735 971.221 297.203C971.97 303.38 979.316 305.176 981.462 299.441C982.178 297.53 984.341 295.839 985.996 296.092C988.478 296.471 988.534 297.49 986.17 300.497C983.755 303.833 984.431 304.947 989.552 306.066C995.5 307.311 995.808 306.684 995.869 296.589C996.153 290.57 995.46 285.412 994.526 284.596C992.089 282.539 999.652 274.6 1003.17 275.138C1004.82 275.39 1006.99 273.7 1007.96 271.491C1009.65 267.37 1001.32 278.46 1015.82 272.253C1020.36 270.252 1013.77 262.966 1014.07 260.991C1014.88 255.725 1017.38 245.349 1014.07 244.843C1012.42 244.59 1013.66 238.92 1012.88 237.117C1011.94 234.952 1008.72 232.441 1005.77 230.979C1000.8 228.873 974.532 212.398 958.985 201.94C953.439 198.062 937.696 190.268 933.402 189.276C932.368 189.118 930.657 187.846 929.567 186.669C928.734 185.195 929.953 202.857 925.604 200.845C921.304 198.505 916.955 196.493 915.764 195.974C910.481 193.147 908.058 199.194 906.246 198.58C905.413 197.106 908.415 198.238 906.246 198.58C903.921 198.562 902.848 204.407 901.444 202.508C899.784 200.908 890.841 200.105 887.475 198.58C886.551 198.143 867.831 195.089 869.928 190.456C872.025 185.822 851.415 179.043 856.811 175.013C866.744 167.593 843.259 166.555 840.743 167.685C833.735 170.833 832.136 171.477 826.082 169.542C819.977 167.936 755.339 183.136 749.967 183.305C749.967 175.75 749.967 146.208 749.967 131.369C719.409 129.186 727.33 119.063 715.846 116.53C708.449 115.063 701.12 104.585 701.17 104.255C701.321 103.268 693.192 99.6689 681.91 95.9249C672.854 92.8575 670.064 93.1049 669.561 96.3962C669.008 100.017 668.594 99.9538 667.856 96.4729C666.386 90.8593 661.103 88.0313 641.91 83.4158C633.53 81.4622 624.473 78.3948 621.678 77.2942C618.933 75.8645 608.015 72.5129 597.41 69.8826C586.805 67.2524 573.611 63.5534 568.071 61.0231C562.687 58.8536 552.289 56.2547 545.256 55.1805C538.223 54.1063 532.425 51.8738 532.627 50.5573C532.828 49.2408 530.916 49.2853 528.546 50.9442C522.978 54.1355 520.859 54.149 522.86 50.7497C523.732 49.1988 520.417 47.3451 515.66 46.6185C510.902 45.8918 500.09 43.23 491.76 40.9473C472.512 35.3129 456.428 32.5193 444.75 32.7565C439.841 33.0172 436.168 32.1196 436.99 30.8978C438.734 27.7961 425.653 26.1346 421.79 29.2496C419.626 30.94 418.178 30.7189 418.066 28.6809C417.904 26.9721 408.747 24.5631 397.734 23.2178C386.514 21.8409 369.295 19.5475 359.316 18.3602C349.337 17.1728 340.493 15.4854 339.816 14.3716C339.09 13.587 335.73 13.4104 332.633 14.2846ZM126.694 26.6156C127.012 28.6852 126.135 28.888 124.631 27.6479C121.26 24.7753 120.991 22.3765 123.887 22.8188C125.128 23.0084 126.375 24.5461 126.694 26.6156ZM192.36 47.0865C192.109 48.7321 190.253 49.7961 188.441 49.1826C186.166 48.8351 185.903 47.7846 187.709 47.0499C189.05 46.5812 190.073 44.043 189.704 42.3025C189.229 39.8722 189.693 39.6062 190.733 41.1123C191.98 42.65 192.662 45.1117 192.36 47.0865ZM207.096 49.0006C206.594 52.2919 207.315 51.7284 209.21 47.6392C211.82 41.6385 212.027 41.67 211.021 48.2526C210.524 52.8921 208.366 55.9308 205.269 56.805C198.041 58.3955 194.575 57.5291 196.319 54.4273C197.397 52.9081 197.079 50.8387 195.731 49.9593C191.946 47.0235 197.246 41.4334 202.523 42.9131C205.626 43.387 207.342 46.0068 207.096 49.0006ZM216.701 47.0994C217.07 48.8398 216.405 50.4223 215.37 50.2643C214.129 50.0747 213.347 48.2711 213.598 46.6255C213.9 44.6507 214.515 43.3973 214.928 43.4605C215.549 43.5553 216.382 45.0298 216.701 47.0994ZM447.8 82.0602C445.223 83.6874 445.491 86.0862 448.823 91.9842C452.363 97.9137 452.525 99.6225 449.584 100.857C447.779 101.592 447.002 101.136 447.874 99.5855C448.746 98.0347 447.65 95.5097 445.575 93.8456C440.03 89.9672 442.668 78.2449 448.666 79.1611C449.907 79.3506 449.499 80.6357 447.8 82.0602ZM457.706 90.6463C458.076 92.3867 457.617 94.0008 456.376 93.8112C455.342 93.6533 453.939 91.7549 453.57 90.0144C453.251 87.9448 453.659 86.6599 454.9 86.8495C455.934 87.0075 457.388 88.5767 457.706 90.6463ZM464.499 96.0625C461.978 98.7088 461.822 98.3481 463.767 93.9298C464.89 90.7333 466.383 89.277 466.852 90.3591C467.322 91.4413 466.299 93.9798 464.499 96.0625ZM308.273 71.1903C308.642 72.9308 308.184 74.5448 306.943 74.3553C305.909 74.1973 304.505 72.2989 304.136 70.5585C303.818 68.4889 304.226 67.204 305.467 67.3935C306.501 67.5515 307.955 69.1208 308.273 71.1903ZM706.295 167.685C708.733 169.742 708.789 170.761 706.161 172.717C701.37 176.364 697.748 175.137 698.603 169.542C699.407 164.276 701.42 163.573 706.295 167.685ZM734.309 181.058C732.471 186.167 721.195 183.77 720.965 178.346C720.747 175.618 721.518 174.726 722.558 176.232C723.648 177.409 725.147 177.301 726.019 175.75C728.277 172.053 735.997 176.938 734.309 181.058ZM756.951 178.941C755.928 181.479 755.459 180.396 756.012 176.776C756.358 173.124 757.281 171.244 757.7 172.655C758.17 173.738 757.924 176.731 756.951 178.941ZM746.788 186.669C751.556 190.092 754.464 193.23 753.172 193.37C746.045 194.302 741.337 193.247 740.706 190.456C740.286 189.044 738.939 188.165 737.754 188.994C736.518 190.153 735.942 188.381 736.345 185.748C736.797 182.785 737.356 180.513 737.77 180.576C737.977 180.608 741.968 183.575 746.788 186.669ZM508.895 219.717C509.448 216.097 510.069 216.192 511.478 219.438C514.452 226.292 509.097 230.863 503.495 225.966C501.058 223.909 500.068 222.074 501.516 222.295C503.014 222.187 503.987 219.978 503.713 216.232C503.382 211.466 503.746 211.858 505.63 217.535C507.408 222.522 508.135 223.306 508.895 219.717ZM468.56 213.557C468.929 215.297 468.264 216.88 467.23 216.722C465.989 216.532 465.206 214.728 465.457 213.083C465.759 211.108 466.374 209.855 466.787 209.918C467.408 210.013 468.241 211.487 468.56 213.557ZM565.175 232.355C567.769 234.772 569.591 238.082 569.39 239.398C568.938 242.361 544.938 237.348 543.322 234.07C542.382 231.905 546.15 230.797 549.93 232.384C550.757 232.511 551.579 231.289 551.83 229.643C552.484 225.365 559.31 226.407 565.175 232.355ZM593.368 239.019C599.137 246.973 595.543 252.487 589.466 245.159C586.922 242.413 585.888 242.255 586.363 244.685C586.889 246.787 584.669 247.458 579.599 246.01C575.562 244.72 571.984 241.815 571.873 239.777C571.755 236.391 576.194 235.049 581.991 237.281C583.182 237.8 584.624 236.673 584.926 234.698C585.68 229.761 587.805 231.096 593.368 239.019ZM529.105 232.909C528.233 234.459 525.908 234.441 523.576 233.075C520.675 231.284 520.462 229.904 522.575 228.543C526.181 225.726 531.106 229.509 529.105 232.909ZM611.263 242.426C610.961 244.401 612.515 245.312 614.992 244.343C618.346 243.171 618.972 244.614 618.011 249.519C617.1 254.095 616.122 254.956 614.819 252.4C613.622 250.533 610.207 249.337 606.903 250.18C601.43 251.365 601.273 251.004 604.348 244.738C607.936 237.876 612.218 236.172 611.263 242.426ZM659.514 250.806C658.134 254.3 659.067 255.116 664.954 253.995C668.878 253.247 674.256 254.068 676.951 255.827L681.77 258.921L676.135 258.397C672.775 258.221 670.041 259.487 669.74 261.462C669.337 264.095 668.303 263.937 666.687 260.659C664.708 256.988 663.467 256.799 660.739 259.414C658.218 262.06 656.977 261.87 656.345 259.079C655.45 255.238 658.357 245.914 660.218 246.198C660.839 246.293 660.537 248.268 659.514 250.806ZM540.482 234.646C540.23 236.292 539.565 237.874 539.152 237.811C538.531 237.716 537.748 235.913 537.379 234.172C537.06 232.103 537.675 230.849 538.71 231.007C539.951 231.197 540.784 232.671 540.482 234.646ZM640.289 250.564C642.419 253.247 646.561 255.227 649.508 255.341C654.623 255.111 654.573 255.44 650.095 259.809C643.968 265.272 642.52 265.051 641.821 258.545C641.603 255.817 639.059 253.071 636.163 252.628C632.44 252.06 630.998 253.187 631.629 255.978C632.261 258.769 631.591 259.003 629.31 257.308C627.442 255.675 625.525 254.372 625.111 254.309C622.629 253.929 625.86 248.024 629.163 247.181C635.564 245.464 636.341 245.92 640.289 250.564ZM686.841 260.369C686.589 262.015 685.304 263.502 684.063 263.313C683.028 263.155 682.866 261.446 683.738 259.895C684.66 258.015 685.896 256.856 686.516 256.951C686.93 257.014 687.143 258.394 686.841 260.369ZM700.286 262.422C699.414 263.973 697.715 265.398 696.473 265.208C695.439 265.05 694.863 263.278 695.115 261.633C695.416 259.658 697.066 258.562 698.927 258.847C700.582 259.1 701.208 260.542 700.286 262.422ZM723.039 265.898C723.408 267.638 722.329 269.157 720.675 268.905C718.813 268.62 717.616 266.754 717.868 265.108C718.17 263.133 719.198 261.943 720.232 262.101C721.474 262.29 722.72 263.828 723.039 265.898ZM735.45 267.793C734.578 269.344 732.616 269.718 731.162 268.149C727.17 265.182 727.886 263.27 733.057 264.06C735.332 264.407 736.579 265.945 735.45 267.793ZM664.116 263.634C664.485 265.375 663.82 266.957 662.786 266.799C661.545 266.61 660.762 264.806 661.013 263.16C661.315 261.185 661.93 259.932 662.344 259.995C662.964 260.09 663.797 261.565 664.116 263.634ZM829.327 251.954C828.455 253.504 826.342 254.866 825.101 254.676C823.653 254.455 824.061 253.17 826.225 251.48C830.758 248.13 831.586 248.257 829.327 251.954ZM840.452 255.337C840.05 257.97 838.25 260.053 836.595 259.8C831.217 258.979 833.878 252.649 840.743 250.666C841 250.368 840.855 252.704 840.452 255.337ZM702.914 272.928C702.042 274.479 699.929 275.84 698.688 275.651C697.24 275.43 697.648 274.145 699.811 272.454C704.345 269.105 705.172 269.231 702.914 272.928ZM716.337 282.051C715.985 284.355 713.721 286.704 711.295 287.344C707.835 287.826 707.728 287.136 710.4 283.503C712.044 281.059 712.96 277.831 712.384 276.059C711.758 274.616 712.686 274.084 714.19 275.324C715.694 276.565 716.74 279.418 716.337 282.051ZM932.679 275.149C932.276 277.782 928.665 279.252 923.65 278.823C918.792 278.754 915.477 276.9 915.779 274.926C916.081 272.951 916.958 272.748 918.049 273.925C918.932 275.07 921.722 274.823 923.835 273.461C929.71 269.643 933.383 270.542 932.679 275.149ZM899.181 272.727C898.929 274.373 898.264 275.955 897.851 275.892C897.23 275.797 896.447 273.994 896.078 272.253C895.759 270.184 896.374 268.93 897.408 269.088C898.65 269.278 899.483 270.752 899.181 272.727ZM911.62 281.363C911.989 283.104 910.91 284.623 909.049 284.339C907.187 284.055 906.611 282.282 907.483 280.732C908.405 278.852 909.641 277.693 910.055 277.756C910.468 277.819 911.301 279.294 911.62 281.363ZM142.141 209.507C141.738 212.14 140.503 213.298 139.62 212.153C138.58 210.647 138.518 208.28 139.39 206.729C141.956 202.405 143.046 203.582 142.141 209.507ZM134.437 208.667C132.888 209.104 130.406 208.725 129.266 207.877C127.969 206.669 129.104 206.168 131.999 206.611C134.895 207.053 135.829 207.869 134.437 208.667ZM151.197 212.574C152.724 219.207 149.006 219.986 146.345 213.854C143.84 208.082 143.89 207.753 146.993 208.227C148.855 208.511 150.879 210.504 151.197 212.574ZM162.692 217.698C162.714 223.09 162.407 223.717 160.428 220.046C157.772 215.262 157.956 209.901 160.852 210.344C161.886 210.502 162.675 213.653 162.692 217.698ZM116.615 210.323C116.363 211.969 115.698 213.551 115.284 213.488C114.664 213.393 113.881 211.59 113.512 209.849C113.193 207.78 113.808 206.526 114.842 206.684C116.084 206.874 116.917 208.348 116.615 210.323ZM179.703 219.959C182.247 222.705 180.956 222.845 175.415 220.315C171.016 218.632 171.434 217.632 171.121 216.911C169.662 213.994 176.176 216.726 179.703 219.959ZM191.611 225.146C191.98 226.887 191.315 228.469 190.281 228.311C189.04 228.122 188.257 226.318 188.509 224.672C188.81 222.697 189.425 221.444 189.839 221.507C190.459 221.602 191.292 223.077 191.611 225.146ZM627.281 352.316C627.65 354.056 626.571 355.575 624.916 355.323C623.055 355.038 621.858 353.171 622.11 351.526C622.411 349.551 623.44 348.361 624.474 348.519C625.715 348.708 626.962 350.246 627.281 352.316ZM249.305 315.804C249.523 318.532 248.394 320.38 246.946 320.159C245.498 319.938 244.972 317.837 245.995 315.298C246.968 313.089 247.89 311.209 248.304 311.272C248.717 311.335 249.036 313.405 249.305 315.804ZM229.464 316.815C228.609 322.41 222.667 322.513 218.921 316.552C216.841 313.54 217.562 312.976 221.911 314.988C224.914 316.12 227.496 315.841 227.698 314.524C227.949 312.879 228.564 311.625 229.184 311.72C229.805 311.815 229.867 314.182 229.464 316.815ZM264.013 323.439C268.442 331.862 268.246 334.527 263.22 331.402C260.889 330.035 259.899 328.2 260.671 327.307C261.235 326.383 261.224 323.687 260.385 320.864C258.031 314.105 259.949 315.409 264.013 323.439ZM256.735 325.359C255.963 326.252 254.46 325.011 253.364 322.486C252.005 318.911 252.262 318.613 254.856 321.03C256.774 322.333 257.506 324.466 256.735 325.359ZM408.746 355.65C407.253 357.106 404.078 351.569 404.581 348.277C404.832 346.632 406.023 347.151 407.326 349.707C408.628 352.264 409.053 355.023 408.746 355.65ZM278.885 332.784C272.696 335.88 269.387 335.375 273.713 331.994C275.62 330.601 278.717 329.727 280.371 329.979C282.44 330.295 281.875 331.22 278.885 332.784ZM357.655 347.846C360.086 348.554 361.954 350.187 361.702 351.833C361.451 353.478 358.818 354.086 355.765 353.283C352.556 352.12 350.275 354.515 350.275 356.136L350.275 345.225C352.036 346.167 354.966 347.436 357.655 347.846ZM394.211 352.419C399.086 356.532 396.727 360.887 390.315 359.908C383.282 358.833 380.777 353.062 386.507 351.58C388.726 350.908 390.689 350.534 390.946 350.236C391.153 350.268 392.5 351.147 394.211 352.419ZM419.038 357.559C418.166 359.109 415.639 360.408 413.828 359.794C410.932 359.352 411.239 358.725 414.901 356.927C418.993 355.082 420.372 355.292 419.038 357.559ZM377.272 355.221C377.954 357.683 376.819 358.183 374.074 356.754C371.743 355.387 369.367 355.698 368.652 357.609C367.221 361.433 363.016 357.086 363.771 352.149C364.425 347.87 376.114 350.329 377.272 355.221ZM458.736 372.042C461.739 373.174 465.618 374.104 467.223 374.686C468.878 374.939 470.074 376.805 469.873 378.122C469.42 381.084 453.7 378.683 452.084 375.405C451.665 373.994 449.289 374.304 446.919 375.963C443.57 378.483 441.915 378.23 439.573 374.167C437.174 369.086 437.224 368.757 442.077 367.477C444.967 366.571 448.69 367.14 450.194 368.38C451.698 369.62 455.477 371.208 458.736 372.042ZM593.59 389.945C592.041 390.382 589.559 390.003 588.418 389.155C587.121 387.947 588.256 387.447 591.152 387.889C594.048 388.331 594.982 389.147 593.59 389.945ZM650.491 415.14C659.648 417.549 661.823 418.554 658.882 419.789C657.283 420.556 656.054 423.063 656.166 425.101C656.02 427.436 655.92 428.094 655.757 426.386C655.338 424.974 653.834 423.734 652.18 423.481C650.525 423.228 649.485 421.723 649.686 420.406C649.937 418.76 642.021 416.541 632.199 415.714C622.427 414.558 615.081 412.763 615.852 411.87C616.624 410.978 619.877 410.464 623.03 410.609C626.44 410.456 630.985 409.803 633.255 408.802C636.453 407.27 637.023 407.694 635.586 410.169C634.407 412.346 634.362 414.024 635.396 414.182C636.638 414.371 638.488 411.959 639.818 408.795C641.814 404.047 642.227 404.11 643.642 408.705C644.688 411.559 647.595 414.697 650.491 415.14ZM669.409 416.008C669.107 417.983 670.147 419.489 671.695 419.052C673.244 418.615 674.334 419.792 674.239 421.798C674.195 423.476 671.204 425.04 667.844 424.864C661.281 424.872 661.124 424.511 664.143 417.225C666.496 411.522 670.213 410.742 669.409 416.008ZM439.305 384.231C439.054 385.877 438.388 387.459 437.975 387.396C437.354 387.301 436.571 385.497 436.202 383.757C435.883 381.688 436.498 380.434 437.533 380.592C438.774 380.782 439.607 382.256 439.305 384.231ZM685.252 423.144C685.102 424.131 684.023 425.65 682.631 426.448C681.446 427.278 680.512 426.461 680.763 424.816C681.065 422.841 682.351 421.353 683.385 421.511C684.626 421.701 685.353 422.485 685.252 423.144ZM690.653 429.358C690.402 431.003 689.323 432.522 688.082 432.333C687.048 432.175 686.265 430.371 686.516 428.726C686.818 426.751 688.053 425.592 689.088 425.75C690.329 425.94 690.955 427.383 690.653 429.358Z" fill="white"/>
<path fill-rule="evenodd" clip-rule="evenodd" d="M273.387 126.863C273.135 128.508 273.918 130.312 275.159 130.501C276.193 130.659 276.859 129.077 276.489 127.337C276.171 125.267 275.338 123.792 274.717 123.698C274.303 123.634 273.688 124.888 273.387 126.863Z" fill="white"/>
<path fill-rule="evenodd" clip-rule="evenodd" d="M279.591 127.811C278.937 132.09 281.117 134.444 284.315 132.911C289.061 130.942 288.787 127.195 284.03 126.468C281.754 126.121 279.742 126.824 279.591 127.811Z" fill="white"/>
<path fill-rule="evenodd" clip-rule="evenodd" d="M131.194 108.513C130.322 110.064 130.484 111.773 131.518 111.931C132.759 112.12 134.045 110.633 134.297 108.987C134.598 107.012 134.386 105.632 133.972 105.569C133.352 105.475 132.116 106.633 131.194 108.513Z" fill="white"/>
<path fill-rule="evenodd" clip-rule="evenodd" d="M164.244 115.245C164.669 118.004 166.593 120.656 168.661 120.972C170.73 121.288 172.943 119.268 173.346 116.635C173.798 113.673 172.238 111.414 168.929 110.908C165.206 110.34 163.97 111.498 164.244 115.245Z" fill="white"/>
<path fill-rule="evenodd" clip-rule="evenodd" d="M311.206 137.018C311.324 140.404 312.314 142.239 313.085 141.346C313.856 140.454 313.638 137.726 312.542 135.201C310.927 131.923 310.669 132.22 311.206 137.018Z" fill="white"/>
<path fill-rule="evenodd" clip-rule="evenodd" d="M392.806 148.808C392.555 150.454 393.488 151.27 394.673 150.44C396.065 149.643 397.144 148.123 397.295 147.136C397.396 146.478 396.669 145.693 395.428 145.503C394.394 145.345 393.108 146.833 392.806 148.808Z" fill="white"/>
<path fill-rule="evenodd" clip-rule="evenodd" d="M123.4 111.027C123.148 112.673 124.082 113.489 125.267 112.66C126.659 111.862 127.738 110.343 127.889 109.355C127.989 108.697 127.263 107.912 126.022 107.723C124.987 107.565 123.702 109.052 123.4 111.027Z" fill="white"/>
<path fill-rule="evenodd" clip-rule="evenodd" d="M136.588 113.379C133.766 118 135.683 119.303 142.755 117.351C146.316 116.211 148.429 114.85 147.238 114.331C146.254 113.844 143.666 112.775 141.905 111.833C139.937 110.859 137.511 111.499 136.588 113.379Z" fill="white"/>
<path fill-rule="evenodd" clip-rule="evenodd" d="M176.05 121.09C174.104 125.509 174.261 125.869 176.782 123.223C178.582 121.14 179.605 118.602 179.135 117.52C178.666 116.438 177.173 117.894 176.05 121.09Z" fill="white"/>
<path fill-rule="evenodd" clip-rule="evenodd" d="M447.938 159.25C445.769 159.592 443.812 161.314 443.561 162.96C443.36 164.276 445.121 165.219 447.547 164.579C449.973 163.939 452.137 162.249 452.388 160.603C452.64 158.957 452.584 157.938 452.377 157.907C451.913 158.173 449.951 158.547 447.938 159.25Z" fill="white"/>
<path fill-rule="evenodd" clip-rule="evenodd" d="M395.986 155.693C395.684 157.667 396.931 159.205 398.586 159.458C400.24 159.711 401.789 159.273 401.889 158.615C401.99 157.957 400.743 156.419 399.29 154.85C397.786 153.61 396.237 154.047 395.986 155.693Z" fill="white"/>
<path fill-rule="evenodd" clip-rule="evenodd" d="M521.13 174.807C515.243 175.928 514.986 176.226 518.614 178.801C520.895 180.497 524.154 181.331 525.96 180.597C528.023 179.564 529.633 181.494 529.851 184.222C530.606 191.747 535.878 191.879 538.276 184.498C539.55 180.314 539.388 178.606 537.325 179.638C535.57 180.044 532.775 178.943 530.907 177.311C529.09 175.349 524.847 174.027 521.13 174.807Z" fill="white"/>
<path fill-rule="evenodd" clip-rule="evenodd" d="M545.448 181.889C544.576 183.44 545.152 185.212 547.013 185.496C548.875 185.78 549.954 184.261 549.585 182.521C549.266 180.451 548.433 178.977 548.019 178.913C547.606 178.85 546.37 180.009 545.448 181.889Z" fill="white"/>
<path fill-rule="evenodd" clip-rule="evenodd" d="M498.405 178.073C496.498 179.465 495.833 181.048 496.868 181.206C498.109 181.395 500.635 180.097 502.542 178.704C504.448 177.311 505.32 175.761 504.079 175.571C503.045 175.413 500.311 176.68 498.405 178.073Z" fill="white"/>
<path fill-rule="evenodd" clip-rule="evenodd" d="M556.422 186.261C556.17 187.906 557.417 189.444 559.072 189.697C560.727 189.95 562.376 188.854 562.627 187.208C562.828 185.892 561.582 184.354 559.927 184.101C558.272 183.849 556.623 184.944 556.422 186.261Z" fill="white"/>
<path fill-rule="evenodd" clip-rule="evenodd" d="M567.765 192.37C563.858 197.163 563.757 197.821 568.42 200.554C573.496 203.35 578.549 200.754 574.194 197.394C573.104 196.217 572.578 194.116 573.4 192.894C576.53 187.647 572.136 187.312 567.765 192.37Z" fill="white"/>
<path fill-rule="evenodd" clip-rule="evenodd" d="M546.007 192.079C545.135 193.63 545.711 195.402 547.573 195.687C549.435 195.971 550.513 194.452 550.144 192.711C549.826 190.642 548.993 189.167 548.579 189.104C548.165 189.041 546.93 190.199 546.007 192.079Z" fill="white"/>
<path fill-rule="evenodd" clip-rule="evenodd" d="M594.165 202.466C593.863 204.441 594.339 206.871 595.429 208.048C596.519 209.225 596.927 207.94 596.709 205.212C596.166 199.067 594.869 197.858 594.165 202.466Z" fill="white"/>
<path fill-rule="evenodd" clip-rule="evenodd" d="M605.501 207.228C605.367 212.26 607.548 214.614 613.396 216.517C625.348 220.027 623.86 210.369 611.483 204.1C605.993 201.24 605.322 201.475 605.501 207.228Z" fill="white"/>
<path fill-rule="evenodd" clip-rule="evenodd" d="M629.964 211.975C630.283 214.045 629.21 216.912 627.51 218.337C625.14 219.996 625.403 221.046 628.919 221.584C632.022 222.057 633.772 220.304 634.476 215.696C635.029 212.076 634.034 208.892 632.172 208.608C630.517 208.355 629.439 209.874 629.964 211.975Z" fill="white"/>
<path fill-rule="evenodd" clip-rule="evenodd" d="M637.099 212.393C636.495 216.342 641.941 220.879 645.032 218.656C646.474 217.53 646.569 215.523 645.166 213.625C641.996 209.436 637.652 208.772 637.099 212.393Z" fill="white"/>
<path fill-rule="evenodd" clip-rule="evenodd" d="M650.148 218.426C647.319 221.699 645.732 225.162 646.151 226.574C646.828 227.687 647.549 227.124 647.85 225.149C648.202 222.845 649.488 221.357 650.522 221.515C651.764 221.705 652.082 223.774 651.574 225.718C650.808 227.958 652.524 230.578 655.113 231.647C658.272 233.14 659.457 232.311 658.875 229.19C658.087 226.039 659.171 225.867 662.85 228.113C665.595 229.543 668.748 229.688 669.67 227.808C670.542 226.257 672.448 224.864 673.483 225.022C674.724 225.212 674.936 226.591 674.114 227.813C672.113 231.212 680.891 241.647 683.205 238.969C684.027 237.748 683.35 236.634 681.489 236.349C679.627 236.065 677.547 233.053 677.016 229.604C676.272 224.775 673.214 222.623 666.282 220.891C660.747 219.709 656.191 217.665 655.615 215.893C655.196 214.482 652.719 215.451 650.148 218.426Z" fill="white"/>
<path fill-rule="evenodd" clip-rule="evenodd" d="M231.537 386.889C231.285 388.535 232.219 389.351 233.661 388.225C235.053 387.427 236.764 388.698 237.446 391.16C238.341 395.002 238.805 394.736 239.509 390.128C240.012 386.837 238.709 384.28 236.227 383.901C233.951 383.553 231.838 384.915 231.537 386.889Z" fill="white"/>
<path fill-rule="evenodd" clip-rule="evenodd" d="M870.099 502.273C871.408 506.178 872.705 507.386 873.47 505.145C874.186 503.234 875.578 502.436 876.411 503.91C877.294 505.056 881.851 507.099 886.507 508.484C899.444 512.481 893.574 505.185 879.91 500.403C868.472 496.299 868.008 496.565 870.099 502.273Z" fill="white"/>
<path fill-rule="evenodd" clip-rule="evenodd" d="M449.976 446.525C450.295 448.594 447.919 448.905 443.776 446.925C440.204 445.369 436.38 445.459 435.251 447.307C434.329 449.187 437.437 451.009 443.9 451.66C452.38 452.955 453.979 452.189 452.671 448.284C450.736 442.936 448.819 441.633 449.976 446.525Z" fill="white"/>
<path fill-rule="evenodd" clip-rule="evenodd" d="M553.93 465.77C553.629 467.745 555.239 469.675 557.721 470.054C559.996 470.401 561.036 471.908 560.114 473.788C559.242 475.338 559.197 477.016 560.439 477.205C561.473 477.363 563.379 475.97 564.251 474.419C565.173 472.539 567.029 471.476 568.064 471.634C569.305 471.823 569.31 473.171 568.388 475.051C565.772 479.704 568.612 479.127 572.676 474.696C575.555 471.094 574.828 470.309 568.879 469.064C564.793 468.103 559.979 466.357 558.062 465.054C555.988 463.39 554.232 463.795 553.93 465.77Z" fill="white"/>
<path fill-rule="evenodd" clip-rule="evenodd" d="M625.271 483.74C624.668 487.69 625.713 490.544 627.988 490.891C631.091 491.365 631.192 490.707 628.955 487.334C626.876 484.322 627.34 484.056 631.169 485.315C634.171 486.447 636.698 485.149 637.564 482.25C638.995 478.426 638.788 478.395 636.58 481.763C634.68 484.504 633.595 484.675 633.17 481.915C631.593 475.612 626.327 476.828 625.271 483.74Z" fill="white"/>
<path fill-rule="evenodd" clip-rule="evenodd" d="M518.744 467.469C519.113 469.209 520.93 471.171 522.585 471.424C524.24 471.676 525.732 470.22 525.984 468.575C526.286 466.6 524.625 464.999 522.143 464.62C519.868 464.272 518.425 465.399 518.744 467.469Z" fill="white"/>
<path fill-rule="evenodd" clip-rule="evenodd" d="M756.256 503.41C751.622 507.417 753.087 511.683 759.605 513.352C764.262 514.737 766.688 514.097 767.191 510.805C767.895 506.198 759.655 500.561 756.256 503.41Z" fill="white"/>
<path fill-rule="evenodd" clip-rule="evenodd" d="M576.158 479.607C576.527 481.348 578.551 483.341 580.413 483.625C583.515 484.099 583.616 483.441 581.329 480.397C577.846 475.487 575.157 475.076 576.158 479.607Z" fill="white"/>
<path fill-rule="evenodd" clip-rule="evenodd" d="M743.706 505.198C742.834 506.749 742.996 508.457 744.03 508.615C745.271 508.805 746.557 507.317 746.808 505.672C747.11 503.697 746.898 502.317 746.484 502.254C745.863 502.159 744.628 503.318 743.706 505.198Z" fill="white"/>
<path d="M877.898 328.572C879.351 330.141 881.314 329.767 882.186 328.216C883.315 326.368 882.068 324.83 879.793 324.483C874.622 323.693 873.906 325.605 877.898 328.572Z" fill="white"/>
<path d="M889.022 345.678C891.353 347.044 893.679 347.063 894.551 345.512C896.552 342.112 891.626 338.329 888.021 341.146C885.908 342.508 886.12 343.887 889.022 345.678Z" fill="white"/>
<path fill-rule="evenodd" clip-rule="evenodd" d="M898.985 155.018C899.592 153.115 898.304 150.957 895.911 150.194C893.718 149.495 892.927 147.844 894.132 146.132C895.237 144.737 895.543 143.087 894.347 142.706C893.35 142.388 891.25 143.465 890.145 144.861C888.94 146.573 886.94 147.333 885.944 147.015C884.748 146.634 884.953 145.302 886.158 143.589C889.471 139.403 886.575 139.528 881.868 143.269C878.461 146.376 879.056 147.265 884.736 149.426C888.621 151.014 893.102 153.492 894.792 155.079C896.58 157.047 898.377 156.922 898.985 155.018Z" fill="white"/>
</svg>
