<svg width="700" height="377" viewBox="0 0 700 377" fill="none" xmlns="http://www.w3.org/2000/svg">
<path d="M252.074 191.455H277.453V223.813H252.074V253.326H208.718V223.813H107.414V193.036L196.663 95.2236H252.074V191.455ZM208.718 129.057L152.039 191.455H208.718V129.057Z" fill="#414143"/>
<path d="M376.927 182.775C369.842 181.925 372.109 186.458 362.474 182.775C360.321 181.952 353.685 174.558 350.287 177.108C346.889 179.658 348.734 174.589 348.87 172.291C349.154 167.522 342.537 163.83 338.668 163.508C331.867 162.942 333.284 184.248 333.284 185.608C333.284 187.308 348.871 211.392 349.721 211.675C350.571 211.959 378.627 230.659 379.478 231.509C380.158 232.189 406.212 235.381 419.153 236.892L446.076 207.425C442.959 209.22 436.044 212.752 433.323 212.525C429.923 212.242 446.076 206.858 439.558 200.908C436.665 198.268 426.522 197.792 418.02 195.525C409.518 193.258 396.765 192.975 393.081 191.275C389.396 189.575 384.012 183.625 376.927 182.775Z" fill="white"/>
<path d="M483.026 149.852L483.016 149.859L483.005 149.867L469.308 160.27C467.275 161.813 466.279 164.306 466.51 166.778C466.818 170.065 466.916 173.344 466.804 176.597C466.718 179.1 467.877 181.552 470.029 182.969L484.822 192.711C485.367 193.096 485.563 193.714 485.424 194.273L475.607 220.03C475.353 220.628 474.744 220.926 474.276 220.848L474.25 220.844L474.223 220.84L456.603 218.395C454.083 218.045 451.633 219.103 450.061 221.008C448.16 223.313 446.121 225.498 443.944 227.546C442.126 229.256 441.215 231.814 441.741 234.354L445.065 250.404L445.066 250.408C445.186 250.985 444.909 251.572 444.308 251.864L419.168 263.122L419.149 263.131L419.132 263.139C418.594 263.393 417.995 263.229 417.669 262.781L417.66 262.77L417.652 262.759L407.977 249.893C406.416 247.817 403.891 246.827 401.41 247.086C398.229 247.419 395.033 247.522 391.877 247.415C389.388 247.33 386.946 248.496 385.536 250.668L376.087 265.231C376.086 265.233 376.084 265.235 376.083 265.237C375.771 265.702 375.125 265.93 374.553 265.706L374.549 265.704L374.545 265.703L348.856 255.794C348.262 255.538 347.966 254.926 348.043 254.455L348.046 254.437L348.049 254.418L350.519 237.426C350.899 234.816 349.793 232.287 347.837 230.69C345.228 228.561 342.763 226.197 340.443 223.656C338.749 221.799 336.192 220.879 333.662 221.41L317.008 224.909L317.005 224.91C316.43 225.031 315.847 224.752 315.557 224.148L304.365 198.856L304.358 198.838L304.349 198.82C304.097 198.28 304.259 197.677 304.704 197.349L304.714 197.342L304.724 197.335L318.674 186.758C320.696 185.225 321.691 182.756 321.49 180.304C321.244 177.316 321.188 174.314 321.304 171.348C321.404 168.829 320.24 166.358 318.073 164.936L304.077 155.75C303.616 155.436 303.389 154.787 303.612 154.212L303.613 154.208L303.615 154.203L313.465 128.361C313.718 127.763 314.327 127.464 314.796 127.543L314.819 127.547L314.842 127.55L331.406 129.902C333.949 130.263 336.421 129.19 337.998 127.263C340.021 124.792 342.238 122.427 344.612 120.222C346.455 118.511 347.38 115.931 346.847 113.373L343.138 95.6034L343.138 95.6024C343.018 95.0263 343.293 94.4405 343.892 94.1483L369.027 83.0506L369.049 83.0406L369.072 83.0302C369.609 82.7756 370.209 82.9402 370.535 83.3876L370.543 83.3987L370.551 83.4097L381.696 98.2443C383.219 100.273 385.67 101.27 388.102 101.068C391.091 100.82 394.1 100.763 397.096 100.883C399.597 100.983 402.049 99.8119 403.461 97.6354L412.748 83.3183C412.749 83.3162 412.75 83.3141 412.751 83.3124C413.063 82.8481 413.71 82.6197 414.282 82.8436L414.286 82.8453L414.29 82.8467L439.978 92.7559C440.573 93.0112 440.869 93.6236 440.791 94.0945L440.787 94.1183L440.784 94.1421L438.355 111.519C438.006 114.018 439.014 116.461 440.872 118.047C443.004 119.868 445.047 121.801 446.985 123.861C448.686 125.667 451.214 126.561 453.716 126.034L470.724 122.45L470.726 122.45C471.301 122.328 471.885 122.608 472.174 123.213L483.367 148.348L483.374 148.365L483.381 148.381C483.634 148.92 483.471 149.523 483.026 149.852ZM414.547 220.566C440.032 209.189 451.5 179.104 440.195 153.471C428.888 127.752 398.981 116.211 373.498 127.667C348.013 139.045 336.546 169.13 347.852 194.764C359.161 220.403 389.067 231.94 414.547 220.566Z" fill="#C9FF22" stroke="#414143" stroke-width="2"/>
<path d="M602.794 95.2236V134.749V174.275V253.326H559.491V110.401L579.77 129.163L511.54 141.179V107.45L570.686 95.2236H602.794Z" fill="#414143"/>
<path fill-rule="evenodd" clip-rule="evenodd" d="M240.608 31.3964C238.598 31.9639 232.323 31.6614 226.581 30.5658C220.839 29.4702 215.94 29.1591 215.406 29.9523C215.007 30.766 212.891 30.2242 210.605 29.0003C208.485 27.5833 205.966 26.9801 205.063 27.498C204.126 28.2296 201.644 28.2878 199.394 27.7254C197.31 26.9699 193.286 27.2297 190.538 28.122C187.119 28.9118 185.239 28.6247 184.259 26.9444C183.279 25.2641 181.937 25.0589 179.527 26.4401C176.917 28.2282 176.547 27.953 177.679 25.9394C178.779 24.1394 177.904 23.5685 173.847 24.0421C170.929 24.2524 167.848 25.5309 167.216 26.965C166.483 28.165 165.645 28.2558 165.405 27.1259C165.064 25.7618 146.663 22.0766 146.435 23.5723C146.337 24.2133 140.704 25.1023 139.125 24.6425C133.718 23.1605 130.328 22.8615 121 22.7488C110.969 22.7473 105.268 23.1883 105.17 23.8293C105.104 24.2567 94.0676 24.539 88.6309 24.1459C86.4497 24.0314 83.6007 24.6896 82.6644 25.4212C81.5611 26.346 80.2183 26.1408 79.5105 25.3767C78.9371 24.6331 75.6489 24.5682 72.3318 25.5921C68.9131 26.3819 64.8555 26.8557 63.1098 26.589C61.4984 26.3429 59.6221 26.9308 59.056 27.9376C58.4899 28.9444 55.9421 29.43 53.3907 29.0403C50.8393 28.6506 48.6944 29.1977 48.5312 30.266C48.3353 31.5481 47.1957 31.8113 45.7838 31.1583C44.372 30.5053 41.7953 32.0797 39.7268 34.8249C35.7893 39.9087 34.6645 43.6728 36.9473 44.0214C37.6187 44.124 38.1522 43.3308 37.9126 42.2009C37.1285 39.2386 40.4129 38.4284 45.9913 40.5924C48.746 41.4505 50.6334 43.4879 50.4048 44.9836C50.1437 46.693 52.0273 47.8553 55.9543 48.2364C61.7612 48.9047 63.9966 45.9663 58.3566 45.1049C53.5224 44.3665 57.2713 42.3152 63.1762 42.3425C68.377 42.4809 68.6129 42.7356 67.764 48.2911L66.8824 54.0601L70.6456 47.4193C72.7104 43.7989 74.9822 41.5218 75.5557 42.2653C76.2635 43.0294 76.9312 42.2568 77.2251 40.3337C77.5189 38.4107 78.3209 37.6585 78.8944 38.4021C79.5695 39.3799 79.6096 40.9165 79.0434 41.9234C78.3431 42.9097 79.8239 44.0105 81.9724 44.3387C84.3896 44.7079 86.2985 43.9063 86.5597 42.197C86.8209 40.4876 87.3254 40.7831 87.8046 43.0429C88.2149 44.8549 88.821 45.3848 89.0169 44.1028C89.2128 42.8207 90.316 41.896 91.3903 42.0601C92.4646 42.2242 93.274 43.2225 93.1107 44.2908C92.9475 45.3592 94.0217 45.5233 95.5278 44.66C96.8997 43.7763 100.591 43.9027 103.748 44.8223C106.906 45.7419 110.495 45.634 111.631 44.4955C113.235 42.9913 113.772 43.0735 113.849 45.2717C114.059 47.4905 115.134 47.6545 119.322 46.3263C123.945 44.8459 124.584 45.1621 124.127 48.1535C123.771 51.3791 123.906 51.3997 126.04 48.227C127.44 46.2544 128.78 45.5842 129.019 46.7141C129.669 49.656 127.245 55.6267 125.634 55.3806C124.962 55.278 124.294 56.0508 124.164 56.9055C124.033 57.7602 125.982 58.4952 128.599 58.4576C132.758 58.2182 133.393 57.659 134.042 52.5104C134.525 47.5549 135.16 46.9961 139.824 47.0525C142.977 47.0969 144.76 48.0249 144.531 49.5206C144.302 51.0163 143.399 51.5344 142.422 50.7293C141.21 49.6695 140.778 50.6968 140.691 53.9634C140.674 57.6779 140.474 58.0846 139.657 55.3359C138.702 51.6916 136.293 53.0728 137.215 56.9309C137.832 60.0864 141.458 60.6401 141.882 57.8624C142.078 56.5803 142.88 55.8282 143.551 55.9307C144.357 56.0538 144.564 57.3975 144.234 58.659C143.737 60.1137 144.412 61.0913 145.552 60.828C146.691 60.5648 150.415 60.4776 153.837 60.563C157.292 60.4348 161.553 60.4297 163.466 60.5032C166.082 60.4655 166.917 59.4996 167.138 56.2535C167.261 53.6484 167.661 52.8347 168.104 54.4329C169.773 60.5918 179.155 65.7421 179.874 61.0413C180.168 59.1183 178.487 58.4242 173.824 58.3679C171.777 58.2739 170.866 57.0416 171.159 55.1185C171.453 53.1955 171.312 51.4246 170.872 50.7015C170.266 50.1716 170.803 50.2537 171.812 50.8451C179.079 55.4535 181.093 55.7611 180.81 52.2193C180.632 49.7869 180.998 49.1869 182.345 50.2672C183.187 51.0518 183.931 52.4771 183.768 53.5455C183.604 54.6139 185.219 55.7353 187.368 56.0634C189.517 56.3916 191.705 58.2565 192.384 60.1094C193.03 62.176 194.478 63.4905 195.65 63.0135C196.688 62.5161 197.429 63.0666 197.298 63.9213C196.906 66.4854 201.501 66.0939 202.463 63.3982C202.894 62.3709 201.112 61.4425 198.26 61.2255C194.133 61.2512 193.661 60.7419 195.396 58.3829C196.43 57.0103 198.742 56.27 200.39 57.1777C202.07 57.8717 204.016 57.7315 204.614 56.511C205.347 55.311 206.454 55.2616 207.129 56.2393C207.906 57.4513 209.554 58.3588 211.031 58.5844C214.523 59.1177 216.163 66.3654 213.22 68.5398C211.816 69.6372 212.357 70.5945 215.079 71.6663L218.977 73.1361L216.766 66.0201C214.145 57.0921 214.207 55.7895 217.832 56.3433C220.115 56.692 220.355 57.8219 219.165 62.0133C218.076 66.4388 218.352 68.2303 221.081 71.0524C223.542 73.8335 224.45 74.1909 225.313 72.1362C226.01 70.2747 226.95 70.4181 229.378 73.4129C231.973 76.2145 232.881 76.5717 234.046 74.3444C234.946 72.9512 236.049 72.0266 236.72 72.1291C238.669 72.8641 238.781 67.6335 236.796 66.237C235.82 65.4319 235.217 65.777 235.624 66.7138C236.538 68.8214 233.272 74.0077 231.258 73.7C230.452 73.577 230.412 72.0403 231.211 70.4129C232.107 68.1446 231.566 67.1873 229.149 66.8181C224.718 66.1413 225.309 63.1704 230.23 60.6421C233.645 58.9771 234.016 59.2524 232.785 61.9071C231.856 64.3891 232.328 64.8985 235.043 64.2199C237.188 63.6728 239.373 64.6624 240.454 66.5769C241.739 68.9597 242.142 69.0215 241.63 66.9754C240.4 61.5396 243.064 64.7891 245.543 71.9462C247.445 77.4845 248.523 78.5236 249.655 76.51C250.588 74.9031 250.552 74.2417 249.615 74.9733C248.679 75.705 247.935 74.2793 247.891 71.8673C247.844 68.5802 248.744 67.1871 251.291 66.7016C255.414 65.8007 257.236 68.2656 253.992 70.6126C252.754 71.5169 251.989 72.9305 252.294 73.6331C253.343 75.7612 257.727 73.151 258.216 69.9459C258.771 66.3135 261.758 66.5511 263.384 70.2981C264.198 72.1715 264.735 72.2535 264.963 70.7578C265.127 69.6895 266.869 69.0807 268.952 69.8362C273.387 71.3883 277.709 70.0807 277.161 67.373C276.787 66.2226 277.589 65.4704 278.664 65.6345C280.006 65.8396 280.518 67.8857 280.126 70.4497C279.604 73.8685 278.802 74.6208 277.053 73.479C275.539 72.5919 274.066 73.2415 273.369 75.103C271.609 79.426 271.475 79.4055 275.565 78.7183C278.214 78.4669 278.955 79.0172 278.022 80.6241C277.289 81.824 277.394 82.9334 278.066 83.0359C278.872 83.159 279.706 82.1932 279.902 80.9112C280.131 79.4155 281.539 79.1934 283.488 79.9284C285.27 80.8565 287.215 80.7162 287.749 79.9231C288.315 78.9162 286.834 77.8154 284.685 77.4872C282.402 77.1385 280.686 75.783 280.849 74.7147C281.045 73.4326 282.115 72.7215 283.19 72.8856C284.264 73.0497 285.4 71.9114 285.628 70.4157C286.024 68.7268 286.394 69.0019 287.276 71.3232C288.5 75.0086 299.518 78.4408 299.975 75.4494C300.269 73.5264 308.061 75.5912 308.944 77.9125C309.248 78.615 307.303 78.7552 304.617 78.345C300.186 77.6682 299.551 78.2271 299.101 82.9689C298.684 87.4971 298.92 87.7517 301.159 85.6885C302.495 84.1432 305.206 82.5894 307.216 82.0218C310.533 80.9979 310.668 81.0184 308.233 84.3636C305.798 87.7089 305.899 87.9432 308.882 87.3056C310.624 86.697 311.935 87.1157 311.771 88.184C311.314 91.1754 315.383 93.3275 317.622 91.2642C318.758 90.1258 321.774 89.2746 324.191 89.6438C329.729 90.271 331.704 89.0419 329.78 86.3428C328.531 84.6215 328.731 84.2146 330.611 84.5018C331.954 84.7069 332.89 83.9752 332.651 82.8453C332.411 81.7154 334.218 80.6795 336.632 80.1735C339.448 79.729 341.263 80.4435 341.706 82.0418C342.014 83.6195 343.292 84.2522 344.598 83.7958C345.937 83.1257 346.812 83.6964 346.616 84.9784C346.42 86.2604 347.295 86.8313 348.467 86.3544C349.639 85.8775 351.715 84.8828 353.189 84.2332C354.662 83.5836 355.134 84.093 354.401 85.293C353.668 86.493 353.944 88.2843 355.055 89.1099C356.031 89.915 356.601 89.7833 356.361 88.6534C356.121 87.5235 357.998 86.9356 360.516 87.539C363.035 88.1424 364.65 89.2637 364.117 90.0569C363.685 91.0842 364.527 91.8687 366.139 92.1148C367.884 92.3814 368.821 91.6498 368.378 90.0516C368.069 88.4738 368.977 88.831 370.595 90.8275C373.764 94.3727 377.829 95.6497 380.739 93.689C381.708 92.7437 383.657 93.4786 384.939 94.9862C386.456 96.7486 387.396 96.8921 387.624 95.3964C387.787 94.3281 389.562 93.5058 391.711 93.834C393.725 94.1417 394.534 95.14 393.598 95.8717C392.226 96.7554 392.165 98.058 393.214 100.186C394.499 102.569 394.767 102.61 395.192 99.8321C395.747 96.1997 398.026 95.6732 398.309 99.215C398.454 101.861 409.159 94.7407 409.518 92.3904C409.91 89.8263 413.867 87.7977 414.619 90.9737C414.619 90.9737 421.361 97.4216 423.404 96.6404C425.146 96.0318 423.805 106.826 425.987 106.941C429.678 107.067 429.779 107.302 427.239 109.538C423.897 112.526 424.165 112.567 430.498 110.691C434.519 109.556 435.663 110.168 436.683 113.385C437.568 116.582 437.837 116.623 437.724 113.763C437.514 111.544 438.247 110.344 439.455 110.529C440.529 110.693 441.07 111.65 440.504 112.657C439.971 113.45 440.512 114.407 441.586 114.571C442.794 114.756 443.636 115.541 443.506 116.395C443.114 118.959 450.097 120.026 453.545 118.147C455.218 117.091 456.056 117 455.388 117.773C454.721 118.545 455.269 121.253 456.554 123.636L458.92 127.933L456.162 126.2C454.514 125.292 452.064 125.137 450.758 125.593C448.548 126.568 448.482 126.995 449.833 128.95C450.744 130.183 452.693 130.918 454.268 130.503C456.01 129.894 456.482 130.403 455.716 131.817C454.25 134.217 456.199 134.952 461.193 133.747C465.079 132.591 465.87 129.213 462.081 129.728C460.539 129.93 459.664 129.359 460.23 128.352C460.797 127.345 462.807 126.778 464.52 127.258C466.233 127.738 467.144 128.971 466.745 129.785C466.212 130.578 466.887 131.555 468.095 131.74C469.438 131.945 470.012 132.688 469.377 133.247C468.175 134.813 471.297 143.162 472.702 142.064C473.438 141.74 473.899 139.624 473.823 137.425C473.608 134.331 473.743 134.352 474.425 137.08C474.97 138.912 475.079 140.897 474.545 141.69C473.38 143.917 484.733 146.963 486.972 144.9C488.275 143.569 488.747 144.078 488.355 146.642C487.963 149.206 489.175 150.266 493.574 151.156C498.779 152.17 498.913 152.19 495.16 153.366C492.849 154.107 490.264 153.931 489.39 153.36C488.548 152.575 486.301 152.888 484.628 153.944C482.821 154.98 480.741 155.1 480.066 154.122C477.671 150.914 466.859 148.825 462.573 150.794C459.593 152.307 458.25 152.102 457.067 149.953C456.221 148.294 455.045 147.895 454.479 148.902C453.347 150.916 449.351 150.087 447.293 147.367C446.484 146.369 445.747 146.694 445.551 147.976C445.323 149.472 483.883 158.638 478.406 156.708C475.397 155.672 497.088 162.941 497.088 162.941C497.088 171.441 481.218 206.859 481.218 206.859C479.689 211.005 477.25 217.625 476.116 220.459C475.724 221.275 474.699 221.479 474.699 221.479C468.748 220.742 465.631 220.175 461.096 219.609C456.562 218.759 454.861 218.759 454.011 219.042C453.6 219.179 452.054 219.961 450.894 221.025C448.627 223.859 443.383 228.603 442.505 230.942C441.748 232.961 442.861 236.903 443.639 240.576C444.659 245.392 445.509 249.359 445.679 250.776C445.679 251.311 445.226 252.053 444.943 252.192C444.397 252.383 433.89 257.009 432.19 257.859C430.577 258.665 423.688 261.826 418.87 263.809C418.663 263.885 418.479 263.864 418.104 263.809C417.159 263.671 414.276 258.871 411.218 255.026C409.501 252.867 407.575 250.106 406.4 249.076C405.397 248.196 403.72 247.726 403 247.659C401.866 247.659 400.679 247.942 397.048 247.942C387.979 247.942 388.546 249.076 387.696 249.359C386.846 249.642 384.943 252.544 382.028 257.009C379.066 261.545 376.678 266.971 374.943 266.359C370.125 264.659 361.057 260.976 355.672 258.993C353.405 258.426 348.001 255.89 347.805 255.593C347.691 255.421 347.451 255.078 347.454 254.459C347.737 252.476 348.133 248.965 348.87 244.826C349.38 241.967 350.213 238.212 350.004 234.909C349.437 232.359 346.202 230.248 343.203 227.259C340.935 224.999 339.358 222.744 337.251 222.159C333.284 221.309 328.443 223.348 323.648 224.085C319.964 224.652 316.28 226.125 315.429 224.992C312.879 219.325 310.045 213.092 308.911 210.542C308.129 208.273 304.919 201.68 303.81 198.925C303.518 198.199 303.81 197.508 304.094 197.225C304.377 196.942 311.178 191.842 313.162 190.142C319.114 185.892 319.808 185.508 320.531 183.342C321.253 181.175 320.814 172.575 320.531 169.741C320.247 166.908 318.263 165.491 315.429 163.791C312.595 162.091 308.922 159.611 306.361 157.841C304.758 156.734 302.96 156.141 302.96 154.441C306.361 145.091 308.911 138.858 310.895 133.474C312.254 129.787 307.622 128.844 306.744 129.18C304.465 129.706 302.483 129.185 301.772 127.546C301.06 125.907 300.12 125.763 298.683 127.074C298.019 127.631 271.786 136.308 266.968 133.191C262.151 130.074 255.219 140.948 251.948 139.708L251.948 191.558L277.454 191.558C277.454 191.558 277.454 216.492 277.454 223.802C277.454 223.802 258.75 223.859 252.062 223.802C252.062 225.502 252.062 246.242 252.062 246.242L226.177 237.355L215.228 236.345C217.539 226.814 208.872 223.859 208.872 223.859L208.872 191.558C208.588 171.441 208.73 132.341 208.73 132.341L174.58 119.307C170.82 118.733 159.535 115.005 158.802 116.205C157.935 117.384 157.532 117.323 157.793 115.613C158.054 113.904 155.837 113.128 151.039 113.051C133.121 112.501 118.422 111.568 109.527 110.428C104.257 109.842 99.4263 109.978 98.7586 110.751C98.0908 111.524 96.9839 111.573 96.1418 110.789C95.2998 110.004 93.1913 111.213 91.4566 113.572C89.7546 115.717 87.7151 117.373 86.7751 117.23C84.6265 116.901 78.2793 123.367 77.8222 126.358C77.6263 127.64 78.374 129.941 79.5536 131.214C80.6679 132.915 80.8423 134.472 79.9059 135.204C77.968 137.095 76.2881 144.491 78.1607 143.028C78.9301 142.489 79.402 142.999 79.2061 144.281C79.0428 145.349 78.1755 146.529 77.3045 146.833C75.998 147.289 75.7694 148.785 76.4556 152.388C77.0765 156.419 78.423 157.499 83.0214 157.983C86.1099 158.455 90.6793 160.027 93.0348 161.699C98.6206 165.613 104.765 166.77 102.402 163.348C100.918 161.372 101.117 160.965 103.132 161.273C104.34 161.458 105.251 162.69 105.055 163.972C104.859 165.254 106.003 165.866 107.61 165.237C109.352 164.628 110.361 165.22 110.1 166.929C109.839 168.639 110.543 168.528 112.448 166.851C114.553 164.767 115.09 164.849 115.301 167.068C115.377 169.266 115.914 169.348 117.82 167.671C119.123 166.339 119.827 166.228 119.529 167.276C118.306 171.681 118.949 172.873 121.221 170.596C123.158 168.705 123.561 168.767 123.202 171.117C122.941 172.826 123.845 172.308 125.445 169.929C127.112 167.414 127.807 169.356 127.459 170.237C127.112 171.117 125.553 173.141 125.553 173.141L127.112 171.441L129.52 168.891C129.52 168.891 148.791 147.924 150.775 145.658C152.759 143.391 174.58 119.307 174.58 119.307L206.522 131.498L151.909 191.558L165.228 191.558C165.446 191.433 203.771 191.558 208.872 191.558L208.872 223.859C208.872 223.859 171.746 223.859 162.394 223.813C162.394 223.813 148.242 223.811 145.957 223.811C142.84 223.811 135.794 223.811 131.475 223.811C131.985 225.397 133 226.148 134.504 225.759C143.185 223.805 144.764 224.264 146.931 228.969C150.045 235.567 151.99 235.427 152.298 228.914C152.479 224.131 152.98 223.551 156.337 224.064C158.486 224.392 161.055 224.484 162.394 223.813C163.528 223.859 163.811 224.425 162.693 227.44C160.795 230.867 160.566 232.363 161.677 233.189C162.417 233.739 162.657 234.869 162.258 235.683C161.724 236.476 161.996 237.392 162.936 237.536C163.876 237.679 166.297 238.924 168.616 239.934C170.936 240.944 173.251 241.079 173.85 239.859C174.416 238.852 176.056 238.009 177.265 238.194C179.279 238.501 179.214 238.929 177.174 240.585C175.269 242.262 175.236 242.476 177.414 241.715C178.855 241.279 180.698 240.905 181.37 241.007C182.176 241.13 182.473 240.082 182.233 238.952C182.026 237.609 182.291 236.775 182.828 236.857C183.5 236.959 184.313 238.833 184.926 241.113C185.475 243.821 187.529 245.665 189.913 246.248C192.196 246.597 193.906 246.202 193.666 245.072C193.426 243.942 193.891 242.701 194.827 241.969C195.597 241.431 196.137 242.388 195.876 244.098C195.582 246.021 196.294 247.66 197.368 247.824C198.577 248.008 199.175 246.788 198.997 244.356C198.75 241.475 199.219 241.11 200.801 242.445C202.013 243.504 203.124 244.33 203.527 244.391C203.795 244.432 203.433 245.908 202.769 247.555C201.97 249.183 202.145 250.74 202.95 250.863C203.756 250.986 204.591 250.02 204.754 248.952C204.95 247.67 206.826 247.082 208.975 247.41C211.257 247.759 213.569 247.019 214.135 246.012C215.834 242.991 217.558 246.097 216.063 249.586C215.301 251.875 215.842 252.832 217.99 253.16C220.542 253.55 220.875 253.164 219.525 251.208C218.614 249.976 218.44 248.419 218.973 247.625C219.641 246.853 218.926 244.338 217.539 241.721C213.823 235.468 215.228 236.345 215.228 236.345L226.177 237.355C223.843 237.479 223.172 240.832 223.843 240.935C224.515 241.037 226.947 238.023 226.177 237.355L252.062 246.242L252.062 253.326C246.619 253.326 230.656 253.326 228.71 253.326C228.143 253.326 227.293 253.326 227.293 253.326C227.293 253.326 227.346 252.184 225.898 250.87C224.686 249.81 224.308 247.784 224.94 246.35C225.604 244.702 225.263 243.338 224.323 243.195C223.248 243.03 222.45 244.658 222.363 247.924C222.313 251.853 223.224 253.085 227.053 254.107C229.673 254.945 233.872 256.242 236.224 257.039C239.349 258.172 240.924 257.757 241.853 255.274C242.879 252.759 243.446 253.326 244.473 256.112C245.428 259.756 248.016 260.807 265.005 263.84C280.146 266.371 284.777 266.641 286.345 264.475C287.913 262.31 287.876 261.648 286.131 261.381C284.922 261.197 284.145 259.985 284.309 258.916C284.766 255.925 286.446 256.619 288.98 260.723C291.952 265.55 295.375 265.636 297.033 261.079C297.995 258.383 299.232 257.479 300.31 258.518C301.421 259.344 302.19 258.805 302.183 257.055C302.175 255.304 303.58 254.207 305.66 254.087L309.082 254.172L305.496 255.156C303.05 255.875 302.35 256.862 303.362 258.328C304.038 259.306 305.515 259.532 306.585 258.82C307.656 258.109 307.758 258.344 306.992 259.757C306.226 261.171 303.78 261.89 301.363 261.521C297.737 260.967 297.403 261.354 298.623 264.164C299.436 266.037 302.234 269.307 304.761 271.661C308.768 275.116 309.573 275.239 310.637 272.777C311.301 271.129 312.603 269.798 313.678 269.962C314.618 270.105 314.959 271.47 314.328 272.904C313.631 274.765 314.81 276.039 318.135 276.765C322.603 278.104 322.937 277.717 321.681 274.246C320.457 270.56 320.624 270.367 323.281 271.866C324.762 272.967 326.17 272.745 326.398 271.249C326.594 269.967 327.03 269.815 327.469 270.538C328.351 272.859 332.459 268.458 331.911 265.75C331.57 264.386 332.441 264.081 334.023 265.416C335.504 266.517 336.778 266.274 336.974 264.992C337.17 263.71 338.273 262.786 339.347 262.95C340.422 263.114 341.231 264.112 341.1 264.967C340.97 265.822 342.483 266.709 344.664 266.823C346.813 267.151 349.002 269.016 350.087 271.806C351.92 276.896 351.833 280.163 349.819 279.855C349.147 279.753 348.806 278.389 349.303 276.934C349.633 275.673 349.024 274.267 347.949 274.103C346.875 273.939 345.394 272.838 344.687 272.074C344.011 271.097 343.242 271.635 342.981 273.344C342.72 275.054 343.565 276.713 344.908 276.919C346.251 277.124 347.598 278.204 347.805 279.548C348.044 280.677 349.692 281.585 351.369 281.404C353.078 281.009 355.158 280.889 356.098 281.033C357.07 280.963 357.702 279.529 357.56 277.758C357.284 275.966 356.642 274.775 356.007 275.334C355.371 275.893 354.696 274.915 354.522 273.358C354.413 271.373 355.451 270.876 358.104 271.5C360.891 272.144 362.096 271.454 362.59 269.124C362.916 266.987 363.384 266.621 363.424 268.158C363.599 269.715 364.575 270.52 365.613 270.023C366.785 269.546 367.696 270.778 367.94 272.783C368.049 274.768 368.825 275.98 369.762 275.248C370.531 274.71 372.211 275.404 373.525 276.698C375.042 278.46 375.95 278.817 376.581 277.383C378.04 273.233 385.546 278.971 385.332 283.967C385.18 287.661 385.481 287.489 386.333 282.809C387.055 278.983 387.854 277.355 388.932 278.395C390.042 279.22 390.021 282.06 389.03 285.844C387.677 291.104 387.916 292.234 390.334 292.603C393.825 293.136 393.956 292.282 391.72 287.13C389.992 283.149 390.024 282.935 392.213 284.8C393.93 286.155 394.365 286.003 394.086 283.337C393.908 280.904 394.71 280.152 397.127 280.521C399.007 280.808 400.321 282.102 400.125 283.384C399.929 284.666 398.924 284.95 397.813 284.124C396.735 283.085 395.966 283.624 396.038 284.947C396.187 288.468 402.873 290.583 404.404 287.755C405.17 286.342 404.934 286.087 403.997 286.818C402.76 287.723 402.419 286.359 402.843 283.581C403.333 280.376 404.168 279.41 405.278 280.236C406.254 281.041 407.528 280.798 408.025 279.343C408.722 277.482 409.361 277.798 410.78 280.201C412.37 283.287 412.907 283.369 414.406 280.755C415.872 278.355 416.141 278.396 416.925 281.358C417.335 283.17 417.941 283.7 418.104 282.632C418.3 281.35 419.11 282.348 419.723 284.629C420.471 286.929 420.453 290.644 419.724 292.719C418.962 295.008 419.071 296.992 419.876 297.115C420.682 297.238 421.484 296.486 421.647 295.418C421.843 294.136 423.15 293.68 424.46 294.098C425.937 294.324 426.547 295.729 425.883 297.377C425.251 298.811 425.458 300.155 426.264 300.278C427.07 300.401 427.904 299.435 428.068 298.367C428.264 297.085 429.603 296.414 431.214 296.661C432.691 296.886 433.366 297.864 432.768 299.084C432.202 300.091 432.173 301.18 432.978 301.303C433.65 301.406 434.651 300.247 435.283 298.813C436.146 296.758 436.549 296.82 437.7 299.182C439.326 302.929 441.576 303.491 440.756 299.867C440.346 298.055 440.781 297.903 442.465 299.472C447.18 303.691 450.74 304.672 452.406 301.865C453.673 299.872 454.242 299.74 454.787 301.573C455.063 303.364 458.993 304.621 465.203 305.35C470.473 305.937 474.806 307.255 474.643 308.323C474.512 309.178 475.151 309.494 475.921 308.955C476.857 308.224 477.354 306.769 477.114 305.639C476.465 302.697 478.682 303.473 480.003 306.518C481.528 310.03 484.442 308.945 483.52 305.087C483.212 303.509 481.19 301.451 479.107 300.696C477.023 299.94 475.074 299.205 474.672 299.144C474.301 298.868 474.969 298.096 476.207 297.191C477.611 296.094 479.593 296.615 481.444 297.991C483.16 299.347 485.647 300.164 487.087 299.728C489.131 298.947 490.042 300.179 490.427 303.955C490.843 307.226 491.2 306.989 491.497 303.244C491.718 299.998 492.314 297.902 492.753 298.625C493.326 299.369 494.059 298.169 494.353 296.246C494.875 292.827 495.01 292.848 496.904 296.636C498.291 299.253 501.151 301.22 505.045 301.815C510.417 302.635 511.124 303.4 510.569 307.032C510.112 310.023 510.653 310.98 512.261 310.351C513.567 309.895 514.74 309.418 515.143 309.48C515.411 309.521 515.473 308.218 515.331 306.447C515.048 302.905 519.399 300.509 520.118 303.898C520.325 305.242 522.274 305.977 524.419 305.43C526.832 304.924 527.605 305.261 526.437 306.613C525.602 307.579 522.989 308.492 520.608 308.784C518.26 308.863 519.639 309.729 524.038 310.62C528.604 311.317 532.226 310.996 532.991 309.582C533.891 308.189 533.285 307.659 531.307 308.013C529.431 308.601 528.691 308.05 529.355 306.402C529.819 305.161 532.298 304.228 534.748 304.384C544.246 305.178 548.202 304.471 550.001 301.684C551.5 299.071 551.903 299.132 553.025 302.584C554.284 306.93 559.09 308.758 560.955 305.544C561.521 304.537 562.795 304.294 563.738 305.313C564.983 306.159 565.818 305.193 566.275 302.202C566.798 298.783 566.257 297.826 563.876 298.118C562.065 298.279 560.25 297.565 559.575 296.587C558.595 294.907 553.452 292.59 542.263 288.476C540.448 287.762 536.416 286.271 533.189 284.904C511.145 276.289 487.964 268.812 475.943 266.539C474.096 266.038 473.083 264.572 473.377 262.649C473.638 260.939 473.33 259.361 472.658 259.259C471.987 259.156 471.276 257.517 471.167 255.533C471.025 253.762 471.29 252.927 471.997 253.691C472.571 254.435 473.805 252.656 474.799 249.746C475.626 247.03 476.86 245.251 477.466 245.78C477.906 246.503 479.444 245.427 480.776 243.006C482.075 240.799 483.578 239.061 484.249 239.163C486.398 239.491 502.119 230.668 502.38 228.959C502.511 228.104 500.588 227.128 502.38 226.627C504.173 226.125 500.563 223.009 498.788 223.493C497.013 223.977 496.135 222.442 496.135 221.025C496.135 219.609 490.703 219.042 490.703 217.342C490.703 215.642 493.12 212.525 489.709 213.375C486.298 214.225 481.218 206.859 481.218 206.859C481.218 206.859 497.088 171.441 497.088 162.941C497.088 162.941 496.43 167.191 503.613 164.075C510.795 160.958 510.05 164.981 515.324 166.442C521.672 168.068 524.841 158.682 526.278 157.371C528.049 155.674 541.167 164.034 541.581 166.721C542.13 169.429 530.862 169.259 542.715 171.726C551.008 173.211 550.216 176.156 552.837 176.994C556.397 177.975 568.685 198.357 569.512 195.641C570.506 192.732 570.64 192.752 570.285 195.978C569.962 198.99 571.24 199.622 577.315 200.332C581.376 200.733 584.668 201.673 584.538 202.528C584.211 204.665 596.431 206.531 598.906 204.723C600.144 203.818 600.539 202.129 600.027 200.083C598.764 194.861 599.395 193.427 602.35 193.878C603.827 194.104 604.872 195.357 604.676 196.639C604.513 197.707 603.91 198.053 603.203 197.288C601.853 195.333 601.294 198.09 602.285 202.396C603.174 206.468 610.063 209.051 609.409 205.234C609.235 203.676 609.573 204.165 610.386 206.039C611.812 210.192 620.011 213.194 620.533 209.775C620.697 208.707 622.471 207.884 624.587 208.426C627.676 208.898 627.745 209.346 625.4 210.3C622.755 211.426 622.722 211.64 624.675 213.25C625.887 214.31 628.101 214.211 629.607 213.348C631.113 212.484 633.327 212.385 634.303 213.19C635.515 214.25 636.419 213.732 636.68 212.023C637.039 209.672 637.341 209.5 637.922 211.994C638.23 213.572 639.141 214.804 639.845 214.693C640.549 214.582 641.322 214.918 641.693 215.194C642.063 215.469 644.818 216.327 647.975 217.246C652.341 218.351 653.615 218.108 654.174 215.351C654.631 212.359 654.798 212.166 655.179 215.067C655.666 219.077 660.435 220.243 661.828 216.52C662.292 215.279 663.697 214.181 664.771 214.345C666.383 214.591 666.419 215.253 664.884 217.205C663.316 219.371 663.755 220.094 667.08 220.821C670.942 221.629 671.141 221.222 671.181 214.668C671.366 210.761 670.915 207.412 670.309 206.882C668.727 205.547 673.637 200.393 675.92 200.742C676.994 200.906 678.398 199.809 679.03 198.375C680.126 195.699 674.72 202.899 684.131 198.87C687.078 197.57 682.801 192.84 682.997 191.558C683.52 188.14 685.146 181.403 682.997 181.075C681.923 180.911 682.732 177.23 682.224 176.059C681.614 174.654 679.527 173.023 677.61 172.074C674.384 170.707 657.329 160.012 647.236 153.222C643.635 150.704 633.415 145.645 630.627 145.001C629.956 144.898 628.845 144.072 628.138 143.308C627.597 142.351 628.388 153.817 625.565 152.511C622.774 150.992 619.95 149.686 619.177 149.349C615.747 147.513 614.174 151.439 612.998 151.041C612.457 150.084 614.406 150.819 612.998 151.041C611.488 151.029 610.791 154.824 609.88 153.591C608.802 152.552 602.997 152.031 600.812 151.041C600.211 150.757 588.059 148.774 589.42 145.767C590.782 142.759 577.401 138.357 580.904 135.741C587.353 130.924 572.107 130.25 570.473 130.984C565.923 133.027 564.885 133.446 560.955 132.189C556.992 131.147 515.029 141.015 511.541 141.124C511.541 136.22 511.541 117.041 511.541 107.407C491.703 105.991 496.845 99.4182 489.39 97.7738C484.588 96.8217 479.83 90.0191 479.862 89.8054C479.96 89.1644 474.683 86.8278 467.359 84.3972C461.48 82.4059 459.669 82.5665 459.342 84.7032C458.983 87.0536 458.714 87.0128 458.235 84.753C457.28 81.1086 453.851 79.2727 441.391 76.2763C435.951 75.0081 430.071 73.0167 428.256 72.3022C426.474 71.374 419.386 69.1982 412.501 67.4906C405.616 65.783 397.051 63.3817 393.454 61.739C389.959 60.3305 383.209 58.6433 378.643 57.946C374.077 57.2486 370.314 55.7993 370.444 54.9446C370.575 54.0899 369.334 54.1188 367.795 55.1958C364.18 57.2676 362.805 57.2763 364.104 55.0695C364.67 54.0627 362.518 52.8592 359.429 52.3875C356.341 51.9158 349.321 50.1877 343.914 48.7058C331.418 45.0479 320.976 43.2343 313.394 43.3883C310.208 43.5576 307.823 42.9748 308.357 42.1817C309.489 40.168 300.997 39.0894 298.489 41.1116C297.084 42.2091 296.144 42.0655 296.072 40.7424C295.966 39.6331 290.021 38.0692 282.872 37.1958C275.588 36.3019 264.409 34.8131 257.931 34.0422C251.453 33.2714 245.711 32.1759 245.272 31.4529C244.8 30.9435 242.619 30.8289 240.608 31.3964ZM106.913 39.4017C107.12 40.7452 106.55 40.8769 105.573 40.0718C103.385 38.2069 103.211 36.6496 105.091 36.9368C105.896 37.0599 106.706 38.0581 106.913 39.4017ZM149.543 52.6913C149.38 53.7597 148.175 54.4504 146.999 54.0521C145.522 53.8265 145.351 53.1446 146.524 52.6676C147.395 52.3633 148.059 50.7155 147.819 49.5856C147.51 48.0079 147.812 47.8351 148.487 48.8129C149.296 49.8112 149.739 51.4093 149.543 52.6913ZM159.11 53.934C158.784 56.0707 159.252 55.7049 160.482 53.0502C162.177 49.1545 162.311 49.175 161.658 53.4484C161.335 56.4603 159.934 58.4331 157.924 59.0006C153.231 60.0331 150.981 59.4707 152.113 57.457C152.813 56.4707 152.606 55.1273 151.732 54.5564C149.275 52.6505 152.715 49.0214 156.141 49.982C158.155 50.2897 159.27 51.9904 159.11 53.934ZM165.345 52.6997C165.585 53.8296 165.153 54.8569 164.482 54.7544C163.676 54.6313 163.168 53.4604 163.331 52.3921C163.527 51.11 163.926 50.2964 164.195 50.3374C164.597 50.3989 165.138 51.3561 165.345 52.6997ZM315.374 75.3962C313.701 76.4527 313.876 78.0099 316.039 81.8389C318.337 85.6884 318.442 86.7977 316.533 87.5994C315.361 88.0764 314.856 87.7805 315.422 86.7737C315.989 85.7669 315.277 84.1276 313.931 83.0473C310.33 80.5295 312.043 72.9194 315.937 73.5142C316.743 73.6372 316.478 74.4714 315.374 75.3962ZM321.806 80.9703C322.046 82.1002 321.748 83.1481 320.942 83.025C320.271 82.9225 319.36 81.69 319.12 80.5601C318.913 79.2166 319.178 78.3824 319.984 78.5055C320.655 78.608 321.599 79.6268 321.806 80.9703ZM326.216 84.4866C324.579 86.2045 324.477 85.9704 325.74 83.102C326.47 81.0268 327.439 80.0814 327.743 80.7839C328.048 81.4865 327.384 83.1344 326.216 84.4866ZM224.794 68.3395C225.034 69.4694 224.736 70.5173 223.93 70.3942C223.259 70.2917 222.348 69.0592 222.108 67.9293C221.901 66.5858 222.166 65.7516 222.972 65.8747C223.643 65.9772 224.587 66.996 224.794 68.3395ZM483.19 130.984C484.772 132.319 484.808 132.981 483.103 134.251C479.992 136.618 477.641 135.822 478.196 132.189C478.718 128.771 480.025 128.314 483.19 130.984ZM501.376 139.666C500.183 142.982 492.862 141.426 492.713 137.905C492.572 136.134 493.072 135.555 493.747 136.533C494.455 137.297 495.428 137.227 495.994 136.22C497.46 133.82 502.472 136.991 501.376 139.666ZM516.076 138.291C515.411 139.939 515.107 139.236 515.466 136.886C515.691 134.515 516.289 133.294 516.562 134.211C516.867 134.913 516.707 136.857 516.076 138.291ZM509.477 143.308C512.573 145.53 514.461 147.568 513.622 147.659C508.995 148.264 505.939 147.578 505.529 145.767C505.257 144.85 504.382 144.279 503.613 144.818C502.81 145.57 502.437 144.419 502.698 142.71C502.992 140.787 503.354 139.312 503.623 139.353C503.757 139.373 506.349 141.3 509.477 143.308ZM355.038 164.763C355.397 162.413 355.8 162.474 356.714 164.582C358.645 169.032 355.169 171.999 351.532 168.82C349.95 167.485 349.307 166.293 350.247 166.437C351.22 166.367 351.851 164.933 351.673 162.5C351.459 159.406 351.695 159.661 352.918 163.346C354.072 166.584 354.544 167.093 355.038 164.763ZM328.852 160.764C329.092 161.894 328.66 162.921 327.988 162.818C327.183 162.695 326.674 161.524 326.838 160.456C327.034 159.174 327.433 158.36 327.701 158.401C328.104 158.463 328.645 159.42 328.852 160.764ZM391.574 172.968C393.258 174.537 394.442 176.685 394.311 177.54C394.017 179.463 378.436 176.209 377.387 174.081C376.778 172.676 379.224 171.956 381.677 172.987C382.214 173.069 382.748 172.275 382.911 171.207C383.335 168.429 387.767 169.106 391.574 172.968ZM409.877 177.294C413.623 182.458 411.289 186.037 407.344 181.28C405.693 179.497 405.021 179.395 405.33 180.972C405.671 182.337 404.23 182.772 400.938 181.832C398.318 180.995 395.995 179.109 395.923 177.786C395.846 175.588 398.728 174.716 402.491 176.166C403.264 176.502 404.201 175.771 404.397 174.489C404.886 171.284 406.266 172.15 409.877 177.294ZM368.158 173.327C367.592 174.334 366.082 174.322 364.569 173.435C362.685 172.272 362.547 171.377 363.919 170.493C366.26 168.664 369.457 171.12 368.158 173.327ZM421.495 179.505C421.299 180.788 422.308 181.379 423.915 180.75C426.093 179.989 426.499 180.926 425.875 184.111C425.284 187.081 424.649 187.64 423.803 185.981C423.027 184.769 420.809 183.993 418.664 184.54C415.111 185.309 415.009 185.075 417.005 181.006C419.335 176.552 422.115 175.446 421.495 179.505ZM452.819 184.946C451.923 187.214 452.529 187.744 456.351 187.016C458.899 186.53 462.39 187.064 464.139 188.206L467.268 190.214L463.61 189.874C461.428 189.759 459.654 190.582 459.458 191.864C459.197 193.573 458.525 193.471 457.476 191.342C456.191 188.96 455.386 188.837 453.615 190.534C451.978 192.252 451.172 192.129 450.762 190.317C450.181 187.823 452.068 181.77 453.277 181.955C453.679 182.016 453.484 183.298 452.819 184.946ZM375.544 174.455C375.38 175.523 374.949 176.551 374.68 176.51C374.277 176.448 373.769 175.277 373.529 174.147C373.323 172.804 373.722 171.99 374.393 172.093C375.199 172.216 375.74 173.173 375.544 174.455ZM440.338 184.789C441.721 186.531 444.41 187.816 446.323 187.89C449.644 187.741 449.611 187.955 446.704 190.79C442.727 194.337 441.787 194.194 441.333 189.97C441.191 188.199 439.54 186.416 437.66 186.129C435.243 185.76 434.307 186.492 434.717 188.304C435.127 190.116 434.691 190.268 433.211 189.167C431.998 188.107 430.754 187.261 430.485 187.22C428.874 186.974 430.971 183.14 433.116 182.593C437.271 181.478 437.776 181.774 440.338 184.789ZM470.56 191.154C470.397 192.223 469.562 193.188 468.756 193.065C468.085 192.963 467.979 191.853 468.546 190.846C469.144 189.626 469.946 188.874 470.349 188.935C470.618 188.976 470.756 189.872 470.56 191.154ZM479.288 192.487C478.722 193.494 477.619 194.419 476.813 194.296C476.142 194.193 475.768 193.043 475.931 191.975C476.127 190.693 477.198 189.981 478.406 190.166C479.481 190.33 479.887 191.267 479.288 192.487ZM494.06 194.743C494.299 195.873 493.599 196.86 492.525 196.696C491.316 196.511 490.539 195.299 490.703 194.231C490.899 192.949 491.566 192.176 492.238 192.279C493.043 192.402 493.853 193.4 494.06 194.743ZM502.117 195.974C501.551 196.981 500.277 197.224 499.333 196.205C496.742 194.279 497.206 193.037 500.563 193.55C502.041 193.776 502.85 194.774 502.117 195.974ZM455.807 193.274C456.047 194.404 455.615 195.431 454.943 195.329C454.138 195.206 453.629 194.035 453.793 192.966C453.989 191.684 454.388 190.871 454.656 190.912C455.059 190.973 455.6 191.93 455.807 193.274ZM563.062 185.691C562.496 186.698 561.124 187.582 560.318 187.459C559.378 187.315 559.643 186.481 561.048 185.383C563.991 183.209 564.528 183.291 563.062 185.691ZM570.284 187.887C570.023 189.597 568.855 190.949 567.78 190.785C564.289 190.252 566.016 186.142 570.473 184.855C570.64 184.662 570.546 186.178 570.284 187.887ZM480.995 199.308C480.428 200.315 479.057 201.198 478.251 201.075C477.311 200.932 477.576 200.097 478.98 199C481.924 196.826 482.461 196.908 480.995 199.308ZM489.709 205.23C489.48 206.726 488.011 208.251 486.435 208.666C484.189 208.979 484.12 208.532 485.855 206.173C486.922 204.586 487.517 202.49 487.143 201.34C486.736 200.403 487.339 200.058 488.315 200.863C489.291 201.668 489.97 203.521 489.709 205.23ZM630.158 200.75C629.897 202.459 627.552 203.413 624.297 203.134C621.143 203.09 618.99 201.886 619.186 200.604C619.382 199.322 619.952 199.191 620.66 199.955C621.233 200.698 623.044 200.538 624.416 199.654C628.23 197.175 630.615 197.758 630.158 200.75ZM608.411 199.177C608.248 200.246 607.816 201.273 607.547 201.232C607.144 201.17 606.636 199.999 606.397 198.87C606.19 197.526 606.589 196.712 607.26 196.815C608.066 196.938 608.607 197.895 608.411 199.177ZM616.486 204.784C616.726 205.914 616.026 206.9 614.817 206.715C613.609 206.531 613.235 205.38 613.801 204.374C614.399 203.153 615.202 202.401 615.47 202.442C615.739 202.483 616.279 203.44 616.486 204.784ZM116.941 158.134C116.68 159.844 115.878 160.596 115.304 159.852C114.629 158.875 114.589 157.338 115.155 156.331C116.821 153.524 117.529 154.288 116.941 158.134ZM111.94 157.589C110.934 157.873 109.323 157.627 108.582 157.077C107.74 156.292 108.477 155.967 110.357 156.254C112.237 156.542 112.843 157.071 111.94 157.589ZM122.82 160.126C123.811 164.432 121.398 164.938 119.67 160.957C118.044 157.21 118.077 156.996 120.091 157.304C121.3 157.488 122.613 158.782 122.82 160.126ZM130.282 163.452C130.297 166.953 130.098 167.36 128.813 164.977C127.089 161.871 127.208 158.391 129.088 158.678C129.76 158.78 130.271 160.826 130.282 163.452ZM100.369 158.665C100.206 159.733 99.7744 160.76 99.5058 160.719C99.1029 160.658 98.5948 159.487 98.3552 158.357C98.1482 157.013 98.5474 156.2 99.2188 156.302C100.025 156.425 100.565 157.383 100.369 158.665ZM141.326 164.92C142.978 166.703 142.14 166.794 138.543 165.151C135.686 164.059 135.958 163.41 135.755 162.941C134.808 161.047 139.036 162.821 141.326 164.92ZM149.057 168.288C149.297 169.417 148.865 170.445 148.193 170.342C147.388 170.219 146.88 169.048 147.043 167.98C147.239 166.698 147.638 165.884 147.906 165.925C148.309 165.987 148.85 166.944 149.057 168.288ZM431.894 250.846C432.133 251.976 431.433 252.962 430.359 252.798C429.15 252.614 428.373 251.402 428.536 250.333C428.732 249.051 429.4 248.279 430.072 248.381C430.877 248.504 431.687 249.502 431.894 250.846ZM186.512 227.142C186.653 228.913 185.92 230.113 184.98 229.97C184.04 229.826 183.699 228.462 184.363 226.814C184.994 225.38 185.593 224.16 185.862 224.201C186.13 224.242 186.337 225.585 186.512 227.142ZM173.631 227.799C173.076 231.431 169.218 231.498 166.786 227.628C165.436 225.673 165.904 225.307 168.728 226.613C170.677 227.348 172.354 227.167 172.484 226.312C172.648 225.244 173.047 224.43 173.45 224.491C173.852 224.553 173.892 226.09 173.631 227.799ZM196.061 232.099C198.935 237.568 198.808 239.298 195.546 237.269C194.032 236.382 193.39 235.19 193.89 234.611C194.257 234.011 194.25 232.26 193.705 230.428C192.177 226.04 193.422 226.886 196.061 232.099ZM191.335 233.346C190.835 233.925 189.858 233.12 189.147 231.481C188.265 229.159 188.432 228.966 190.116 230.535C191.361 231.381 191.836 232.766 191.335 233.346ZM290.021 253.01C289.052 253.956 286.99 250.361 287.317 248.224C287.48 247.156 288.253 247.493 289.099 249.153C289.944 250.812 290.22 252.604 290.021 253.01ZM205.715 238.166C201.697 240.176 199.549 239.848 202.358 237.653C203.595 236.749 205.606 236.181 206.68 236.345C208.023 236.55 207.657 237.15 205.715 238.166ZM256.852 247.944C258.431 248.404 259.643 249.464 259.48 250.532C259.317 251.601 257.607 251.996 255.626 251.474C253.543 250.719 252.062 252.274 252.062 253.326L252.062 246.242C253.205 246.854 255.107 247.678 256.852 247.944ZM280.585 250.913C283.749 253.583 282.218 256.411 278.055 255.775C273.49 255.077 271.863 251.331 275.583 250.368C277.024 249.932 278.298 249.689 278.465 249.496C278.599 249.517 279.474 250.088 280.585 250.913ZM296.702 254.25C296.136 255.256 294.496 256.099 293.32 255.701C291.44 255.414 291.64 255.007 294.017 253.839C296.673 252.642 297.569 252.778 296.702 254.25ZM269.588 252.732C270.031 254.331 269.294 254.655 267.512 253.727C265.998 252.84 264.456 253.042 263.992 254.283C263.063 256.765 260.333 253.943 260.823 250.737C261.247 247.96 268.836 249.556 269.588 252.732ZM322.475 263.653C324.424 264.387 326.942 264.991 327.984 265.369C329.058 265.533 329.835 266.745 329.704 267.599C329.411 269.522 319.205 267.964 318.156 265.836C317.884 264.919 316.341 265.121 314.802 266.198C312.629 267.834 311.554 267.67 310.034 265.032C308.476 261.733 308.509 261.519 311.659 260.689C313.536 260.101 315.953 260.47 316.929 261.275C317.905 262.08 320.359 263.111 322.475 263.653ZM410.021 275.275C409.016 275.559 407.405 275.313 406.664 274.762C405.822 273.978 406.559 273.653 408.439 273.94C410.319 274.227 410.925 274.757 410.021 275.275ZM446.961 291.631C452.906 293.195 454.318 293.848 452.409 294.65C451.371 295.147 450.573 296.775 450.646 298.098C450.551 299.614 450.486 300.042 450.381 298.932C450.108 298.016 449.132 297.211 448.058 297.047C446.984 296.883 446.308 295.905 446.439 295.05C446.602 293.982 441.463 292.541 435.086 292.004C428.742 291.254 423.973 290.088 424.474 289.509C424.975 288.929 427.087 288.596 429.134 288.69C431.348 288.591 434.299 288.167 435.772 287.517C437.848 286.522 438.218 286.797 437.285 288.404C436.52 289.818 436.491 290.907 437.162 291.009C437.968 291.132 439.169 289.567 440.033 287.512C441.328 284.43 441.597 284.471 442.515 287.454C443.194 289.307 445.081 291.344 446.961 291.631ZM459.243 292.195C459.047 293.477 459.722 294.455 460.727 294.171C461.733 293.888 462.441 294.652 462.379 295.954C462.35 297.043 460.408 298.059 458.227 297.944C453.966 297.949 453.865 297.715 455.824 292.985C457.352 289.282 459.765 288.776 459.243 292.195ZM309.86 271.565C309.697 272.634 309.265 273.661 308.996 273.62C308.593 273.559 308.085 272.388 307.845 271.258C307.638 269.914 308.038 269.1 308.709 269.203C309.515 269.326 310.056 270.283 309.86 271.565ZM469.529 296.828C469.431 297.469 468.73 298.455 467.827 298.973C467.057 299.511 466.451 298.981 466.614 297.913C466.81 296.631 467.645 295.665 468.316 295.768C469.122 295.891 469.594 296.4 469.529 296.828ZM473.035 300.862C472.872 301.93 472.171 302.916 471.365 302.793C470.694 302.691 470.186 301.52 470.349 300.451C470.545 299.169 471.347 298.417 472.018 298.52C472.824 298.643 473.231 299.58 473.035 300.862Z" fill="white"/>
<path fill-rule="evenodd" clip-rule="evenodd" d="M202.145 104.482C201.982 105.55 202.49 106.721 203.296 106.844C203.967 106.947 204.399 105.919 204.159 104.79C203.953 103.446 203.412 102.489 203.009 102.427C202.74 102.386 202.341 103.2 202.145 104.482Z" fill="white"/>
<path fill-rule="evenodd" clip-rule="evenodd" d="M206.173 105.098C205.749 107.876 207.164 109.404 209.24 108.409C212.321 107.13 212.143 104.698 209.055 104.226C207.578 104.001 206.271 104.457 206.173 105.098Z" fill="white"/>
<path fill-rule="evenodd" clip-rule="evenodd" d="M109.833 92.5694C109.267 93.5763 109.373 94.6856 110.044 94.7882C110.85 94.9113 111.685 93.9455 111.848 92.8771C112.044 91.5951 111.906 90.6993 111.637 90.6583C111.234 90.5968 110.432 91.3489 109.833 92.5694Z" fill="white"/>
<path fill-rule="evenodd" clip-rule="evenodd" d="M131.29 96.9396C131.566 98.731 132.815 100.452 134.158 100.657C135.5 100.863 136.938 99.5514 137.199 97.8421C137.493 95.919 136.48 94.4524 134.331 94.1242C131.914 93.755 131.112 94.5072 131.29 96.9396Z" fill="white"/>
<path fill-rule="evenodd" clip-rule="evenodd" d="M226.698 111.075C226.775 113.273 227.417 114.464 227.918 113.885C228.419 113.305 228.277 111.535 227.566 109.895C226.517 107.767 226.35 107.96 226.698 111.075Z" fill="white"/>
<path fill-rule="evenodd" clip-rule="evenodd" d="M279.672 118.729C279.509 119.797 280.115 120.327 280.884 119.789C281.788 119.271 282.488 118.284 282.586 117.643C282.652 117.216 282.18 116.707 281.374 116.584C280.703 116.481 279.868 117.447 279.672 118.729Z" fill="white"/>
<path fill-rule="evenodd" clip-rule="evenodd" d="M104.774 94.2014C104.61 95.2698 105.217 95.7997 105.986 95.2613C106.89 94.7433 107.59 93.757 107.688 93.116C107.753 92.6887 107.281 92.1792 106.476 92.0562C105.804 91.9536 104.97 92.9194 104.774 94.2014Z" fill="white"/>
<path fill-rule="evenodd" clip-rule="evenodd" d="M113.336 95.7279C111.503 98.7279 112.748 99.5738 117.339 98.3071C119.651 97.5669 121.023 96.6832 120.25 96.3464C119.611 96.0302 117.93 95.3362 116.787 94.7243C115.51 94.0918 113.934 94.5074 113.336 95.7279Z" fill="white"/>
<path fill-rule="evenodd" clip-rule="evenodd" d="M138.954 100.735C137.692 103.603 137.793 103.837 139.43 102.119C140.599 100.767 141.263 99.1192 140.958 98.4167C140.653 97.7141 139.684 98.6596 138.954 100.735Z" fill="white"/>
<path fill-rule="evenodd" clip-rule="evenodd" d="M315.464 125.508C314.056 125.73 312.786 126.848 312.623 127.916C312.492 128.771 313.635 129.383 315.211 128.968C316.786 128.552 318.19 127.455 318.353 126.386C318.517 125.318 318.48 124.656 318.346 124.636C318.045 124.808 316.771 125.051 315.464 125.508Z" fill="white"/>
<path fill-rule="evenodd" clip-rule="evenodd" d="M281.736 123.198C281.541 124.48 282.35 125.479 283.424 125.643C284.499 125.807 285.504 125.523 285.569 125.096C285.634 124.668 284.825 123.67 283.881 122.651C282.905 121.846 281.9 122.13 281.736 123.198Z" fill="white"/>
<path fill-rule="evenodd" clip-rule="evenodd" d="M362.98 135.607C359.159 136.335 358.992 136.529 361.347 138.2C362.828 139.301 364.944 139.843 366.116 139.366C367.455 138.696 368.501 139.949 368.642 141.72C369.133 146.605 372.555 146.69 374.112 141.899C374.939 139.183 374.834 138.074 373.495 138.744C372.355 139.007 370.54 138.292 369.328 137.233C368.148 135.959 365.394 135.101 362.98 135.607Z" fill="white"/>
<path fill-rule="evenodd" clip-rule="evenodd" d="M378.768 140.205C378.202 141.212 378.575 142.362 379.784 142.547C380.993 142.731 381.693 141.745 381.453 140.615C381.246 139.271 380.706 138.314 380.437 138.273C380.168 138.232 379.366 138.984 378.768 140.205Z" fill="white"/>
<path fill-rule="evenodd" clip-rule="evenodd" d="M348.227 137.727C346.989 138.632 346.557 139.659 347.229 139.761C348.034 139.885 349.675 139.042 350.912 138.138C352.15 137.233 352.716 136.226 351.91 136.103C351.239 136.001 349.464 136.823 348.227 137.727Z" fill="white"/>
<path fill-rule="evenodd" clip-rule="evenodd" d="M385.892 143.043C385.729 144.111 386.538 145.11 387.613 145.274C388.687 145.438 389.757 144.727 389.921 143.658C390.051 142.804 389.242 141.805 388.168 141.641C387.093 141.477 386.023 142.188 385.892 143.043Z" fill="white"/>
<path fill-rule="evenodd" clip-rule="evenodd" d="M393.256 147.01C390.719 150.121 390.654 150.548 393.681 152.322C396.976 154.138 400.257 152.452 397.43 150.271C396.722 149.507 396.381 148.143 396.914 147.35C398.946 143.943 396.094 143.726 393.256 147.01Z" fill="white"/>
<path fill-rule="evenodd" clip-rule="evenodd" d="M379.131 146.82C378.565 147.827 378.939 148.978 380.147 149.162C381.356 149.347 382.056 148.361 381.817 147.231C381.61 145.887 381.069 144.93 380.8 144.889C380.532 144.848 379.73 145.6 379.131 146.82Z" fill="white"/>
<path fill-rule="evenodd" clip-rule="evenodd" d="M410.395 153.564C410.199 154.846 410.507 156.423 411.215 157.188C411.923 157.952 412.188 157.117 412.046 155.346C411.694 151.357 410.852 150.572 410.395 153.564Z" fill="white"/>
<path fill-rule="evenodd" clip-rule="evenodd" d="M417.754 156.655C417.667 159.921 419.083 161.45 422.879 162.685C430.638 164.964 429.673 158.694 421.637 154.624C418.073 152.768 417.637 152.92 417.754 156.655Z" fill="white"/>
<path fill-rule="evenodd" clip-rule="evenodd" d="M433.635 159.737C433.842 161.081 433.146 162.942 432.042 163.867C430.504 164.944 430.674 165.626 432.957 165.975C434.971 166.282 436.107 165.144 436.564 162.152C436.923 159.802 436.277 157.735 435.069 157.551C433.994 157.387 433.294 158.373 433.635 159.737Z" fill="white"/>
<path fill-rule="evenodd" clip-rule="evenodd" d="M438.267 160.008C437.875 162.572 441.41 165.517 443.417 164.074C444.353 163.343 444.415 162.04 443.504 160.808C441.446 158.088 438.626 157.658 438.267 160.008Z" fill="white"/>
<path fill-rule="evenodd" clip-rule="evenodd" d="M446.738 163.925C444.902 166.05 443.871 168.298 444.144 169.214C444.583 169.937 445.051 169.572 445.247 168.289C445.475 166.794 446.31 165.828 446.982 165.93C447.787 166.053 447.994 167.397 447.664 168.659C447.167 170.113 448.281 171.814 449.962 172.508C452.012 173.477 452.782 172.939 452.404 170.913C451.892 168.867 452.596 168.756 454.984 170.214C456.766 171.142 458.813 171.236 459.412 170.016C459.978 169.009 461.216 168.104 461.887 168.207C462.693 168.33 462.831 169.226 462.297 170.019C460.998 172.226 466.697 179 468.199 177.262C468.733 176.468 468.293 175.745 467.085 175.561C465.876 175.376 464.526 173.421 464.181 171.181C463.698 168.046 461.713 166.65 457.213 165.525C453.619 164.758 450.661 163.431 450.288 162.281C450.015 161.365 448.408 161.994 446.738 163.925Z" fill="white"/>
<path fill-rule="evenodd" clip-rule="evenodd" d="M174.977 273.291C174.814 274.36 175.42 274.89 176.356 274.158C177.26 273.64 178.37 274.466 178.813 276.064C179.394 278.558 179.695 278.385 180.152 275.394C180.479 273.257 179.633 271.597 178.022 271.351C176.545 271.126 175.173 272.009 174.977 273.291Z" fill="white"/>
<path fill-rule="evenodd" clip-rule="evenodd" d="M589.531 348.198C590.38 350.733 591.222 351.518 591.719 350.063C592.184 348.822 593.087 348.304 593.628 349.261C594.202 350.005 597.16 351.331 600.183 352.231C608.581 354.825 604.77 350.089 595.9 346.985C588.474 344.32 588.173 344.492 589.531 348.198Z" fill="white"/>
<path fill-rule="evenodd" clip-rule="evenodd" d="M316.787 312.006C316.994 313.35 315.452 313.552 312.762 312.266C310.443 311.256 307.961 311.314 307.228 312.514C306.629 313.735 308.647 314.918 312.842 315.34C318.348 316.181 319.386 315.683 318.537 313.148C317.281 309.676 316.036 308.83 316.787 312.006Z" fill="white"/>
<path fill-rule="evenodd" clip-rule="evenodd" d="M384.274 324.501C384.078 325.783 385.124 327.035 386.735 327.282C388.212 327.507 388.887 328.485 388.288 329.705C387.722 330.712 387.693 331.801 388.499 331.924C389.171 332.027 390.408 331.123 390.974 330.116C391.573 328.895 392.778 328.205 393.449 328.307C394.255 328.43 394.259 329.305 393.66 330.526C391.962 333.546 393.805 333.172 396.443 330.295C398.312 327.957 397.841 327.447 393.979 326.639C391.326 326.015 388.201 324.882 386.956 324.036C385.61 322.955 384.47 323.219 384.274 324.501Z" fill="white"/>
<path fill-rule="evenodd" clip-rule="evenodd" d="M430.589 336.167C430.197 338.731 430.876 340.584 432.353 340.809C434.367 341.117 434.432 340.69 432.98 338.5C431.63 336.545 431.931 336.372 434.418 337.189C436.367 337.924 438.007 337.081 438.569 335.199C439.498 332.717 439.364 332.697 437.931 334.883C436.697 336.662 435.993 336.773 435.717 334.982C434.693 330.89 431.274 331.68 430.589 336.167Z" fill="white"/>
<path fill-rule="evenodd" clip-rule="evenodd" d="M361.431 325.603C361.671 326.733 362.85 328.007 363.925 328.171C364.999 328.335 365.968 327.389 366.131 326.321C366.327 325.039 365.249 324 363.638 323.754C362.161 323.528 361.224 324.26 361.431 325.603Z" fill="white"/>
<path fill-rule="evenodd" clip-rule="evenodd" d="M515.624 348.936C512.615 351.538 513.566 354.307 517.798 355.391C520.821 356.29 522.396 355.874 522.723 353.737C523.18 350.746 517.83 347.086 515.624 348.936Z" fill="white"/>
<path fill-rule="evenodd" clip-rule="evenodd" d="M398.704 333.483C398.944 334.613 400.258 335.907 401.466 336.092C403.481 336.4 403.546 335.972 402.061 333.996C399.8 330.808 398.054 330.542 398.704 333.483Z" fill="white"/>
<path fill-rule="evenodd" clip-rule="evenodd" d="M507.476 350.097C506.91 351.104 507.015 352.213 507.687 352.316C508.492 352.439 509.327 351.473 509.49 350.404C509.686 349.122 509.548 348.227 509.28 348.186C508.877 348.124 508.075 348.876 507.476 350.097Z" fill="white"/>
<path d="M594.594 235.432C595.537 236.45 596.811 236.208 597.377 235.201C598.11 234.001 597.301 233.003 595.824 232.777C592.467 232.264 592.002 233.505 594.594 235.432Z" fill="white"/>
<path d="M601.815 246.537C603.328 247.424 604.838 247.436 605.404 246.429C606.703 244.222 603.506 241.766 601.165 243.595C599.793 244.479 599.931 245.374 601.815 246.537Z" fill="white"/>
<path fill-rule="evenodd" clip-rule="evenodd" d="M608.282 122.761C608.677 121.525 607.84 120.124 606.287 119.629C604.864 119.175 604.35 118.104 605.132 116.992C605.849 116.086 606.048 115.015 605.272 114.768C604.625 114.561 603.261 115.261 602.544 116.166C601.762 117.278 600.463 117.772 599.816 117.565C599.04 117.318 599.173 116.453 599.956 115.341C602.106 112.624 600.226 112.705 597.17 115.133C594.958 117.15 595.344 117.727 599.032 119.13C601.555 120.162 604.463 121.77 605.561 122.8C606.721 124.078 607.888 123.996 608.282 122.761Z" fill="white"/>
</svg>
