<svg width="320" height="163" viewBox="0 0 320 163" fill="none" xmlns="http://www.w3.org/2000/svg">
<path d="M110.114 82.555H122.402V98.3306H110.114V112.719H89.1208V98.3306H40.0693V83.3258L83.2838 35.6392H110.114V82.555ZM89.1208 52.1342L61.6766 82.555H89.1208V52.1342Z" fill="#414143"/>
<path d="M170.566 78.3234C167.136 77.9092 168.234 80.119 163.568 78.3234C162.526 77.9222 159.313 74.3174 157.668 75.5606C156.022 76.8038 156.915 74.3324 156.981 73.2123C157.119 70.8872 153.915 69.0873 152.042 68.9302C148.748 68.6541 149.434 79.0416 149.434 79.7047C149.434 80.5335 156.982 92.275 157.393 92.4131C157.805 92.5513 171.39 101.668 171.801 102.083C172.131 102.414 184.746 103.97 191.012 104.707L204.048 90.3411C202.539 91.2159 199.191 92.938 197.873 92.8275C196.227 92.6894 204.048 90.0648 200.892 87.164C199.492 85.8766 194.58 85.6445 190.463 84.5394C186.347 83.4343 180.172 83.2962 178.388 82.4674C176.604 81.6385 173.997 78.7377 170.566 78.3234Z" fill="white"/>
<path d="M221.94 62.2718L221.935 62.2755L221.93 62.2793L215.298 67.3509C214.314 68.1034 213.831 69.3189 213.943 70.5241C214.093 72.1263 214.14 73.725 214.086 75.3111C214.044 76.5314 214.605 77.7269 215.647 78.4178L222.81 83.1669C223.074 83.3548 223.169 83.6559 223.101 83.9287L218.348 96.4859C218.225 96.7773 217.93 96.923 217.703 96.8846L217.691 96.8826L217.678 96.8808L209.147 95.6888C207.926 95.5183 206.74 96.0338 205.979 96.9628C205.058 98.0865 204.071 99.1517 203.017 100.15C202.137 100.984 201.695 102.231 201.95 103.469L203.56 111.294L203.56 111.296C203.618 111.577 203.484 111.864 203.193 112.006L191.02 117.495L191.011 117.499L191.003 117.503C190.743 117.627 190.452 117.547 190.294 117.329L190.29 117.323L190.286 117.317L185.602 111.045C184.846 110.033 183.623 109.55 182.422 109.677C180.882 109.839 179.334 109.889 177.806 109.837C176.601 109.796 175.418 110.364 174.736 111.423L170.161 118.523C170.16 118.524 170.159 118.525 170.159 118.526C170.008 118.752 169.695 118.863 169.418 118.754L169.416 118.754L169.414 118.753L156.976 113.922C156.688 113.797 156.544 113.499 156.582 113.269L156.583 113.26L156.585 113.251L157.781 104.967C157.965 103.694 157.429 102.461 156.482 101.683C155.219 100.645 154.025 99.4928 152.902 98.2539C152.081 97.3485 150.843 96.8998 149.618 97.159L141.555 98.8647L141.553 98.8651C141.275 98.9243 140.992 98.7882 140.852 98.4935L135.433 86.1631L135.429 86.1542L135.425 86.1454C135.303 85.8822 135.382 85.5884 135.597 85.4284L135.602 85.4247L135.607 85.4212L142.361 80.2648C143.34 79.5176 143.822 78.3137 143.725 77.1185C143.606 75.6617 143.579 74.1977 143.635 72.7518C143.683 71.524 143.12 70.3193 142.07 69.6258L135.294 65.1475C135.07 64.9946 134.96 64.6779 135.068 64.3977L135.069 64.3955L135.07 64.3935L139.839 51.7944C139.962 51.5031 140.257 51.3573 140.483 51.3956L140.495 51.3975L140.506 51.3992L148.526 52.5457C149.758 52.7216 150.954 52.1986 151.718 51.2592C152.697 50.0546 153.771 48.9014 154.92 47.8265C155.813 46.9921 156.261 45.7347 156.002 44.4874L154.207 35.8241L154.207 35.8236C154.149 35.5428 154.282 35.2572 154.572 35.1147L166.742 29.7042L166.753 29.6994L166.764 29.6943C167.024 29.5702 167.314 29.6504 167.472 29.8686L167.476 29.8739L167.48 29.8793L172.876 37.1116C173.614 38.1006 174.801 38.5868 175.978 38.4883C177.425 38.3672 178.883 38.3398 180.333 38.3981C181.544 38.4467 182.731 37.8759 183.415 36.8148L187.912 29.8348C187.912 29.8337 187.913 29.8327 187.914 29.8319C188.065 29.6055 188.378 29.4942 188.655 29.6033L188.657 29.6042L188.659 29.6048L201.097 34.4359C201.385 34.5604 201.528 34.8589 201.49 35.0885L201.488 35.1001L201.487 35.1117L200.311 43.5834C200.142 44.8018 200.63 45.9929 201.529 46.7662C202.562 47.6541 203.551 48.5961 204.49 49.6004C205.313 50.481 206.537 50.9171 207.748 50.6601L215.984 48.9126L215.985 48.9125C216.263 48.8531 216.546 48.9895 216.686 49.2845L222.105 61.539L222.109 61.5469L222.112 61.5548C222.235 61.8178 222.156 62.1117 221.94 62.2718ZM188.783 96.7471C201.123 91.2007 206.675 76.5332 201.202 64.0362C195.727 51.4975 181.246 45.8711 168.907 51.4562C156.567 57.0031 151.015 71.6709 156.489 84.1678C161.965 96.668 176.445 102.292 188.783 96.7471Z" fill="#C9FF22" stroke="#414143" stroke-width="2"/>
<path d="M279.931 35.6392V54.9091V74.179V112.719H258.964V43.0388L268.783 52.1856L235.746 58.0437V41.6L264.385 35.6392H279.931Z" fill="#414143"/>
<path fill-rule="evenodd" clip-rule="evenodd" d="M104.561 4.52135C103.587 4.79805 100.549 4.65056 97.7687 4.11641C94.9886 3.58226 92.6163 3.43062 92.358 3.81731C92.1647 4.214 91.1401 3.94986 90.033 3.35318C89.0067 2.66233 87.7871 2.36825 87.3496 2.62077C86.8962 2.97746 85.6942 3.00581 84.6046 2.73165C83.5959 2.36331 81.6471 2.48994 80.3169 2.92498C78.6615 3.31002 77.7512 3.17005 77.2767 2.35086C76.8022 1.53166 76.152 1.43164 74.9852 2.10502C73.7217 2.97675 73.5425 2.8426 74.0907 1.86088C74.6231 0.983336 74.1995 0.705022 72.2349 0.935895C70.822 1.03842 69.3301 1.66173 69.0244 2.36093C68.6695 2.94596 68.2635 2.99021 68.1475 2.43936C67.9823 1.77433 59.0726 -0.0223331 58.962 0.706868C58.9146 1.01938 56.1872 1.45278 55.4228 1.22861C52.8044 0.506117 51.163 0.360328 46.6468 0.305393C41.7896 0.304633 39.0289 0.51966 38.9815 0.832175C38.9498 1.04052 33.6059 1.17816 30.9734 0.98652C29.9173 0.9307 28.5378 1.25157 28.0845 1.60826C27.5503 2.05912 26.9001 1.95908 26.5574 1.58656C26.2797 1.22405 24.6876 1.19238 23.0814 1.69159C21.4261 2.07664 19.4614 2.30761 18.6161 2.17762C17.8359 2.05762 16.9274 2.34422 16.6533 2.83508C16.3792 3.32594 15.1456 3.56266 13.9102 3.37267C12.6748 3.18268 11.6362 3.4494 11.5572 3.97026C11.4623 4.59529 10.9105 4.72361 10.2269 4.40527C9.54332 4.08693 8.29569 4.85446 7.29411 6.19287C5.38759 8.67134 4.84294 10.5065 5.9483 10.6765C6.2734 10.7264 6.53171 10.3397 6.41569 9.78888C6.03602 8.34465 7.62635 7.94969 10.3274 9.0047C11.6612 9.42303 12.5751 10.4163 12.4644 11.1455C12.338 11.9789 13.25 12.5456 15.1514 12.7314C17.9631 13.0572 19.0455 11.6246 16.3147 11.2047C13.9739 10.8447 15.7892 9.84463 18.6483 9.85792C21.1665 9.92538 21.2807 10.0496 20.8697 12.758L20.4429 15.5706L22.265 12.333C23.2648 10.5679 24.3648 9.45779 24.6424 9.8203C24.9851 10.1928 25.3085 9.81612 25.4507 8.87858C25.593 7.94103 25.9814 7.57434 26.259 7.93686C26.5859 8.41354 26.6053 9.16272 26.3312 9.65358C25.9921 10.1344 26.7091 10.6711 27.7494 10.8311C28.9198 11.0111 29.8441 10.6203 29.9706 9.78696C30.097 8.95359 30.3413 9.09768 30.5734 10.1994C30.772 11.0828 31.0655 11.3411 31.1603 10.7161C31.2552 10.0911 31.7894 9.64023 32.3095 9.72023C32.8297 9.80023 33.2216 10.2869 33.1426 10.8078C33.0635 11.3287 33.5837 11.4086 34.3129 10.9878C34.9772 10.5569 36.7644 10.6186 38.2932 11.0669C39.8221 11.5152 41.5601 11.4626 42.1101 10.9076C42.8868 10.1742 43.1468 10.2143 43.1838 11.286C43.2858 12.3677 43.806 12.4477 45.8339 11.8001C48.0726 11.0784 48.3819 11.2326 48.1606 12.691C47.9885 14.2635 48.0535 14.2736 49.0867 12.7268C49.765 11.7651 50.4134 11.4384 50.5294 11.9892C50.844 13.4235 49.6704 16.3344 48.8901 16.2144C48.565 16.1644 48.2417 16.5411 48.1785 16.9578C48.1152 17.3745 49.0589 17.7329 50.3259 17.7145C52.3398 17.5978 52.6473 17.3252 52.9617 14.8151C53.1953 12.3991 53.5028 12.1267 55.7609 12.1542C57.288 12.1758 58.1509 12.6283 58.0402 13.3575C57.9295 14.0867 57.492 14.3393 57.0192 13.9467C56.4323 13.4301 56.2232 13.9309 56.1811 15.5235C56.1724 17.3344 56.0758 17.5327 55.6803 16.1926C55.218 14.4159 54.0512 15.0893 54.4977 16.9702C54.7966 18.5086 56.5521 18.7786 56.7576 17.4243C56.8525 16.7993 57.2408 16.4326 57.5659 16.4826C57.9561 16.5426 58.0563 17.1977 57.8964 17.8127C57.6557 18.5219 57.9826 18.9985 58.5344 18.8702C59.0862 18.7418 60.8891 18.6993 62.5463 18.741C64.2192 18.6785 66.2823 18.676 67.2084 18.7118C68.4754 18.6935 68.8796 18.2225 68.9866 16.6399C69.0463 15.3699 69.2396 14.9732 69.454 15.7524C70.2626 18.755 74.8054 21.2659 75.1532 18.9742C75.2954 18.0366 74.4818 17.6982 72.2237 17.6708C71.2325 17.6249 70.7914 17.0242 70.9337 16.0866C71.076 15.1491 71.0074 14.2857 70.7947 13.9332C70.5012 13.6749 70.7613 13.7149 71.2499 14.0032C74.7681 16.2499 75.7435 16.3999 75.6063 14.6732C75.5201 13.4873 75.6976 13.1948 76.3496 13.7214C76.7573 14.1039 77.1176 14.7989 77.0385 15.3197C76.9595 15.8406 77.7415 16.3873 78.7819 16.5473C79.8222 16.7073 80.8819 17.6165 81.2106 18.5198C81.5234 19.5274 82.2246 20.1682 82.7922 19.9357C83.2948 19.6932 83.6533 19.9616 83.5901 20.3782C83.4003 21.6283 85.6251 21.4375 86.0907 20.1232C86.2998 19.6224 85.4369 19.1698 84.0557 19.064C82.0576 19.0765 81.8291 18.8282 82.6691 17.6781C83.1699 17.0089 84.2892 16.648 85.0871 17.0905C85.9007 17.4289 86.8426 17.3605 87.1326 16.7655C87.4875 16.1805 88.0235 16.1564 88.3503 16.6331C88.7264 17.2239 89.5243 17.6663 90.2395 17.7763C91.9301 18.0363 92.7246 21.5698 91.2995 22.6299C90.6195 23.1649 90.8813 23.6317 92.1993 24.1542L94.0867 24.8707L93.0163 21.4015C91.7473 17.0488 91.7771 16.4138 93.5327 16.6837C94.638 16.8537 94.754 17.4046 94.1778 19.448C93.6507 21.6056 93.7843 22.479 95.1059 23.8549C96.2975 25.2108 96.7367 25.385 97.1549 24.3833C97.4923 23.4757 97.9474 23.5456 99.1232 25.0057C100.38 26.3716 100.819 26.5457 101.383 25.4598C101.819 24.7806 102.353 24.3298 102.678 24.3798C103.622 24.7381 103.676 22.1881 102.715 21.5072C102.242 21.1147 101.95 21.283 102.147 21.7397C102.59 22.7672 101.009 25.2957 100.033 25.1457C99.6433 25.0857 99.624 24.3365 100.011 23.5431C100.445 22.4372 100.183 21.9705 99.0122 21.7906C96.8666 21.4606 97.1529 20.0121 99.5358 18.7796C101.189 17.9678 101.369 18.102 100.773 19.3963C100.323 20.6063 100.552 20.8547 101.866 20.5238C102.905 20.2571 103.963 20.7396 104.486 21.6729C105.108 22.8346 105.303 22.8648 105.056 21.8672C104.46 19.2171 105.75 20.8013 106.95 24.2906C107.871 26.9907 108.393 27.4973 108.941 26.5156C109.393 25.7322 109.375 25.4098 108.922 25.7665C108.469 26.1232 108.108 25.4281 108.087 24.2522C108.064 22.6496 108.5 21.9704 109.734 21.7337C111.73 21.2945 112.612 22.4962 111.041 23.6405C110.442 24.0813 110.071 24.7705 110.219 25.113C110.727 26.1506 112.849 24.878 113.087 23.3154C113.355 21.5445 114.802 21.6604 115.589 23.4871C115.983 24.4005 116.243 24.4405 116.353 23.7113C116.432 23.1904 117.276 22.8936 118.285 23.262C120.432 24.0186 122.525 23.3811 122.26 22.0611C122.079 21.5002 122.467 21.1335 122.987 21.2135C123.637 21.3135 123.885 22.311 123.695 23.5611C123.442 25.2278 123.054 25.5946 122.207 25.0379C121.474 24.6054 120.761 24.9221 120.423 25.8297C119.571 27.9373 119.506 27.9273 121.487 27.5922C122.77 27.4697 123.128 27.738 122.677 28.5214C122.322 29.1064 122.373 29.6472 122.698 29.6972C123.088 29.7572 123.492 29.2864 123.587 28.6613C123.697 27.9321 124.379 27.8239 125.323 28.1822C126.186 28.6347 127.128 28.5663 127.386 28.1796C127.66 27.6887 126.943 27.152 125.903 26.9921C124.797 26.8221 123.966 26.1612 124.045 25.6403C124.14 25.0153 124.659 24.6686 125.179 24.7486C125.699 24.8286 126.249 24.2737 126.359 23.5445C126.551 22.7211 126.73 22.8552 127.157 23.9869C127.75 25.7836 133.085 27.457 133.306 25.9986C133.449 25.061 137.222 26.0677 137.649 27.1994C137.796 27.5419 136.854 27.6102 135.554 27.4103C133.408 27.0803 133.101 27.3528 132.883 29.6646C132.681 31.8722 132.795 31.9963 133.879 30.9904C134.526 30.237 135.839 29.4795 136.812 29.2028C138.418 28.7036 138.483 28.7136 137.304 30.3445C136.125 31.9755 136.175 32.0897 137.619 31.7788C138.463 31.4821 139.097 31.6862 139.018 32.2071C138.797 33.6655 140.767 34.7147 141.851 33.7088C142.401 33.1537 143.861 32.7388 145.031 32.9187C147.713 33.2246 148.669 32.6253 147.738 31.3094C147.133 30.4702 147.23 30.2719 148.14 30.4119C148.79 30.5119 149.244 30.1551 149.128 29.6043C149.012 29.0534 149.887 28.5484 151.055 28.3017C152.419 28.085 153.298 28.4333 153.512 29.2125C153.661 29.9817 154.28 30.2902 154.913 30.0677C155.561 29.741 155.985 30.0192 155.89 30.6442C155.795 31.2693 156.218 31.5476 156.786 31.3151C157.354 31.0826 158.359 30.5976 159.072 30.2809C159.786 29.9642 160.014 30.2126 159.659 30.7976C159.304 31.3827 159.438 32.256 159.976 32.6585C160.448 33.051 160.724 32.9868 160.608 32.4359C160.492 31.8851 161.401 31.5984 162.62 31.8926C163.84 32.1868 164.622 32.7335 164.364 33.1202C164.154 33.621 164.562 34.0034 165.342 34.1234C166.188 34.2534 166.641 33.8968 166.427 33.1176C166.277 32.3484 166.717 32.5225 167.5 33.4959C169.035 35.2242 171.003 35.8468 172.412 34.8909C172.881 34.4301 173.825 34.7883 174.445 35.5234C175.18 36.3826 175.635 36.4526 175.746 35.7234C175.825 35.2025 176.684 34.8016 177.724 34.9616C178.7 35.1116 179.092 35.5984 178.638 35.955C177.974 36.3859 177.944 37.0209 178.452 38.0585C179.074 39.2202 179.204 39.2401 179.41 37.8859C179.679 36.115 180.782 35.8583 180.919 37.585C180.99 38.8751 186.173 35.4037 186.347 34.2578C186.536 33.0077 188.453 32.0187 188.817 33.5671C188.817 33.5671 192.081 36.7107 193.07 36.3298C193.914 36.0331 193.265 41.2958 194.321 41.3516C196.108 41.4133 196.157 41.5276 194.927 42.6176C193.309 44.0744 193.439 44.0943 196.505 43.1801C198.452 42.6267 199.006 42.9251 199.5 44.4934C199.929 46.0518 200.059 46.0718 200.004 44.6776C199.902 43.5959 200.257 43.0109 200.842 43.1009C201.362 43.1809 201.624 43.6476 201.35 44.1384C201.092 44.5251 201.354 44.9917 201.874 45.0717C202.459 45.1617 202.867 45.5443 202.804 45.961C202.614 47.211 205.995 47.731 207.664 46.8151C208.474 46.3001 208.88 46.2558 208.557 46.6325C208.234 47.0092 208.499 48.3292 209.121 49.491L210.267 51.5861L208.932 50.7411C208.134 50.2986 206.948 50.2227 206.315 50.4453C205.245 50.9203 205.213 51.1286 205.867 52.082C206.308 52.6828 207.252 53.0412 208.014 52.8387C208.858 52.542 209.086 52.7903 208.716 53.4795C208.006 54.6496 208.949 55.0079 211.367 54.4204C213.25 53.857 213.632 52.2102 211.798 52.4611C211.051 52.5594 210.628 52.2811 210.902 51.7902C211.176 51.2994 212.149 51.0227 212.979 51.2569C213.808 51.4911 214.249 52.0919 214.056 52.4886C213.798 52.8753 214.125 53.3519 214.71 53.4419C215.36 53.5419 215.638 53.9044 215.33 54.1769C214.749 54.9403 216.26 59.0105 216.94 58.4755C217.297 58.3171 217.52 57.2855 217.483 56.2137C217.379 54.7053 217.444 54.7153 217.775 56.0453C218.038 56.9387 218.091 57.9062 217.833 58.2929C217.269 59.3788 222.766 60.8639 223.85 59.858C224.481 59.2088 224.709 59.4571 224.52 60.7071C224.33 61.9572 224.917 62.4738 227.047 62.908C229.567 63.4021 229.632 63.4121 227.815 63.9855C226.695 64.3464 225.444 64.2606 225.021 63.9823C224.613 63.5997 223.525 63.7522 222.715 64.2673C221.84 64.7723 220.833 64.8307 220.506 64.354C219.346 62.7898 214.111 61.7714 212.036 62.7315C210.593 63.4691 209.943 63.3691 209.37 62.3215C208.96 61.5123 208.391 61.3182 208.117 61.8091C207.569 62.7908 205.634 62.3866 204.637 61.0607C204.246 60.574 203.889 60.7324 203.794 61.3574C203.683 62.0866 222.354 66.5554 219.702 65.6146C218.245 65.1097 228.748 68.6536 228.748 68.6536C228.748 72.7976 221.064 90.0646 221.064 90.0646C220.324 92.0863 219.142 95.3137 218.594 96.6951C218.403 97.0929 217.907 97.1924 217.907 97.1924C215.026 96.8332 213.516 96.5569 211.321 96.2807C209.125 95.8663 208.302 95.8663 207.89 96.0044C207.691 96.0712 206.943 96.4526 206.381 96.9714C205.283 98.3527 202.744 100.665 202.319 101.806C201.953 102.79 202.491 104.712 202.868 106.503C203.362 108.851 203.774 110.785 203.856 111.476C203.856 111.736 203.636 112.098 203.499 112.166C203.235 112.259 198.148 114.515 197.324 114.929C196.544 115.322 193.208 116.863 190.875 117.83C190.775 117.867 190.686 117.857 190.504 117.83C190.047 117.762 188.65 115.422 187.17 113.548C186.339 112.495 185.406 111.149 184.837 110.647C184.351 110.218 183.539 109.989 183.191 109.956C182.642 109.956 182.067 110.094 180.309 110.094C175.918 110.094 176.192 110.647 175.781 110.785C175.369 110.923 174.448 112.338 173.036 114.515C171.602 116.726 170.446 119.372 169.606 119.073C167.273 118.244 162.882 116.448 160.275 115.482C159.177 115.205 156.56 113.969 156.465 113.824C156.41 113.74 156.294 113.573 156.295 113.271C156.432 112.304 156.624 110.593 156.981 108.575C157.228 107.181 157.631 105.35 157.53 103.74C157.256 102.497 155.689 101.468 154.237 100.01C153.139 98.9087 152.375 97.8092 151.355 97.5239C149.434 97.1095 147.09 98.1037 144.769 98.4632C142.985 98.7395 141.201 99.4578 140.789 98.9053C139.554 96.1425 138.182 93.1036 137.633 91.8603C137.254 90.754 135.7 87.54 135.163 86.1968C135.022 85.8427 135.163 85.5061 135.3 85.368C135.438 85.2298 138.731 82.7434 139.691 81.9146C142.573 79.8425 142.909 79.6557 143.259 78.5993C143.609 77.543 143.396 73.3502 143.259 71.9688C143.122 70.5875 142.161 69.8968 140.789 69.068C139.417 68.2392 137.638 67.0298 136.398 66.1671C135.622 65.6272 134.751 65.3383 134.751 64.5095C136.398 59.951 137.633 56.912 138.594 54.2875C139.251 52.49 137.009 52.0302 136.584 52.1938C135.48 52.4505 134.521 52.1965 134.176 51.3973C133.832 50.5981 133.376 50.5281 132.681 51.1673C132.359 51.4387 119.657 55.6688 117.324 54.1493C114.992 52.6298 111.635 57.9311 110.052 57.3264L110.052 82.6053L122.401 82.6053C122.401 82.6053 122.401 94.7612 122.401 98.3251C122.401 98.3251 113.345 98.3527 110.106 98.3251C110.106 99.1539 110.106 109.265 110.106 109.265L97.5731 104.933L92.2716 104.44C93.3908 99.7937 89.1939 98.3527 89.1939 98.3527L89.1939 82.6053C89.0567 72.7976 89.1253 53.7349 89.1253 53.7349L72.5901 47.3807C70.7696 47.1007 65.3052 45.283 64.9502 45.868C64.5303 46.443 64.3352 46.4131 64.4617 45.5797C64.5882 44.7463 63.5144 44.3679 61.1913 44.3305C52.5155 44.0622 45.3983 43.6074 41.0912 43.0516C38.5395 42.7658 36.2006 42.8325 35.8773 43.2092C35.5539 43.5859 35.0179 43.61 34.6102 43.2275C34.2025 42.845 33.1816 43.4342 32.3417 44.5843C31.5176 45.6302 30.53 46.4377 30.0749 46.3677C29.0345 46.2077 25.9612 49.3596 25.7399 50.818C25.645 51.4431 26.0071 52.5647 26.5782 53.1856C27.1178 54.0148 27.2022 54.774 26.7488 55.1307C25.8105 56.0525 24.9971 59.6584 25.9038 58.945C26.2763 58.6825 26.5048 58.9309 26.41 59.5559C26.3309 60.0768 25.9109 60.6518 25.4892 60.8002C24.8566 61.0227 24.7459 61.7519 25.0782 63.5086C25.3788 65.4737 26.0308 66.0003 28.2573 66.2362C29.7528 66.4661 31.9653 67.2328 33.1058 68.0478C35.8104 69.9562 38.7856 70.5203 37.6415 68.852C36.9227 67.8886 37.0193 67.6902 37.9946 67.8402C38.5798 67.9302 39.0209 68.5311 38.9261 69.1561C38.8312 69.7811 39.3848 70.0795 40.1633 69.7728C41.0068 69.4761 41.4953 69.7644 41.3688 70.5978C41.2424 71.4312 41.5833 71.377 42.5058 70.5595C43.525 69.5436 43.785 69.5836 43.887 70.6653C43.924 71.737 44.1841 71.777 45.1066 70.9595C45.7375 70.3102 46.0784 70.256 45.9343 70.7669C45.3422 72.9145 45.6533 73.4954 46.7533 72.3853C47.6917 71.4636 47.8867 71.4936 47.7128 72.6394C47.5864 73.4728 48.0239 73.2203 48.7988 72.0603C49.6059 70.8341 49.9423 71.7811 49.7741 72.2103C49.6059 72.6394 48.8509 73.6264 48.8509 73.6264L49.6059 72.7976L50.772 71.5544C50.772 71.5544 60.103 61.3324 61.0636 60.2273C62.0241 59.1222 72.5901 47.3807 72.5901 47.3807L88.056 53.324L61.6125 82.6052L68.0619 82.6053C68.1674 82.5443 86.7239 82.6052 89.1939 82.6053L89.1939 98.3527C89.1939 98.3527 71.2179 98.3527 66.6896 98.3306C66.6896 98.3306 59.8373 98.3295 58.7308 98.3295C57.2214 98.3295 53.8097 98.3295 51.7185 98.3295C51.9654 99.1024 52.4569 99.4687 53.185 99.279C57.3884 98.3264 58.1529 98.5505 59.2021 100.844C60.7101 104.061 61.652 103.992 61.8012 100.817C61.8889 98.4854 62.1314 98.2029 63.7569 98.4529C64.7972 98.6129 66.0412 98.6573 66.6896 98.3306C67.2385 98.3527 67.3757 98.629 66.834 100.099C65.9151 101.77 65.8044 102.499 66.3422 102.901C66.7007 103.17 66.8167 103.721 66.6234 104.117C66.3651 104.504 66.4969 104.951 66.9521 105.021C67.4072 105.091 68.5794 105.697 69.7023 106.19C70.8253 106.682 71.9464 106.748 72.2364 106.153C72.5105 105.662 73.3047 105.251 73.8899 105.341C74.8652 105.491 74.8336 105.7 73.8461 106.507C72.9235 107.325 72.9077 107.429 73.9621 107.058C74.6597 106.846 75.5525 106.663 75.8776 106.713C76.2677 106.773 76.4117 106.262 76.2957 105.711C76.1955 105.056 76.3238 104.65 76.5838 104.69C76.9089 104.74 77.3026 105.653 77.5997 106.765C77.8651 108.085 78.8598 108.984 80.0144 109.268C81.1197 109.438 81.9474 109.246 81.8314 108.695C81.7154 108.144 81.9403 107.539 82.3936 107.182C82.7662 106.92 83.028 107.386 82.9016 108.22C82.7593 109.157 83.1038 109.956 83.6239 110.036C84.2091 110.126 84.499 109.531 84.4128 108.346C84.2932 106.941 84.52 106.763 85.2862 107.414C85.8732 107.931 86.4109 108.333 86.606 108.363C86.736 108.383 86.5603 109.102 86.2388 109.906C85.8522 110.699 85.9366 111.458 86.3268 111.518C86.7169 111.578 87.121 111.107 87.2001 110.586C87.2949 109.961 88.2035 109.675 89.2438 109.835C90.3491 110.005 91.4685 109.644 91.7426 109.153C92.5649 107.68 93.3997 109.195 92.6758 110.896C92.3069 112.011 92.5688 112.478 93.6091 112.638C94.8445 112.828 95.0061 112.64 94.3524 111.686C93.9112 111.086 93.8269 110.326 94.0852 109.94C94.4085 109.563 94.0622 108.337 93.3908 107.061C91.5911 104.013 92.2716 104.44 92.2716 104.44L97.5731 104.933C96.4432 104.993 96.1181 106.628 96.4432 106.678C96.7683 106.728 97.9458 105.258 97.5731 104.933L110.106 109.265L110.106 112.719C107.471 112.719 99.7418 112.719 98.7994 112.719C98.525 112.719 98.1133 112.719 98.1133 112.719C98.1133 112.719 98.1394 112.162 97.4382 111.521C96.8512 111.005 96.6684 110.017 96.9741 109.318C97.2957 108.515 97.1304 107.849 96.6753 107.779C96.1551 107.699 95.7685 108.493 95.7265 110.085C95.702 112.001 96.1431 112.601 97.9971 113.1C99.2659 113.508 101.299 114.141 102.438 114.529C103.951 115.081 104.714 114.879 105.163 113.669C105.66 112.443 105.935 112.719 106.432 114.077C106.895 115.854 108.148 116.366 116.374 117.845C123.705 119.079 125.947 119.21 126.706 118.155C127.466 117.099 127.448 116.776 126.603 116.646C126.018 116.556 125.641 115.965 125.72 115.444C125.942 113.986 126.755 114.324 127.982 116.325C129.422 118.679 131.079 118.72 131.882 116.499C132.347 115.184 132.946 114.744 133.468 115.25C134.006 115.653 134.379 115.39 134.375 114.537C134.372 113.683 135.052 113.148 136.059 113.09L137.716 113.132L135.979 113.611C134.795 113.962 134.456 114.443 134.946 115.158C135.273 115.634 135.988 115.744 136.507 115.398C137.025 115.051 137.074 115.165 136.704 115.854C136.333 116.544 135.148 116.894 133.978 116.714C132.223 116.444 132.061 116.633 132.651 118.003C133.045 118.916 134.4 120.51 135.623 121.658C137.563 123.342 137.954 123.402 138.468 122.202C138.79 121.399 139.421 120.749 139.941 120.829C140.396 120.899 140.561 121.565 140.256 122.264C139.918 123.171 140.489 123.792 142.099 124.146C144.262 124.799 144.424 124.61 143.816 122.918C143.224 121.121 143.304 121.027 144.591 121.758C145.308 122.294 145.99 122.186 146.1 121.457C146.195 120.832 146.406 120.758 146.619 121.11C147.046 122.242 149.035 120.096 148.769 118.776C148.604 118.111 149.026 117.962 149.792 118.613C150.509 119.15 151.126 119.032 151.221 118.407C151.316 117.782 151.85 117.331 152.37 117.411C152.89 117.491 153.282 117.977 153.219 118.394C153.156 118.811 153.888 119.243 154.945 119.299C155.985 119.459 157.045 120.368 157.57 121.728C158.458 124.21 158.416 125.803 157.44 125.653C157.115 125.603 156.95 124.938 157.191 124.229C157.351 123.614 157.055 122.928 156.535 122.848C156.015 122.768 155.298 122.232 154.955 121.859C154.628 121.383 154.256 121.645 154.129 122.478C154.003 123.312 154.413 124.121 155.063 124.221C155.713 124.321 156.365 124.848 156.465 125.503C156.581 126.054 157.379 126.496 158.191 126.408C159.019 126.215 160.025 126.157 160.481 126.227C160.952 126.193 161.257 125.493 161.189 124.63C161.055 123.757 160.744 123.176 160.436 123.448C160.129 123.721 159.802 123.244 159.718 122.485C159.665 121.518 160.168 121.275 161.452 121.579C162.802 121.893 163.385 121.557 163.624 120.421C163.782 119.379 164.009 119.201 164.028 119.95C164.113 120.709 164.585 121.102 165.088 120.859C165.656 120.627 166.097 121.227 166.214 122.205C166.267 123.172 166.643 123.763 167.097 123.407C167.469 123.144 168.283 123.482 168.919 124.113C169.654 124.973 170.093 125.147 170.399 124.447C171.105 122.424 174.739 125.222 174.636 127.658C174.562 129.458 174.708 129.374 175.121 127.093C175.47 125.227 175.857 124.434 176.379 124.941C176.917 125.343 176.906 126.727 176.427 128.573C175.771 131.137 175.887 131.688 177.058 131.868C178.748 132.128 178.811 131.711 177.729 129.199C176.892 127.258 176.908 127.154 177.968 128.063C178.799 128.724 179.01 128.65 178.874 127.35C178.788 126.164 179.177 125.797 180.347 125.977C181.257 126.117 181.893 126.748 181.799 127.373C181.704 127.998 181.217 128.137 180.679 127.734C180.157 127.227 179.785 127.49 179.82 128.135C179.892 129.852 183.129 130.883 183.871 129.504C184.241 128.815 184.127 128.691 183.674 129.048C183.074 129.488 182.909 128.823 183.115 127.469C183.352 125.907 183.756 125.436 184.294 125.838C184.767 126.231 185.383 126.112 185.624 125.403C185.961 124.496 186.271 124.65 186.958 125.821C187.728 127.326 187.988 127.366 188.713 126.091C189.423 124.921 189.553 124.941 189.933 126.386C190.132 127.269 190.425 127.527 190.504 127.006C190.599 126.381 190.991 126.868 191.288 127.98C191.65 129.102 191.641 130.912 191.288 131.924C190.919 133.04 190.972 134.008 191.362 134.068C191.752 134.128 192.141 133.761 192.22 133.24C192.315 132.615 192.947 132.393 193.582 132.597C194.297 132.707 194.592 133.392 194.271 134.195C193.965 134.894 194.065 135.549 194.455 135.609C194.845 135.669 195.249 135.198 195.328 134.678C195.423 134.053 196.072 133.726 196.852 133.846C197.567 133.956 197.894 134.433 197.604 135.028C197.33 135.518 197.316 136.049 197.706 136.109C198.031 136.159 198.516 135.594 198.822 134.895C199.24 133.893 199.435 133.923 199.992 135.075C200.78 136.902 201.869 137.176 201.472 135.409C201.273 134.526 201.484 134.452 202.3 135.217C204.583 137.273 206.307 137.752 207.113 136.383C207.726 135.412 208.002 135.347 208.266 136.241C208.399 137.114 210.303 137.727 213.309 138.082C215.861 138.368 217.959 139.011 217.88 139.532C217.817 139.948 218.126 140.102 218.499 139.84C218.952 139.483 219.193 138.774 219.077 138.223C218.762 136.789 219.836 137.167 220.476 138.651C221.214 140.364 222.625 139.835 222.179 137.954C222.029 137.185 221.05 136.181 220.041 135.813C219.033 135.445 218.089 135.086 217.894 135.056C217.715 134.922 218.038 134.546 218.637 134.105C219.317 133.57 220.277 133.824 221.173 134.495C222.004 135.155 223.208 135.554 223.906 135.341C224.895 134.96 225.336 135.561 225.523 137.402C225.724 138.997 225.897 138.881 226.041 137.056C226.148 135.473 226.436 134.451 226.649 134.804C226.927 135.166 227.281 134.581 227.424 133.644C227.677 131.977 227.742 131.987 228.659 133.834C229.331 135.11 230.715 136.069 232.601 136.359C235.202 136.759 235.544 137.131 235.276 138.902C235.054 140.361 235.316 140.827 236.095 140.521C236.727 140.298 237.295 140.065 237.49 140.095C237.62 140.115 237.65 139.48 237.581 138.617C237.444 136.89 239.551 135.722 239.899 137.374C239.999 138.03 240.943 138.388 241.982 138.121C243.15 137.874 243.524 138.039 242.959 138.698C242.554 139.169 241.289 139.614 240.136 139.756C238.999 139.795 239.667 140.217 241.797 140.651C244.008 140.991 245.762 140.835 246.132 140.145C246.568 139.466 246.275 139.208 245.317 139.38C244.408 139.667 244.05 139.399 244.372 138.595C244.596 137.99 245.797 137.535 246.983 137.611C251.582 137.999 253.497 137.653 254.369 136.295C255.094 135.021 255.289 135.051 255.833 136.733C256.442 138.853 258.769 139.743 259.672 138.177C259.946 137.686 260.563 137.568 261.02 138.064C261.623 138.477 262.027 138.006 262.248 136.547C262.501 134.881 262.239 134.414 261.087 134.557C260.21 134.635 259.331 134.287 259.004 133.81C258.53 132.991 256.04 131.862 250.622 129.856C249.743 129.507 247.791 128.781 246.228 128.114C235.554 123.914 224.33 120.269 218.51 119.161C217.615 118.916 217.125 118.201 217.267 117.264C217.394 116.431 217.244 115.661 216.919 115.611C216.594 115.561 216.25 114.762 216.197 113.795C216.128 112.931 216.257 112.525 216.599 112.897C216.877 113.26 217.474 112.392 217.956 110.974C218.356 109.649 218.954 108.782 219.247 109.04C219.46 109.393 220.205 108.868 220.85 107.688C221.479 106.612 222.206 105.764 222.531 105.814C223.572 105.974 231.184 101.673 231.311 100.839C231.374 100.422 230.443 99.9464 231.311 99.7021C232.178 99.4578 230.431 97.9383 229.571 98.1742C228.712 98.4101 228.286 97.662 228.286 96.9714C228.286 96.2807 225.656 96.0044 225.656 95.1756C225.656 94.3468 226.827 92.8273 225.175 93.2417C223.523 93.6561 221.064 90.0646 221.064 90.0646C221.064 90.0646 228.748 72.7976 228.748 68.6536C228.748 68.6536 228.43 70.7256 231.907 69.2061C235.385 67.6866 235.024 69.648 237.578 70.3605C240.651 71.153 242.186 66.5772 242.882 65.938C243.739 65.1104 250.091 69.1864 250.292 70.4965C250.557 71.8165 245.101 71.7339 250.841 72.9363C254.856 73.6605 254.473 75.0964 255.741 75.5047C257.465 75.983 263.415 85.9199 263.816 84.5957C264.297 83.1773 264.362 83.1874 264.19 84.76C264.034 86.2284 264.652 86.5367 267.594 86.8825C269.56 87.0783 271.154 87.5367 271.091 87.9534C270.933 88.9951 276.85 89.905 278.048 89.0233C278.648 88.5825 278.839 87.759 278.591 86.7615C277.979 84.2155 278.285 83.5163 279.716 83.7363C280.431 83.8463 280.937 84.4571 280.842 85.0822C280.763 85.603 280.471 85.7714 280.129 85.3989C279.475 84.4455 279.204 85.7898 279.684 87.889C280.115 89.8741 283.45 91.1333 283.134 89.2724C283.05 88.5132 283.213 88.7515 283.607 89.6648C284.297 91.6899 288.267 93.1533 288.52 91.4865C288.599 90.9657 289.459 90.5648 290.483 90.8289C291.979 91.0589 292.012 91.2773 290.877 91.7424C289.596 92.2916 289.58 92.3958 290.525 93.1808C291.112 93.6975 292.184 93.6491 292.914 93.2282C293.643 92.8073 294.715 92.759 295.188 93.1515C295.775 93.6682 296.212 93.4157 296.339 92.5823C296.512 91.4364 296.658 91.3523 296.94 92.5682C297.089 93.3374 297.53 93.9382 297.871 93.884C298.212 93.8298 298.586 93.994 298.765 94.1281C298.945 94.2623 300.279 94.6807 301.807 95.129C303.921 95.6673 304.538 95.549 304.809 94.2048C305.03 92.7464 305.111 92.6521 305.296 94.0664C305.531 96.0215 307.84 96.5899 308.515 94.7748C308.74 94.1697 309.42 93.6346 309.94 93.7146C310.72 93.8346 310.738 94.1572 309.995 95.1089C309.236 96.1648 309.448 96.5173 311.058 96.8715C312.928 97.2656 313.024 97.0673 313.044 93.8722C313.133 91.9671 312.915 90.3345 312.622 90.0762C311.855 89.4253 314.233 86.9126 315.338 87.0826C315.858 87.1626 316.538 86.6276 316.844 85.9284C317.375 84.6242 314.757 88.134 319.314 86.1697C320.741 85.5363 318.67 83.2303 318.765 82.6053C319.018 80.9385 319.805 77.6542 318.765 77.4942C318.245 77.4142 318.637 75.6197 318.39 75.0488C318.095 74.3638 317.085 73.5688 316.157 73.1063C314.595 72.4396 306.337 67.2253 301.449 63.9152C299.706 62.6877 294.757 60.221 293.408 59.9069C293.083 59.8569 292.545 59.4544 292.202 59.0819C291.94 58.6152 292.324 64.2054 290.956 63.5687C289.605 62.8279 288.238 62.1912 287.863 62.027C286.203 61.132 285.441 63.046 284.871 62.8519C284.61 62.3852 285.553 62.7435 284.871 62.8519C284.14 62.846 283.803 64.6959 283.362 64.0951C282.84 63.5884 280.029 63.3344 278.971 62.8519C278.68 62.7135 272.796 61.7468 273.455 60.2803C274.114 58.8139 267.636 56.6681 269.332 55.3925C272.454 53.0442 265.072 52.7157 264.281 53.0734C262.078 54.0696 261.576 54.2735 259.672 53.661C257.753 53.1527 237.435 57.9637 235.746 58.0171C235.746 55.6259 235.746 46.2756 235.746 41.579C226.141 40.8883 228.631 37.6841 225.021 36.8824C222.696 36.4182 220.392 33.1017 220.407 32.9976C220.455 32.685 217.9 31.5459 214.353 30.3609C211.506 29.3901 210.63 29.4684 210.471 30.5101C210.298 31.656 210.168 31.6361 209.935 30.5343C209.473 28.7576 207.813 27.8625 201.78 26.4017C199.145 25.7834 196.298 24.8125 195.42 24.4642C194.557 24.0117 191.125 22.9509 187.791 22.1184C184.458 21.2859 180.31 20.1152 178.569 19.3143C176.876 18.6276 173.608 17.8051 171.397 17.4651C169.186 17.1251 167.364 16.4185 167.427 16.0018C167.49 15.5851 166.889 15.5992 166.144 16.1243C164.394 17.1344 163.728 17.1386 164.357 16.0627C164.631 15.5719 163.589 14.9852 162.094 14.7552C160.598 14.5252 157.2 13.6827 154.581 12.9602C148.531 11.1769 143.475 10.2927 139.804 10.3678C138.261 10.4503 137.106 10.1662 137.365 9.7795C137.913 8.79778 133.801 8.27194 132.586 9.25784C131.906 9.79287 131.451 9.72287 131.416 9.07784C131.365 8.53698 128.487 7.77454 125.025 7.34874C121.498 6.91294 116.085 6.18708 112.948 5.81128C109.812 5.43548 107.031 4.9014 106.819 4.54889C106.59 4.30055 105.534 4.24466 104.561 4.52135ZM39.8255 8.42417C39.9257 9.0792 39.6497 9.1434 39.177 8.75089C38.1173 7.8417 38.0329 7.08247 38.9432 7.22246C39.3333 7.28246 39.7252 7.76914 39.8255 8.42417ZM60.4671 14.9033C60.3881 15.4242 59.8047 15.7609 59.2353 15.5667C58.5201 15.4567 58.4375 15.1242 59.0051 14.8917C59.4268 14.7434 59.7483 13.94 59.6323 13.3891C59.4829 12.62 59.6287 12.5358 59.9556 13.0124C60.3475 13.4991 60.562 14.2783 60.4671 14.9033ZM65.0994 15.5091C64.9413 16.5508 65.168 16.3725 65.7637 15.0783C66.5842 13.179 66.6492 13.189 66.333 15.2724C66.1767 16.7408 65.4985 17.7026 64.5249 17.9793C62.2528 18.4826 61.1632 18.2084 61.7115 17.2267C62.0506 16.7459 61.9504 16.0909 61.5268 15.8126C60.3371 14.8834 62.0029 13.1141 63.6618 13.5824C64.6371 13.7324 65.1767 14.5616 65.0994 15.5091ZM68.1184 14.9074C68.2345 15.4582 68.0254 15.9591 67.7003 15.9091C67.3101 15.8491 67.0641 15.2782 67.1431 14.7574C67.238 14.1324 67.4313 13.7357 67.5613 13.7557C67.7564 13.7857 68.0182 14.2523 68.1184 14.9074ZM140.763 25.9726C139.952 26.4877 140.037 27.2469 141.084 29.1136C142.197 30.9904 142.248 31.5312 141.323 31.9221C140.756 32.1546 140.512 32.0104 140.786 31.5195C141.06 31.0286 140.715 30.2295 140.063 29.7028C138.32 28.4753 139.149 24.7651 141.035 25.0551C141.425 25.1151 141.297 25.5218 140.763 25.9726ZM143.877 28.6902C143.993 29.241 143.849 29.7519 143.458 29.6919C143.133 29.6419 142.692 29.0411 142.576 28.4902C142.476 27.8352 142.604 27.4285 142.994 27.4885C143.32 27.5385 143.776 28.0352 143.877 28.6902ZM146.012 30.4045C145.219 31.242 145.17 31.1279 145.782 29.7295C146.135 28.7177 146.604 28.2568 146.752 28.5993C146.899 28.9418 146.578 29.7453 146.012 30.4045ZM96.9035 22.5323C97.0195 23.0831 96.8755 23.594 96.4854 23.534C96.1603 23.484 95.7191 22.8832 95.6031 22.3323C95.5029 21.6773 95.6312 21.2706 96.0213 21.3306C96.3464 21.3806 96.8033 21.8773 96.9035 22.5323ZM222.018 53.0734C222.785 53.7243 222.802 54.0468 221.976 54.666C220.47 55.8202 219.332 55.4319 219.6 53.661C219.853 51.9943 220.486 51.7717 222.018 53.0734ZM230.825 57.3061C230.246 58.9228 226.702 58.1644 226.63 56.4477C226.561 55.5843 226.804 55.3018 227.131 55.7785C227.473 56.151 227.944 56.1168 228.218 55.6259C228.928 54.4559 231.355 56.0018 230.825 57.3061ZM237.942 56.6358C237.62 57.4391 237.473 57.0965 237.647 55.9506C237.755 54.7947 238.045 54.1998 238.177 54.6465C238.325 54.989 238.248 55.9366 237.942 56.6358ZM234.747 59.0819C236.246 60.1652 237.16 61.1586 236.754 61.2027C234.513 61.4978 233.034 61.1637 232.835 60.2803C232.703 59.8336 232.28 59.5553 231.907 59.8178C231.519 60.1845 231.338 59.6236 231.464 58.7902C231.607 57.8527 231.782 57.1335 231.912 57.1535C231.977 57.1635 233.232 58.1027 234.747 59.0819ZM159.967 69.5418C160.141 68.3959 160.336 68.426 160.779 69.4535C161.714 71.6228 160.031 73.0694 158.27 71.5194C157.504 70.8685 157.193 70.2877 157.648 70.3577C158.119 70.3235 158.424 69.6244 158.338 68.4385C158.234 66.9301 158.349 67.0542 158.941 68.8509C159.5 70.4293 159.728 70.6777 159.967 69.5418ZM147.288 67.5919C147.404 68.1428 147.195 68.6436 146.87 68.5936C146.48 68.5336 146.234 67.9628 146.313 67.4419C146.408 66.8169 146.601 66.4202 146.731 66.4402C146.926 66.4702 147.188 66.9369 147.288 67.5919ZM177.658 73.5418C178.474 74.3068 179.047 75.3542 178.984 75.7709C178.841 76.7085 171.297 75.122 170.789 74.0844C170.494 73.3994 171.678 73.0485 172.866 73.551C173.126 73.591 173.385 73.2043 173.464 72.6834C173.669 71.3292 175.815 71.6592 177.658 73.5418ZM186.521 75.6509C188.334 78.1685 187.204 79.9136 185.294 77.5943C184.494 76.7251 184.169 76.6751 184.319 77.4443C184.484 78.1093 183.786 78.3218 182.192 77.8635C180.924 77.4551 179.799 76.536 179.764 75.8909C179.727 74.8192 181.122 74.3942 182.944 75.1009C183.319 75.2651 183.772 74.9083 183.867 74.2833C184.104 72.7207 184.772 73.1433 186.521 75.6509ZM166.32 73.7169C166.046 74.2078 165.315 74.202 164.582 73.7695C163.67 73.2028 163.603 72.7661 164.268 72.3352C165.401 71.4435 166.949 72.641 166.32 73.7169ZM192.146 76.7291C192.051 77.3541 192.539 77.6425 193.318 77.3358C194.372 76.965 194.569 77.4217 194.267 78.9742C193.981 80.4226 193.673 80.6952 193.264 79.886C192.888 79.2951 191.814 78.9167 190.775 79.1834C189.055 79.5585 189.006 79.4443 189.972 77.4608C191.1 75.2891 192.446 74.7499 192.146 76.7291ZM207.313 79.3816C206.879 80.4874 207.173 80.7457 209.023 80.3907C210.257 80.154 211.947 80.414 212.794 80.9707L214.309 81.9499L212.538 81.7841C211.482 81.7283 210.622 82.1291 210.528 82.7541C210.401 83.5875 210.076 83.5375 209.568 82.5C208.946 81.3383 208.556 81.2783 207.698 82.1058C206.906 82.9434 206.516 82.8834 206.317 82C206.036 80.7841 206.949 77.8331 207.535 77.9231C207.73 77.9531 207.635 78.5782 207.313 79.3816ZM169.896 74.2669C169.817 74.7877 169.608 75.2886 169.478 75.2686C169.283 75.2386 169.037 74.6677 168.921 74.1169C168.821 73.4618 169.014 73.0652 169.339 73.1152C169.729 73.1752 169.991 73.6418 169.896 74.2669ZM201.27 79.305C201.939 80.1542 203.242 80.7809 204.168 80.8167C205.776 80.7442 205.76 80.8483 204.352 82.2309C202.426 83.9602 201.971 83.8902 201.752 81.8309C201.683 80.9675 200.883 80.0983 199.973 79.9583C198.803 79.7783 198.349 80.1351 198.548 81.0185C198.747 81.9019 198.536 81.976 197.819 81.4393C197.232 80.9227 196.629 80.5101 196.499 80.4901C195.719 80.3701 196.734 78.5009 197.773 78.2342C199.785 77.6908 200.029 77.835 201.27 79.305ZM215.903 82.4082C215.824 82.9291 215.42 83.3999 215.03 83.3399C214.705 83.2899 214.654 82.7491 214.928 82.2582C215.218 81.6632 215.606 81.2965 215.801 81.3265C215.931 81.3465 215.998 81.7832 215.903 82.4082ZM220.129 83.0582C219.855 83.549 219.321 83.9999 218.931 83.9399C218.606 83.8899 218.425 83.329 218.504 82.8082C218.599 82.1832 219.117 81.8365 219.702 81.9265C220.223 82.0065 220.419 82.4631 220.129 83.0582ZM227.282 84.1581C227.398 84.709 227.059 85.1898 226.539 85.1098C225.953 85.0198 225.577 84.429 225.656 83.9081C225.751 83.2831 226.074 82.9064 226.4 82.9564C226.79 83.0164 227.182 83.5031 227.282 84.1581ZM231.183 84.7581C230.909 85.2489 230.292 85.3673 229.835 84.8707C228.58 83.9315 228.805 83.3264 230.431 83.5764C231.146 83.6864 231.538 84.173 231.183 84.7581ZM208.76 83.4417C208.876 83.9926 208.667 84.4934 208.342 84.4434C207.951 84.3834 207.705 83.8126 207.784 83.2917C207.879 82.6667 208.073 82.27 208.203 82.29C208.398 82.32 208.66 82.7867 208.76 83.4417ZM260.693 79.7447C260.418 80.2356 259.754 80.6665 259.364 80.6065C258.909 80.5365 259.037 80.1298 259.717 79.5947C261.142 78.5347 261.402 78.5747 260.693 79.7447ZM264.19 80.8156C264.063 81.6489 263.497 82.3081 262.977 82.2282C261.287 81.9682 262.123 79.9647 264.281 79.3371C264.362 79.243 264.316 79.9822 264.19 80.8156ZM220.956 86.3833C220.682 86.8742 220.017 87.305 219.627 87.245C219.172 87.175 219.3 86.7683 219.98 86.2333C221.405 85.1732 221.665 85.2132 220.956 86.3833ZM225.175 89.2709C225.064 90.0001 224.353 90.7435 223.59 90.946C222.502 91.0985 222.469 90.8802 223.309 89.7301C223.825 88.9568 224.114 87.935 223.933 87.3741C223.736 86.9175 224.027 86.7492 224.5 87.1417C224.973 87.5342 225.302 88.4375 225.175 89.2709ZM293.18 87.0863C293.054 87.9197 291.919 88.3847 290.342 88.2489C288.815 88.2273 287.773 87.6405 287.868 87.0155C287.963 86.3905 288.239 86.3263 288.581 86.6988C288.859 87.0613 289.736 86.9829 290.4 86.5521C292.247 85.3437 293.402 85.6279 293.18 87.0863ZM282.65 86.3197C282.571 86.8406 282.362 87.3414 282.232 87.3214C282.037 87.2914 281.791 86.7206 281.675 86.1697C281.575 85.5147 281.768 85.118 282.093 85.168C282.483 85.228 282.745 85.6947 282.65 86.3197ZM286.561 89.0531C286.677 89.604 286.338 90.0848 285.752 89.9948C285.167 89.9048 284.986 89.344 285.26 88.8531C285.55 88.2581 285.939 87.8914 286.069 87.9114C286.199 87.9314 286.46 88.3981 286.561 89.0531ZM44.6811 66.31C44.5546 67.1434 44.1663 67.5101 43.8886 67.1476C43.5617 66.6709 43.5423 65.9218 43.8164 65.4309C44.6229 64.0625 44.9656 64.435 44.6811 66.31ZM42.2595 66.0443C41.7727 66.1827 40.9925 66.0627 40.634 65.7943C40.2262 65.4118 40.583 65.2535 41.4933 65.3935C42.4036 65.5335 42.697 65.7918 42.2595 66.0443ZM47.528 67.2809C48.0079 69.3801 46.8392 69.6269 46.0026 67.686C45.2153 65.8593 45.2311 65.755 46.2064 65.905C46.7916 65.995 47.4278 66.6258 47.528 67.2809ZM51.1411 68.9026C51.1482 70.6093 51.0516 70.8077 50.4294 69.646C49.5946 68.1318 49.6525 66.435 50.5628 66.575C50.8879 66.625 51.1357 67.6225 51.1411 68.9026ZM36.6572 66.5685C36.5782 67.0894 36.3691 67.5902 36.2391 67.5702C36.044 67.5402 35.798 66.9694 35.6819 66.4185C35.5817 65.7635 35.775 65.3668 36.1001 65.4168C36.4902 65.4768 36.7521 65.9435 36.6572 66.5685ZM56.4886 69.6184C57.2882 70.4876 56.8823 70.5318 55.1408 69.7309C53.7577 69.1984 53.8893 68.8819 53.7908 68.6536C53.3321 67.7302 55.3797 68.595 56.4886 69.6184ZM60.2318 71.26C60.3478 71.8109 60.1387 72.3118 59.8136 72.2618C59.4234 72.2018 59.1774 71.6309 59.2565 71.1101C59.3513 70.485 59.5446 70.0883 59.6746 70.1083C59.8697 70.1383 60.1316 70.605 60.2318 71.26ZM197.181 111.51C197.297 112.061 196.958 112.542 196.438 112.462C195.852 112.372 195.476 111.781 195.555 111.26C195.65 110.635 195.974 110.258 196.299 110.308C196.689 110.368 197.081 110.855 197.181 111.51ZM78.3672 99.9536C78.4358 100.817 78.0808 101.402 77.6257 101.332C77.1705 101.262 77.0053 100.597 77.3269 99.7936C77.6326 99.0944 77.9225 98.4993 78.0525 98.5193C78.1826 98.5393 78.2828 99.1944 78.3672 99.9536ZM72.1305 100.274C71.8618 102.045 69.9938 102.077 68.8163 100.19C68.1625 99.2371 68.3892 99.0587 69.7564 99.6954C70.7001 100.054 71.5119 99.9654 71.5752 99.5487C71.6542 99.0278 71.8475 98.6311 72.0426 98.6611C72.2376 98.6911 72.257 99.4403 72.1305 100.274ZM82.9908 102.37C84.3828 105.036 84.3213 105.88 82.7414 104.89C82.0086 104.458 81.6975 103.877 81.94 103.595C82.1175 103.302 82.1139 102.449 81.8503 101.555C81.1103 99.4161 81.7131 99.8285 82.9908 102.37ZM80.7028 102.978C80.4603 103.26 79.9876 102.868 79.6431 102.069C79.216 100.937 79.2969 100.843 80.1123 101.608C80.7151 102.02 80.9453 102.695 80.7028 102.978ZM128.486 112.565C128.017 113.026 127.019 111.273 127.177 110.232C127.256 109.711 127.63 109.875 128.04 110.684C128.449 111.493 128.583 112.367 128.486 112.565ZM87.6654 105.328C85.7202 106.308 84.6798 106.148 86.0399 105.078C86.6391 104.637 87.6126 104.36 88.1328 104.44C88.783 104.54 88.6055 104.833 87.6654 105.328ZM112.426 110.095C113.191 110.319 113.778 110.836 113.698 111.357C113.619 111.878 112.792 112.07 111.832 111.816C110.824 111.448 110.106 112.206 110.106 112.719L110.106 109.265C110.66 109.564 111.581 109.965 112.426 110.095ZM123.917 111.543C125.45 112.844 124.708 114.223 122.693 113.913C120.482 113.573 119.694 111.746 121.496 111.277C122.193 111.064 122.81 110.946 122.891 110.852C122.956 110.862 123.379 111.14 123.917 111.543ZM131.722 113.169C131.447 113.66 130.653 114.071 130.084 113.877C129.173 113.737 129.27 113.538 130.421 112.969C131.707 112.385 132.141 112.452 131.722 113.169ZM118.593 112.429C118.807 113.209 118.45 113.367 117.588 112.914C116.855 112.482 116.108 112.58 115.883 113.185C115.433 114.395 114.112 113.019 114.349 111.457C114.554 110.103 118.229 110.881 118.593 112.429ZM144.2 117.753C145.144 118.112 146.364 118.406 146.868 118.59C147.388 118.67 147.764 119.261 147.701 119.678C147.559 120.615 142.617 119.855 142.109 118.818C141.977 118.371 141.231 118.469 140.486 118.994C139.433 119.792 138.913 119.712 138.176 118.426C137.422 116.818 137.438 116.713 138.964 116.308C139.872 116.022 141.042 116.202 141.515 116.594C141.988 116.987 143.176 117.489 144.2 117.753ZM186.59 123.42C186.104 123.558 185.323 123.438 184.965 123.17C184.557 122.787 184.914 122.629 185.824 122.769C186.734 122.909 187.028 123.167 186.59 123.42ZM204.477 131.394C207.355 132.156 208.039 132.475 207.115 132.866C206.612 133.108 206.225 133.902 206.261 134.547C206.215 135.286 206.183 135.494 206.132 134.953C206.001 134.507 205.528 134.114 205.008 134.034C204.487 133.954 204.161 133.477 204.224 133.061C204.303 132.54 201.814 131.837 198.727 131.576C195.655 131.21 193.346 130.642 193.588 130.359C193.831 130.077 194.854 129.914 195.845 129.96C196.917 129.911 198.345 129.705 199.059 129.388C200.064 128.903 200.243 129.037 199.792 129.821C199.421 130.51 199.407 131.041 199.732 131.091C200.122 131.151 200.704 130.387 201.122 129.386C201.749 127.883 201.879 127.903 202.324 129.357C202.653 130.261 203.566 131.254 204.477 131.394ZM210.423 131.669C210.329 132.294 210.656 132.771 211.142 132.632C211.629 132.494 211.972 132.866 211.942 133.501C211.928 134.032 210.988 134.527 209.932 134.472C207.869 134.474 207.819 134.36 208.768 132.054C209.508 130.249 210.676 130.002 210.423 131.669ZM138.092 121.611C138.013 122.132 137.804 122.633 137.674 122.613C137.479 122.583 137.233 122.012 137.117 121.461C137.017 120.806 137.21 120.409 137.535 120.459C137.925 120.519 138.187 120.986 138.092 121.611ZM215.404 133.927C215.356 134.24 215.017 134.721 214.58 134.973C214.207 135.236 213.914 134.977 213.993 134.456C214.088 133.831 214.492 133.361 214.817 133.411C215.207 133.471 215.435 133.719 215.404 133.927ZM217.102 135.894C217.022 136.415 216.683 136.896 216.293 136.836C215.968 136.786 215.722 136.215 215.801 135.694C215.896 135.069 216.284 134.702 216.609 134.752C217 134.812 217.196 135.269 217.102 135.894Z" fill="white"/>
<path fill-rule="evenodd" clip-rule="evenodd" d="M85.9376 40.153C85.8586 40.6739 86.1047 41.2448 86.4948 41.3048C86.8199 41.3548 87.0289 40.8539 86.9129 40.303C86.8127 39.648 86.5509 39.1813 86.3558 39.1513C86.2258 39.1313 86.0325 39.528 85.9376 40.153Z" fill="white"/>
<path fill-rule="evenodd" clip-rule="evenodd" d="M87.8876 40.4531C87.6821 41.8074 88.3675 42.5524 89.3726 42.0674C90.8645 41.444 90.7783 40.2581 89.2828 40.0281C88.5676 39.9181 87.935 40.1406 87.8876 40.4531Z" fill="white"/>
<path fill-rule="evenodd" clip-rule="evenodd" d="M41.2402 34.3454C40.9661 34.8362 41.0171 35.3771 41.3422 35.4271C41.7323 35.4871 42.1365 35.0162 42.2155 34.4954C42.3104 33.8703 42.2435 33.4336 42.1135 33.4136C41.9184 33.3836 41.5301 33.7503 41.2402 34.3454Z" fill="white"/>
<path fill-rule="evenodd" clip-rule="evenodd" d="M51.6291 36.4759C51.7627 37.3493 52.3673 38.1885 53.0175 38.2884C53.6677 38.3884 54.3636 37.7492 54.4901 36.9159C54.6323 35.9783 54.142 35.2633 53.1017 35.1033C51.9313 34.9233 51.5429 35.29 51.6291 36.4759Z" fill="white"/>
<path fill-rule="evenodd" clip-rule="evenodd" d="M97.8259 43.3672C97.8629 44.4389 98.174 45.0197 98.4164 44.7372C98.6589 44.4547 98.5904 43.5914 98.2459 42.7922C97.738 41.7546 97.6571 41.8488 97.8259 43.3672Z" fill="white"/>
<path fill-rule="evenodd" clip-rule="evenodd" d="M123.476 47.0985C123.396 47.6194 123.69 47.8777 124.062 47.6152C124.5 47.3627 124.839 46.8819 124.887 46.5693C124.918 46.361 124.69 46.1126 124.3 46.0526C123.975 46.0026 123.57 46.4735 123.476 47.0985Z" fill="white"/>
<path fill-rule="evenodd" clip-rule="evenodd" d="M38.79 35.141C38.7109 35.6618 39.0044 35.9202 39.3769 35.6577C39.8145 35.4052 40.1536 34.9243 40.201 34.6118C40.2327 34.4035 40.0042 34.1551 39.6141 34.0951C39.289 34.0451 38.8848 34.5159 38.79 35.141Z" fill="white"/>
<path fill-rule="evenodd" clip-rule="evenodd" d="M42.9359 35.8849C42.0485 37.3475 42.6513 37.7599 44.8742 37.1424C45.9936 36.7815 46.6579 36.3507 46.2836 36.1865C45.9743 36.0323 45.1606 35.694 44.607 35.3956C43.9884 35.0873 43.2258 35.2899 42.9359 35.8849Z" fill="white"/>
<path fill-rule="evenodd" clip-rule="evenodd" d="M55.3398 38.3261C54.7283 39.7245 54.7775 39.8386 55.57 39.0011C56.1358 38.3419 56.4574 37.5384 56.3097 37.1959C56.1621 36.8534 55.6929 37.3143 55.3398 38.3261Z" fill="white"/>
<path fill-rule="evenodd" clip-rule="evenodd" d="M140.806 50.4038C140.124 50.5121 139.509 51.0571 139.43 51.5779C139.367 51.9946 139.92 52.293 140.683 52.0905C141.446 51.888 142.126 51.3529 142.205 50.832C142.284 50.3112 142.266 49.9886 142.201 49.9786C142.055 50.0628 141.439 50.1812 140.806 50.4038Z" fill="white"/>
<path fill-rule="evenodd" clip-rule="evenodd" d="M124.475 49.2779C124.38 49.9029 124.772 50.3896 125.292 50.4696C125.812 50.5496 126.299 50.4112 126.331 50.2029C126.362 49.9945 125.971 49.5079 125.514 49.0112C125.041 48.6187 124.554 48.757 124.475 49.2779Z" fill="white"/>
<path fill-rule="evenodd" clip-rule="evenodd" d="M163.813 55.3274C161.962 55.6825 161.882 55.7767 163.022 56.5917C163.739 57.1284 164.764 57.3925 165.331 57.16C165.98 56.8333 166.486 57.4442 166.554 58.3075C166.792 60.6893 168.449 60.7309 169.203 58.3949C169.603 57.0707 169.552 56.53 168.904 56.8567C168.352 56.985 167.473 56.6366 166.886 56.12C166.315 55.4991 164.981 55.0807 163.813 55.3274Z" fill="white"/>
<path fill-rule="evenodd" clip-rule="evenodd" d="M171.458 57.5691C171.184 58.06 171.365 58.6209 171.95 58.7109C172.535 58.8008 172.874 58.32 172.758 57.7691C172.658 57.1141 172.396 56.6474 172.266 56.6274C172.136 56.6074 171.748 56.9741 171.458 57.5691Z" fill="white"/>
<path fill-rule="evenodd" clip-rule="evenodd" d="M156.669 56.3612C156.07 56.802 155.861 57.3029 156.186 57.3529C156.576 57.4129 157.371 57.002 157.97 56.5611C158.569 56.1203 158.843 55.6294 158.453 55.5694C158.128 55.5194 157.269 55.9203 156.669 56.3612Z" fill="white"/>
<path fill-rule="evenodd" clip-rule="evenodd" d="M174.907 58.9526C174.828 59.4734 175.22 59.9601 175.74 60.0401C176.26 60.1201 176.778 59.7734 176.857 59.2525C176.921 58.8359 176.529 58.3491 176.009 58.2691C175.488 58.1891 174.97 58.5359 174.907 58.9526Z" fill="white"/>
<path fill-rule="evenodd" clip-rule="evenodd" d="M178.472 60.8865C177.244 62.4032 177.212 62.6116 178.678 63.4766C180.274 64.3616 181.862 63.54 180.493 62.4766C180.151 62.1041 179.985 61.439 180.244 61.0523C181.228 59.3914 179.846 59.2855 178.472 60.8865Z" fill="white"/>
<path fill-rule="evenodd" clip-rule="evenodd" d="M171.633 60.7942C171.359 61.2851 171.54 61.846 172.126 61.936C172.711 62.0259 173.05 61.5451 172.934 60.9942C172.834 60.3392 172.572 59.8725 172.442 59.8525C172.312 59.8325 171.923 60.1992 171.633 60.7942Z" fill="white"/>
<path fill-rule="evenodd" clip-rule="evenodd" d="M186.771 64.0819C186.676 64.7069 186.826 65.4761 187.168 65.8486C187.511 66.2211 187.639 65.8144 187.571 64.9511C187.4 63.006 186.992 62.6235 186.771 64.0819Z" fill="white"/>
<path fill-rule="evenodd" clip-rule="evenodd" d="M190.335 65.5888C190.293 67.1813 190.978 67.9264 192.816 68.5289C196.573 69.6397 196.106 66.5828 192.215 64.5986C190.489 63.6936 190.278 63.7679 190.335 65.5888Z" fill="white"/>
<path fill-rule="evenodd" clip-rule="evenodd" d="M198.024 67.0918C198.124 67.7468 197.787 68.6543 197.253 69.1052C196.508 69.6302 196.59 69.9628 197.696 70.1328C198.671 70.2828 199.221 69.7277 199.442 68.2693C199.616 67.1234 199.303 66.1159 198.718 66.0259C198.198 65.9459 197.859 66.4267 198.024 67.0918Z" fill="white"/>
<path fill-rule="evenodd" clip-rule="evenodd" d="M200.267 67.2237C200.077 68.4737 201.789 69.9096 202.761 69.2062C203.214 68.8495 203.244 68.2145 202.803 67.6137C201.806 66.2878 200.441 66.0778 200.267 67.2237Z" fill="white"/>
<path fill-rule="evenodd" clip-rule="evenodd" d="M204.369 69.1334C203.48 70.1693 202.981 71.2653 203.113 71.712C203.325 72.0645 203.552 71.8862 203.647 71.2611C203.758 70.5319 204.162 70.061 204.487 70.111C204.877 70.171 204.977 70.8261 204.817 71.4411C204.577 72.1503 205.116 72.9795 205.93 73.3178C206.923 73.7903 207.295 73.5278 207.112 72.5402C206.865 71.5427 207.206 71.4885 208.362 72.1994C209.225 72.6519 210.216 72.6977 210.506 72.1027C210.78 71.6118 211.379 71.1709 211.704 71.2209C212.094 71.2809 212.161 71.7177 211.903 72.1044C211.274 73.1802 214.033 76.4829 214.76 75.6353C215.019 75.2486 214.806 74.896 214.221 74.8061C213.636 74.7161 212.982 73.7628 212.815 72.6711C212.581 71.1427 211.62 70.4617 209.441 69.9134C207.701 69.5392 206.269 68.8925 206.088 68.3317C205.956 67.885 205.177 68.1917 204.369 69.1334Z" fill="white"/>
<path fill-rule="evenodd" clip-rule="evenodd" d="M72.7822 122.453C72.7031 122.973 72.9966 123.232 73.45 122.875C73.8875 122.623 74.4253 123.025 74.6397 123.804C74.921 125.02 75.0668 124.936 75.2881 123.478C75.4462 122.436 75.0367 121.627 74.2565 121.507C73.5412 121.397 72.877 121.827 72.7822 122.453Z" fill="white"/>
<path fill-rule="evenodd" clip-rule="evenodd" d="M273.509 158.972C273.92 160.208 274.328 160.591 274.568 159.881C274.793 159.276 275.231 159.024 275.493 159.491C275.77 159.853 277.203 160.5 278.666 160.938C282.733 162.203 280.888 159.894 276.593 158.381C272.997 157.081 272.851 157.166 273.509 158.972Z" fill="white"/>
<path fill-rule="evenodd" clip-rule="evenodd" d="M141.447 141.328C141.547 141.983 140.8 142.081 139.498 141.455C138.375 140.962 137.173 140.99 136.818 141.575C136.528 142.17 137.505 142.747 139.537 142.953C142.203 143.363 142.705 143.12 142.294 141.885C141.686 140.192 141.083 139.779 141.447 141.328Z" fill="white"/>
<path fill-rule="evenodd" clip-rule="evenodd" d="M174.124 147.419C174.029 148.044 174.535 148.655 175.315 148.775C176.03 148.884 176.357 149.361 176.067 149.956C175.793 150.447 175.779 150.978 176.169 151.038C176.494 151.088 177.094 150.647 177.368 150.156C177.658 149.561 178.241 149.224 178.566 149.274C178.956 149.334 178.958 149.761 178.668 150.356C177.846 151.829 178.739 151.646 180.016 150.244C180.921 149.104 180.692 148.855 178.823 148.461C177.538 148.157 176.025 147.604 175.422 147.192C174.77 146.665 174.218 146.794 174.124 147.419Z" fill="white"/>
<path fill-rule="evenodd" clip-rule="evenodd" d="M196.55 153.106C196.36 154.356 196.689 155.26 197.404 155.37C198.379 155.52 198.411 155.312 197.708 154.244C197.054 153.291 197.2 153.207 198.404 153.605C199.347 153.963 200.142 153.552 200.414 152.635C200.864 151.425 200.799 151.415 200.105 152.481C199.507 153.348 199.166 153.402 199.033 152.529C198.537 150.534 196.882 150.919 196.55 153.106Z" fill="white"/>
<path fill-rule="evenodd" clip-rule="evenodd" d="M163.063 147.957C163.179 148.507 163.75 149.128 164.27 149.208C164.79 149.288 165.26 148.827 165.339 148.307C165.433 147.682 164.911 147.175 164.131 147.055C163.416 146.945 162.963 147.302 163.063 147.957Z" fill="white"/>
<path fill-rule="evenodd" clip-rule="evenodd" d="M237.724 159.332C236.267 160.6 236.727 161.951 238.776 162.479C240.24 162.917 241.003 162.715 241.161 161.673C241.382 160.215 238.792 158.43 237.724 159.332Z" fill="white"/>
<path fill-rule="evenodd" clip-rule="evenodd" d="M181.111 151.798C181.227 152.349 181.863 152.98 182.448 153.07C183.424 153.22 183.455 153.012 182.736 152.048C181.641 150.494 180.796 150.364 181.111 151.798Z" fill="white"/>
<path fill-rule="evenodd" clip-rule="evenodd" d="M233.778 159.898C233.504 160.388 233.555 160.929 233.88 160.979C234.27 161.039 234.675 160.568 234.754 160.048C234.848 159.423 234.782 158.986 234.652 158.966C234.457 158.936 234.068 159.303 233.778 159.898Z" fill="white"/>
<path d="M275.96 103.995C276.417 104.491 277.034 104.373 277.308 103.882C277.663 103.297 277.271 102.81 276.556 102.7C274.93 102.45 274.705 103.055 275.96 103.995Z" fill="white"/>
<path d="M279.457 109.409C280.19 109.841 280.921 109.847 281.195 109.356C281.824 108.281 280.276 107.083 279.143 107.975C278.478 108.406 278.545 108.842 279.457 109.409Z" fill="white"/>
<path fill-rule="evenodd" clip-rule="evenodd" d="M282.589 49.0643C282.78 48.4619 282.375 47.7788 281.623 47.5374C280.934 47.316 280.685 46.7937 281.064 46.2517C281.411 45.8101 281.507 45.288 281.131 45.1673C280.818 45.0667 280.158 45.4077 279.81 45.8493C279.432 46.3913 278.803 46.6319 278.49 46.5313C278.114 46.4106 278.178 45.9889 278.557 45.4469C279.598 44.122 278.688 44.1615 277.208 45.3455C276.137 46.329 276.324 46.6102 278.11 47.2942C279.331 47.797 280.74 48.5812 281.271 49.0836C281.833 49.7065 282.398 49.6667 282.589 49.0643Z" fill="white"/>
</svg>
