<svg width="304" height="11" viewBox="0 0 304 11" fill="none" xmlns="http://www.w3.org/2000/svg">
<path fill-rule="evenodd" clip-rule="evenodd" d="M302.892 9.56617C302.126 9.97746 300.678 10.2174 298.465 10.2174C296.677 10.2517 294.889 10.3888 294.548 10.5944C294.207 10.8 293.867 10.6629 293.867 10.3202C293.867 9.97746 293.271 9.73754 292.419 9.73754C291.227 9.73754 291.142 9.80609 292.079 10.046C293.611 10.4573 291.312 10.7315 286.8 10.6972H283.564L285.437 10.046C286.459 9.70327 286.885 9.3948 286.374 9.3948C285.778 9.3948 284.586 9.70327 283.564 10.1146C282.202 10.663 281.18 10.8 279.222 10.6287C277.689 10.5259 276.071 10.5944 275.475 10.8C274.794 11.0057 274.283 11.0742 274.283 10.9029C274.283 10.7315 269.515 10.6287 263.64 10.6629C257.084 10.7315 253.082 10.6287 253.423 10.423C254.189 9.90892 252.231 8.70931 250.613 8.70931C249.421 8.70931 249.421 8.64077 250.358 8.40085C251.039 8.22947 252.146 8.16092 252.912 8.26375C253.934 8.36657 253.848 8.29802 252.742 8.02383C251.635 7.74963 250.868 7.71536 250.102 7.98955C249.506 8.1952 248.825 8.29802 248.655 8.1952C248.399 8.12665 248.229 8.3323 248.229 8.67504C248.229 9.05206 248.825 9.29198 249.506 9.22343C251.464 9.12061 252.912 9.80609 251.805 10.2859C250.954 10.663 238.778 10.663 236.223 10.2517C235.712 10.1831 235.116 10.2859 234.861 10.5259C234.691 10.7658 233.499 10.5601 231.966 9.94319C229.752 9.12061 229.412 8.81214 230.093 8.12665C230.519 7.71536 230.604 7.33834 230.348 7.33834C229.752 7.33834 227.879 9.49762 228.135 9.87464C228.305 10.046 227.794 10.0803 227.198 9.97746C226.517 9.87464 225.495 9.97746 224.984 10.1831C224.303 10.4573 224.048 10.4573 224.048 10.1488C224.048 9.90891 223.196 9.73754 222.089 9.73754C220.982 9.73754 219.705 9.90891 219.109 10.1488C218.513 10.3888 218.087 10.423 218.087 10.2174C218.087 10.046 213.489 9.90892 207.274 9.90892C184.37 9.87464 159.082 9.36053 155.335 8.88069C154.739 8.81214 154.058 8.88069 153.718 9.08633C153.462 9.29198 152.696 9.36053 152.015 9.2577C151.419 9.15488 150.652 9.22343 150.397 9.42907C150.056 9.60045 149.46 9.669 149.035 9.5319C148.183 9.32625 142.819 9.22343 127.322 9.05206C123.491 8.98351 119.915 9.08633 119.319 9.22343C118.552 9.42908 118.382 9.36053 118.893 9.01778C119.489 8.64077 119.404 8.60649 118.382 8.91496C117.701 9.12061 115.657 9.22343 113.784 9.15488C111.911 9.1206 108.505 9.08633 106.121 9.08633C100.672 9.15488 102.205 9.15488 81.429 8.88069C39.0266 8.29802 35.8763 8.22947 27.7874 7.64681C24.5519 7.44117 20.2946 7.20124 18.4214 7.16697C16.5482 7.09842 15.1007 6.89278 15.1859 6.68713C15.3562 6.48148 14.2493 6.41293 12.3761 6.48148C10.7584 6.58431 9.56635 6.51576 9.82178 6.37866C9.99207 6.24156 9.22571 6.13874 7.94852 6.13874C6.67133 6.17301 4.88333 5.93309 3.94672 5.59035C3.01013 5.28188 1.47751 4.93914 0.540924 4.83632C-0.480835 4.73349 -0.0551147 4.66494 1.81808 4.63067C7.18225 4.5964 7.8634 4.49357 6.92682 4.11656C5.56448 3.56817 5.90506 2.77986 7.43765 3.01978C8.11884 3.1226 8.45944 3.08833 8.20401 2.91695C7.94855 2.74558 8.11884 2.50566 8.62973 2.36857C9.14059 2.23147 9.31091 1.95727 8.97034 1.75163C8.71487 1.51171 9.48111 1.7859 10.588 2.33429C11.78 2.88268 13.1424 3.22542 13.5681 3.08833C14.7601 2.81413 13.9087 1.85445 12.6315 1.95727C12.1206 1.99155 11.6097 1.71735 11.4395 1.34034C11.184 0.791946 11.2693 0.757672 11.9504 1.16896C12.6316 1.58026 13.0573 1.54598 14.5899 0.997592C15.7819 0.563451 16.1793 0.574875 15.782 1.03187C15.1859 1.61453 15.2711 1.6488 16.6334 1.16896C18.7621 0.517752 23.9559 0.380654 23.9559 0.997592C23.9559 1.27179 24.3816 1.58026 24.9776 1.71735C25.5736 1.85445 25.6588 1.82018 25.3182 1.58025C24.7222 1.20324 25.0627 1.10042 27.6171 1.03187C28.128 0.997592 28.8943 0.860496 29.2349 0.654849C29.6606 0.449203 30.1715 0.449203 30.8527 0.723397C31.3635 0.929043 32.3853 1.03187 32.9813 0.929042C33.6624 0.82622 34.8545 0.963318 35.6208 1.20324C36.8128 1.61453 36.9832 1.61453 36.302 1.20324C35.7911 0.826221 36.1317 0.75767 38.3455 0.929042C40.0484 1.06614 40.8998 1.03187 40.5592 0.826221C40.3038 0.654849 40.5592 0.5863 41.2404 0.689123C42.3472 0.860495 45.6679 1.03187 48.9034 1.13469C49.84 1.16896 50.1807 1.34033 49.8401 1.54598C49.4995 1.7859 49.9253 1.7859 51.1173 1.51171C52.5648 1.20324 53.331 1.20324 54.2676 1.51171C55.2042 1.85445 55.5448 1.82018 55.9706 1.40888C56.4814 0.82622 62.2713 0.723398 63.2079 1.30606C63.5485 1.47743 64.4851 1.47743 65.3365 1.34034C66.2731 1.16896 67.2097 1.10041 67.6354 1.10041C67.976 1.13469 68.2315 0.997591 68.2315 0.75767C68.2315 0.552025 68.7423 0.620575 69.3383 0.997592C70.1898 1.44316 70.7007 1.51171 71.1265 1.20324C71.6373 0.894769 72.063 0.894769 72.9996 1.20324C73.8511 1.47743 74.8729 1.47743 76.6609 1.23751C78.0232 1.03187 79.3855 0.963317 79.5558 1.06614C79.8112 1.13469 80.237 0.894769 80.5776 0.517752C81.0885 -0.133461 81.2587 -0.13346 82.3656 0.312106C83.1319 0.586301 84.1536 0.723396 84.6645 0.586299C85.1754 0.449202 85.3457 0.586299 85.0051 0.929042C84.6645 1.34033 85.0051 1.40889 86.5378 1.30606C87.8149 1.20324 88.8366 1.37461 89.3475 1.71735C89.9435 2.16292 90.2842 2.19719 90.795 1.85445C91.1356 1.61453 90.9653 1.30606 90.2842 1.13469C89.6882 0.997593 89.4326 0.757672 89.7732 0.620575C90.0287 0.483479 90.8801 0.552025 91.4761 0.75767C92.3276 1.06614 92.9237 1.03187 93.69 0.723397C94.5415 0.414927 94.6266 0.449203 94.2009 0.894769C93.8603 1.23751 94.0306 1.51171 94.5415 1.51171C95.0523 1.51171 95.2225 1.7859 94.882 2.09437C94.6265 2.43711 94.6266 2.60848 94.9672 2.47139C95.5632 2.30002 96.0741 1.58025 96.2444 0.723397C96.3295 0.5863 96.9255 0.483478 97.6067 0.483478C98.2878 0.483478 98.8839 0.5863 98.8839 0.723397C98.8839 0.894769 99.7352 0.997592 100.842 1.03187C101.864 1.03187 104.674 1.13469 107.143 1.27179C110.719 1.44316 111.826 1.37461 113.018 0.894769C113.983 0.529176 114.295 0.529176 113.955 0.894769C113.529 1.37461 113.955 1.47743 116.764 1.40888C118.552 1.40888 119.915 1.27179 119.744 1.13469C119.489 1.03187 120.511 0.929043 121.873 0.894769C123.235 0.894769 124.598 1.03187 124.853 1.20324C125.194 1.37461 125.96 1.51171 126.641 1.51171C127.322 1.51171 127.748 1.37461 127.493 1.23751C127.322 1.10041 127.918 0.929042 128.94 0.929042C130.047 0.894768 130.388 0.963317 129.792 1.10041C129.11 1.27179 129.025 1.54598 129.536 1.85445C130.217 2.26574 130.388 2.26574 130.388 1.88872C130.388 1.61453 130.899 1.51171 131.665 1.6488C132.346 1.75163 133.964 1.68308 135.241 1.47743C136.433 1.30606 137.71 1.27179 137.966 1.40888C138.221 1.54598 139.839 1.71735 141.457 1.7859C143.074 1.82017 144.692 2.06009 145.033 2.30002C145.543 2.60848 145.714 2.60848 145.714 2.26574C145.714 2.0601 146.395 1.85445 147.246 1.85445C148.438 1.85445 148.524 1.923 147.417 2.19719C146.65 2.40284 146.565 2.53994 147.161 2.53994C147.757 2.53994 148.609 2.26574 149.035 1.923C149.545 1.61453 149.971 1.51171 149.971 1.71735C149.971 2.23147 156.102 2.26574 156.953 1.75163C157.464 1.44316 157.634 1.44316 157.634 1.75163C157.634 1.99155 158.571 2.19719 159.763 2.19719C160.955 2.19719 161.891 2.33429 161.891 2.53994C161.891 2.71131 161.21 2.77986 160.444 2.67703C159.252 2.50566 159.167 2.53994 160.103 2.81413C160.785 3.01978 161.806 3.08832 162.402 2.9855C162.913 2.91695 163.765 3.2597 164.275 3.80809C164.786 4.3222 165.212 4.56212 165.212 4.3222C165.297 3.70526 166.83 3.80809 167.341 4.49357C168.022 5.35043 172.109 6.10446 172.109 5.3847C172.109 5.11051 171.768 4.97341 171.257 5.11051C170.406 5.31616 166.574 3.94518 167.341 3.67099C167.596 3.56816 168.533 3.67099 169.299 3.94518C170.264 4.24223 170.378 4.19653 169.64 3.80809C168.958 3.46534 167.766 3.2597 167 3.32824C166.234 3.39679 165.127 3.19115 164.531 2.84841C163.765 2.33429 163.85 2.19719 164.616 2.26574C165.212 2.33429 165.893 2.43711 166.149 2.53994C166.404 2.64276 167.852 2.9855 169.384 3.29397C172.024 3.87663 172.194 3.87664 173.812 3.22542C175.685 2.47139 176.792 2.30002 175.855 2.95123C175.43 3.19115 175.685 3.2597 176.622 3.1226C177.388 3.01978 178.154 3.08832 178.41 3.32824C178.835 3.63671 179.006 3.63671 179.431 3.32824C179.772 2.9855 180.623 3.01978 183.007 3.39679C185.108 3.73954 185.533 3.69384 184.285 3.2597C182.667 2.71131 182.582 2.57421 183.689 2.40284C184.37 2.30002 184.71 2.33429 184.455 2.53994C184.2 2.74558 184.71 2.88268 185.647 2.88268C186.584 2.88268 187.52 3.01978 187.861 3.19115C188.542 3.67099 193.48 3.56817 192.884 3.08833C192.629 2.88268 192.884 2.95123 193.565 3.22542C194.843 3.84236 198.078 4.15083 197.227 3.60244C196.546 3.1226 197.142 3.1226 200.547 3.70526C203.102 4.11656 203.698 4.11656 205.23 3.70526C206.337 3.36252 207.019 3.32825 207.019 3.56817C207.019 3.77381 207.359 3.84236 207.87 3.73954C208.296 3.63672 208.551 3.73954 208.296 3.97946C208.04 4.21938 208.211 4.63067 208.636 4.90487C209.232 5.31616 209.743 5.31616 210.68 5.00769C211.276 4.76777 212.212 4.73349 212.553 4.87059C212.979 5.00769 212.979 4.90486 212.638 4.66494C212.298 4.42502 211.616 4.3222 211.191 4.42502C210.765 4.56212 210.424 4.49357 210.424 4.28793C210.424 3.56817 212.298 3.53389 213.49 4.1851C214.256 4.63067 215.363 4.83632 216.385 4.76777C217.321 4.69922 218.087 4.76777 218.087 4.97341C218.087 5.14478 218.513 5.28188 219.024 5.28188C219.45 5.28188 219.62 5.11051 219.365 4.93914C219.109 4.73349 219.45 4.5964 220.216 4.5964C221.067 4.5964 221.323 4.42502 220.982 4.1851C220.642 3.97946 221.238 4.04801 222.26 4.35647C223.366 4.63067 224.814 4.80204 225.41 4.69922C226.176 4.59639 226.602 4.76777 226.602 5.11051C226.602 5.62463 226.772 5.6589 228.049 5.24761C228.986 4.90487 229.241 4.90486 228.816 5.17906C228.475 5.41898 228.645 5.62463 229.071 5.62463C230.263 5.62463 230.263 5.17906 229.071 4.69922C228.475 4.4593 228.475 4.25365 228.986 4.11656C229.497 3.97946 230.433 4.1851 231.029 4.49357C232.222 5.17906 234.265 5.45325 234.265 4.97341C234.265 4.80204 235.031 4.5964 235.968 4.49357C237.245 4.35647 237.671 4.49357 237.671 4.93914C237.671 5.69317 236.138 6.17301 234.095 6.03592C233.243 5.96737 232.562 6.07019 232.562 6.24156C232.562 6.41293 233.499 6.55003 234.691 6.55003C235.883 6.55003 236.819 6.41293 236.819 6.24156C236.819 6.07019 237.245 6.03592 237.841 6.17301C238.352 6.31011 238.522 6.27584 238.267 6.07019C237.926 5.86454 238.267 5.5218 238.948 5.28188C239.629 5.04196 239.97 4.69922 239.629 4.4593C239.374 4.25365 239.629 4.25365 240.31 4.49357C240.906 4.73349 242.354 4.93914 243.461 4.93914C245.078 4.93914 245.334 5.07624 244.908 5.6589C244.482 6.17301 244.568 6.31011 245.249 6.17301C245.76 6.03592 246.185 5.62463 246.185 5.24761C246.185 4.66495 246.441 4.63067 247.888 4.93914C248.825 5.14479 249.591 5.55608 249.591 5.89882C249.591 6.37866 249.762 6.41293 250.358 5.96737C250.868 5.69317 250.953 5.35043 250.698 5.14478C250.443 4.97341 250.613 4.93914 251.124 5.07624C251.72 5.21333 252.146 5.55608 252.146 5.83027C252.146 6.13874 252.742 6.31011 253.678 6.24156C254.53 6.17301 255.04 5.86454 254.87 5.5218C254.7 5.21333 255.041 4.93914 255.551 4.93914C255.977 4.93914 256.403 5.11051 256.403 5.35043C256.403 5.55608 256.914 5.45325 257.595 5.07624C258.39 4.6421 258.758 4.65352 258.702 5.11051C258.531 5.83027 261.341 6.07019 262.618 5.45325C263.044 5.24761 263.044 5.45325 262.789 5.86454C262.363 6.44721 262.618 6.65286 263.555 6.65286C264.321 6.65286 264.917 6.41293 264.917 6.13874C264.917 5.86455 265.343 5.62463 265.854 5.62463C266.28 5.62463 266.45 5.76172 266.195 5.96737C265.854 6.20729 266.45 6.20729 267.897 5.96737C269.686 5.69317 270.622 5.76172 272.495 6.27584C274.369 6.82423 275.135 6.89277 275.986 6.55003C276.838 6.24156 276.923 6.24156 276.497 6.55003C276.071 6.8585 276.497 6.9956 277.774 6.9956C279.052 6.9956 279.392 6.8585 278.881 6.55003C278.456 6.31011 278.796 6.41293 279.647 6.75568C280.925 7.33834 281.521 7.37262 283.309 7.02987C286.033 6.55003 289.014 6.51576 288.247 7.02987C287.907 7.30407 288.162 7.30407 289.269 7.06415C291.823 6.51576 295.485 6.92705 295.144 7.71536C294.974 8.09238 295.144 8.29802 295.655 8.1952C296.081 8.0581 296.336 8.3323 296.166 8.77786C296.081 9.29198 296.421 9.5319 297.102 9.46335C297.783 9.42907 298.039 9.5319 297.698 9.73754C297.443 9.90892 297.528 10.0803 298.039 10.0803C298.465 10.0803 299.061 9.94319 299.401 9.73754C299.657 9.56617 300.508 9.5319 301.274 9.63472C302.126 9.77182 302.466 9.70327 302.126 9.49762C301.785 9.29198 302.126 9.05206 302.807 8.91496C304.34 8.67504 304.425 8.74359 302.892 9.56617ZM285.352 8.53794C284.927 8.43512 284.501 8.50367 284.501 8.67504C284.501 8.88069 284.927 9.05206 285.352 9.05206C285.863 9.05206 286.204 8.98351 286.204 8.91496C286.204 8.81214 285.863 8.64077 285.352 8.53794ZM270.196 6.17301C269.771 6.07019 269.43 6.20729 269.43 6.48148C269.43 6.75568 269.771 6.89278 270.196 6.78995C270.537 6.68713 270.878 6.55003 270.878 6.48148C270.878 6.41293 270.537 6.27584 270.196 6.17301ZM267.131 8.94923C266.62 9.05206 266.62 8.94924 267.301 8.67504C268.664 8.0581 268.664 7.50971 267.216 7.98955C266.535 8.1952 265.684 8.22947 265.343 8.09238C264.917 7.95528 264.917 8.0581 265.258 8.26375C265.599 8.50367 265.513 8.70931 265.173 8.70931C264.747 8.70931 264.406 9.01778 264.321 9.42907C264.236 9.94319 264.492 10.046 265.173 9.80609C265.769 9.63472 267.046 9.5319 268.068 9.56617C269.6 9.60045 269.771 9.5319 269.09 9.15488C268.579 8.91496 267.727 8.81214 267.131 8.94923ZM264.492 7.23552C263.725 7.33834 263.3 7.50971 263.555 7.57826C263.811 7.68108 264.321 7.64681 264.832 7.50971C266.195 7.20124 265.939 6.9956 264.492 7.23552ZM231.2 8.46939C230.944 8.57222 230.859 8.88069 231.115 9.12061C231.37 9.3948 231.626 9.29198 231.626 8.91496C231.711 8.53794 231.455 8.3323 231.2 8.46939ZM224.473 6.31011C223.792 6.31011 223.026 6.44721 222.77 6.65286C222.43 6.8585 223.196 6.9956 224.473 6.9956C225.75 6.9956 226.517 6.8585 226.176 6.65286C225.921 6.44721 225.154 6.31011 224.473 6.31011ZM220.046 5.93309C218.683 5.48753 218.598 5.5218 219.705 6.03592C220.812 6.61858 221.493 6.78995 221.493 6.51576C221.493 6.44721 220.812 6.17302 220.046 5.93309ZM212.553 6.51576C211.872 6.65285 211.276 6.89277 211.276 7.06415C211.276 7.26979 211.787 7.23552 212.553 6.9956C213.234 6.75568 213.83 6.51576 213.83 6.44721C213.83 6.37866 213.234 6.41293 212.553 6.51576ZM203.442 7.64681C201.654 7.26979 201.569 7.26979 202.676 7.78391C203.272 8.12665 204.124 8.36657 204.549 8.36657C205.826 8.36657 205.401 8.0581 203.442 7.64681ZM193.736 5.14478C193.055 5.04196 192.799 4.73349 193.055 4.42502C193.821 3.63672 191.096 3.77381 189.989 4.56212C188.883 5.41898 188.883 5.62463 190.075 5.62463C190.5 5.62463 190.671 5.45325 190.415 5.28188C190.16 5.07624 190.5 4.93914 191.267 4.93914C192.118 4.93914 192.374 5.11051 192.033 5.35043C191.692 5.59035 191.692 5.69317 192.118 5.55608C192.459 5.41898 193.225 5.55608 193.821 5.83027C194.758 6.34439 194.843 6.34439 194.843 5.86454C194.843 5.55608 194.332 5.24761 193.736 5.14478ZM180.623 3.91091C180.198 3.91091 179.772 4.15083 179.772 4.4593C179.772 4.73349 180.198 4.87059 180.623 4.76777C181.134 4.66494 181.475 4.42502 181.475 4.21938C181.475 4.04801 181.134 3.91091 180.623 3.91091ZM167.426 6.55003C166.745 6.41293 165.978 6.48148 165.723 6.65286C165.382 6.8585 165.978 6.9956 166.915 6.9956C169.044 6.9956 169.214 6.78995 167.426 6.55003ZM160.018 4.63067C158.486 4.66494 158.4 4.69922 159.592 4.83632C160.87 4.97341 160.955 5.07623 160.018 5.55608C158.996 6.07019 159.082 6.10447 160.444 5.6589C162.487 5.00769 162.232 4.5964 160.018 4.63067ZM82.2805 0.826221C81.5142 0.586301 81.0033 0.552025 81.0033 0.75767C81.0033 0.929042 81.5993 1.16896 82.2805 1.30606C82.9617 1.40889 83.5577 1.44316 83.5577 1.37461C83.5577 1.30606 82.9617 1.06614 82.2805 0.826221ZM60.3981 5.72745C59.7169 5.83027 59.9724 5.93309 60.909 5.93309C61.8456 5.96737 62.3564 5.86455 62.0159 5.76172C61.7604 5.6589 60.9941 5.62462 60.3981 5.72745ZM58.1843 1.68308C57.9289 1.7859 58.1844 2.06009 58.7804 2.30002C59.6318 2.60848 59.717 2.57421 59.2061 2.09437C58.9507 1.75163 58.4397 1.58026 58.1843 1.68308ZM46.9452 1.51171C46.5194 1.51171 46.0937 1.58026 46.0937 1.6488C46.0937 1.75163 46.5194 1.923 46.9452 2.02582C47.456 2.12864 47.7966 2.0601 47.7966 1.88872C47.7966 1.68308 47.456 1.51171 46.9452 1.51171ZM26.5103 4.25365C26.0845 4.25365 25.6588 4.3222 25.6588 4.39075C25.6588 4.49357 26.0845 4.66494 26.5103 4.76777C27.0211 4.87059 27.3617 4.80204 27.3617 4.63067C27.3617 4.42502 27.0211 4.25365 26.5103 4.25365ZM16.463 2.71131C16.2076 2.81413 16.4631 3.08832 17.0591 3.32824C17.9106 3.63671 17.9957 3.60244 17.4849 3.1226C17.2294 2.77986 16.7185 2.60849 16.463 2.71131ZM11.1841 3.91091C10.7584 3.91091 10.3326 3.97946 10.3326 4.04801C10.3326 4.15083 10.7584 4.3222 11.1841 4.42502C11.6949 4.52785 12.0356 4.4593 12.0356 4.28793C12.0356 4.08228 11.6949 3.91091 11.1841 3.91091Z" fill="#C9FF22"/>
</svg>
