<svg width="552" height="21" viewBox="0 0 552 21" fill="none" xmlns="http://www.w3.org/2000/svg">
<path fill-rule="evenodd" clip-rule="evenodd" d="M549.988 18.2627C548.597 19.0479 545.969 19.5059 541.949 19.5059C538.702 19.5714 535.455 19.8331 534.837 20.2257C534.219 20.6183 533.6 20.3565 533.6 19.7022C533.6 19.0479 532.518 18.5899 530.972 18.5899C528.807 18.5899 528.653 18.7207 530.354 19.1788C533.137 19.9639 528.962 20.4874 520.768 20.422H514.893L518.294 19.1788C520.15 18.5244 520.923 17.9355 519.995 17.9355C518.913 17.9355 516.748 18.5244 514.893 19.3096C512.419 20.3565 510.564 20.6183 507.008 20.2911C504.225 20.0948 501.288 20.2257 500.205 20.6183C498.969 21.0109 498.041 21.1417 498.041 20.8146C498.041 20.4874 489.383 20.2911 478.715 20.3565C466.81 20.4874 459.544 20.2911 460.162 19.8985C461.554 18.917 457.998 16.6269 455.06 16.6269C452.896 16.6269 452.896 16.496 454.597 16.038C455.833 15.7108 457.843 15.5799 459.235 15.7762C461.09 15.9725 460.935 15.8417 458.925 15.3182C456.916 14.7948 455.524 14.7293 454.133 15.2528C453.05 15.6454 451.814 15.8417 451.504 15.6454C451.041 15.5145 450.731 15.9071 450.731 16.5614C450.731 17.2812 451.814 17.7392 453.051 17.6084C456.606 17.4121 459.235 18.7207 457.225 19.6368C455.679 20.3565 433.57 20.3565 428.932 19.5713C428.004 19.4405 426.922 19.6368 426.458 20.0948C426.149 20.5528 423.984 20.1602 421.202 18.9825C417.182 17.4121 416.563 16.8232 417.8 15.5145C418.573 14.7293 418.728 14.0096 418.264 14.0096C417.182 14.0096 413.78 18.1318 414.244 18.8516C414.553 19.1788 413.626 19.2442 412.544 19.0479C411.307 18.8516 409.452 19.0479 408.524 19.4405C407.287 19.9639 406.823 19.9639 406.823 19.375C406.823 18.917 405.277 18.5899 403.267 18.5899C401.257 18.5899 398.938 18.917 397.856 19.375C396.774 19.8331 396.001 19.8985 396.001 19.5059C396.001 19.1788 387.652 18.917 376.366 18.917C334.777 18.8516 288.859 17.8701 282.056 16.954C280.974 16.8232 279.737 16.954 279.119 17.3466C278.655 17.7392 277.263 17.8701 276.027 17.6738C274.944 17.4775 273.553 17.6084 273.089 18.001C272.471 18.3281 271.388 18.459 270.615 18.1973C269.069 17.8047 259.329 17.6084 231.191 17.2812C224.233 17.1503 217.74 17.3466 216.658 17.6084C215.266 18.001 214.957 17.8701 215.885 17.2158C216.967 16.496 216.812 16.4306 214.957 17.0195C213.72 17.4121 210.01 17.6084 206.608 17.4775C203.207 17.4121 197.023 17.3466 192.694 17.3466C182.799 17.4775 185.582 17.4775 147.858 16.954C70.8642 15.8417 65.1437 15.7108 50.4562 14.5985C44.5811 14.2059 36.8508 13.7478 33.4495 13.6824C30.0482 13.5515 27.4198 13.1589 27.5744 12.7663C27.8836 12.3737 25.8738 12.2429 22.4725 12.3737C19.535 12.57 17.3705 12.4392 17.8343 12.1774C18.1436 11.9157 16.752 11.7194 14.4329 11.7194C12.1138 11.7848 8.86713 11.3268 7.16644 10.6725C5.46576 10.0836 2.68286 9.42927 0.982239 9.23297C-0.873047 9.03667 -0.100037 8.9058 3.30133 8.84037C13.0415 8.77494 14.2783 8.57864 12.5776 7.85888C10.1039 6.81195 10.7224 5.307 13.5052 5.76503C14.7421 5.96133 15.3606 5.8959 14.8967 5.56873C14.4329 5.24157 14.7421 4.78354 15.6698 4.52181C16.5974 4.26008 16.9067 3.73661 16.2883 3.34402C15.8245 2.88599 17.2158 3.40945 19.2256 4.45638C21.3901 5.5033 23.8638 6.15763 24.6368 5.8959C26.8013 5.37243 25.2553 3.54031 22.9362 3.73661C22.0085 3.80204 21.0809 3.27858 20.7717 2.55882C20.3079 1.5119 20.4626 1.44647 21.6995 2.23166C22.9363 3.01685 23.7093 2.95142 26.4922 1.9045C28.6567 1.07568 29.3782 1.09749 28.6567 1.96993C27.5745 3.08228 27.7291 3.14772 30.2028 2.23166C34.0679 0.988436 43.4989 0.726706 43.4989 1.9045C43.4989 2.42796 44.2719 3.01685 45.3541 3.27858C46.4363 3.54031 46.591 3.47488 45.9726 3.01685C44.8903 2.29709 45.5087 2.10079 50.1469 1.96993C51.0745 1.9045 52.466 1.64277 53.0844 1.25017C53.8574 0.857571 54.7851 0.857569 56.0219 1.38103C56.9496 1.77363 58.8049 1.96992 59.8871 1.77363C61.124 1.57733 63.2884 1.83906 64.6798 2.29709C66.8443 3.08228 67.1536 3.08228 65.9168 2.29709C64.9891 1.57733 65.6076 1.44646 69.6273 1.77363C72.7195 2.03536 74.2655 1.96993 73.6471 1.57733C73.1833 1.25017 73.647 1.1193 74.8838 1.3156C76.8937 1.64276 82.9233 1.96993 88.7984 2.16623C90.499 2.23166 91.1176 2.55882 90.4992 2.95142C89.8808 3.40945 90.6538 3.40945 92.8183 2.88599C95.4466 2.29709 96.838 2.29709 98.5386 2.88599C100.239 3.54032 100.858 3.47488 101.631 2.68969C102.558 1.57733 113.072 1.38103 114.772 2.49339C115.391 2.82055 117.091 2.82055 118.637 2.55882C120.338 2.23166 122.039 2.10079 122.812 2.10079C123.43 2.16622 123.894 1.90449 123.894 1.44646C123.894 1.05387 124.822 1.18473 125.904 1.9045C127.45 2.75512 128.378 2.88599 129.151 2.29709C130.078 1.7082 130.851 1.7082 132.552 2.29709C134.098 2.82055 135.953 2.82055 139.2 2.36252C141.674 1.96993 144.147 1.83906 144.457 2.03536C144.92 2.16623 145.694 1.7082 146.312 0.988436C147.24 -0.254787 147.549 -0.254787 149.559 0.59584C150.95 1.1193 152.805 1.38103 153.733 1.1193C154.661 0.857569 154.97 1.1193 154.351 1.77363C153.733 2.55882 154.351 2.68969 157.134 2.49339C159.453 2.29709 161.309 2.62426 162.236 3.27858C163.319 4.12921 163.937 4.19464 164.865 3.54032C165.483 3.08228 165.174 2.49339 163.937 2.16623C162.855 1.9045 162.391 1.44647 163.009 1.18474C163.473 0.923004 165.019 1.05387 166.101 1.44646C167.647 2.03536 168.73 1.96993 170.121 1.38103C171.667 0.792135 171.822 0.857569 171.049 1.70819C170.431 2.36252 170.74 2.88599 171.667 2.88599C172.595 2.88599 172.904 3.40945 172.286 3.99834C171.822 4.65267 171.822 4.97983 172.44 4.7181C173.523 4.39094 174.45 3.01685 174.76 1.38103C174.914 1.1193 175.996 0.923004 177.233 0.923004C178.47 0.923004 179.552 1.1193 179.552 1.38103C179.552 1.70819 181.098 1.9045 183.108 1.96993C184.963 1.96993 190.065 2.16622 194.549 2.42796C201.042 2.75512 203.052 2.62425 205.217 1.70819C206.969 1.01025 207.536 1.01025 206.917 1.70819C206.144 2.62425 206.918 2.82055 212.02 2.68969C215.266 2.68969 217.74 2.42796 217.431 2.16623C216.967 1.96993 218.822 1.77363 221.296 1.70819C223.77 1.70819 226.243 1.96993 226.707 2.29709C227.326 2.62426 228.717 2.88599 229.954 2.88599C231.191 2.88599 231.964 2.62425 231.5 2.36252C231.191 2.10079 232.273 1.77363 234.128 1.77363C236.138 1.70819 236.756 1.83906 235.674 2.10079C234.437 2.42796 234.283 2.95142 235.21 3.54032C236.447 4.32551 236.757 4.32551 236.757 3.60575C236.757 3.08228 237.684 2.88599 239.076 3.14772C240.312 3.34402 243.25 3.21315 245.569 2.82055C247.733 2.49339 250.053 2.42796 250.517 2.68969C250.98 2.95142 253.918 3.27858 256.855 3.40945C259.793 3.47488 262.73 3.93291 263.349 4.39094C264.276 4.97983 264.586 4.97984 264.586 4.32551C264.586 3.93291 265.822 3.54032 267.368 3.54032C269.533 3.54032 269.688 3.67118 267.678 4.19464C266.286 4.58724 266.132 4.84897 267.214 4.84897C268.296 4.84897 269.842 4.32551 270.615 3.67118C271.543 3.08228 272.316 2.88599 272.316 3.27858C272.316 4.26007 283.448 4.32551 284.994 3.34402C285.921 2.75512 286.23 2.75512 286.23 3.34402C286.23 3.80204 287.931 4.19464 290.096 4.19464C292.26 4.19464 293.961 4.45638 293.961 4.84897C293.961 5.17614 292.724 5.307 291.332 5.1107C289.168 4.78354 289.013 4.84897 290.714 5.37243C291.951 5.76503 293.806 5.89589 294.888 5.69959C295.816 5.56873 297.362 6.22306 298.29 7.26998C299.217 8.25147 299.99 8.7095 299.99 8.25147C300.145 7.07368 302.928 7.26998 303.856 8.57864C305.092 10.2145 312.514 11.654 312.514 10.2799C312.514 9.75643 311.895 9.4947 310.967 9.75643C309.421 10.149 302.464 7.53171 303.856 7.00825C304.319 6.81195 306.02 7.00825 307.411 7.53171C309.164 8.0988 309.37 8.01155 308.03 7.26998C306.793 6.61565 304.629 6.22306 303.237 6.35392C301.846 6.48479 299.836 6.0922 298.754 5.43787C297.362 4.45638 297.517 4.19464 298.908 4.32551C299.99 4.45637 301.227 4.65267 301.691 4.84897C302.155 5.04527 304.783 5.6996 307.566 6.28849C312.359 7.40085 312.668 7.40085 315.606 6.15763C319.007 4.71811 321.017 4.39094 319.316 5.63416C318.543 6.09219 319.007 6.22306 320.708 5.96133C322.099 5.76503 323.491 5.89589 323.954 6.35392C324.727 6.94282 325.037 6.94282 325.81 6.35392C326.428 5.69959 327.974 5.76503 332.303 6.48479C336.117 7.13912 336.89 7.05187 334.622 6.22306C331.685 5.17613 331.53 4.9144 333.54 4.58724C334.777 4.39094 335.395 4.45638 334.931 4.84897C334.468 5.24157 335.395 5.5033 337.096 5.5033C338.797 5.5033 340.497 5.76503 341.116 6.0922C342.353 7.00825 351.32 6.81195 350.237 5.8959C349.774 5.5033 350.237 5.63416 351.474 6.15763C353.793 7.33542 359.668 7.92431 358.122 6.87739C356.885 5.96133 357.968 5.96133 364.152 7.07369C368.79 7.85888 369.872 7.85888 372.655 7.07369C374.665 6.41936 375.902 6.35393 375.902 6.81196C375.902 7.20455 376.52 7.33542 377.448 7.13912C378.221 6.94282 378.685 7.13912 378.221 7.59715C377.757 8.05518 378.067 8.84037 378.84 9.36384C379.922 10.149 380.849 10.149 382.55 9.56013C383.632 9.1021 385.333 9.03667 385.951 9.2984C386.724 9.56013 386.724 9.36383 386.106 8.9058C385.488 8.44777 384.251 8.25148 383.478 8.44777C382.705 8.70951 382.086 8.57864 382.086 8.18604C382.086 6.81195 385.488 6.74652 387.652 7.98974C389.044 8.84037 391.053 9.23297 392.909 9.1021C394.609 8.97124 396.001 9.1021 396.001 9.4947C396.001 9.82186 396.774 10.0836 397.701 10.0836C398.474 10.0836 398.784 9.75643 398.32 9.42927C397.856 9.03667 398.475 8.77494 399.866 8.77494C401.412 8.77494 401.876 8.44777 401.257 7.98974C400.639 7.59715 401.721 7.72801 403.577 8.31691C405.586 8.84037 408.215 9.16753 409.297 8.97123C410.688 8.77494 411.461 9.1021 411.461 9.75643C411.461 10.7379 411.771 10.8034 414.09 10.0182C415.79 9.36384 416.254 9.36383 415.481 9.88729C414.863 10.3453 415.172 10.7379 415.945 10.7379C418.11 10.7379 418.11 9.88729 415.945 8.97123C414.863 8.5132 414.863 8.12061 415.79 7.85888C416.718 7.59715 418.419 7.98974 419.501 8.57864C421.665 9.88729 425.376 10.4108 425.376 9.4947C425.376 9.16753 426.767 8.77494 428.468 8.57864C430.787 8.31691 431.56 8.57864 431.56 9.42927C431.56 10.8688 428.777 11.7848 425.067 11.5231C423.521 11.3922 422.284 11.5885 422.284 11.9157C422.284 12.2429 423.985 12.5046 426.149 12.5046C428.314 12.5046 430.014 12.2429 430.014 11.9157C430.014 11.5885 430.787 11.5231 431.869 11.7848C432.797 12.0466 433.106 11.9811 432.642 11.5885C432.024 11.1959 432.642 10.5416 433.879 10.0836C435.116 9.62557 435.734 8.97124 435.116 8.51321C434.652 8.12061 435.116 8.12061 436.353 8.57864C437.435 9.03667 440.063 9.42927 442.073 9.42927C445.011 9.42927 445.475 9.691 444.702 10.8034C443.929 11.7848 444.083 12.0466 445.32 11.7848C446.248 11.5231 447.021 10.7379 447.021 10.0182C447.021 8.90581 447.485 8.84037 450.113 9.42927C451.814 9.82186 453.205 10.6071 453.205 11.2614C453.205 12.1774 453.514 12.2429 454.597 11.3923C455.524 10.8688 455.679 10.2145 455.215 9.82186C454.751 9.4947 455.06 9.42927 455.988 9.691C457.07 9.95273 457.843 10.6071 457.843 11.1305C457.843 11.7194 458.925 12.0466 460.626 11.9157C462.172 11.7848 463.1 11.1959 462.791 10.5416C462.481 9.95273 463.1 9.42927 464.028 9.42927C464.801 9.42927 465.574 9.75643 465.574 10.2145C465.574 10.6071 466.501 10.4108 467.738 9.691C469.181 8.86218 469.851 8.88399 469.748 9.75643C469.439 11.1305 474.541 11.5885 476.86 10.4108C477.633 10.0182 477.633 10.4108 477.169 11.1959C476.396 12.3083 476.86 12.7009 478.561 12.7009C479.952 12.7009 481.034 12.2429 481.034 11.7194C481.034 11.196 481.807 10.7379 482.735 10.7379C483.508 10.7379 483.817 10.9997 483.353 11.3923C482.735 11.8503 483.817 11.8503 486.445 11.3923C489.692 10.8688 491.393 10.9997 494.794 11.9811C498.196 13.0281 499.587 13.1589 501.133 12.5046C502.679 11.9157 502.834 11.9157 502.061 12.5046C501.288 13.0935 502.061 13.3552 504.38 13.3552C506.699 13.3552 507.317 13.0935 506.39 12.5046C505.617 12.0466 506.235 12.2429 507.781 12.8972C510.1 14.0096 511.182 14.075 514.429 13.4207C519.376 12.5046 524.788 12.4392 523.396 13.4207C522.778 13.9441 523.242 13.9441 525.252 13.4861C529.89 12.4392 536.538 13.2244 535.919 14.7293C535.61 15.4491 535.919 15.8417 536.847 15.6454C537.62 15.3837 538.084 15.9071 537.775 16.7577C537.62 17.7392 538.238 18.1973 539.475 18.0664C540.712 18.001 541.176 18.1973 540.558 18.5899C540.094 18.917 540.248 19.2442 541.176 19.2442C541.949 19.2442 543.031 18.9825 543.65 18.5899C544.113 18.2627 545.659 18.1973 547.051 18.3936C548.597 18.6553 549.215 18.5244 548.597 18.1318C547.979 17.7392 548.597 17.2812 549.834 17.0195C552.617 16.5614 552.771 16.6923 549.988 18.2627ZM518.14 16.2997C517.367 16.1034 516.594 16.2343 516.594 16.5614C516.594 16.954 517.367 17.2812 518.14 17.2812C519.067 17.2812 519.686 17.1503 519.686 17.0195C519.686 16.8232 519.067 16.496 518.14 16.2997ZM490.62 11.7848C489.847 11.5885 489.228 11.8503 489.228 12.3737C489.228 12.8972 489.847 13.1589 490.62 12.9626C491.238 12.7663 491.857 12.5046 491.857 12.3737C491.857 12.2429 491.238 11.9811 490.62 11.7848ZM485.054 17.0849C484.126 17.2812 484.126 17.0849 485.363 16.5614C487.837 15.3837 487.837 14.3367 485.208 15.2528C483.972 15.6454 482.426 15.7108 481.807 15.4491C481.034 15.1873 481.034 15.3836 481.653 15.7762C482.271 16.2343 482.116 16.6269 481.498 16.6269C480.725 16.6269 480.106 17.2158 479.952 18.001C479.797 18.9825 480.261 19.1788 481.498 18.7207C482.58 18.3936 484.899 18.1973 486.755 18.2627C489.537 18.3281 489.847 18.1973 488.61 17.4775C487.682 17.0195 486.136 16.8232 485.054 17.0849ZM480.261 13.8133C478.87 14.0096 478.097 14.3367 478.561 14.4676C479.024 14.6639 479.952 14.5985 480.88 14.3367C483.353 13.7478 482.889 13.3552 480.261 13.8133ZM419.81 16.1688C419.346 16.3651 419.192 16.954 419.655 17.4121C420.119 17.9355 420.583 17.7392 420.583 17.0195C420.738 16.2997 420.274 15.9071 419.81 16.1688ZM407.596 12.0466C406.359 12.0466 404.968 12.3083 404.504 12.7009C403.886 13.0935 405.277 13.3552 407.596 13.3552C409.915 13.3552 411.307 13.0935 410.688 12.7009C410.225 12.3083 408.833 12.0466 407.596 12.0466ZM399.557 11.3268C397.083 10.4762 396.929 10.5416 398.938 11.5231C400.948 12.6355 402.185 12.9626 402.185 12.4392C402.185 12.3083 400.948 11.7848 399.557 11.3268ZM385.951 12.4392C384.715 12.7009 383.632 13.1589 383.632 13.4861C383.632 13.8787 384.56 13.8133 385.951 13.3552C387.188 12.8972 388.271 12.4392 388.271 12.3083C388.271 12.1774 387.188 12.2429 385.951 12.4392ZM369.408 14.5985C366.162 13.8787 366.007 13.8787 368.017 14.8602C369.099 15.5145 370.645 15.9725 371.418 15.9725C373.738 15.9725 372.964 15.3837 369.408 14.5985ZM351.784 9.82186C350.547 9.62556 350.083 9.03667 350.547 8.44777C351.938 6.94282 346.991 7.20455 344.981 8.70951C342.971 10.3453 342.971 10.7379 345.135 10.7379C345.908 10.7379 346.218 10.4108 345.754 10.0836C345.29 9.691 345.908 9.42927 347.3 9.42927C348.846 9.42927 349.31 9.75643 348.691 10.2145C348.073 10.6725 348.073 10.8688 348.846 10.6071C349.464 10.3453 350.856 10.6071 351.938 11.1305C353.639 12.112 353.793 12.112 353.793 11.1959C353.793 10.6071 352.866 10.0182 351.784 9.82186ZM327.974 7.46628C327.201 7.46628 326.428 7.92431 326.428 8.51321C326.428 9.03667 327.201 9.2984 327.974 9.1021C328.902 8.9058 329.52 8.44778 329.52 8.05518C329.52 7.72801 328.902 7.46628 327.974 7.46628ZM304.01 12.5046C302.773 12.2429 301.382 12.3737 300.918 12.7009C300.3 13.0935 301.382 13.3552 303.083 13.3552C306.948 13.3552 307.257 12.9626 304.01 12.5046ZM290.559 8.84037C287.776 8.9058 287.622 8.97124 289.786 9.23297C292.105 9.4947 292.26 9.69099 290.559 10.6071C288.704 11.5885 288.859 11.654 291.332 10.8034C295.043 9.56013 294.579 8.77494 290.559 8.84037ZM149.404 1.57733C148.013 1.1193 147.085 1.05387 147.085 1.44646C147.085 1.77363 148.167 2.23166 149.404 2.49339C150.641 2.68969 151.723 2.75512 151.723 2.62426C151.723 2.49339 150.641 2.03536 149.404 1.57733ZM109.67 10.9342C108.433 11.1305 108.897 11.3268 110.598 11.3268C112.299 11.3923 113.226 11.196 112.608 10.9997C112.144 10.8034 110.752 10.7379 109.67 10.9342ZM105.65 3.21315C105.187 3.40945 105.651 3.93291 106.733 4.39094C108.279 4.97983 108.434 4.9144 107.506 3.99834C107.042 3.34402 106.114 3.01685 105.65 3.21315ZM85.2426 2.88599C84.4695 2.88599 83.6965 3.01685 83.6965 3.14772C83.6965 3.34402 84.4695 3.67118 85.2426 3.86748C86.1702 4.06378 86.7886 3.93291 86.7886 3.60575C86.7886 3.21315 86.1702 2.88599 85.2426 2.88599ZM48.1371 8.12061C47.364 8.12061 46.591 8.25148 46.591 8.38234C46.591 8.57864 47.364 8.9058 48.1371 9.1021C49.0647 9.2984 49.6831 9.16753 49.6831 8.84037C49.6831 8.44777 49.0647 8.12061 48.1371 8.12061ZM29.8935 5.17614C29.4297 5.37243 29.8936 5.89589 30.9758 6.35392C32.5219 6.94282 32.6765 6.87739 31.7488 5.96133C31.285 5.307 30.3573 4.97984 29.8935 5.17614ZM20.308 7.46628C19.5349 7.46628 18.7619 7.59715 18.7619 7.72801C18.7619 7.92431 19.5349 8.25148 20.308 8.44777C21.2356 8.64407 21.854 8.51321 21.854 8.18604C21.854 7.79345 21.2356 7.46628 20.308 7.46628Z" fill="#C9FF22"/>
</svg>
