<svg width="24" height="24" viewBox="0 0 24 24" fill="none" xmlns="http://www.w3.org/2000/svg">
<path d="M3 13C4.02616 10.7196 5.63733 9.08928 7.5 8.10893M21 13C19.1166 8.81475 15.2627 6.81904 11.5 7.01287" stroke="#414143" stroke-width="1.5" stroke-linecap="round" stroke-linejoin="round"/>
<path d="M10.8519 11.2285C10.488 11.3793 10.1573 11.6003 9.87868 11.8788C9.6001 12.1574 9.37913 12.4881 9.22836 12.8521C9.0776 13.2161 9 13.6062 9 14.0002C9 14.3941 9.0776 14.7842 9.22836 15.1482C9.37913 15.5122 9.6001 15.8429 9.87868 16.1215C10.1573 16.4001 10.488 16.621 10.8519 16.7718C11.2159 16.9226 11.606 17.0002 12 17.0002C12.7956 17.0002 13.5587 16.6841 14.1213 16.1215C14.3822 15.8606 14.5901 15.5565 14.738 15.2262" stroke="#414143" stroke-width="1.5" stroke-linecap="round" stroke-linejoin="round"/>
<path d="M3 3L21.3848 21.3848" stroke="#414143" stroke-width="1.5" stroke-linecap="round"/>
</svg>
