<svg width="31" height="31" viewBox="0 0 31 31" fill="none" xmlns="http://www.w3.org/2000/svg">
<path d="M22.3326 5.35022L22.2422 10.2456C22.2292 10.9173 22.6556 11.8085 23.1981 12.209L26.4014 14.6373C28.4551 16.1873 28.1193 18.086 25.6651 18.861L21.493 20.1656C20.7955 20.3852 20.0593 21.1473 19.8785 21.8577L18.8839 25.6552C18.0959 28.6518 16.1326 28.9489 14.5051 26.3139L12.2317 22.6327C11.8184 21.961 10.8367 21.4573 10.0617 21.4961L5.74762 21.7156C2.66054 21.8706 1.78219 20.0881 3.79719 17.7373L6.35467 14.7664C6.83259 14.211 7.05216 13.1777 6.83258 12.4802L5.52806 8.30811C4.76598 5.85394 6.13513 4.49771 8.57638 5.29854L12.3868 6.55146C13.0326 6.75813 14.0014 6.61603 14.5439 6.21561L18.5222 3.34811C20.6664 1.79811 22.3842 2.7023 22.3326 5.35022Z" fill="#812D9C"/>
<path d="M28.2995 28.4177L24.3857 24.5039" stroke="#812D9C" stroke-width="1.5" stroke-linecap="round" stroke-linejoin="round"/>
</svg>
