<svg width="60" height="60" viewBox="0 0 60 60" fill="none" xmlns="http://www.w3.org/2000/svg">
<path d="M43.2246 10.3524L43.0496 19.8274C43.0246 21.1274 43.8497 22.8524 44.8997 23.6274L51.0997 28.3274C55.0747 31.3274 54.4247 35.0024 49.6747 36.5024L41.5997 39.0274C40.2497 39.4524 38.8247 40.9274 38.4747 42.3024L36.5497 49.6524C35.0247 55.4524 31.2246 56.0274 28.0746 50.9274L23.6746 43.8024C22.8746 42.5024 20.9746 41.5274 19.4746 41.6024L11.1247 42.0274C5.14972 42.3274 3.44969 38.8774 7.34969 34.3274L12.2996 28.5774C13.2246 27.5024 13.6496 25.5024 13.2246 24.1524L10.6998 16.0774C9.22476 11.3274 11.8747 8.7024 16.5997 10.2524L23.9748 12.6774C25.2248 13.0774 27.0997 12.8024 28.1497 12.0274L35.8498 6.47738C39.9998 3.47738 43.3246 5.22743 43.2246 10.3524Z" fill="#812D9C"/>
<path d="M54.7741 55.0008L47.1992 47.4258" stroke="#812D9C" stroke-width="1.5" stroke-linecap="round" stroke-linejoin="round"/>
</svg>
