<svg width="28" height="28" viewBox="0 0 28 28" fill="none" xmlns="http://www.w3.org/2000/svg">
<path d="M20.1718 4.83113L20.0901 9.25277C20.0784 9.85944 20.4635 10.6645 20.9535 11.0261L23.8468 13.2194C25.7018 14.6194 25.3985 16.3345 23.1818 17.0345L19.4135 18.2128C18.7835 18.4111 18.1185 19.0995 17.9552 19.7411L17.0568 23.1711C16.3451 25.8778 14.5718 26.1461 13.1018 23.7661L11.0484 20.4411C10.6751 19.8344 9.78845 19.3795 9.08845 19.4145L5.19183 19.6128C2.40349 19.7528 1.61015 18.1428 3.43015 16.0195L5.74013 13.3361C6.17179 12.8344 6.37012 11.9011 6.17179 11.2711L4.99351 7.50277C4.30518 5.28611 5.54183 4.06112 7.74683 4.78446L11.1885 5.91612C11.7718 6.10279 12.6468 5.97445 13.1368 5.61278L16.7302 3.02278C18.6668 1.62278 20.2185 2.43947 20.1718 4.83113Z" fill="#C9FF22"/>
<path d="M25.5613 25.6659L22.0264 22.1309" stroke="#C9FF22" stroke-width="1.5" stroke-linecap="round" stroke-linejoin="round"/>
</svg>
