<svg width="40" height="40" viewBox="0 0 40 40" fill="none" xmlns="http://www.w3.org/2000/svg">
<path d="M36.6667 14.2007V6.63398C36.6667 4.28398 35.6 3.33398 32.95 3.33398H26.2167C23.5667 3.33398 22.5 4.28398 22.5 6.63398V14.184C22.5 16.5507 23.5667 17.484 26.2167 17.484H32.95C35.6 17.5007 36.6667 16.5507 36.6667 14.2007Z" stroke="white" stroke-opacity="0.8" stroke-width="2" stroke-linecap="round" stroke-linejoin="round"/>
<path d="M36.6667 32.95V26.2167C36.6667 23.5667 35.6 22.5 32.95 22.5H26.2167C23.5667 22.5 22.5 23.5667 22.5 26.2167V32.95C22.5 35.6 23.5667 36.6667 26.2167 36.6667H32.95C35.6 36.6667 36.6667 35.6 36.6667 32.95Z" stroke="white" stroke-opacity="0.8" stroke-width="2" stroke-linecap="round" stroke-linejoin="round"/>
<path d="M17.4997 14.2007V6.63398C17.4997 4.28398 16.433 3.33398 13.783 3.33398H7.04967C4.39967 3.33398 3.33301 4.28398 3.33301 6.63398V14.184C3.33301 16.5507 4.39967 17.484 7.04967 17.484H13.783C16.433 17.5007 17.4997 16.5507 17.4997 14.2007Z" stroke="white" stroke-opacity="0.8" stroke-width="2" stroke-linecap="round" stroke-linejoin="round"/>
<path d="M17.4997 32.95V26.2167C17.4997 23.5667 16.433 22.5 13.783 22.5H7.04967C4.39967 22.5 3.33301 23.5667 3.33301 26.2167V32.95C3.33301 35.6 4.39967 36.6667 7.04967 36.6667H13.783C16.433 36.6667 17.4997 35.6 17.4997 32.95Z" stroke="white" stroke-opacity="0.8" stroke-width="2" stroke-linecap="round" stroke-linejoin="round"/>
</svg>
