<svg width="212" height="58" viewBox="0 0 212 58" fill="none" xmlns="http://www.w3.org/2000/svg">
<path d="M28.5 0.5C12.7599 0.5 0 13.2599 0 29C0 44.7401 12.7599 57.5 28.5 57.5H122.5C133.111 57.5 142.368 51.7011 147.274 43.0996C148.469 41.004 150.588 39.5 153 39.5C155.412 39.5 157.531 41.004 158.726 43.0996C163.632 51.7011 172.889 57.5 183.5 57.5C199.24 57.5 212 44.7401 212 29C212 13.2599 199.24 0.5 183.5 0.5C172.374 0.5 162.738 6.87494 158.044 16.1712C157.065 18.1088 155.171 19.5 153 19.5C150.829 19.5 148.935 18.1088 147.956 16.1712C143.262 6.87493 133.626 0.5 122.5 0.5H28.5Z" fill="white"/>
</svg>
