<svg width="145" height="42" viewBox="0 0 145 42" fill="none" xmlns="http://www.w3.org/2000/svg">
<path d="M21 0C9.40202 0 0 9.40202 0 21C0 32.598 9.40202 42 21 42H79C86.6698 42 93.3792 37.8883 97.0443 31.7488C97.999 30.1497 99.6376 29 101.5 29C103.362 29 105.001 30.1498 105.956 31.7488C109.621 37.8883 116.33 42 124 42C135.598 42 145 32.598 145 21C145 9.40202 135.598 0 124 0C116.33 0 109.621 4.11173 105.956 10.2512C105.001 11.8503 103.362 13 101.5 13C99.6376 13 97.999 11.8503 97.0443 10.2512C93.3792 4.11173 86.6698 0 79 0H21Z" fill="white"/>
</svg>
