<svg width="532" height="552" viewBox="0 0 532 552" fill="none" xmlns="http://www.w3.org/2000/svg">
<g clip-path="url(#clip0_1634_14253)">
<rect width="236" height="48" fill="#812D9C"/>
<path d="M29.248 24.628L29.52 24.004C30.448 24.0253 31.2107 24.1693 31.808 24.436C32.416 24.692 32.8693 25.0547 33.168 25.524C33.4667 25.9827 33.616 26.516 33.616 27.124C33.616 27.7747 33.4667 28.356 33.168 28.868C32.8693 29.3693 32.4213 29.7693 31.824 30.068C31.2373 30.356 30.5013 30.5 29.616 30.5H20.752L21.68 24.34L20.752 18.5H29.296C30.4053 18.5 31.2693 18.7613 31.888 19.284C32.5067 19.796 32.816 20.5107 32.816 21.428C32.816 21.9293 32.6987 22.4093 32.464 22.868C32.2293 23.3267 31.8507 23.716 31.328 24.036C30.816 24.3453 30.1227 24.5427 29.248 24.628ZM24.032 29.732L22.752 28.18H28.72C29.2 28.18 29.5733 28.0627 29.84 27.828C30.1067 27.5933 30.24 27.268 30.24 26.852C30.24 26.436 30.096 26.1053 29.808 25.86C29.52 25.604 29.0933 25.476 28.528 25.476H23.6V23.204H28.08C28.464 23.204 28.784 23.092 29.04 22.868C29.3067 22.6333 29.44 22.3187 29.44 21.924C29.44 21.604 29.328 21.3427 29.104 21.14C28.88 20.9267 28.56 20.82 28.144 20.82H22.768L24.032 19.268L24.848 24.34L24.032 29.732ZM45.501 23.3V25.7H36.717V23.3H45.501ZM38.973 24.5L38.189 29.316L36.845 27.812H46.029V30.5H34.877L35.789 24.5L34.877 18.5H45.949V21.188H36.845L38.189 19.684L38.973 24.5ZM67.4521 18.5V28.932L66.0281 27.556H69.5321V32.916H66.4121V29.3L67.9161 30.5H47.9481V18.5H51.2601V28.932L49.8361 27.556H57.4681L56.0441 28.932V18.5H59.3561V28.932L57.9321 27.556H65.5641L64.1401 28.932V18.5H67.4521ZM81.376 23.3V25.7H72.592V23.3H81.376ZM74.848 24.5L74.064 29.316L72.72 27.812H81.904V30.5H70.752L71.664 24.5L70.752 18.5H81.824V21.188H72.72L74.064 19.684L74.848 24.5ZM96.9636 25.476C96.8463 26.532 96.4836 27.46 95.8756 28.26C95.2676 29.0493 94.4676 29.6627 93.4756 30.1C92.4943 30.5373 91.3636 30.756 90.0836 30.756C88.6863 30.756 87.465 30.4947 86.4196 29.972C85.3743 29.4493 84.5583 28.7187 83.9716 27.78C83.3956 26.8413 83.1076 25.748 83.1076 24.5C83.1076 23.252 83.3956 22.1587 83.9716 21.22C84.5583 20.2813 85.3743 19.5507 86.4196 19.028C87.465 18.5053 88.6863 18.244 90.0836 18.244C91.3636 18.244 92.4943 18.4627 93.4756 18.9C94.4676 19.3373 95.2676 19.956 95.8756 20.756C96.4836 21.5453 96.8463 22.468 96.9636 23.524H93.6356C93.529 23.012 93.321 22.58 93.0116 22.228C92.7023 21.8653 92.297 21.588 91.7956 21.396C91.305 21.204 90.7343 21.108 90.0836 21.108C89.337 21.108 88.6916 21.2467 88.1476 21.524C87.6036 21.7907 87.1876 22.18 86.8996 22.692C86.6116 23.1933 86.4676 23.796 86.4676 24.5C86.4676 25.204 86.6116 25.812 86.8996 26.324C87.1876 26.8253 87.6036 27.2147 88.1476 27.492C88.6916 27.7587 89.337 27.892 90.0836 27.892C90.7343 27.892 91.305 27.8013 91.7956 27.62C92.297 27.4387 92.7023 27.1667 93.0116 26.804C93.321 26.4413 93.529 25.9987 93.6356 25.476H96.9636ZM101.88 19.956H105.208V30.5H101.88V19.956ZM97.304 18.5H109.784V21.444H97.304V18.5ZM119.342 24.628L119.614 24.004C120.542 24.0253 121.304 24.1693 121.902 24.436C122.51 24.692 122.963 25.0547 123.262 25.524C123.56 25.9827 123.71 26.516 123.71 27.124C123.71 27.7747 123.56 28.356 123.262 28.868C122.963 29.3693 122.515 29.7693 121.918 30.068C121.331 30.356 120.595 30.5 119.71 30.5H110.846L111.774 24.34L110.846 18.5H119.39C120.499 18.5 121.363 18.7613 121.982 19.284C122.6 19.796 122.91 20.5107 122.91 21.428C122.91 21.9293 122.792 22.4093 122.558 22.868C122.323 23.3267 121.944 23.716 121.422 24.036C120.91 24.3453 120.216 24.5427 119.342 24.628ZM114.126 29.732L112.846 28.18H118.814C119.294 28.18 119.667 28.0627 119.934 27.828C120.2 27.5933 120.334 27.268 120.334 26.852C120.334 26.436 120.19 26.1053 119.902 25.86C119.614 25.604 119.187 25.476 118.622 25.476H113.694V23.204H118.174C118.558 23.204 118.878 23.092 119.134 22.868C119.4 22.6333 119.534 22.3187 119.534 21.924C119.534 21.604 119.422 21.3427 119.198 21.14C118.974 20.9267 118.654 20.82 118.238 20.82H112.862L114.126 19.268L114.942 24.34L114.126 29.732ZM131.884 30.756C130.465 30.756 129.217 30.4947 128.14 29.972C127.073 29.4493 126.241 28.7187 125.644 27.78C125.057 26.8413 124.764 25.748 124.764 24.5C124.764 23.252 125.057 22.1587 125.644 21.22C126.241 20.2813 127.073 19.5507 128.14 19.028C129.217 18.5053 130.465 18.244 131.884 18.244C133.313 18.244 134.561 18.5053 135.628 19.028C136.695 19.5507 137.527 20.2813 138.124 21.22C138.721 22.1587 139.02 23.252 139.02 24.5C139.02 25.748 138.721 26.8413 138.124 27.78C137.527 28.7187 136.695 29.4493 135.628 29.972C134.561 30.4947 133.313 30.756 131.884 30.756ZM131.884 27.796C132.663 27.796 133.335 27.6627 133.9 27.396C134.465 27.1293 134.897 26.7507 135.196 26.26C135.505 25.7693 135.66 25.1827 135.66 24.5C135.66 23.8173 135.505 23.2307 135.196 22.74C134.897 22.2493 134.465 21.8707 133.9 21.604C133.335 21.3373 132.663 21.204 131.884 21.204C131.116 21.204 130.449 21.3373 129.884 21.604C129.319 21.8707 128.881 22.2493 128.572 22.74C128.263 23.2307 128.108 23.8173 128.108 24.5C128.108 25.1827 128.263 25.7693 128.572 26.26C128.881 26.7507 129.319 27.1293 129.884 27.396C130.449 27.6627 131.116 27.796 131.884 27.796Z" fill="white"/>
<rect width="236" height="48" transform="translate(0 48)" fill="#F2F1EC"/>
<path d="M21.64 79V64.9H31.14V66.58H23.64V70.96H27.76C29.24 70.96 30.3933 71.3 31.22 71.98C32.06 72.6467 32.48 73.64 32.48 74.96C32.48 76.28 32.06 77.2867 31.22 77.98C30.3933 78.66 29.24 79 27.76 79H21.64ZM23.64 77.32H27.52C29.48 77.32 30.46 76.54 30.46 74.98C30.46 73.42 29.48 72.64 27.52 72.64H23.64V77.32ZM39.4403 79.18C37.8403 79.18 36.5803 78.7333 35.6603 77.84C34.7403 76.9333 34.2803 75.7 34.2803 74.14C34.2803 73.14 34.4803 72.26 34.8803 71.5C35.2936 70.7267 35.8603 70.1267 36.5803 69.7C37.3003 69.2733 38.127 69.06 39.0603 69.06C40.407 69.06 41.467 69.4933 42.2403 70.36C43.0136 71.2133 43.4003 72.3933 43.4003 73.9V74.58H36.2403C36.387 76.6067 37.4603 77.62 39.4603 77.62C40.0203 77.62 40.567 77.5333 41.1003 77.36C41.647 77.1867 42.1603 76.9 42.6403 76.5L43.2403 77.9C42.8003 78.3 42.2336 78.6133 41.5403 78.84C40.847 79.0667 40.147 79.18 39.4403 79.18ZM39.1403 70.48C38.3003 70.48 37.6336 70.74 37.1403 71.26C36.647 71.78 36.347 72.4733 36.2403 73.34H41.7003C41.6603 72.4333 41.4203 71.7333 40.9803 71.24C40.5403 70.7333 39.927 70.48 39.1403 70.48ZM45.3773 79.26L44.6973 77.66C45.284 77.42 45.744 77.0933 46.0773 76.68C46.4107 76.2533 46.6507 75.6667 46.7973 74.92C46.944 74.16 47.0173 73.18 47.0173 71.98V69.24H54.4573V79H52.4373V70.86H48.8973V72.04C48.8973 73.5067 48.7773 74.7267 48.5373 75.7C48.2973 76.6733 47.9173 77.4467 47.3973 78.02C46.8907 78.58 46.2173 78.9933 45.3773 79.26ZM57.4966 79V69.24H59.5166V73.2H61.1566L64.1766 69.24H66.3766L63.0766 73.62C63.3966 73.7667 63.6899 73.9933 63.9566 74.3C64.2366 74.5933 64.5232 75 64.8166 75.52L66.8366 79H64.6766L62.9766 76.08C62.6699 75.56 62.3699 75.2133 62.0766 75.04C61.7966 74.8667 61.4032 74.78 60.8966 74.78H59.5166V79H57.4966ZM68.3169 79V69.24H70.1569V76.32L75.4369 69.24H77.1369V79H75.2969V71.94L70.0169 79H68.3169Z" fill="#414143"/>
<rect width="236" height="48" transform="translate(0 96)" fill="#F2F1EC"/>
<path d="M20.22 127L26.5 112.9H28.22L34.52 127H32.4L30.92 123.56H23.78L22.32 127H20.22ZM27.34 115.2L24.52 121.88H30.22L27.38 115.2H27.34ZM36.2466 127V117.24H37.9066L41.4466 123.42L44.9666 117.24H46.6266V127H44.8466V120.38L41.9266 125.42H40.9466L38.0266 120.38V127H36.2466ZM49.6645 127V117.24H51.5045V124.32L56.7845 117.24H58.4845V127H56.6445V119.94L51.3645 127H49.6645ZM61.52 127V117.24H63.54V121.18H68.4V117.24H70.42V127H68.4V122.78H63.54V127H61.52ZM77.6941 127.18C76.7074 127.18 75.8541 126.973 75.1341 126.56C74.4141 126.147 73.8541 125.567 73.4541 124.82C73.0674 124.06 72.8741 123.16 72.8741 122.12C72.8741 121.08 73.0674 120.187 73.4541 119.44C73.8541 118.68 74.4141 118.093 75.1341 117.68C75.8541 117.267 76.7074 117.06 77.6941 117.06C78.6541 117.06 79.4941 117.267 80.2141 117.68C80.9341 118.093 81.4941 118.68 81.8941 119.44C82.2941 120.187 82.4941 121.08 82.4941 122.12C82.4941 123.16 82.2941 124.06 81.8941 124.82C81.4941 125.567 80.9341 126.147 80.2141 126.56C79.4941 126.973 78.6541 127.18 77.6941 127.18ZM77.6941 125.62C78.5207 125.62 79.1874 125.32 79.6941 124.72C80.2007 124.12 80.4541 123.253 80.4541 122.12C80.4541 120.987 80.2007 120.127 79.6941 119.54C79.1874 118.94 78.5207 118.64 77.6941 118.64C76.8541 118.64 76.1807 118.94 75.6741 119.54C75.1674 120.127 74.9141 120.987 74.9141 122.12C74.9141 123.253 75.1674 124.12 75.6741 124.72C76.1807 125.32 76.8541 125.62 77.6941 125.62ZM84.977 127V117.24H86.997V121.2H88.637L91.657 117.24H93.857L90.557 121.62C90.877 121.767 91.1704 121.993 91.437 122.3C91.717 122.593 92.0037 123 92.297 123.52L94.317 127H92.157L90.457 124.08C90.1504 123.56 89.8504 123.213 89.557 123.04C89.277 122.867 88.8837 122.78 88.377 122.78H86.997V127H84.977ZM95.7973 127V117.24H97.6373V124.32L102.917 117.24H104.617V127H102.777V119.94L97.4973 127H95.7973ZM111.973 127.18C110.973 127.18 110.106 126.973 109.373 126.56C108.653 126.133 108.093 125.54 107.693 124.78C107.293 124.007 107.093 123.1 107.093 122.06C107.093 120.513 107.533 119.293 108.413 118.4C109.293 117.507 110.479 117.06 111.973 117.06C112.586 117.06 113.193 117.167 113.793 117.38C114.393 117.593 114.886 117.887 115.273 118.26L114.633 119.68C114.259 119.333 113.846 119.08 113.393 118.92C112.953 118.747 112.533 118.66 112.133 118.66C111.186 118.66 110.453 118.96 109.933 119.56C109.426 120.147 109.173 120.987 109.173 122.08C109.173 123.173 109.426 124.033 109.933 124.66C110.453 125.273 111.186 125.58 112.133 125.58C112.533 125.58 112.953 125.5 113.393 125.34C113.846 125.167 114.259 124.907 114.633 124.56L115.273 126C114.886 126.36 114.386 126.647 113.773 126.86C113.173 127.073 112.573 127.18 111.973 127.18ZM116.803 127.26L116.123 125.66C116.71 125.42 117.17 125.093 117.503 124.68C117.836 124.253 118.076 123.667 118.223 122.92C118.37 122.16 118.443 121.18 118.443 119.98V117.24H125.883V127H123.863V118.86H120.323V120.04C120.323 121.507 120.203 122.727 119.963 123.7C119.723 124.673 119.343 125.447 118.823 126.02C118.316 126.58 117.643 126.993 116.803 127.26ZM133.182 127.18C132.196 127.18 131.342 126.973 130.622 126.56C129.902 126.147 129.342 125.567 128.942 124.82C128.556 124.06 128.362 123.16 128.362 122.12C128.362 121.08 128.556 120.187 128.942 119.44C129.342 118.68 129.902 118.093 130.622 117.68C131.342 117.267 132.196 117.06 133.182 117.06C134.142 117.06 134.982 117.267 135.702 117.68C136.422 118.093 136.982 118.68 137.382 119.44C137.782 120.187 137.982 121.08 137.982 122.12C137.982 123.16 137.782 124.06 137.382 124.82C136.982 125.567 136.422 126.147 135.702 126.56C134.982 126.973 134.142 127.18 133.182 127.18ZM133.182 125.62C134.009 125.62 134.676 125.32 135.182 124.72C135.689 124.12 135.942 123.253 135.942 122.12C135.942 120.987 135.689 120.127 135.182 119.54C134.676 118.94 134.009 118.64 133.182 118.64C132.342 118.64 131.669 118.94 131.162 119.54C130.656 120.127 130.402 120.987 130.402 122.12C130.402 123.253 130.656 124.12 131.162 124.72C131.669 125.32 132.342 125.62 133.182 125.62ZM142.505 127V118.86H139.065V117.24H147.985V118.86H144.525V127H142.505ZM149.606 127V117.24H151.626V120.62H154.406C155.659 120.62 156.613 120.893 157.266 121.44C157.919 121.973 158.246 122.753 158.246 123.78C158.246 124.767 157.906 125.553 157.226 126.14C156.546 126.713 155.606 127 154.406 127H149.606ZM159.566 127V117.24H161.586V127H159.566ZM151.626 125.62H154.146C154.839 125.62 155.379 125.473 155.766 125.18C156.153 124.873 156.346 124.407 156.346 123.78C156.346 123.167 156.153 122.72 155.766 122.44C155.379 122.147 154.839 122 154.146 122H151.626V125.62Z" fill="#414143"/>
<rect width="236" height="48" transform="translate(0 144)" fill="#F2F1EC"/>
<path d="M23.8 175L25.98 170.76L19.86 160.9H22.08L26.96 168.86L31.04 160.9H33.18L25.96 175H23.8ZM33.5513 175V165.24H40.6313V166.86H35.5713V175H33.5513ZM41.6469 175.26L40.9669 173.66C41.5535 173.42 42.0135 173.093 42.3469 172.68C42.6802 172.253 42.9202 171.667 43.0669 170.92C43.2135 170.16 43.2869 169.18 43.2869 167.98V165.24H50.7269V175H48.7069V166.86H45.1669V168.04C45.1669 169.507 45.0469 170.727 44.8069 171.7C44.5669 172.673 44.1869 173.447 43.6669 174.02C43.1602 174.58 42.4869 174.993 41.6469 175.26ZM58.3661 175.18C56.7661 175.18 55.5061 174.733 54.5861 173.84C53.6661 172.933 53.2061 171.7 53.2061 170.14C53.2061 169.14 53.4061 168.26 53.8061 167.5C54.2194 166.727 54.7861 166.127 55.5061 165.7C56.2261 165.273 57.0528 165.06 57.9861 165.06C59.3328 165.06 60.3928 165.493 61.1661 166.36C61.9394 167.213 62.3261 168.393 62.3261 169.9V170.58H55.1661C55.3128 172.607 56.3861 173.62 58.3861 173.62C58.9461 173.62 59.4928 173.533 60.0261 173.36C60.5728 173.187 61.0861 172.9 61.5661 172.5L62.1661 173.9C61.7261 174.3 61.1594 174.613 60.4661 174.84C59.7728 175.067 59.0728 175.18 58.3661 175.18ZM58.0661 166.48C57.2261 166.48 56.5594 166.74 56.0661 167.26C55.5728 167.78 55.2728 168.473 55.1661 169.34H60.6261C60.5861 168.433 60.3461 167.733 59.9061 167.24C59.4661 166.733 58.8528 166.48 58.0661 166.48ZM64.7231 175V165.24H69.7031C70.9031 165.24 71.7765 165.467 72.3231 165.92C72.8831 166.36 73.1631 166.987 73.1631 167.8C73.1631 168.307 73.0165 168.753 72.7231 169.14C72.4431 169.513 72.0565 169.787 71.5631 169.96C72.1765 170.107 72.6498 170.387 72.9831 170.8C73.3165 171.213 73.4831 171.707 73.4831 172.28C73.4831 173.12 73.1698 173.787 72.5431 174.28C71.9165 174.76 71.0231 175 69.8631 175H64.7231ZM66.6231 169.38H69.5631C70.1098 169.38 70.5298 169.253 70.8231 169C71.1298 168.747 71.2831 168.4 71.2831 167.96C71.2831 167.507 71.1298 167.16 70.8231 166.92C70.5298 166.68 70.1098 166.56 69.5631 166.56H66.6231V169.38ZM66.6231 173.7H69.7431C70.9965 173.7 71.6231 173.193 71.6231 172.18C71.6231 171.18 70.9965 170.68 69.7431 170.68H66.6231V173.7ZM80.0964 175.18C79.1097 175.18 78.2564 174.973 77.5364 174.56C76.8164 174.147 76.2564 173.567 75.8564 172.82C75.4697 172.06 75.2764 171.16 75.2764 170.12C75.2764 169.08 75.4697 168.187 75.8564 167.44C76.2564 166.68 76.8164 166.093 77.5364 165.68C78.2564 165.267 79.1097 165.06 80.0964 165.06C81.0564 165.06 81.8964 165.267 82.6164 165.68C83.3364 166.093 83.8964 166.68 84.2964 167.44C84.6964 168.187 84.8964 169.08 84.8964 170.12C84.8964 171.16 84.6964 172.06 84.2964 172.82C83.8964 173.567 83.3364 174.147 82.6164 174.56C81.8964 174.973 81.0564 175.18 80.0964 175.18ZM80.0964 173.62C80.9231 173.62 81.5897 173.32 82.0964 172.72C82.6031 172.12 82.8564 171.253 82.8564 170.12C82.8564 168.987 82.6031 168.127 82.0964 167.54C81.5897 166.94 80.9231 166.64 80.0964 166.64C79.2564 166.64 78.5831 166.94 78.0764 167.54C77.5697 168.127 77.3164 168.987 77.3164 170.12C77.3164 171.253 77.5697 172.12 78.0764 172.72C78.5831 173.32 79.2564 173.62 80.0964 173.62ZM86.3794 177.6V173.4H87.4594C87.886 172.76 88.1927 172.02 88.3794 171.18C88.566 170.327 88.6594 169.293 88.6594 168.08V165.24H95.8794V173.4H97.4394V177.6H95.7194V175H88.1194V177.6H86.3794ZM89.3394 173.4H93.9594V166.82H90.4194V168.5C90.4194 169.42 90.326 170.313 90.1394 171.18C89.9527 172.047 89.686 172.787 89.3394 173.4ZM99.4497 175V165.24H101.47V168.62H104.25C105.503 168.62 106.456 168.893 107.11 169.44C107.763 169.973 108.09 170.753 108.09 171.78C108.09 172.767 107.75 173.553 107.07 174.14C106.39 174.713 105.45 175 104.25 175H99.4497ZM109.41 175V165.24H111.43V175H109.41ZM101.47 173.62H103.99C104.683 173.62 105.223 173.473 105.61 173.18C105.996 172.873 106.19 172.407 106.19 171.78C106.19 171.167 105.996 170.72 105.61 170.44C105.223 170.147 104.683 170 103.99 170H101.47V173.62Z" fill="#414143"/>
<rect width="236" height="48" transform="translate(0 192)" fill="#F2F1EC"/>
<path d="M21.68 223V208.9H23.42L28.64 218.64L33.84 208.9H35.54V223H33.68V212.66L29.26 220.84H28L23.56 212.7V223H21.68ZM38.7466 223V213.24H40.5866V220.32L45.8666 213.24H47.5666V223H45.7266V215.94L40.4466 223H38.7466ZM50.602 223V213.24H52.622V217.18H57.482V213.24H59.502V223H57.482V218.78H52.622V223H50.602ZM67.1161 223.18C65.5161 223.18 64.2561 222.733 63.3361 221.84C62.4161 220.933 61.9561 219.7 61.9561 218.14C61.9561 217.14 62.1561 216.26 62.5561 215.5C62.9694 214.727 63.5361 214.127 64.2561 213.7C64.9761 213.273 65.8028 213.06 66.7361 213.06C68.0828 213.06 69.1428 213.493 69.9161 214.36C70.6894 215.213 71.0761 216.393 71.0761 217.9V218.58H63.9161C64.0628 220.607 65.1361 221.62 67.1361 221.62C67.6961 221.62 68.2428 221.533 68.7761 221.36C69.3228 221.187 69.8361 220.9 70.3161 220.5L70.9161 221.9C70.4761 222.3 69.9094 222.613 69.2161 222.84C68.5228 223.067 67.8228 223.18 67.1161 223.18ZM66.8161 214.48C65.9761 214.48 65.3094 214.74 64.8161 215.26C64.3228 215.78 64.0228 216.473 63.9161 217.34H69.3761C69.3361 216.433 69.0961 215.733 68.6561 215.24C68.2161 214.733 67.6028 214.48 66.8161 214.48ZM73.4931 226.6V213.24H75.4731V214.9C75.7531 214.34 76.1798 213.893 76.7531 213.56C77.3265 213.227 77.9865 213.06 78.7331 213.06C79.5998 213.06 80.3531 213.267 80.9931 213.68C81.6465 214.093 82.1465 214.68 82.4931 215.44C82.8531 216.187 83.0331 217.08 83.0331 218.12C83.0331 219.16 82.8531 220.06 82.4931 220.82C82.1465 221.58 81.6465 222.167 80.9931 222.58C80.3531 222.98 79.5998 223.18 78.7331 223.18C78.0131 223.18 77.3665 223.027 76.7931 222.72C76.2331 222.4 75.8065 221.967 75.5131 221.42V226.6H73.4931ZM78.2331 221.62C79.0731 221.62 79.7398 221.32 80.2331 220.72C80.7398 220.12 80.9931 219.253 80.9931 218.12C80.9931 216.987 80.7398 216.127 80.2331 215.54C79.7398 214.94 79.0731 214.64 78.2331 214.64C77.3931 214.64 76.7198 214.94 76.2131 215.54C75.7198 216.127 75.4731 216.987 75.4731 218.12C75.4731 219.253 75.7198 220.12 76.2131 220.72C76.7198 221.32 77.3931 221.62 78.2331 221.62ZM88.6444 223.18C87.9644 223.18 87.3577 223.047 86.8244 222.78C86.291 222.513 85.8644 222.153 85.5444 221.7C85.2377 221.247 85.0844 220.733 85.0844 220.16C85.0844 219.44 85.2644 218.873 85.6244 218.46C85.9977 218.047 86.6044 217.747 87.4444 217.56C88.2977 217.373 89.4444 217.28 90.8844 217.28H91.5644V216.76C91.5644 216 91.4044 215.453 91.0844 215.12C90.7644 214.787 90.2377 214.62 89.5044 214.62C88.9444 214.62 88.3844 214.707 87.8244 214.88C87.2644 215.04 86.691 215.3 86.1044 215.66L85.4844 214.24C85.991 213.88 86.6244 213.593 87.3844 213.38C88.1444 213.167 88.871 213.06 89.5644 213.06C90.8977 213.06 91.8844 213.38 92.5244 214.02C93.1644 214.647 93.4844 215.633 93.4844 216.98V223H91.5844V221.38C91.3444 221.94 90.971 222.38 90.4644 222.7C89.9577 223.02 89.351 223.18 88.6444 223.18ZM89.0444 221.74C89.7644 221.74 90.3644 221.487 90.8444 220.98C91.3244 220.473 91.5644 219.833 91.5644 219.06V218.52H90.9044C89.931 218.52 89.1644 218.567 88.6044 218.66C88.0577 218.753 87.6644 218.913 87.4244 219.14C87.1977 219.353 87.0844 219.653 87.0844 220.04C87.0844 220.547 87.2577 220.96 87.6044 221.28C87.951 221.587 88.431 221.74 89.0444 221.74ZM96.0609 223.26L95.3809 221.66C95.9676 221.42 96.4276 221.093 96.7609 220.68C97.0943 220.253 97.3343 219.667 97.4809 218.92C97.6276 218.16 97.7009 217.18 97.7009 215.98V213.24H105.141V223H103.121V214.86H99.5809V216.04C99.5809 217.507 99.4609 218.727 99.2209 219.7C98.9809 220.673 98.6009 221.447 98.0809 222.02C97.5743 222.58 96.9009 222.993 96.0609 223.26ZM108.18 223V213.24H110.2V216.62H112.98C114.233 216.62 115.187 216.893 115.84 217.44C116.493 217.973 116.82 218.753 116.82 219.78C116.82 220.767 116.48 221.553 115.8 222.14C115.12 222.713 114.18 223 112.98 223H108.18ZM118.14 223V213.24H120.16V223H118.14ZM110.2 221.62H112.72C113.413 221.62 113.953 221.473 114.34 221.18C114.727 220.873 114.92 220.407 114.92 219.78C114.92 219.167 114.727 218.72 114.34 218.44C113.953 218.147 113.413 218 112.72 218H110.2V221.62Z" fill="#414143"/>
<rect width="236" height="72" transform="translate(0 240)" fill="#F2F1EC"/>
<path d="M27.6 271.48V269.88C26.2667 269.88 25.1133 269.64 24.14 269.16C23.18 268.68 22.44 267.987 21.92 267.08C21.4133 266.173 21.16 265.093 21.16 263.84C21.16 261.933 21.72 260.453 22.84 259.4C23.9733 258.333 25.56 257.8 27.6 257.8V256.32H29.68V257.8C31.72 257.8 33.3 258.333 34.42 259.4C35.5533 260.453 36.12 261.933 36.12 263.84C36.12 265.107 35.86 266.193 35.34 267.1C34.82 267.993 34.08 268.68 33.12 269.16C32.16 269.64 31.0133 269.88 29.68 269.88V271.48H27.6ZM29.88 259.42H29.66V268.26H29.88C31.0933 268.26 32.08 267.88 32.84 267.12C33.6 266.347 33.98 265.253 33.98 263.84C33.98 262.387 33.6067 261.287 32.86 260.54C32.1133 259.793 31.12 259.42 29.88 259.42ZM27.38 268.26H27.6V259.42H27.38C26.14 259.42 25.1467 259.793 24.4 260.54C23.6533 261.287 23.28 262.387 23.28 263.84C23.28 265.253 23.66 266.347 24.42 267.12C25.1933 267.88 26.18 268.26 27.38 268.26ZM38.3656 271.26L37.6856 269.66C38.2723 269.42 38.7323 269.093 39.0656 268.68C39.399 268.253 39.639 267.667 39.7856 266.92C39.9323 266.16 40.0056 265.18 40.0056 263.98V261.24H47.4456V271H45.4256V262.86H41.8856V264.04C41.8856 265.507 41.7656 266.727 41.5256 267.7C41.2856 268.673 40.9056 269.447 40.3856 270.02C39.879 270.58 39.2056 270.993 38.3656 271.26ZM53.6248 271.18C52.9448 271.18 52.3382 271.047 51.8048 270.78C51.2715 270.513 50.8448 270.153 50.5248 269.7C50.2182 269.247 50.0648 268.733 50.0648 268.16C50.0648 267.44 50.2448 266.873 50.6048 266.46C50.9782 266.047 51.5848 265.747 52.4248 265.56C53.2782 265.373 54.4248 265.28 55.8648 265.28H56.5448V264.76C56.5448 264 56.3848 263.453 56.0648 263.12C55.7448 262.787 55.2182 262.62 54.4848 262.62C53.9248 262.62 53.3648 262.707 52.8048 262.88C52.2448 263.04 51.6715 263.3 51.0848 263.66L50.4648 262.24C50.9715 261.88 51.6048 261.593 52.3648 261.38C53.1248 261.167 53.8515 261.06 54.5448 261.06C55.8782 261.06 56.8648 261.38 57.5048 262.02C58.1448 262.647 58.4648 263.633 58.4648 264.98V271H56.5648V269.38C56.3248 269.94 55.9515 270.38 55.4448 270.7C54.9382 271.02 54.3315 271.18 53.6248 271.18ZM54.0248 269.74C54.7448 269.74 55.3448 269.487 55.8248 268.98C56.3048 268.473 56.5448 267.833 56.5448 267.06V266.52H55.8848C54.9115 266.52 54.1448 266.567 53.5848 266.66C53.0382 266.753 52.6448 266.913 52.4048 267.14C52.1782 267.353 52.0648 267.653 52.0648 268.04C52.0648 268.547 52.2382 268.96 52.5848 269.28C52.9315 269.587 53.4115 269.74 54.0248 269.74ZM61.4614 271V261.24H66.4414C67.6414 261.24 68.5147 261.467 69.0614 261.92C69.6214 262.36 69.9014 262.987 69.9014 263.8C69.9014 264.307 69.7547 264.753 69.4614 265.14C69.1814 265.513 68.7947 265.787 68.3014 265.96C68.9147 266.107 69.3881 266.387 69.7214 266.8C70.0547 267.213 70.2214 267.707 70.2214 268.28C70.2214 269.12 69.9081 269.787 69.2814 270.28C68.6547 270.76 67.7614 271 66.6014 271H61.4614ZM63.3614 265.38H66.3014C66.8481 265.38 67.2681 265.253 67.5614 265C67.8681 264.747 68.0214 264.4 68.0214 263.96C68.0214 263.507 67.8681 263.16 67.5614 262.92C67.2681 262.68 66.8481 262.56 66.3014 262.56H63.3614V265.38ZM63.3614 269.7H66.4814C67.7347 269.7 68.3614 269.193 68.3614 268.18C68.3614 267.18 67.7347 266.68 66.4814 266.68H63.3614V269.7ZM76.8347 271.18C75.848 271.18 74.9947 270.973 74.2747 270.56C73.5547 270.147 72.9947 269.567 72.5947 268.82C72.208 268.06 72.0147 267.16 72.0147 266.12C72.0147 265.08 72.208 264.187 72.5947 263.44C72.9947 262.68 73.5547 262.093 74.2747 261.68C74.9947 261.267 75.848 261.06 76.8347 261.06C77.7947 261.06 78.6347 261.267 79.3547 261.68C80.0747 262.093 80.6347 262.68 81.0347 263.44C81.4347 264.187 81.6347 265.08 81.6347 266.12C81.6347 267.16 81.4347 268.06 81.0347 268.82C80.6347 269.567 80.0747 270.147 79.3547 270.56C78.6347 270.973 77.7947 271.18 76.8347 271.18ZM76.8347 269.62C77.6614 269.62 78.328 269.32 78.8347 268.72C79.3414 268.12 79.5947 267.253 79.5947 266.12C79.5947 264.987 79.3414 264.127 78.8347 263.54C78.328 262.94 77.6614 262.64 76.8347 262.64C75.9947 262.64 75.3214 262.94 74.8147 263.54C74.308 264.127 74.0547 264.987 74.0547 266.12C74.0547 267.253 74.308 268.12 74.8147 268.72C75.3214 269.32 75.9947 269.62 76.8347 269.62ZM84.1177 271V261.24H86.1377V265.18H90.9977V261.24H93.0177V271H90.9977V266.78H86.1377V271H84.1177ZM100.292 271.18C99.3051 271.18 98.4517 270.973 97.7317 270.56C97.0117 270.147 96.4517 269.567 96.0517 268.82C95.6651 268.06 95.4717 267.16 95.4717 266.12C95.4717 265.08 95.6651 264.187 96.0517 263.44C96.4517 262.68 97.0117 262.093 97.7317 261.68C98.4517 261.267 99.3051 261.06 100.292 261.06C101.252 261.06 102.092 261.267 102.812 261.68C103.532 262.093 104.092 262.68 104.492 263.44C104.892 264.187 105.092 265.08 105.092 266.12C105.092 267.16 104.892 268.06 104.492 268.82C104.092 269.567 103.532 270.147 102.812 270.56C102.092 270.973 101.252 271.18 100.292 271.18ZM100.292 269.62C101.118 269.62 101.785 269.32 102.292 268.72C102.798 268.12 103.052 267.253 103.052 266.12C103.052 264.987 102.798 264.127 102.292 263.54C101.785 262.94 101.118 262.64 100.292 262.64C99.4517 262.64 98.7784 262.94 98.2717 263.54C97.7651 264.127 97.5117 264.987 97.5117 266.12C97.5117 267.253 97.7651 268.12 98.2717 268.72C98.7784 269.32 99.4517 269.62 100.292 269.62ZM107.575 271V261.24H109.415V268.32L114.695 261.24H116.395V271H114.555V263.94L109.275 271H107.575ZM118.43 273.6V269.4H119.51C119.937 268.76 120.243 268.02 120.43 267.18C120.617 266.327 120.71 265.293 120.71 264.08V261.24H127.93V269.4H129.49V273.6H127.77V271H120.17V273.6H118.43ZM121.39 269.4H126.01V262.82H122.47V264.5C122.47 265.42 122.377 266.313 122.19 267.18C122.003 268.047 121.737 268.787 121.39 269.4ZM131.5 271V261.24H133.52V264.62H136.3C137.554 264.62 138.507 264.893 139.16 265.44C139.814 265.973 140.14 266.753 140.14 267.78C140.14 268.767 139.8 269.553 139.12 270.14C138.44 270.713 137.5 271 136.3 271H131.5ZM141.46 271V261.24H143.48V271H141.46ZM133.52 269.62H136.04C136.734 269.62 137.274 269.473 137.66 269.18C138.047 268.873 138.24 268.407 138.24 267.78C138.24 267.167 138.047 266.72 137.66 266.44C137.274 266.147 136.734 266 136.04 266H133.52V269.62ZM24.6 298.88C23.6933 297.4 23.0333 295.907 22.62 294.4C22.22 292.88 22.02 291.327 22.02 289.74C22.02 288.153 22.22 286.607 22.62 285.1C23.0333 283.58 23.6933 282.08 24.6 280.6L26.02 281.16C25.38 282.667 24.9133 284.107 24.62 285.48C24.3267 286.853 24.18 288.273 24.18 289.74C24.18 291.193 24.3267 292.613 24.62 294C24.9133 295.373 25.38 296.813 26.02 298.32L24.6 298.88ZM28.2388 295V285.24H33.2188C34.4188 285.24 35.2921 285.467 35.8388 285.92C36.3988 286.36 36.6788 286.987 36.6788 287.8C36.6788 288.307 36.5321 288.753 36.2388 289.14C35.9588 289.513 35.5721 289.787 35.0788 289.96C35.6921 290.107 36.1654 290.387 36.4988 290.8C36.8321 291.213 36.9987 291.707 36.9987 292.28C36.9987 293.12 36.6854 293.787 36.0588 294.28C35.4321 294.76 34.5388 295 33.3788 295H28.2388ZM30.1388 289.38H33.0788C33.6254 289.38 34.0454 289.253 34.3388 289C34.6454 288.747 34.7988 288.4 34.7988 287.96C34.7988 287.507 34.6454 287.16 34.3388 286.92C34.0454 286.68 33.6254 286.56 33.0788 286.56H30.1388V289.38ZM30.1388 293.7H33.2588C34.5121 293.7 35.1388 293.193 35.1388 292.18C35.1388 291.18 34.5121 290.68 33.2588 290.68H30.1388V293.7ZM43.672 295.18C42.672 295.18 41.8054 294.973 41.072 294.56C40.352 294.133 39.792 293.54 39.392 292.78C38.992 292.007 38.792 291.1 38.792 290.06C38.792 288.513 39.232 287.293 40.112 286.4C40.992 285.507 42.1787 285.06 43.672 285.06C44.2854 285.06 44.892 285.167 45.492 285.38C46.092 285.593 46.5854 285.887 46.972 286.26L46.332 287.68C45.9587 287.333 45.5454 287.08 45.092 286.92C44.652 286.747 44.232 286.66 43.832 286.66C42.8854 286.66 42.152 286.96 41.632 287.56C41.1254 288.147 40.872 288.987 40.872 290.08C40.872 291.173 41.1254 292.033 41.632 292.66C42.152 293.273 42.8854 293.58 43.832 293.58C44.232 293.58 44.652 293.5 45.092 293.34C45.5454 293.167 45.9587 292.907 46.332 292.56L46.972 294C46.5854 294.36 46.0854 294.647 45.472 294.86C44.872 295.073 44.272 295.18 43.672 295.18ZM53.5223 295.18C51.9223 295.18 50.6623 294.733 49.7423 293.84C48.8223 292.933 48.3623 291.7 48.3623 290.14C48.3623 289.14 48.5623 288.26 48.9623 287.5C49.3757 286.727 49.9423 286.127 50.6623 285.7C51.3823 285.273 52.209 285.06 53.1423 285.06C54.489 285.06 55.549 285.493 56.3223 286.36C57.0957 287.213 57.4823 288.393 57.4823 289.9V290.58H50.3223C50.469 292.607 51.5423 293.62 53.5423 293.62C54.1023 293.62 54.649 293.533 55.1823 293.36C55.729 293.187 56.2423 292.9 56.7223 292.5L57.3223 293.9C56.8823 294.3 56.3157 294.613 55.6223 294.84C54.929 295.067 54.229 295.18 53.5223 295.18ZM53.2223 286.48C52.3823 286.48 51.7157 286.74 51.2223 287.26C50.729 287.78 50.429 288.473 50.3223 289.34H55.7823C55.7423 288.433 55.5023 287.733 55.0623 287.24C54.6223 286.733 54.009 286.48 53.2223 286.48ZM67.1733 295V286.86H63.7333V285.24H72.6533V286.86H69.1933V295H67.1733ZM74.2739 295V285.24H76.1139V292.32L81.3939 285.24H83.0939V295H81.2539V287.94L75.9739 295H74.2739ZM86.1294 295V285.24H94.9694V295H92.9494V286.86H88.1494V295H86.1294ZM97.9848 295V285.24H100.005V288.62H102.785C104.038 288.62 104.992 288.893 105.645 289.44C106.298 289.973 106.625 290.753 106.625 291.78C106.625 292.767 106.285 293.553 105.605 294.14C104.925 294.713 103.985 295 102.785 295H97.9848ZM107.945 295V285.24H109.965V295H107.945ZM100.005 293.62H102.525C103.218 293.62 103.758 293.473 104.145 293.18C104.532 292.873 104.725 292.407 104.725 291.78C104.725 291.167 104.532 290.72 104.145 290.44C103.758 290.147 103.218 290 102.525 290H100.005V293.62ZM113.604 298.88L112.184 298.32C112.811 296.787 113.271 295.333 113.564 293.96C113.858 292.587 114.004 291.18 114.004 289.74C114.004 288.3 113.858 286.893 113.564 285.52C113.271 284.147 112.811 282.693 112.184 281.16L113.604 280.6C114.511 282.093 115.164 283.6 115.564 285.12C115.978 286.627 116.184 288.167 116.184 289.74C116.184 291.327 115.978 292.88 115.564 294.4C115.164 295.907 114.511 297.4 113.604 298.88Z" fill="#414143"/>
<rect width="236" height="72" transform="translate(0 312)" fill="#F2F1EC"/>
<path d="M21.64 343V328.9H23.72V335.04H25.98L29.94 328.9H32.24L27.94 335.38C28.5 335.593 28.9933 335.927 29.42 336.38C29.8467 336.82 30.2267 337.373 30.56 338.04L32.98 343H30.74L28.82 338.9C28.46 338.14 28.04 337.6 27.56 337.28C27.08 336.947 26.4867 336.78 25.78 336.78H23.72V343H21.64ZM37.785 343.18C37.105 343.18 36.4983 343.047 35.965 342.78C35.4317 342.513 35.005 342.153 34.685 341.7C34.3783 341.247 34.225 340.733 34.225 340.16C34.225 339.44 34.405 338.873 34.765 338.46C35.1383 338.047 35.745 337.747 36.585 337.56C37.4383 337.373 38.585 337.28 40.025 337.28H40.705V336.76C40.705 336 40.545 335.453 40.225 335.12C39.905 334.787 39.3783 334.62 38.645 334.62C38.085 334.62 37.525 334.707 36.965 334.88C36.405 335.04 35.8317 335.3 35.245 335.66L34.625 334.24C35.1317 333.88 35.765 333.593 36.525 333.38C37.285 333.167 38.0117 333.06 38.705 333.06C40.0383 333.06 41.025 333.38 41.665 334.02C42.305 334.647 42.625 335.633 42.625 336.98V343H40.725V341.38C40.485 341.94 40.1117 342.38 39.605 342.7C39.0983 343.02 38.4917 343.18 37.785 343.18ZM38.185 341.74C38.905 341.74 39.505 341.487 39.985 340.98C40.465 340.473 40.705 339.833 40.705 339.06V338.52H40.045C39.0717 338.52 38.305 338.567 37.745 338.66C37.1983 338.753 36.805 338.913 36.565 339.14C36.3383 339.353 36.225 339.653 36.225 340.04C36.225 340.547 36.3983 340.96 36.745 341.28C37.0917 341.587 37.5717 341.74 38.185 341.74ZM47.6616 343V334.86H44.2216V333.24H53.1416V334.86H49.6816V343H47.6616ZM59.3036 343.18C57.7036 343.18 56.4436 342.733 55.5236 341.84C54.6036 340.933 54.1436 339.7 54.1436 338.14C54.1436 337.14 54.3436 336.26 54.7436 335.5C55.1569 334.727 55.7236 334.127 56.4436 333.7C57.1636 333.273 57.9903 333.06 58.9236 333.06C60.2703 333.06 61.3303 333.493 62.1036 334.36C62.8769 335.213 63.2636 336.393 63.2636 337.9V338.58H56.1036C56.2503 340.607 57.3236 341.62 59.3236 341.62C59.8836 341.62 60.4303 341.533 60.9636 341.36C61.5103 341.187 62.0236 340.9 62.5036 340.5L63.1036 341.9C62.6636 342.3 62.0969 342.613 61.4036 342.84C60.7103 343.067 60.0103 343.18 59.3036 343.18ZM59.0036 334.48C58.1636 334.48 57.4969 334.74 57.0036 335.26C56.5103 335.78 56.2103 336.473 56.1036 337.34H61.5636C61.5236 336.433 61.2836 335.733 60.8436 335.24C60.4036 334.733 59.7903 334.48 59.0036 334.48ZM64.1853 343L68.2453 337.96L64.4453 333.24H66.8053L69.4253 336.58L72.0453 333.24H74.4053L70.5853 337.98L74.6653 343H72.2653L69.4053 339.4L66.5653 343H64.1853ZM76.3833 343V333.24H78.2233V340.32L83.5033 333.24H85.2033V343H83.3633V335.94L78.0833 343H76.3833ZM88.2388 343V333.24H90.2588V337.18H95.1188V333.24H97.1388V343H95.1188V338.78H90.2588V343H88.2388ZM100.153 343V333.24H102.173V336.62H104.953C106.206 336.62 107.159 336.893 107.813 337.44C108.466 337.973 108.793 338.753 108.793 339.78C108.793 340.767 108.453 341.553 107.773 342.14C107.093 342.713 106.153 343 104.953 343H100.153ZM110.113 343V333.24H112.133V343H110.113ZM102.173 341.62H104.693C105.386 341.62 105.926 341.473 106.313 341.18C106.699 340.873 106.893 340.407 106.893 339.78C106.893 339.167 106.699 338.72 106.313 338.44C105.926 338.147 105.386 338 104.693 338H102.173V341.62ZM24.6 370.88C23.6933 369.4 23.0333 367.907 22.62 366.4C22.22 364.88 22.02 363.327 22.02 361.74C22.02 360.153 22.22 358.607 22.62 357.1C23.0333 355.58 23.6933 354.08 24.6 352.6L26.02 353.16C25.38 354.667 24.9133 356.107 24.62 357.48C24.3267 358.853 24.18 360.273 24.18 361.74C24.18 363.193 24.3267 364.613 24.62 366C24.9133 367.373 25.38 368.813 26.02 370.32L24.6 370.88ZM30.2788 367V358.86H26.8388V357.24H35.7588V358.86H32.2988V367H30.2788ZM37.3794 367V357.24H39.2194V364.32L44.4994 357.24H46.1994V367H44.3594V359.94L39.0794 367H37.3794ZM49.2348 367V357.24H58.0748V367H56.0548V358.86H51.2548V367H49.2348ZM71.9642 370.6V365.52C71.4576 366.627 70.5909 367.18 69.3642 367.18C68.6576 367.18 68.0309 366.973 67.4842 366.56C66.9509 366.147 66.5309 365.56 66.2242 364.8C65.9309 364.04 65.7842 363.147 65.7842 362.12C65.7842 361.08 65.9309 360.187 66.2242 359.44C66.5309 358.68 66.9509 358.093 67.4842 357.68C68.0309 357.267 68.6576 357.06 69.3642 357.06C69.9776 357.06 70.5042 357.207 70.9442 357.5C71.3842 357.793 71.7242 358.2 71.9642 358.72V352.9H73.9842V358.7C74.2242 358.18 74.5642 357.78 75.0042 357.5C75.4442 357.207 75.9642 357.06 76.5642 357.06C77.2709 357.06 77.8909 357.267 78.4242 357.68C78.9709 358.093 79.3909 358.68 79.6842 359.44C79.9909 360.187 80.1442 361.08 80.1442 362.12C80.1442 363.147 79.9909 364.04 79.6842 364.8C79.3909 365.56 78.9776 366.147 78.4442 366.56C77.9109 366.973 77.2842 367.18 76.5642 367.18C75.3642 367.18 74.5042 366.633 73.9842 365.54V370.6H71.9642ZM69.9042 365.64C70.5442 365.64 71.0509 365.347 71.4242 364.76C71.8109 364.173 72.0042 363.293 72.0042 362.12C72.0042 360.96 71.8109 360.087 71.4242 359.5C71.0509 358.913 70.5442 358.62 69.9042 358.62C69.2776 358.62 68.7709 358.913 68.3842 359.5C67.9976 360.087 67.8042 360.96 67.8042 362.12C67.8042 363.293 67.9909 364.173 68.3642 364.76C68.7509 365.347 69.2642 365.64 69.9042 365.64ZM76.0242 365.64C76.6642 365.64 77.1709 365.347 77.5442 364.76C77.9309 364.173 78.1242 363.293 78.1242 362.12C78.1242 360.96 77.9309 360.087 77.5442 359.5C77.1709 358.913 76.6642 358.62 76.0242 358.62C75.3842 358.62 74.8776 358.913 74.5042 359.5C74.1309 360.087 73.9442 360.96 73.9442 362.12C73.9442 363.293 74.1309 364.173 74.5042 364.76C74.8776 365.347 75.3842 365.64 76.0242 365.64ZM82.2133 367.26L81.5333 365.66C82.1199 365.42 82.5799 365.093 82.9133 364.68C83.2466 364.253 83.4866 363.667 83.6333 362.92C83.7799 362.16 83.8533 361.18 83.8533 359.98V357.24H91.2933V367H89.2733V358.86H85.7333V360.04C85.7333 361.507 85.6133 362.727 85.3733 363.7C85.1333 364.673 84.7533 365.447 84.2333 366.02C83.7266 366.58 83.0533 366.993 82.2133 367.26ZM97.4725 367.18C96.7925 367.18 96.1858 367.047 95.6525 366.78C95.1192 366.513 94.6925 366.153 94.3725 365.7C94.0658 365.247 93.9125 364.733 93.9125 364.16C93.9125 363.44 94.0925 362.873 94.4525 362.46C94.8258 362.047 95.4325 361.747 96.2725 361.56C97.1258 361.373 98.2725 361.28 99.7125 361.28H100.393V360.76C100.393 360 100.233 359.453 99.9125 359.12C99.5925 358.787 99.0658 358.62 98.3325 358.62C97.7725 358.62 97.2125 358.707 96.6525 358.88C96.0925 359.04 95.5192 359.3 94.9325 359.66L94.3125 358.24C94.8192 357.88 95.4525 357.593 96.2125 357.38C96.9725 357.167 97.6992 357.06 98.3925 357.06C99.7258 357.06 100.713 357.38 101.353 358.02C101.993 358.647 102.313 359.633 102.313 360.98V367H100.413V365.38C100.173 365.94 99.7992 366.38 99.2925 366.7C98.7858 367.02 98.1792 367.18 97.4725 367.18ZM97.8725 365.74C98.5925 365.74 99.1925 365.487 99.6725 364.98C100.153 364.473 100.393 363.833 100.393 363.06V362.52H99.7325C98.7592 362.52 97.9925 362.567 97.4325 362.66C96.8858 362.753 96.4925 362.913 96.2525 363.14C96.0258 363.353 95.9125 363.653 95.9125 364.04C95.9125 364.547 96.0858 364.96 96.4325 365.28C96.7792 365.587 97.2592 365.74 97.8725 365.74ZM105.309 367V357.24H110.289C111.489 357.24 112.362 357.467 112.909 357.92C113.469 358.36 113.749 358.987 113.749 359.8C113.749 360.307 113.602 360.753 113.309 361.14C113.029 361.513 112.642 361.787 112.149 361.96C112.762 362.107 113.236 362.387 113.569 362.8C113.902 363.213 114.069 363.707 114.069 364.28C114.069 365.12 113.756 365.787 113.129 366.28C112.502 366.76 111.609 367 110.449 367H105.309ZM107.209 361.38H110.149C110.696 361.38 111.116 361.253 111.409 361C111.716 360.747 111.869 360.4 111.869 359.96C111.869 359.507 111.716 359.16 111.409 358.92C111.116 358.68 110.696 358.56 110.149 358.56H107.209V361.38ZM107.209 365.7H110.329C111.582 365.7 112.209 365.193 112.209 364.18C112.209 363.18 111.582 362.68 110.329 362.68H107.209V365.7ZM120.682 367.18C119.696 367.18 118.842 366.973 118.122 366.56C117.402 366.147 116.842 365.567 116.442 364.82C116.056 364.06 115.862 363.16 115.862 362.12C115.862 361.08 116.056 360.187 116.442 359.44C116.842 358.68 117.402 358.093 118.122 357.68C118.842 357.267 119.696 357.06 120.682 357.06C121.642 357.06 122.482 357.267 123.202 357.68C123.922 358.093 124.482 358.68 124.882 359.44C125.282 360.187 125.482 361.08 125.482 362.12C125.482 363.16 125.282 364.06 124.882 364.82C124.482 365.567 123.922 366.147 123.202 366.56C122.482 366.973 121.642 367.18 120.682 367.18ZM120.682 365.62C121.509 365.62 122.176 365.32 122.682 364.72C123.189 364.12 123.442 363.253 123.442 362.12C123.442 360.987 123.189 360.127 122.682 359.54C122.176 358.94 121.509 358.64 120.682 358.64C119.842 358.64 119.169 358.94 118.662 359.54C118.156 360.127 117.902 360.987 117.902 362.12C117.902 363.253 118.156 364.12 118.662 364.72C119.169 365.32 119.842 365.62 120.682 365.62ZM127.965 367V357.24H129.985V361.18H134.845V357.24H136.865V367H134.845V362.78H129.985V367H127.965ZM144.139 367.18C143.153 367.18 142.299 366.973 141.579 366.56C140.859 366.147 140.299 365.567 139.899 364.82C139.513 364.06 139.319 363.16 139.319 362.12C139.319 361.08 139.513 360.187 139.899 359.44C140.299 358.68 140.859 358.093 141.579 357.68C142.299 357.267 143.153 357.06 144.139 357.06C145.099 357.06 145.939 357.267 146.659 357.68C147.379 358.093 147.939 358.68 148.339 359.44C148.739 360.187 148.939 361.08 148.939 362.12C148.939 363.16 148.739 364.06 148.339 364.82C147.939 365.567 147.379 366.147 146.659 366.56C145.939 366.973 145.099 367.18 144.139 367.18ZM144.139 365.62C144.966 365.62 145.633 365.32 146.139 364.72C146.646 364.12 146.899 363.253 146.899 362.12C146.899 360.987 146.646 360.127 146.139 359.54C145.633 358.94 144.966 358.64 144.139 358.64C143.299 358.64 142.626 358.94 142.119 359.54C141.613 360.127 141.359 360.987 141.359 362.12C141.359 363.253 141.613 364.12 142.119 364.72C142.626 365.32 143.299 365.62 144.139 365.62ZM151.422 367V357.24H153.262V364.32L158.542 357.24H160.242V367H158.402V359.94L153.122 367H151.422ZM162.278 369.6V365.4H163.358C163.784 364.76 164.091 364.02 164.278 363.18C164.464 362.327 164.558 361.293 164.558 360.08V357.24H171.778V365.4H173.338V369.6H171.618V367H164.018V369.6H162.278ZM165.238 365.4H169.858V358.82H166.318V360.5C166.318 361.42 166.224 362.313 166.038 363.18C165.851 364.047 165.584 364.787 165.238 365.4ZM179.608 367.18C178.621 367.18 177.768 366.973 177.048 366.56C176.328 366.147 175.768 365.567 175.368 364.82C174.981 364.06 174.788 363.16 174.788 362.12C174.788 361.08 174.981 360.187 175.368 359.44C175.768 358.68 176.328 358.093 177.048 357.68C177.768 357.267 178.621 357.06 179.608 357.06C180.568 357.06 181.408 357.267 182.128 357.68C182.848 358.093 183.408 358.68 183.808 359.44C184.208 360.187 184.408 361.08 184.408 362.12C184.408 363.16 184.208 364.06 183.808 364.82C183.408 365.567 182.848 366.147 182.128 366.56C181.408 366.973 180.568 367.18 179.608 367.18ZM179.608 365.62C180.435 365.62 181.101 365.32 181.608 364.72C182.115 364.12 182.368 363.253 182.368 362.12C182.368 360.987 182.115 360.127 181.608 359.54C181.101 358.94 180.435 358.64 179.608 358.64C178.768 358.64 178.095 358.94 177.588 359.54C177.081 360.127 176.828 360.987 176.828 362.12C176.828 363.253 177.081 364.12 177.588 364.72C178.095 365.32 178.768 365.62 179.608 365.62ZM186.891 367V357.24H191.871C193.071 357.24 193.944 357.467 194.491 357.92C195.051 358.36 195.331 358.987 195.331 359.8C195.331 360.307 195.184 360.753 194.891 361.14C194.611 361.513 194.224 361.787 193.731 361.96C194.344 362.107 194.818 362.387 195.151 362.8C195.484 363.213 195.651 363.707 195.651 364.28C195.651 365.12 195.338 365.787 194.711 366.28C194.084 366.76 193.191 367 192.031 367H186.891ZM188.791 361.38H191.731C192.278 361.38 192.698 361.253 192.991 361C193.298 360.747 193.451 360.4 193.451 359.96C193.451 359.507 193.298 359.16 192.991 358.92C192.698 358.68 192.278 358.56 191.731 358.56H188.791V361.38ZM188.791 365.7H191.911C193.164 365.7 193.791 365.193 193.791 364.18C193.791 363.18 193.164 362.68 191.911 362.68H188.791V365.7ZM198.604 370.88L197.184 370.32C197.811 368.787 198.271 367.333 198.564 365.96C198.858 364.587 199.004 363.18 199.004 361.74C199.004 360.3 198.858 358.893 198.564 357.52C198.271 356.147 197.811 354.693 197.184 353.16L198.604 352.6C199.511 354.093 200.164 355.6 200.564 357.12C200.978 358.627 201.184 360.167 201.184 361.74C201.184 363.327 200.978 364.88 200.564 366.4C200.164 367.907 199.511 369.4 198.604 370.88Z" fill="#414143"/>
<rect width="236" height="72" transform="translate(0 384)" fill="#F2F1EC"/>
<path d="M25.08 415V402.64H20.08V400.9H32.14V402.64H27.14V415H25.08ZM36.8036 415.18C35.2036 415.18 33.9436 414.733 33.0236 413.84C32.1036 412.933 31.6436 411.7 31.6436 410.14C31.6436 409.14 31.8436 408.26 32.2436 407.5C32.6569 406.727 33.2236 406.127 33.9436 405.7C34.6636 405.273 35.4903 405.06 36.4236 405.06C37.7703 405.06 38.8303 405.493 39.6036 406.36C40.3769 407.213 40.7636 408.393 40.7636 409.9V410.58H33.6036C33.7503 412.607 34.8236 413.62 36.8236 413.62C37.3836 413.62 37.9303 413.533 38.4636 413.36C39.0103 413.187 39.5236 412.9 40.0036 412.5L40.6036 413.9C40.1636 414.3 39.5969 414.613 38.9036 414.84C38.2103 415.067 37.5103 415.18 36.8036 415.18ZM36.5036 406.48C35.6636 406.48 34.9969 406.74 34.5036 407.26C34.0103 407.78 33.7103 408.473 33.6036 409.34H39.0636C39.0236 408.433 38.7836 407.733 38.3436 407.24C37.9036 406.733 37.2903 406.48 36.5036 406.48ZM46.3006 415.18C45.6206 415.18 45.014 415.047 44.4806 414.78C43.9473 414.513 43.5206 414.153 43.2006 413.7C42.894 413.247 42.7406 412.733 42.7406 412.16C42.7406 411.44 42.9206 410.873 43.2806 410.46C43.654 410.047 44.2606 409.747 45.1006 409.56C45.954 409.373 47.1006 409.28 48.5406 409.28H49.2206V408.76C49.2206 408 49.0606 407.453 48.7406 407.12C48.4206 406.787 47.894 406.62 47.1606 406.62C46.6006 406.62 46.0406 406.707 45.4806 406.88C44.9206 407.04 44.3473 407.3 43.7606 407.66L43.1406 406.24C43.6473 405.88 44.2806 405.593 45.0406 405.38C45.8006 405.167 46.5273 405.06 47.2206 405.06C48.554 405.06 49.5406 405.38 50.1806 406.02C50.8206 406.647 51.1406 407.633 51.1406 408.98V415H49.2406V413.38C49.0006 413.94 48.6273 414.38 48.1206 414.7C47.614 415.02 47.0073 415.18 46.3006 415.18ZM46.7006 413.74C47.4206 413.74 48.0206 413.487 48.5006 412.98C48.9806 412.473 49.2206 411.833 49.2206 411.06V410.52H48.5606C47.5873 410.52 46.8206 410.567 46.2606 410.66C45.714 410.753 45.3206 410.913 45.0806 411.14C44.854 411.353 44.7406 411.653 44.7406 412.04C44.7406 412.547 44.914 412.96 45.2606 413.28C45.6073 413.587 46.0873 413.74 46.7006 413.74ZM59.7572 418.6V413.52C59.2505 414.627 58.3839 415.18 57.1572 415.18C56.4505 415.18 55.8239 414.973 55.2772 414.56C54.7439 414.147 54.3239 413.56 54.0172 412.8C53.7239 412.04 53.5772 411.147 53.5772 410.12C53.5772 409.08 53.7239 408.187 54.0172 407.44C54.3239 406.68 54.7439 406.093 55.2772 405.68C55.8239 405.267 56.4505 405.06 57.1572 405.06C57.7705 405.06 58.2972 405.207 58.7372 405.5C59.1772 405.793 59.5172 406.2 59.7572 406.72V400.9H61.7772V406.7C62.0172 406.18 62.3572 405.78 62.7972 405.5C63.2372 405.207 63.7572 405.06 64.3572 405.06C65.0639 405.06 65.6839 405.267 66.2172 405.68C66.7639 406.093 67.1839 406.68 67.4772 407.44C67.7839 408.187 67.9372 409.08 67.9372 410.12C67.9372 411.147 67.7839 412.04 67.4772 412.8C67.1839 413.56 66.7705 414.147 66.2372 414.56C65.7039 414.973 65.0772 415.18 64.3572 415.18C63.1572 415.18 62.2972 414.633 61.7772 413.54V418.6H59.7572ZM57.6972 413.64C58.3372 413.64 58.8439 413.347 59.2172 412.76C59.6039 412.173 59.7972 411.293 59.7972 410.12C59.7972 408.96 59.6039 408.087 59.2172 407.5C58.8439 406.913 58.3372 406.62 57.6972 406.62C57.0705 406.62 56.5639 406.913 56.1772 407.5C55.7905 408.087 55.5972 408.96 55.5972 410.12C55.5972 411.293 55.7839 412.173 56.1572 412.76C56.5439 413.347 57.0572 413.64 57.6972 413.64ZM63.8172 413.64C64.4572 413.64 64.9639 413.347 65.3372 412.76C65.7239 412.173 65.9172 411.293 65.9172 410.12C65.9172 408.96 65.7239 408.087 65.3372 407.5C64.9639 406.913 64.4572 406.62 63.8172 406.62C63.1772 406.62 62.6705 406.913 62.2972 407.5C61.9239 408.087 61.7372 408.96 61.7372 410.12C61.7372 411.293 61.9239 412.173 62.2972 412.76C62.6705 413.347 63.1772 413.64 63.8172 413.64ZM70.0063 415.26L69.3263 413.66C69.9129 413.42 70.3729 413.093 70.7063 412.68C71.0396 412.253 71.2796 411.667 71.4263 410.92C71.5729 410.16 71.6463 409.18 71.6463 407.98V405.24H79.0863V415H77.0663V406.86H73.5263V408.04C73.5263 409.507 73.4063 410.727 73.1663 411.7C72.9263 412.673 72.5463 413.447 72.0263 414.02C71.5196 414.58 70.8463 414.993 70.0063 415.26ZM85.2655 415.18C84.5855 415.18 83.9788 415.047 83.4455 414.78C82.9121 414.513 82.4855 414.153 82.1655 413.7C81.8588 413.247 81.7055 412.733 81.7055 412.16C81.7055 411.44 81.8855 410.873 82.2455 410.46C82.6188 410.047 83.2255 409.747 84.0655 409.56C84.9188 409.373 86.0655 409.28 87.5055 409.28H88.1855V408.76C88.1855 408 88.0255 407.453 87.7055 407.12C87.3855 406.787 86.8588 406.62 86.1255 406.62C85.5655 406.62 85.0055 406.707 84.4455 406.88C83.8855 407.04 83.3121 407.3 82.7255 407.66L82.1055 406.24C82.6121 405.88 83.2455 405.593 84.0055 405.38C84.7655 405.167 85.4921 405.06 86.1855 405.06C87.5188 405.06 88.5055 405.38 89.1455 406.02C89.7855 406.647 90.1055 407.633 90.1055 408.98V415H88.2055V413.38C87.9655 413.94 87.5921 414.38 87.0855 414.7C86.5788 415.02 85.9721 415.18 85.2655 415.18ZM85.6655 413.74C86.3855 413.74 86.9855 413.487 87.4655 412.98C87.9455 412.473 88.1855 411.833 88.1855 411.06V410.52H87.5255C86.5521 410.52 85.7855 410.567 85.2255 410.66C84.6788 410.753 84.2855 410.913 84.0455 411.14C83.8188 411.353 83.7055 411.653 83.7055 412.04C83.7055 412.547 83.8788 412.96 84.2255 413.28C84.5721 413.587 85.0521 413.74 85.6655 413.74ZM93.102 415V405.24H98.082C99.282 405.24 100.155 405.467 100.702 405.92C101.262 406.36 101.542 406.987 101.542 407.8C101.542 408.307 101.395 408.753 101.102 409.14C100.822 409.513 100.435 409.787 99.942 409.96C100.555 410.107 101.029 410.387 101.362 410.8C101.695 411.213 101.862 411.707 101.862 412.28C101.862 413.12 101.549 413.787 100.922 414.28C100.295 414.76 99.402 415 98.242 415H93.102ZM95.002 409.38H97.942C98.4887 409.38 98.9087 409.253 99.202 409C99.5087 408.747 99.662 408.4 99.662 407.96C99.662 407.507 99.5087 407.16 99.202 406.92C98.9087 406.68 98.4887 406.56 97.942 406.56H95.002V409.38ZM95.002 413.7H98.122C99.3754 413.7 100.002 413.193 100.002 412.18C100.002 411.18 99.3754 410.68 98.122 410.68H95.002V413.7ZM104.215 415V405.24H106.055V412.32L111.335 405.24H113.035V415H111.195V407.94L105.915 415H104.215ZM116.071 415V405.24H118.091V409.18H122.951V405.24H124.971V415H122.951V410.78H118.091V415H116.071ZM127.985 415V405.24H130.005V408.62H132.785C134.038 408.62 134.992 408.893 135.645 409.44C136.298 409.973 136.625 410.753 136.625 411.78C136.625 412.767 136.285 413.553 135.605 414.14C134.925 414.713 133.985 415 132.785 415H127.985ZM137.945 415V405.24H139.965V415H137.945ZM130.005 413.62H132.525C133.218 413.62 133.758 413.473 134.145 413.18C134.532 412.873 134.725 412.407 134.725 411.78C134.725 411.167 134.532 410.72 134.145 410.44C133.758 410.147 133.218 410 132.525 410H130.005V413.62ZM24.6 442.88C23.6933 441.4 23.0333 439.907 22.62 438.4C22.22 436.88 22.02 435.327 22.02 433.74C22.02 432.153 22.22 430.607 22.62 429.1C23.0333 427.58 23.6933 426.08 24.6 424.6L26.02 425.16C25.38 426.667 24.9133 428.107 24.62 429.48C24.3267 430.853 24.18 432.273 24.18 433.74C24.18 435.193 24.3267 436.613 24.62 438C24.9133 439.373 25.38 440.813 26.02 442.32L24.6 442.88ZM30.2788 439V430.86H26.8388V429.24H35.7588V430.86H32.2988V439H30.2788ZM37.3794 439V429.24H39.2194V436.32L44.4994 429.24H46.1994V439H44.3594V431.94L39.0794 439H37.3794ZM49.2348 439V429.24H58.0748V439H56.0548V430.86H51.2548V439H49.2348ZM71.9642 442.6V437.52C71.4576 438.627 70.5909 439.18 69.3642 439.18C68.6576 439.18 68.0309 438.973 67.4842 438.56C66.9509 438.147 66.5309 437.56 66.2242 436.8C65.9309 436.04 65.7842 435.147 65.7842 434.12C65.7842 433.08 65.9309 432.187 66.2242 431.44C66.5309 430.68 66.9509 430.093 67.4842 429.68C68.0309 429.267 68.6576 429.06 69.3642 429.06C69.9776 429.06 70.5042 429.207 70.9442 429.5C71.3842 429.793 71.7242 430.2 71.9642 430.72V424.9H73.9842V430.7C74.2242 430.18 74.5642 429.78 75.0042 429.5C75.4442 429.207 75.9642 429.06 76.5642 429.06C77.2709 429.06 77.8909 429.267 78.4242 429.68C78.9709 430.093 79.3909 430.68 79.6842 431.44C79.9909 432.187 80.1442 433.08 80.1442 434.12C80.1442 435.147 79.9909 436.04 79.6842 436.8C79.3909 437.56 78.9776 438.147 78.4442 438.56C77.9109 438.973 77.2842 439.18 76.5642 439.18C75.3642 439.18 74.5042 438.633 73.9842 437.54V442.6H71.9642ZM69.9042 437.64C70.5442 437.64 71.0509 437.347 71.4242 436.76C71.8109 436.173 72.0042 435.293 72.0042 434.12C72.0042 432.96 71.8109 432.087 71.4242 431.5C71.0509 430.913 70.5442 430.62 69.9042 430.62C69.2776 430.62 68.7709 430.913 68.3842 431.5C67.9976 432.087 67.8042 432.96 67.8042 434.12C67.8042 435.293 67.9909 436.173 68.3642 436.76C68.7509 437.347 69.2642 437.64 69.9042 437.64ZM76.0242 437.64C76.6642 437.64 77.1709 437.347 77.5442 436.76C77.9309 436.173 78.1242 435.293 78.1242 434.12C78.1242 432.96 77.9309 432.087 77.5442 431.5C77.1709 430.913 76.6642 430.62 76.0242 430.62C75.3842 430.62 74.8776 430.913 74.5042 431.5C74.1309 432.087 73.9442 432.96 73.9442 434.12C73.9442 435.293 74.1309 436.173 74.5042 436.76C74.8776 437.347 75.3842 437.64 76.0242 437.64ZM82.2133 439.26L81.5333 437.66C82.1199 437.42 82.5799 437.093 82.9133 436.68C83.2466 436.253 83.4866 435.667 83.6333 434.92C83.7799 434.16 83.8533 433.18 83.8533 431.98V429.24H91.2933V439H89.2733V430.86H85.7333V432.04C85.7333 433.507 85.6133 434.727 85.3733 435.7C85.1333 436.673 84.7533 437.447 84.2333 438.02C83.7266 438.58 83.0533 438.993 82.2133 439.26ZM97.4725 439.18C96.7925 439.18 96.1858 439.047 95.6525 438.78C95.1192 438.513 94.6925 438.153 94.3725 437.7C94.0658 437.247 93.9125 436.733 93.9125 436.16C93.9125 435.44 94.0925 434.873 94.4525 434.46C94.8258 434.047 95.4325 433.747 96.2725 433.56C97.1258 433.373 98.2725 433.28 99.7125 433.28H100.393V432.76C100.393 432 100.233 431.453 99.9125 431.12C99.5925 430.787 99.0658 430.62 98.3325 430.62C97.7725 430.62 97.2125 430.707 96.6525 430.88C96.0925 431.04 95.5192 431.3 94.9325 431.66L94.3125 430.24C94.8192 429.88 95.4525 429.593 96.2125 429.38C96.9725 429.167 97.6992 429.06 98.3925 429.06C99.7258 429.06 100.713 429.38 101.353 430.02C101.993 430.647 102.313 431.633 102.313 432.98V439H100.413V437.38C100.173 437.94 99.7992 438.38 99.2925 438.7C98.7858 439.02 98.1792 439.18 97.4725 439.18ZM97.8725 437.74C98.5925 437.74 99.1925 437.487 99.6725 436.98C100.153 436.473 100.393 435.833 100.393 435.06V434.52H99.7325C98.7592 434.52 97.9925 434.567 97.4325 434.66C96.8858 434.753 96.4925 434.913 96.2525 435.14C96.0258 435.353 95.9125 435.653 95.9125 436.04C95.9125 436.547 96.0858 436.96 96.4325 437.28C96.7792 437.587 97.2592 437.74 97.8725 437.74ZM105.309 439V429.24H110.289C111.489 429.24 112.362 429.467 112.909 429.92C113.469 430.36 113.749 430.987 113.749 431.8C113.749 432.307 113.602 432.753 113.309 433.14C113.029 433.513 112.642 433.787 112.149 433.96C112.762 434.107 113.236 434.387 113.569 434.8C113.902 435.213 114.069 435.707 114.069 436.28C114.069 437.12 113.756 437.787 113.129 438.28C112.502 438.76 111.609 439 110.449 439H105.309ZM107.209 433.38H110.149C110.696 433.38 111.116 433.253 111.409 433C111.716 432.747 111.869 432.4 111.869 431.96C111.869 431.507 111.716 431.16 111.409 430.92C111.116 430.68 110.696 430.56 110.149 430.56H107.209V433.38ZM107.209 437.7H110.329C111.582 437.7 112.209 437.193 112.209 436.18C112.209 435.18 111.582 434.68 110.329 434.68H107.209V437.7ZM120.682 439.18C119.696 439.18 118.842 438.973 118.122 438.56C117.402 438.147 116.842 437.567 116.442 436.82C116.056 436.06 115.862 435.16 115.862 434.12C115.862 433.08 116.056 432.187 116.442 431.44C116.842 430.68 117.402 430.093 118.122 429.68C118.842 429.267 119.696 429.06 120.682 429.06C121.642 429.06 122.482 429.267 123.202 429.68C123.922 430.093 124.482 430.68 124.882 431.44C125.282 432.187 125.482 433.08 125.482 434.12C125.482 435.16 125.282 436.06 124.882 436.82C124.482 437.567 123.922 438.147 123.202 438.56C122.482 438.973 121.642 439.18 120.682 439.18ZM120.682 437.62C121.509 437.62 122.176 437.32 122.682 436.72C123.189 436.12 123.442 435.253 123.442 434.12C123.442 432.987 123.189 432.127 122.682 431.54C122.176 430.94 121.509 430.64 120.682 430.64C119.842 430.64 119.169 430.94 118.662 431.54C118.156 432.127 117.902 432.987 117.902 434.12C117.902 435.253 118.156 436.12 118.662 436.72C119.169 437.32 119.842 437.62 120.682 437.62ZM127.965 439V429.24H129.985V433.18H134.845V429.24H136.865V439H134.845V434.78H129.985V439H127.965ZM144.139 439.18C143.153 439.18 142.299 438.973 141.579 438.56C140.859 438.147 140.299 437.567 139.899 436.82C139.513 436.06 139.319 435.16 139.319 434.12C139.319 433.08 139.513 432.187 139.899 431.44C140.299 430.68 140.859 430.093 141.579 429.68C142.299 429.267 143.153 429.06 144.139 429.06C145.099 429.06 145.939 429.267 146.659 429.68C147.379 430.093 147.939 430.68 148.339 431.44C148.739 432.187 148.939 433.08 148.939 434.12C148.939 435.16 148.739 436.06 148.339 436.82C147.939 437.567 147.379 438.147 146.659 438.56C145.939 438.973 145.099 439.18 144.139 439.18ZM144.139 437.62C144.966 437.62 145.633 437.32 146.139 436.72C146.646 436.12 146.899 435.253 146.899 434.12C146.899 432.987 146.646 432.127 146.139 431.54C145.633 430.94 144.966 430.64 144.139 430.64C143.299 430.64 142.626 430.94 142.119 431.54C141.613 432.127 141.359 432.987 141.359 434.12C141.359 435.253 141.613 436.12 142.119 436.72C142.626 437.32 143.299 437.62 144.139 437.62ZM151.422 439V429.24H153.262V436.32L158.542 429.24H160.242V439H158.402V431.94L153.122 439H151.422ZM162.278 441.6V437.4H163.358C163.784 436.76 164.091 436.02 164.278 435.18C164.464 434.327 164.558 433.293 164.558 432.08V429.24H171.778V437.4H173.338V441.6H171.618V439H164.018V441.6H162.278ZM165.238 437.4H169.858V430.82H166.318V432.5C166.318 433.42 166.224 434.313 166.038 435.18C165.851 436.047 165.584 436.787 165.238 437.4ZM179.608 439.18C178.621 439.18 177.768 438.973 177.048 438.56C176.328 438.147 175.768 437.567 175.368 436.82C174.981 436.06 174.788 435.16 174.788 434.12C174.788 433.08 174.981 432.187 175.368 431.44C175.768 430.68 176.328 430.093 177.048 429.68C177.768 429.267 178.621 429.06 179.608 429.06C180.568 429.06 181.408 429.267 182.128 429.68C182.848 430.093 183.408 430.68 183.808 431.44C184.208 432.187 184.408 433.08 184.408 434.12C184.408 435.16 184.208 436.06 183.808 436.82C183.408 437.567 182.848 438.147 182.128 438.56C181.408 438.973 180.568 439.18 179.608 439.18ZM179.608 437.62C180.435 437.62 181.101 437.32 181.608 436.72C182.115 436.12 182.368 435.253 182.368 434.12C182.368 432.987 182.115 432.127 181.608 431.54C181.101 430.94 180.435 430.64 179.608 430.64C178.768 430.64 178.095 430.94 177.588 431.54C177.081 432.127 176.828 432.987 176.828 434.12C176.828 435.253 177.081 436.12 177.588 436.72C178.095 437.32 178.768 437.62 179.608 437.62ZM186.891 439V429.24H191.871C193.071 429.24 193.944 429.467 194.491 429.92C195.051 430.36 195.331 430.987 195.331 431.8C195.331 432.307 195.184 432.753 194.891 433.14C194.611 433.513 194.224 433.787 193.731 433.96C194.344 434.107 194.818 434.387 195.151 434.8C195.484 435.213 195.651 435.707 195.651 436.28C195.651 437.12 195.338 437.787 194.711 438.28C194.084 438.76 193.191 439 192.031 439H186.891ZM188.791 433.38H191.731C192.278 433.38 192.698 433.253 192.991 433C193.298 432.747 193.451 432.4 193.451 431.96C193.451 431.507 193.298 431.16 192.991 430.92C192.698 430.68 192.278 430.56 191.731 430.56H188.791V433.38ZM188.791 437.7H191.911C193.164 437.7 193.791 437.193 193.791 436.18C193.791 435.18 193.164 434.68 191.911 434.68H188.791V437.7ZM198.604 442.88L197.184 442.32C197.811 440.787 198.271 439.333 198.564 437.96C198.858 436.587 199.004 435.18 199.004 433.74C199.004 432.3 198.858 430.893 198.564 429.52C198.271 428.147 197.811 426.693 197.184 425.16L198.604 424.6C199.511 426.093 200.164 427.6 200.564 429.12C200.978 430.627 201.184 432.167 201.184 433.74C201.184 435.327 200.978 436.88 200.564 438.4C200.164 439.907 199.511 441.4 198.604 442.88Z" fill="#414143"/>
<rect width="236" height="48" transform="translate(0 456)" fill="#F2F1EC"/>
<path d="M25.08 487V474.64H20.08V472.9H32.14V474.64H27.14V487H25.08ZM35.3436 487.18C34.6636 487.18 34.0569 487.047 33.5236 486.78C32.9903 486.513 32.5636 486.153 32.2436 485.7C31.9369 485.247 31.7836 484.733 31.7836 484.16C31.7836 483.44 31.9636 482.873 32.3236 482.46C32.6969 482.047 33.3036 481.747 34.1436 481.56C34.9969 481.373 36.1436 481.28 37.5836 481.28H38.2636V480.76C38.2636 480 38.1036 479.453 37.7836 479.12C37.4636 478.787 36.9369 478.62 36.2036 478.62C35.6436 478.62 35.0836 478.707 34.5236 478.88C33.9636 479.04 33.3903 479.3 32.8036 479.66L32.1836 478.24C32.6903 477.88 33.3236 477.593 34.0836 477.38C34.8436 477.167 35.5703 477.06 36.2636 477.06C37.5969 477.06 38.5836 477.38 39.2236 478.02C39.8636 478.647 40.1836 479.633 40.1836 480.98V487H38.2836V485.38C38.0436 485.94 37.6703 486.38 37.1636 486.7C36.6569 487.02 36.0503 487.18 35.3436 487.18ZM35.7436 485.74C36.4636 485.74 37.0636 485.487 37.5436 484.98C38.0236 484.473 38.2636 483.833 38.2636 483.06V482.52H37.6036C36.6303 482.52 35.8636 482.567 35.3036 482.66C34.7569 482.753 34.3636 482.913 34.1236 483.14C33.8969 483.353 33.7836 483.653 33.7836 484.04C33.7836 484.547 33.9569 484.96 34.3036 485.28C34.6503 485.587 35.1303 485.74 35.7436 485.74ZM43.1802 487V477.24H45.2002V481.18H50.0602V477.24H52.0802V487H50.0602V482.78H45.2002V487H43.1802ZM55.0942 487V477.24H56.9342V484.32L62.2142 477.24H63.9142V487H62.0742V479.94L56.7942 487H55.0942ZM66.9497 487V477.24H68.9697V481.18H73.8297V477.24H75.8497V487H73.8297V482.78H68.9697V487H66.9497ZM78.8638 487V477.24H80.8838V480.62H83.6638C84.9171 480.62 85.8704 480.893 86.5238 481.44C87.1771 481.973 87.5038 482.753 87.5038 483.78C87.5038 484.767 87.1638 485.553 86.4838 486.14C85.8038 486.713 84.8638 487 83.6638 487H78.8638ZM88.8238 487V477.24H90.8438V487H88.8238ZM80.8838 485.62H83.4038C84.0971 485.62 84.6371 485.473 85.0238 485.18C85.4104 484.873 85.6038 484.407 85.6038 483.78C85.6038 483.167 85.4104 482.72 85.0238 482.44C84.6371 482.147 84.0971 482 83.4038 482H80.8838V485.62Z" fill="#414143"/>
<rect width="236" height="48" transform="translate(0 504)" fill="#F2F1EC"/>
<path d="M21.64 535V520.9H23.72V527.04H25.98L29.94 520.9H32.24L27.94 527.38C28.5 527.593 28.9933 527.927 29.42 528.38C29.8467 528.82 30.2267 529.373 30.56 530.04L32.98 535H30.74L28.82 530.9C28.46 530.14 28.04 529.6 27.56 529.28C27.08 528.947 26.4867 528.78 25.78 528.78H23.72V535H21.64ZM38.7683 535.18C37.7816 535.18 36.9283 534.973 36.2083 534.56C35.4883 534.147 34.9283 533.567 34.5283 532.82C34.1416 532.06 33.9483 531.16 33.9483 530.12C33.9483 529.08 34.1416 528.187 34.5283 527.44C34.9283 526.68 35.4883 526.093 36.2083 525.68C36.9283 525.267 37.7816 525.06 38.7683 525.06C39.7283 525.06 40.5683 525.267 41.2883 525.68C42.0083 526.093 42.5683 526.68 42.9683 527.44C43.3683 528.187 43.5683 529.08 43.5683 530.12C43.5683 531.16 43.3683 532.06 42.9683 532.82C42.5683 533.567 42.0083 534.147 41.2883 534.56C40.5683 534.973 39.7283 535.18 38.7683 535.18ZM38.7683 533.62C39.5949 533.62 40.2616 533.32 40.7683 532.72C41.2749 532.12 41.5283 531.253 41.5283 530.12C41.5283 528.987 41.2749 528.127 40.7683 527.54C40.2616 526.94 39.5949 526.64 38.7683 526.64C37.9283 526.64 37.2549 526.94 36.7483 527.54C36.2416 528.127 35.9883 528.987 35.9883 530.12C35.9883 531.253 36.2416 532.12 36.7483 532.72C37.2549 533.32 37.9283 533.62 38.7683 533.62ZM51.6713 538.6V533.52C51.1646 534.627 50.2979 535.18 49.0713 535.18C48.3646 535.18 47.7379 534.973 47.1913 534.56C46.6579 534.147 46.2379 533.56 45.9313 532.8C45.6379 532.04 45.4913 531.147 45.4913 530.12C45.4913 529.08 45.6379 528.187 45.9313 527.44C46.2379 526.68 46.6579 526.093 47.1913 525.68C47.7379 525.267 48.3646 525.06 49.0713 525.06C49.6846 525.06 50.2113 525.207 50.6513 525.5C51.0913 525.793 51.4313 526.2 51.6713 526.72V520.9H53.6913V526.7C53.9313 526.18 54.2713 525.78 54.7113 525.5C55.1513 525.207 55.6713 525.06 56.2713 525.06C56.9779 525.06 57.5979 525.267 58.1313 525.68C58.6779 526.093 59.0979 526.68 59.3913 527.44C59.6979 528.187 59.8513 529.08 59.8513 530.12C59.8513 531.147 59.6979 532.04 59.3913 532.8C59.0979 533.56 58.6846 534.147 58.1513 534.56C57.6179 534.973 56.9913 535.18 56.2713 535.18C55.0713 535.18 54.2113 534.633 53.6913 533.54V538.6H51.6713ZM49.6113 533.64C50.2513 533.64 50.7579 533.347 51.1313 532.76C51.5179 532.173 51.7113 531.293 51.7113 530.12C51.7113 528.96 51.5179 528.087 51.1313 527.5C50.7579 526.913 50.2513 526.62 49.6113 526.62C48.9846 526.62 48.4779 526.913 48.0913 527.5C47.7046 528.087 47.5113 528.96 47.5113 530.12C47.5113 531.293 47.6979 532.173 48.0713 532.76C48.4579 533.347 48.9713 533.64 49.6113 533.64ZM55.7313 533.64C56.3713 533.64 56.8779 533.347 57.2513 532.76C57.6379 532.173 57.8313 531.293 57.8313 530.12C57.8313 528.96 57.6379 528.087 57.2513 527.5C56.8779 526.913 56.3713 526.62 55.7313 526.62C55.0913 526.62 54.5846 526.913 54.2113 527.5C53.8379 528.087 53.6513 528.96 53.6513 530.12C53.6513 531.293 53.8379 532.173 54.2113 532.76C54.5846 533.347 55.0913 533.64 55.7313 533.64ZM66.9403 535.18C65.3403 535.18 64.0803 534.733 63.1603 533.84C62.2403 532.933 61.7803 531.7 61.7803 530.14C61.7803 529.14 61.9803 528.26 62.3803 527.5C62.7936 526.727 63.3603 526.127 64.0803 525.7C64.8003 525.273 65.627 525.06 66.5603 525.06C67.907 525.06 68.967 525.493 69.7403 526.36C70.5136 527.213 70.9003 528.393 70.9003 529.9V530.58H63.7403C63.887 532.607 64.9603 533.62 66.9603 533.62C67.5203 533.62 68.067 533.533 68.6003 533.36C69.147 533.187 69.6603 532.9 70.1403 532.5L70.7403 533.9C70.3003 534.3 69.7336 534.613 69.0403 534.84C68.347 535.067 67.647 535.18 66.9403 535.18ZM66.6403 526.48C65.8003 526.48 65.1336 526.74 64.6403 527.26C64.147 527.78 63.847 528.473 63.7403 529.34H69.2003C69.1603 528.433 68.9203 527.733 68.4803 527.24C68.0403 526.733 67.427 526.48 66.6403 526.48ZM73.2973 535V525.24H75.1373V532.32L80.4173 525.24H82.1173V535H80.2773V527.94L74.9973 535H73.2973ZM85.1528 535V525.24H87.1728V529.18H92.0328V525.24H94.0528V535H92.0328V530.78H87.1728V535H85.1528Z" fill="#414143"/>
<rect width="148" height="48" transform="translate(236)" fill="#812D9C"/>
<path d="M266.072 14.856C266.995 15.0053 267.701 15.304 268.192 15.752C268.688 16.2 268.936 16.792 268.936 17.528C268.936 18.264 268.693 18.9147 268.208 19.48C267.728 20.04 267.024 20.4773 266.096 20.792C265.173 21.1067 264.067 21.264 262.776 21.264C261.507 21.264 260.395 21.088 259.44 20.736C258.485 20.384 257.741 19.8827 257.208 19.232C256.675 18.576 256.389 17.8107 256.352 16.936H259.68C259.76 17.512 260.061 17.952 260.584 18.256C261.107 18.56 261.837 18.712 262.776 18.712C263.667 18.712 264.349 18.592 264.824 18.352C265.299 18.1067 265.536 17.7467 265.536 17.272C265.536 16.856 265.328 16.552 264.912 16.36C264.501 16.168 263.832 16.072 262.904 16.072H260.704V13.888H262.856C263.651 13.888 264.248 13.776 264.648 13.552C265.053 13.328 265.256 13.0187 265.256 12.624C265.256 12.1973 265.037 11.8693 264.6 11.64C264.168 11.4053 263.563 11.288 262.784 11.288C261.925 11.288 261.251 11.4347 260.76 11.728C260.269 12.0213 259.981 12.44 259.896 12.984H256.6C256.653 12.1893 256.933 11.472 257.44 10.832C257.947 10.1867 258.669 9.67733 259.608 9.304C260.547 8.92533 261.656 8.736 262.936 8.736C264.067 8.736 265.064 8.87733 265.928 9.16C266.792 9.44267 267.459 9.84 267.928 10.352C268.403 10.864 268.64 11.4533 268.64 12.12C268.64 12.76 268.427 13.3227 268 13.808C267.579 14.2933 266.936 14.6427 266.072 14.856ZM274.211 16.208L273.875 18.312H281.475V21H270.315L271.227 15L270.315 9H281.395V11.688H273.875L274.211 13.792H280.931V16.208H274.211ZM297.107 9V21H293.787V11.936H288.691C288.771 12.8373 288.811 13.7547 288.811 14.688C288.811 16.2347 288.669 17.488 288.387 18.448C288.109 19.408 287.675 20.1147 287.083 20.568C286.491 21.0213 285.717 21.248 284.763 21.248C284.347 21.248 283.936 21.2027 283.531 21.112C283.131 21.0213 282.768 20.8933 282.443 20.728V17.976C282.907 18.1573 283.339 18.248 283.739 18.248C284.203 18.248 284.576 18.112 284.859 17.84C285.141 17.5627 285.349 17.1307 285.483 16.544C285.616 15.952 285.683 15.176 285.683 14.216C285.683 12.824 285.568 11.0853 285.339 9H297.107ZM302.867 16.208L302.531 18.312H310.131V21H298.971L299.883 15L298.971 9H310.051V11.688H302.531L302.867 13.792H309.587V16.208H302.867ZM302.139 8.12C301.6 8.12 301.168 7.984 300.843 7.712C300.523 7.44 300.363 7.06667 300.363 6.592C300.363 6.13333 300.523 5.77333 300.843 5.512C301.168 5.24533 301.6 5.112 302.139 5.112C302.677 5.112 303.107 5.24533 303.427 5.512C303.752 5.77333 303.915 6.13333 303.915 6.592C303.915 7.06667 303.752 7.44 303.427 7.712C303.107 7.984 302.677 8.12 302.139 8.12ZM307.099 8.12C306.56 8.12 306.128 7.984 305.803 7.712C305.483 7.44 305.323 7.06667 305.323 6.592C305.323 6.13333 305.483 5.77333 305.803 5.512C306.128 5.24533 306.56 5.112 307.099 5.112C307.637 5.112 308.067 5.24533 308.387 5.512C308.712 5.77333 308.875 6.13333 308.875 6.592C308.875 7.06667 308.712 7.44 308.387 7.712C308.067 7.984 307.637 8.12 307.099 8.12ZM321.49 13.44V9H324.81V21H321.49V16.368H315.354V21H312.034V9H315.354V13.44H321.49ZM333.746 12.72C334.749 12.72 335.615 12.8907 336.346 13.232C337.082 13.5733 337.645 14.056 338.034 14.68C338.423 15.304 338.618 16.032 338.618 16.864C338.618 17.696 338.423 18.424 338.034 19.048C337.645 19.6667 337.082 20.1467 336.346 20.488C335.615 20.8293 334.749 21 333.746 21H327.034V9H330.354V12.72H333.746ZM333.546 18.384C334.085 18.384 334.506 18.2507 334.81 17.984C335.114 17.712 335.266 17.3387 335.266 16.864C335.266 16.3893 335.114 16.016 334.81 15.744C334.506 15.472 334.085 15.336 333.546 15.336H330.354V18.384H333.546ZM339.61 21V9H342.93V21H339.61ZM348.439 17.696L354.319 9H358.655V21H355.375V12.128L349.375 21H345.159V9H348.439V17.696ZM350.375 5.352C350.631 6.04533 351.132 6.392 351.879 6.392C352.615 6.392 353.116 6.04533 353.383 5.352H355.991C355.756 6.33333 355.282 7.06133 354.567 7.536C353.858 8.00533 352.962 8.24 351.879 8.24C350.796 8.24 349.898 8.00533 349.183 7.536C348.468 7.06133 347.994 6.33333 347.759 5.352H350.375ZM265.744 28H269.072V40H265.744V35.672C265.179 35.9013 264.571 36.0773 263.92 36.2C263.269 36.3227 262.608 36.384 261.936 36.384C260.224 36.384 258.917 35.9413 258.016 35.056C257.115 34.1653 256.664 32.8747 256.664 31.184V28H259.984V30.912C259.984 32.6133 260.901 33.464 262.736 33.464C263.664 33.464 264.667 33.2773 265.744 32.904V28ZM285.484 40H281.948L280.948 37.688H274.748L273.748 40H270.204L275.668 28H280.028L285.484 40ZM277.844 30.528L275.9 35.024H279.796L277.844 30.528ZM289.892 36.696L295.772 28H300.108V40H296.828V31.128L290.828 40H286.612V28H289.892V36.696ZM291.828 24.352C292.084 25.0453 292.585 25.392 293.332 25.392C294.068 25.392 294.569 25.0453 294.836 24.352H297.444C297.209 25.3333 296.735 26.0613 296.02 26.536C295.311 27.0053 294.415 27.24 293.332 27.24C292.249 27.24 291.351 27.0053 290.636 26.536C289.921 26.0613 289.447 25.3333 289.212 24.352H291.828ZM311.092 28C310.42 29.216 309.921 30.3893 309.596 31.52C309.271 32.6453 309.108 33.7653 309.108 34.88C309.108 35.9787 309.271 37.0907 309.596 38.216C309.921 39.336 310.42 40.5173 311.092 41.76H308.556C307.607 40.6613 306.897 39.5493 306.428 38.424C305.964 37.2933 305.732 36.112 305.732 34.88C305.732 33.648 305.964 32.4693 306.428 31.344C306.897 30.2133 307.607 29.0987 308.556 28H311.092ZM316.038 35.032C315.201 35.032 314.462 34.8827 313.822 34.584C313.182 34.28 312.683 33.856 312.326 33.312C311.974 32.768 311.798 32.1413 311.798 31.432C311.798 30.7227 311.974 30.0987 312.326 29.56C312.683 29.016 313.182 28.5947 313.822 28.296C314.462 27.992 315.201 27.84 316.038 27.84C316.87 27.84 317.606 27.992 318.246 28.296C318.891 28.5947 319.39 29.016 319.742 29.56C320.099 30.0987 320.278 30.7227 320.278 31.432C320.278 32.1413 320.099 32.768 319.742 33.312C319.39 33.856 318.891 34.28 318.246 34.584C317.606 34.8827 316.87 35.032 316.038 35.032ZM317.31 40L323.846 28H326.238L319.702 40H317.31ZM316.038 33.136C316.566 33.136 316.979 32.9867 317.278 32.688C317.577 32.384 317.726 31.9653 317.726 31.432C317.726 30.8987 317.577 30.48 317.278 30.176C316.979 29.872 316.566 29.72 316.038 29.72C315.51 29.72 315.097 29.872 314.798 30.176C314.505 30.48 314.358 30.8987 314.358 31.432C314.358 31.9653 314.505 32.384 314.798 32.688C315.097 32.9867 315.51 33.136 316.038 33.136ZM327.502 40.272C326.67 40.272 325.931 40.1227 325.286 39.824C324.646 39.52 324.147 39.096 323.79 38.552C323.438 38.008 323.262 37.3813 323.262 36.672C323.262 35.9627 323.438 35.3387 323.79 34.8C324.147 34.256 324.646 33.8347 325.286 33.536C325.931 33.232 326.67 33.08 327.502 33.08C328.334 33.08 329.07 33.232 329.71 33.536C330.355 33.8347 330.854 34.256 331.206 34.8C331.563 35.3387 331.742 35.9627 331.742 36.672C331.742 37.3813 331.563 38.008 331.206 38.552C330.854 39.096 330.355 39.52 329.71 39.824C329.07 40.1227 328.334 40.272 327.502 40.272ZM327.502 38.376C328.03 38.376 328.443 38.2267 328.742 37.928C329.041 37.624 329.19 37.2053 329.19 36.672C329.19 36.1387 329.041 35.72 328.742 35.416C328.443 35.112 328.03 34.96 327.502 34.96C326.974 34.96 326.561 35.112 326.262 35.416C325.969 35.72 325.822 36.1387 325.822 36.672C325.822 37.2053 325.969 37.624 326.262 37.928C326.561 38.2267 326.974 38.376 327.502 38.376ZM334.989 28C335.938 29.0987 336.645 30.2107 337.109 31.336C337.573 32.4613 337.805 33.6427 337.805 34.88C337.805 36.1173 337.573 37.2987 337.109 38.424C336.645 39.5493 335.938 40.6613 334.989 41.76H332.445C333.122 40.5173 333.624 39.336 333.949 38.216C334.274 37.0907 334.437 35.9787 334.437 34.88C334.437 33.7653 334.274 32.6453 333.949 31.52C333.624 30.3893 333.122 29.216 332.445 28H334.989Z" fill="white"/>
<rect width="148" height="48" transform="translate(236 48)" fill="#F2F1EC"/>
<path d="M258.34 79V77.26H261.54V67.3L259.04 68.86L258.2 67.32L262.14 64.9H263.6V77.26H266.6V79H258.34ZM274.212 79.18C273.306 79.18 272.426 79.04 271.572 78.76C270.732 78.4667 270.032 78.06 269.472 77.54L270.172 75.94C271.399 76.9267 272.732 77.42 274.172 77.42C275.092 77.42 275.812 77.1733 276.332 76.68C276.852 76.1733 277.112 75.5133 277.112 74.7C277.112 73.86 276.866 73.1733 276.372 72.64C275.879 72.1067 275.192 71.84 274.312 71.84C273.072 71.84 272.079 72.3533 271.332 73.38H269.892V64.9H278.292V66.64H271.912V71.1C272.659 70.4467 273.606 70.12 274.752 70.12C275.646 70.12 276.419 70.3067 277.072 70.68C277.726 71.0533 278.232 71.58 278.592 72.26C278.952 72.9267 279.132 73.7067 279.132 74.6C279.132 75.5067 278.932 76.3067 278.532 77C278.132 77.68 277.566 78.2133 276.832 78.6C276.099 78.9867 275.226 79.18 274.212 79.18Z" fill="#414143"/>
<rect width="148" height="48" transform="translate(236 96)" fill="#F2F1EC"/>
<path d="M263.28 127V124.14H256.94V122.6L263.64 112.9H265.34V122.4H267.4V124.14H265.34V127H263.28ZM263.28 122.4V116.14L259 122.4H263.28Z" fill="#414143"/>
<rect width="148" height="48" transform="translate(236 144)" fill="#F2F1EC"/>
<path d="M258 175L264.46 162.64H257.24V160.9H266.78V162.44L260.28 175H258Z" fill="#414143"/>
<rect width="148" height="48" transform="translate(236 192)" fill="#F2F1EC"/>
<path d="M262.22 223.18C261.313 223.18 260.433 223.04 259.58 222.76C258.74 222.467 258.04 222.06 257.48 221.54L258.18 219.94C259.407 220.927 260.74 221.42 262.18 221.42C263.1 221.42 263.82 221.173 264.34 220.68C264.86 220.173 265.12 219.513 265.12 218.7C265.12 217.86 264.873 217.173 264.38 216.64C263.887 216.107 263.2 215.84 262.32 215.84C261.08 215.84 260.087 216.353 259.34 217.38H257.9V208.9H266.3V210.64H259.92V215.1C260.667 214.447 261.613 214.12 262.76 214.12C263.653 214.12 264.427 214.307 265.08 214.68C265.733 215.053 266.24 215.58 266.6 216.26C266.96 216.927 267.14 217.707 267.14 218.6C267.14 219.507 266.94 220.307 266.54 221C266.14 221.68 265.573 222.213 264.84 222.6C264.107 222.987 263.233 223.18 262.22 223.18Z" fill="#414143"/>
<rect width="148" height="72" transform="translate(236 240)" fill="#F2F1EC"/>
<path d="M258.34 283V281.26H261.54V271.3L259.04 272.86L258.2 271.32L262.14 268.9H263.6V281.26H266.6V283H258.34ZM274.212 283.18C273.306 283.18 272.426 283.04 271.572 282.76C270.732 282.467 270.032 282.06 269.472 281.54L270.172 279.94C271.399 280.927 272.732 281.42 274.172 281.42C275.092 281.42 275.812 281.173 276.332 280.68C276.852 280.173 277.112 279.513 277.112 278.7C277.112 277.86 276.866 277.173 276.372 276.64C275.879 276.107 275.192 275.84 274.312 275.84C273.072 275.84 272.079 276.353 271.332 277.38H269.892V268.9H278.292V270.64H271.912V275.1C272.659 274.447 273.606 274.12 274.752 274.12C275.646 274.12 276.419 274.307 277.072 274.68C277.726 275.053 278.232 275.58 278.592 276.26C278.952 276.927 279.132 277.707 279.132 278.6C279.132 279.507 278.932 280.307 278.532 281C278.132 281.68 277.566 282.213 276.832 282.6C276.099 282.987 275.226 283.18 274.212 283.18ZM279.984 278.3V277.04H289.984V278.3H279.984ZM291.684 283V281.46L296.384 276.42C297.038 275.713 297.504 275.073 297.784 274.5C298.078 273.927 298.224 273.347 298.224 272.76C298.224 271.24 297.331 270.48 295.544 270.48C294.184 270.48 292.964 270.993 291.884 272.02L291.144 270.44C291.678 269.92 292.358 269.507 293.184 269.2C294.011 268.88 294.871 268.72 295.764 268.72C297.218 268.72 298.331 269.053 299.104 269.72C299.891 270.387 300.284 271.34 300.284 272.58C300.284 273.42 300.078 274.24 299.664 275.04C299.264 275.84 298.631 276.693 297.764 277.6L294.284 281.26H300.844V283H291.684ZM308.197 283.18C307.29 283.18 306.41 283.04 305.557 282.76C304.717 282.467 304.017 282.06 303.457 281.54L304.157 279.94C305.383 280.927 306.717 281.42 308.157 281.42C309.077 281.42 309.797 281.173 310.317 280.68C310.837 280.173 311.097 279.513 311.097 278.7C311.097 277.86 310.85 277.173 310.357 276.64C309.863 276.107 309.177 275.84 308.297 275.84C307.057 275.84 306.063 276.353 305.317 277.38H303.877V268.9H312.277V270.64H305.897V275.1C306.643 274.447 307.59 274.12 308.737 274.12C309.63 274.12 310.403 274.307 311.057 274.68C311.71 275.053 312.217 275.58 312.577 276.26C312.937 276.927 313.117 277.707 313.117 278.6C313.117 279.507 312.917 280.307 312.517 281C312.117 281.68 311.55 282.213 310.817 282.6C310.083 282.987 309.21 283.18 308.197 283.18Z" fill="#414143"/>
<rect width="148" height="72" transform="translate(236 312)" fill="#F2F1EC"/>
<path d="M258.34 355V353.26H261.54V343.3L259.04 344.86L258.2 343.32L262.14 340.9H263.6V353.26H266.6V355H258.34ZM269.692 355V353.46L274.392 348.42C275.046 347.713 275.512 347.073 275.792 346.5C276.086 345.927 276.232 345.347 276.232 344.76C276.232 343.24 275.339 342.48 273.552 342.48C272.192 342.48 270.972 342.993 269.892 344.02L269.152 342.44C269.686 341.92 270.366 341.507 271.192 341.2C272.019 340.88 272.879 340.72 273.772 340.72C275.226 340.72 276.339 341.053 277.112 341.72C277.899 342.387 278.292 343.34 278.292 344.58C278.292 345.42 278.086 346.24 277.672 347.04C277.272 347.84 276.639 348.693 275.772 349.6L272.292 353.26H278.852V355H269.692ZM279.984 350.3V349.04H289.984V350.3H279.984ZM292.324 355V353.26H295.524V343.3L293.024 344.86L292.184 343.32L296.124 340.9H297.584V353.26H300.584V355H292.324ZM307.977 355.18C306.363 355.18 305.103 354.833 304.197 354.14C303.303 353.447 302.857 352.48 302.857 351.24C302.857 350.373 303.083 349.64 303.537 349.04C304.003 348.427 304.61 348.007 305.357 347.78C304.69 347.5 304.163 347.073 303.777 346.5C303.39 345.913 303.197 345.24 303.197 344.48C303.197 343.307 303.63 342.387 304.497 341.72C305.363 341.053 306.523 340.72 307.977 340.72C309.443 340.72 310.61 341.053 311.477 341.72C312.343 342.387 312.777 343.307 312.777 344.48C312.777 345.24 312.577 345.913 312.177 346.5C311.79 347.087 311.263 347.513 310.597 347.78C311.357 348.007 311.963 348.427 312.417 349.04C312.87 349.64 313.097 350.373 313.097 351.24C313.097 352.48 312.643 353.447 311.737 354.14C310.843 354.833 309.59 355.18 307.977 355.18ZM307.977 347.04C308.87 347.04 309.563 346.833 310.057 346.42C310.563 345.993 310.817 345.413 310.817 344.68C310.817 343.96 310.563 343.393 310.057 342.98C309.563 342.567 308.87 342.36 307.977 342.36C307.083 342.36 306.39 342.567 305.897 342.98C305.403 343.393 305.157 343.96 305.157 344.68C305.157 345.413 305.403 345.993 305.897 346.42C306.39 346.833 307.083 347.04 307.977 347.04ZM307.977 353.54C310.097 353.54 311.157 352.727 311.157 351.1C311.157 349.487 310.097 348.68 307.977 348.68C306.937 348.68 306.143 348.88 305.597 349.28C305.063 349.68 304.797 350.287 304.797 351.1C304.797 352.727 305.857 353.54 307.977 353.54Z" fill="#414143"/>
<rect width="148" height="72" transform="translate(236 384)" fill="#F2F1EC"/>
<path d="M266.88 426.32L257.12 422.04V420.48L266.88 416.18V417.82L258.98 421.26L266.88 424.7V426.32ZM270.332 427V425.26H273.532V415.3L271.032 416.86L270.192 415.32L274.132 412.9H275.592V425.26H278.592V427H270.332Z" fill="#414143"/>
<rect width="148" height="48" transform="translate(236 456)" fill="#F2F1EC"/>
<path d="M264.26 482.74C263.94 482.74 263.587 482.68 263.2 482.56C262.813 482.427 262.353 482.213 261.82 481.92C261.3 481.64 260.887 481.453 260.58 481.36C260.287 481.253 260.04 481.2 259.84 481.2C259.12 481.2 258.6 481.613 258.28 482.44L257.12 481.8C257.373 481.16 257.727 480.667 258.18 480.32C258.633 479.96 259.16 479.78 259.76 479.78C260.093 479.78 260.44 479.84 260.8 479.96C261.173 480.067 261.627 480.26 262.16 480.54C262.653 480.807 263.053 481.007 263.36 481.14C263.667 481.26 263.933 481.32 264.16 481.32C264.893 481.32 265.427 480.907 265.76 480.08L266.88 480.72C266.64 481.36 266.287 481.86 265.82 482.22C265.367 482.567 264.847 482.74 264.26 482.74ZM270.332 487V485.26H273.532V475.3L271.032 476.86L270.192 475.32L274.132 472.9H275.592V485.26H278.592V487H270.332ZM287.264 487V484.14H280.924V482.6L287.624 472.9H289.324V482.4H291.384V484.14H289.324V487H287.264ZM287.264 482.4V476.14L282.984 482.4H287.264Z" fill="#414143"/>
<rect width="148" height="48" transform="translate(236 504)" fill="#F2F1EC"/>
<path d="M264.26 530.74C263.94 530.74 263.587 530.68 263.2 530.56C262.813 530.427 262.353 530.213 261.82 529.92C261.3 529.64 260.887 529.453 260.58 529.36C260.287 529.253 260.04 529.2 259.84 529.2C259.12 529.2 258.6 529.613 258.28 530.44L257.12 529.8C257.373 529.16 257.727 528.667 258.18 528.32C258.633 527.96 259.16 527.78 259.76 527.78C260.093 527.78 260.44 527.84 260.8 527.96C261.173 528.067 261.627 528.26 262.16 528.54C262.653 528.807 263.053 529.007 263.36 529.14C263.667 529.26 263.933 529.32 264.16 529.32C264.893 529.32 265.427 528.907 265.76 528.08L266.88 528.72C266.64 529.36 266.287 529.86 265.82 530.22C265.367 530.567 264.847 530.74 264.26 530.74ZM269.692 535V533.46L274.392 528.42C275.046 527.713 275.512 527.073 275.792 526.5C276.086 525.927 276.232 525.347 276.232 524.76C276.232 523.24 275.339 522.48 273.552 522.48C272.192 522.48 270.972 522.993 269.892 524.02L269.152 522.44C269.686 521.92 270.366 521.507 271.192 521.2C272.019 520.88 272.879 520.72 273.772 520.72C275.226 520.72 276.339 521.053 277.112 521.72C277.899 522.387 278.292 523.34 278.292 524.58C278.292 525.42 278.086 526.24 277.672 527.04C277.272 527.84 276.639 528.693 275.772 529.6L272.292 533.26H278.852V535H269.692Z" fill="#414143"/>
<rect width="148" height="48" transform="translate(384)" fill="#812D9C"/>
<path d="M413.744 9H417.072V21H413.744V16.672C413.179 16.9013 412.571 17.0773 411.92 17.2C411.269 17.3227 410.608 17.384 409.936 17.384C408.224 17.384 406.917 16.9413 406.016 16.056C405.115 15.1653 404.664 13.8747 404.664 12.184V9H407.984V11.912C407.984 13.6133 408.901 14.464 410.736 14.464C411.664 14.464 412.667 14.2773 413.744 13.904V9ZM422.836 16.208L422.5 18.312H430.1V21H418.94L419.852 15L418.94 9H430.02V11.688H422.5L422.836 13.792H429.556V16.208H422.836ZM422.108 8.12C421.569 8.12 421.137 7.984 420.812 7.712C420.492 7.44 420.332 7.06667 420.332 6.592C420.332 6.13333 420.492 5.77333 420.812 5.512C421.137 5.24533 421.569 5.112 422.108 5.112C422.646 5.112 423.076 5.24533 423.396 5.512C423.721 5.77333 423.884 6.13333 423.884 6.592C423.884 7.06667 423.721 7.44 423.396 7.712C423.076 7.984 422.646 8.12 422.108 8.12ZM427.068 8.12C426.529 8.12 426.097 7.984 425.772 7.712C425.452 7.44 425.292 7.06667 425.292 6.592C425.292 6.13333 425.452 5.77333 425.772 5.512C426.097 5.24533 426.529 5.112 427.068 5.112C427.606 5.112 428.036 5.24533 428.356 5.512C428.681 5.77333 428.844 6.13333 428.844 6.592C428.844 7.06667 428.681 7.44 428.356 7.712C428.036 7.984 427.606 8.12 427.068 8.12ZM438.739 9C439.736 9 440.6 9.17067 441.331 9.512C442.061 9.85333 442.621 10.336 443.011 10.96C443.4 11.584 443.595 12.3093 443.595 13.136C443.595 13.9627 443.4 14.688 443.011 15.312C442.621 15.936 442.061 16.4187 441.331 16.76C440.6 17.1013 439.736 17.272 438.739 17.272H435.323V21H432.003V9H438.739ZM438.547 14.616C439.08 14.616 439.496 14.4853 439.795 14.224C440.093 13.9627 440.243 13.6 440.243 13.136C440.243 12.672 440.093 12.3093 439.795 12.048C439.496 11.7867 439.08 11.656 438.547 11.656H435.323V14.616H438.547ZM454.49 13.44V9H457.81V21H454.49V16.368H448.354V21H445.034V9H448.354V13.44H454.49ZM466.746 12.72C467.749 12.72 468.615 12.8907 469.346 13.232C470.082 13.5733 470.645 14.056 471.034 14.68C471.423 15.304 471.618 16.032 471.618 16.864C471.618 17.696 471.423 18.424 471.034 19.048C470.645 19.6667 470.082 20.1467 469.346 20.488C468.615 20.8293 467.749 21 466.746 21H460.034V9H463.354V12.72H466.746ZM466.546 18.384C467.085 18.384 467.506 18.2507 467.81 17.984C468.114 17.712 468.266 17.3387 468.266 16.864C468.266 16.3893 468.114 16.016 467.81 15.744C467.506 15.472 467.085 15.336 466.546 15.336H463.354V18.384H466.546ZM472.61 21V9H475.93V21H472.61ZM481.439 17.696L487.319 9H491.655V21H488.375V12.128L482.375 21H478.159V9H481.439V17.696ZM483.375 5.352C483.631 6.04533 484.132 6.392 484.879 6.392C485.615 6.392 486.116 6.04533 486.383 5.352H488.991C488.756 6.33333 488.282 7.06133 487.567 7.536C486.858 8.00533 485.962 8.24 484.879 8.24C483.796 8.24 482.898 8.00533 482.183 7.536C481.468 7.06133 480.994 6.33333 480.759 5.352H483.375ZM413.744 28H417.072V40H413.744V35.672C413.179 35.9013 412.571 36.0773 411.92 36.2C411.269 36.3227 410.608 36.384 409.936 36.384C408.224 36.384 406.917 35.9413 406.016 35.056C405.115 34.1653 404.664 32.8747 404.664 31.184V28H407.984V30.912C407.984 32.6133 408.901 33.464 410.736 33.464C411.664 33.464 412.667 33.2773 413.744 32.904V28ZM433.484 40H429.948L428.948 37.688H422.748L421.748 40H418.204L423.668 28H428.028L433.484 40ZM425.844 30.528L423.9 35.024H427.796L425.844 30.528ZM437.892 36.696L443.772 28H448.108V40H444.828V31.128L438.828 40H434.612V28H437.892V36.696ZM439.828 24.352C440.084 25.0453 440.585 25.392 441.332 25.392C442.068 25.392 442.569 25.0453 442.836 24.352H445.444C445.209 25.3333 444.735 26.0613 444.02 26.536C443.311 27.0053 442.415 27.24 441.332 27.24C440.249 27.24 439.351 27.0053 438.636 26.536C437.921 26.0613 437.447 25.3333 437.212 24.352H439.828ZM459.092 28C458.42 29.216 457.921 30.3893 457.596 31.52C457.271 32.6453 457.108 33.7653 457.108 34.88C457.108 35.9787 457.271 37.0907 457.596 38.216C457.921 39.336 458.42 40.5173 459.092 41.76H456.556C455.607 40.6613 454.897 39.5493 454.428 38.424C453.964 37.2933 453.732 36.112 453.732 34.88C453.732 33.648 453.964 32.4693 454.428 31.344C454.897 30.2133 455.607 29.0987 456.556 28H459.092ZM464.038 35.032C463.201 35.032 462.462 34.8827 461.822 34.584C461.182 34.28 460.683 33.856 460.326 33.312C459.974 32.768 459.798 32.1413 459.798 31.432C459.798 30.7227 459.974 30.0987 460.326 29.56C460.683 29.016 461.182 28.5947 461.822 28.296C462.462 27.992 463.201 27.84 464.038 27.84C464.87 27.84 465.606 27.992 466.246 28.296C466.891 28.5947 467.39 29.016 467.742 29.56C468.099 30.0987 468.278 30.7227 468.278 31.432C468.278 32.1413 468.099 32.768 467.742 33.312C467.39 33.856 466.891 34.28 466.246 34.584C465.606 34.8827 464.87 35.032 464.038 35.032ZM465.31 40L471.846 28H474.238L467.702 40H465.31ZM464.038 33.136C464.566 33.136 464.979 32.9867 465.278 32.688C465.577 32.384 465.726 31.9653 465.726 31.432C465.726 30.8987 465.577 30.48 465.278 30.176C464.979 29.872 464.566 29.72 464.038 29.72C463.51 29.72 463.097 29.872 462.798 30.176C462.505 30.48 462.358 30.8987 462.358 31.432C462.358 31.9653 462.505 32.384 462.798 32.688C463.097 32.9867 463.51 33.136 464.038 33.136ZM475.502 40.272C474.67 40.272 473.931 40.1227 473.286 39.824C472.646 39.52 472.147 39.096 471.79 38.552C471.438 38.008 471.262 37.3813 471.262 36.672C471.262 35.9627 471.438 35.3387 471.79 34.8C472.147 34.256 472.646 33.8347 473.286 33.536C473.931 33.232 474.67 33.08 475.502 33.08C476.334 33.08 477.07 33.232 477.71 33.536C478.355 33.8347 478.854 34.256 479.206 34.8C479.563 35.3387 479.742 35.9627 479.742 36.672C479.742 37.3813 479.563 38.008 479.206 38.552C478.854 39.096 478.355 39.52 477.71 39.824C477.07 40.1227 476.334 40.272 475.502 40.272ZM475.502 38.376C476.03 38.376 476.443 38.2267 476.742 37.928C477.041 37.624 477.19 37.2053 477.19 36.672C477.19 36.1387 477.041 35.72 476.742 35.416C476.443 35.112 476.03 34.96 475.502 34.96C474.974 34.96 474.561 35.112 474.262 35.416C473.969 35.72 473.822 36.1387 473.822 36.672C473.822 37.2053 473.969 37.624 474.262 37.928C474.561 38.2267 474.974 38.376 475.502 38.376ZM482.989 28C483.938 29.0987 484.645 30.2107 485.109 31.336C485.573 32.4613 485.805 33.6427 485.805 34.88C485.805 36.1173 485.573 37.2987 485.109 38.424C484.645 39.5493 483.938 40.6613 482.989 41.76H480.445C481.122 40.5173 481.624 39.336 481.949 38.216C482.274 37.0907 482.437 35.9787 482.437 34.88C482.437 33.7653 482.274 32.6453 481.949 31.52C481.624 30.3893 481.122 29.216 480.445 28H482.989Z" fill="white"/>
<rect width="148" height="48" transform="translate(384 48)" fill="#F2F1EC"/>
<path d="M406.34 79V77.26H409.54V67.3L407.04 68.86L406.2 67.32L410.14 64.9H411.6V77.26H414.6V79H406.34ZM422.212 79.18C421.306 79.18 420.426 79.04 419.572 78.76C418.732 78.4667 418.032 78.06 417.472 77.54L418.172 75.94C419.399 76.9267 420.732 77.42 422.172 77.42C423.092 77.42 423.812 77.1733 424.332 76.68C424.852 76.1733 425.112 75.5133 425.112 74.7C425.112 73.86 424.866 73.1733 424.372 72.64C423.879 72.1067 423.192 71.84 422.312 71.84C421.072 71.84 420.079 72.3533 419.332 73.38H417.892V64.9H426.292V66.64H419.912V71.1C420.659 70.4467 421.606 70.12 422.752 70.12C423.646 70.12 424.419 70.3067 425.072 70.68C425.726 71.0533 426.232 71.58 426.592 72.26C426.952 72.9267 427.132 73.7067 427.132 74.6C427.132 75.5067 426.932 76.3067 426.532 77C426.132 77.68 425.566 78.2133 424.832 78.6C424.099 78.9867 423.226 79.18 422.212 79.18Z" fill="#414143"/>
<rect width="148" height="48" transform="translate(384 96)" fill="#F2F1EC"/>
<path d="M411.28 127V124.14H404.94V122.6L411.64 112.9H413.34V122.4H415.4V124.14H413.34V127H411.28ZM411.28 122.4V116.14L407 122.4H411.28Z" fill="#414143"/>
<rect width="148" height="48" transform="translate(384 144)" fill="#F2F1EC"/>
<path d="M406 175L412.46 162.64H405.24V160.9H414.78V162.44L408.28 175H406Z" fill="#414143"/>
<rect width="148" height="48" transform="translate(384 192)" fill="#F2F1EC"/>
<path d="M410.22 223.18C409.313 223.18 408.433 223.04 407.58 222.76C406.74 222.467 406.04 222.06 405.48 221.54L406.18 219.94C407.407 220.927 408.74 221.42 410.18 221.42C411.1 221.42 411.82 221.173 412.34 220.68C412.86 220.173 413.12 219.513 413.12 218.7C413.12 217.86 412.873 217.173 412.38 216.64C411.887 216.107 411.2 215.84 410.32 215.84C409.08 215.84 408.087 216.353 407.34 217.38H405.9V208.9H414.3V210.64H407.92V215.1C408.667 214.447 409.613 214.12 410.76 214.12C411.653 214.12 412.427 214.307 413.08 214.68C413.733 215.053 414.24 215.58 414.6 216.26C414.96 216.927 415.14 217.707 415.14 218.6C415.14 219.507 414.94 220.307 414.54 221C414.14 221.68 413.573 222.213 412.84 222.6C412.107 222.987 411.233 223.18 410.22 223.18Z" fill="#414143"/>
<rect width="148" height="72" transform="translate(384 240)" fill="#F2F1EC"/>
<path d="M406.34 283V281.26H409.54V271.3L407.04 272.86L406.2 271.32L410.14 268.9H411.6V281.26H414.6V283H406.34ZM422.212 283.18C421.306 283.18 420.426 283.04 419.572 282.76C418.732 282.467 418.032 282.06 417.472 281.54L418.172 279.94C419.399 280.927 420.732 281.42 422.172 281.42C423.092 281.42 423.812 281.173 424.332 280.68C424.852 280.173 425.112 279.513 425.112 278.7C425.112 277.86 424.866 277.173 424.372 276.64C423.879 276.107 423.192 275.84 422.312 275.84C421.072 275.84 420.079 276.353 419.332 277.38H417.892V268.9H426.292V270.64H419.912V275.1C420.659 274.447 421.606 274.12 422.752 274.12C423.646 274.12 424.419 274.307 425.072 274.68C425.726 275.053 426.232 275.58 426.592 276.26C426.952 276.927 427.132 277.707 427.132 278.6C427.132 279.507 426.932 280.307 426.532 281C426.132 281.68 425.566 282.213 424.832 282.6C424.099 282.987 423.226 283.18 422.212 283.18ZM427.984 278.3V277.04H437.984V278.3H427.984ZM439.684 283V281.46L444.384 276.42C445.038 275.713 445.504 275.073 445.784 274.5C446.078 273.927 446.224 273.347 446.224 272.76C446.224 271.24 445.331 270.48 443.544 270.48C442.184 270.48 440.964 270.993 439.884 272.02L439.144 270.44C439.678 269.92 440.358 269.507 441.184 269.2C442.011 268.88 442.871 268.72 443.764 268.72C445.218 268.72 446.331 269.053 447.104 269.72C447.891 270.387 448.284 271.34 448.284 272.58C448.284 273.42 448.078 274.24 447.664 275.04C447.264 275.84 446.631 276.693 445.764 277.6L442.284 281.26H448.844V283H439.684ZM456.197 283.18C455.29 283.18 454.41 283.04 453.557 282.76C452.717 282.467 452.017 282.06 451.457 281.54L452.157 279.94C453.383 280.927 454.717 281.42 456.157 281.42C457.077 281.42 457.797 281.173 458.317 280.68C458.837 280.173 459.097 279.513 459.097 278.7C459.097 277.86 458.85 277.173 458.357 276.64C457.863 276.107 457.177 275.84 456.297 275.84C455.057 275.84 454.063 276.353 453.317 277.38H451.877V268.9H460.277V270.64H453.897V275.1C454.643 274.447 455.59 274.12 456.737 274.12C457.63 274.12 458.403 274.307 459.057 274.68C459.71 275.053 460.217 275.58 460.577 276.26C460.937 276.927 461.117 277.707 461.117 278.6C461.117 279.507 460.917 280.307 460.517 281C460.117 281.68 459.55 282.213 458.817 282.6C458.083 282.987 457.21 283.18 456.197 283.18Z" fill="#414143"/>
<rect width="148" height="72" transform="translate(384 312)" fill="#F2F1EC"/>
<path d="M406.34 355V353.26H409.54V343.3L407.04 344.86L406.2 343.32L410.14 340.9H411.6V353.26H414.6V355H406.34ZM417.692 355V353.46L422.392 348.42C423.046 347.713 423.512 347.073 423.792 346.5C424.086 345.927 424.232 345.347 424.232 344.76C424.232 343.24 423.339 342.48 421.552 342.48C420.192 342.48 418.972 342.993 417.892 344.02L417.152 342.44C417.686 341.92 418.366 341.507 419.192 341.2C420.019 340.88 420.879 340.72 421.772 340.72C423.226 340.72 424.339 341.053 425.112 341.72C425.899 342.387 426.292 343.34 426.292 344.58C426.292 345.42 426.086 346.24 425.672 347.04C425.272 347.84 424.639 348.693 423.772 349.6L420.292 353.26H426.852V355H417.692ZM427.984 350.3V349.04H437.984V350.3H427.984ZM440.324 355V353.26H443.524V343.3L441.024 344.86L440.184 343.32L444.124 340.9H445.584V353.26H448.584V355H440.324ZM455.977 355.18C454.363 355.18 453.103 354.833 452.197 354.14C451.303 353.447 450.857 352.48 450.857 351.24C450.857 350.373 451.083 349.64 451.537 349.04C452.003 348.427 452.61 348.007 453.357 347.78C452.69 347.5 452.163 347.073 451.777 346.5C451.39 345.913 451.197 345.24 451.197 344.48C451.197 343.307 451.63 342.387 452.497 341.72C453.363 341.053 454.523 340.72 455.977 340.72C457.443 340.72 458.61 341.053 459.477 341.72C460.343 342.387 460.777 343.307 460.777 344.48C460.777 345.24 460.577 345.913 460.177 346.5C459.79 347.087 459.263 347.513 458.597 347.78C459.357 348.007 459.963 348.427 460.417 349.04C460.87 349.64 461.097 350.373 461.097 351.24C461.097 352.48 460.643 353.447 459.737 354.14C458.843 354.833 457.59 355.18 455.977 355.18ZM455.977 347.04C456.87 347.04 457.563 346.833 458.057 346.42C458.563 345.993 458.817 345.413 458.817 344.68C458.817 343.96 458.563 343.393 458.057 342.98C457.563 342.567 456.87 342.36 455.977 342.36C455.083 342.36 454.39 342.567 453.897 342.98C453.403 343.393 453.157 343.96 453.157 344.68C453.157 345.413 453.403 345.993 453.897 346.42C454.39 346.833 455.083 347.04 455.977 347.04ZM455.977 353.54C458.097 353.54 459.157 352.727 459.157 351.1C459.157 349.487 458.097 348.68 455.977 348.68C454.937 348.68 454.143 348.88 453.597 349.28C453.063 349.68 452.797 350.287 452.797 351.1C452.797 352.727 453.857 353.54 455.977 353.54Z" fill="#414143"/>
<rect width="148" height="72" transform="translate(384 384)" fill="#F2F1EC"/>
<path d="M411.28 427V424.14H404.94V422.6L411.64 412.9H413.34V422.4H415.4V424.14H413.34V427H411.28ZM411.28 422.4V416.14L407 422.4H411.28Z" fill="#414143"/>
<rect width="148" height="48" transform="translate(384 456)" fill="#F2F1EC"/>
<path d="M412.26 482.74C411.94 482.74 411.587 482.68 411.2 482.56C410.813 482.427 410.353 482.213 409.82 481.92C409.3 481.64 408.887 481.453 408.58 481.36C408.287 481.253 408.04 481.2 407.84 481.2C407.12 481.2 406.6 481.613 406.28 482.44L405.12 481.8C405.373 481.16 405.727 480.667 406.18 480.32C406.633 479.96 407.16 479.78 407.76 479.78C408.093 479.78 408.44 479.84 408.8 479.96C409.173 480.067 409.627 480.26 410.16 480.54C410.653 480.807 411.053 481.007 411.36 481.14C411.667 481.26 411.933 481.32 412.16 481.32C412.893 481.32 413.427 480.907 413.76 480.08L414.88 480.72C414.64 481.36 414.287 481.86 413.82 482.22C413.367 482.567 412.847 482.74 412.26 482.74ZM420.972 487.18C420.239 487.18 419.506 487.033 418.772 486.74C418.052 486.447 417.439 486.047 416.932 485.54L417.652 483.96C418.146 484.44 418.679 484.807 419.252 485.06C419.826 485.3 420.406 485.42 420.992 485.42C422.246 485.42 423.199 484.973 423.852 484.08C424.519 483.173 424.852 481.827 424.852 480.04V479.22C424.586 480.033 424.119 480.673 423.452 481.14C422.799 481.607 422.032 481.84 421.152 481.84C420.339 481.84 419.612 481.647 418.972 481.26C418.332 480.873 417.832 480.347 417.472 479.68C417.112 479 416.932 478.227 416.932 477.36C416.932 476.453 417.126 475.653 417.512 474.96C417.899 474.253 418.432 473.707 419.112 473.32C419.806 472.92 420.599 472.72 421.492 472.72C423.199 472.72 424.512 473.327 425.432 474.54C426.366 475.753 426.832 477.453 426.832 479.64C426.832 482.053 426.312 483.913 425.272 485.22C424.246 486.527 422.812 487.18 420.972 487.18ZM421.632 480.14C422.446 480.14 423.106 479.88 423.612 479.36C424.119 478.827 424.372 478.133 424.372 477.28C424.372 476.427 424.119 475.733 423.612 475.2C423.106 474.653 422.446 474.38 421.632 474.38C420.819 474.38 420.159 474.653 419.652 475.2C419.146 475.733 418.892 476.427 418.892 477.28C418.892 478.133 419.146 478.827 419.652 479.36C420.159 479.88 420.819 480.14 421.632 480.14Z" fill="#414143"/>
<rect width="148" height="48" transform="translate(384 504)" fill="#F2F1EC"/>
<path d="M412.26 530.74C411.94 530.74 411.587 530.68 411.2 530.56C410.813 530.427 410.353 530.213 409.82 529.92C409.3 529.64 408.887 529.453 408.58 529.36C408.287 529.253 408.04 529.2 407.84 529.2C407.12 529.2 406.6 529.613 406.28 530.44L405.12 529.8C405.373 529.16 405.727 528.667 406.18 528.32C406.633 527.96 407.16 527.78 407.76 527.78C408.093 527.78 408.44 527.84 408.8 527.96C409.173 528.067 409.627 528.26 410.16 528.54C410.653 528.807 411.053 529.007 411.36 529.14C411.667 529.26 411.933 529.32 412.16 529.32C412.893 529.32 413.427 528.907 413.76 528.08L414.88 528.72C414.64 529.36 414.287 529.86 413.82 530.22C413.367 530.567 412.847 530.74 412.26 530.74ZM423.272 535V532.14H416.932V530.6L423.632 520.9H425.332V530.4H427.392V532.14H425.332V535H423.272ZM423.272 530.4V524.14L418.992 530.4H423.272Z" fill="#414143"/>
</g>
<defs>
<clipPath id="clip0_1634_14253">
<rect width="532" height="552" rx="20" fill="white"/>
</clipPath>
</defs>
</svg>
