<svg width="60" height="60" viewBox="0 0 60 60" fill="none" xmlns="http://www.w3.org/2000/svg">
<g clip-path="url(#clip0_1498_28739)">
<path d="M30 5C43.8075 5 55 16.1925 55 30C55 43.8075 43.8075 55 30 55C16.1925 55 5 43.8075 5 30C5 16.1925 16.1925 5 30 5ZM30 15C29.337 15 28.7011 15.2634 28.2322 15.7322C27.7634 16.2011 27.5 16.837 27.5 17.5V30C27.5001 30.663 27.7636 31.2988 28.2325 31.7675L35.7325 39.2675C36.204 39.7229 36.8355 39.9749 37.491 39.9692C38.1465 39.9635 38.7735 39.7006 39.237 39.237C39.7006 38.7735 39.9635 38.1465 39.9692 37.491C39.9749 36.8355 39.7229 36.204 39.2675 35.7325L32.5 28.965V17.5C32.5 16.837 32.2366 16.2011 31.7678 15.7322C31.2989 15.2634 30.663 15 30 15Z" fill="#812D9C"/>
</g>
<defs>
<clipPath id="clip0_1498_28739">
<rect width="60" height="60" fill="white"/>
</clipPath>
</defs>
</svg>
