<svg width="320" height="10" viewBox="0 0 320 10" fill="none" xmlns="http://www.w3.org/2000/svg">
<path fill-rule="evenodd" clip-rule="evenodd" d="M318.834 8.69652C318.027 9.07042 316.504 9.28853 314.173 9.28853C312.291 9.31969 310.409 9.44432 310.05 9.63127C309.692 9.81823 309.333 9.69359 309.333 9.38201C309.333 9.07042 308.706 8.85231 307.81 8.85231C306.555 8.85231 306.465 8.91463 307.451 9.13274C309.065 9.50664 306.645 9.75591 301.894 9.72475H298.489L300.46 9.13274C301.536 8.82116 301.984 8.54073 301.446 8.54073C300.819 8.54073 299.564 8.82115 298.489 9.19506C297.055 9.69359 295.979 9.81823 293.918 9.66243C292.304 9.56896 290.602 9.63127 289.974 9.81823C289.257 10.0052 288.719 10.0675 288.719 9.9117C288.719 9.75591 283.7 9.66243 277.516 9.69359C270.615 9.75591 266.402 9.66243 266.761 9.47548C267.567 9.00811 265.506 7.91756 263.803 7.91756C262.548 7.91756 262.548 7.85524 263.534 7.63713C264.251 7.48134 265.416 7.41902 266.223 7.5125C267.299 7.60597 267.209 7.54366 266.044 7.29439C264.879 7.04512 264.072 7.01396 263.265 7.26323C262.638 7.45018 261.921 7.54366 261.742 7.45018C261.473 7.38786 261.294 7.57482 261.294 7.8864C261.294 8.22914 261.921 8.44725 262.638 8.38494C264.699 8.29146 266.223 8.91463 265.058 9.35085C264.162 9.69359 251.345 9.69359 248.656 9.31969C248.118 9.25737 247.491 9.35085 247.222 9.56896C247.043 9.78707 245.788 9.60012 244.175 9.03926C241.844 8.29146 241.486 8.01103 242.203 7.38786C242.651 7.01396 242.741 6.67122 242.472 6.67122C241.845 6.67122 239.873 8.6342 240.142 8.97695C240.321 9.13274 239.783 9.1639 239.156 9.07042C238.439 8.97695 237.363 9.07042 236.825 9.25737C236.108 9.50664 235.84 9.50664 235.84 9.22621C235.84 9.0081 234.943 8.85231 233.778 8.85231C232.613 8.85231 231.269 9.0081 230.641 9.22621C230.014 9.44432 229.566 9.47548 229.566 9.28853C229.566 9.13274 224.726 9.00811 218.183 9.00811C194.073 8.97695 167.454 8.50957 163.511 8.07335C162.883 8.01103 162.166 8.07335 161.808 8.2603C161.539 8.44725 160.732 8.50957 160.015 8.41609C159.388 8.32262 158.581 8.38494 158.312 8.57189C157.954 8.72768 157.327 8.79 156.878 8.66536C155.982 8.47841 150.336 8.38494 134.024 8.22914C129.99 8.16683 126.226 8.2603 125.599 8.38494C124.792 8.57189 124.613 8.50957 125.151 8.19799C125.778 7.85524 125.688 7.82408 124.613 8.10451C123.896 8.29146 121.745 8.38493 119.773 8.32262C117.801 8.29146 114.216 8.2603 111.707 8.2603C105.97 8.32262 107.584 8.32262 85.7148 8.07335C41.0807 7.54366 37.7645 7.48134 29.2499 6.95165C25.8441 6.7647 21.3628 6.54659 19.391 6.51543C17.4192 6.45311 15.8955 6.26616 15.9851 6.07921C16.1644 5.89226 14.9993 5.82994 13.0275 5.89226C11.3246 5.98573 10.0699 5.92342 10.3387 5.79878C10.518 5.67415 9.71127 5.58067 8.36688 5.58067C7.02246 5.61183 5.14035 5.39372 4.15445 5.08214C3.16858 4.80171 1.5553 4.49013 0.569397 4.39665C-0.506134 4.30317 -0.0579834 4.24086 1.91379 4.2097C7.56027 4.17854 8.27728 4.08507 7.29138 3.74232C5.85736 3.24379 6.21585 2.52714 7.82913 2.74525C8.54614 2.83873 8.90466 2.80757 8.6358 2.65178C8.36691 2.49598 8.54617 2.27787 9.08392 2.15324C9.6217 2.02861 9.80096 1.77934 9.44244 1.59239C9.17358 1.37428 9.98013 1.62355 11.1453 2.12208C12.4001 2.62062 13.8341 2.9322 14.2822 2.80757C15.537 2.5583 14.6407 1.68586 13.2964 1.77934C12.7586 1.8105 12.2208 1.56123 12.0415 1.21849C11.7727 0.719952 11.8624 0.688793 12.5794 1.06269C13.2964 1.4366 13.7445 1.40544 15.3578 0.906902C16.6126 0.512228 17.0309 0.522614 16.6126 0.93806C15.9852 1.46775 16.0748 1.49891 17.5089 1.06269C19.7495 0.470684 25.2167 0.346049 25.2167 0.906902C25.2167 1.15617 25.6648 1.4366 26.2922 1.56123C26.9196 1.68586 27.0092 1.65471 26.6508 1.43659C26.0234 1.09385 26.3818 1.00038 29.0706 0.93806C29.6084 0.906901 30.415 0.782269 30.7736 0.595318C31.2217 0.408367 31.7595 0.408366 32.4765 0.657634C33.0143 0.844584 34.0898 0.93806 34.7172 0.844584C35.4342 0.751108 36.6889 0.875743 37.4956 1.09385C38.7503 1.46775 38.9296 1.46775 38.2126 1.09385C37.6749 0.751109 38.0334 0.688791 40.3637 0.844584C42.1562 0.969218 43.0525 0.938061 42.694 0.75111C42.4251 0.595318 42.6939 0.533 43.4109 0.626475C44.576 0.782268 48.0715 0.938061 51.4773 1.03154C52.4632 1.0627 52.8218 1.21849 52.4633 1.40544C52.1048 1.62355 52.5529 1.62355 53.8077 1.37428C55.3314 1.09385 56.1379 1.09385 57.1238 1.37428C58.1097 1.68586 58.4682 1.65471 58.9164 1.2808C59.4541 0.751109 65.5488 0.657635 66.5347 1.18733C66.8932 1.34312 67.879 1.34312 68.7753 1.21849C69.7612 1.06269 70.7471 1.00038 71.1952 1.00038C71.5537 1.03154 71.8226 0.9069 71.8226 0.688791C71.8226 0.501841 72.3603 0.564159 72.9877 0.906902C73.884 1.31196 74.4218 1.37428 74.87 1.09385C75.4077 0.813426 75.8558 0.813426 76.8417 1.09385C77.738 1.34312 78.8136 1.34312 80.6957 1.12501C82.1297 0.93806 83.5637 0.875743 83.7429 0.969218C84.0118 1.03154 84.46 0.813426 84.8185 0.470683C85.3563 -0.121327 85.5355 -0.121327 86.7007 0.283732C87.5073 0.533001 88.5828 0.657633 89.1205 0.532999C89.6583 0.408365 89.8376 0.532999 89.4791 0.844584C89.1206 1.21849 89.4791 1.2808 91.0924 1.18733C92.4368 1.09385 93.5123 1.24965 94.05 1.56123C94.6774 1.96629 95.036 1.99745 95.5737 1.68586C95.9322 1.46775 95.753 1.18733 95.036 1.03154C94.4086 0.906902 94.1396 0.688793 94.4981 0.564159C94.767 0.439526 95.6633 0.501841 96.2907 0.688791C97.187 0.969218 97.8144 0.93806 98.6211 0.657634C99.5173 0.377208 99.6069 0.408366 99.1588 0.813426C98.8003 1.12501 98.9796 1.37428 99.5173 1.37428C100.055 1.37428 100.234 1.62355 99.8757 1.90397C99.6069 2.21556 99.6069 2.37135 99.9655 2.24672C100.593 2.09092 101.131 1.43659 101.31 0.657634C101.399 0.533 102.027 0.439526 102.744 0.439526C103.461 0.439526 104.088 0.533 104.088 0.657634C104.088 0.813426 104.984 0.906901 106.15 0.93806C107.225 0.93806 110.183 1.03154 112.782 1.15617C116.546 1.31196 117.712 1.24964 118.966 0.813426C119.982 0.481069 120.311 0.481069 119.952 0.813426C119.504 1.24964 119.952 1.34312 122.91 1.2808C124.792 1.2808 126.226 1.15617 126.047 1.03154C125.778 0.938061 126.853 0.844584 128.287 0.813426C129.722 0.813426 131.156 0.93806 131.424 1.09385C131.783 1.24965 132.59 1.37428 133.307 1.37428C134.024 1.37428 134.472 1.24964 134.203 1.12501C134.024 1.00038 134.651 0.844584 135.726 0.844584C136.892 0.813425 137.25 0.875742 136.623 1.00038C135.906 1.15617 135.816 1.40544 136.354 1.68586C137.071 2.05977 137.25 2.05977 137.25 1.71702C137.25 1.46775 137.788 1.37428 138.595 1.49891C139.312 1.59239 141.014 1.53007 142.359 1.34312C143.614 1.18733 144.958 1.15617 145.227 1.2808C145.496 1.40544 147.199 1.56123 148.902 1.62355C150.605 1.6547 152.307 1.87281 152.666 2.09092C153.204 2.37135 153.383 2.37135 153.383 2.05976C153.383 1.87281 154.1 1.68586 154.996 1.68586C156.251 1.68586 156.341 1.74818 155.176 1.99745C154.369 2.1844 154.279 2.30903 154.907 2.30903C155.534 2.30903 156.43 2.05976 156.878 1.74818C157.416 1.46775 157.864 1.37428 157.864 1.56123C157.864 2.02861 164.317 2.05976 165.214 1.59239C165.751 1.31196 165.931 1.31196 165.931 1.59239C165.931 1.8105 166.917 1.99745 168.171 1.99745C169.426 1.99745 170.412 2.12208 170.412 2.30903C170.412 2.46483 169.695 2.52714 168.888 2.43367C167.634 2.27788 167.544 2.30903 168.53 2.5583C169.247 2.74525 170.322 2.80757 170.95 2.71409C171.488 2.65178 172.384 2.96336 172.922 3.4619C173.459 3.92927 173.908 4.14738 173.908 3.92927C173.997 3.36842 175.61 3.4619 176.148 4.08507C176.865 4.86403 181.167 5.54951 181.167 4.89519C181.167 4.64592 180.809 4.52129 180.271 4.64592C179.375 4.83287 175.342 3.58653 176.148 3.33726C176.417 3.24379 177.403 3.33726 178.21 3.58653C179.225 3.85657 179.345 3.81503 178.568 3.4619C177.851 3.15031 176.596 2.96336 175.79 3.02568C174.983 3.08799 173.818 2.90105 173.19 2.58946C172.384 2.12208 172.473 1.99745 173.28 2.05976C173.907 2.12208 174.625 2.21556 174.893 2.30903C175.162 2.40251 176.686 2.71409 178.299 2.99452C181.078 3.52421 181.257 3.52421 182.96 2.9322C184.932 2.24672 186.097 2.09092 185.111 2.68293C184.663 2.90104 184.932 2.96336 185.917 2.83873C186.724 2.74525 187.531 2.80757 187.8 3.02568C188.248 3.3061 188.427 3.3061 188.875 3.02568C189.234 2.71409 190.13 2.74525 192.639 3.088C194.85 3.39958 195.298 3.35804 193.984 2.96336C192.281 2.46483 192.191 2.34019 193.356 2.1844C194.073 2.09092 194.432 2.12208 194.163 2.30903C193.894 2.49598 194.432 2.62062 195.418 2.62062C196.404 2.62062 197.39 2.74525 197.748 2.90105C198.465 3.33726 203.664 3.24379 203.036 2.80757C202.767 2.62062 203.036 2.68294 203.753 2.9322C205.098 3.49306 208.503 3.77348 207.607 3.27495C206.89 2.83873 207.518 2.83873 211.103 3.36842C213.791 3.74232 214.419 3.74232 216.032 3.36842C217.197 3.05684 217.914 3.02568 217.914 3.24379C217.914 3.43074 218.273 3.49306 218.81 3.39958C219.259 3.3061 219.528 3.39958 219.259 3.61769C218.99 3.8358 219.169 4.2097 219.617 4.45897C220.245 4.83287 220.782 4.83287 221.768 4.55244C222.395 4.33433 223.381 4.30317 223.74 4.42781C224.188 4.55244 224.188 4.45897 223.83 4.24086C223.471 4.02275 222.754 3.92927 222.306 4.02275C221.858 4.14738 221.499 4.08507 221.499 3.89812C221.499 3.24379 223.471 3.21263 224.726 3.80464C225.532 4.2097 226.698 4.39665 227.773 4.33433C228.759 4.27202 229.566 4.33433 229.566 4.52128C229.566 4.67708 230.014 4.80171 230.552 4.80171C231 4.80171 231.179 4.64592 230.91 4.49013C230.641 4.30318 231 4.17854 231.806 4.17854C232.703 4.17854 232.972 4.02275 232.613 3.80464C232.255 3.61769 232.882 3.68001 233.957 3.96043C235.123 4.2097 236.646 4.36549 237.274 4.27202C238.08 4.17854 238.528 4.33433 238.528 4.64592C238.528 5.1133 238.708 5.14446 240.052 4.77055C241.038 4.45897 241.307 4.45897 240.859 4.70824C240.5 4.92634 240.679 5.1133 241.128 5.1133C242.382 5.1133 242.382 4.70823 241.128 4.27202C240.5 4.05391 240.5 3.86696 241.038 3.74232C241.576 3.61769 242.562 3.80464 243.189 4.08507C244.444 4.70824 246.595 4.9575 246.595 4.52128C246.595 4.36549 247.401 4.17854 248.387 4.08507C249.732 3.96043 250.18 4.08507 250.18 4.49013C250.18 5.17561 248.567 5.61183 246.415 5.4872C245.519 5.42488 244.802 5.51835 244.802 5.67415C244.802 5.82994 245.788 5.95457 247.043 5.95457C248.298 5.95457 249.284 5.82994 249.284 5.67415C249.284 5.51835 249.732 5.4872 250.359 5.61183C250.897 5.73646 251.076 5.70531 250.807 5.51835C250.449 5.3314 250.807 5.01982 251.524 4.80171C252.241 4.5836 252.6 4.27202 252.241 4.05391C251.972 3.86696 252.241 3.86696 252.958 4.08507C253.586 4.30317 255.109 4.49013 256.274 4.49013C257.977 4.49013 258.246 4.61476 257.798 5.14445C257.35 5.61183 257.44 5.73646 258.157 5.61183C258.694 5.4872 259.143 5.1133 259.143 4.77055C259.143 4.24086 259.411 4.2097 260.935 4.49013C261.921 4.67708 262.728 5.05098 262.728 5.36256C262.728 5.79878 262.907 5.82994 263.534 5.42488C264.072 5.17561 264.162 4.86403 263.893 4.67708C263.624 4.52128 263.803 4.49013 264.341 4.61476C264.968 4.7394 265.416 5.05098 265.416 5.30025C265.416 5.58067 266.044 5.73646 267.03 5.67415C267.926 5.61183 268.464 5.3314 268.284 5.01982C268.105 4.73939 268.464 4.49013 269.001 4.49013C269.45 4.49013 269.898 4.64592 269.898 4.86403C269.898 5.05098 270.436 4.9575 271.153 4.61476C271.989 4.22009 272.377 4.23047 272.318 4.64592C272.138 5.30025 275.096 5.51836 276.44 4.9575C276.889 4.77055 276.889 4.9575 276.62 5.3314C276.172 5.8611 276.441 6.04805 277.426 6.04805C278.233 6.04805 278.86 5.82994 278.86 5.58067C278.86 5.33141 279.309 5.1133 279.846 5.1133C280.294 5.1133 280.474 5.23793 280.205 5.42488C279.846 5.64299 280.474 5.64299 281.997 5.42488C283.88 5.17561 284.865 5.23793 286.837 5.70531C288.809 6.20384 289.616 6.26616 290.512 5.95457C291.408 5.67415 291.498 5.67415 291.05 5.95457C290.601 6.235 291.05 6.35963 292.394 6.35963C293.738 6.35963 294.097 6.235 293.559 5.95457C293.111 5.73646 293.469 5.82994 294.366 6.14152C295.71 6.67122 296.338 6.70238 298.22 6.39079C301.088 5.95457 304.225 5.92342 303.418 6.39079C303.06 6.64006 303.328 6.64006 304.494 6.42195C307.182 5.92342 311.036 6.29732 310.678 7.01396C310.499 7.35671 310.678 7.54366 311.216 7.45018C311.664 7.32555 311.933 7.57481 311.753 7.97987C311.664 8.44725 312.022 8.66536 312.739 8.60304C313.456 8.57189 313.725 8.66536 313.367 8.85231C313.098 9.00811 313.187 9.1639 313.725 9.1639C314.173 9.1639 314.801 9.03926 315.159 8.85231C315.428 8.69652 316.324 8.66536 317.131 8.75884C318.027 8.88347 318.386 8.82115 318.027 8.6342C317.669 8.44725 318.027 8.22914 318.744 8.10451C320.358 7.8864 320.447 7.94872 318.834 8.69652ZM300.371 7.76177C299.923 7.66829 299.475 7.73061 299.475 7.8864C299.475 8.07335 299.923 8.22914 300.371 8.22914C300.909 8.22914 301.267 8.16683 301.267 8.10451C301.267 8.01103 300.909 7.85524 300.371 7.76177ZM284.417 5.61183C283.969 5.51836 283.611 5.64299 283.611 5.89226C283.611 6.14153 283.969 6.26616 284.417 6.17268C284.776 6.07921 285.134 5.95457 285.134 5.89226C285.134 5.82994 284.776 5.70531 284.417 5.61183ZM281.191 8.13567C280.653 8.22914 280.653 8.13567 281.37 7.8864C282.804 7.32555 282.804 6.82701 281.28 7.26323C280.563 7.45018 279.667 7.48134 279.309 7.35671C278.86 7.23207 278.86 7.32555 279.219 7.5125C279.577 7.73061 279.488 7.91756 279.129 7.91756C278.681 7.91756 278.323 8.19798 278.233 8.57189C278.143 9.03926 278.412 9.13274 279.129 8.91463C279.757 8.75884 281.101 8.66536 282.177 8.69652C283.79 8.72768 283.969 8.66536 283.252 8.32262C282.714 8.10451 281.818 8.01103 281.191 8.13567ZM278.412 6.57774C277.606 6.67122 277.158 6.82701 277.426 6.88933C277.695 6.9828 278.233 6.95165 278.771 6.82701C280.205 6.54659 279.936 6.35963 278.412 6.57774ZM243.368 7.69945C243.099 7.79292 243.01 8.07335 243.279 8.29146C243.547 8.54073 243.816 8.44725 243.816 8.10451C243.906 7.76177 243.637 7.57481 243.368 7.69945ZM236.288 5.73647C235.571 5.73647 234.764 5.8611 234.495 6.04805C234.137 6.235 234.943 6.35963 236.288 6.35963C237.632 6.35963 238.439 6.235 238.08 6.04805C237.811 5.8611 237.005 5.73647 236.288 5.73647ZM231.627 5.39372C230.193 4.98866 230.103 5.01982 231.269 5.4872C232.434 6.01689 233.151 6.17268 233.151 5.92342C233.151 5.8611 232.434 5.61183 231.627 5.39372ZM223.74 5.92342C223.023 6.04805 222.396 6.26616 222.396 6.42195C222.396 6.6089 222.933 6.57774 223.74 6.35963C224.457 6.14153 225.084 5.92342 225.084 5.8611C225.084 5.79878 224.457 5.82994 223.74 5.92342ZM214.15 6.95165C212.268 6.6089 212.178 6.6089 213.343 7.07628C213.971 7.38786 214.867 7.60597 215.315 7.60597C216.659 7.60597 216.211 7.32555 214.15 6.95165ZM203.932 4.67708C203.215 4.5836 202.947 4.30318 203.215 4.02275C204.022 3.3061 201.154 3.43074 199.989 4.14738C198.824 4.92635 198.824 5.1133 200.078 5.1133C200.527 5.1133 200.706 4.9575 200.437 4.80171C200.168 4.61476 200.527 4.49013 201.333 4.49013C202.23 4.49013 202.498 4.64592 202.14 4.86403C201.781 5.08214 201.781 5.17561 202.23 5.05098C202.588 4.92634 203.395 5.05098 204.022 5.30025C205.008 5.76762 205.098 5.76762 205.098 5.3314C205.098 5.05098 204.56 4.77055 203.932 4.67708ZM190.13 3.55537C189.682 3.55537 189.234 3.77348 189.234 4.05391C189.234 4.30318 189.682 4.42781 190.13 4.33433C190.668 4.24086 191.026 4.02275 191.026 3.8358C191.026 3.68001 190.668 3.55537 190.13 3.55537ZM176.238 5.95457C175.521 5.82994 174.714 5.89226 174.445 6.04805C174.087 6.235 174.714 6.35963 175.7 6.35963C177.941 6.35963 178.12 6.17268 176.238 5.95457ZM168.44 4.2097C166.827 4.24086 166.737 4.27202 167.992 4.39665C169.336 4.52128 169.426 4.61476 168.44 5.05098C167.365 5.51835 167.454 5.54951 168.888 5.14445C171.039 4.55244 170.77 4.17854 168.44 4.2097ZM86.6111 0.75111C85.8044 0.533001 85.2667 0.501841 85.2667 0.688791C85.2667 0.844584 85.894 1.0627 86.6111 1.18733C87.3281 1.2808 87.9555 1.31196 87.9555 1.24965C87.9555 1.18733 87.3281 0.969219 86.6111 0.75111ZM63.5769 5.20677C62.8599 5.30025 63.1289 5.39372 64.1148 5.39372C65.1007 5.42488 65.6384 5.33141 65.2798 5.23793C65.011 5.14445 64.2043 5.11329 63.5769 5.20677ZM61.2466 1.53007C60.9778 1.62355 61.2467 1.87281 61.8741 2.09092C62.7704 2.37135 62.86 2.34019 62.3222 1.90397C62.0533 1.59239 61.5155 1.4366 61.2466 1.53007ZM49.416 1.37428C48.9678 1.37428 48.5197 1.4366 48.5197 1.49891C48.5197 1.59239 48.9678 1.74818 49.416 1.84166C49.9537 1.93513 50.3122 1.87281 50.3122 1.71702C50.3122 1.53007 49.9537 1.37428 49.416 1.37428ZM27.9055 3.86696C27.4574 3.86696 27.0093 3.92927 27.0093 3.99159C27.0093 4.08507 27.4574 4.24086 27.9055 4.33433C28.4433 4.42781 28.8018 4.36549 28.8018 4.2097C28.8018 4.02275 28.4433 3.86696 27.9055 3.86696ZM17.3296 2.46483C17.0607 2.5583 17.3296 2.80757 17.957 3.02568C18.8533 3.3061 18.9429 3.27495 18.4051 2.83873C18.1363 2.52714 17.5984 2.37135 17.3296 2.46483ZM11.7727 3.55537C11.3246 3.55537 10.8765 3.61769 10.8765 3.68001C10.8765 3.77348 11.3246 3.92927 11.7727 4.02275C12.3105 4.11623 12.669 4.05391 12.669 3.89812C12.669 3.71116 12.3105 3.55537 11.7727 3.55537Z" fill="#39B52C"/>
</svg>
