<svg width="90" height="90" viewBox="0 0 90 90" fill="none" xmlns="http://www.w3.org/2000/svg">
<g clip-path="url(#clip0_893_470)">
<path d="M81.341 45.4066L82.8719 45.8149L82.9184 45.1055L83.5229 45.145L83.4689 45.9686L85.3805 46.4726L85.4472 45.4563L86.0517 45.4958L85.978 46.6175L87.439 47.0126L87.3965 47.661L85.9354 47.2659L85.8524 48.5272L87.3135 48.9228L87.2709 49.5708L85.8098 49.1757L85.7633 49.8856L85.1588 49.8456L85.2128 49.022L83.3012 48.5184L83.2345 49.5348L82.63 49.4948L82.7037 48.3736L81.1729 47.9648L81.2154 47.3164L82.7463 47.7251L82.8293 46.4634L81.2984 46.0546L81.341 45.4066ZM83.4264 46.617L83.3438 47.87L85.2553 48.374L85.3379 47.121L83.4264 46.617Z" fill="#414143"/>
<path d="M80.2642 52.5926L80.9482 52.7529C81.0821 52.183 81.3003 51.7142 81.6028 51.3463C81.9044 50.9841 82.2749 50.7373 82.7144 50.6061C83.153 50.4801 83.6399 50.4805 84.1755 50.6061C84.9907 50.797 85.5672 51.1851 85.9048 51.769C86.2472 52.3604 86.3161 53.0923 86.1116 53.9642L86.7442 54.1125L86.5357 55.0016L85.903 54.8532C85.6984 55.7251 85.3121 56.3472 84.7436 56.7186C84.1799 57.0975 83.4906 57.1914 82.6753 57C82.134 56.8731 81.6959 56.6532 81.3604 56.3397C81.0307 56.028 80.8112 55.643 80.7023 55.1846C80.5935 54.7259 80.6062 54.2118 80.7397 53.6419L80.0557 53.4817L80.2642 52.5926ZM85.1905 54.7763L85.2124 54.6824L81.4342 53.796L81.4122 53.89C81.2902 54.4084 81.3539 54.8681 81.6023 55.2694C81.857 55.6715 82.2859 55.9437 82.89 56.0855C83.5112 56.2313 84.0187 56.1821 84.413 55.9376C84.8068 55.6935 85.0662 55.3063 85.1905 54.7763ZM81.6629 52.8214L81.6405 52.9153L85.4192 53.8017L85.4412 53.7078C85.5654 53.1779 85.5057 52.7156 85.2612 52.3218C85.0171 51.9275 84.5842 51.658 83.963 51.5122C83.3589 51.3704 82.8536 51.4231 82.4466 51.6703C82.0444 51.9249 81.7832 52.3086 81.6629 52.8214Z" fill="#414143"/>
<path d="M79.1747 57.2598L84.8938 59.6287L83.3717 63.3034L82.6658 63.011L83.8384 60.1802L78.8252 58.1036L79.1747 57.2598Z" fill="#414143"/>
<path d="M77.1586 60.6465L77.6411 60.9174L75.6641 64.4397L75.1816 64.1688L77.1586 60.6465Z" fill="#414143"/>
<path d="M75.4088 64.8379L80.3883 68.5156L78.8648 70.5781C78.4684 71.1146 78.0281 71.4298 77.5443 71.5238C77.0648 71.6208 76.585 71.4922 76.1047 71.1375C75.6196 70.7792 75.3509 70.3547 75.2982 69.8647C75.2499 69.3778 75.4242 68.8664 75.8206 68.3295L76.8014 67.0018L74.8662 65.5724L75.4088 64.8379ZM77.388 67.4347L76.4853 68.6565C75.9567 69.3721 76.0055 69.9613 76.6315 70.424C77.2532 70.8828 77.8283 70.7546 78.3569 70.039L79.2595 68.8172L77.388 67.4347Z" fill="#414143"/>
<path d="M71.5497 69.7031L72.189 71.6959L77.1499 72.8571L76.4607 73.5463L72.4748 72.5902L73.679 76.3276L73.0148 76.9918L70.8789 70.3735L71.5497 69.7031Z" fill="#414143"/>
<path d="M68.1941 72.7891L68.9488 73.0995C68.8355 73.333 68.7569 73.574 68.7126 73.8225C68.6713 74.0758 68.6836 74.3524 68.7482 74.6523C68.8083 74.9552 68.9356 75.2968 69.1301 75.6761C69.3281 76.0602 69.6087 76.5041 69.9717 77.0068L71.0662 78.5236L67.6418 80.9953L64.0186 75.9759L64.7522 75.4469L67.9281 79.8468L69.9357 78.3976L69.1547 77.3154C68.6678 76.6411 68.3214 76.0361 68.1147 75.4996C67.9109 74.9675 67.8223 74.4793 67.8482 74.035C67.8723 73.5986 67.9878 73.1833 68.1941 72.7891Z" fill="#414143"/>
<path d="M63.1593 76.4824L65.8852 82.0405L65.1283 82.4114L63.0561 78.1858L61.9357 83.9774L61.3206 84.2791L58.5947 78.721L59.3516 78.35L61.4317 82.5915L62.5446 76.784L63.1593 76.4824Z" fill="#414143"/>
<path d="M56.1813 79.5156L57.7785 84.7014L59.8762 84.0556L60.1014 84.7857L55.0412 86.3438L54.8164 85.6137L56.9141 84.9679L55.3173 79.7817L56.1813 79.5156Z" fill="#414143"/>
<path d="M44.3153 81.3397L43.9127 82.8719L44.6226 82.9158L44.5853 83.5203L43.7615 83.4694L43.265 85.3831L44.2815 85.4459L44.2442 86.0509L43.1224 85.9815L42.7329 87.4439L42.0844 87.4039L42.4739 85.9411L41.2119 85.8634L40.8224 87.3258L40.1739 87.2858L40.5634 85.823L39.8535 85.7791L39.8909 85.1746L40.7147 85.2255L41.2112 83.3118L40.1946 83.249L40.232 82.6445L41.3538 82.7138L41.7564 81.1816L42.4049 81.2216L42.0023 82.7538L43.2643 82.8319L43.6669 81.2997L44.3153 81.3397ZM43.113 83.4294L41.8598 83.3522L41.3632 85.2654L42.6164 85.3432L43.113 83.4294Z" fill="#414143"/>
<path d="M37.0859 80.2613L36.9255 80.9448C37.4954 81.0787 37.9643 81.2969 38.3322 81.5999C38.6944 81.901 38.9411 82.2716 39.0725 82.7115C39.1981 83.1496 39.1981 83.6365 39.0724 84.1725C38.8812 84.9874 38.4935 85.5638 37.9092 85.9014C37.3178 86.2439 36.5862 86.3128 35.7142 86.1082L35.5658 86.7408L34.6768 86.5323L34.8252 85.8997C33.9532 85.6951 33.3314 85.3087 32.9596 84.7406C32.5809 84.1765 32.487 83.4872 32.6782 82.6724C32.8052 82.1306 33.0254 81.6925 33.3385 81.3571C33.6504 81.0274 34.0355 80.8083 34.4939 80.6994C34.9524 80.5901 35.4666 80.6028 36.0365 80.7363L36.1969 80.0527L37.0859 80.2613ZM34.9022 85.1871L34.9961 85.2091L35.8826 81.4308L35.7885 81.4089C35.27 81.2873 34.8101 81.3505 34.4091 81.5994C34.0067 81.8536 33.7347 82.2825 33.5929 82.8866C33.4472 83.5079 33.4964 84.0158 33.7407 84.4096C33.985 84.8039 34.3721 85.0629 34.9022 85.1871ZM36.8571 81.6596L36.7631 81.6376L35.8767 85.4159L35.9707 85.4378C36.5007 85.562 36.9627 85.5023 37.3567 85.2578C37.7507 85.0137 38.0206 84.5808 38.1663 83.9596C38.308 83.3555 38.2552 82.8502 38.0079 82.4437C37.7536 82.0411 37.37 81.7799 36.8571 81.6596Z" fill="#414143"/>
<path d="M32.4322 79.1698L30.0635 84.8889L26.3887 83.3669L26.681 82.6613L29.5122 83.834L31.5886 78.8203L32.4322 79.1698Z" fill="#414143"/>
<path d="M29.08 77.1683L28.8092 77.6508L25.2871 75.6735L25.5579 75.1914L29.08 77.1683Z" fill="#414143"/>
<path d="M24.8715 75.4055L21.1936 80.3849L19.1313 78.8615C18.5946 78.465 18.2793 78.0247 18.1856 77.5409C18.0884 77.0615 18.2173 76.5816 18.572 76.1013C18.9302 75.6167 19.3544 75.3475 19.8446 75.2948C20.3313 75.247 20.843 75.4208 21.3798 75.8173L22.7076 76.7981L24.137 74.8633L24.8715 75.4055ZM22.2745 77.3846L21.0527 76.482C20.337 75.9534 19.7479 76.0021 19.2853 76.6282C18.8263 77.2498 18.9546 77.8249 19.6703 78.3535L20.8921 79.2562L22.2745 77.3846Z" fill="#414143"/>
<path d="M20.0254 71.5654L18.0324 72.2046L16.8713 77.1656L16.1822 76.4763L17.1383 72.4904L13.4007 73.6951L12.7363 73.0304L19.3548 70.8945L20.0254 71.5654Z" fill="#414143"/>
<path d="M16.9553 68.2318L16.6447 68.9869C16.4114 68.8736 16.1705 68.795 15.9219 68.7507C15.6685 68.7094 15.392 68.7217 15.0922 68.7863C14.789 68.8464 14.4477 68.9737 14.0683 69.1682C13.6841 69.3658 13.2405 69.6463 12.7374 70.0098L11.2209 71.1043L8.74902 67.6799L13.7682 64.0566L14.2975 64.7898L9.89773 67.9662L11.347 69.9738L12.4291 69.1923C13.1031 68.7059 13.7084 68.3595 14.2449 68.1527C14.7767 67.949 15.2648 67.8603 15.7094 67.8858C16.1457 67.9104 16.561 68.0259 16.9553 68.2318Z" fill="#414143"/>
<path d="M13.2486 63.1876L7.69082 65.913L7.31963 65.1566L11.5451 63.084L5.75371 61.9636L5.45215 61.3489L11.0099 58.623L11.3811 59.3799L7.13985 61.46L12.947 62.5725L13.2486 63.1876Z" fill="#414143"/>
<path d="M10.2388 56.2874L5.05879 57.9039L5.71272 59.9994L4.9835 60.2272L3.40625 55.1727L4.13547 54.9453L4.78941 57.0408L9.96937 55.4243L10.2388 56.2874Z" fill="#414143"/>
<path d="M8.37183 44.4698L6.83959 44.0672L6.79573 44.7771L6.19102 44.7394L6.24194 43.9157L4.32844 43.4192L4.2656 44.436L3.6609 44.3982L3.73024 43.2767L2.26758 42.8872L2.30767 42.2387L3.77032 42.6282L3.84833 41.3662L2.38567 40.9767L2.42575 40.3282L3.88841 40.7177L3.93229 40.0078L4.53699 40.0452L4.48607 40.869L6.39955 41.3655L6.46242 40.3489L7.06709 40.3863L6.99777 41.508L8.53001 41.9107L8.48992 42.5592L6.95768 42.1566L6.87967 43.4185L8.41191 43.8212L8.37183 44.4698ZM6.28203 43.2673L6.35947 42.014L4.44598 41.5175L4.36852 42.7707L6.28203 43.2673Z" fill="#414143"/>
<path d="M9.44259 37.1621L8.75868 37.0017C8.625 37.5716 8.40676 38.0405 8.10401 38.4083C7.80257 38.7705 7.43204 39.0173 6.99235 39.1487C6.55403 39.2743 6.06702 39.2743 5.53132 39.1486C4.71636 38.9574 4.13995 38.5697 3.80204 37.9853C3.45977 37.394 3.39091 36.6623 3.59547 35.7904L2.96289 35.642L3.17146 34.7529L3.80404 34.9013C4.0086 34.0294 4.395 33.4075 4.96323 33.0358C5.52707 32.657 6.21647 32.5632 7.03143 32.7544C7.57283 32.8814 8.0112 33.1015 8.34661 33.4147C8.67628 33.7265 8.89557 34.1117 9.00449 34.5701C9.11337 35.0286 9.10099 35.5427 8.96726 36.1126L9.65113 36.2731L9.44259 37.1621ZM4.51652 34.9783L4.49444 35.0723L8.27286 35.9587L8.2949 35.8647C8.41659 35.3461 8.35311 34.8863 8.10445 34.4853C7.85012 34.0828 7.42093 33.8108 6.81683 33.6691C6.19566 33.5233 5.68806 33.5726 5.29403 33.8169C4.90005 34.0612 4.64085 34.4483 4.51652 34.9783ZM8.04421 36.9333L8.06629 36.8392L4.28789 35.9528L4.26583 36.0469C4.14149 36.5769 4.20146 37.0388 4.4457 37.4329C4.68998 37.8269 5.12272 38.0968 5.7439 38.2425C6.348 38.3842 6.8534 38.3314 7.26016 38.0841C7.66252 37.8298 7.92388 37.4462 8.04421 36.9333Z" fill="#414143"/>
<path d="M10.5199 32.5143L4.80078 30.1455L6.32283 26.4707L7.02857 26.763L5.85598 29.5942L10.8693 31.6706L10.5199 32.5143Z" fill="#414143"/>
<path d="M12.4619 29.2632L11.9785 28.9942L13.9425 25.4648L14.4259 25.7338L12.4619 29.2632Z" fill="#414143"/>
<path d="M14.2224 25.0023L9.24316 21.3245L10.7665 19.2621C11.163 18.7254 11.6032 18.4102 12.0873 18.3165C12.5665 18.2193 13.0463 18.3481 13.5266 18.7029C14.0115 19.0611 14.2804 19.4853 14.3332 19.9754C14.3812 20.4621 14.207 20.9739 13.8105 21.5106L12.8297 22.8384L14.7649 24.2678L14.2224 25.0023ZM12.2435 22.4054L13.146 21.1835C13.6747 20.4679 13.6259 19.8788 12.9997 19.4162C12.3781 18.9571 11.8031 19.0854 11.2744 19.8011L10.3719 21.0229L12.2435 22.4054Z" fill="#414143"/>
<path d="M18.0466 20.1406L17.4071 18.1476L12.4463 16.9866L13.1355 16.2974L17.1215 17.2536L15.917 13.5159L16.5813 12.8516L18.7171 19.4701L18.0466 20.1406Z" fill="#414143"/>
<path d="M21.3606 17.054L20.6058 16.7433C20.719 16.5101 20.7977 16.2691 20.8421 16.0205C20.883 15.7672 20.871 15.4906 20.8063 15.1909C20.7462 14.8877 20.619 14.5463 20.4245 14.1669C20.2266 13.7828 19.9461 13.3391 19.5829 12.836L18.4883 11.3196L21.9127 8.84766L25.5358 13.8668L24.8025 14.3962L21.6265 9.99636L19.6189 11.4456L20.4 12.5278C20.8865 13.2017 21.2332 13.807 21.44 14.3435C21.6434 14.8753 21.7322 15.3635 21.7066 15.808C21.6822 16.2443 21.5669 16.6596 21.3606 17.054Z" fill="#414143"/>
<path d="M26.5188 13.2613L23.793 7.70352L24.5498 7.33232L26.6222 11.5578L27.7425 5.76641L28.3574 5.46484L31.0833 11.0226L30.3264 11.3938L28.2463 7.15254L27.1337 12.9597L26.5188 13.2613Z" fill="#414143"/>
<path d="M33.2765 10.2954L31.6599 5.11545L29.5645 5.76938L29.3369 5.04016L34.3911 3.46289L34.6187 4.19211L32.5233 4.84602L34.1398 10.026L33.2765 10.2954Z" fill="#414143"/>
<path d="M45.1501 8.37183L45.5527 6.83959L44.8428 6.79573L44.8801 6.19102L45.7041 6.24194L46.2007 4.32844L45.1839 4.2656L45.2212 3.6609L46.3429 3.73024L46.7328 2.26758L47.3812 2.30767L46.9918 3.77032L48.2536 3.84833L48.643 2.38567L49.2918 2.42575L48.902 3.88841L49.6119 3.93229L49.5746 4.53699L48.751 4.48607L48.2544 6.39955L49.2708 6.46242L49.2335 7.06709L48.1117 6.99777L47.7092 8.53001L47.0607 8.48992L47.4633 6.95768L46.2011 6.87967L45.7985 8.41191L45.1501 8.37183ZM46.3526 6.28203L47.6056 6.35947L48.1021 4.44598L46.8491 4.36852L46.3526 6.28203Z" fill="#414143"/>
<path d="M52.5391 9.44454L52.6993 8.76067C52.1295 8.62695 51.6606 8.40871 51.2927 8.10595C50.9305 7.80452 50.6838 7.43398 50.5525 6.9943C50.4265 6.55598 50.4265 6.06897 50.5525 5.53327C50.7435 4.71831 51.1311 4.1419 51.7155 3.80399C52.3068 3.46172 53.0387 3.39287 53.9106 3.59743L54.059 2.96484L54.948 3.17341L54.7996 3.80599C55.6715 4.01055 56.2936 4.39695 56.665 4.96517C57.0439 5.52901 57.1379 6.21841 56.9465 7.03337C56.8196 7.57478 56.5996 8.01315 56.2862 8.34856C55.9745 8.67822 55.5894 8.89752 55.1307 9.00644C54.6723 9.11532 54.1582 9.10294 53.5884 8.96921L53.4281 9.65308L52.5391 9.44454ZM54.7228 4.51847L54.6288 4.49643L53.7425 8.2748L53.8364 8.29684C54.3549 8.41854 54.8146 8.35506 55.2158 8.10639C55.618 7.85207 55.8902 7.42288 56.032 6.81878C56.1777 6.1976 56.1286 5.69 55.884 5.29598C55.6399 4.902 55.2527 4.6428 54.7228 4.51847ZM52.7678 8.04616L52.8618 8.06824L53.7482 4.28984L53.6542 4.26778C53.1243 4.14344 52.662 4.20341 52.2682 4.4477C51.874 4.69193 51.6044 5.12467 51.4587 5.74585C51.3168 6.34995 51.3695 6.85535 51.6167 7.26211C51.8713 7.66447 52.255 7.92582 52.7678 8.04616Z" fill="#414143"/>
<path d="M57.1953 10.5218L59.5639 4.80273L63.2389 6.32479L62.9465 7.03056L60.1153 5.85793L58.0391 10.8713L57.1953 10.5218Z" fill="#414143"/>
<path d="M60.4258 12.4502L60.6949 11.9668L64.2242 13.9307L63.9551 14.4141L60.4258 12.4502Z" fill="#414143"/>
<path d="M64.7119 14.2233L68.3896 9.24414L70.4517 10.7675C70.9886 11.164 71.3039 11.6042 71.3978 12.0882C71.4948 12.5675 71.3658 13.0473 71.011 13.5276C70.6528 14.0125 70.2287 14.2814 69.7387 14.3341C69.2519 14.3822 68.7404 14.208 68.2035 13.8115L66.8759 12.8308L65.4464 14.7659L64.7119 14.2233ZM67.3087 12.2445L68.5306 13.147C69.2462 13.6757 69.8353 13.6269 70.2981 13.0007C70.7568 12.3791 70.6286 11.804 69.913 11.2754L68.6912 10.3729L67.3087 12.2445Z" fill="#414143"/>
<path d="M69.5879 18.0612L71.5811 17.4217L72.7418 12.4609L73.4311 13.1501L72.4749 17.1361L76.2128 15.9316L76.877 16.596L70.2583 18.7318L69.5879 18.0612Z" fill="#414143"/>
<path d="M72.6865 21.3938L72.9969 20.639C73.23 20.7521 73.4711 20.8309 73.72 20.8753C73.9733 20.9162 74.2499 20.9042 74.5493 20.8394C74.8527 20.7794 75.1938 20.6522 75.5735 20.4577C75.9577 20.2598 76.4011 19.9793 76.9042 19.6161L78.4206 18.5215L80.8928 21.9459L75.8734 25.569L75.3439 24.8357L79.7438 21.6597L78.2946 19.6521L77.2124 20.4332C76.5385 20.9197 75.9331 21.2664 75.3966 21.4732C74.865 21.6766 74.3768 21.7654 73.9325 21.7398C73.4961 21.7154 73.0808 21.6001 72.6865 21.3938Z" fill="#414143"/>
<path d="M76.3662 26.3597L81.9137 23.6133L82.2878 24.3687L78.0701 26.4568L83.8656 27.5556L84.1694 28.1694L78.6219 30.9159L78.2479 30.1605L82.4814 28.0646L76.67 26.9735L76.3662 26.3597Z" fill="#414143"/>
<path d="M79.4531 33.3673L84.6327 31.7507L83.979 29.6553L84.7082 29.4277L86.2857 34.482L85.5564 34.7095L84.9023 32.6141L79.7222 34.2306L79.4531 33.3673Z" fill="#414143"/>
<path d="M45 19L45.5985 42.3555L61.0697 24.8489L46.5155 43.125L69.6202 39.6588L46.7234 44.3039L66.6506 56.5L46.1249 45.3406L53.5505 67.4923L45 45.75L36.4495 67.4923L43.8751 45.3406L23.3494 56.5L43.2766 44.3039L20.3798 39.6588L43.4845 43.125L28.9303 24.8489L44.4015 42.3555L45 19Z" fill="#414143"/>
</g>
<defs>
<clipPath id="clip0_893_470">
<rect width="90" height="90" fill="white"/>
</clipPath>
</defs>
</svg>
