<svg width="410" height="11" viewBox="0 0 410 11" fill="none" xmlns="http://www.w3.org/2000/svg">
<path fill-rule="evenodd" clip-rule="evenodd" d="M408.506 9.56617C407.472 9.97746 405.52 10.2174 402.535 10.2174C400.123 10.2517 397.711 10.3888 397.252 10.5944C396.793 10.8 396.334 10.6629 396.334 10.3202C396.334 9.97746 395.53 9.73754 394.381 9.73754C392.774 9.73754 392.659 9.80609 393.922 10.046C395.989 10.4573 392.888 10.7315 386.802 10.6972H382.439L384.965 10.046C386.343 9.70327 386.917 9.3948 386.228 9.3948C385.424 9.3948 383.817 9.70327 382.439 10.1146C380.601 10.663 379.223 10.8 376.582 10.6287C374.515 10.5259 372.333 10.5944 371.529 10.8C370.611 11.0057 369.922 11.0742 369.922 10.9029C369.922 10.7315 363.491 10.6287 355.567 10.6629C346.725 10.7315 341.328 10.6287 341.787 10.423C342.821 9.90892 340.18 8.70931 337.998 8.70931C336.39 8.70931 336.39 8.64077 337.653 8.40085C338.572 8.22947 340.065 8.16092 341.098 8.26375C342.476 8.36657 342.361 8.29802 340.869 8.02383C339.376 7.74963 338.342 7.71536 337.309 7.98955C336.505 8.1952 335.586 8.29802 335.357 8.1952C335.012 8.12665 334.782 8.3323 334.782 8.67504C334.782 9.05206 335.586 9.29198 336.505 9.22343C339.146 9.12061 341.098 9.80609 339.605 10.2859C338.457 10.663 322.036 10.663 318.591 10.2517C317.902 10.1831 317.098 10.2859 316.753 10.5259C316.524 10.7658 314.916 10.5601 312.849 9.94319C309.863 9.12061 309.404 8.81214 310.323 8.12665C310.897 7.71536 311.012 7.33834 310.667 7.33834C309.863 7.33834 307.337 9.49762 307.681 9.87464C307.911 10.046 307.222 10.0803 306.418 9.97746C305.5 9.87464 304.122 9.97746 303.433 10.1831C302.514 10.4573 302.169 10.4573 302.169 10.1488C302.169 9.90891 301.021 9.73754 299.528 9.73754C298.035 9.73754 296.313 9.90891 295.509 10.1488C294.705 10.3888 294.131 10.423 294.131 10.2174C294.131 10.046 287.93 9.90892 279.547 9.90892C248.657 9.87464 214.551 9.36053 209.498 8.88069C208.694 8.81214 207.776 8.88069 207.316 9.08633C206.972 9.29198 205.938 9.36053 205.02 9.2577C204.216 9.15488 203.182 9.22343 202.838 9.42907C202.378 9.60045 201.575 9.669 201 9.5319C199.852 9.32625 192.618 9.22343 171.718 9.05206C166.55 8.98351 161.727 9.08633 160.923 9.22343C159.89 9.42908 159.66 9.36053 160.349 9.01778C161.153 8.64077 161.038 8.60649 159.66 8.91496C158.741 9.12061 155.985 9.22343 153.459 9.15488C150.933 9.1206 146.339 9.08633 143.124 9.08633C135.775 9.15488 137.842 9.15488 109.822 8.88069C52.6346 8.29802 48.3857 8.22947 37.4765 7.64681C33.1128 7.44117 27.3711 7.20124 24.8447 7.16697C22.3184 7.09842 20.3661 6.89278 20.481 6.68713C20.7106 6.48148 19.2179 6.41293 16.6915 6.48148C14.5096 6.58431 12.902 6.51576 13.2465 6.37866C13.4761 6.24156 12.4425 6.13874 10.72 6.13874C8.99753 6.17301 6.58606 5.93309 5.32288 5.59035C4.05969 5.28188 1.99268 4.93914 0.729523 4.83632C-0.648499 4.73349 -0.0743408 4.66494 2.45203 4.63067C9.68658 4.5964 10.6053 4.49357 9.34207 4.11656C7.50473 3.56817 7.96405 2.77986 10.0311 3.01978C10.9497 3.1226 11.4091 3.08833 11.0646 2.91695C10.7201 2.74558 10.9498 2.50566 11.6388 2.36857C12.3278 2.23147 12.5575 1.95727 12.0981 1.75163C11.7536 1.51171 12.787 1.7859 14.2799 2.33429C15.8875 2.88268 17.7249 3.22542 18.2991 3.08833C19.9067 2.81413 18.7584 1.85445 17.0359 1.95727C16.3469 1.99155 15.6579 1.71735 15.4282 1.34034C15.0837 0.791946 15.1987 0.757672 16.1173 1.16896C17.036 1.58026 17.6101 1.54598 19.6772 0.997592C21.2849 0.563451 21.8208 0.574875 21.2849 1.03187C20.481 1.61453 20.5959 1.6488 22.4332 1.16896C25.3041 0.517752 32.3089 0.380654 32.3089 0.997592C32.3089 1.27179 32.8831 1.58026 33.6869 1.71735C34.4907 1.85445 34.6056 1.82018 34.1462 1.58025C33.3424 1.20324 33.8017 1.10042 37.2467 1.03187C37.9357 0.997592 38.9693 0.860496 39.4286 0.654849C40.0028 0.449203 40.6918 0.449203 41.6105 0.723397C42.2995 0.929043 43.6775 1.03187 44.4813 0.929042C45.4 0.82622 47.0077 0.963318 48.0412 1.20324C49.6488 1.61453 49.8786 1.61453 48.9599 1.20324C48.2709 0.826221 48.7303 0.75767 51.7159 0.929042C54.0126 1.06614 55.1609 1.03187 54.7016 0.826221C54.3571 0.654849 54.7015 0.5863 55.6202 0.689123C57.113 0.860495 61.5916 1.03187 65.9553 1.13469C67.2185 1.16896 67.6779 1.34033 67.2186 1.54598C66.7592 1.7859 67.3334 1.7859 68.9411 1.51171C70.8933 1.20324 71.9267 1.20324 73.1899 1.51171C74.4531 1.85445 74.9124 1.82018 75.4866 1.40888C76.1756 0.82622 83.9843 0.723398 85.2475 1.30606C85.7068 1.47743 86.97 1.47743 88.1183 1.34034C89.3815 1.16896 90.6447 1.10041 91.2188 1.10041C91.6782 1.13469 92.0227 0.997591 92.0227 0.75767C92.0227 0.552025 92.7117 0.620575 93.5155 0.997592C94.6638 1.44316 95.353 1.51171 95.9272 1.20324C96.6161 0.894769 97.1902 0.894769 98.4534 1.20324C99.6018 1.47743 100.98 1.47743 103.391 1.23751C105.229 1.03187 107.066 0.963317 107.296 1.06614C107.64 1.13469 108.214 0.894769 108.674 0.517752C109.363 -0.133461 109.592 -0.13346 111.085 0.312106C112.119 0.586301 113.497 0.723396 114.186 0.586299C114.875 0.449202 115.104 0.586299 114.645 0.929042C114.186 1.34033 114.645 1.40889 116.712 1.30606C118.435 1.20324 119.813 1.37461 120.502 1.71735C121.305 2.16292 121.765 2.19719 122.454 1.85445C122.913 1.61453 122.684 1.30606 121.765 1.13469C120.961 0.997593 120.616 0.757672 121.076 0.620575C121.42 0.483479 122.569 0.552025 123.372 0.75767C124.521 1.06614 125.325 1.03187 126.358 0.723397C127.507 0.414927 127.621 0.449203 127.047 0.894769C126.588 1.23751 126.818 1.51171 127.507 1.51171C128.196 1.51171 128.425 1.7859 127.966 2.09437C127.621 2.43711 127.621 2.60848 128.081 2.47139C128.885 2.30002 129.574 1.58025 129.803 0.723397C129.918 0.5863 130.722 0.483478 131.641 0.483478C132.559 0.483478 133.363 0.5863 133.363 0.723397C133.363 0.894769 134.511 0.997592 136.004 1.03187C137.382 1.03187 141.172 1.13469 144.502 1.27179C149.325 1.44316 150.818 1.37461 152.426 0.894769C153.727 0.529176 154.148 0.529176 153.689 0.894769C153.115 1.37461 153.689 1.47743 157.478 1.40888C159.89 1.40888 161.727 1.27179 161.497 1.13469C161.153 1.03187 162.531 0.929043 164.368 0.894769C166.206 0.894769 168.043 1.03187 168.388 1.20324C168.847 1.37461 169.88 1.51171 170.799 1.51171C171.718 1.51171 172.292 1.37461 171.947 1.23751C171.718 1.10041 172.521 0.929042 173.899 0.929042C175.392 0.894768 175.852 0.963317 175.048 1.10041C174.129 1.27179 174.014 1.54598 174.703 1.85445C175.622 2.26574 175.852 2.26574 175.852 1.88872C175.852 1.61453 176.541 1.51171 177.574 1.6488C178.493 1.75163 180.675 1.68308 182.397 1.47743C184.005 1.30606 185.728 1.27179 186.072 1.40888C186.417 1.54598 188.598 1.71735 190.78 1.7859C192.962 1.82017 195.144 2.06009 195.603 2.30002C196.292 2.60848 196.522 2.60848 196.522 2.26574C196.522 2.0601 197.441 1.85445 198.589 1.85445C200.197 1.85445 200.311 1.923 198.819 2.19719C197.785 2.40284 197.67 2.53994 198.474 2.53994C199.278 2.53994 200.426 2.26574 201 1.923C201.689 1.61453 202.264 1.51171 202.264 1.71735C202.264 2.23147 210.532 2.26574 211.68 1.75163C212.369 1.44316 212.599 1.44316 212.599 1.75163C212.599 1.99155 213.862 2.19719 215.47 2.19719C217.077 2.19719 218.34 2.33429 218.34 2.53994C218.34 2.71131 217.422 2.77986 216.388 2.67703C214.78 2.50566 214.666 2.53994 215.929 2.81413C216.848 3.01978 218.226 3.08832 219.029 2.9855C219.718 2.91695 220.867 3.2597 221.556 3.80809C222.245 4.3222 222.819 4.56212 222.819 4.3222C222.934 3.70526 225.001 3.80809 225.69 4.49357C226.609 5.35043 232.121 6.10446 232.121 5.3847C232.121 5.11051 231.661 4.97341 230.972 5.11051C229.824 5.31616 224.656 3.94518 225.69 3.67099C226.034 3.56816 227.297 3.67099 228.331 3.94518C229.632 4.24223 229.786 4.19653 228.79 3.80809C227.872 3.46534 226.264 3.2597 225.23 3.32824C224.197 3.39679 222.704 3.19115 221.9 2.84841C220.867 2.33429 220.982 2.19719 222.015 2.26574C222.819 2.33429 223.738 2.43711 224.082 2.53994C224.427 2.64276 226.379 2.9855 228.446 3.29397C232.006 3.87663 232.235 3.87664 234.417 3.22542C236.944 2.47139 238.436 2.30002 237.173 2.95123C236.599 3.19115 236.943 3.2597 238.207 3.1226C239.24 3.01978 240.274 3.08832 240.618 3.32824C241.192 3.63671 241.422 3.63671 241.996 3.32824C242.456 2.9855 243.604 3.01978 246.819 3.39679C249.652 3.73954 250.226 3.69384 248.542 3.2597C246.36 2.71131 246.245 2.57421 247.738 2.40284C248.657 2.30002 249.116 2.33429 248.772 2.53994C248.427 2.74558 249.116 2.88268 250.379 2.88268C251.642 2.88268 252.906 3.01978 253.365 3.19115C254.284 3.67099 260.944 3.56817 260.14 3.08833C259.796 2.88268 260.14 2.95123 261.059 3.22542C262.781 3.84236 267.145 4.15083 265.997 3.60244C265.078 3.1226 265.882 3.1226 270.475 3.70526C273.92 4.11656 274.724 4.11656 276.791 3.70526C278.284 3.36252 279.203 3.32825 279.203 3.56817C279.203 3.77381 279.662 3.84236 280.351 3.73954C280.925 3.63672 281.27 3.73954 280.925 3.97946C280.581 4.21938 280.81 4.63067 281.384 4.90487C282.188 5.31616 282.877 5.31616 284.14 5.00769C284.944 4.76777 286.207 4.73349 286.667 4.87059C287.241 5.00769 287.241 4.90486 286.782 4.66494C286.322 4.42502 285.404 4.3222 284.829 4.42502C284.255 4.56212 283.796 4.49357 283.796 4.28793C283.796 3.56817 286.322 3.53389 287.93 4.1851C288.963 4.63067 290.456 4.83632 291.834 4.76777C293.098 4.69922 294.131 4.76777 294.131 4.97341C294.131 5.14478 294.705 5.28188 295.394 5.28188C295.968 5.28188 296.198 5.11051 295.854 4.93914C295.509 4.73349 295.968 4.5964 297.002 4.5964C298.15 4.5964 298.495 4.42502 298.035 4.1851C297.576 3.97946 298.38 4.04801 299.758 4.35647C301.251 4.63067 303.203 4.80204 304.007 4.69922C305.04 4.59639 305.614 4.76777 305.614 5.11051C305.614 5.62463 305.844 5.6589 307.567 5.24761C308.83 4.90487 309.174 4.90486 308.6 5.17906C308.141 5.41898 308.371 5.62463 308.945 5.62463C310.552 5.62463 310.552 5.17906 308.945 4.69922C308.141 4.4593 308.141 4.25365 308.83 4.11656C309.519 3.97946 310.782 4.1851 311.586 4.49357C313.193 5.17906 315.95 5.45325 315.95 4.97341C315.95 4.80204 316.983 4.5964 318.246 4.49357C319.969 4.35647 320.543 4.49357 320.543 4.93914C320.543 5.69317 318.476 6.17301 315.72 6.03592C314.571 5.96737 313.653 6.07019 313.653 6.24156C313.653 6.41293 314.916 6.55003 316.524 6.55003C318.131 6.55003 319.395 6.41293 319.395 6.24156C319.395 6.07019 319.969 6.03592 320.773 6.17301C321.462 6.31011 321.691 6.27584 321.347 6.07019C320.887 5.86454 321.347 5.5218 322.265 5.28188C323.184 5.04196 323.643 4.69922 323.184 4.4593C322.84 4.25365 323.184 4.25365 324.103 4.49357C324.907 4.73349 326.859 4.93914 328.352 4.93914C330.533 4.93914 330.878 5.07624 330.304 5.6589C329.73 6.17301 329.845 6.31011 330.763 6.17301C331.452 6.03592 332.026 5.62463 332.026 5.24761C332.026 4.66495 332.371 4.63067 334.323 4.93914C335.586 5.14479 336.62 5.55608 336.62 5.89882C336.62 6.37866 336.849 6.41293 337.653 5.96737C338.342 5.69317 338.457 5.35043 338.112 5.14478C337.768 4.97341 337.998 4.93914 338.687 5.07624C339.491 5.21333 340.065 5.55608 340.065 5.83027C340.065 6.13874 340.869 6.31011 342.132 6.24156C343.28 6.17301 343.969 5.86454 343.739 5.5218C343.51 5.21333 343.969 4.93914 344.658 4.93914C345.232 4.93914 345.806 5.11051 345.806 5.35043C345.806 5.55608 346.496 5.45325 347.414 5.07624C348.486 4.6421 348.983 4.65352 348.907 5.11051C348.677 5.83027 352.467 6.07019 354.189 5.45325C354.763 5.24761 354.764 5.45325 354.419 5.86454C353.845 6.44721 354.189 6.65286 355.453 6.65286C356.486 6.65286 357.29 6.41293 357.29 6.13874C357.29 5.86455 357.864 5.62463 358.553 5.62463C359.127 5.62463 359.357 5.76172 359.012 5.96737C358.553 6.20729 359.357 6.20729 361.309 5.96737C363.721 5.69317 364.984 5.76172 367.51 6.27584C370.037 6.82423 371.07 6.89277 372.218 6.55003C373.367 6.24156 373.481 6.24156 372.907 6.55003C372.333 6.8585 372.907 6.9956 374.63 6.9956C376.352 6.9956 376.812 6.8585 376.123 6.55003C375.549 6.31011 376.008 6.41293 377.156 6.75568C378.879 7.33834 379.683 7.37262 382.094 7.02987C385.769 6.55003 389.788 6.51576 388.755 7.02987C388.295 7.30407 388.64 7.30407 390.132 7.06415C393.577 6.51576 398.515 6.92705 398.056 7.71536C397.826 8.09238 398.056 8.29802 398.745 8.1952C399.319 8.0581 399.664 8.3323 399.434 8.77786C399.319 9.29198 399.778 9.5319 400.697 9.46335C401.616 9.42907 401.96 9.5319 401.501 9.73754C401.157 9.90892 401.271 10.0803 401.96 10.0803C402.535 10.0803 403.338 9.94319 403.798 9.73754C404.142 9.56617 405.291 9.5319 406.324 9.63472C407.472 9.77182 407.932 9.70327 407.472 9.49762C407.013 9.29198 407.472 9.05206 408.391 8.91496C410.458 8.67504 410.573 8.74359 408.506 9.56617ZM384.85 8.53794C384.276 8.43512 383.702 8.50367 383.702 8.67504C383.702 8.88069 384.276 9.05206 384.85 9.05206C385.539 9.05206 385.998 8.98351 385.998 8.91496C385.998 8.81214 385.539 8.64077 384.85 8.53794ZM364.41 6.17301C363.835 6.07019 363.376 6.20729 363.376 6.48148C363.376 6.75568 363.835 6.89278 364.41 6.78995C364.869 6.68713 365.328 6.55003 365.328 6.48148C365.328 6.41293 364.869 6.27584 364.41 6.17301ZM360.276 8.94923C359.587 9.05206 359.586 8.94924 360.505 8.67504C362.343 8.0581 362.343 7.50971 360.39 7.98955C359.472 8.1952 358.323 8.22947 357.864 8.09238C357.29 7.95528 357.29 8.0581 357.749 8.26375C358.209 8.50367 358.094 8.70931 357.634 8.70931C357.06 8.70931 356.601 9.01778 356.486 9.42907C356.371 9.94319 356.716 10.046 357.634 9.80609C358.438 9.63472 360.161 9.5319 361.539 9.56617C363.606 9.60045 363.835 9.5319 362.917 9.15488C362.228 8.91496 361.079 8.81214 360.276 8.94923ZM356.716 7.23552C355.682 7.33834 355.108 7.50971 355.453 7.57826C355.797 7.68108 356.486 7.64681 357.175 7.50971C359.012 7.20124 358.668 6.9956 356.716 7.23552ZM311.816 8.46939C311.471 8.57222 311.356 8.88069 311.701 9.12061C312.045 9.3948 312.39 9.29198 312.39 8.91496C312.505 8.53794 312.16 8.3323 311.816 8.46939ZM302.744 6.31011C301.825 6.31011 300.791 6.44721 300.447 6.65286C299.988 6.8585 301.021 6.9956 302.744 6.9956C304.466 6.9956 305.5 6.8585 305.04 6.65286C304.696 6.44721 303.662 6.31011 302.744 6.31011ZM296.772 5.93309C294.935 5.48753 294.82 5.5218 296.313 6.03592C297.806 6.61858 298.724 6.78995 298.724 6.51576C298.724 6.44721 297.806 6.17302 296.772 5.93309ZM286.667 6.51576C285.748 6.65285 284.944 6.89277 284.944 7.06415C284.944 7.26979 285.633 7.23552 286.667 6.9956C287.585 6.75568 288.389 6.51576 288.389 6.44721C288.389 6.37866 287.585 6.41293 286.667 6.51576ZM274.379 7.64681C271.968 7.26979 271.853 7.26979 273.346 7.78391C274.15 8.12665 275.298 8.36657 275.872 8.36657C277.595 8.36657 277.021 8.0581 274.379 7.64681ZM261.288 5.14478C260.37 5.04196 260.025 4.73349 260.37 4.42502C261.403 3.63672 257.729 3.77381 256.236 4.56212C254.743 5.41898 254.743 5.62463 256.351 5.62463C256.925 5.62463 257.154 5.45325 256.81 5.28188C256.465 5.07624 256.925 4.93914 257.958 4.93914C259.107 4.93914 259.451 5.11051 258.992 5.35043C258.532 5.59035 258.532 5.69317 259.107 5.55608C259.566 5.41898 260.599 5.55608 261.403 5.83027C262.666 6.34439 262.781 6.34439 262.781 5.86454C262.781 5.55608 262.092 5.24761 261.288 5.14478ZM243.604 3.91091C243.03 3.91091 242.456 4.15083 242.456 4.4593C242.456 4.73349 243.03 4.87059 243.604 4.76777C244.293 4.66494 244.752 4.42502 244.752 4.21938C244.752 4.04801 244.293 3.91091 243.604 3.91091ZM225.805 6.55003C224.886 6.41293 223.852 6.48148 223.508 6.65286C223.049 6.8585 223.853 6.9956 225.116 6.9956C227.987 6.9956 228.216 6.78995 225.805 6.55003ZM215.814 4.63067C213.747 4.66494 213.632 4.69922 215.24 4.83632C216.962 4.97341 217.077 5.07623 215.814 5.55608C214.436 6.07019 214.551 6.10447 216.388 5.6589C219.144 5.00769 218.8 4.5964 215.814 4.63067ZM110.97 0.826221C109.937 0.586301 109.248 0.552025 109.248 0.75767C109.248 0.929042 110.052 1.16896 110.97 1.30606C111.889 1.40889 112.693 1.44316 112.693 1.37461C112.693 1.30606 111.889 1.06614 110.97 0.826221ZM81.4579 5.72745C80.5392 5.83027 80.8839 5.93309 82.147 5.93309C83.4102 5.96737 84.0991 5.86455 83.6398 5.76172C83.2953 5.6589 82.2617 5.62462 81.4579 5.72745ZM78.4723 1.68308C78.1277 1.7859 78.4723 2.06009 79.2762 2.30002C80.4245 2.60848 80.5393 2.57421 79.8503 2.09437C79.5058 1.75163 78.8167 1.58026 78.4723 1.68308ZM63.3142 1.51171C62.74 1.51171 62.1658 1.58026 62.1658 1.6488C62.1658 1.75163 62.74 1.923 63.3142 2.02582C64.0032 2.12864 64.4625 2.0601 64.4625 1.88872C64.4625 1.68308 64.0032 1.51171 63.3142 1.51171ZM35.754 4.25365C35.1798 4.25365 34.6056 4.3222 34.6056 4.39075C34.6056 4.49357 35.1798 4.66494 35.754 4.76777C36.443 4.87059 36.9023 4.80204 36.9023 4.63067C36.9023 4.42502 36.443 4.25365 35.754 4.25365ZM22.2035 2.71131C21.8589 2.81413 22.2036 3.08832 23.0074 3.32824C24.1557 3.63671 24.2706 3.60244 23.5815 3.1226C23.2371 2.77986 22.548 2.60849 22.2035 2.71131ZM15.0838 3.91091C14.5096 3.91091 13.9355 3.97946 13.9355 4.04801C13.9355 4.15083 14.5096 4.3222 15.0838 4.42502C15.7728 4.52785 16.2321 4.4593 16.2321 4.28793C16.2321 4.08228 15.7728 3.91091 15.0838 3.91091Z" fill="#39B52C"/>
</svg>
