<svg width="231" height="231" viewBox="0 0 231 231" fill="none" xmlns="http://www.w3.org/2000/svg">
<path d="M208.774 116.546L212.704 117.594L212.823 115.773L214.375 115.875L214.236 117.989L219.142 119.282L219.314 116.674L220.865 116.775L220.676 119.654L224.426 120.668L224.317 122.333L220.567 121.319L220.354 124.556L224.104 125.571L223.994 127.234L220.244 126.22L220.125 128.042L218.573 127.94L218.712 125.826L213.806 124.533L213.634 127.142L212.083 127.039L212.272 124.162L208.343 123.112L208.452 121.448L212.381 122.497L212.594 119.259L208.665 118.21L208.774 116.546ZM214.127 119.653L213.915 122.869L218.821 124.163L219.033 120.947L214.127 119.653Z" fill="#414143"/>
<path d="M206.013 134.989L207.768 135.401C208.112 133.938 208.672 132.735 209.448 131.79C210.223 130.861 211.174 130.227 212.302 129.891C213.427 129.567 214.677 129.568 216.052 129.891C218.144 130.381 219.624 131.377 220.49 132.876C221.369 134.393 221.546 136.272 221.021 138.51L222.645 138.891L222.11 141.172L220.486 140.792C219.961 143.029 218.969 144.626 217.51 145.579C216.063 146.552 214.294 146.793 212.201 146.302C210.812 145.976 209.687 145.412 208.826 144.607C207.98 143.807 207.417 142.819 207.137 141.642C206.858 140.465 206.891 139.145 207.233 137.683L205.478 137.271L206.013 134.989ZM218.657 140.594L218.713 140.353L209.016 138.078L208.959 138.319C208.646 139.65 208.81 140.83 209.447 141.86C210.101 142.892 211.202 143.591 212.752 143.955C214.347 144.329 215.649 144.202 216.661 143.575C217.672 142.948 218.338 141.954 218.657 140.594ZM209.603 135.577L209.545 135.818L219.244 138.093L219.3 137.852C219.619 136.492 219.466 135.305 218.838 134.294C218.212 133.282 217.101 132.59 215.506 132.216C213.956 131.852 212.659 131.988 211.614 132.622C210.582 133.276 209.912 134.26 209.603 135.577Z" fill="#414143"/>
<path d="M203.214 146.969L217.894 153.049L213.987 162.481L212.175 161.73L215.185 154.464L202.317 149.135L203.214 146.969Z" fill="#414143"/>
<path d="M198.04 155.66L199.278 156.355L194.204 165.396L192.966 164.701L198.04 155.66Z" fill="#414143"/>
<path d="M193.549 166.416L206.33 175.855L202.419 181.149C201.402 182.526 200.272 183.335 199.03 183.577C197.799 183.826 196.568 183.495 195.335 182.585C194.09 181.665 193.4 180.576 193.265 179.318C193.141 178.069 193.588 176.756 194.606 175.378L197.123 171.97L192.156 168.301L193.549 166.416ZM198.629 173.081L196.312 176.217C194.955 178.054 195.08 179.566 196.687 180.754C198.283 181.931 199.759 181.602 201.116 179.766L203.432 176.63L198.629 173.081Z" fill="#414143"/>
<path d="M183.645 178.906L185.285 184.021L198.018 187.001L196.249 188.771L186.019 186.316L189.11 195.909L187.405 197.614L181.923 180.627L183.645 178.906Z" fill="#414143"/>
<path d="M175.031 186.826L176.968 187.623C176.677 188.222 176.475 188.841 176.362 189.479C176.256 190.129 176.287 190.839 176.453 191.608C176.607 192.386 176.934 193.263 177.433 194.236C177.941 195.222 178.661 196.361 179.593 197.652L182.402 201.545L173.613 207.889L164.313 195.006L166.196 193.648L174.348 204.941L179.501 201.221L177.496 198.444C176.247 196.713 175.358 195.16 174.827 193.783C174.304 192.417 174.076 191.164 174.143 190.024C174.205 188.904 174.501 187.838 175.031 186.826Z" fill="#414143"/>
<path d="M162.109 196.307L169.106 210.572L167.163 211.524L161.844 200.679L158.969 215.544L157.39 216.318L150.394 202.052L152.336 201.1L157.675 211.986L160.532 197.081L162.109 196.307Z" fill="#414143"/>
<path d="M144.2 204.09L148.299 217.4L153.683 215.742L154.261 217.616L141.273 221.615L140.696 219.742L146.08 218.084L141.982 204.773L144.2 204.09Z" fill="#414143"/>
<path d="M113.742 208.773L112.709 212.705L114.531 212.818L114.435 214.37L112.321 214.239L111.046 219.151L113.655 219.312L113.559 220.865L110.68 220.687L109.68 224.44L108.016 224.338L109.016 220.583L105.777 220.384L104.777 224.137L103.112 224.035L104.112 220.28L102.29 220.167L102.386 218.616L104.5 218.746L105.775 213.835L103.166 213.673L103.262 212.122L106.141 212.3L107.174 208.367L108.839 208.47L107.805 212.402L111.044 212.603L112.078 208.67L113.742 208.773ZM110.656 214.137L107.439 213.938L106.165 218.849L109.382 219.048L110.656 214.137Z" fill="#414143"/>
<path d="M95.187 206.004L94.7753 207.758C96.238 208.102 97.4414 208.662 98.3857 209.44C99.3154 210.213 99.9486 211.164 100.286 212.293C100.608 213.417 100.608 214.667 100.286 216.043C99.7949 218.134 98.7997 219.614 97.2999 220.48C95.7821 221.359 93.9042 221.536 91.6662 221.011L91.2852 222.635L89.0034 222.1L89.3844 220.476C87.1464 219.951 85.5504 218.959 84.5962 217.501C83.6239 216.053 83.3831 214.284 83.8739 212.193C84.1998 210.802 84.7648 209.677 85.5686 208.817C86.369 207.97 87.3576 207.408 88.5342 207.129C89.7109 206.848 91.0307 206.881 92.4934 207.223L92.9052 205.469L95.187 206.004ZM89.5819 218.647L89.8232 218.703L92.0984 209.006L91.857 208.95C90.526 208.637 89.3457 208.8 88.3164 209.439C87.2835 210.091 86.5853 211.192 86.2216 212.742C85.8475 214.337 85.9739 215.641 86.6009 216.651C87.2279 217.663 88.2215 218.328 89.5819 218.647ZM94.5996 209.593L94.3583 209.537L92.0831 219.234L92.3245 219.29C93.6848 219.609 94.8706 219.456 95.8819 218.828C96.8932 218.202 97.5859 217.091 97.9599 215.496C98.3236 213.946 98.1882 212.649 97.5534 211.605C96.9007 210.572 95.9161 209.902 94.5996 209.593Z" fill="#414143"/>
<path d="M83.2433 203.202L77.1635 217.881L67.7314 213.974L68.4817 212.163L75.7484 215.173L81.0778 202.305L83.2433 203.202Z" fill="#414143"/>
<path d="M74.6384 198.066L73.9434 199.305L64.9033 194.229L65.5982 192.992L74.6384 198.066Z" fill="#414143"/>
<path d="M63.8364 193.542L54.3966 206.323L49.1034 202.412C47.7257 201.395 46.9166 200.265 46.6762 199.023C46.4267 197.792 46.7573 196.561 47.6678 195.328C48.5873 194.084 49.676 193.393 50.9341 193.258C52.1833 193.135 53.4966 193.581 54.8744 194.599L58.2824 197.116L61.9512 192.15L63.8364 193.542ZM57.171 198.622L54.0349 196.305C52.198 194.948 50.686 195.073 49.4987 196.68C48.3204 198.276 48.6497 199.752 50.4867 201.109L53.6227 203.425L57.171 198.622Z" fill="#414143"/>
<path d="M51.399 183.683L46.2836 185.323L43.3036 198.057L41.5348 196.287L43.9888 186.057L34.3955 189.149L32.6904 187.443L49.6779 181.961L51.399 183.683Z" fill="#414143"/>
<path d="M43.5179 175.13L42.7207 177.068C42.1219 176.778 41.5035 176.576 40.8654 176.462C40.2152 176.356 39.5054 176.388 38.736 176.553C37.9578 176.708 37.0817 177.035 36.1079 177.534C35.1219 178.041 33.9832 178.761 32.6919 179.694L28.7997 182.503L22.4551 173.714L35.3377 164.414L36.6963 166.296L25.4034 174.448L29.1232 179.601L31.9007 177.596C33.6305 176.347 35.1841 175.458 36.5612 174.927C37.9261 174.405 39.179 174.177 40.3199 174.242C41.4398 174.305 42.5058 174.602 43.5179 175.13Z" fill="#414143"/>
<path d="M34.006 162.182L19.741 169.178L18.7883 167.236L29.6338 161.917L14.7691 159.041L13.9951 157.463L28.2601 150.467L29.2128 152.409L18.3269 157.748L33.2319 160.604L34.006 162.182Z" fill="#414143"/>
<path d="M26.28 144.47L12.9847 148.619L14.6631 153.997L12.7914 154.582L8.74316 141.609L10.6148 141.025L12.2933 146.404L25.5885 142.255L26.28 144.47Z" fill="#414143"/>
<path d="M21.4869 114.14L17.5542 113.107L17.4416 114.929L15.8895 114.832L16.0202 112.718L11.1089 111.443L10.9476 114.053L9.39553 113.956L9.57349 111.078L5.81934 110.078L5.92223 108.413L9.67638 109.413L9.87659 106.174L6.12243 105.174L6.22532 103.51L9.97948 104.509L10.0921 102.688L11.6442 102.783L11.5135 104.898L16.4247 106.172L16.5861 103.563L18.1381 103.659L17.9602 106.538L21.8929 107.572L21.79 109.236L17.8573 108.203L17.657 111.442L21.5898 112.475L21.4869 114.14ZM16.1231 111.053L16.3219 107.837L11.4106 106.562L11.2118 109.779L16.1231 111.053Z" fill="#414143"/>
<path d="M24.2367 95.3843L22.4813 94.9725C22.1382 96.4351 21.5781 97.6387 20.801 98.5829C20.0273 99.5125 19.0763 100.146 17.9478 100.483C16.8227 100.806 15.5727 100.805 14.1978 100.483C12.106 99.9922 10.6266 98.997 9.75928 97.4972C8.88079 95.9793 8.70406 94.1014 9.22909 91.8635L7.60547 91.4825L8.1408 89.2007L9.76443 89.5815C10.2895 87.3437 11.2812 85.7475 12.7397 84.7934C14.1869 83.8212 15.9563 83.5804 18.048 84.0711C19.4376 84.3971 20.5628 84.962 21.4237 85.7659C22.2698 86.5663 22.8327 87.5548 23.1122 88.7315C23.3917 89.9082 23.3599 91.2278 23.0167 92.6906L24.7719 93.1024L24.2367 95.3843ZM11.5931 89.7791L11.5364 90.0204L21.2344 92.2956L21.2909 92.0543C21.6033 90.7231 21.4404 89.543 20.8021 88.5136C20.1494 87.4808 19.0478 86.7826 17.4972 86.4188C15.9029 86.0448 14.6001 86.1712 13.5887 86.7982C12.5775 87.4251 11.9122 88.4188 11.5931 89.7791ZM20.6475 94.7968L20.7042 94.5555L11.0063 92.2804L10.9497 92.5218C10.6305 93.8821 10.7845 95.0678 11.4114 96.0792C12.0383 97.0905 13.149 97.7832 14.7434 98.1572C16.2939 98.5209 17.5911 98.3855 18.6351 97.7507C19.6679 97.0979 20.3387 96.1133 20.6475 94.7968Z" fill="#414143"/>
<path d="M27.0022 83.4532L12.3232 77.3734L16.2298 67.9414L18.0412 68.6916L15.0316 75.9583L27.8991 81.2878L27.0022 83.4532Z" fill="#414143"/>
<path d="M31.9867 75.1085L30.7461 74.4181L35.787 65.3594L37.0276 66.0497L31.9867 75.1085Z" fill="#414143"/>
<path d="M36.5045 64.1724L23.7246 54.7325L27.6345 49.4393C28.6521 48.0616 29.7821 47.2525 31.0244 47.0121C32.2546 46.7627 33.486 47.0932 34.7187 48.0038C35.9634 48.9232 36.6535 50.0119 36.789 51.27C36.9122 52.5192 36.4651 53.8327 35.4475 55.2103L32.9301 58.6183L37.8971 62.2871L36.5045 64.1724ZM31.4256 57.5069L33.742 54.3708C35.0989 52.534 34.9736 51.0219 33.3663 49.8347C31.7711 48.6563 30.295 48.9856 28.9382 50.8226L26.6218 53.9586L31.4256 57.5069Z" fill="#414143"/>
<path d="M46.3203 51.6969L44.679 46.5816L31.9463 43.6015L33.7152 41.8327L43.9459 44.2868L40.8544 34.6934L42.5596 32.9883L48.0415 49.9759L46.3203 51.6969Z" fill="#414143"/>
<path d="M54.8245 43.7719L52.8871 42.9746C53.1776 42.3759 53.3797 41.7574 53.4935 41.1193C53.5985 40.4691 53.5679 39.7593 53.4017 38.9899C53.2475 38.2117 52.921 37.3356 52.4218 36.3618C51.9139 35.3758 51.1939 34.2371 50.2618 32.9458L47.4521 29.0536L56.2415 22.709L65.5408 35.5916L63.6587 36.9502L55.5069 25.6573L50.354 29.3771L52.3589 32.1546C53.6076 33.8844 54.4974 35.438 55.0283 36.8151C55.5503 38.18 55.7783 39.4329 55.7125 40.5738C55.6499 41.6937 55.3539 42.7597 54.8245 43.7719Z" fill="#414143"/>
<path d="M68.0656 34.0383L61.0693 19.7733L63.0118 18.8205L68.331 29.666L71.2065 14.8014L72.7848 14.0273L79.7811 28.2923L77.8386 29.2451L72.4996 18.3591L69.6438 33.2641L68.0656 34.0383Z" fill="#414143"/>
<path d="M85.4093 26.4235L81.2602 13.1283L75.8819 14.8067L75.2979 12.935L88.2704 8.88672L88.8545 10.7584L83.4762 12.4368L87.6251 25.7321L85.4093 26.4235Z" fill="#414143"/>
<path d="M115.884 21.4879L116.918 17.5551L115.096 17.4426L115.191 15.8905L117.307 16.0212L118.581 11.1099L115.971 10.9486L116.067 9.39651L118.946 9.57447L119.947 5.82031L121.611 5.9232L120.612 9.67736L123.85 9.87756L124.85 6.12341L126.515 6.2263L125.514 9.98045L127.336 10.0931L127.241 11.6451L125.127 11.5144L123.852 16.4257L126.461 16.5871L126.365 18.1391L123.486 17.9611L122.453 21.8939L120.788 21.791L121.822 17.8583L118.582 17.658L117.549 21.5908L115.884 21.4879ZM118.971 16.1241L122.187 16.3228L123.461 11.4115L120.245 11.2127L118.971 16.1241Z" fill="#414143"/>
<path d="M134.85 24.2406L135.262 22.4853C133.799 22.1421 132.595 21.582 131.651 20.8049C130.722 20.0312 130.088 19.0802 129.751 17.9516C129.428 16.8266 129.428 15.5766 129.751 14.2017C130.242 12.1099 131.236 10.6305 132.736 9.76319C134.254 8.88469 136.133 8.70797 138.37 9.233L138.751 7.60938L141.033 8.1447L140.652 9.76832C142.89 10.2934 144.487 11.2851 145.44 12.7436C146.413 14.1907 146.654 15.9602 146.162 18.0519C145.837 19.4415 145.272 20.5667 144.468 21.4276C143.668 22.2737 142.679 22.8366 141.502 23.1161C140.325 23.3956 139.006 23.3638 137.543 23.0206L137.132 24.7758L134.85 24.2406ZM140.455 11.597L140.214 11.5404L137.939 21.2383L138.18 21.2948C139.511 21.6072 140.691 21.4443 141.721 20.806C142.753 20.1532 143.451 19.0517 143.815 17.5011C144.189 15.9068 144.063 14.604 143.436 13.5926C142.809 12.5814 141.815 11.9161 140.455 11.597ZM135.437 20.6514L135.678 20.7081L137.954 11.0102L137.712 10.9536C136.352 10.6344 135.166 10.7884 134.155 11.4154C133.143 12.0422 132.451 13.1529 132.077 14.7473C131.713 16.2978 131.848 17.595 132.483 18.639C133.136 19.6718 134.121 20.3426 135.437 20.6514Z" fill="#414143"/>
<path d="M146.801 27.0052L152.88 12.3262L162.313 16.2328L161.562 18.0443L154.295 15.0345L148.967 27.9021L146.801 27.0052Z" fill="#414143"/>
<path d="M155.094 31.9574L155.785 30.7168L164.843 35.7576L164.152 36.9982L155.094 31.9574Z" fill="#414143"/>
<path d="M166.095 36.5085L175.534 23.7285L180.827 27.6384C182.205 28.656 183.014 29.786 183.255 31.0283C183.504 32.2585 183.173 33.4899 182.262 34.7227C181.343 35.9673 180.254 36.6574 178.997 36.7929C177.747 36.9161 176.435 36.469 175.056 35.4514L171.649 32.9341L167.98 37.9011L166.095 36.5085ZM172.76 31.4295L175.896 33.7459C177.733 35.1028 179.245 34.9775 180.433 33.3702C181.61 31.775 181.281 30.2989 179.444 28.9421L176.308 26.6257L172.76 31.4295Z" fill="#414143"/>
<path d="M178.608 46.3565L183.724 44.7151L186.704 31.9824L188.473 33.7513L186.018 43.982L195.612 40.8906L197.317 42.5957L180.329 48.0776L178.608 46.3565Z" fill="#414143"/>
<path d="M186.562 54.9115L187.359 52.974C187.958 53.2644 188.576 53.4665 189.215 53.5804C189.865 53.6855 190.575 53.6548 191.344 53.4885C192.122 53.3345 192.998 53.0079 193.973 52.5087C194.959 52.0007 196.097 51.2807 197.388 50.3486L201.28 47.5391L207.625 56.3284L194.742 65.6277L193.383 63.7456L204.676 55.5939L200.957 50.4409L198.179 52.4458C196.449 53.6945 194.895 54.5842 193.518 55.1151C192.154 55.6371 190.901 55.8652 189.76 55.7993C188.64 55.7367 187.574 55.4408 186.562 54.9115Z" fill="#414143"/>
<path d="M196.008 67.6566L210.246 60.6074L211.206 62.5464L200.381 67.9058L215.256 70.7261L216.036 72.3015L201.797 79.3508L200.837 77.4118L211.703 72.0325L196.788 69.2321L196.008 67.6566Z" fill="#414143"/>
<path d="M203.929 85.6427L217.223 81.4936L215.545 76.1154L217.417 75.5312L221.466 88.5039L219.594 89.0879L217.915 83.7096L204.619 87.8587L203.929 85.6427Z" fill="#414143"/>
<g clip-path="url(#clip0_957_2214)">
<path d="M116 58L117.365 111.251L152.639 71.3355L119.455 113.005L172.134 105.102L119.929 115.693L165.363 143.5L118.565 118.057L135.495 168.562L116 118.99L96.5049 168.562L113.435 118.057L66.6366 143.5L112.071 115.693L59.866 105.102L112.545 113.005L79.3611 71.3355L114.635 111.251L116 58Z" fill="#414143"/>
</g>
<defs>
<clipPath id="clip0_957_2214">
<rect width="100" height="100" fill="white" transform="matrix(1 0 0 -1 66 165)"/>
</clipPath>
</defs>
</svg>
