<svg width="809" height="21" viewBox="0 0 809 21" fill="none" xmlns="http://www.w3.org/2000/svg">
<path fill-rule="evenodd" clip-rule="evenodd" d="M805.556 18.2627C803.519 19.0479 799.672 19.5059 793.788 19.5059C789.035 19.5714 784.283 19.8331 783.377 20.2257C782.472 20.6183 781.567 20.3565 781.567 19.7022C781.567 19.0479 779.983 18.5899 777.72 18.5899C774.551 18.5899 774.325 18.7207 776.815 19.1788C780.888 19.9639 774.778 20.4874 762.783 20.422H754.184L759.163 19.1788C761.878 18.5244 763.01 17.9355 761.652 17.9355C760.068 17.9355 756.9 18.5244 754.184 19.3096C750.563 20.3565 747.847 20.6183 742.642 20.2911C738.568 20.0948 734.269 20.2257 732.685 20.6183C730.874 21.0109 729.516 21.1417 729.516 20.8146C729.516 20.4874 716.843 20.2911 701.228 20.3565C683.802 20.4874 673.166 20.2911 674.071 19.8985C676.108 18.917 670.903 16.6269 666.603 16.6269C663.434 16.6269 663.435 16.496 665.924 16.038C667.734 15.7108 670.676 15.5799 672.713 15.7762C675.429 15.9725 675.202 15.8417 672.26 15.3182C669.318 14.7948 667.282 14.7293 665.245 15.2528C663.661 15.6454 661.85 15.8417 661.398 15.6454C660.719 15.5145 660.266 15.9071 660.266 16.5614C660.266 17.2812 661.85 17.7392 663.661 17.6084C668.866 17.4121 672.713 18.7207 669.771 19.6368C667.508 20.3565 635.146 20.3565 628.357 19.5713C626.999 19.4405 625.415 19.6368 624.736 20.0948C624.283 20.5528 621.115 20.1602 617.041 18.9825C611.157 17.4121 610.252 16.8232 612.063 15.5145C613.194 14.7293 613.421 14.0096 612.742 14.0096C611.158 14.0096 606.179 18.1318 606.858 18.8516C607.31 19.1788 605.952 19.2442 604.368 19.0479C602.558 18.8516 599.842 19.0479 598.484 19.4405C596.674 19.9639 595.995 19.9639 595.995 19.375C595.995 18.917 593.732 18.5899 590.79 18.5899C587.848 18.5899 584.453 18.917 582.869 19.375C581.285 19.8331 580.153 19.8985 580.153 19.5059C580.153 19.1788 567.933 18.917 551.412 18.917C490.535 18.8516 423.322 17.8701 413.365 16.954C411.78 16.8232 409.97 16.954 409.065 17.3466C408.386 17.7392 406.349 17.8701 404.539 17.6738C402.955 17.4775 400.918 17.6084 400.239 18.001C399.334 18.3281 397.75 18.459 396.618 18.1973C394.355 17.8047 380.098 17.6084 338.91 17.2812C328.726 17.1503 319.221 17.3466 317.637 17.6084C315.6 18.001 315.147 17.8701 316.505 17.2158C318.089 16.496 317.863 16.4306 315.147 17.0195C313.337 17.4121 307.905 17.6084 302.927 17.4775C297.948 17.4121 288.896 17.3466 282.559 17.3466C268.075 17.4775 272.149 17.4775 216.93 16.954C104.229 15.8417 95.8553 15.7108 74.3561 14.5985C65.7564 14.2059 54.441 13.7478 49.4623 13.6824C44.4835 13.5515 40.6362 13.1589 40.8625 12.7663C41.3151 12.3737 38.3732 12.2429 33.3945 12.3737C29.0947 12.57 25.9263 12.4392 26.6053 12.1774C27.0579 11.9157 25.0209 11.7194 21.6263 11.7194C18.2318 11.7848 13.4794 11.3268 10.99 10.6725C8.50061 10.0836 4.42706 9.42927 1.93768 9.23297C-0.778015 9.03667 0.353516 8.9058 5.33234 8.84037C19.5897 8.77494 21.4001 8.57864 18.9108 7.85888C15.2899 6.81195 16.195 5.307 20.2686 5.76503C22.079 5.96133 22.9843 5.8959 22.3054 5.56873C21.6265 5.24157 22.079 4.78354 23.4369 4.52181C24.7947 4.26008 25.2474 3.73661 24.3422 3.34402C23.6633 2.88599 25.6998 3.40945 28.6418 4.45638C31.8101 5.5033 35.431 6.15763 36.5626 5.8959C39.7309 5.37243 37.4678 3.54031 34.0732 3.73661C32.7154 3.80204 31.3575 3.27858 30.9049 2.55882C30.226 1.5119 30.4525 1.44647 32.2629 2.23166C34.0734 3.01685 35.2049 2.95142 39.2784 1.9045C42.4467 1.07568 43.5029 1.09749 42.4468 1.96993C40.8627 3.08228 41.0889 3.14772 44.7099 2.23166C50.3676 0.988436 64.1722 0.726706 64.1722 1.9045C64.1722 2.42796 65.3037 3.01685 66.8878 3.27858C68.472 3.54031 68.6984 3.47488 67.7932 3.01685C66.209 2.29709 67.1141 2.10079 73.9033 1.96993C75.2612 1.9045 77.298 1.64277 78.2032 1.25017C79.3348 0.857571 80.6926 0.857569 82.5031 1.38103C83.861 1.77363 86.5767 1.96992 88.1608 1.77363C89.9713 1.57733 93.1395 1.83906 95.1763 2.29709C98.3446 3.08228 98.7973 3.08228 96.9869 2.29709C95.629 1.57733 96.5343 1.44646 102.418 1.77363C106.944 2.03536 109.207 1.96993 108.302 1.57733C107.623 1.25017 108.302 1.1193 110.113 1.3156C113.055 1.64276 121.88 1.96993 130.48 2.16623C132.97 2.23166 133.875 2.55882 132.97 2.95142C132.065 3.40945 133.196 3.40945 136.364 2.88599C140.212 2.29709 142.248 2.29709 144.738 2.88599C147.227 3.54032 148.132 3.47488 149.264 2.68969C150.622 1.57733 166.011 1.38103 168.5 2.49339C169.405 2.82055 171.895 2.82055 174.158 2.55882C176.647 2.23166 179.136 2.10079 180.268 2.10079C181.173 2.16622 181.852 1.90449 181.852 1.44646C181.852 1.05387 183.21 1.18473 184.794 1.9045C187.057 2.75512 188.415 2.88599 189.547 2.29709C190.905 1.7082 192.036 1.7082 194.525 2.29709C196.788 2.82055 199.504 2.82055 204.257 2.36252C207.878 1.96993 211.498 1.83906 211.951 2.03536C212.63 2.16623 213.762 1.7082 214.667 0.988436C216.025 -0.254787 216.477 -0.254787 219.419 0.59584C221.456 1.1193 224.172 1.38103 225.529 1.1193C226.887 0.857569 227.34 1.1193 226.435 1.77363C225.529 2.55882 226.435 2.68969 230.508 2.49339C233.903 2.29709 236.618 2.62426 237.976 3.27858C239.56 4.12921 240.466 4.19464 241.824 3.54032C242.729 3.08228 242.276 2.49339 240.466 2.16623C238.882 1.9045 238.203 1.44647 239.108 1.18474C239.787 0.923004 242.05 1.05387 243.634 1.44646C245.897 2.03536 247.481 1.96993 249.518 1.38103C251.781 0.792135 252.008 0.857569 250.876 1.70819C249.971 2.36252 250.423 2.88599 251.781 2.88599C253.139 2.88599 253.591 3.40945 252.686 3.99834C252.007 4.65267 252.008 4.97983 252.913 4.7181C254.497 4.39094 255.855 3.01685 256.307 1.38103C256.534 1.1193 258.118 0.923004 259.928 0.923004C261.739 0.923004 263.323 1.1193 263.323 1.38103C263.323 1.70819 265.586 1.9045 268.528 1.96993C271.243 1.96993 278.712 2.16622 285.275 2.42796C294.779 2.75512 297.722 2.62425 300.89 1.70819C303.455 1.01025 304.284 1.01025 303.379 1.70819C302.248 2.62425 303.379 2.82055 310.847 2.68969C315.6 2.68969 319.221 2.42796 318.768 2.16623C318.089 1.96993 320.805 1.77363 324.426 1.70819C328.047 1.70819 331.668 1.96993 332.347 2.29709C333.252 2.62426 335.289 2.88599 337.099 2.88599C338.91 2.88599 340.041 2.62425 339.362 2.36252C338.91 2.10079 340.494 1.77363 343.209 1.77363C346.151 1.70819 347.056 1.83906 345.472 2.10079C343.662 2.42796 343.436 2.95142 344.794 3.54032C346.604 4.32551 347.057 4.32551 347.057 3.60575C347.057 3.08228 348.414 2.88599 350.451 3.14772C352.262 3.34402 356.561 3.21315 359.956 2.82055C363.124 2.49339 366.519 2.42796 367.198 2.68969C367.877 2.95142 372.177 3.27858 376.477 3.40945C380.776 3.47488 385.076 3.93291 385.981 4.39094C387.339 4.97983 387.792 4.97984 387.792 4.32551C387.792 3.93291 389.602 3.54032 391.865 3.54032C395.034 3.54032 395.26 3.67118 392.318 4.19464C390.281 4.58724 390.055 4.84897 391.639 4.84897C393.223 4.84897 395.487 4.32551 396.618 3.67118C397.976 3.08228 399.107 2.88599 399.107 3.27858C399.107 4.26007 415.401 4.32551 417.664 3.34402C419.022 2.75512 419.475 2.75512 419.475 3.34402C419.475 3.80204 421.964 4.19464 425.133 4.19464C428.301 4.19464 430.79 4.45638 430.79 4.84897C430.79 5.17614 428.98 5.307 426.943 5.1107C423.775 4.78354 423.549 4.84897 426.038 5.37243C427.848 5.76503 430.564 5.89589 432.148 5.69959C433.506 5.56873 435.769 6.22306 437.127 7.26998C438.485 8.25147 439.616 8.7095 439.616 8.25147C439.843 7.07368 443.916 7.26998 445.274 8.57864C447.085 10.2145 457.947 11.654 457.947 10.2799C457.947 9.75643 457.042 9.4947 455.684 9.75643C453.421 10.149 443.237 7.53171 445.274 7.00825C445.953 6.81195 448.442 7.00825 450.479 7.53171C453.044 8.0988 453.346 8.01155 451.384 7.26998C449.574 6.61565 446.406 6.22306 444.369 6.35392C442.332 6.48479 439.39 6.0922 437.806 5.43787C435.769 4.45638 435.995 4.19464 438.032 4.32551C439.616 4.45637 441.427 4.65267 442.106 4.84897C442.785 5.04527 446.632 5.6996 450.705 6.28849C457.721 7.40085 458.174 7.40085 462.473 6.15763C467.452 4.71811 470.394 4.39094 467.905 5.63416C466.773 6.09219 467.452 6.22306 469.941 5.96133C471.978 5.76503 474.015 5.89589 474.694 6.35392C475.826 6.94282 476.278 6.94282 477.41 6.35392C478.315 5.69959 480.578 5.76503 486.915 6.48479C492.497 7.13912 493.628 7.05187 490.309 6.22306C486.009 5.17613 485.783 4.9144 488.725 4.58724C490.536 4.39094 491.441 4.45638 490.762 4.84897C490.083 5.24157 491.441 5.5033 493.93 5.5033C496.42 5.5033 498.909 5.76503 499.814 6.0922C501.625 7.00825 514.751 6.81195 513.166 5.8959C512.487 5.5033 513.166 5.63416 514.977 6.15763C518.371 7.33542 526.971 7.92431 524.708 6.87739C522.898 5.96133 524.482 5.96133 533.534 7.07369C540.323 7.85888 541.907 7.85888 545.981 7.07369C548.923 6.41936 550.733 6.35393 550.733 6.81196C550.733 7.20455 551.639 7.33542 552.996 7.13912C554.128 6.94282 554.807 7.13912 554.128 7.59715C553.449 8.05518 553.902 8.84037 555.033 9.36384C556.617 10.149 557.975 10.149 560.464 9.56013C562.049 9.1021 564.538 9.03667 565.443 9.2984C566.575 9.56013 566.575 9.36383 565.67 8.9058C564.764 8.44777 562.954 8.25148 561.823 8.44777C560.691 8.70951 559.786 8.57864 559.786 8.18604C559.786 6.81195 564.764 6.74652 567.933 7.98974C569.969 8.84037 572.912 9.23297 575.627 9.1021C578.117 8.97124 580.153 9.1021 580.153 9.4947C580.153 9.82186 581.285 10.0836 582.643 10.0836C583.774 10.0836 584.227 9.75643 583.548 9.42927C582.869 9.03667 583.774 8.77494 585.811 8.77494C588.074 8.77494 588.753 8.44777 587.848 7.98974C586.943 7.59715 588.527 7.72801 591.243 8.31691C594.185 8.84037 598.032 9.16753 599.616 8.97123C601.653 8.77494 602.784 9.1021 602.784 9.75643C602.784 10.7379 603.237 10.8034 606.631 10.0182C609.121 9.36384 609.8 9.36383 608.668 9.88729C607.763 10.3453 608.216 10.7379 609.347 10.7379C612.515 10.7379 612.515 9.88729 609.347 8.97123C607.763 8.5132 607.763 8.12061 609.121 7.85888C610.478 7.59715 612.968 7.98974 614.552 8.57864C617.72 9.88729 623.152 10.4108 623.152 9.4947C623.152 9.16753 625.189 8.77494 627.678 8.57864C631.073 8.31691 632.204 8.57864 632.204 9.42927C632.204 10.8688 628.13 11.7848 622.699 11.5231C620.436 11.3922 618.626 11.5885 618.626 11.9157C618.626 12.2429 621.115 12.5046 624.283 12.5046C627.452 12.5046 629.941 12.2429 629.941 11.9157C629.941 11.5885 631.072 11.5231 632.657 11.7848C634.014 12.0466 634.467 11.9811 633.788 11.5885C632.883 11.1959 633.788 10.5416 635.599 10.0836C637.409 9.62557 638.314 8.97124 637.409 8.51321C636.73 8.12061 637.409 8.12061 639.22 8.57864C640.804 9.03667 644.651 9.42927 647.593 9.42927C651.893 9.42927 652.572 9.691 651.44 10.8034C650.309 11.7848 650.535 12.0466 652.346 11.7848C653.703 11.5231 654.835 10.7379 654.835 10.0182C654.835 8.90581 655.514 8.84037 659.361 9.42927C661.85 9.82186 663.887 10.6071 663.887 11.2614C663.887 12.1774 664.34 12.2429 665.924 11.3923C667.282 10.8688 667.508 10.2145 666.829 9.82186C666.15 9.4947 666.603 9.42927 667.961 9.691C669.545 9.95273 670.676 10.6071 670.676 11.1305C670.676 11.7194 672.26 12.0466 674.75 11.9157C677.013 11.7848 678.371 11.1959 677.918 10.5416C677.466 9.95273 678.371 9.42927 679.729 9.42927C680.86 9.42927 681.992 9.75643 681.992 10.2145C681.992 10.6071 683.35 10.4108 685.16 9.691C687.272 8.86218 688.253 8.88399 688.102 9.75643C687.649 11.1305 695.117 11.5885 698.512 10.4108C699.644 10.0182 699.644 10.4108 698.965 11.1959C697.833 12.3083 698.512 12.7009 701.002 12.7009C703.038 12.7009 704.623 12.2429 704.623 11.7194C704.623 11.196 705.754 10.7379 707.112 10.7379C708.243 10.7379 708.696 10.9997 708.017 11.3923C707.112 11.8503 708.696 11.8503 712.543 11.3923C717.296 10.8688 719.785 10.9997 724.764 11.9811C729.743 13.0281 731.779 13.1589 734.043 12.5046C736.306 11.9157 736.532 11.9157 735.4 12.5046C734.269 13.0935 735.4 13.3552 738.795 13.3552C742.19 13.3552 743.095 13.0935 741.737 12.5046C740.605 12.0466 741.51 12.2429 743.774 12.8972C747.168 14.0096 748.752 14.075 753.505 13.4207C760.747 12.5046 768.668 12.4392 766.631 13.4207C765.726 13.9441 766.404 13.9441 769.346 13.4861C776.136 12.4392 785.867 13.2244 784.962 14.7293C784.509 15.4491 784.962 15.8417 786.319 15.6454C787.451 15.3837 788.13 15.9071 787.677 16.7577C787.451 17.7392 788.356 18.1973 790.167 18.0664C791.977 18.001 792.656 18.1973 791.751 18.5899C791.072 18.917 791.298 19.2442 792.656 19.2442C793.788 19.2442 795.372 18.9825 796.277 18.5899C796.956 18.2627 799.219 18.1973 801.256 18.3936C803.519 18.6553 804.424 18.5244 803.519 18.1318C802.614 17.7392 803.519 17.2812 805.329 17.0195C809.403 16.5614 809.629 16.6923 805.556 18.2627ZM758.936 16.2997C757.805 16.1034 756.673 16.2343 756.673 16.5614C756.673 16.954 757.805 17.2812 758.936 17.2812C760.294 17.2812 761.199 17.1503 761.199 17.0195C761.199 16.8232 760.294 16.496 758.936 16.2997ZM718.653 11.7848C717.522 11.5885 716.617 11.8503 716.617 12.3737C716.617 12.8972 717.522 13.1589 718.653 12.9626C719.559 12.7663 720.464 12.5046 720.464 12.3737C720.464 12.2429 719.559 11.9811 718.653 11.7848ZM710.506 17.0849C709.149 17.2812 709.149 17.0849 710.959 16.5614C714.58 15.3837 714.58 14.3367 710.733 15.2528C708.922 15.6454 706.659 15.7108 705.754 15.4491C704.623 15.1873 704.623 15.3836 705.528 15.7762C706.433 16.2343 706.207 16.6269 705.301 16.6269C704.17 16.6269 703.265 17.2158 703.038 18.001C702.812 18.9825 703.491 19.1788 705.301 18.7207C706.885 18.3936 710.28 18.1973 712.996 18.2627C717.069 18.3281 717.522 18.1973 715.712 17.4775C714.354 17.0195 712.091 16.8232 710.506 17.0849ZM703.491 13.8133C701.454 14.0096 700.323 14.3367 701.002 14.4676C701.681 14.6639 703.038 14.5985 704.396 14.3367C708.017 13.7478 707.338 13.3552 703.491 13.8133ZM615.005 16.1688C614.326 16.3651 614.099 16.954 614.778 17.4121C615.457 17.9355 616.136 17.7392 616.136 17.0195C616.363 16.2997 615.684 15.9071 615.005 16.1688ZM597.126 12.0466C595.316 12.0466 593.279 12.3083 592.6 12.7009C591.695 13.0935 593.732 13.3552 597.126 13.3552C600.521 13.3552 602.558 13.0935 601.653 12.7009C600.974 12.3083 598.937 12.0466 597.126 12.0466ZM585.358 11.3268C581.737 10.4762 581.511 10.5416 584.453 11.5231C587.395 12.6355 589.206 12.9626 589.206 12.4392C589.206 12.3083 587.395 11.7848 585.358 11.3268ZM565.443 12.4392C563.633 12.7009 562.049 13.1589 562.049 13.4861C562.049 13.8787 563.407 13.8133 565.443 13.3552C567.254 12.8972 568.838 12.4392 568.838 12.3083C568.838 12.1774 567.254 12.2429 565.443 12.4392ZM541.228 14.5985C536.476 13.8787 536.25 13.8787 539.192 14.8602C540.776 15.5145 543.039 15.9725 544.17 15.9725C547.565 15.9725 546.433 15.3837 541.228 14.5985ZM515.43 9.82186C513.619 9.62556 512.94 9.03667 513.619 8.44777C515.656 6.94282 508.414 7.20455 505.472 8.70951C502.53 10.3453 502.53 10.7379 505.698 10.7379C506.83 10.7379 507.282 10.4108 506.603 10.0836C505.925 9.691 506.83 9.42927 508.867 9.42927C511.13 9.42927 511.809 9.75643 510.903 10.2145C509.998 10.6725 509.998 10.8688 511.13 10.6071C512.035 10.3453 514.072 10.6071 515.656 11.1305C518.145 12.112 518.371 12.112 518.371 11.1959C518.371 10.6071 517.014 10.0182 515.43 9.82186ZM480.578 7.46628C479.447 7.46628 478.315 7.92431 478.315 8.51321C478.315 9.03667 479.447 9.2984 480.578 9.1021C481.936 8.9058 482.841 8.44778 482.841 8.05518C482.841 7.72801 481.936 7.46628 480.578 7.46628ZM445.5 12.5046C443.69 12.2429 441.653 12.3737 440.974 12.7009C440.069 13.0935 441.653 13.3552 444.143 13.3552C449.8 13.3552 450.253 12.9626 445.5 12.5046ZM425.811 8.84037C421.738 8.9058 421.512 8.97124 424.68 9.23297C428.075 9.4947 428.301 9.69099 425.811 10.6071C423.096 11.5885 423.322 11.654 426.943 10.8034C432.374 9.56013 431.695 8.77494 425.811 8.84037ZM219.193 1.57733C217.156 1.1193 215.798 1.05387 215.798 1.44646C215.798 1.77363 217.382 2.23166 219.193 2.49339C221.003 2.68969 222.588 2.75512 222.588 2.62426C222.588 2.49339 221.003 2.03536 219.193 1.57733ZM161.032 10.9342C159.221 11.1305 159.9 11.3268 162.39 11.3268C164.879 11.3923 166.237 11.196 165.332 10.9997C164.653 10.8034 162.616 10.7379 161.032 10.9342ZM155.148 3.21315C154.469 3.40945 155.148 3.93291 156.732 4.39094C158.995 4.97983 159.221 4.9144 157.864 3.99834C157.185 3.34402 155.827 3.01685 155.148 3.21315ZM125.275 2.88599C124.144 2.88599 123.012 3.01685 123.012 3.14772C123.012 3.34402 124.144 3.67118 125.275 3.86748C126.633 4.06378 127.538 3.93291 127.538 3.60575C127.538 3.21315 126.633 2.88599 125.275 2.88599ZM70.9615 8.12061C69.83 8.12061 68.6984 8.25148 68.6984 8.38234C68.6984 8.57864 69.83 8.9058 70.9615 9.1021C72.3193 9.2984 73.2245 9.16753 73.2245 8.84037C73.2245 8.44777 72.3193 8.12061 70.9615 8.12061ZM44.2571 5.17614C43.5782 5.37243 44.2573 5.89589 45.8414 6.35392C48.1045 6.94282 48.3308 6.87739 46.973 5.96133C46.294 5.307 44.936 4.97984 44.2571 5.17614ZM30.2261 7.46628C29.0946 7.46628 27.9631 7.59715 27.9631 7.72801C27.9631 7.92431 29.0946 8.25148 30.2261 8.44777C31.584 8.64407 32.4892 8.51321 32.4892 8.18604C32.4892 7.79345 31.584 7.46628 30.2261 7.46628Z" fill="#39B52C"/>
</svg>
