<svg width="529" height="21" viewBox="0 0 529 21" fill="none" xmlns="http://www.w3.org/2000/svg">
<path fill-rule="evenodd" clip-rule="evenodd" d="M527.072 18.2627C525.739 19.0479 523.22 19.5059 519.368 19.5059C516.256 19.5714 513.145 19.8331 512.552 20.2257C511.959 20.6183 511.367 20.3565 511.367 19.7022C511.367 19.0479 510.33 18.5899 508.848 18.5899C506.774 18.5899 506.626 18.7207 508.256 19.1788C510.922 19.9639 506.922 20.4874 499.069 20.422H493.439L496.699 19.1788C498.477 18.5244 499.217 17.9355 498.328 17.9355C497.291 17.9355 495.217 18.5244 493.439 19.3096C491.068 20.3565 489.29 20.6183 485.883 20.2911C483.216 20.0948 480.401 20.2257 479.364 20.6183C478.178 21.0109 477.289 21.1417 477.289 20.8146C477.289 20.4874 468.992 20.2911 458.769 20.3565C447.36 20.4874 440.396 20.2911 440.989 19.8985C442.322 18.917 438.915 16.6269 436.099 16.6269C434.025 16.6269 434.025 16.496 435.655 16.038C436.84 15.7108 438.767 15.5799 440.1 15.7762C441.878 15.9725 441.73 15.8417 439.804 15.3182C437.877 14.7948 436.544 14.7293 435.211 15.2528C434.173 15.6454 432.988 15.8417 432.692 15.6454C432.247 15.5145 431.951 15.9071 431.951 16.5614C431.951 17.2812 432.988 17.7392 434.173 17.6084C437.581 17.4121 440.1 18.7207 438.174 19.6368C436.692 20.3565 415.505 20.3565 411.06 19.5713C410.171 19.4405 409.134 19.6368 408.689 20.0948C408.393 20.5528 406.318 20.1602 403.651 18.9825C399.799 17.4121 399.207 16.8232 400.392 15.5145C401.133 14.7293 401.281 14.0096 400.836 14.0096C399.799 14.0096 396.54 18.1318 396.984 18.8516C397.28 19.1788 396.391 19.2442 395.354 19.0479C394.169 18.8516 392.391 19.0479 391.502 19.4405C390.317 19.9639 389.872 19.9639 389.872 19.375C389.872 18.917 388.391 18.5899 386.464 18.5899C384.538 18.5899 382.316 18.917 381.279 19.375C380.242 19.8331 379.501 19.8985 379.501 19.5059C379.501 19.1788 371.5 18.917 360.684 18.917C320.828 18.8516 276.823 17.8701 270.304 16.954C269.267 16.8232 268.081 16.954 267.489 17.3466C267.044 17.7392 265.711 17.8701 264.525 17.6738C263.488 17.4775 262.155 17.6084 261.71 18.001C261.118 18.3281 260.08 18.459 259.34 18.1973C257.858 17.8047 248.524 17.6084 221.558 17.2812C214.89 17.1503 208.667 17.3466 207.63 17.6084C206.297 18.001 206.001 17.8701 206.889 17.2158C207.927 16.496 207.779 16.4306 206.001 17.0195C204.815 17.4121 201.259 17.6084 198 17.4775C194.74 17.4121 188.813 17.3466 184.665 17.3466C175.182 17.4775 177.849 17.4775 141.697 16.954C67.9115 15.8417 62.4294 15.7108 48.3538 14.5985C42.7236 14.2059 35.3154 13.7478 32.0558 13.6824C28.7961 13.5515 26.2773 13.1589 26.4254 12.7663C26.7218 12.3737 24.7957 12.2429 21.5361 12.3737C18.721 12.57 16.6467 12.4392 17.0912 12.1774C17.3875 11.9157 16.054 11.7194 13.8315 11.7194C11.609 11.7848 8.49762 11.3268 6.8678 10.6725C5.23804 10.0836 2.57104 9.42927 0.941284 9.23297C-0.836731 9.03667 -0.0958862 8.9058 3.1637 8.84037C12.498 8.77494 13.6834 8.57864 12.0536 7.85888C9.68292 6.81195 10.2756 5.307 12.9425 5.76503C14.1278 5.96133 14.7205 5.8959 14.2761 5.56873C13.8315 5.24157 14.1279 4.78354 15.0168 4.52181C15.9058 4.26008 16.2022 3.73661 15.6096 3.34402C15.165 2.88599 16.4984 3.40945 18.4245 4.45638C20.4988 5.5033 22.8694 6.15763 23.6103 5.8959C25.6846 5.37243 24.203 3.54031 21.9805 3.73661C21.0915 3.80204 20.2025 3.27858 19.9062 2.55882C19.4617 1.5119 19.61 1.44647 20.7953 2.23166C21.9806 3.01685 22.7214 2.95142 25.3884 1.9045C27.4626 1.07568 28.1541 1.09749 27.4627 1.96993C26.4255 3.08228 26.5737 3.14772 28.9443 2.23166C32.6484 0.988436 41.6864 0.726706 41.6864 1.9045C41.6864 2.42796 42.4272 3.01685 43.4643 3.27858C44.5015 3.54031 44.6497 3.47488 44.057 3.01685C43.0199 2.29709 43.6124 2.10079 48.0574 1.96993C48.9464 1.9045 50.2799 1.64277 50.8725 1.25017C51.6133 0.857571 52.5024 0.857569 53.6877 1.38103C54.5767 1.77363 56.3546 1.96992 57.3918 1.77363C58.5771 1.57733 60.6514 1.83906 61.9848 2.29709C64.0591 3.08228 64.3555 3.08228 63.1702 2.29709C62.2812 1.57733 62.8739 1.44646 66.7262 1.77363C69.6895 2.03536 71.1711 1.96993 70.5784 1.57733C70.1339 1.25017 70.5783 1.1193 71.7636 1.3156C73.6898 1.64276 79.4682 1.96993 85.0984 2.16623C86.7282 2.23166 87.321 2.55882 86.7284 2.95142C86.1357 3.40945 86.8765 3.40945 88.9508 2.88599C91.4696 2.29709 92.803 2.29709 94.4328 2.88599C96.0627 3.54032 96.6553 3.47488 97.3961 2.68969C98.2851 1.57733 108.36 1.38103 109.99 2.49339C110.583 2.82055 112.213 2.82055 113.694 2.55882C115.324 2.23166 116.954 2.10079 117.695 2.10079C118.287 2.16622 118.732 1.90449 118.732 1.44646C118.732 1.05387 119.621 1.18473 120.658 1.9045C122.139 2.75512 123.029 2.88599 123.769 2.29709C124.658 1.7082 125.399 1.7082 127.029 2.29709C128.511 2.82055 130.289 2.82055 133.4 2.36252C135.771 1.96993 138.141 1.83906 138.438 2.03536C138.882 2.16623 139.623 1.7082 140.216 0.988436C141.105 -0.254787 141.401 -0.254787 143.327 0.59584C144.66 1.1193 146.438 1.38103 147.327 1.1193C148.216 0.857569 148.513 1.1193 147.92 1.77363C147.327 2.55882 147.92 2.68969 150.587 2.49339C152.81 2.29709 154.587 2.62426 155.476 3.27858C156.514 4.12921 157.106 4.19464 157.995 3.54032C158.588 3.08228 158.292 2.49339 157.106 2.16623C156.069 1.9045 155.625 1.44647 156.217 1.18474C156.662 0.923004 158.143 1.05387 159.181 1.44646C160.662 2.03536 161.699 1.96993 163.033 1.38103C164.515 0.792135 164.663 0.857569 163.922 1.70819C163.329 2.36252 163.626 2.88599 164.515 2.88599C165.404 2.88599 165.7 3.40945 165.107 3.99834C164.663 4.65267 164.663 4.97983 165.255 4.7181C166.293 4.39094 167.182 3.01685 167.478 1.38103C167.626 1.1193 168.663 0.923004 169.848 0.923004C171.034 0.923004 172.071 1.1193 172.071 1.38103C172.071 1.70819 173.552 1.9045 175.479 1.96993C177.257 1.96993 182.146 2.16622 186.443 2.42796C192.666 2.75512 194.592 2.62425 196.666 1.70819C198.345 1.01025 198.889 1.01025 198.296 1.70819C197.555 2.62425 198.296 2.82055 203.185 2.68969C206.297 2.68969 208.667 2.42796 208.371 2.16623C207.927 1.96993 209.705 1.77363 212.075 1.70819C214.446 1.70819 216.816 1.96993 217.261 2.29709C217.854 2.62426 219.187 2.88599 220.372 2.88599C221.558 2.88599 222.299 2.62425 221.854 2.36252C221.558 2.10079 222.595 1.77363 224.373 1.77363C226.299 1.70819 226.892 1.83906 225.854 2.10079C224.669 2.42796 224.521 2.95142 225.41 3.54032C226.595 4.32551 226.892 4.32551 226.892 3.60575C226.892 3.08228 227.781 2.88599 229.114 3.14772C230.299 3.34402 233.115 3.21315 235.337 2.82055C237.411 2.49339 239.634 2.42796 240.078 2.68969C240.523 2.95142 243.338 3.27858 246.153 3.40945C248.968 3.47488 251.783 3.93291 252.376 4.39094C253.265 4.97983 253.561 4.97984 253.561 4.32551C253.561 3.93291 254.746 3.54032 256.228 3.54032C258.302 3.54032 258.451 3.67118 256.525 4.19464C255.191 4.58724 255.043 4.84897 256.08 4.84897C257.117 4.84897 258.599 4.32551 259.34 3.67118C260.229 3.08228 260.969 2.88599 260.969 3.27858C260.969 4.26007 271.637 4.32551 273.119 3.34402C274.008 2.75512 274.304 2.75512 274.304 3.34402C274.304 3.80204 275.934 4.19464 278.008 4.19464C280.083 4.19464 281.712 4.45638 281.712 4.84897C281.712 5.17614 280.527 5.307 279.194 5.1107C277.119 4.78354 276.971 4.84897 278.601 5.37243C279.786 5.76503 281.564 5.89589 282.601 5.69959C283.49 5.56873 284.972 6.22306 285.861 7.26998C286.75 8.25147 287.491 8.7095 287.491 8.25147C287.639 7.07368 290.306 7.26998 291.195 8.57864C292.38 10.2145 299.492 11.654 299.492 10.2799C299.492 9.75643 298.899 9.4947 298.01 9.75643C296.529 10.149 289.861 7.53171 291.195 7.00825C291.639 6.81195 293.269 7.00825 294.603 7.53171C296.282 8.0988 296.479 8.01155 295.195 7.26998C294.01 6.61565 291.936 6.22306 290.602 6.35392C289.269 6.48479 287.343 6.0922 286.305 5.43787C284.972 4.45638 285.12 4.19464 286.454 4.32551C287.491 4.45637 288.676 4.65267 289.121 4.84897C289.565 5.04527 292.084 5.6996 294.751 6.28849C299.344 7.40085 299.64 7.40085 302.455 6.15763C305.715 4.71811 307.641 4.39094 306.011 5.63416C305.271 6.09219 305.715 6.22306 307.345 5.96133C308.678 5.76503 310.012 5.89589 310.456 6.35392C311.197 6.94282 311.493 6.94282 312.234 6.35392C312.827 5.69959 314.308 5.76503 318.457 6.48479C322.112 7.13912 322.853 7.05187 320.68 6.22306C317.864 5.17613 317.716 4.9144 319.642 4.58724C320.828 4.39094 321.42 4.45638 320.976 4.84897C320.531 5.24157 321.42 5.5033 323.05 5.5033C324.68 5.5033 326.31 5.76503 326.902 6.0922C328.088 7.00825 336.681 6.81195 335.644 5.8959C335.2 5.5033 335.644 5.63416 336.829 6.15763C339.052 7.33542 344.682 7.92431 343.201 6.87739C342.015 5.96133 343.052 5.96133 348.979 7.07369C353.424 7.85888 354.461 7.85888 357.128 7.07369C359.054 6.41936 360.239 6.35393 360.239 6.81196C360.239 7.20455 360.832 7.33542 361.721 7.13912C362.462 6.94282 362.906 7.13912 362.462 7.59715C362.017 8.05518 362.314 8.84037 363.055 9.36384C364.092 10.149 364.981 10.149 366.61 9.56013C367.648 9.1021 369.277 9.03667 369.87 9.2984C370.611 9.56013 370.611 9.36383 370.018 8.9058C369.426 8.44777 368.24 8.25148 367.5 8.44777C366.759 8.70951 366.166 8.57864 366.166 8.18604C366.166 6.81195 369.426 6.74652 371.5 7.98974C372.833 8.84037 374.76 9.23297 376.538 9.1021C378.167 8.97124 379.501 9.1021 379.501 9.4947C379.501 9.82186 380.242 10.0836 381.131 10.0836C381.871 10.0836 382.168 9.75643 381.723 9.42927C381.279 9.03667 381.871 8.77494 383.205 8.77494C384.687 8.77494 385.131 8.44777 384.538 7.98974C383.946 7.59715 384.983 7.72801 386.761 8.31691C388.687 8.84037 391.206 9.16753 392.243 8.97123C393.576 8.77494 394.317 9.1021 394.317 9.75643C394.317 10.7379 394.613 10.8034 396.836 10.0182C398.466 9.36384 398.91 9.36383 398.169 9.88729C397.577 10.3453 397.873 10.7379 398.614 10.7379C400.688 10.7379 400.688 9.88729 398.614 8.97123C397.577 8.5132 397.577 8.12061 398.466 7.85888C399.355 7.59715 400.985 7.98974 402.022 8.57864C404.096 9.88729 407.652 10.4108 407.652 9.4947C407.652 9.16753 408.985 8.77494 410.615 8.57864C412.838 8.31691 413.579 8.57864 413.579 9.42927C413.579 10.8688 410.911 11.7848 407.356 11.5231C405.874 11.3922 404.689 11.5885 404.689 11.9157C404.689 12.2429 406.319 12.5046 408.393 12.5046C410.467 12.5046 412.097 12.2429 412.097 11.9157C412.097 11.5885 412.838 11.5231 413.875 11.7848C414.764 12.0466 415.06 11.9811 414.616 11.5885C414.023 11.1959 414.616 10.5416 415.801 10.0836C416.986 9.62557 417.579 8.97124 416.986 8.51321C416.542 8.12061 416.986 8.12061 418.172 8.57864C419.209 9.03667 421.727 9.42927 423.654 9.42927C426.469 9.42927 426.913 9.691 426.173 10.8034C425.432 11.7848 425.58 12.0466 426.765 11.7848C427.654 11.5231 428.395 10.7379 428.395 10.0182C428.395 8.90581 428.839 8.84037 431.358 9.42927C432.988 9.82186 434.322 10.6071 434.322 11.2614C434.322 12.1774 434.618 12.2429 435.655 11.3923C436.544 10.8688 436.692 10.2145 436.248 9.82186C435.803 9.4947 436.099 9.42927 436.988 9.691C438.026 9.95273 438.766 10.6071 438.766 11.1305C438.766 11.7194 439.804 12.0466 441.433 11.9157C442.915 11.7848 443.804 11.1959 443.508 10.5416C443.211 9.95273 443.804 9.42927 444.693 9.42927C445.434 9.42927 446.175 9.75643 446.175 10.2145C446.175 10.6071 447.064 10.4108 448.249 9.691C449.632 8.86218 450.274 8.88399 450.175 9.75643C449.879 11.1305 454.768 11.5885 456.991 10.4108C457.731 10.0182 457.731 10.4108 457.287 11.1959C456.546 12.3083 456.991 12.7009 458.621 12.7009C459.954 12.7009 460.991 12.2429 460.991 11.7194C460.991 11.196 461.732 10.7379 462.621 10.7379C463.362 10.7379 463.658 10.9997 463.214 11.3923C462.621 11.8503 463.658 11.8503 466.177 11.3923C469.288 10.8688 470.918 10.9997 474.178 11.9811C477.437 13.0281 478.771 13.1589 480.252 12.5046C481.734 11.9157 481.882 11.9157 481.141 12.5046C480.401 13.0935 481.141 13.3552 483.364 13.3552C485.586 13.3552 486.179 13.0935 485.29 12.5046C484.549 12.0466 485.142 12.2429 486.623 12.8972C488.846 14.0096 489.883 14.075 492.995 13.4207C497.736 12.5046 502.922 12.4392 501.588 13.4207C500.995 13.9441 501.44 13.9441 503.366 13.4861C507.811 12.4392 514.182 13.2244 513.589 14.7293C513.293 15.4491 513.589 15.8417 514.478 15.6454C515.219 15.3837 515.664 15.9071 515.367 16.7577C515.219 17.7392 515.812 18.1973 516.997 18.0664C518.182 18.001 518.627 18.1973 518.034 18.5899C517.59 18.917 517.738 19.2442 518.627 19.2442C519.368 19.2442 520.405 18.9825 520.998 18.5899C521.442 18.2627 522.924 18.1973 524.257 18.3936C525.739 18.6553 526.331 18.5244 525.739 18.1318C525.146 17.7392 525.739 17.2812 526.924 17.0195C529.591 16.5614 529.739 16.6923 527.072 18.2627ZM496.551 16.2997C495.81 16.1034 495.069 16.2343 495.069 16.5614C495.069 16.954 495.81 17.2812 496.551 17.2812C497.44 17.2812 498.032 17.1503 498.032 17.0195C498.032 16.8232 497.44 16.496 496.551 16.2997ZM470.177 11.7848C469.436 11.5885 468.844 11.8503 468.844 12.3737C468.844 12.8972 469.436 13.1589 470.177 12.9626C470.77 12.7663 471.363 12.5046 471.363 12.3737C471.363 12.2429 470.77 11.9811 470.177 11.7848ZM464.843 17.0849C463.954 17.2812 463.954 17.0849 465.14 16.5614C467.51 15.3837 467.51 14.3367 464.991 15.2528C463.806 15.6454 462.325 15.7108 461.732 15.4491C460.991 15.1873 460.991 15.3836 461.584 15.7762C462.176 16.2343 462.028 16.6269 461.435 16.6269C460.695 16.6269 460.102 17.2158 459.954 18.001C459.806 18.9825 460.25 19.1788 461.435 18.7207C462.473 18.3936 464.695 18.1973 466.473 18.2627C469.14 18.3281 469.437 18.1973 468.251 17.4775C467.362 17.0195 465.88 16.8232 464.843 17.0849ZM460.25 13.8133C458.917 14.0096 458.176 14.3367 458.621 14.4676C459.065 14.6639 459.954 14.5985 460.843 14.3367C463.214 13.7478 462.769 13.3552 460.25 13.8133ZM402.318 16.1688C401.874 16.3651 401.725 16.954 402.17 17.4121C402.614 17.9355 403.059 17.7392 403.059 17.0195C403.207 16.2997 402.763 15.9071 402.318 16.1688ZM390.613 12.0466C389.428 12.0466 388.094 12.3083 387.65 12.7009C387.057 13.0935 388.391 13.3552 390.613 13.3552C392.836 13.3552 394.169 13.0935 393.576 12.7009C393.132 12.3083 391.798 12.0466 390.613 12.0466ZM382.908 11.3268C380.538 10.4762 380.39 10.5416 382.316 11.5231C384.242 12.6355 385.427 12.9626 385.427 12.4392C385.427 12.3083 384.242 11.7848 382.908 11.3268ZM369.87 12.4392C368.685 12.7009 367.648 13.1589 367.648 13.4861C367.648 13.8787 368.537 13.8133 369.87 13.3552C371.055 12.8972 372.093 12.4392 372.093 12.3083C372.093 12.1774 371.055 12.2429 369.87 12.4392ZM354.016 14.5985C350.905 13.8787 350.757 13.8787 352.683 14.8602C353.72 15.5145 355.202 15.9725 355.943 15.9725C358.165 15.9725 357.424 15.3837 354.016 14.5985ZM337.126 9.82186C335.941 9.62556 335.496 9.03667 335.94 8.44777C337.274 6.94282 332.533 7.20455 330.607 8.70951C328.68 10.3453 328.68 10.7379 330.755 10.7379C331.496 10.7379 331.792 10.4108 331.347 10.0836C330.903 9.691 331.496 9.42927 332.829 9.42927C334.311 9.42927 334.755 9.75643 334.163 10.2145C333.57 10.6725 333.57 10.8688 334.311 10.6071C334.903 10.3453 336.237 10.6071 337.274 11.1305C338.904 12.112 339.052 12.112 339.052 11.1959C339.052 10.6071 338.163 10.0182 337.126 9.82186ZM314.309 7.46628C313.568 7.46628 312.827 7.92431 312.827 8.51321C312.827 9.03667 313.568 9.2984 314.309 9.1021C315.198 8.9058 315.79 8.44778 315.79 8.05518C315.79 7.72801 315.198 7.46628 314.309 7.46628ZM291.343 12.5046C290.158 12.2429 288.824 12.3737 288.38 12.7009C287.787 13.0935 288.824 13.3552 290.454 13.3552C294.158 13.3552 294.455 12.9626 291.343 12.5046ZM278.453 8.84037C275.786 8.9058 275.638 8.97124 277.712 9.23297C279.934 9.4947 280.083 9.69099 278.453 10.6071C276.675 11.5885 276.823 11.654 279.194 10.8034C282.749 9.56013 282.305 8.77494 278.453 8.84037ZM143.179 1.57733C141.845 1.1193 140.956 1.05387 140.956 1.44646C140.956 1.77363 141.994 2.23166 143.179 2.49339C144.364 2.68969 145.401 2.75512 145.401 2.62426C145.401 2.49339 144.364 2.03536 143.179 1.57733ZM105.101 10.9342C103.915 11.1305 104.36 11.3268 105.99 11.3268C107.62 11.3923 108.508 11.196 107.916 10.9997C107.471 10.8034 106.138 10.7379 105.101 10.9342ZM101.248 3.21315C100.804 3.40945 101.248 3.93291 102.286 4.39094C103.767 4.97983 103.915 4.9144 103.026 3.99834C102.582 3.34402 101.693 3.01685 101.248 3.21315ZM81.6907 2.88599C80.9499 2.88599 80.2091 3.01685 80.2091 3.14772C80.2091 3.34402 80.9499 3.67118 81.6907 3.86748C82.5797 4.06378 83.1724 3.93291 83.1724 3.60575C83.1724 3.21315 82.5797 2.88599 81.6907 2.88599ZM46.1313 8.12061C45.3905 8.12061 44.6497 8.25148 44.6497 8.38234C44.6497 8.57864 45.3905 8.9058 46.1313 9.1021C47.0203 9.2984 47.613 9.16753 47.613 8.84037C47.613 8.44777 47.0203 8.12061 46.1313 8.12061ZM28.6479 5.17614C28.2034 5.37243 28.648 5.89589 29.6852 6.35392C31.1668 6.94282 31.315 6.87739 30.426 5.96133C29.9815 5.307 29.0924 4.97984 28.6479 5.17614ZM19.4618 7.46628C18.721 7.46628 17.9801 7.59715 17.9801 7.72801C17.9801 7.92431 18.721 8.25148 19.4618 8.44777C20.3508 8.64407 20.9434 8.51321 20.9434 8.18604C20.9434 7.79345 20.3508 7.46628 19.4618 7.46628Z" fill="#C9FF22"/>
</svg>
