<svg width="120" height="120" viewBox="0 0 120 120" fill="none" xmlns="http://www.w3.org/2000/svg">
<rect width="120" height="120" rx="20" fill="#F2F1EC"/>
<g clip-path="url(#clip0_1792_37970)">
<path d="M50.9318 58.3248L50.9296 58.3263L50.9275 58.3279L48.1703 60.4299C47.7612 60.7417 47.5606 61.2455 47.6072 61.745C47.6691 62.409 47.6889 63.0716 47.6663 63.729C47.649 64.2347 47.8822 64.7302 48.3154 65.0166L51.2933 66.9849C51.403 67.0628 51.4425 67.1875 51.4144 67.3006L49.4383 72.505C49.3872 72.6258 49.2647 72.6862 49.1703 72.6703L49.1651 72.6695L49.1598 72.6687L45.6129 72.1747C45.1056 72.104 44.6124 72.3177 44.296 72.7027C43.9134 73.1684 43.5029 73.6099 43.0646 74.0237C42.6988 74.3692 42.5153 74.8862 42.6212 75.3993L43.2902 78.6424L43.2904 78.6432C43.3147 78.7599 43.259 78.8784 43.138 78.9374L38.0772 81.2123L38.0736 81.214L38.07 81.2156C37.9619 81.267 37.8412 81.2338 37.7755 81.1434L37.7738 81.1411L37.7721 81.1388L35.8246 78.5391C35.5104 78.1197 35.002 77.9197 34.5027 77.972C33.8624 78.0392 33.2191 78.0602 32.5837 78.0385C32.0827 78.0214 31.5911 78.257 31.3074 78.6959L29.4053 81.6385C29.405 81.6388 29.4047 81.6393 29.4045 81.6396C29.3417 81.7335 29.2116 81.7796 29.0965 81.7343L29.0956 81.7341L29.0948 81.7337L23.9238 79.7315C23.8041 79.6799 23.7445 79.5561 23.7602 79.461L23.7608 79.4573L23.7613 79.4534L24.2586 76.02C24.335 75.4927 24.1124 74.9817 23.7187 74.659C23.1934 74.2287 22.6972 73.7513 22.2303 73.2378C21.8891 72.8626 21.3744 72.6766 20.8652 72.784L17.5128 73.491L17.5122 73.4911C17.3965 73.5156 17.279 73.4592 17.2207 73.3371L14.9679 68.2267L14.9663 68.223L14.9646 68.2194C14.9138 68.1103 14.9466 67.9885 15.0362 67.9222L15.0382 67.9207L15.0401 67.9192L17.8482 65.7821C18.2552 65.4724 18.4555 64.9734 18.415 64.4781C18.3656 63.8743 18.3542 63.2676 18.3777 62.6683C18.3976 62.1594 18.1635 61.6601 17.7272 61.3727L14.9099 59.5166C14.817 59.4533 14.7714 59.322 14.8162 59.2059L14.8165 59.205L14.8168 59.2041L16.7996 53.9823C16.8506 53.8616 16.9732 53.8012 17.0675 53.8171L17.0722 53.8178L17.0769 53.8185L20.411 54.2937C20.923 54.3666 21.4205 54.1499 21.7381 53.7605C22.1452 53.2613 22.5915 52.7833 23.0694 52.3378C23.4404 51.992 23.6267 51.4709 23.5192 50.9539L22.7728 47.3634L22.7728 47.3632C22.7485 47.2467 22.8039 47.1284 22.9244 47.0693L27.9841 44.8269L27.9886 44.8249L27.9932 44.8228C28.1013 44.7714 28.222 44.8046 28.2877 44.895L28.2893 44.8973L28.291 44.8995L30.5342 47.897C30.841 48.3069 31.3342 48.5084 31.8238 48.4675C32.4254 48.4173 33.0313 48.406 33.6344 48.4302C34.1378 48.4503 34.6312 48.2137 34.9155 47.7739L36.7849 44.881C36.7852 44.8806 36.7854 44.8802 36.7857 44.8798C36.8485 44.786 36.9786 44.7399 37.0938 44.7851L37.0946 44.7855L37.0954 44.7857L42.2664 46.788C42.386 46.8396 42.4457 46.9633 42.43 47.0585L42.4292 47.0633L42.4285 47.0681L41.9396 50.5792C41.8693 51.0842 42.0722 51.5779 42.4462 51.8984C42.8755 52.2664 43.2868 52.6568 43.6769 53.073C44.0191 53.438 44.528 53.6188 45.0317 53.5122L48.4554 52.788L48.4557 52.7879C48.5715 52.7633 48.689 52.8198 48.7474 52.9421L51.0003 58.021L51.0017 58.0243L51.0033 58.0276C51.0541 58.1366 51.0213 58.2584 50.9318 58.3248ZM37.147 72.6133C42.2771 70.3145 44.5856 64.2355 42.31 59.0561C40.0339 53.8593 34.0137 51.5274 28.884 53.8422C23.7541 56.1411 21.4457 62.2203 23.7216 67.3997C25.9981 72.5805 32.0181 74.9115 37.147 72.6133Z" fill="#C9FF22" stroke="#414143"/>
<path d="M98.0389 54.6175L98.0382 54.6182L98.0375 54.6189L96.1997 56.361C95.7857 56.7538 95.6545 57.3475 95.8167 57.8765C96.1521 58.9703 96.3509 60.0835 96.4081 61.1988C96.4364 61.7547 96.7629 62.2715 97.2915 62.4959L99.7497 63.5397C99.8835 63.6012 99.9229 63.7246 99.9001 63.807L99.8987 63.813L99.8974 63.8191L99.0878 67.1862L99.0865 67.192L99.0851 67.1977C99.0623 67.3075 98.9512 67.3968 98.827 67.391C98.8263 67.391 98.8256 67.391 98.8256 67.391L96.3212 67.229C95.7291 67.1907 95.1949 67.5291 94.9327 68.0397C94.4185 69.0409 93.7747 69.9766 93.0107 70.8299C92.6311 71.254 92.5049 71.8727 92.7423 72.416L93.647 74.4865V74.487L93.6477 74.4874C93.6932 74.5912 93.6594 74.7335 93.5442 74.8153L90.6754 76.7043L90.6712 76.7068L90.6671 76.7095C90.5753 76.7734 90.4345 76.7598 90.3503 76.6683V76.6679L90.3496 76.6674L88.7755 74.9665C88.3807 74.5406 87.7817 74.4109 87.2531 74.5836C86.0799 74.9664 84.875 75.1821 83.679 75.2253C83.12 75.2454 82.5948 75.5764 82.3692 76.1196L81.3865 78.4803L81.3851 78.4851L81.383 78.4899C81.3437 78.5919 81.2229 78.6588 81.1028 78.6269L81.0994 78.626L81.0959 78.6251L77.7613 77.8073L77.7558 77.8059L77.7503 77.8047C77.6412 77.7816 77.5529 77.6696 77.5584 77.5444C77.5584 77.5439 77.5584 77.5433 77.5591 77.5426L77.7192 75.0553C77.7572 74.4625 77.428 73.926 76.9296 73.6582C76.0519 73.1868 75.2166 72.6058 74.4495 71.9254C74.041 71.563 73.4566 71.4374 72.9332 71.6525L70.3997 72.6939L70.3941 72.6962L70.3886 72.6987C70.2835 72.7459 70.1552 72.7068 70.0919 72.598L70.0901 72.5949L70.0881 72.5918L68.2962 69.6452C68.2284 69.5265 68.2524 69.3962 68.3462 69.3142L68.3473 69.3131L68.3486 69.3121L70.2221 67.6441C70.6686 67.2467 70.8088 66.6222 70.6314 66.0721C70.2725 64.9594 70.0618 63.8209 69.9936 62.6847C69.9597 62.1204 69.618 61.601 69.0762 61.3874L66.7644 60.4761C66.6262 60.4155 66.5712 60.2891 66.5953 60.1729C66.5953 60.1728 66.5954 60.1726 66.5954 60.1725L67.3097 56.7903L67.3098 56.7898L67.3099 56.7893C67.3382 56.6538 67.4542 56.5748 67.5536 56.5801L67.557 56.5803L67.5604 56.5804L70.0545 56.6681C70.6342 56.6885 71.1509 56.3498 71.4034 55.8463C71.9087 54.8389 72.5402 53.8876 73.2978 53.0263C73.6611 52.6134 73.7893 52.019 73.5748 51.4863L72.4821 48.7733L72.4799 48.7676L72.4774 48.762C72.4307 48.656 72.4693 48.5266 72.577 48.4626L72.5801 48.4608L72.5832 48.4588L75.501 46.6493C75.6188 46.5808 75.7478 46.605 75.8291 46.6997L75.8302 46.7009L75.8313 46.7022L77.6115 48.7407C78.0042 49.1902 78.6198 49.3316 79.1629 49.1561C80.1608 48.8336 81.1842 48.6376 82.2125 48.563C82.7681 48.5227 83.276 48.1757 83.4837 47.6305L84.4223 45.1658C84.4823 45.0269 84.6072 44.9715 84.7225 44.9958C84.7225 44.9958 84.7225 44.9958 84.7231 44.9958L88.0723 45.7172L88.073 45.7173V45.7174C88.2075 45.746 88.2855 45.8631 88.2807 45.9634L88.28 45.9669V45.9704L88.193 48.5243C88.173 49.1188 88.5188 49.6459 89.0274 49.897C90.1364 50.4446 91.1674 51.1486 92.0956 52.0034C92.5166 52.3911 93.1336 52.5207 93.6753 52.2777L95.8795 51.2884C95.9823 51.2423 96.1231 51.2767 96.2039 51.3927L98.0748 54.2902L98.0768 54.2941L98.0796 54.298C98.1431 54.3908 98.1293 54.5326 98.0389 54.6175ZM87.9039 69.705V69.7048C92.1798 67.0772 93.5228 61.4536 90.9204 57.1522C88.3186 52.8344 82.7501 51.4787 78.4907 54.106C74.2149 56.7337 72.8723 62.3574 75.4745 66.6589C78.0767 70.9605 83.6445 72.3156 87.9039 69.705Z" fill="#E83D46" stroke="#414143"/>
<path d="M67.9251 38.3911L67.9323 38.3926L67.9395 38.3938C68.0333 38.4096 68.1355 38.5164 68.1463 38.6381V42.6174C68.1463 42.7431 68.0627 42.8434 67.9514 42.8684L67.9506 42.8686L67.9499 42.8687L65.5076 43.427C65.0173 43.539 64.6376 43.9025 64.4675 44.3586C64.396 44.5503 64.3199 44.7382 64.238 44.9232C64.0379 45.3751 64.0491 45.9172 64.3305 46.3556L65.6669 48.4379L65.6698 48.4422L65.6727 48.4465C65.736 48.5396 65.7244 48.6722 65.6377 48.7598L62.7796 51.646C62.6907 51.7358 62.5665 51.7483 62.4711 51.6882L62.4704 51.6878L62.4697 51.6873L60.2933 50.3267C59.8733 50.0641 59.361 50.0503 58.9278 50.2406C58.7934 50.2997 58.6573 50.3564 58.5201 50.4107C58.0724 50.5879 57.7209 50.975 57.616 51.4676L57.0562 54.0973L57.056 54.0981L57.0558 54.0989C57.0288 54.2287 56.9276 54.3076 56.808 54.3076H52.7433C52.6186 54.3076 52.5193 54.223 52.4945 54.1107L52.4941 54.1088L52.4936 54.1067L51.9 51.5394C51.7835 51.0356 51.4107 50.6534 50.955 50.4833C50.7619 50.4112 50.5709 50.3326 50.3824 50.2489C49.94 50.0522 49.4157 50.0714 48.9924 50.3479L46.8371 51.7555L46.8325 51.7584L46.8281 51.7615C46.7359 51.8255 46.6044 51.8137 46.5176 51.7262L43.6596 48.84C43.5706 48.7502 43.5583 48.6249 43.6178 48.5287L44.9593 46.3611C45.2362 45.9138 45.2344 45.3682 45.0306 44.9188C44.9559 44.7541 44.8859 44.5856 44.8197 44.4144C44.6438 43.96 44.2585 43.6032 43.7674 43.4988L41.3259 42.9798C41.1972 42.9524 41.1191 42.8502 41.1191 42.7296V38.7371C41.1191 38.6114 41.2028 38.5111 41.3142 38.486L41.3154 38.4858L41.3167 38.4855L43.6265 37.9501C44.1327 37.8328 44.5179 37.4485 44.6796 36.9742C44.7647 36.7243 44.8578 36.4818 44.9598 36.2455C45.153 35.7974 45.1388 35.2635 44.862 34.8307L43.5354 32.7568L43.5324 32.7522L43.5293 32.7477C43.4659 32.6546 43.4776 32.5219 43.5643 32.4343L46.4223 29.5482C46.5113 29.4583 46.6355 29.4458 46.7309 29.506L46.7313 29.5063L46.7318 29.5066L48.7845 30.7941C49.2141 31.0635 49.7389 31.0716 50.1777 30.8702C50.4281 30.7552 50.6838 30.65 50.9435 30.5535C51.4027 30.3829 51.7676 29.9935 51.877 29.4918L52.3676 27.2437L52.3676 27.2434C52.3924 27.1313 52.4916 27.0469 52.6163 27.0469H56.681C56.8057 27.0469 56.905 27.1314 56.9297 27.2437L56.9303 27.2464L56.9309 27.2492L57.4792 29.5797C57.5941 30.0684 57.9513 30.4445 58.3948 30.6169C58.5913 30.6933 58.7851 30.7752 58.9766 30.862C59.42 31.0628 59.9456 31.0421 60.3687 30.7655L62.3492 29.4707L62.3536 29.4677L62.358 29.4647C62.4502 29.4007 62.5817 29.4125 62.6685 29.5001L65.5265 32.3862C65.6155 32.476 65.6278 32.6014 65.5683 32.6975L64.292 34.7596C64.0262 35.1892 64.0134 35.7166 64.2141 36.1596C64.3301 36.4155 64.4361 36.6735 64.53 36.9351C64.7015 37.4121 65.0973 37.8013 65.6174 37.9098L67.9251 38.3911ZM52.8799 48.0416C56.9895 49.0031 61.0998 46.4223 62.0523 42.271C63.0046 38.1208 60.4487 33.9701 56.3379 33.0082C52.2284 32.0467 48.1181 34.6275 47.1656 38.7788C46.2133 42.929 48.7693 47.0798 52.8799 48.0416Z" fill="#812D9C" stroke="#414143"/>
<path d="M63.8463 67.3397L63.8508 67.3417L63.8553 67.3436L66.3427 68.3836C66.4672 68.4414 66.5271 68.5678 66.5035 68.6876L66.0402 70.7264C65.9109 71.2956 66.1412 71.866 66.5694 72.2157C67.1549 72.6941 67.6797 73.2291 68.1402 73.8099C68.4892 74.25 69.0633 74.4854 69.6335 74.3473L71.6564 73.8575C71.7747 73.8343 71.8992 73.895 71.9561 74.0201L72.984 76.5274C73.033 76.6585 72.9822 76.7858 72.8902 76.8405L72.8855 76.8433L72.8811 76.8461L71.0844 77.9831C70.5964 78.2919 70.3592 78.8567 70.4155 79.4083C70.5209 80.4434 70.4775 81.5009 70.2705 82.5505C70.1523 83.1499 70.3875 83.7949 70.9311 84.13L72.4194 85.0472C72.5433 85.1303 72.5735 85.2684 72.5293 85.369L72.5274 85.3735L72.5254 85.3781L71.4957 87.8896C71.4386 88.0151 71.3136 88.0757 71.195 88.052L68.887 87.5076C68.3715 87.3863 67.8503 87.5697 67.4976 87.9328C67.1658 88.2751 66.811 88.5923 66.4398 88.8843C65.993 89.2364 65.7568 89.8247 65.8979 90.4061L66.3133 92.1181C66.3359 92.2373 66.2759 92.3627 66.1522 92.4199L63.6693 93.4578C63.5394 93.5073 63.4132 93.4564 63.359 93.363L63.3566 93.3595L63.3541 93.3554L62.3846 91.7814C62.0807 91.2886 61.5233 91.0474 60.9778 91.101C60.2701 91.1714 59.5494 91.1694 58.8301 91.0927C58.276 91.0341 57.7081 91.2802 57.404 91.7842L56.4391 93.3853C56.3569 93.5101 56.22 93.5408 56.1204 93.4962L56.1159 93.4941L56.1114 93.492L53.624 92.452C53.4985 92.3941 53.4386 92.2658 53.4638 92.146V92.1453L53.8466 90.3064C53.9645 89.7397 53.7294 89.1785 53.302 88.8356C52.655 88.3169 52.0752 87.7251 51.5749 87.0775C51.2268 86.6272 50.6452 86.3839 50.0668 86.5248L48.0719 87.0106C47.9537 87.0336 47.8293 86.973 47.7724 86.8475L46.7444 84.3404C46.6956 84.2094 46.7463 84.082 46.8383 84.0274L46.8425 84.0248L46.8467 84.0222L48.7192 82.8434C49.1984 82.5418 49.4386 81.9919 49.3938 81.4485C49.3647 81.0962 49.3516 80.74 49.3544 80.3845C49.3583 79.8736 49.1117 79.3748 48.6611 79.0977L46.4357 77.7286C46.3119 77.6455 46.2816 77.5074 46.3259 77.4069L46.3279 77.4024L46.3297 77.3978L47.3596 74.8859C47.4167 74.7604 47.5419 74.6998 47.6605 74.7236L49.5899 75.1732C50.2034 75.3162 50.8121 75.0293 51.1455 74.5278C51.6963 73.6994 52.3521 72.9705 53.0853 72.3462C53.5029 71.9905 53.7203 71.4217 53.5852 70.8598L53.0818 68.7659C53.0591 68.6467 53.1191 68.5212 53.2429 68.4637L55.7258 67.4257C55.8557 67.3762 55.9819 67.4275 56.036 67.5205L56.0385 67.5248L56.0411 67.5289L57.108 69.2574C57.4214 69.7653 58.0025 70.0046 58.5625 69.9301C59.3747 69.8222 60.2057 69.8077 61.0349 69.8986C61.5912 69.9596 62.1642 69.7146 62.4702 69.2064L63.5275 67.4506C63.6098 67.3257 63.7467 67.295 63.8463 67.3397ZM56.8049 88.1071L56.8056 88.1078C60.9521 89.84 65.7307 87.8562 67.4627 83.6523C69.1952 79.4633 67.2289 74.6533 63.0665 72.9047C58.9035 71.1558 54.1403 73.1404 52.4085 77.3444C50.6766 81.5485 52.642 86.3589 56.8049 88.1071Z" fill="#39B52C" stroke="#414143"/>
<path d="M109.761 80.5696L109.004 80.2105C108.659 80.0466 108.437 79.7032 108.387 79.3209C108.363 79.135 108.333 78.9505 108.295 78.7677C108.217 78.392 108.308 77.9942 108.574 77.7208L109.174 77.1063C109.38 76.8978 109.412 76.5611 109.269 76.3206L108.094 74.4286C107.935 74.172 107.618 74.0598 107.332 74.172L106.577 74.45C106.212 74.5845 105.806 74.4967 105.5 74.2545C105.336 74.1245 105.166 74.0001 104.991 73.8811C104.687 73.6743 104.489 73.3352 104.489 72.9646V71.9754C104.489 71.6707 104.283 71.4142 103.997 71.3501L101.838 70.853C101.552 70.7889 101.251 70.9332 101.124 71.2057L100.745 72.0166C100.578 72.3746 100.225 72.5999 99.8353 72.6459C99.6028 72.6733 99.3743 72.7124 99.148 72.7625C98.7767 72.8448 98.3826 72.7535 98.1114 72.4841L97.5669 71.9433C97.3606 71.7349 97.0273 71.7028 96.7892 71.8471L94.9155 73.0336C94.6616 73.194 94.5504 73.5146 94.6616 73.8033L94.9059 74.4849C95.0384 74.8538 94.9507 75.2631 94.7099 75.5713C94.5753 75.7444 94.4469 75.9236 94.3269 76.1079C94.1184 76.4282 93.7741 76.6413 93.3945 76.6413H92.5974C92.2958 76.6413 92.0412 76.8497 91.9777 77.1384L91.4857 79.3189C91.4222 79.6076 91.565 79.9122 91.8349 80.0405L92.476 80.3429C92.8321 80.5113 93.057 80.87 93.1026 81.2648C93.1343 81.5393 93.182 81.8116 93.2427 82.0787C93.3289 82.4563 93.2385 82.8589 92.9694 83.1351L92.4546 83.6642C92.2482 83.8726 92.2158 84.2093 92.3593 84.4499L93.5339 86.3415C93.6926 86.5988 94.0101 86.711 94.2958 86.5988L95.017 86.3408C95.3751 86.2131 95.7706 86.2983 96.0708 86.5332C96.2695 86.6894 96.4772 86.8358 96.6919 86.9717C97.0245 87.1815 97.2495 87.5384 97.2495 87.9343V88.7311C97.2495 89.0357 97.4558 89.2922 97.7415 89.3564L99.9009 89.8534C100.187 89.9175 100.488 89.7732 100.616 89.5007L100.986 88.7046C101.149 88.3554 101.49 88.1316 101.868 88.0786C102.064 88.0514 102.258 88.0166 102.449 87.9748C102.82 87.8925 103.213 87.9845 103.484 88.2536L104.077 88.8433C104.283 89.0518 104.616 89.0838 104.855 88.9395L106.728 87.7531C106.983 87.5928 107.094 87.2721 106.983 86.9835L106.698 86.1756C106.57 85.8137 106.653 85.4136 106.886 85.1093C107.033 84.916 107.173 84.7146 107.304 84.5059C107.509 84.1823 107.854 83.9688 108.235 83.9688H109.031C109.333 83.9688 109.587 83.7604 109.65 83.4718L110.142 81.2912C110.174 81.0025 110.031 80.6979 109.761 80.5696ZM99.4723 85.941C98.0907 85.6203 96.9479 84.8186 96.1695 83.7444L95.725 83.0228C95.1377 81.8844 94.9155 80.5536 95.1854 79.2067L95.2488 78.9502C95.5822 77.6193 96.3599 76.529 97.3765 75.7594L98.1225 75.2944C99.2819 74.6852 100.648 74.4767 102.029 74.7974C105.077 75.5189 106.983 78.5814 106.268 81.676C105.554 84.7705 102.521 86.6629 99.4723 85.941Z" fill="#ECA73E"/>
<path fill-rule="evenodd" clip-rule="evenodd" d="M109.65 83.4718L110.142 81.2912C110.174 81.0025 110.031 80.6979 109.761 80.5696L109.004 80.2105C108.659 80.0466 108.437 79.7032 108.387 79.3209C108.363 79.135 108.333 78.9505 108.295 78.7677C108.217 78.392 108.308 77.9942 108.574 77.7208L109.174 77.1063C109.38 76.8978 109.412 76.5611 109.269 76.3206L108.094 74.4286C107.935 74.172 107.618 74.0598 107.332 74.172L106.577 74.45C106.212 74.5845 105.806 74.4967 105.5 74.2545C105.336 74.1245 105.166 74.0001 104.991 73.8811C104.687 73.6743 104.489 73.3352 104.489 72.9646V71.9754C104.489 71.6707 104.283 71.4142 103.997 71.3501L101.838 70.853C101.552 70.7889 101.251 70.9332 101.124 71.2057L100.745 72.0166C100.578 72.3746 100.225 72.5999 99.8353 72.6459C99.6028 72.6733 99.3743 72.7124 99.148 72.7625C98.7767 72.8448 98.3826 72.7535 98.1114 72.4841L97.5669 71.9433C97.3606 71.7349 97.0273 71.7028 96.7892 71.8471L94.9155 73.0336C94.6616 73.194 94.5504 73.5146 94.6616 73.8033L94.9059 74.4849C95.0384 74.8538 94.9507 75.2631 94.7099 75.5713C94.5753 75.7444 94.4469 75.9236 94.3269 76.1079C94.1184 76.4282 93.7741 76.6413 93.3945 76.6413H92.5974C92.2958 76.6413 92.0412 76.8497 91.9777 77.1384L91.4857 79.3189C91.4222 79.6076 91.565 79.9122 91.8349 80.0405L92.476 80.3429C92.8321 80.5113 93.057 80.87 93.1026 81.2648C93.1343 81.5393 93.182 81.8116 93.2427 82.0787C93.3289 82.4563 93.2385 82.8589 92.9694 83.1351L92.4546 83.6642C92.2482 83.8726 92.2158 84.2093 92.3593 84.4499L93.5339 86.3415C93.6926 86.5988 94.0101 86.711 94.2958 86.5988L95.017 86.3408C95.3751 86.2131 95.7706 86.2983 96.0708 86.5332C96.2695 86.6894 96.4772 86.8358 96.6919 86.9717C97.0245 87.1815 97.2495 87.5384 97.2495 87.9343V88.7311C97.2495 89.0357 97.4558 89.2922 97.7415 89.3564L99.9009 89.8534C100.187 89.9175 100.488 89.7732 100.616 89.5007L100.986 88.7046C101.149 88.3554 101.49 88.1316 101.868 88.0786C102.064 88.0514 102.258 88.0166 102.449 87.9748C102.82 87.8925 103.213 87.9845 103.484 88.2536L104.077 88.8433C104.283 89.0518 104.616 89.0838 104.855 88.9395L106.728 87.7531C106.983 87.5928 107.094 87.2721 106.983 86.9835L106.698 86.1756C106.57 85.8137 106.653 85.4136 106.886 85.1093C107.033 84.916 107.173 84.7146 107.304 84.5059C107.509 84.1823 107.854 83.9688 108.235 83.9688H109.031C109.333 83.9688 109.587 83.7604 109.65 83.4718ZM104.544 88.2313L106.238 87.1585L105.982 86.4328C105.758 85.7961 105.914 85.1262 106.284 84.6414C106.418 84.4661 106.545 84.283 106.665 84.0931C106.992 83.5755 107.566 83.2021 108.235 83.2021H108.932L109.376 81.2342L108.682 80.9045C108.073 80.6156 107.713 80.028 107.634 79.4202C107.613 79.2529 107.585 79.0877 107.551 78.9246C107.43 78.3356 107.563 77.6649 108.034 77.1827L108.568 76.6348L107.506 74.9242L106.837 75.1704C106.194 75.4071 105.517 75.2418 105.032 74.858C104.884 74.7402 104.728 74.6265 104.567 74.5173C104.075 74.1828 103.73 73.6158 103.73 72.9646V72.075L101.768 71.6233L101.432 72.3435C101.137 72.9754 100.533 73.3354 99.923 73.4075C99.7166 73.4319 99.5131 73.4667 99.3108 73.5115C98.7236 73.6415 98.0569 73.5058 97.5787 73.0307L97.1004 72.555L95.4062 73.628L95.6194 74.2235C95.8527 74.8736 95.6878 75.5574 95.3061 76.046C95.1847 76.202 95.0687 76.3636 94.9611 76.5293C94.6319 77.0351 94.0632 77.4081 93.3945 77.4081H92.6954L92.2482 79.3893L92.7969 79.6483C93.4256 79.9451 93.7851 80.5569 93.8569 81.1759C93.8852 81.4214 93.9273 81.6658 93.9825 81.9065C94.1191 82.5054 93.9846 83.1862 93.5104 83.6729L93.0598 84.1356L94.1226 85.847L94.7637 85.6181C95.3945 85.3928 96.057 85.5524 96.5359 85.9271C96.7153 86.0681 96.9024 86.2001 97.0942 86.3213C97.6146 86.6496 98.0086 87.2359 98.0086 87.9343V88.6314L99.9713 89.0831L100.3 88.3777C100.586 87.7629 101.168 87.4018 101.765 87.3195C101.941 87.2951 102.115 87.2638 102.287 87.2254C102.874 87.0958 103.54 87.2331 104.017 87.7071L104.544 88.2313ZM95.2488 78.9502C95.5822 77.6193 96.3599 76.529 97.3765 75.7594L98.1225 75.2944C99.2819 74.6852 100.648 74.4767 102.029 74.7974C105.077 75.5189 106.983 78.5814 106.268 81.676C105.554 84.7705 102.521 86.6629 99.4723 85.941C98.0907 85.6203 96.9479 84.8186 96.1695 83.7444L95.725 83.0228C95.1377 81.8844 94.9155 80.5536 95.1854 79.2067L95.2488 78.9502ZM99.3005 86.688C102.757 87.5049 106.197 85.3578 107.008 81.8502C107.818 78.3401 105.655 74.8681 102.202 74.0508L102.2 74.0505L102.199 74.0501C100.637 73.6874 99.0866 73.9232 97.7726 74.6143L97.7477 74.6272L96.9486 75.1251L96.921 75.1459C95.7775 76.012 94.8921 77.2475 94.5132 78.7621L94.5125 78.7631L94.4449 79.0375L94.4414 79.0546C94.135 80.582 94.3883 82.091 95.0522 83.3772L95.0653 83.4032L95.5401 84.1739L95.5573 84.1971C96.4386 85.4142 97.736 86.3241 99.3005 86.688Z" fill="#414143"/>
</g>
<defs>
<clipPath id="clip0_1792_37970">
<rect width="104" height="68.0727" fill="white" transform="translate(8 26)"/>
</clipPath>
</defs>
</svg>
